ISO-10303-21;
HEADER;
FILE_DESCRIPTION (( 'STEP AP203' ),
    '1' );
FILE_NAME ('prototype_grip.STEP',
    '2025-09-22T18:39:47',
    ( '' ),
    ( '' ),
    'SwSTEP 2.0',
    'SolidWorks 2025',
    '' );
FILE_SCHEMA (( 'CONFIG_CONTROL_DESIGN' ));
ENDSEC;

DATA;
#1 = CARTESIAN_POINT ( 'NONE',  ( -16.33476942200390525, 4.009921467019485597, 5.000000000000000000 ) ) ;
#2 = ORIENTED_EDGE ( 'NONE', *, *, #352, .T. ) ;
#3 = LINE ( 'NONE', #215, #150 ) ;
#4 = EDGE_LOOP ( 'NONE', ( #60, #376, #185 ) ) ;
#5 = CIRCLE ( 'NONE', #106, 18.98335376595972335 ) ;
#6 = DIRECTION ( 'NONE',  ( 0.000000000000000000, 0.000000000000000000, -1.000000000000000000 ) ) ;
#7 = ORIENTED_EDGE ( 'NONE', *, *, #112, .T. ) ;
#8 = ORIENTED_EDGE ( 'NONE', *, *, #196, .T. ) ;
#9 = APPLICATION_PROTOCOL_DEFINITION ( 'international standard', 'config_control_design', 1994, #23 ) ;
#10 = ORIENTED_EDGE ( 'NONE', *, *, #249, .T. ) ;
#11 = CARTESIAN_POINT ( 'NONE',  ( -16.33476942200390525, 5.000000000000004441, 3.031204663039688718 ) ) ;
#12 = VECTOR ( 'NONE', #311, 1000.000000000000000 ) ;
#13 = VERTEX_POINT ( 'NONE', #257 ) ;
#14 = ORIENTED_EDGE ( 'NONE', *, *, #84, .F. ) ;
#15 = PERSON_AND_ORGANIZATION_ROLE ( 'creator' ) ;
#16 = VECTOR ( 'NONE', #174, 1000.000000000000000 ) ;
#17 = DIRECTION ( 'NONE',  ( 0.000000000000000000, 1.000000000000000000, 0.000000000000000000 ) ) ;
#18 = EDGE_CURVE ( 'NONE', #154, #126, #287, .T. ) ;
#19 = DIRECTION ( 'NONE',  ( 1.000000000000000000, 0.000000000000000000, 0.000000000000000000 ) ) ;
#20 = PERSON_AND_ORGANIZATION_ROLE ( 'design_supplier' ) ;
#21 = CARTESIAN_POINT ( 'NONE',  ( 0.000000000000000000, 40.05403568290165595, 0.000000000000000000 ) ) ;
#22 = LINE ( 'NONE', #266, #380 ) ;
#23 = APPLICATION_CONTEXT ( 'configuration controlled 3d designs of mechanical parts and assemblies' ) ;
#24 = ORIENTED_EDGE ( 'NONE', *, *, #309, .F. ) ;
#25 = AXIS2_PLACEMENT_3D ( 'NONE', #75, #293, #298 ) ;
#26 = EDGE_CURVE ( 'NONE', #126, #363, #217, .T. ) ;
#27 = PLANE ( 'NONE',  #197 ) ;
#28 = EDGE_LOOP ( 'NONE', ( #121, #243, #267, #205, #330 ) ) ;
#29 = VECTOR ( 'NONE', #163, 1000.000000000000000 ) ;
#30 = DIRECTION ( 'NONE',  ( 0.000000000000000000, 0.000000000000000000, -1.000000000000000000 ) ) ;
#31 = ORIENTED_EDGE ( 'NONE', *, *, #178, .T. ) ;
#32 = DIRECTION ( 'NONE',  ( -0.000000000000000000, -1.000000000000000000, -0.000000000000000000 ) ) ;
#33 = ORIENTED_EDGE ( 'NONE', *, *, #142, .T. ) ;
#34 = VECTOR ( 'NONE', #62, 1000.000000000000000 ) ;
#35 = CARTESIAN_POINT ( 'NONE',  ( -23.98335376595972690, 5.000000000000000888, 2.500000000000000000 ) ) ;
#36 = DIRECTION ( 'NONE',  ( 0.000000000000000000, -0.000000000000000000, 1.000000000000000000 ) ) ;
#37 = CC_DESIGN_DATE_AND_TIME_ASSIGNMENT ( #283, #286, ( #56 ) ) ;
#38 = LINE ( 'NONE', #331, #29 ) ;
#39 = CARTESIAN_POINT ( 'NONE',  ( -23.98335376595972690, 5.000000000000000888, 0.000000000000000000 ) ) ;
#40 = LOCAL_TIME ( 1, 39, 47.00000000000000000, #256 ) ;
#41 = CARTESIAN_POINT ( 'NONE',  ( 0.000000000000000000, 5.000000000000000888, 2.500000000000000000 ) ) ;
#42 = ADVANCED_FACE ( 'NONE', ( #67 ), #102, .F. ) ;
#43 = VERTEX_POINT ( 'NONE', #138 ) ;
#44 = PERSON_AND_ORGANIZATION_ROLE ( 'design_owner' ) ;
#45 = CARTESIAN_POINT ( 'NONE',  ( -18.31304781306424800, -1.000000000000000000, 5.000000000000000000 ) ) ;
#46 = APPROVAL_ROLE ( '' ) ;
#47 = PERSON_AND_ORGANIZATION ( #87, #374 ) ;
#48 = CARTESIAN_POINT ( 'NONE',  ( 0.000000000000000000, 37.04999999999999716, 0.000000000000000000 ) ) ;
#49 = AXIS2_PLACEMENT_3D ( 'NONE', #246, #125, #129 ) ;
#50 = DIRECTION ( 'NONE',  ( -0.3960419453437818427, -0.9182324202119597212, 0.000000000000000000 ) ) ;
#51 = CC_DESIGN_PERSON_AND_ORGANIZATION_ASSIGNMENT ( #47, #15, ( #56 ) ) ;
#52 = DIRECTION ( 'NONE',  ( 0.000000000000000000, 0.000000000000000000, -1.000000000000000000 ) ) ;
#53 = ORIENTED_EDGE ( 'NONE', *, *, #352, .F. ) ;
#54 = CARTESIAN_POINT ( 'NONE',  ( 0.000000000000000000, 5.000000000000000888, 2.500000000000000000 ) ) ;
#55 = ORIENTED_EDGE ( 'NONE', *, *, #172, .F. ) ;
#56 = PRODUCT_DEFINITION ( 'UNKNOWN', '', #200, #320 ) ;
#57 = CARTESIAN_POINT ( 'NONE',  ( -16.33476942200390525, 4.009921467019485597, 5.000000000000000000 ) ) ;
#58 = ORIENTED_EDGE ( 'NONE', *, *, #264, .F. ) ;
#59 = DIRECTION ( 'NONE',  ( 1.000000000000000000, 0.000000000000000000, 0.000000000000000000 ) ) ;
#60 = ORIENTED_EDGE ( 'NONE', *, *, #234, .F. ) ;
#61 = B_SPLINE_CURVE_WITH_KNOTS ( 'NONE', 3,
 ( #189, #280, #203, #176 ),
 .UNSPECIFIED., .F., .F.,
 ( 4, 4 ),
 ( 0.01094161784423346682, 0.01314716605628830220 ),
 .UNSPECIFIED. ) ;
#62 = DIRECTION ( 'NONE',  ( 0.000000000000000000, -1.000000000000000000, 0.000000000000000000 ) ) ;
#63 = EDGE_LOOP ( 'NONE', ( #14, #97, #124, #157, #339, #273, #8, #375 ) ) ;
#64 = CARTESIAN_POINT ( 'NONE',  ( 18.98335376595972335, 0.000000000000000000, 0.000000000000000000 ) ) ;
#65 = CC_DESIGN_PERSON_AND_ORGANIZATION_ASSIGNMENT ( #382, #44, ( #100 ) ) ;
#66 = FACE_OUTER_BOUND ( 'NONE', #328, .T. ) ;
#67 = FACE_OUTER_BOUND ( 'NONE', #193, .T. ) ;
#68 = DATE_AND_TIME ( #168, #354 ) ;
#69 = DIRECTION ( 'NONE',  ( 0.000000000000000000, 1.000000000000000000, 0.000000000000000000 ) ) ;
#70 = VECTOR ( 'NONE', #110, 1000.000000000000000 ) ;
#71 = PERSON_AND_ORGANIZATION ( #87, #374 ) ;
#72 = APPROVAL ( #103, 'UNSPECIFIED' ) ;
#73 = EDGE_LOOP ( 'NONE', ( #104, #335, #86, #2 ) ) ;
#74 = PERSON_AND_ORGANIZATION ( #87, #374 ) ;
#75 = CARTESIAN_POINT ( 'NONE',  ( 0.000000000000000000, -962.9499999999999318, 0.000000000000000000 ) ) ;
#76 = COORDINATED_UNIVERSAL_TIME_OFFSET ( 7, 0, .AHEAD. ) ;
#77 = CLOSED_SHELL ( 'NONE', ( #366, #42, #144, #170, #231, #278, #90, #204, #164, #225 ) ) ;
#78 = LINE ( 'NONE', #175, #275 ) ;
#79 = VECTOR ( 'NONE', #96, 1000.000000000000000 ) ;
#80 = VECTOR ( 'NONE', #160, 1000.000000000000000 ) ;
#81 = PLANE ( 'NONE',  #312 ) ;
#82 = EDGE_CURVE ( 'NONE', #240, #154, #227, .T. ) ;
#83 = CIRCLE ( 'NONE', #143, 16.61363577845823158 ) ;
#84 = EDGE_CURVE ( 'NONE', #151, #282, #346, .T. ) ;
#85 = FACE_OUTER_BOUND ( 'NONE', #63, .T. ) ;
#86 = ORIENTED_EDGE ( 'NONE', *, *, #294, .T. ) ;
#87 = PERSON ( 'UNSPECIFIED', 'UNSPECIFIED', 'UNSPECIFIED', ('UNSPECIFIED'), ('UNSPECIFIED'), ('UNSPECIFIED') ) ;
#88 = CARTESIAN_POINT ( 'NONE',  ( -23.98335376595972690, 0.000000000000000000, 0.000000000000000000 ) ) ;
#89 = EDGE_LOOP ( 'NONE', ( #296, #191, #58, #180 ) ) ;
#90 = ADVANCED_FACE ( 'NONE', ( #162 ), #135, .T. ) ;
#91 = CARTESIAN_POINT ( 'NONE',  ( -15.98000000000000043, 0.000000000000000000, 0.000000000000000000 ) ) ;
#92 = APPROVAL_PERSON_ORGANIZATION ( #258, #391, #221 ) ;
#93 = VECTOR ( 'NONE', #270, 1000.000000000000000 ) ;
#94 = CARTESIAN_POINT ( 'NONE',  ( 0.000000000000000000, 40.05403568290165595, 0.000000000000000000 ) ) ;
#95 = EDGE_LOOP ( 'NONE', ( #214, #237, #7, #167 ) ) ;
#96 = DIRECTION ( 'NONE',  ( 1.000000000000000000, -0.000000000000000000, 0.000000000000000000 ) ) ;
#97 = ORIENTED_EDGE ( 'NONE', *, *, #255, .F. ) ;
#98 = CARTESIAN_POINT ( 'NONE',  ( 18.98335376595972335, 0.000000000000000000, 0.000000000000000000 ) ) ;
#99 = DIRECTION ( 'NONE',  ( -1.000000000000000000, -0.000000000000000000, -0.000000000000000000 ) ) ;
#100 = PRODUCT ( 'prototype_grip', 'prototype_grip', '', ( #315 ) ) ;
#101 = DIRECTION ( 'NONE',  ( 0.000000000000000000, 0.000000000000000000, 1.000000000000000000 ) ) ;
#102 = PLANE ( 'NONE',  #337 ) ;
#103 = APPROVAL_STATUS ( 'not_yet_approved' ) ;
#104 = ORIENTED_EDGE ( 'NONE', *, *, #255, .T. ) ;
#105 = DIRECTION ( 'NONE',  ( 1.000000000000000000, -0.000000000000000000, 0.000000000000000000 ) ) ;
#106 = AXIS2_PLACEMENT_3D ( 'NONE', #272, #342, #6 ) ;
#107 = DATE_AND_TIME ( #379, #333 ) ;
#108 = CARTESIAN_POINT ( 'NONE',  ( -18.31304781306424800, 5.000000000000000888, 5.000000000000000000 ) ) ;
#109 = APPROVAL_ROLE ( '' ) ;
#110 = DIRECTION ( 'NONE',  ( -0.3960419453437818427, 0.9182324202119597212, -0.000000000000000000 ) ) ;
#111 = COORDINATED_UNIVERSAL_TIME_OFFSET ( 7, 0, .AHEAD. ) ;
#112 = EDGE_CURVE ( 'NONE', #240, #207, #348, .T. ) ;
#113 = LOCAL_TIME ( 1, 39, 47.00000000000000000, #323 ) ;
#114 = EDGE_CURVE ( 'NONE', #240, #210, #378, .T. ) ;
#115 = CARTESIAN_POINT ( 'NONE',  ( -17.65583088711130344, 1.337734005601396658, 5.000000000000000000 ) ) ;
#116 = DIRECTION ( 'NONE',  ( 0.000000000000000000, 0.000000000000000000, 1.000000000000000000 ) ) ;
#117 = VERTEX_POINT ( 'NONE', #277 ) ;
#118 = LINE ( 'NONE', #383, #70 ) ;
#119 = ORIENTED_EDGE ( 'NONE', *, *, #142, .F. ) ;
#120 = FACE_OUTER_BOUND ( 'NONE', #28, .T. ) ;
#121 = ORIENTED_EDGE ( 'NONE', *, *, #338, .T. ) ;
#122 = APPLICATION_CONTEXT ( 'configuration controlled 3d designs of mechanical parts and assemblies' ) ;
#123 = MANIFOLD_SOLID_BREP ( 'Cut-Extrude2', #77 ) ;
#124 = ORIENTED_EDGE ( 'NONE', *, *, #133, .F. ) ;
#125 = DIRECTION ( 'NONE',  ( 1.000000000000000000, -0.000000000000000000, 0.000000000000000000 ) ) ;
#126 = VERTEX_POINT ( 'NONE', #371 ) ;
#127 = CARTESIAN_POINT ( 'NONE',  ( -47.49993056474533404, -4.336808689942017736E-16, 0.000000000000000000 ) ) ;
#128 = LINE ( 'NONE', #245, #305 ) ;
#129 = DIRECTION ( 'NONE',  ( 0.000000000000000000, 0.000000000000000000, -1.000000000000000000 ) ) ;
#130 = ORIENTED_EDGE ( 'NONE', *, *, #338, .F. ) ;
#131 = PRODUCT_DEFINITION_SHAPE ( 'NONE', 'NONE',  #56 ) ;
#132 = CARTESIAN_POINT ( 'NONE',  ( 18.98335376595972335, 0.000000000000000000, 0.000000000000000000 ) ) ;
#133 = EDGE_CURVE ( 'NONE', #43, #368, #128, .T. ) ;
#134 = CARTESIAN_POINT ( 'NONE',  ( 18.98335376595972335, 0.000000000000000000, 0.000000000000000000 ) ) ;
#135 = PLANE ( 'NONE',  #147 ) ;
#136 = AXIS2_PLACEMENT_3D ( 'NONE', #236, #152, #19 ) ;
#137 = APPROVAL_DATE_TIME ( #345, #391 ) ;
#138 = CARTESIAN_POINT ( 'NONE',  ( -16.61363577845823158, 5.000000000000000888, 0.000000000000000000 ) ) ;
#139 = APPROVAL_DATE_TIME ( #349, #72 ) ;
#140 = FACE_OUTER_BOUND ( 'NONE', #89, .T. ) ;
#141 = CALENDAR_DATE ( 2025, 23, 9 ) ;
#142 = EDGE_CURVE ( 'NONE', #363, #381, #61, .T. ) ;
#143 = AXIS2_PLACEMENT_3D ( 'NONE', #244, #161, #101 ) ;
#144 = ADVANCED_FACE ( 'NONE', ( #341 ), #297, .F. ) ;
#145 = DIRECTION ( 'NONE',  ( -0.000000000000000000, 0.000000000000000000, -1.000000000000000000 ) ) ;
#146 = CARTESIAN_POINT ( 'NONE',  ( -16.99666801958630202, 2.674504804990966100, 5.000000000000000000 ) ) ;
#147 = AXIS2_PLACEMENT_3D ( 'NONE', #254, #69, #350 ) ;
#148 = VERTEX_POINT ( 'NONE', #195 ) ;
#149 = CARTESIAN_POINT ( 'NONE',  ( 0.000000000000000000, 40.05403568290165595, 0.000000000000000000 ) ) ;
#150 = VECTOR ( 'NONE', #336, 1000.000000000000000 ) ;
#151 = VERTEX_POINT ( 'NONE', #169 ) ;
#152 = DIRECTION ( 'NONE',  ( -0.000000000000000000, 0.000000000000000000, 1.000000000000000000 ) ) ;
#153 = ORIENTED_EDGE ( 'NONE', *, *, #183, .F. ) ;
#154 = VERTEX_POINT ( 'NONE', #288 ) ;
#155 = LINE ( 'NONE', #369, #34 ) ;
#156 = AXIS2_PLACEMENT_3D ( 'NONE', #54, #238, #356 ) ;
#157 = ORIENTED_EDGE ( 'NONE', *, *, #178, .F. ) ;
#158 = EDGE_CURVE ( 'NONE', #310, #392, #232, .T. ) ;
#159 = APPROVAL ( #377, 'UNSPECIFIED' ) ;
#160 = DIRECTION ( 'NONE',  ( 0.000000000000000000, -1.000000000000000000, 0.000000000000000000 ) ) ;
#161 = DIRECTION ( 'NONE',  ( 0.000000000000000000, 1.000000000000000000, 0.000000000000000000 ) ) ;
#162 = FACE_OUTER_BOUND ( 'NONE', #177, .T. ) ;
#163 = DIRECTION ( 'NONE',  ( -0.000000000000000000, -0.000000000000000000, -1.000000000000000000 ) ) ;
#164 = ADVANCED_FACE ( 'NONE', ( #140 ), #27, .F. ) ;
#165 = EDGE_LOOP ( 'NONE', ( #33, #222, #24, #361, #31, #314 ) ) ;
#166 = DATE_TIME_ROLE ( 'classification_date' ) ;
#167 = ORIENTED_EDGE ( 'NONE', *, *, #294, .F. ) ;
#168 = CALENDAR_DATE ( 2025, 23, 9 ) ;
#169 = CARTESIAN_POINT ( 'NONE',  ( -47.49993056474533404, -4.336808689942017736E-16, 0.000000000000000000 ) ) ;
#170 = ADVANCED_FACE ( 'NONE', ( #85 ), #268, .F. ) ;
#171 = APPLICATION_PROTOCOL_DEFINITION ( 'international standard', 'config_control_design', 1994, #122 ) ;
#172 = EDGE_CURVE ( 'NONE', #148, #282, #355, .T. ) ;
#173 = VECTOR ( 'NONE', #218, 1000.000000000000000 ) ;
#174 = DIRECTION ( 'NONE',  ( -0.4282777748198811629, 0.9036471366608379574, -0.000000000000000000 ) ) ;
#175 = CARTESIAN_POINT ( 'NONE',  ( -16.33476942200390525, -1.000000000000000000, 5.000000000000000000 ) ) ;
#176 = CARTESIAN_POINT ( 'NONE',  ( -16.33476942200390525, 4.009921467019485597, 5.000000000000000000 ) ) ;
#177 = EDGE_LOOP ( 'NONE', ( #306, #276, #252, #181, #53, #269, #250 ) ) ;
#178 = EDGE_CURVE ( 'NONE', #392, #43, #199, .T. ) ;
#179 = CARTESIAN_POINT ( 'NONE',  ( -23.98335376595972690, 0.000000000000000000, 2.500000000000000000 ) ) ;
#180 = ORIENTED_EDGE ( 'NONE', *, *, #82, .F. ) ;
#181 = ORIENTED_EDGE ( 'NONE', *, *, #133, .T. ) ;
#182 =( LENGTH_UNIT ( ) NAMED_UNIT ( * ) SI_UNIT ( .MILLI., .METRE. ) );
#183 = EDGE_CURVE ( 'NONE', #381, #126, #78, .T. ) ;
#184 = VECTOR ( 'NONE', #219, 1000.000000000000000 ) ;
#185 = ORIENTED_EDGE ( 'NONE', *, *, #172, .T. ) ;
#186 = LINE ( 'NONE', #274, #325 ) ;
#187 = DIRECTION ( 'NONE',  ( -1.000000000000000000, 0.000000000000000000, 0.000000000000000000 ) ) ;
#188 =( NAMED_UNIT ( * ) PLANE_ANGLE_UNIT ( ) SI_UNIT ( $, .RADIAN. ) );
#189 = CARTESIAN_POINT ( 'NONE',  ( -16.33476942200390525, 5.000000000000004441, 3.031204663039688718 ) ) ;
#190 = LINE ( 'NONE', #127, #12 ) ;
#191 = ORIENTED_EDGE ( 'NONE', *, *, #194, .T. ) ;
#192 = COORDINATED_UNIVERSAL_TIME_OFFSET ( 7, 0, .AHEAD. ) ;
#193 = EDGE_LOOP ( 'NONE', ( #332, #130, #365, #10, #235, #389, #55, #271 ) ) ;
#194 = EDGE_CURVE ( 'NONE', #210, #117, #263, .T. ) ;
#195 = CARTESIAN_POINT ( 'NONE',  ( 15.98000000000000043, 0.000000000000000000, 0.000000000000000000 ) ) ;
#196 = EDGE_CURVE ( 'NONE', #148, #285, #118, .T. ) ;
#197 = AXIS2_PLACEMENT_3D ( 'NONE', #357, #326, #145 ) ;
#198 = CALENDAR_DATE ( 2025, 23, 9 ) ;
#199 = LINE ( 'NONE', #149, #364 ) ;
#200 = PRODUCT_DEFINITION_FORMATION_WITH_SPECIFIED_SOURCE ( 'ANY', '', #100, .NOT_KNOWN. ) ;
#201 = EDGE_CURVE ( 'NONE', #381, #358, #303, .T. ) ;
#202 = PLANE ( 'NONE',  #292 ) ;
#203 = CARTESIAN_POINT ( 'NONE',  ( -16.33476942200390525, 4.398417082847896786, 4.370923015166187753 ) ) ;
#204 = ADVANCED_FACE ( 'NONE', ( #329 ), #316, .T. ) ;
#205 = ORIENTED_EDGE ( 'NONE', *, *, #18, .F. ) ;
#206 = CARTESIAN_POINT ( 'NONE',  ( -18.31304781306424800, -4.336808689942017736E-16, 5.000000000000000000 ) ) ;
#207 = VERTEX_POINT ( 'NONE', #388 ) ;
#208 = CC_DESIGN_APPROVAL ( #72, ( #56 ) ) ;
#209 = LINE ( 'NONE', #132, #79 ) ;
#210 = VERTEX_POINT ( 'NONE', #179 ) ;
#211 = PRODUCT_RELATED_PRODUCT_CATEGORY ( 'detail', '', ( #100 ) ) ;
#212 = LINE ( 'NONE', #373, #173 ) ;
#213 = APPROVAL_PERSON_ORGANIZATION ( #230, #159, #46 ) ;
#214 = ORIENTED_EDGE ( 'NONE', *, *, #249, .F. ) ;
#215 = CARTESIAN_POINT ( 'NONE',  ( -48.33476942200391591, -4.336808689942017736E-16, 5.000000000000000000 ) ) ;
#216 = DIRECTION ( 'NONE',  ( -0.000000000000000000, -1.000000000000000000, -0.000000000000000000 ) ) ;
#217 = LINE ( 'NONE', #343, #184 ) ;
#218 = DIRECTION ( 'NONE',  ( 0.000000000000000000, 1.000000000000000000, 0.000000000000000000 ) ) ;
#219 = DIRECTION ( 'NONE',  ( 0.000000000000000000, 0.000000000000000000, -1.000000000000000000 ) ) ;
#220 = UNCERTAINTY_MEASURE_WITH_UNIT (LENGTH_MEASURE( 1.000000000000000082E-05 ), #182, 'distance_accuracy_value', 'NONE');
#221 = APPROVAL_ROLE ( '' ) ;
#222 = ORIENTED_EDGE ( 'NONE', *, *, #201, .T. ) ;
#223 = AXIS2_PLACEMENT_3D ( 'NONE', #359, #327, #52 ) ;
#224 = SECURITY_CLASSIFICATION_LEVEL ( 'unclassified' ) ;
#225 = ADVANCED_FACE ( 'NONE', ( #386 ), #81, .F. ) ;
#226 = CC_DESIGN_DATE_AND_TIME_ASSIGNMENT ( #68, #166, ( #300 ) ) ;
#227 = LINE ( 'NONE', #39, #317 ) ;
#228 = PERSON_AND_ORGANIZATION ( #87, #374 ) ;
#229 = DIRECTION ( 'NONE',  ( 1.000000000000000000, 0.000000000000000000, 0.000000000000000000 ) ) ;
#230 = PERSON_AND_ORGANIZATION ( #87, #374 ) ;
#231 = ADVANCED_FACE ( 'NONE', ( #120 ), #202, .T. ) ;
#232 = LINE ( 'NONE', #21, #16 ) ;
#233 = DIRECTION ( 'NONE',  ( -1.000000000000000000, 0.000000000000000000, 0.000000000000000000 ) ) ;
#234 = EDGE_CURVE ( 'NONE', #285, #282, #319, .T. ) ;
#235 = ORIENTED_EDGE ( 'NONE', *, *, #324, .F. ) ;
#236 = CARTESIAN_POINT ( 'NONE',  ( 0.000000000000000000, 0.000000000000000000, 0.000000000000000000 ) ) ;
#237 = ORIENTED_EDGE ( 'NONE', *, *, #114, .F. ) ;
#238 = DIRECTION ( 'NONE',  ( 0.000000000000000000, 0.000000000000000000, 1.000000000000000000 ) ) ;
#239 = CARTESIAN_POINT ( 'NONE',  ( 0.000000000000000000, 0.000000000000000000, 0.000000000000000000 ) ) ;
#240 = VERTEX_POINT ( 'NONE', #295 ) ;
#241 = CARTESIAN_POINT ( 'NONE',  ( 0.000000000000000000, 37.04999999999999716, 0.000000000000000000 ) ) ;
#242 = CC_DESIGN_SECURITY_CLASSIFICATION ( #300, ( #200 ) ) ;
#243 = ORIENTED_EDGE ( 'NONE', *, *, #201, .F. ) ;
#244 = CARTESIAN_POINT ( 'NONE',  ( 0.000000000000000000, 5.000000000000004441, 0.000000000000000000 ) ) ;
#245 = CARTESIAN_POINT ( 'NONE',  ( -18.98335376595972335, 5.000000000000000888, 0.000000000000000000 ) ) ;
#246 = CARTESIAN_POINT ( 'NONE',  ( -16.33476942200390525, -1.000000000000000000, 5.000000000000000000 ) ) ;
#247 = APPROVAL_PERSON_ORGANIZATION ( #228, #72, #109 ) ;
#248 = ADVANCED_BREP_SHAPE_REPRESENTATION ( 'prototype_grip', ( #123, #321 ), #301 ) ;
#249 = EDGE_CURVE ( 'NONE', #210, #13, #22, .T. ) ;
#250 = ORIENTED_EDGE ( 'NONE', *, *, #82, .T. ) ;
#251 = PERSON_AND_ORGANIZATION_ROLE ( 'classification_officer' ) ;
#252 = ORIENTED_EDGE ( 'NONE', *, *, #284, .F. ) ;
#253 = CALENDAR_DATE ( 2025, 23, 9 ) ;
#254 = CARTESIAN_POINT ( 'NONE',  ( 0.000000000000000000, 5.000000000000000888, 0.000000000000000000 ) ) ;
#255 = EDGE_CURVE ( 'NONE', #368, #151, #186, .T. ) ;
#256 = COORDINATED_UNIVERSAL_TIME_OFFSET ( 7, 0, .AHEAD. ) ;
#257 = CARTESIAN_POINT ( 'NONE',  ( -47.49993056474533404, -4.336808689942017736E-16, 2.500000000000000000 ) ) ;
#258 = PERSON_AND_ORGANIZATION ( #87, #374 ) ;
#259 = DIRECTION ( 'NONE',  ( 0.000000000000000000, 1.000000000000000000, 0.000000000000000000 ) ) ;
#260 = APPROVAL_DATE_TIME ( #107, #159 ) ;
#261 = CC_DESIGN_APPROVAL ( #391, ( #200 ) ) ;
#262 = CONICAL_SURFACE ( 'NONE', #384, 473.9435975002982673, 0.4425860539731401033 ) ;
#263 = LINE ( 'NONE', #88, #93 ) ;
#264 = EDGE_CURVE ( 'NONE', #154, #117, #155, .T. ) ;
#265 = VECTOR ( 'NONE', #105, 1000.000000000000000 ) ;
#266 = CARTESIAN_POINT ( 'NONE',  ( 0.000000000000000000, 0.000000000000000000, 2.500000000000000000 ) ) ;
#267 = ORIENTED_EDGE ( 'NONE', *, *, #183, .T. ) ;
#268 = PLANE ( 'NONE',  #136 ) ;
#269 = ORIENTED_EDGE ( 'NONE', *, *, #112, .F. ) ;
#270 = DIRECTION ( 'NONE',  ( 0.000000000000000000, -0.000000000000000000, 1.000000000000000000 ) ) ;
#271 = ORIENTED_EDGE ( 'NONE', *, *, #322, .T. ) ;
#272 = CARTESIAN_POINT ( 'NONE',  ( 0.000000000000000000, 0.000000000000000000, 0.000000000000000000 ) ) ;
#273 = ORIENTED_EDGE ( 'NONE', *, *, #322, .F. ) ;
#274 = CARTESIAN_POINT ( 'NONE',  ( -47.49993056474533404, -1.000000000000000888, 0.000000000000000000 ) ) ;
#275 = VECTOR ( 'NONE', #259, 1000.000000000000000 ) ;
#276 = ORIENTED_EDGE ( 'NONE', *, *, #26, .T. ) ;
#277 = CARTESIAN_POINT ( 'NONE',  ( -23.98335376595972690, -4.336808689942017736E-16, 5.000000000000000000 ) ) ;
#278 = ADVANCED_FACE ( 'NONE', ( #66 ), #367, .T. ) ;
#279 =( NAMED_UNIT ( * ) SI_UNIT ( $, .STERADIAN. ) SOLID_ANGLE_UNIT ( ) );
#280 = CARTESIAN_POINT ( 'NONE',  ( -16.33476942200390525, 4.735609913494893242, 3.717990376718931511 ) ) ;
#281 = CARTESIAN_POINT ( 'NONE',  ( -18.31304781306424800, -4.336808689942017736E-16, 5.000000000000000000 ) ) ;
#282 = VERTEX_POINT ( 'NONE', #91 ) ;
#283 = DATE_AND_TIME ( #198, #372 ) ;
#284 = EDGE_CURVE ( 'NONE', #43, #363, #83, .T. ) ;
#285 = VERTEX_POINT ( 'NONE', #241 ) ;
#286 = DATE_TIME_ROLE ( 'creation_date' ) ;
#287 = LINE ( 'NONE', #108, #387 ) ;
#288 = CARTESIAN_POINT ( 'NONE',  ( -23.98335376595972690, 5.000000000000000888, 5.000000000000000000 ) ) ;
#289 = SHAPE_DEFINITION_REPRESENTATION ( #131, #248 ) ;
#290 = PERSON_AND_ORGANIZATION_ROLE ( 'creator' ) ;
#291 = CC_DESIGN_PERSON_AND_ORGANIZATION_ASSIGNMENT ( #351, #20, ( #200 ) ) ;
#292 = AXIS2_PLACEMENT_3D ( 'NONE', #45, #116, #353 ) ;
#293 = DIRECTION ( 'NONE',  ( -0.000000000000000000, -1.000000000000000000, -0.000000000000000000 ) ) ;
#294 = EDGE_CURVE ( 'NONE', #13, #207, #212, .T. ) ;
#295 = CARTESIAN_POINT ( 'NONE',  ( -23.98335376595972690, 5.000000000000000888, 2.500000000000000000 ) ) ;
#296 = ORIENTED_EDGE ( 'NONE', *, *, #114, .T. ) ;
#297 = CONICAL_SURFACE ( 'NONE', #25, 431.3090418353576752, 0.4072023031797344927 ) ;
#298 = DIRECTION ( 'NONE',  ( 0.000000000000000000, 0.000000000000000000, -1.000000000000000000 ) ) ;
#299 = ORIENTED_EDGE ( 'NONE', *, *, #26, .F. ) ;
#300 = SECURITY_CLASSIFICATION ( '', '', #224 ) ;
#301 =( GEOMETRIC_REPRESENTATION_CONTEXT ( 3 ) GLOBAL_UNCERTAINTY_ASSIGNED_CONTEXT ( ( #220 ) ) GLOBAL_UNIT_ASSIGNED_CONTEXT ( ( #182, #188, #279 ) ) REPRESENTATION_CONTEXT ( 'NONE', 'WORKASPACE' ) );
#302 = CARTESIAN_POINT ( 'NONE',  ( -47.49993056474533404, 0.000000000000000000, 0.000000000000000000 ) ) ;
#303 = B_SPLINE_CURVE_WITH_KNOTS ( 'NONE', 3,
 ( #1, #146, #115, #206 ),
 .UNSPECIFIED., .F., .F.,
 ( 4, 4 ),
 ( 0.007436157142496535068, 0.01190751275236565966 ),
 .UNSPECIFIED. ) ;
#304 = DIRECTION ( 'NONE',  ( 0.000000000000000000, 0.000000000000000000, -1.000000000000000000 ) ) ;
#305 = VECTOR ( 'NONE', #99, 1000.000000000000000 ) ;
#306 = ORIENTED_EDGE ( 'NONE', *, *, #18, .T. ) ;
#307 = FACE_OUTER_BOUND ( 'NONE', #165, .T. ) ;
#308 = DIRECTION ( 'NONE',  ( 0.000000000000000000, 0.000000000000000000, 1.000000000000000000 ) ) ;
#309 = EDGE_CURVE ( 'NONE', #310, #358, #5, .T. ) ;
#310 = VERTEX_POINT ( 'NONE', #98 ) ;
#311 = DIRECTION ( 'NONE',  ( 0.000000000000000000, 0.000000000000000000, 1.000000000000000000 ) ) ;
#312 = AXIS2_PLACEMENT_3D ( 'NONE', #302, #229, #30 ) ;
#313 = DIRECTION ( 'NONE',  ( 1.000000000000000000, 0.000000000000000000, 0.000000000000000000 ) ) ;
#314 = ORIENTED_EDGE ( 'NONE', *, *, #284, .T. ) ;
#315 = MECHANICAL_CONTEXT ( 'NONE', #23, 'mechanical' ) ;
#316 = PLANE ( 'NONE',  #156 ) ;
#317 = VECTOR ( 'NONE', #308, 1000.000000000000000 ) ;
#318 = APPROVAL_STATUS ( 'not_yet_approved' ) ;
#319 = LINE ( 'NONE', #48, #347 ) ;
#320 = DESIGN_CONTEXT ( 'detailed design', #122, 'design' ) ;
#321 = AXIS2_PLACEMENT_3D ( 'NONE', #239, #334, #59 ) ;
#322 = EDGE_CURVE ( 'NONE', #148, #310, #209, .T. ) ;
#323 = COORDINATED_UNIVERSAL_TIME_OFFSET ( 7, 0, .AHEAD. ) ;
#324 = EDGE_CURVE ( 'NONE', #151, #13, #190, .T. ) ;
#325 = VECTOR ( 'NONE', #32, 1000.000000000000000 ) ;
#326 = DIRECTION ( 'NONE',  ( 1.000000000000000000, 0.000000000000000000, -0.000000000000000000 ) ) ;
#327 = DIRECTION ( 'NONE',  ( -0.000000000000000000, -1.000000000000000000, -0.000000000000000000 ) ) ;
#328 = EDGE_LOOP ( 'NONE', ( #119, #299, #153 ) ) ;
#329 = FACE_OUTER_BOUND ( 'NONE', #95, .T. ) ;
#330 = ORIENTED_EDGE ( 'NONE', *, *, #264, .T. ) ;
#331 = CARTESIAN_POINT ( 'NONE',  ( -47.49993056474533404, 5.000000000000000888, 0.000000000000000000 ) ) ;
#332 = ORIENTED_EDGE ( 'NONE', *, *, #309, .T. ) ;
#333 = LOCAL_TIME ( 1, 39, 47.00000000000000000, #192 ) ;
#334 = DIRECTION ( 'NONE',  ( 0.000000000000000000, 0.000000000000000000, 1.000000000000000000 ) ) ;
#335 = ORIENTED_EDGE ( 'NONE', *, *, #324, .T. ) ;
#336 = DIRECTION ( 'NONE',  ( 1.000000000000000000, -0.000000000000000000, -0.000000000000000000 ) ) ;
#337 = AXIS2_PLACEMENT_3D ( 'NONE', #134, #17, #36 ) ;
#338 = EDGE_CURVE ( 'NONE', #117, #358, #3, .T. ) ;
#339 = ORIENTED_EDGE ( 'NONE', *, *, #158, .F. ) ;
#340 = CARTESIAN_POINT ( 'NONE',  ( -47.49993056474533404, 5.000000000000000888, 0.000000000000000000 ) ) ;
#341 = FACE_OUTER_BOUND ( 'NONE', #4, .T. ) ;
#342 = DIRECTION ( 'NONE',  ( -0.000000000000000000, -1.000000000000000000, -0.000000000000000000 ) ) ;
#343 = CARTESIAN_POINT ( 'NONE',  ( -16.33476942200390525, 5.000000000000000888, 5.000000000000000000 ) ) ;
#344 = CC_DESIGN_PERSON_AND_ORGANIZATION_ASSIGNMENT ( #71, #251, ( #300 ) ) ;
#345 = DATE_AND_TIME ( #141, #40 ) ;
#346 = LINE ( 'NONE', #64, #265 ) ;
#347 = VECTOR ( 'NONE', #50, 1000.000000000000000 ) ;
#348 = LINE ( 'NONE', #41, #370 ) ;
#349 = DATE_AND_TIME ( #253, #113 ) ;
#350 = DIRECTION ( 'NONE',  ( 0.000000000000000000, -0.000000000000000000, 1.000000000000000000 ) ) ;
#351 = PERSON_AND_ORGANIZATION ( #87, #374 ) ;
#352 = EDGE_CURVE ( 'NONE', #207, #368, #38, .T. ) ;
#353 = DIRECTION ( 'NONE',  ( 1.000000000000000000, 0.000000000000000000, -0.000000000000000000 ) ) ;
#354 = LOCAL_TIME ( 1, 39, 47.00000000000000000, #111 ) ;
#355 = CIRCLE ( 'NONE', #223, 15.98000000000000043 ) ;
#356 = DIRECTION ( 'NONE',  ( 1.000000000000000000, 0.000000000000000000, -0.000000000000000000 ) ) ;
#357 = CARTESIAN_POINT ( 'NONE',  ( -23.98335376595972690, 5.000000000000000888, 0.000000000000000000 ) ) ;
#358 = VERTEX_POINT ( 'NONE', #281 ) ;
#359 = CARTESIAN_POINT ( 'NONE',  ( 0.000000000000000000, 0.000000000000000000, 0.000000000000000000 ) ) ;
#360 = CC_DESIGN_PERSON_AND_ORGANIZATION_ASSIGNMENT ( #74, #290, ( #200 ) ) ;
#361 = ORIENTED_EDGE ( 'NONE', *, *, #158, .T. ) ;
#362 = CARTESIAN_POINT ( 'NONE',  ( 0.000000000000000000, -959.9459643170982872, 0.000000000000000000 ) ) ;
#363 = VERTEX_POINT ( 'NONE', #11 ) ;
#364 = VECTOR ( 'NONE', #390, 1000.000000000000000 ) ;
#365 = ORIENTED_EDGE ( 'NONE', *, *, #194, .F. ) ;
#366 = ADVANCED_FACE ( 'NONE', ( #307 ), #262, .T. ) ;
#367 = PLANE ( 'NONE',  #49 ) ;
#368 = VERTEX_POINT ( 'NONE', #340 ) ;
#369 = CARTESIAN_POINT ( 'NONE',  ( -23.98335376595972690, 5.000000000000000888, 5.000000000000000000 ) ) ;
#370 = VECTOR ( 'NONE', #187, 1000.000000000000000 ) ;
#371 = CARTESIAN_POINT ( 'NONE',  ( -16.33476942200390525, 5.000000000000000888, 5.000000000000000000 ) ) ;
#372 = LOCAL_TIME ( 1, 39, 47.00000000000000000, #76 ) ;
#373 = CARTESIAN_POINT ( 'NONE',  ( -47.49993056474533404, -1.000000000000000888, 2.500000000000000000 ) ) ;
#374 = ORGANIZATION ( 'UNSPECIFIED', 'UNSPECIFIED', '' ) ;
#375 = ORIENTED_EDGE ( 'NONE', *, *, #234, .T. ) ;
#376 = ORIENTED_EDGE ( 'NONE', *, *, #196, .F. ) ;
#377 = APPROVAL_STATUS ( 'not_yet_approved' ) ;
#378 = LINE ( 'NONE', #35, #80 ) ;
#379 = CALENDAR_DATE ( 2025, 23, 9 ) ;
#380 = VECTOR ( 'NONE', #233, 1000.000000000000000 ) ;
#381 = VERTEX_POINT ( 'NONE', #57 ) ;
#382 = PERSON_AND_ORGANIZATION ( #87, #374 ) ;
#383 = CARTESIAN_POINT ( 'NONE',  ( 0.000000000000000000, 37.04999999999999716, 0.000000000000000000 ) ) ;
#384 = AXIS2_PLACEMENT_3D ( 'NONE', #362, #216, #304 ) ;
#385 = CC_DESIGN_APPROVAL ( #159, ( #300 ) ) ;
#386 = FACE_OUTER_BOUND ( 'NONE', #73, .T. ) ;
#387 = VECTOR ( 'NONE', #313, 1000.000000000000000 ) ;
#388 = CARTESIAN_POINT ( 'NONE',  ( -47.49993056474533404, 5.000000000000000888, 2.500000000000000000 ) ) ;
#389 = ORIENTED_EDGE ( 'NONE', *, *, #84, .T. ) ;
#390 = DIRECTION ( 'NONE',  ( -0.4282777748198811629, -0.9036471366608379574, 0.000000000000000000 ) ) ;
#391 = APPROVAL ( #318, 'UNSPECIFIED' ) ;
#392 = VERTEX_POINT ( 'NONE', #94 ) ;
ENDSEC;
END-ISO-10303-21;
