ISO-10303-21;
HEADER;
FILE_DESCRIPTION (( 'STEP AP203' ),
    '1' );
FILE_NAME ('pulley_with_barket.STEP',
    '2025-09-18T18:36:53',
    ( '' ),
    ( '' ),
    'SwSTEP 2.0',
    'SolidWorks 2025',
    '' );
FILE_SCHEMA (( 'CONFIG_CONTROL_DESIGN' ));
ENDSEC;

DATA;
#1 = EDGE_CURVE ( 'NONE', #605, #842, #352, .T. ) ;
#2 = ORIENTED_EDGE ( 'NONE', *, *, #733, .T. ) ;
#3 = CC_DESIGN_PERSON_AND_ORGANIZATION_ASSIGNMENT ( #182, #547, ( #185 ) ) ;
#4 = AXIS2_PLACEMENT_3D ( 'NONE', #1142, #54, #324 ) ;
#5 = AXIS2_PLACEMENT_3D ( 'NONE', #858, #400, #143 ) ;
#6 = ORIENTED_EDGE ( 'NONE', *, *, #644, .T. ) ;
#7 = CALENDAR_DATE ( 2025, 19, 9 ) ;
#8 = AXIS2_PLACEMENT_3D ( 'NONE', #270, #266, #904 ) ;
#9 = VECTOR ( 'NONE', #822, 1000.000000000000000 ) ;
#10 = ORIENTED_EDGE ( 'NONE', *, *, #844, .T. ) ;
#11 = ORIENTED_EDGE ( 'NONE', *, *, #354, .T. ) ;
#12 = AXIS2_PLACEMENT_3D ( 'NONE', #950, #131, #489 ) ;
#13 = AXIS2_PLACEMENT_3D ( 'NONE', #891, #442, #694 ) ;
#14 = DIRECTION ( 'NONE',  ( 0.000000000000000000, -0.007925372303288239981, -0.9999685937437506889 ) ) ;
#15 = VERTEX_POINT ( 'NONE', #347 ) ;
#16 = DIRECTION ( 'NONE',  ( 0.000000000000000000, 0.000000000000000000, -1.000000000000000000 ) ) ;
#17 = AXIS2_PLACEMENT_3D ( 'NONE', #992, #537, #550 ) ;
#18 = ORIENTED_EDGE ( 'NONE', *, *, #922, .F. ) ;
#19 = EDGE_CURVE ( 'NONE', #837, #451, #517, .T. ) ;
#20 = DIRECTION ( 'NONE',  ( 0.000000000000000000, -0.007925372303288239981, -0.9999685937437506889 ) ) ;
#21 = ORIENTED_EDGE ( 'NONE', *, *, #549, .T. ) ;
#22 = EDGE_CURVE ( 'NONE', #908, #560, #1051, .T. ) ;
#23 = DIRECTION ( 'NONE',  ( 1.000000000000000000, -0.000000000000000000, -0.000000000000000000 ) ) ;
#24 = CIRCLE ( 'NONE', #676, 1.599999999475627543 ) ;
#25 = AXIS2_PLACEMENT_3D ( 'NONE', #754, #857, #1020 ) ;
#26 = CARTESIAN_POINT ( 'NONE',  ( 525.2402577413685094, 896.8940811219496254, 1315.296021282429365 ) ) ;
#27 = VERTEX_POINT ( 'NONE', #1069 ) ;
#28 = ORIENTED_EDGE ( 'NONE', *, *, #60, .F. ) ;
#29 = CYLINDRICAL_SURFACE ( 'NONE', #342, 3.000000000000074607 ) ;
#30 = CARTESIAN_POINT ( 'NONE',  ( 539.6402577413684867, 896.8940811231598218, 1315.296021282420043 ) ) ;
#31 = FACE_OUTER_BOUND ( 'NONE', #196, .T. ) ;
#32 = DIRECTION ( 'NONE',  ( 0.000000000000000000, -0.007925372303291803103, -0.9999685937437505778 ) ) ;
#33 = EDGE_CURVE ( 'NONE', #159, #871, #1094, .T. ) ;
#34 = VERTEX_POINT ( 'NONE', #510 ) ;
#35 = ORIENTED_EDGE ( 'NONE', *, *, #94, .F. ) ;
#36 = DIRECTION ( 'NONE',  ( 1.000000000000000000, -0.000000000000000000, -0.000000000000000000 ) ) ;
#37 = DIRECTION ( 'NONE',  ( 0.000000000000000000, -0.007925372303291803103, -0.9999685937437505778 ) ) ;
#38 = EDGE_CURVE ( 'NONE', #1114, #298, #422, .T. ) ;
#39 = CARTESIAN_POINT ( 'NONE',  ( 545.2402577413685094, 10.37322603219054074, 1308.821825782910309 ) ) ;
#40 = DIRECTION ( 'NONE',  ( 1.000000000000000000, -0.000000000000000000, 0.000000000000000000 ) ) ;
#41 = VERTEX_POINT ( 'NONE', #156 ) ;
#42 = EDGE_CURVE ( 'NONE', #1087, #639, #65, .T. ) ;
#43 = ORIENTED_EDGE ( 'NONE', *, *, #541, .T. ) ;
#44 = DIRECTION ( 'NONE',  ( 0.000000000000000000, -0.007925372303281818034, -0.9999685937437506889 ) ) ;
#45 = DIRECTION ( 'NONE',  ( 0.000000000000000000, -0.007925372303288239981, -0.9999685937437506889 ) ) ;
#46 = DIRECTION ( 'NONE',  ( 1.000000000000000000, 1.254119382696661907E-16, -3.939145732475853758E-18 ) ) ;
#47 = CARTESIAN_POINT ( 'NONE',  ( 548.2402577413685094, 886.7636265421092503, 1298.875793208195546 ) ) ;
#48 = VERTEX_POINT ( 'NONE', #885 ) ;
#49 = CARTESIAN_POINT ( 'NONE',  ( 545.2402577413685094, 907.1751177767548597, 1350.715652636804862 ) ) ;
#50 = VERTEX_POINT ( 'NONE', #962 ) ;
#51 = DIRECTION ( 'NONE',  ( 1.000000000000000000, 0.000000000000000000, 0.000000000000000000 ) ) ;
#52 = ORIENTED_EDGE ( 'NONE', *, *, #246, .F. ) ;
#53 = DIRECTION ( 'NONE',  ( -1.000000000000000000, 0.000000000000000000, 0.000000000000000000 ) ) ;
#54 = DIRECTION ( 'NONE',  ( 0.000000000000000000, -0.9999685937437507999, 0.007925372303280248110 ) ) ;
#55 = CARTESIAN_POINT ( 'NONE',  ( 548.2402577413685094, 897.1330558911555499, 1343.195085651726686 ) ) ;
#56 = VERTEX_POINT ( 'NONE', #612 ) ;
#57 = CARTESIAN_POINT ( 'NONE',  ( 497.2402577413685094, 897.1330558911555499, 1345.795085651726595 ) ) ;
#58 = CIRCLE ( 'NONE', #535, 3.000000000000074607 ) ;
#59 = DIRECTION ( 'NONE',  ( 1.000000000000000000, -0.000000000000000000, -0.000000000000000000 ) ) ;
#60 = EDGE_CURVE ( 'NONE', #344, #201, #329, .T. ) ;
#61 = CARTESIAN_POINT ( 'NONE',  ( 545.2402577413685094, 887.1995220187897075, 1353.874065864101794 ) ) ;
#62 = CARTESIAN_POINT ( 'NONE',  ( 548.2402577413685094, 896.8940811225510288, 1315.296021281934372 ) ) ;
#63 = VERTEX_POINT ( 'NONE', #893 ) ;
#64 = DIRECTION ( 'NONE',  ( 0.000000000000000000, 0.007925372303288239981, 0.9999685937437506889 ) ) ;
#65 = LINE ( 'NONE', #72, #112 ) ;
#66 = DIRECTION ( 'NONE',  ( 0.000000000000000000, 0.000000000000000000, -1.000000000000000000 ) ) ;
#67 = VECTOR ( 'NONE', #286, 1000.000000000000114 ) ;
#68 = DIRECTION ( 'NONE',  ( -1.000000000000000000, 0.000000000000000000, -0.000000000000000000 ) ) ;
#69 = VERTEX_POINT ( 'NONE', #236 ) ;
#70 = VECTOR ( 'NONE', #128, 1000.000000000000227 ) ;
#71 = CARTESIAN_POINT ( 'NONE',  ( 525.2402577413685094, 904.1989881124331987, 1353.739334534945783 ) ) ;
#72 = CARTESIAN_POINT ( 'NONE',  ( 530.8402577413685322, 896.8742676911953140, 1312.796099798564683 ) ) ;
#73 = CARTESIAN_POINT ( 'NONE',  ( 545.2402577413685094, 886.7874026590189942, 1301.875698989427065 ) ) ;
#74 = DESIGN_CONTEXT ( 'detailed design', #920, 'design' ) ;
#75 = AXIS2_PLACEMENT_3D ( 'NONE', #380, #1111, #1106 ) ;
#76 = VECTOR ( 'NONE', #1070, 1000.000000000000000 ) ;
#77 = FACE_OUTER_BOUND ( 'NONE', #133, .T. ) ;
#78 = ORIENTED_EDGE ( 'NONE', *, *, #207, .T. ) ;
#79 = CARTESIAN_POINT ( 'NONE',  ( 497.2402577413685094, 897.1330558911555499, 1343.195085651726686 ) ) ;
#80 = EDGE_CURVE ( 'NONE', #871, #159, #478, .T. ) ;
#81 = AXIS2_PLACEMENT_3D ( 'NONE', #62, #672, #32 ) ;
#82 = DIRECTION ( 'NONE',  ( 0.000000000000000000, 0.007925372303281818034, 0.9999685937437506889 ) ) ;
#83 = ADVANCED_FACE ( 'NONE', ( #687, #786 ), #976, .T. ) ;
#84 = CARTESIAN_POINT ( 'NONE',  ( 522.2402577413685094, 896.8814005268653773, 1313.696071531944426 ) ) ;
#85 = ORIENTED_EDGE ( 'NONE', *, *, #644, .F. ) ;
#86 = CIRCLE ( 'NONE', #17, 2.499999999505405412 ) ;
#87 = LINE ( 'NONE', #176, #1006 ) ;
#88 = DIRECTION ( 'NONE',  ( 0.000000000000000000, 0.000000000000000000, 1.000000000000000000 ) ) ;
#89 = CIRCLE ( 'NONE', #25, 2.499999999505405412 ) ;
#90 = EDGE_CURVE ( 'NONE', #968, #814, #161, .T. ) ;
#91 = CALENDAR_DATE ( 2025, 19, 9 ) ;
#92 = APPROVAL_STATUS ( 'not_yet_approved' ) ;
#93 = EDGE_LOOP ( 'NONE', ( #602, #558, #6, #1015 ) ) ;
#94 = EDGE_CURVE ( 'NONE', #159, #704, #1156, .T. ) ;
#95 = PERSON_AND_ORGANIZATION_ROLE ( 'creator' ) ;
#96 = ORIENTED_EDGE ( 'NONE', *, *, #638, .T. ) ;
#97 = APPROVAL_STATUS ( 'not_yet_approved' ) ;
#98 = ORIENTED_EDGE ( 'NONE', *, *, #285, .F. ) ;
#99 = ORIENTED_EDGE ( 'NONE', *, *, #90, .T. ) ;
#100 = DIRECTION ( 'NONE',  ( 0.000000000000000000, 0.007925372303280246375, 0.9999685937437506889 ) ) ;
#101 = ADVANCED_FACE ( 'NONE', ( #716 ), #1060, .T. ) ;
#102 = ORIENTED_EDGE ( 'NONE', *, *, #1137, .F. ) ;
#103 = DIRECTION ( 'NONE',  ( -0.000000000000000000, 0.9999685937437509109, -0.007925372303280248110 ) ) ;
#104 = ORIENTED_EDGE ( 'NONE', *, *, #1120, .T. ) ;
#105 = AXIS2_PLACEMENT_3D ( 'NONE', #249, #419, #222 ) ;
#106 = CIRCLE ( 'NONE', #732, 3.000000000000074607 ) ;
#107 = LINE ( 'NONE', #745, #369 ) ;
#108 = EDGE_CURVE ( 'NONE', #693, #868, #257, .T. ) ;
#109 = EDGE_LOOP ( 'NONE', ( #1154, #1129, #178, #484 ) ) ;
#110 = FACE_OUTER_BOUND ( 'NONE', #326, .T. ) ;
#111 = CARTESIAN_POINT ( 'NONE',  ( 525.2402577413685094, 10.34944991528068492, 1305.821920001679018 ) ) ;
#112 = VECTOR ( 'NONE', #436, 1000.000000000000000 ) ;
#113 = ORIENTED_EDGE ( 'NONE', *, *, #753, .F. ) ;
#114 = ORIENTED_EDGE ( 'NONE', *, *, #455, .T. ) ;
#115 = VECTOR ( 'NONE', #100, 1000.000000000000227 ) ;
#116 = DIRECTION ( 'NONE',  ( 1.000000000000000000, -0.000000000000000000, -0.000000000000000000 ) ) ;
#117 = CIRCLE ( 'NONE', #279, 2.599999999999935696 ) ;
#118 = ADVANCED_FACE ( 'NONE', ( #864 ), #29, .T. ) ;
#119 = AXIS2_PLACEMENT_3D ( 'NONE', #925, #134, #588 ) ;
#120 = CARTESIAN_POINT ( 'NONE',  ( 497.2402577413685094, 897.0466445393890353, 1332.745416711501321 ) ) ;
#121 = DIRECTION ( 'NONE',  ( -1.000000000000000000, 0.000000000000000000, -0.000000000000000000 ) ) ;
#122 = CARTESIAN_POINT ( 'NONE',  ( 525.2402577413685094, 906.7629984169844874, 1298.717285762129904 ) ) ;
#123 = ORIENTED_EDGE ( 'NONE', *, *, #789, .F. ) ;
#124 = CIRCLE ( 'NONE', #8, 2.599999999999935696 ) ;
#125 = ORIENTED_EDGE ( 'NONE', *, *, #932, .T. ) ;
#126 = FACE_BOUND ( 'NONE', #568, .T. ) ;
#127 = EDGE_CURVE ( 'NONE', #693, #653, #911, .T. ) ;
#128 = DIRECTION ( 'NONE',  ( 2.818925648462311528E-18, 0.007925372303280246375, 0.9999685937437506889 ) ) ;
#129 = CC_DESIGN_PERSON_AND_ORGANIZATION_ASSIGNMENT ( #1099, #544, ( #287 ) ) ;
#130 = FACE_OUTER_BOUND ( 'NONE', #627, .T. ) ;
#131 = DIRECTION ( 'NONE',  ( -1.000000000000000000, -0.000000000000000000, 0.000000000000000000 ) ) ;
#132 = ORIENTED_EDGE ( 'NONE', *, *, #258, .F. ) ;
#133 = EDGE_LOOP ( 'NONE', ( #824, #1050, #147, #775, #1131, #233 ) ) ;
#134 = DIRECTION ( 'NONE',  ( -1.000000000000000000, -1.254129381351759006E-16, 3.812989626561121363E-18 ) ) ;
#135 = CARTESIAN_POINT ( 'NONE',  ( 522.2402577413685094, 896.8940811225506877, 1315.296021281934145 ) ) ;
#136 = CARTESIAN_POINT ( 'NONE',  ( 545.2402577413685094, 890.1756516831111412, 1350.850383965960646 ) ) ;
#137 = DIRECTION ( 'NONE',  ( 1.000000000000000000, -0.000000000000000000, -0.000000000000000000 ) ) ;
#138 = EDGE_LOOP ( 'NONE', ( #2, #299 ) ) ;
#139 = FACE_OUTER_BOUND ( 'NONE', #213, .T. ) ;
#140 = ORIENTED_EDGE ( 'NONE', *, *, #580, .F. ) ;
#141 = CARTESIAN_POINT ( 'NONE',  ( 530.8402577413685322, 896.8940811219496254, 1315.296021282429365 ) ) ;
#142 = VERTEX_POINT ( 'NONE', #843 ) ;
#143 = DIRECTION ( 'NONE',  ( 0.000000000000000000, 0.007925372303288239981, 0.9999685937437506889 ) ) ;
#144 = CARTESIAN_POINT ( 'NONE',  ( 522.2402577413685094, 890.1756516831108001, 1350.850383965960418 ) ) ;
#145 = AXIS2_PLACEMENT_3D ( 'NONE', #838, #1016, #16 ) ;
#146 = DIRECTION ( 'NONE',  ( 0.000000000000000000, -0.007925372303281818034, -0.9999685937437506889 ) ) ;
#147 = ORIENTED_EDGE ( 'NONE', *, *, #1095, .T. ) ;
#148 = LINE ( 'NONE', #79, #230 ) ;
#149 = EDGE_CURVE ( 'NONE', #814, #201, #184, .T. ) ;
#150 = DIRECTION ( 'NONE',  ( 1.000000000000000000, -0.000000000000000000, -0.000000000000000000 ) ) ;
#151 = LINE ( 'NONE', #407, #1044 ) ;
#152 = CARTESIAN_POINT ( 'NONE',  ( 525.2402577413685094, 887.1995220187893665, 1353.874065864101567 ) ) ;
#153 = ORIENTED_EDGE ( 'NONE', *, *, #823, .F. ) ;
#154 = EDGE_CURVE ( 'NONE', #208, #908, #759, .T. ) ;
#155 = CARTESIAN_POINT ( 'NONE',  ( 530.8402577413685322, 896.8940811219496254, 1315.296021282429365 ) ) ;
#156 = CARTESIAN_POINT ( 'NONE',  ( 545.2402577413685094, 897.0466445393890353, 1332.745416711501321 ) ) ;
#157 = DIRECTION ( 'NONE',  ( 1.000000000000000000, -0.000000000000000000, -0.000000000000000000 ) ) ;
#158 = DIRECTION ( 'NONE',  ( 0.000000000000000000, -0.007925372303288239981, -0.9999685937437506889 ) ) ;
#159 = VERTEX_POINT ( 'NONE', #216 ) ;
#160 = FACE_OUTER_BOUND ( 'NONE', #986, .T. ) ;
#161 = LINE ( 'NONE', #872, #293 ) ;
#162 = DIRECTION ( 'NONE',  ( -1.000000000000000000, -1.254119382696661907E-16, 3.939145732475853758E-18 ) ) ;
#163 = EDGE_CURVE ( 'NONE', #990, #56, #669, .T. ) ;
#164 = VECTOR ( 'NONE', #1034, 1000.000000000000227 ) ;
#165 = DIRECTION ( 'NONE',  ( 0.000000000000000000, 1.000000000000000000, 0.000000000000000000 ) ) ;
#166 = ORIENTED_EDGE ( 'NONE', *, *, #870, .F. ) ;
#167 = CARTESIAN_POINT ( 'NONE',  ( 525.2402577413685094, 887.1995220187893665, 1353.874065864101567 ) ) ;
#168 = ADVANCED_FACE ( 'NONE', ( #313, #1119, #1125, #937 ), #559, .T. ) ;
#169 = DIRECTION ( 'NONE',  ( 1.000000000000000000, -0.000000000000000000, -0.000000000000000000 ) ) ;
#170 = AXIS2_PLACEMENT_3D ( 'NONE', #26, #390, #14 ) ;
#171 = LINE ( 'NONE', #633, #781 ) ;
#172 = EDGE_LOOP ( 'NONE', ( #555, #153 ) ) ;
#173 = DIRECTION ( 'NONE',  ( 0.000000000000000000, 0.000000000000000000, 1.000000000000000000 ) ) ;
#174 = AXIS2_PLACEMENT_3D ( 'NONE', #861, #40, #774 ) ;
#175 = CIRCLE ( 'NONE', #564, 2.499999999505405412 ) ;
#176 = CARTESIAN_POINT ( 'NONE',  ( 545.2402577413685094, 904.1989881124335398, 1353.739334534946011 ) ) ;
#177 = CARTESIAN_POINT ( 'NONE',  ( 525.2402577413685094, 897.0466445393890353, 1332.745416711501321 ) ) ;
#178 = ORIENTED_EDGE ( 'NONE', *, *, #580, .T. ) ;
#179 = DATE_AND_TIME ( #998, #906 ) ;
#180 = LOCAL_TIME ( 1, 36, 53.00000000000000000, #828 ) ;
#181 = ADVANCED_FACE ( 'NONE', ( #494 ), #678, .F. ) ;
#182 = PERSON_AND_ORGANIZATION ( #778, #1012 ) ;
#183 = AXIS2_PLACEMENT_3D ( 'NONE', #219, #1126, #772 ) ;
#184 = CIRCLE ( 'NONE', #970, 1.599999999999891953 ) ;
#185 = PRODUCT_DEFINITION ( 'UNKNOWN', '', #287, #74 ) ;
#186 = ORIENTED_EDGE ( 'NONE', *, *, #888, .F. ) ;
#187 =( LENGTH_UNIT ( ) NAMED_UNIT ( * ) SI_UNIT ( .MILLI., .METRE. ) );
#188 = AXIS2_PLACEMENT_3D ( 'NONE', #988, #1172, #364 ) ;
#189 = ORIENTED_EDGE ( 'NONE', *, *, #241, .F. ) ;
#190 = SHAPE_DEFINITION_REPRESENTATION ( #506, #927 ) ;
#191 = PERSON_AND_ORGANIZATION ( #778, #1012 ) ;
#192 = ORIENTED_EDGE ( 'NONE', *, *, #1042, .F. ) ;
#193 = ORIENTED_EDGE ( 'NONE', *, *, #1085, .F. ) ;
#194 = ADVANCED_FACE ( 'NONE', ( #479, #126 ), #202, .T. ) ;
#195 = LINE ( 'NONE', #751, #115 ) ;
#196 = EDGE_LOOP ( 'NONE', ( #748, #368, #469, #963 ) ) ;
#197 = DIRECTION ( 'NONE',  ( -0.000000000000000000, 0.007925372303280249844, 0.9999685937437506889 ) ) ;
#198 = VERTEX_POINT ( 'NONE', #226 ) ;
#199 = ADVANCED_FACE ( 'NONE', ( #1040 ), #933, .F. ) ;
#200 = DIRECTION ( 'NONE',  ( 0.000000000000000000, 1.000000000000000000, 0.000000000000000000 ) ) ;
#201 = VERTEX_POINT ( 'NONE', #383 ) ;
#202 = PLANE ( 'NONE',  #119 ) ;
#203 = ORIENTED_EDGE ( 'NONE', *, *, #625, .F. ) ;
#204 = CIRCLE ( 'NONE', #13, 3.000000000000074607 ) ;
#205 = DIRECTION ( 'NONE',  ( 0.000000000000000000, -0.007925372303281818034, -0.9999685937437506889 ) ) ;
#206 = ORIENTED_EDGE ( 'NONE', *, *, #321, .F. ) ;
#207 = EDGE_CURVE ( 'NONE', #1087, #645, #89, .T. ) ;
#208 = VERTEX_POINT ( 'NONE', #393 ) ;
#209 = DIRECTION ( 'NONE',  ( -0.000000000000000000, -0.9999685937437509109, 0.007925372303280248110 ) ) ;
#210 = CARTESIAN_POINT ( 'NONE',  ( 522.2402577413685094, 907.1988938936643763, 1353.715558418035926 ) ) ;
#211 = DIRECTION ( 'NONE',  ( 1.000000000000000000, 1.254119382696661907E-16, -3.939145732475853758E-18 ) ) ;
#212 = ORIENTED_EDGE ( 'NONE', *, *, #749, .F. ) ;
#213 = EDGE_LOOP ( 'NONE', ( #1030, #876, #713, #104, #952, #936 ) ) ;
#214 = VERTEX_POINT ( 'NONE', #1113 ) ;
#215 = AXIS2_PLACEMENT_3D ( 'NONE', #39, #1018, #923 ) ;
#216 = CARTESIAN_POINT ( 'NONE',  ( 530.8402577413685322, 896.8814005268733354, 1313.696071532958968 ) ) ;
#217 = ADVANCED_FACE ( 'NONE', ( #110 ), #294, .F. ) ;
#218 = CIRCLE ( 'NONE', #576, 3.000000000000074607 ) ;
#219 = CARTESIAN_POINT ( 'NONE',  ( 532.2402577413685094, 896.8940811225506877, 1315.296021281934145 ) ) ;
#220 = DIRECTION ( 'NONE',  ( 0.000000000000000000, -0.007925372303281818034, -0.9999685937437506889 ) ) ;
#221 = CC_DESIGN_APPROVAL ( #1161, ( #540 ) ) ;
#222 = DIRECTION ( 'NONE',  ( 0.000000000000000000, 0.000000000000000000, -1.000000000000000000 ) ) ;
#223 = VERTEX_POINT ( 'NONE', #1026 ) ;
#224 = VECTOR ( 'NONE', #468, 1000.000000000000000 ) ;
#225 = ORIENTED_EDGE ( 'NONE', *, *, #449, .T. ) ;
#226 = CARTESIAN_POINT ( 'NONE',  ( 545.2402577413685094, 897.1330558911555499, 1343.195085651726686 ) ) ;
#227 = VECTOR ( 'NONE', #519, 1000.000000000000000 ) ;
#228 = CARTESIAN_POINT ( 'NONE',  ( 539.6402577413684867, 896.8940811231598218, 1315.296021282420043 ) ) ;
#229 = AXIS2_PLACEMENT_3D ( 'NONE', #967, #601, #1128 ) ;
#230 = VECTOR ( 'NONE', #1066, 1000.000000000000000 ) ;
#231 = CARTESIAN_POINT ( 'NONE',  ( 522.2402577413685094, 890.1994278000205441, 1353.850289747191709 ) ) ;
#232 = DIRECTION ( 'NONE',  ( -1.000000000000000000, 0.000000000000000000, 0.000000000000000000 ) ) ;
#233 = ORIENTED_EDGE ( 'NONE', *, *, #1130, .T. ) ;
#234 = FACE_BOUND ( 'NONE', #172, .T. ) ;
#235 = ORIENTED_EDGE ( 'NONE', *, *, #60, .T. ) ;
#236 = CARTESIAN_POINT ( 'NONE',  ( 525.2402577413685094, 897.1330558911555499, 1348.395085651726504 ) ) ;
#237 = CC_DESIGN_APPROVAL ( #897, ( #287 ) ) ;
#238 = CYLINDRICAL_SURFACE ( 'NONE', #183, 1.599999999999891953 ) ;
#239 = DIRECTION ( 'NONE',  ( 0.000000000000000000, 0.000000000000000000, 1.000000000000000000 ) ) ;
#240 = CARTESIAN_POINT ( 'NONE',  ( 525.2402577413685094, 904.1752119955233411, 1350.739428753714492 ) ) ;
#241 = EDGE_CURVE ( 'NONE', #242, #848, #218, .T. ) ;
#242 = VERTEX_POINT ( 'NONE', #399 ) ;
#243 = DIRECTION ( 'NONE',  ( -1.000000000000000000, 0.000000000000000000, 0.000000000000000000 ) ) ;
#244 = CARTESIAN_POINT ( 'NONE',  ( 545.2402577413685094, 890.1994278000209988, 1353.850289747191937 ) ) ;
#245 = DIRECTION ( 'NONE',  ( 0.000000000000000000, -0.9999685937437506889, 0.007925372303280419847 ) ) ;
#246 = EDGE_CURVE ( 'NONE', #34, #686, #764, .T. ) ;
#247 = DIRECTION ( 'NONE',  ( 0.000000000000000000, 0.000000000000000000, -1.000000000000000000 ) ) ;
#248 = VECTOR ( 'NONE', #197, 1000.000000000000114 ) ;
#249 = CARTESIAN_POINT ( 'NONE',  ( 548.2402577413685094, 897.1330558911555499, 1345.795085651726595 ) ) ;
#250 = ORIENTED_EDGE ( 'NONE', *, *, #789, .T. ) ;
#251 = DIRECTION ( 'NONE',  ( 0.000000000000000000, 0.000000000000000000, -1.000000000000000000 ) ) ;
#252 = CARTESIAN_POINT ( 'NONE',  ( 530.8402577413685322, 896.8940811219496254, 1315.296021282429365 ) ) ;
#253 = FACE_OUTER_BOUND ( 'NONE', #445, .T. ) ;
#254 = CARTESIAN_POINT ( 'NONE',  ( 548.2402577413685094, 906.7867745338943450, 1301.717191543361423 ) ) ;
#255 = EDGE_LOOP ( 'NONE', ( #742, #491 ) ) ;
#256 = CARTESIAN_POINT ( 'NONE',  ( 548.2402577413685094, 904.1989881124335398, 1353.739334534946011 ) ) ;
#257 = LINE ( 'NONE', #982, #248 ) ;
#258 = EDGE_CURVE ( 'NONE', #919, #214, #980, .T. ) ;
#259 = PLANE ( 'NONE',  #1168 ) ;
#260 = DIRECTION ( 'NONE',  ( 0.000000000000000000, 1.000000000000000000, 0.000000000000000000 ) ) ;
#261 = ORIENTED_EDGE ( 'NONE', *, *, #910, .F. ) ;
#262 = CARTESIAN_POINT ( 'NONE',  ( 545.2402577413685094, 896.8940811231598218, 1315.296021282420043 ) ) ;
#263 = EDGE_CURVE ( 'NONE', #63, #242, #415, .T. ) ;
#264 = ADVANCED_FACE ( 'NONE', ( #964 ), #1141, .T. ) ;
#265 = LINE ( 'NONE', #818, #283 ) ;
#266 = DIRECTION ( 'NONE',  ( -1.000000000000000000, 0.000000000000000000, 0.000000000000000000 ) ) ;
#267 = VERTEX_POINT ( 'NONE', #1033 ) ;
#268 = CARTESIAN_POINT ( 'NONE',  ( 0.000000000000000000, 0.000000000000000000, 0.000000000000000000 ) ) ;
#269 = CARTESIAN_POINT ( 'NONE',  ( 532.2402577413685094, 896.9067617182358845, 1316.895971031924091 ) ) ;
#270 = CARTESIAN_POINT ( 'NONE',  ( 525.2402577413685094, 897.1330558911555499, 1345.795085651726595 ) ) ;
#271 = EDGE_LOOP ( 'NONE', ( #1138, #609 ) ) ;
#272 = COORDINATED_UNIVERSAL_TIME_OFFSET ( 7, 0, .AHEAD. ) ;
#273 = CIRCLE ( 'NONE', #417, 3.000000000000074607 ) ;
#274 = PERSON_AND_ORGANIZATION ( #778, #1012 ) ;
#275 = EDGE_CURVE ( 'NONE', #41, #48, #394, .T. ) ;
#276 = VERTEX_POINT ( 'NONE', #779 ) ;
#277 = VECTOR ( 'NONE', #408, 1000.000000000000000 ) ;
#278 = COORDINATED_UNIVERSAL_TIME_OFFSET ( 7, 0, .AHEAD. ) ;
#279 = AXIS2_PLACEMENT_3D ( 'NONE', #1150, #1159, #481 ) ;
#280 = ORIENTED_EDGE ( 'NONE', *, *, #1085, .T. ) ;
#281 = CIRCLE ( 'NONE', #461, 2.600000000000046718 ) ;
#282 = CALENDAR_DATE ( 2025, 19, 9 ) ;
#283 = VECTOR ( 'NONE', #169, 1000.000000000000000 ) ;
#284 = ORIENTED_EDGE ( 'NONE', *, *, #1181, .T. ) ;
#285 = EDGE_CURVE ( 'NONE', #518, #27, #1003, .T. ) ;
#286 = DIRECTION ( 'NONE',  ( -0.000000000000000000, 0.9999685937437506889, -0.007925372303285634426 ) ) ;
#287 = PRODUCT_DEFINITION_FORMATION_WITH_SPECIFIED_SOURCE ( 'ANY', '', #695, .NOT_KNOWN. ) ;
#288 = ORIENTED_EDGE ( 'NONE', *, *, #1100, .F. ) ;
#289 = EDGE_CURVE ( 'NONE', #344, #968, #24, .T. ) ;
#290 = EDGE_LOOP ( 'NONE', ( #102, #123 ) ) ;
#291 = LINE ( 'NONE', #941, #67 ) ;
#292 = ORIENTED_EDGE ( 'NONE', *, *, #149, .T. ) ;
#293 = VECTOR ( 'NONE', #604, 1000.000000000000000 ) ;
#294 = CYLINDRICAL_SURFACE ( 'NONE', #1035, 2.599999999999935696 ) ;
#295 = ORIENTED_EDGE ( 'NONE', *, *, #1177, .T. ) ;
#296 = CARTESIAN_POINT ( 'NONE',  ( 497.2402577413685094, 897.1330558911555499, 1348.395085651726504 ) ) ;
#297 = EDGE_CURVE ( 'NONE', #737, #704, #474, .T. ) ;
#298 = VERTEX_POINT ( 'NONE', #765 ) ;
#299 = ORIENTED_EDGE ( 'NONE', *, *, #812, .T. ) ;
#300 = DIRECTION ( 'NONE',  ( -0.000000000000000000, 0.9999685937437506889, -0.007925372303280246375 ) ) ;
#301 = LINE ( 'NONE', #111, #801 ) ;
#302 = LINE ( 'NONE', #47, #743 ) ;
#303 = ORIENTED_EDGE ( 'NONE', *, *, #512, .F. ) ;
#304 = ADVANCED_FACE ( 'NONE', ( #253 ), #238, .F. ) ;
#305 = ORIENTED_EDGE ( 'NONE', *, *, #1, .T. ) ;
#306 = EDGE_LOOP ( 'NONE', ( #697, #392 ) ) ;
#307 = CARTESIAN_POINT ( 'NONE',  ( 497.2402577413685094, 897.0466445393890353, 1332.745416711501321 ) ) ;
#308 = DIRECTION ( 'NONE',  ( 0.000000000000000000, 0.9999685937437506889, -0.007925372303285634426 ) ) ;
#309 = CARTESIAN_POINT ( 'NONE',  ( 522.2402577413685094, 897.1330558911555499, 1343.195085651726686 ) ) ;
#310 = DIRECTION ( 'NONE',  ( -1.000000000000000000, -1.254119382696661907E-16, 3.939145732475853758E-18 ) ) ;
#311 = ORIENTED_EDGE ( 'NONE', *, *, #567, .F. ) ;
#312 = EDGE_LOOP ( 'NONE', ( #113, #463, #288, #924 ) ) ;
#313 = FACE_BOUND ( 'NONE', #306, .T. ) ;
#314 = FACE_OUTER_BOUND ( 'NONE', #391, .T. ) ;
#315 = CARTESIAN_POINT ( 'NONE',  ( 497.2402577413685094, 897.0466445393890353, 1335.345416711501457 ) ) ;
#316 = CARTESIAN_POINT ( 'NONE',  ( 522.2402577413685094, 896.7870885964562149, 1301.796445266394358 ) ) ;
#317 = EDGE_LOOP ( 'NONE', ( #284, #747 ) ) ;
#318 = AXIS2_PLACEMENT_3D ( 'NONE', #889, #68, #798 ) ;
#319 = ORIENTED_EDGE ( 'NONE', *, *, #1100, .T. ) ;
#320 = DIRECTION ( 'NONE',  ( 0.000000000000000000, 0.000000000000000000, -1.000000000000000000 ) ) ;
#321 = EDGE_CURVE ( 'NONE', #276, #686, #1163, .T. ) ;
#322 = CARTESIAN_POINT ( 'NONE',  ( 525.2402577413685094, 897.0466445393890353, 1335.345416711501457 ) ) ;
#323 = AXIS2_PLACEMENT_3D ( 'NONE', #960, #975, #1058 ) ;
#324 = DIRECTION ( 'NONE',  ( 0.000000000000000000, -0.007925372303280246375, -0.9999685937437506889 ) ) ;
#325 = FACE_OUTER_BOUND ( 'NONE', #521, .T. ) ;
#326 = EDGE_LOOP ( 'NONE', ( #261, #855, #384, #856 ) ) ;
#327 = CARTESIAN_POINT ( 'NONE',  ( 545.2402577413685094, 887.1995220187897075, 1353.874065864101794 ) ) ;
#328 = ORIENTED_EDGE ( 'NONE', *, *, #638, .F. ) ;
#329 = LINE ( 'NONE', #1149, #736 ) ;
#330 = EDGE_CURVE ( 'NONE', #1124, #56, #1133, .T. ) ;
#331 = LOCAL_TIME ( 1, 36, 53.00000000000000000, #825 ) ;
#332 = FACE_OUTER_BOUND ( 'NONE', #109, .T. ) ;
#333 = DIRECTION ( 'NONE',  ( 0.000000000000000000, -0.007925372303281818034, -0.9999685937437506889 ) ) ;
#334 = CARTESIAN_POINT ( 'NONE',  ( 539.6402577413684867, 896.8742676924055104, 1312.796099798555360 ) ) ;
#335 = ORIENTED_EDGE ( 'NONE', *, *, #263, .T. ) ;
#336 = DIRECTION ( 'NONE',  ( 0.000000000000000000, 0.007925372303251892320, 0.9999685937437510219 ) ) ;
#337 = VECTOR ( 'NONE', #338, 1000.000000000000000 ) ;
#338 = DIRECTION ( 'NONE',  ( 1.000000000000000000, 1.254119382696661907E-16, -3.939145732475853758E-18 ) ) ;
#339 = CIRCLE ( 'NONE', #574, 2.600000000000157740 ) ;
#340 = CARTESIAN_POINT ( 'NONE',  ( 530.8402577413685322, 896.8940811219496254, 1315.296021282429365 ) ) ;
#341 = VECTOR ( 'NONE', #53, 1000.000000000000000 ) ;
#342 = AXIS2_PLACEMENT_3D ( 'NONE', #406, #565, #777 ) ;
#343 = DIRECTION ( 'NONE',  ( 1.000000000000000000, 1.254119382696661907E-16, -3.939145732475853758E-18 ) ) ;
#344 = VERTEX_POINT ( 'NONE', #599 ) ;
#345 = DIRECTION ( 'NONE',  ( 0.000000000000000000, -0.007925372303281818034, -0.9999685937437506889 ) ) ;
#346 = EDGE_CURVE ( 'NONE', #820, #223, #117, .T. ) ;
#347 = CARTESIAN_POINT ( 'NONE',  ( 525.2402577413685094, 896.9138945527038231, 1317.795942766294274 ) ) ;
#348 = AXIS2_PLACEMENT_3D ( 'NONE', #438, #1080, #727 ) ;
#349 = DIRECTION ( 'NONE',  ( 1.000000000000000000, 1.254119382696661907E-16, -3.939145732475853758E-18 ) ) ;
#350 = ADVANCED_FACE ( 'NONE', ( #314 ), #865, .T. ) ;
#351 = CARTESIAN_POINT ( 'NONE',  ( 525.2402577413685094, 896.8940811219496254, 1315.296021282429365 ) ) ;
#352 = LINE ( 'NONE', #719, #571 ) ;
#353 = DIRECTION ( 'NONE',  ( 1.000000000000000000, 1.254119382696661907E-16, -3.939145732475853758E-18 ) ) ;
#354 = EDGE_CURVE ( 'NONE', #652, #63, #670, .T. ) ;
#355 = CARTESIAN_POINT ( 'NONE',  ( 497.2402577413685094, 897.0466445393890353, 1337.945416711501593 ) ) ;
#356 = UNCERTAINTY_MEASURE_WITH_UNIT (LENGTH_MEASURE( 1.000000000000000082E-05 ), #187, 'distance_accuracy_value', 'NONE');
#357 = DIRECTION ( 'NONE',  ( 0.000000000000000000, 0.000000000000000000, 1.000000000000000000 ) ) ;
#358 = ORIENTED_EDGE ( 'NONE', *, *, #1102, .T. ) ;
#359 = CARTESIAN_POINT ( 'NONE',  ( 545.2402577413685094, 897.1330558911555499, 1348.395085651726504 ) ) ;
#360 = CYLINDRICAL_SURFACE ( 'NONE', #348, 2.599999999999935696 ) ;
#361 = CARTESIAN_POINT ( 'NONE',  ( 525.2402577413685094, 904.1752119955233411, 1350.739428753714492 ) ) ;
#362 = ORIENTED_EDGE ( 'NONE', *, *, #1130, .F. ) ;
#363 = MECHANICAL_CONTEXT ( 'NONE', #816, 'mechanical' ) ;
#364 = DIRECTION ( 'NONE',  ( 0.000000000000000000, 0.000000000000000000, -1.000000000000000000 ) ) ;
#365 = EDGE_CURVE ( 'NONE', #1124, #267, #1043, .T. ) ;
#366 = ADVANCED_FACE ( 'NONE', ( #332 ), #699, .T. ) ;
#367 = CARTESIAN_POINT ( 'NONE',  ( 548.2402577413685094, 906.7629984169844874, 1298.717285762129904 ) ) ;
#368 = ORIENTED_EDGE ( 'NONE', *, *, #207, .F. ) ;
#369 = VECTOR ( 'NONE', #462, 1000.000000000000000 ) ;
#370 = EDGE_CURVE ( 'NONE', #597, #653, #151, .T. ) ;
#371 = VERTEX_POINT ( 'NONE', #881 ) ;
#372 = AXIS2_PLACEMENT_3D ( 'NONE', #845, #557, #200 ) ;
#373 = APPROVAL_ROLE ( '' ) ;
#374 = AXIS2_PLACEMENT_3D ( 'NONE', #532, #1084, #539 ) ;
#375 = EDGE_CURVE ( 'NONE', #518, #1024, #940, .T. ) ;
#376 = EDGE_LOOP ( 'NONE', ( #189, #203, #1148, #1103 ) ) ;
#377 = CIRCLE ( 'NONE', #746, 1.599999999999891953 ) ;
#378 = AXIS2_PLACEMENT_3D ( 'NONE', #800, #243, #1079 ) ;
#379 = ORIENTED_EDGE ( 'NONE', *, *, #1074, .F. ) ;
#380 = CARTESIAN_POINT ( 'NONE',  ( 545.2402577413685094, 896.8940811231598218, 1315.296021282420043 ) ) ;
#381 = AXIS2_PLACEMENT_3D ( 'NONE', #262, #623, #1175 ) ;
#382 = ORIENTED_EDGE ( 'NONE', *, *, #675, .F. ) ;
#383 = CARTESIAN_POINT ( 'NONE',  ( 548.2402577413685094, 896.8814005268657183, 1313.696071531944654 ) ) ;
#384 = ORIENTED_EDGE ( 'NONE', *, *, #1042, .T. ) ;
#385 = ADVANCED_FACE ( 'NONE', ( #850 ), #907, .F. ) ;
#386 = CARTESIAN_POINT ( 'NONE',  ( 548.2402577413685094, 896.9067617182362255, 1316.895971031924319 ) ) ;
#387 = ORIENTED_EDGE ( 'NONE', *, *, #918, .T. ) ;
#388 = CARTESIAN_POINT ( 'NONE',  ( 525.2402577413685094, 886.7874026590189942, 1301.875698989427065 ) ) ;
#389 = EDGE_CURVE ( 'NONE', #677, #577, #265, .T. ) ;
#390 = DIRECTION ( 'NONE',  ( 1.000000000000000000, -0.000000000000000000, -0.000000000000000000 ) ) ;
#391 = EDGE_LOOP ( 'NONE', ( #883, #585, #1013, #905 ) ) ;
#392 = ORIENTED_EDGE ( 'NONE', *, *, #1023, .F. ) ;
#393 = CARTESIAN_POINT ( 'NONE',  ( 525.2402577413685094, 886.8032534036256038, 1303.875636176914441 ) ) ;
#394 = LINE ( 'NONE', #120, #526 ) ;
#395 = LINE ( 'NONE', #296, #892 ) ;
#396 = CARTESIAN_POINT ( 'NONE',  ( 545.2402577413685094, 907.1988938936647173, 1353.715558418036153 ) ) ;
#397 = EDGE_LOOP ( 'NONE', ( #959, #212 ) ) ;
#398 = EDGE_LOOP ( 'NONE', ( #501, #575, #1059, #21 ) ) ;
#399 = CARTESIAN_POINT ( 'NONE',  ( 522.2402577413685094, 886.7874026590187668, 1301.875698989427065 ) ) ;
#400 = DIRECTION ( 'NONE',  ( -1.000000000000000000, -1.254119382696661907E-16, 3.939145732475853758E-18 ) ) ;
#401 = CARTESIAN_POINT ( 'NONE',  ( 522.2402577413685094, 897.0466445393890353, 1335.345416711501457 ) ) ;
#402 = CARTESIAN_POINT ( 'NONE',  ( 525.2402577413685094, 906.7867745338940040, 1301.717191543361423 ) ) ;
#403 = ORIENTED_EDGE ( 'NONE', *, *, #812, .F. ) ;
#404 = ADVANCED_FACE ( 'NONE', ( #447 ), #984, .T. ) ;
#405 = EDGE_LOOP ( 'NONE', ( #508, #556, #235, #1065 ) ) ;
#406 = CARTESIAN_POINT ( 'NONE',  ( 525.2402577413685094, 10.37322603219054074, 1308.821825782910309 ) ) ;
#407 = CARTESIAN_POINT ( 'NONE',  ( 548.2402577413685094, 906.7629984169844874, 1298.717285762129904 ) ) ;
#408 = DIRECTION ( 'NONE',  ( -1.000000000000000000, 0.000000000000000000, 0.000000000000000000 ) ) ;
#409 = DIRECTION ( 'NONE',  ( 0.000000000000000000, -0.007925372303281818034, -0.9999685937437506889 ) ) ;
#410 = ORIENTED_EDGE ( 'NONE', *, *, #452, .T. ) ;
#411 = EDGE_CURVE ( 'NONE', #48, #776, #437, .T. ) ;
#412 = DIRECTION ( 'NONE',  ( 1.000000000000000000, 1.254119382696661907E-16, -3.939145732475853758E-18 ) ) ;
#413 = EDGE_LOOP ( 'NONE', ( #403, #974, #96, #806 ) ) ;
#414 = CARTESIAN_POINT ( 'NONE',  ( 532.2402577413685094, 896.8814005268653773, 1313.696071531944426 ) ) ;
#415 = LINE ( 'NONE', #790, #1097 ) ;
#416 = AXIS2_PLACEMENT_3D ( 'NONE', #402, #425, #409 ) ;
#417 = AXIS2_PLACEMENT_3D ( 'NONE', #144, #418, #333 ) ;
#418 = DIRECTION ( 'NONE',  ( -1.000000000000000000, 0.000000000000000000, 0.000000000000000000 ) ) ;
#419 = DIRECTION ( 'NONE',  ( 1.000000000000000000, -0.000000000000000000, 0.000000000000000000 ) ) ;
#420 = ORIENTED_EDGE ( 'NONE', *, *, #1000, .F. ) ;
#421 = CARTESIAN_POINT ( 'NONE',  ( 530.8402577413685322, 896.8742676911953140, 1312.796099798564683 ) ) ;
#422 = LINE ( 'NONE', #879, #1158 ) ;
#423 = CARTESIAN_POINT ( 'NONE',  ( 539.6402577413684867, 896.9138945539141332, 1317.795942766284952 ) ) ;
#424 = EDGE_CURVE ( 'NONE', #50, #605, #531, .T. ) ;
#425 = DIRECTION ( 'NONE',  ( -0.000000000000000000, 0.9999685937437509109, -0.007925372303280248110 ) ) ;
#426 = ORIENTED_EDGE ( 'NONE', *, *, #163, .T. ) ;
#427 = DIRECTION ( 'NONE',  ( -1.266188576884244149E-16, 0.9999685937437506889, -0.007925372303280071168 ) ) ;
#428 = DIRECTION ( 'NONE',  ( 0.000000000000000000, 0.007925372303280246375, 0.9999685937437506889 ) ) ;
#429 = AXIS2_PLACEMENT_3D ( 'NONE', #315, #874, #247 ) ;
#430 = FACE_OUTER_BOUND ( 'NONE', #493, .T. ) ;
#431 = VECTOR ( 'NONE', #1062, 1000.000000000000000 ) ;
#432 = CARTESIAN_POINT ( 'NONE',  ( 545.2402577413685094, 897.1330558911555499, 1345.795085651726595 ) ) ;
#433 = APPROVAL ( #97, 'UNSPECIFIED' ) ;
#434 = ORIENTED_EDGE ( 'NONE', *, *, #246, .T. ) ;
#435 = LINE ( 'NONE', #815, #956 ) ;
#436 = DIRECTION ( 'NONE',  ( -1.000000000000000000, 0.000000000000000000, -0.000000000000000000 ) ) ;
#437 = CIRCLE ( 'NONE', #374, 2.600000000000157740 ) ;
#438 = CARTESIAN_POINT ( 'NONE',  ( 497.2402577413685094, 897.1330558911555499, 1345.795085651726595 ) ) ;
#439 = VECTOR ( 'NONE', #1036, 1000.000000000000227 ) ;
#440 = DIRECTION ( 'NONE',  ( -1.000000000000000000, 0.000000000000000000, 0.000000000000000000 ) ) ;
#441 = ORIENTED_EDGE ( 'NONE', *, *, #844, .F. ) ;
#442 = DIRECTION ( 'NONE',  ( 1.000000000000000000, 1.254119382696661907E-16, -3.939145732475853758E-18 ) ) ;
#443 = FACE_OUTER_BOUND ( 'NONE', #1117, .T. ) ;
#444 = CARTESIAN_POINT ( 'NONE',  ( 522.2402577413685094, 896.9067617182358845, 1316.895971031924091 ) ) ;
#445 = EDGE_LOOP ( 'NONE', ( #1162, #225, #1004, #35 ) ) ;
#446 = ADVANCED_FACE ( 'NONE', ( #443 ), #360, .F. ) ;
#447 = FACE_OUTER_BOUND ( 'NONE', #935, .T. ) ;
#448 = AXIS2_PLACEMENT_3D ( 'NONE', #141, #502, #428 ) ;
#449 = EDGE_CURVE ( 'NONE', #871, #737, #620, .T. ) ;
#450 = DATE_AND_TIME ( #7, #180 ) ;
#451 = VERTEX_POINT ( 'NONE', #631 ) ;
#452 = EDGE_CURVE ( 'NONE', #931, #276, #811, .T. ) ;
#453 = PERSON_AND_ORGANIZATION ( #778, #1012 ) ;
#454 = ORIENTED_EDGE ( 'NONE', *, *, #42, .F. ) ;
#455 = EDGE_CURVE ( 'NONE', #645, #15, #995, .T. ) ;
#456 = DATE_TIME_ROLE ( 'classification_date' ) ;
#457 = CALENDAR_DATE ( 2025, 19, 9 ) ;
#458 = CC_DESIGN_DATE_AND_TIME_ASSIGNMENT ( #647, #456, ( #540 ) ) ;
#459 = ORIENTED_EDGE ( 'NONE', *, *, #888, .T. ) ;
#460 = ORIENTED_EDGE ( 'NONE', *, *, #733, .F. ) ;
#461 = AXIS2_PLACEMENT_3D ( 'NONE', #432, #1077, #260 ) ;
#462 = DIRECTION ( 'NONE',  ( -1.000000000000000000, -1.254119382696661907E-16, 3.939145732475853758E-18 ) ) ;
#463 = ORIENTED_EDGE ( 'NONE', *, *, #389, .F. ) ;
#464 = CIRCLE ( 'NONE', #1090, 2.499999999505405412 ) ;
#465 = CIRCLE ( 'NONE', #880, 1.599999999475627543 ) ;
#466 = CARTESIAN_POINT ( 'NONE',  ( 522.2402577413685094, 897.0010736486449332, 1328.795597297475069 ) ) ;
#467 = EDGE_LOOP ( 'NONE', ( #758, #649, #515, #379 ) ) ;
#468 = DIRECTION ( 'NONE',  ( 1.000000000000000000, -0.000000000000000000, -0.000000000000000000 ) ) ;
#469 = ORIENTED_EDGE ( 'NONE', *, *, #42, .T. ) ;
#470 = CARTESIAN_POINT ( 'NONE',  ( 497.2402577413685094, 897.1330558911555499, 1345.795085651726595 ) ) ;
#471 = EDGE_CURVE ( 'NONE', #1039, #886, #87, .T. ) ;
#472 = CARTESIAN_POINT ( 'NONE',  ( 497.2402577413685094, 897.0466445393890353, 1337.945416711501593 ) ) ;
#473 = AXIS2_PLACEMENT_3D ( 'NONE', #497, #46, #505 ) ;
#474 = CIRCLE ( 'NONE', #707, 1.599999999999891953 ) ;
#475 = ORIENTED_EDGE ( 'NONE', *, *, #297, .F. ) ;
#476 = ADVANCED_FACE ( 'NONE', ( #1182 ), #614, .F. ) ;
#477 = ORIENTED_EDGE ( 'NONE', *, *, #263, .F. ) ;
#478 = CIRCLE ( 'NONE', #757, 1.599999999475627543 ) ;
#479 = FACE_OUTER_BOUND ( 'NONE', #317, .T. ) ;
#480 = CC_DESIGN_SECURITY_CLASSIFICATION ( #540, ( #287 ) ) ;
#481 = DIRECTION ( 'NONE',  ( 0.000000000000000000, 0.000000000000000000, 1.000000000000000000 ) ) ;
#482 = DIRECTION ( 'NONE',  ( 1.000000000000000000, 1.254119382696661907E-16, -3.939145732475853758E-18 ) ) ;
#483 = LINE ( 'NONE', #316, #787 ) ;
#484 = ORIENTED_EDGE ( 'NONE', *, *, #1137, .T. ) ;
#485 = EDGE_LOOP ( 'NONE', ( #783, #536, #10, #426 ) ) ;
#486 = DIRECTION ( 'NONE',  ( -1.000000000000000000, -0.000000000000000000, 0.000000000000000000 ) ) ;
#487 = DIRECTION ( 'NONE',  ( -1.000000000000000000, 0.000000000000000000, -0.000000000000000000 ) ) ;
#488 = CYLINDRICAL_SURFACE ( 'NONE', #215, 3.000000000000074607 ) ;
#489 = DIRECTION ( 'NONE',  ( 0.000000000000000000, -0.007925372303280246375, -0.9999685937437506889 ) ) ;
#490 = ADVANCED_FACE ( 'NONE', ( #430 ), #1167, .F. ) ;
#491 = ORIENTED_EDGE ( 'NONE', *, *, #80, .F. ) ;
#492 = LOCAL_TIME ( 1, 36, 53.00000000000000000, #272 ) ;
#493 = EDGE_LOOP ( 'NONE', ( #898, #99, #292, #28 ) ) ;
#494 = FACE_OUTER_BOUND ( 'NONE', #93, .T. ) ;
#495 = DIRECTION ( 'NONE',  ( 0.000000000000000000, 0.000000000000000000, 1.000000000000000000 ) ) ;
#496 = ADVANCED_FACE ( 'NONE', ( #1076 ), #259, .F. ) ;
#497 = CARTESIAN_POINT ( 'NONE',  ( 545.2402577413685094, 897.1330558911555499, 1345.795085651726595 ) ) ;
#498 = FACE_BOUND ( 'NONE', #594, .T. ) ;
#499 = ORIENTED_EDGE ( 'NONE', *, *, #667, .T. ) ;
#500 = FACE_BOUND ( 'NONE', #1031, .T. ) ;
#501 = ORIENTED_EDGE ( 'NONE', *, *, #449, .F. ) ;
#502 = DIRECTION ( 'NONE',  ( 1.000000000000000000, 0.000000000000000000, -0.000000000000000000 ) ) ;
#503 = ORIENTED_EDGE ( 'NONE', *, *, #625, .T. ) ;
#504 = DIRECTION ( 'NONE',  ( -1.000000000000000000, 0.000000000000000000, 0.000000000000000000 ) ) ;
#505 = DIRECTION ( 'NONE',  ( 0.000000000000000000, 1.000000000000000000, 0.000000000000000000 ) ) ;
#506 = PRODUCT_DEFINITION_SHAPE ( 'NONE', 'NONE',  #185 ) ;
#507 = CARTESIAN_POINT ( 'NONE',  ( 539.6402577413684867, 896.9138945539141332, 1317.795942766284952 ) ) ;
#508 = ORIENTED_EDGE ( 'NONE', *, *, #90, .F. ) ;
#509 = CARTESIAN_POINT ( 'NONE',  ( 539.6402577413684867, 896.8940811231598218, 1315.296021282420043 ) ) ;
#510 = CARTESIAN_POINT ( 'NONE',  ( 522.2402577413685094, 897.0466445393890353, 1332.745416711501321 ) ) ;
#511 = ORIENTED_EDGE ( 'NONE', *, *, #1000, .T. ) ;
#512 = EDGE_CURVE ( 'NONE', #50, #848, #302, .T. ) ;
#513 = DIRECTION ( 'NONE',  ( 1.000000000000000000, -0.000000000000000000, -0.000000000000000000 ) ) ;
#514 = DIRECTION ( 'NONE',  ( -2.818925648462311528E-18, -0.007925372303280246375, -0.9999685937437506889 ) ) ;
#515 = ORIENTED_EDGE ( 'NONE', *, *, #1120, .F. ) ;
#516 = DIRECTION ( 'NONE',  ( -1.000000000000000000, 0.000000000000000000, 0.000000000000000000 ) ) ;
#517 = LINE ( 'NONE', #244, #337 ) ;
#518 = VERTEX_POINT ( 'NONE', #507 ) ;
#519 = DIRECTION ( 'NONE',  ( 1.000000000000000000, -0.000000000000000000, -0.000000000000000000 ) ) ;
#520 = CYLINDRICAL_SURFACE ( 'NONE', #318, 1.599999999999891953 ) ;
#521 = EDGE_LOOP ( 'NONE', ( #1098, #587, #1144, #358, #43, #785 ) ) ;
#522 = CARTESIAN_POINT ( 'NONE',  ( 525.2402577413685094, 890.1756516831108001, 1350.850383965960418 ) ) ;
#523 = DIRECTION ( 'NONE',  ( 0.000000000000000000, 0.007925372303251892320, 0.9999685937437510219 ) ) ;
#524 = CIRCLE ( 'NONE', #473, 2.600000000000046718 ) ;
#525 = CARTESIAN_POINT ( 'NONE',  ( 525.2402577413685094, 907.1988938936643763, 1353.715558418035926 ) ) ;
#526 = VECTOR ( 'NONE', #581, 1000.000000000000000 ) ;
#527 = DIRECTION ( 'NONE',  ( -2.818925648462311528E-18, -0.007925372303280246375, -0.9999685937437506889 ) ) ;
#528 = ORIENTED_EDGE ( 'NONE', *, *, #1023, .T. ) ;
#529 = CARTESIAN_POINT ( 'NONE',  ( 548.2402577413685094, 890.1756516831111412, 1350.850383965960646 ) ) ;
#530 = AXIS2_PLACEMENT_3D ( 'NONE', #819, #440, #357 ) ;
#531 = CIRCLE ( 'NONE', #851, 3.000000000000074607 ) ;
#532 = CARTESIAN_POINT ( 'NONE',  ( 548.2402577413685094, 897.0466445393890353, 1335.345416711501457 ) ) ;
#533 = CIRCLE ( 'NONE', #81, 1.599999999999891953 ) ;
#534 = DIRECTION ( 'NONE',  ( -1.266188576884244149E-16, 0.9999685937437506889, -0.007925372303280071168 ) ) ;
#535 = AXIS2_PLACEMENT_3D ( 'NONE', #522, #725, #345 ) ;
#536 = ORIENTED_EDGE ( 'NONE', *, *, #365, .T. ) ;
#537 = DIRECTION ( 'NONE',  ( -1.000000000000000000, -1.254119382696661907E-16, 3.939145732475853758E-18 ) ) ;
#538 = EDGE_CURVE ( 'NONE', #597, #1072, #902, .T. ) ;
#539 = DIRECTION ( 'NONE',  ( 0.000000000000000000, 0.000000000000000000, -1.000000000000000000 ) ) ;
#540 = SECURITY_CLASSIFICATION ( '', '', #1083 ) ;
#541 = EDGE_CURVE ( 'NONE', #652, #208, #882, .T. ) ;
#542 = DIRECTION ( 'NONE',  ( 0.000000000000000000, -0.007925372303281818034, -0.9999685937437506889 ) ) ;
#543 = ORIENTED_EDGE ( 'NONE', *, *, #127, .F. ) ;
#544 = PERSON_AND_ORGANIZATION_ROLE ( 'design_supplier' ) ;
#545 = VECTOR ( 'NONE', #150, 1000.000000000000000 ) ;
#546 = AXIS2_PLACEMENT_3D ( 'NONE', #946, #103, #44 ) ;
#547 = PERSON_AND_ORGANIZATION_ROLE ( 'creator' ) ;
#548 = ORIENTED_EDGE ( 'NONE', *, *, #796, .F. ) ;
#549 = EDGE_CURVE ( 'NONE', #704, #737, #377, .T. ) ;
#550 = DIRECTION ( 'NONE',  ( 0.000000000000000000, 0.007925372303288239981, 0.9999685937437506889 ) ) ;
#551 = ADVANCED_FACE ( 'NONE', ( #1153 ), #973, .F. ) ;
#552 = ORIENTED_EDGE ( 'NONE', *, *, #667, .F. ) ;
#553 = EDGE_CURVE ( 'NONE', #886, #1007, #1048, .T. ) ;
#554 = DIRECTION ( 'NONE',  ( -1.000000000000000000, -0.000000000000000000, 0.000000000000000000 ) ) ;
#555 = ORIENTED_EDGE ( 'NONE', *, *, #589, .F. ) ;
#556 = ORIENTED_EDGE ( 'NONE', *, *, #1011, .T. ) ;
#557 = DIRECTION ( 'NONE',  ( 1.000000000000000000, 1.254119382696661907E-16, -3.939145732475853758E-18 ) ) ;
#558 = ORIENTED_EDGE ( 'NONE', *, *, #715, .F. ) ;
#559 = PLANE ( 'NONE',  #642 ) ;
#560 = VERTEX_POINT ( 'NONE', #1046 ) ;
#561 = FACE_OUTER_BOUND ( 'NONE', #467, .T. ) ;
#562 = ADVANCED_FACE ( 'NONE', ( #1064 ), #1028, .T. ) ;
#563 = EDGE_LOOP ( 'NONE', ( #18, #186, #863, #635 ) ) ;
#564 = AXIS2_PLACEMENT_3D ( 'NONE', #155, #884, #64 ) ;
#565 = DIRECTION ( 'NONE',  ( 0.000000000000000000, 0.9999685937437507999, -0.007925372303285636161 ) ) ;
#566 = CARTESIAN_POINT ( 'NONE',  ( 530.8402577413685322, 896.9067617182356571, 1316.895971031890440 ) ) ;
#567 = EDGE_CURVE ( 'NONE', #201, #814, #533, .T. ) ;
#568 = EDGE_LOOP ( 'NONE', ( #1029, #674 ) ) ;
#569 = EDGE_LOOP ( 'NONE', ( #762, #528, #434, #206 ) ) ;
#570 = CARTESIAN_POINT ( 'NONE',  ( 497.2402577413685094, 897.1330558911555499, 1345.795085651726595 ) ) ;
#571 = VECTOR ( 'NONE', #1078, 1000.000000000000114 ) ;
#572 = CARTESIAN_POINT ( 'NONE',  ( 548.2402577413685094, 907.1751177767548597, 1350.715652636804862 ) ) ;
#573 = CARTESIAN_POINT ( 'NONE',  ( 522.2402577413685094, 896.8940811225506877, 1315.296021281934145 ) ) ;
#574 = AXIS2_PLACEMENT_3D ( 'NONE', #401, #866, #239 ) ;
#575 = ORIENTED_EDGE ( 'NONE', *, *, #80, .T. ) ;
#576 = AXIS2_PLACEMENT_3D ( 'NONE', #388, #209, #849 ) ;
#577 = VERTEX_POINT ( 'NONE', #692 ) ;
#578 = VERTEX_POINT ( 'NONE', #55 ) ;
#579 = CARTESIAN_POINT ( 'NONE',  ( 525.2402577413685094, 890.1994278000205441, 1353.850289747191709 ) ) ;
#580 = EDGE_CURVE ( 'NONE', #27, #371, #1135, .T. ) ;
#581 = DIRECTION ( 'NONE',  ( 1.000000000000000000, -0.000000000000000000, -0.000000000000000000 ) ) ;
#582 = DIRECTION ( 'NONE',  ( 1.000000000000000000, -0.000000000000000000, 0.000000000000000000 ) ) ;
#583 = CIRCLE ( 'NONE', #530, 2.599999999999935696 ) ;
#584 = DIRECTION ( 'NONE',  ( 0.000000000000000000, -0.007925372303281818034, -0.9999685937437506889 ) ) ;
#585 = ORIENTED_EDGE ( 'NONE', *, *, #834, .T. ) ;
#586 = AXIS2_PLACEMENT_3D ( 'NONE', #30, #797, #45 ) ;
#587 = ORIENTED_EDGE ( 'NONE', *, *, #753, .T. ) ;
#588 = DIRECTION ( 'NONE',  ( 2.818925648462311528E-18, 0.007925372303280246375, 0.9999685937437506889 ) ) ;
#589 = EDGE_CURVE ( 'NONE', #578, #298, #632, .T. ) ;
#590 = AXIS2_PLACEMENT_3D ( 'NONE', #240, #232, #146 ) ;
#591 = DIRECTION ( 'NONE',  ( -1.000000000000000000, -1.254119382696661907E-16, 3.939145732475853758E-18 ) ) ;
#592 = DIRECTION ( 'NONE',  ( -1.000000000000000000, -1.254119382696661907E-16, 3.939145732475853758E-18 ) ) ;
#593 = CARTESIAN_POINT ( 'NONE',  ( 525.2402577413685094, 896.8742676911953140, 1312.796099798564683 ) ) ;
#594 = EDGE_LOOP ( 'NONE', ( #548, #552 ) ) ;
#595 = CARTESIAN_POINT ( 'NONE',  ( 522.2402577413685094, 906.7867745338937766, 1301.717191543361423 ) ) ;
#596 = CIRCLE ( 'NONE', #381, 2.499999999505405412 ) ;
#597 = VERTEX_POINT ( 'NONE', #122 ) ;
#598 = DIRECTION ( 'NONE',  ( 1.000000000000000000, 0.000000000000000000, 0.000000000000000000 ) ) ;
#599 = CARTESIAN_POINT ( 'NONE',  ( 539.6402577413684867, 896.8814005268736764, 1313.696071532959195 ) ) ;
#600 = CARTESIAN_POINT ( 'NONE',  ( 548.2402577413685094, 886.8032534036256038, 1303.875636176914441 ) ) ;
#601 = DIRECTION ( 'NONE',  ( -2.818925648462335025E-18, -0.007925372303280072903, -0.9999685937437507999 ) ) ;
#602 = ORIENTED_EDGE ( 'NONE', *, *, #38, .F. ) ;
#603 = DIRECTION ( 'NONE',  ( 1.266188576884244149E-16, -0.9999685937437506889, 0.007925372303280244640 ) ) ;
#604 = DIRECTION ( 'NONE',  ( 1.000000000000000000, 1.254119382696661907E-16, -3.939145732475853758E-18 ) ) ;
#605 = VERTEX_POINT ( 'NONE', #782 ) ;
#606 = CARTESIAN_POINT ( 'NONE',  ( 525.2402577413685094, 907.1988938936643763, 1353.715558418035926 ) ) ;
#607 = LINE ( 'NONE', #600, #277 ) ;
#608 = LINE ( 'NONE', #957, #835 ) ;
#609 = ORIENTED_EDGE ( 'NONE', *, *, #711, .T. ) ;
#610 = DIRECTION ( 'NONE',  ( 0.000000000000000000, -0.9999685937437506889, 0.007925372303285634426 ) ) ;
#611 = EDGE_CURVE ( 'NONE', #1007, #560, #701, .T. ) ;
#612 = CARTESIAN_POINT ( 'NONE',  ( 525.2402577413685094, 890.1994278000205441, 1353.850289747191709 ) ) ;
#613 = EDGE_LOOP ( 'NONE', ( #78, #648 ) ) ;
#614 = CYLINDRICAL_SURFACE ( 'NONE', #646, 2.600000000000157740 ) ;
#615 = CARTESIAN_POINT ( 'NONE',  ( 545.2402577413685094, 906.7629984169844874, 1298.717285762129904 ) ) ;
#616 = EDGE_LOOP ( 'NONE', ( #826, #1112, #420, #890 ) ) ;
#617 = CYLINDRICAL_SURFACE ( 'NONE', #788, 2.599999999999935696 ) ;
#618 = MANIFOLD_SOLID_BREP ( 'Cut-Extrude1', #1061 ) ;
#619 = DIRECTION ( 'NONE',  ( 0.000000000000000000, -0.007925372303281818034, -0.9999685937437506889 ) ) ;
#620 = LINE ( 'NONE', #269, #9 ) ;
#621 = DIRECTION ( 'NONE',  ( 1.000000000000000000, 1.254119382696661907E-16, -3.939145732475853758E-18 ) ) ;
#622 = EDGE_LOOP ( 'NONE', ( #280, #1107 ) ) ;
#623 = DIRECTION ( 'NONE',  ( -1.000000000000000000, -1.254119382696661907E-16, 3.939145732475853758E-18 ) ) ;
#624 = DIRECTION ( 'NONE',  ( 1.000000000000000000, 1.254119382696661907E-16, -3.939145732475853758E-18 ) ) ;
#625 = EDGE_CURVE ( 'NONE', #1072, #242, #483, .T. ) ;
#626 = FACE_BOUND ( 'NONE', #290, .T. ) ;
#627 = EDGE_LOOP ( 'NONE', ( #543, #166, #752, #1025 ) ) ;
#628 = LINE ( 'NONE', #637, #840 ) ;
#629 = AXIS2_PLACEMENT_3D ( 'NONE', #655, #121, #20 ) ;
#630 = ADVANCED_FACE ( 'NONE', ( #854, #683, #325, #498 ), #1143, .F. ) ;
#631 = CARTESIAN_POINT ( 'NONE',  ( 548.2402577413685094, 890.1994278000209988, 1353.850289747191937 ) ) ;
#632 = CIRCLE ( 'NONE', #105, 2.599999999999935696 ) ;
#633 = CARTESIAN_POINT ( 'NONE',  ( 548.2402577413685094, 887.1995220187897075, 1353.874065864101794 ) ) ;
#634 = VECTOR ( 'NONE', #427, 1000.000000000000227 ) ;
#635 = ORIENTED_EDGE ( 'NONE', *, *, #19, .F. ) ;
#636 = APPROVAL_DATE_TIME ( #1001, #433 ) ;
#637 = CARTESIAN_POINT ( 'NONE',  ( 522.2402577413685094, 907.1988938936643763, 1353.715558418035926 ) ) ;
#638 = EDGE_CURVE ( 'NONE', #776, #48, #688, .T. ) ;
#639 = VERTEX_POINT ( 'NONE', #593 ) ;
#640 = AXIS2_PLACEMENT_3D ( 'NONE', #1127, #582, #833 ) ;
#641 = AXIS2_PLACEMENT_3D ( 'NONE', #322, #504, #495 ) ;
#642 = AXIS2_PLACEMENT_3D ( 'NONE', #466, #486, #657 ) ;
#643 = PERSON_AND_ORGANIZATION_ROLE ( 'classification_officer' ) ;
#644 = EDGE_CURVE ( 'NONE', #198, #578, #608, .T. ) ;
#645 = VERTEX_POINT ( 'NONE', #1056 ) ;
#646 = AXIS2_PLACEMENT_3D ( 'NONE', #978, #157, #66 ) ;
#647 = DATE_AND_TIME ( #282, #331 ) ;
#648 = ORIENTED_EDGE ( 'NONE', *, *, #1089, .T. ) ;
#649 = ORIENTED_EDGE ( 'NONE', *, *, #471, .F. ) ;
#650 = AXIS2_PLACEMENT_3D ( 'NONE', #367, #554, #88 ) ;
#651 = FACE_OUTER_BOUND ( 'NONE', #616, .T. ) ;
#652 = VERTEX_POINT ( 'NONE', #712 ) ;
#653 = VERTEX_POINT ( 'NONE', #615 ) ;
#654 = ADVANCED_FACE ( 'NONE', ( #1179 ), #723, .F. ) ;
#655 = CARTESIAN_POINT ( 'NONE',  ( 530.8402577413685322, 896.8940811219496254, 1315.296021282429365 ) ) ;
#656 = ORIENTED_EDGE ( 'NONE', *, *, #108, .F. ) ;
#657 = DIRECTION ( 'NONE',  ( 0.000000000000000000, -0.007925372303280246375, -0.9999685937437506889 ) ) ;
#658 = EDGE_LOOP ( 'NONE', ( #1123, #460, #944, #770 ) ) ;
#659 = DIRECTION ( 'NONE',  ( 1.000000000000000000, -0.000000000000000000, -0.000000000000000000 ) ) ;
#660 = ORIENTED_EDGE ( 'NONE', *, *, #932, .F. ) ;
#661 = ORIENTED_EDGE ( 'NONE', *, *, #370, .F. ) ;
#662 = DIRECTION ( 'NONE',  ( 0.000000000000000000, 0.000000000000000000, -1.000000000000000000 ) ) ;
#663 = CARTESIAN_POINT ( 'NONE',  ( 548.2402577413685094, 887.1757459018798500, 1350.874160082870503 ) ) ;
#664 = DIRECTION ( 'NONE',  ( -1.000000000000000000, 0.000000000000000000, 0.000000000000000000 ) ) ;
#665 = EDGE_LOOP ( 'NONE', ( #362, #666, #830, #862 ) ) ;
#666 = ORIENTED_EDGE ( 'NONE', *, *, #22, .F. ) ;
#667 = EDGE_CURVE ( 'NONE', #15, #639, #464, .T. ) ;
#668 = ORIENTED_EDGE ( 'NONE', *, *, #19, .T. ) ;
#669 = LINE ( 'NONE', #579, #1165 ) ;
#670 = LINE ( 'NONE', #680, #341 ) ;
#671 = CARTESIAN_POINT ( 'NONE',  ( 525.2402577413685094, 897.1330558911555499, 1343.195085651726686 ) ) ;
#672 = DIRECTION ( 'NONE',  ( 1.000000000000000000, 1.254119382696661907E-16, -3.939145732475853758E-18 ) ) ;
#673 = AXIS2_PLACEMENT_3D ( 'NONE', #859, #482, #220 ) ;
#674 = ORIENTED_EDGE ( 'NONE', *, *, #1011, .F. ) ;
#675 = EDGE_CURVE ( 'NONE', #799, #69, #831, .T. ) ;
#676 = AXIS2_PLACEMENT_3D ( 'NONE', #228, #591, #690 ) ;
#677 = VERTEX_POINT ( 'NONE', #1086 ) ;
#678 = CYLINDRICAL_SURFACE ( 'NONE', #709, 2.599999999999935696 ) ;
#679 = CC_DESIGN_PERSON_AND_ORGANIZATION_ASSIGNMENT ( #909, #643, ( #540 ) ) ;
#680 = CARTESIAN_POINT ( 'NONE',  ( 525.2402577413685094, 887.1757459018795089, 1350.874160082870276 ) ) ;
#681 = CARTESIAN_POINT ( 'NONE',  ( 539.6402577413684867, 896.9067617182359982, 1316.895971031890667 ) ) ;
#682 = CIRCLE ( 'NONE', #372, 2.600000000000268763 ) ;
#683 = FACE_BOUND ( 'NONE', #271, .T. ) ;
#684 = ORIENTED_EDGE ( 'NONE', *, *, #22, .T. ) ;
#685 = VECTOR ( 'NONE', #887, 1000.000000000000000 ) ;
#686 = VERTEX_POINT ( 'NONE', #177 ) ;
#687 = FACE_OUTER_BOUND ( 'NONE', #613, .T. ) ;
#688 = CIRCLE ( 'NONE', #174, 2.600000000000157740 ) ;
#689 = CIRCLE ( 'NONE', #1049, 2.600000000000157740 ) ;
#690 = DIRECTION ( 'NONE',  ( 0.000000000000000000, 0.007925372303251892320, 0.9999685937437510219 ) ) ;
#691 = PLANE ( 'NONE',  #738 ) ;
#692 = CARTESIAN_POINT ( 'NONE',  ( 525.2402577413685094, 907.1751177767545187, 1350.715652636804634 ) ) ;
#693 = VERTEX_POINT ( 'NONE', #254 ) ;
#694 = DIRECTION ( 'NONE',  ( 0.000000000000000000, -0.007925372303281818034, -0.9999685937437506889 ) ) ;
#695 = PRODUCT ( 'pulley_with_barket', 'pulley_with_barket', '', ( #363 ) ) ;
#696 = APPROVAL_PERSON_ORGANIZATION ( #274, #433, #373 ) ;
#697 = ORIENTED_EDGE ( 'NONE', *, *, #918, .F. ) ;
#698 = DIRECTION ( 'NONE',  ( -1.000000000000000000, 0.000000000000000000, -0.000000000000000000 ) ) ;
#699 = CYLINDRICAL_SURFACE ( 'NONE', #586, 2.499999999505405412 ) ;
#700 = FACE_OUTER_BOUND ( 'NONE', #1017, .T. ) ;
#701 = LINE ( 'NONE', #396, #929 ) ;
#702 = ADVANCED_FACE ( 'NONE', ( #1160 ), #520, .F. ) ;
#703 = AXIS2_PLACEMENT_3D ( 'NONE', #252, #51, #523 ) ;
#704 = VERTEX_POINT ( 'NONE', #84 ) ;
#705 = CARTESIAN_POINT ( 'NONE',  ( 522.2402577413685094, 897.0466445393890353, 1335.345416711501457 ) ) ;
#706 = CARTESIAN_POINT ( 'NONE',  ( 548.2402577413685094, 906.8026252785008410, 1303.717128730848572 ) ) ;
#707 = AXIS2_PLACEMENT_3D ( 'NONE', #135, #954, #37 ) ;
#708 = ORIENTED_EDGE ( 'NONE', *, *, #346, .T. ) ;
#709 = AXIS2_PLACEMENT_3D ( 'NONE', #570, #116, #320 ) ;
#710 = DIRECTION ( 'NONE',  ( 0.000000000000000000, -0.007925372303288239981, -0.9999685937437506889 ) ) ;
#711 = EDGE_CURVE ( 'NONE', #69, #799, #124, .T. ) ;
#712 = CARTESIAN_POINT ( 'NONE',  ( 525.2402577413685094, 887.1757459018795089, 1350.874160082870276 ) ) ;
#713 = ORIENTED_EDGE ( 'NONE', *, *, #108, .T. ) ;
#714 = DIRECTION ( 'NONE',  ( -1.000000000000000000, -1.254119382696661907E-16, 3.939145732475853758E-18 ) ) ;
#715 = EDGE_CURVE ( 'NONE', #198, #1114, #281, .T. ) ;
#716 = FACE_OUTER_BOUND ( 'NONE', #563, .T. ) ;
#717 = DIRECTION ( 'NONE',  ( 0.000000000000000000, -0.007925372303291803103, -0.9999685937437505778 ) ) ;
#718 = DIRECTION ( 'NONE',  ( -1.000000000000000000, 0.000000000000000000, 0.000000000000000000 ) ) ;
#719 = CARTESIAN_POINT ( 'NONE',  ( 548.2402577413685094, 886.7636265421092503, 1298.875793208195546 ) ) ;
#720 = DIRECTION ( 'NONE',  ( 0.000000000000000000, 0.000000000000000000, 1.000000000000000000 ) ) ;
#721 = ADVANCED_FACE ( 'NONE', ( #813, #1173, #77, #626 ), #989, .F. ) ;
#722 = CARTESIAN_POINT ( 'NONE',  ( 530.8402577413685322, 896.9138945527038231, 1317.795942766294274 ) ) ;
#723 = CYLINDRICAL_SURFACE ( 'NONE', #1145, 1.599999999999891953 ) ;
#724 = ORIENTED_EDGE ( 'NONE', *, *, #411, .F. ) ;
#725 = DIRECTION ( 'NONE',  ( 1.000000000000000000, -0.000000000000000000, -0.000000000000000000 ) ) ;
#726 = EDGE_CURVE ( 'NONE', #451, #1039, #171, .T. ) ;
#727 = DIRECTION ( 'NONE',  ( 0.000000000000000000, 0.000000000000000000, -1.000000000000000000 ) ) ;
#728 = DIRECTION ( 'NONE',  ( 1.000000000000000000, -0.000000000000000000, -0.000000000000000000 ) ) ;
#729 = ORIENTED_EDGE ( 'NONE', *, *, #1089, .F. ) ;
#730 = PERSON_AND_ORGANIZATION_ROLE ( 'design_owner' ) ;
#731 = PERSON_AND_ORGANIZATION ( #778, #1012 ) ;
#732 = AXIS2_PLACEMENT_3D ( 'NONE', #529, #353, #1073 ) ;
#733 = EDGE_CURVE ( 'NONE', #41, #142, #807, .T. ) ;
#734 = DIRECTION ( 'NONE',  ( 1.000000000000000000, 0.000000000000000000, 0.000000000000000000 ) ) ;
#735 = CC_DESIGN_PERSON_AND_ORGANIZATION_ASSIGNMENT ( #191, #730, ( #695 ) ) ;
#736 = VECTOR ( 'NONE', #802, 1000.000000000000000 ) ;
#737 = VERTEX_POINT ( 'NONE', #444 ) ;
#738 = AXIS2_PLACEMENT_3D ( 'NONE', #1152, #773, #1054 ) ;
#739 = AXIS2_PLACEMENT_3D ( 'NONE', #340, #487, #710 ) ;
#740 = APPROVAL_ROLE ( '' ) ;
#741 = CIRCLE ( 'NONE', #170, 2.499999999505405412 ) ;
#742 = ORIENTED_EDGE ( 'NONE', *, *, #33, .F. ) ;
#743 = VECTOR ( 'NONE', #875, 1000.000000000000000 ) ;
#744 = APPROVAL_STATUS ( 'not_yet_approved' ) ;
#745 = CARTESIAN_POINT ( 'NONE',  ( 545.2402577413685094, 887.1757459018798500, 1350.874160082870503 ) ) ;
#746 = AXIS2_PLACEMENT_3D ( 'NONE', #573, #664, #767 ) ;
#747 = ORIENTED_EDGE ( 'NONE', *, *, #285, .T. ) ;
#748 = ORIENTED_EDGE ( 'NONE', *, *, #455, .F. ) ;
#749 = EDGE_CURVE ( 'NONE', #223, #820, #583, .T. ) ;
#750 = COORDINATED_UNIVERSAL_TIME_OFFSET ( 7, 0, .AHEAD. ) ;
#751 = CARTESIAN_POINT ( 'NONE',  ( 525.2402577413685094, 907.1988938936643763, 1353.715558418035926 ) ) ;
#752 = ORIENTED_EDGE ( 'NONE', *, *, #424, .F. ) ;
#753 = EDGE_CURVE ( 'NONE', #577, #1124, #947, .T. ) ;
#754 = CARTESIAN_POINT ( 'NONE',  ( 530.8402577413685322, 896.8940811219496254, 1315.296021282429365 ) ) ;
#755 = ORIENTED_EDGE ( 'NONE', *, *, #375, .T. ) ;
#756 = DIRECTION ( 'NONE',  ( 0.000000000000000000, 0.9999685937437506889, -0.007925372303285634426 ) ) ;
#757 = AXIS2_PLACEMENT_3D ( 'NONE', #971, #598, #795 ) ;
#758 = ORIENTED_EDGE ( 'NONE', *, *, #553, .F. ) ;
#759 = LINE ( 'NONE', #953, #1005 ) ;
#760 = CYLINDRICAL_SURFACE ( 'NONE', #629, 2.499999999505405412 ) ;
#761 = ADVANCED_FACE ( 'NONE', ( #31 ), #760, .T. ) ;
#762 = ORIENTED_EDGE ( 'NONE', *, *, #452, .F. ) ;
#763 = EDGE_LOOP ( 'NONE', ( #1170, #668, #1037, #914 ) ) ;
#764 = LINE ( 'NONE', #307, #894 ) ;
#765 = CARTESIAN_POINT ( 'NONE',  ( 548.2402577413685094, 897.1330558911555499, 1348.395085651726504 ) ) ;
#766 = CYLINDRICAL_SURFACE ( 'NONE', #1096, 3.000000000000074607 ) ;
#767 = DIRECTION ( 'NONE',  ( 0.000000000000000000, -0.007925372303291803103, -0.9999685937437505778 ) ) ;
#768 = ORIENTED_EDGE ( 'NONE', *, *, #823, .T. ) ;
#769 = CC_DESIGN_PERSON_AND_ORGANIZATION_ASSIGNMENT ( #915, #95, ( #287 ) ) ;
#770 = ORIENTED_EDGE ( 'NONE', *, *, #411, .T. ) ;
#771 = DIRECTION ( 'NONE',  ( 1.000000000000000000, -0.000000000000000000, -0.000000000000000000 ) ) ;
#772 = DIRECTION ( 'NONE',  ( 0.000000000000000000, -0.007925372303291803103, -0.9999685937437505778 ) ) ;
#773 = DIRECTION ( 'NONE',  ( 0.000000000000000000, -0.007925372303285634426, -0.9999685937437506889 ) ) ;
#774 = DIRECTION ( 'NONE',  ( 0.000000000000000000, 0.000000000000000000, -1.000000000000000000 ) ) ;
#775 = ORIENTED_EDGE ( 'NONE', *, *, #553, .T. ) ;
#776 = VERTEX_POINT ( 'NONE', #841 ) ;
#777 = DIRECTION ( 'NONE',  ( 0.000000000000000000, 0.007925372303285287481, 0.9999685937437506889 ) ) ;
#778 = PERSON ( 'UNSPECIFIED', 'UNSPECIFIED', 'UNSPECIFIED', ('UNSPECIFIED'), ('UNSPECIFIED'), ('UNSPECIFIED') ) ;
#779 = CARTESIAN_POINT ( 'NONE',  ( 525.2402577413685094, 897.0466445393890353, 1337.945416711501593 ) ) ;
#780 = CARTESIAN_POINT ( 'NONE',  ( 545.2402577413685094, 886.8032534036257175, 1303.875636176914213 ) ) ;
#781 = VECTOR ( 'NONE', #534, 1000.000000000000227 ) ;
#782 = CARTESIAN_POINT ( 'NONE',  ( 548.2402577413685094, 886.7874026590191079, 1301.875698989427065 ) ) ;
#783 = ORIENTED_EDGE ( 'NONE', *, *, #330, .F. ) ;
#784 = LINE ( 'NONE', #49, #930 ) ;
#785 = ORIENTED_EDGE ( 'NONE', *, *, #154, .T. ) ;
#786 = FACE_BOUND ( 'NONE', #255, .T. ) ;
#787 = VECTOR ( 'NONE', #792, 1000.000000000000114 ) ;
#788 = AXIS2_PLACEMENT_3D ( 'NONE', #57, #808, #251 ) ;
#789 = EDGE_CURVE ( 'NONE', #1024, #371, #1101, .T. ) ;
#790 = CARTESIAN_POINT ( 'NONE',  ( 522.2402577413685094, 887.1995220187893665, 1353.874065864101567 ) ) ;
#791 = DIRECTION ( 'NONE',  ( 0.000000000000000000, -0.007925372303281818034, -0.9999685937437506889 ) ) ;
#792 = DIRECTION ( 'NONE',  ( -0.000000000000000000, -0.9999685937437506889, 0.007925372303285634426 ) ) ;
#793 = ORIENTED_EDGE ( 'NONE', *, *, #541, .F. ) ;
#794 = CARTESIAN_POINT ( 'NONE',  ( 545.2402577413685094, 907.1751177767548597, 1350.715652636804862 ) ) ;
#795 = DIRECTION ( 'NONE',  ( 0.000000000000000000, 0.007925372303251892320, 0.9999685937437510219 ) ) ;
#796 = EDGE_CURVE ( 'NONE', #639, #15, #741, .T. ) ;
#797 = DIRECTION ( 'NONE',  ( 1.000000000000000000, 1.254119382696661907E-16, -3.939145732475853758E-18 ) ) ;
#798 = DIRECTION ( 'NONE',  ( 0.000000000000000000, -0.007925372303291803103, -0.9999685937437505778 ) ) ;
#799 = VERTEX_POINT ( 'NONE', #671 ) ;
#800 = CARTESIAN_POINT ( 'NONE',  ( 522.2402577413685094, 904.1752119955233411, 1350.739428753714492 ) ) ;
#801 = VECTOR ( 'NONE', #756, 1000.000000000000114 ) ;
#802 = DIRECTION ( 'NONE',  ( 1.000000000000000000, 1.254119382696661907E-16, -3.939145732475853758E-18 ) ) ;
#803 = VECTOR ( 'NONE', #698, 1000.000000000000000 ) ;
#804 = CARTESIAN_POINT ( 'NONE',  ( 538.2402577413685094, 896.8940811225510288, 1315.296021281934372 ) ) ;
#805 = DIRECTION ( 'NONE',  ( 1.000000000000000000, 1.254129381351759006E-16, -3.812989626561121363E-18 ) ) ;
#806 = ORIENTED_EDGE ( 'NONE', *, *, #275, .F. ) ;
#807 = CIRCLE ( 'NONE', #899, 2.600000000000268763 ) ;
#808 = DIRECTION ( 'NONE',  ( 1.000000000000000000, -0.000000000000000000, -0.000000000000000000 ) ) ;
#809 = EDGE_CURVE ( 'NONE', #142, #776, #1121, .T. ) ;
#810 = AXIS2_PLACEMENT_3D ( 'NONE', #804, #349, #717 ) ;
#811 = LINE ( 'NONE', #355, #227 ) ;
#812 = EDGE_CURVE ( 'NONE', #142, #41, #682, .T. ) ;
#813 = FACE_BOUND ( 'NONE', #138, .T. ) ;
#814 = VERTEX_POINT ( 'NONE', #386 ) ;
#815 = CARTESIAN_POINT ( 'NONE',  ( 545.2402577413685094, 886.8032534036257175, 1303.875636176914213 ) ) ;
#816 = APPLICATION_CONTEXT ( 'configuration controlled 3d designs of mechanical parts and assemblies' ) ;
#817 = APPROVAL_PERSON_ORGANIZATION ( #453, #897, #740 ) ;
#818 = CARTESIAN_POINT ( 'NONE',  ( 525.2402577413685094, 907.1751177767545187, 1350.715652636804634 ) ) ;
#819 = CARTESIAN_POINT ( 'NONE',  ( 522.2402577413685094, 897.1330558911555499, 1345.795085651726595 ) ) ;
#820 = VERTEX_POINT ( 'NONE', #309 ) ;
#821 = APPLICATION_PROTOCOL_DEFINITION ( 'international standard', 'config_control_design', 1994, #816 ) ;
#822 = DIRECTION ( 'NONE',  ( -1.000000000000000000, 0.000000000000000000, -0.000000000000000000 ) ) ;
#823 = EDGE_CURVE ( 'NONE', #298, #578, #827, .T. ) ;
#824 = ORIENTED_EDGE ( 'NONE', *, *, #258, .T. ) ;
#825 = COORDINATED_UNIVERSAL_TIME_OFFSET ( 7, 0, .AHEAD. ) ;
#826 = ORIENTED_EDGE ( 'NONE', *, *, #1102, .F. ) ;
#827 = CIRCLE ( 'NONE', #640, 2.599999999999935696 ) ;
#828 = COORDINATED_UNIVERSAL_TIME_OFFSET ( 7, 0, .AHEAD. ) ;
#829 = EDGE_CURVE ( 'NONE', #908, #577, #195, .T. ) ;
#830 = ORIENTED_EDGE ( 'NONE', *, *, #154, .F. ) ;
#831 = CIRCLE ( 'NONE', #1041, 2.599999999999935696 ) ;
#832 = ORIENTED_EDGE ( 'NONE', *, *, #611, .F. ) ;
#833 = DIRECTION ( 'NONE',  ( 0.000000000000000000, 0.000000000000000000, -1.000000000000000000 ) ) ;
#834 = EDGE_CURVE ( 'NONE', #848, #597, #301, .T. ) ;
#835 = VECTOR ( 'NONE', #137, 1000.000000000000000 ) ;
#836 = AXIS2_PLACEMENT_3D ( 'NONE', #167, #1171, #969 ) ;
#837 = VERTEX_POINT ( 'NONE', #1116 ) ;
#838 = CARTESIAN_POINT ( 'NONE',  ( 497.2402577413685094, 897.0466445393890353, 1335.345416711501457 ) ) ;
#839 = EDGE_LOOP ( 'NONE', ( #660, #945, #768, #85 ) ) ;
#840 = VECTOR ( 'NONE', #1092, 1000.000000000000227 ) ;
#841 = CARTESIAN_POINT ( 'NONE',  ( 548.2402577413685094, 897.0466445393890353, 1337.945416711501593 ) ) ;
#842 = VERTEX_POINT ( 'NONE', #663 ) ;
#843 = CARTESIAN_POINT ( 'NONE',  ( 545.2402577413685094, 897.0466445393890353, 1337.945416711501593 ) ) ;
#844 = EDGE_CURVE ( 'NONE', #267, #990, #928, .T. ) ;
#845 = CARTESIAN_POINT ( 'NONE',  ( 545.2402577413685094, 897.0466445393890353, 1335.345416711501457 ) ) ;
#846 = VECTOR ( 'NONE', #245, 1000.000000000000227 ) ;
#847 = ORIENTED_EDGE ( 'NONE', *, *, #965, .T. ) ;
#848 = VERTEX_POINT ( 'NONE', #1027 ) ;
#849 = DIRECTION ( 'NONE',  ( 0.000000000000000000, 0.007925372303281818034, 0.9999685937437506889 ) ) ;
#850 = FACE_OUTER_BOUND ( 'NONE', #658, .T. ) ;
#851 = AXIS2_PLACEMENT_3D ( 'NONE', #73, #903, #82 ) ;
#852 = ADVANCED_FACE ( 'NONE', ( #561 ), #949, .T. ) ;
#853 = CARTESIAN_POINT ( 'NONE',  ( 545.2402577413685094, 904.1989881124335398, 1353.739334534946011 ) ) ;
#854 = FACE_BOUND ( 'NONE', #622, .T. ) ;
#855 = ORIENTED_EDGE ( 'NONE', *, *, #749, .T. ) ;
#856 = ORIENTED_EDGE ( 'NONE', *, *, #711, .F. ) ;
#857 = DIRECTION ( 'NONE',  ( 1.000000000000000000, 0.000000000000000000, 0.000000000000000000 ) ) ;
#858 = CARTESIAN_POINT ( 'NONE',  ( 539.6402577413684867, 896.8940811231598218, 1315.296021282420043 ) ) ;
#859 = CARTESIAN_POINT ( 'NONE',  ( 545.2402577413685094, 904.1752119955236822, 1350.739428753714719 ) ) ;
#860 = APPROVAL_PERSON_ORGANIZATION ( #731, #1161, #917 ) ;
#861 = CARTESIAN_POINT ( 'NONE',  ( 548.2402577413685094, 897.0466445393890353, 1335.345416711501457 ) ) ;
#862 = ORIENTED_EDGE ( 'NONE', *, *, #965, .F. ) ;
#863 = ORIENTED_EDGE ( 'NONE', *, *, #1115, .F. ) ;
#864 = FACE_OUTER_BOUND ( 'NONE', #376, .T. ) ;
#865 = PLANE ( 'NONE',  #942 ) ;
#866 = DIRECTION ( 'NONE',  ( -1.000000000000000000, 0.000000000000000000, 0.000000000000000000 ) ) ;
#867 = DIRECTION ( 'NONE',  ( 0.000000000000000000, 0.9999685937437506889, -0.007925372303280419847 ) ) ;
#868 = VERTEX_POINT ( 'NONE', #572 ) ;
#869 = PLANE ( 'NONE',  #650 ) ;
#870 = EDGE_CURVE ( 'NONE', #605, #693, #291, .T. ) ;
#871 = VERTEX_POINT ( 'NONE', #566 ) ;
#872 = CARTESIAN_POINT ( 'NONE',  ( 538.2402577413685094, 896.9067617182362255, 1316.895971031924319 ) ) ;
#873 = CARTESIAN_POINT ( 'NONE',  ( 0.000000000000000000, 10.34944991528068492, 1305.821920001679018 ) ) ;
#874 = DIRECTION ( 'NONE',  ( 1.000000000000000000, -0.000000000000000000, -0.000000000000000000 ) ) ;
#875 = DIRECTION ( 'NONE',  ( -1.000000000000000000, 0.000000000000000000, 0.000000000000000000 ) ) ;
#876 = ORIENTED_EDGE ( 'NONE', *, *, #870, .T. ) ;
#877 = ADVANCED_FACE ( 'NONE', ( #130 ), #488, .T. ) ;
#878 = FACE_OUTER_BOUND ( 'NONE', #839, .T. ) ;
#879 = CARTESIAN_POINT ( 'NONE',  ( 497.2402577413685094, 897.1330558911555499, 1348.395085651726504 ) ) ;
#880 = AXIS2_PLACEMENT_3D ( 'NONE', #509, #714, #336 ) ;
#881 = CARTESIAN_POINT ( 'NONE',  ( 545.2402577413685094, 896.8742676924055104, 1312.796099798555360 ) ) ;
#882 = LINE ( 'NONE', #152, #439 ) ;
#883 = ORIENTED_EDGE ( 'NONE', *, *, #512, .T. ) ;
#884 = DIRECTION ( 'NONE',  ( 1.000000000000000000, 0.000000000000000000, 0.000000000000000000 ) ) ;
#885 = CARTESIAN_POINT ( 'NONE',  ( 548.2402577413685094, 897.0466445393890353, 1332.745416711501321 ) ) ;
#886 = VERTEX_POINT ( 'NONE', #853 ) ;
#887 = DIRECTION ( 'NONE',  ( -1.000000000000000000, 0.000000000000000000, -0.000000000000000000 ) ) ;
#888 = EDGE_CURVE ( 'NONE', #842, #214, #107, .T. ) ;
#889 = CARTESIAN_POINT ( 'NONE',  ( 532.2402577413685094, 896.8940811225506877, 1315.296021281934145 ) ) ;
#890 = ORIENTED_EDGE ( 'NONE', *, *, #354, .F. ) ;
#891 = CARTESIAN_POINT ( 'NONE',  ( 548.2402577413685094, 904.1752119955236822, 1350.739428753714719 ) ) ;
#892 = VECTOR ( 'NONE', #659, 1000.000000000000000 ) ;
#893 = CARTESIAN_POINT ( 'NONE',  ( 522.2402577413685094, 887.1757459018795089, 1350.874160082870276 ) ) ;
#894 = VECTOR ( 'NONE', #771, 1000.000000000000000 ) ;
#895 = DIRECTION ( 'NONE',  ( 0.000000000000000000, -0.007925372303288239981, -0.9999685937437506889 ) ) ;
#896 = CARTESIAN_POINT ( 'NONE',  ( 538.2402577413685094, 896.8940811225510288, 1315.296021281934372 ) ) ;
#897 = APPROVAL ( #92, 'UNSPECIFIED' ) ;
#898 = ORIENTED_EDGE ( 'NONE', *, *, #289, .T. ) ;
#899 = AXIS2_PLACEMENT_3D ( 'NONE', #1169, #621, #165 ) ;
#900 = LINE ( 'NONE', #327, #634 ) ;
#901 = AXIS2_PLACEMENT_3D ( 'NONE', #1178, #624, #895 ) ;
#902 = CIRCLE ( 'NONE', #416, 3.000000000000074607 ) ;
#903 = DIRECTION ( 'NONE',  ( -0.000000000000000000, -0.9999685937437509109, 0.007925372303280248110 ) ) ;
#904 = DIRECTION ( 'NONE',  ( 0.000000000000000000, 0.000000000000000000, 1.000000000000000000 ) ) ;
#905 = ORIENTED_EDGE ( 'NONE', *, *, #1067, .T. ) ;
#906 = LOCAL_TIME ( 1, 36, 53.00000000000000000, #278 ) ;
#907 = CYLINDRICAL_SURFACE ( 'NONE', #188, 2.600000000000157740 ) ;
#908 = VERTEX_POINT ( 'NONE', #934 ) ;
#909 = PERSON_AND_ORGANIZATION ( #778, #1012 ) ;
#910 = EDGE_CURVE ( 'NONE', #223, #69, #395, .T. ) ;
#911 = CIRCLE ( 'NONE', #546, 3.000000000000074607 ) ;
#912 = DATE_TIME_ROLE ( 'creation_date' ) ;
#913 = ADVANCED_FACE ( 'NONE', ( #651 ), #766, .T. ) ;
#914 = ORIENTED_EDGE ( 'NONE', *, *, #471, .T. ) ;
#915 = PERSON_AND_ORGANIZATION ( #778, #1012 ) ;
#916 = ORIENTED_EDGE ( 'NONE', *, *, #715, .T. ) ;
#917 = APPROVAL_ROLE ( '' ) ;
#918 = EDGE_CURVE ( 'NONE', #34, #931, #339, .T. ) ;
#919 = VERTEX_POINT ( 'NONE', #780 ) ;
#920 = APPLICATION_CONTEXT ( 'configuration controlled 3d designs of mechanical parts and assemblies' ) ;
#921 = ORIENTED_EDGE ( 'NONE', *, *, #149, .F. ) ;
#922 = EDGE_CURVE ( 'NONE', #214, #837, #939, .T. ) ;
#923 = DIRECTION ( 'NONE',  ( 0.000000000000000000, 0.007925372303285287481, 0.9999685937437506889 ) ) ;
#924 = ORIENTED_EDGE ( 'NONE', *, *, #365, .F. ) ;
#925 = CARTESIAN_POINT ( 'NONE',  ( 539.6402577413684867, 896.8940811231598218, 1315.296021282420043 ) ) ;
#926 = ORIENTED_EDGE ( 'NONE', *, *, #424, .T. ) ;
#927 = ADVANCED_BREP_SHAPE_REPRESENTATION ( 'pulley_with_barket', ( #618, #1055 ), #1108 ) ;
#928 = LINE ( 'NONE', #210, #164 ) ;
#929 = VECTOR ( 'NONE', #514, 1000.000000000000227 ) ;
#930 = VECTOR ( 'NONE', #412, 1000.000000000000000 ) ;
#931 = VERTEX_POINT ( 'NONE', #955 ) ;
#932 = EDGE_CURVE ( 'NONE', #1114, #198, #524, .T. ) ;
#933 = CYLINDRICAL_SURFACE ( 'NONE', #145, 2.600000000000157740 ) ;
#934 = CARTESIAN_POINT ( 'NONE',  ( 525.2402577413685094, 906.8026252785003862, 1303.717128730848344 ) ) ;
#935 = EDGE_LOOP ( 'NONE', ( #98, #755, #250, #140 ) ) ;
#936 = ORIENTED_EDGE ( 'NONE', *, *, #1115, .T. ) ;
#937 = FACE_OUTER_BOUND ( 'NONE', #1019, .T. ) ;
#938 = PRODUCT_RELATED_PRODUCT_CATEGORY ( 'detail', '', ( #695 ) ) ;
#939 = CIRCLE ( 'NONE', #1002, 3.000000000000074607 ) ;
#940 = LINE ( 'NONE', #423, #76 ) ;
#941 = CARTESIAN_POINT ( 'NONE',  ( 548.2402577413685094, 906.7867745338946861, 1301.717191543361423 ) ) ;
#942 = AXIS2_PLACEMENT_3D ( 'NONE', #873, #948, #308 ) ;
#943 = DIRECTION ( 'NONE',  ( 0.000000000000000000, -0.007925372303280421582, -0.9999685937437507999 ) ) ;
#944 = ORIENTED_EDGE ( 'NONE', *, *, #275, .T. ) ;
#945 = ORIENTED_EDGE ( 'NONE', *, *, #38, .T. ) ;
#946 = CARTESIAN_POINT ( 'NONE',  ( 545.2402577413685094, 906.7867745338940040, 1301.717191543361423 ) ) ;
#947 = CIRCLE ( 'NONE', #991, 3.000000000000074607 ) ;
#948 = DIRECTION ( 'NONE',  ( 0.000000000000000000, -0.007925372303285634426, -0.9999685937437506889 ) ) ;
#949 = CYLINDRICAL_SURFACE ( 'NONE', #673, 3.000000000000074607 ) ;
#950 = CARTESIAN_POINT ( 'NONE',  ( 525.2402577413685094, 897.0010736486449332, 1328.795597297475069 ) ) ;
#951 = ORIENTED_EDGE ( 'NONE', *, *, #1177, .F. ) ;
#952 = ORIENTED_EDGE ( 'NONE', *, *, #726, .F. ) ;
#953 = CARTESIAN_POINT ( 'NONE',  ( 525.2402577413685094, 906.8026252785003862, 1303.717128730848344 ) ) ;
#954 = DIRECTION ( 'NONE',  ( -1.000000000000000000, 0.000000000000000000, 0.000000000000000000 ) ) ;
#955 = CARTESIAN_POINT ( 'NONE',  ( 522.2402577413685094, 897.0466445393890353, 1337.945416711501593 ) ) ;
#956 = VECTOR ( 'NONE', #603, 1000.000000000000227 ) ;
#957 = CARTESIAN_POINT ( 'NONE',  ( 497.2402577413685094, 897.1330558911555499, 1343.195085651726686 ) ) ;
#958 = ADVANCED_FACE ( 'NONE', ( #966 ), #1134, .F. ) ;
#959 = ORIENTED_EDGE ( 'NONE', *, *, #346, .F. ) ;
#960 = CARTESIAN_POINT ( 'NONE',  ( 525.2402577413685094, 897.0466445393890353, 1335.345416711501457 ) ) ;
#961 = EDGE_LOOP ( 'NONE', ( #387, #410, #193, #52 ) ) ;
#962 = CARTESIAN_POINT ( 'NONE',  ( 545.2402577413685094, 886.7636265421092503, 1298.875793208195546 ) ) ;
#963 = ORIENTED_EDGE ( 'NONE', *, *, #796, .T. ) ;
#964 = FACE_OUTER_BOUND ( 'NONE', #1021, .T. ) ;
#965 = EDGE_CURVE ( 'NONE', #919, #208, #607, .T. ) ;
#966 = FACE_OUTER_BOUND ( 'NONE', #413, .T. ) ;
#967 = CARTESIAN_POINT ( 'NONE',  ( 545.2402577413685094, 887.1995220187897075, 1353.874065864101794 ) ) ;
#968 = VERTEX_POINT ( 'NONE', #681 ) ;
#969 = DIRECTION ( 'NONE',  ( 0.000000000000000000, 0.007925372303280246375, 0.9999685937437506889 ) ) ;
#970 = AXIS2_PLACEMENT_3D ( 'NONE', #1139, #1032, #1132 ) ;
#971 = CARTESIAN_POINT ( 'NONE',  ( 530.8402577413685322, 896.8940811219496254, 1315.296021282429365 ) ) ;
#972 = CARTESIAN_POINT ( 'NONE',  ( 525.2402577413685094, 904.1989881124331987, 1353.739334534945783 ) ) ;
#973 = PLANE ( 'NONE',  #229 ) ;
#974 = ORIENTED_EDGE ( 'NONE', *, *, #809, .T. ) ;
#975 = DIRECTION ( 'NONE',  ( -1.000000000000000000, 0.000000000000000000, 0.000000000000000000 ) ) ;
#976 = PLANE ( 'NONE',  #448 ) ;
#977 = ADVANCED_FACE ( 'NONE', ( #700 ), #1045, .F. ) ;
#978 = CARTESIAN_POINT ( 'NONE',  ( 497.2402577413685094, 897.0466445393890353, 1335.345416711501457 ) ) ;
#979 = DIRECTION ( 'NONE',  ( 1.000000000000000000, -0.000000000000000000, -0.000000000000000000 ) ) ;
#980 = LINE ( 'NONE', #61, #70 ) ;
#981 = LINE ( 'NONE', #1164, #994 ) ;
#982 = CARTESIAN_POINT ( 'NONE',  ( 548.2402577413685094, 906.7629984169844874, 1298.717285762129904 ) ) ;
#983 = CC_DESIGN_DATE_AND_TIME_ASSIGNMENT ( #179, #912, ( #185 ) ) ;
#984 = CYLINDRICAL_SURFACE ( 'NONE', #901, 2.499999999505405412 ) ;
#985 = DIRECTION ( 'NONE',  ( 0.000000000000000000, 0.000000000000000000, 1.000000000000000000 ) ) ;
#986 = EDGE_LOOP ( 'NONE', ( #335, #997, #303, #926, #305, #459, #132, #847, #793, #11 ) ) ;
#987 = FACE_BOUND ( 'NONE', #1136, .T. ) ;
#988 = CARTESIAN_POINT ( 'NONE',  ( 497.2402577413685094, 897.0466445393890353, 1335.345416711501457 ) ) ;
#989 = PLANE ( 'NONE',  #1140 ) ;
#990 = VERTEX_POINT ( 'NONE', #231 ) ;
#991 = AXIS2_PLACEMENT_3D ( 'NONE', #361, #728, #542 ) ;
#992 = CARTESIAN_POINT ( 'NONE',  ( 539.6402577413684867, 896.8940811231598218, 1315.296021282420043 ) ) ;
#993 = VECTOR ( 'NONE', #211, 1000.000000000000000 ) ;
#994 = VECTOR ( 'NONE', #610, 1000.000000000000114 ) ;
#995 = LINE ( 'NONE', #722, #685 ) ;
#996 = CARTESIAN_POINT ( 'NONE',  ( 545.2402577413685094, 897.0010736486452743, 1328.795597297475297 ) ) ;
#997 = ORIENTED_EDGE ( 'NONE', *, *, #241, .T. ) ;
#998 = CALENDAR_DATE ( 2025, 19, 9 ) ;
#999 = ADVANCED_FACE ( 'NONE', ( #1063 ), #691, .F. ) ;
#1000 = EDGE_CURVE ( 'NONE', #63, #990, #273, .T. ) ;
#1001 = DATE_AND_TIME ( #457, #492 ) ;
#1002 = AXIS2_PLACEMENT_3D ( 'NONE', #136, #592, #791 ) ;
#1003 = CIRCLE ( 'NONE', #5, 2.499999999505405412 ) ;
#1004 = ORIENTED_EDGE ( 'NONE', *, *, #297, .T. ) ;
#1005 = VECTOR ( 'NONE', #300, 1000.000000000000227 ) ;
#1006 = VECTOR ( 'NONE', #162, 1000.000000000000000 ) ;
#1007 = VERTEX_POINT ( 'NONE', #794 ) ;
#1008 = ADVANCED_FACE ( 'NONE', ( #160 ), #1155, .F. ) ;
#1009 =( NAMED_UNIT ( * ) PLANE_ANGLE_UNIT ( ) SI_UNIT ( $, .RADIAN. ) );
#1010 = ORIENTED_EDGE ( 'NONE', *, *, #538, .T. ) ;
#1011 = EDGE_CURVE ( 'NONE', #968, #344, #465, .T. ) ;
#1012 = ORGANIZATION ( 'UNSPECIFIED', 'UNSPECIFIED', '' ) ;
#1013 = ORIENTED_EDGE ( 'NONE', *, *, #370, .T. ) ;
#1014 = DIRECTION ( 'NONE',  ( -1.000000000000000000, 0.000000000000000000, 0.000000000000000000 ) ) ;
#1015 = ORIENTED_EDGE ( 'NONE', *, *, #589, .T. ) ;
#1016 = DIRECTION ( 'NONE',  ( 1.000000000000000000, -0.000000000000000000, -0.000000000000000000 ) ) ;
#1017 = EDGE_LOOP ( 'NONE', ( #661, #1010, #295, #1174, #1082, #684, #832, #1118, #656, #1157 ) ) ;
#1018 = DIRECTION ( 'NONE',  ( 0.000000000000000000, 0.9999685937437507999, -0.007925372303285636161 ) ) ;
#1019 = EDGE_LOOP ( 'NONE', ( #951, #503, #477, #511, #441, #319 ) ) ;
#1020 = DIRECTION ( 'NONE',  ( 0.000000000000000000, 0.007925372303288239981, 0.9999685937437506889 ) ) ;
#1021 = EDGE_LOOP ( 'NONE', ( #729, #114, #499, #454 ) ) ;
#1022 = CARTESIAN_POINT ( 'NONE',  ( 525.2402577413685094, 890.1756516831108001, 1350.850383965960418 ) ) ;
#1023 = EDGE_CURVE ( 'NONE', #931, #34, #689, .T. ) ;
#1024 = VERTEX_POINT ( 'NONE', #1146 ) ;
#1025 = ORIENTED_EDGE ( 'NONE', *, *, #1067, .F. ) ;
#1026 = CARTESIAN_POINT ( 'NONE',  ( 522.2402577413685094, 897.1330558911555499, 1348.395085651726504 ) ) ;
#1027 = CARTESIAN_POINT ( 'NONE',  ( 525.2402577413685094, 886.7636265421092503, 1298.875793208195546 ) ) ;
#1028 = CYLINDRICAL_SURFACE ( 'NONE', #590, 3.000000000000074607 ) ;
#1029 = ORIENTED_EDGE ( 'NONE', *, *, #289, .F. ) ;
#1030 = ORIENTED_EDGE ( 'NONE', *, *, #1, .F. ) ;
#1031 = EDGE_LOOP ( 'NONE', ( #311, #921 ) ) ;
#1032 = DIRECTION ( 'NONE',  ( 1.000000000000000000, 1.254119382696661907E-16, -3.939145732475853758E-18 ) ) ;
#1033 = CARTESIAN_POINT ( 'NONE',  ( 522.2402577413685094, 904.1989881124331987, 1353.739334534945783 ) ) ;
#1034 = DIRECTION ( 'NONE',  ( 0.000000000000000000, -0.9999685937437506889, 0.007925372303280419847 ) ) ;
#1035 = AXIS2_PLACEMENT_3D ( 'NONE', #470, #36, #662 ) ;
#1036 = DIRECTION ( 'NONE',  ( 0.000000000000000000, -0.007925372303280246375, -0.9999685937437506889 ) ) ;
#1037 = ORIENTED_EDGE ( 'NONE', *, *, #726, .T. ) ;
#1038 = LOCAL_TIME ( 1, 36, 53.00000000000000000, #750 ) ;
#1039 = VERTEX_POINT ( 'NONE', #256 ) ;
#1040 = FACE_OUTER_BOUND ( 'NONE', #569, .T. ) ;
#1041 = AXIS2_PLACEMENT_3D ( 'NONE', #1081, #718, #985 ) ;
#1042 = EDGE_CURVE ( 'NONE', #820, #799, #148, .T. ) ;
#1043 = LINE ( 'NONE', #972, #431 ) ;
#1044 = VECTOR ( 'NONE', #513, 1000.000000000000000 ) ;
#1045 = PLANE ( 'NONE',  #4 ) ;
#1046 = CARTESIAN_POINT ( 'NONE',  ( 545.2402577413685094, 906.8026252785007273, 1303.717128730848572 ) ) ;
#1047 = ORIENTED_EDGE ( 'NONE', *, *, #910, .T. ) ;
#1048 = CIRCLE ( 'NONE', #1104, 3.000000000000074607 ) ;
#1049 = AXIS2_PLACEMENT_3D ( 'NONE', #705, #516, #720 ) ;
#1050 = ORIENTED_EDGE ( 'NONE', *, *, #922, .T. ) ;
#1051 = LINE ( 'NONE', #706, #545 ) ;
#1052 = ADVANCED_FACE ( 'NONE', ( #878 ), #617, .F. ) ;
#1053 = DIRECTION ( 'NONE',  ( 0.000000000000000000, -0.007925372303280246375, -0.9999685937437506889 ) ) ;
#1054 = DIRECTION ( 'NONE',  ( 0.000000000000000000, 0.9999685937437506889, -0.007925372303285634426 ) ) ;
#1055 = AXIS2_PLACEMENT_3D ( 'NONE', #268, #173, #734 ) ;
#1056 = CARTESIAN_POINT ( 'NONE',  ( 530.8402577413685322, 896.9138945527038231, 1317.795942766294274 ) ) ;
#1057 = EDGE_LOOP ( 'NONE', ( #1109, #475 ) ) ;
#1058 = DIRECTION ( 'NONE',  ( 0.000000000000000000, 0.000000000000000000, 1.000000000000000000 ) ) ;
#1059 = ORIENTED_EDGE ( 'NONE', *, *, #94, .T. ) ;
#1060 = CYLINDRICAL_SURFACE ( 'NONE', #1068, 3.000000000000074607 ) ;
#1061 = CLOSED_SHELL ( 'NONE', ( #476, #446, #958, #1052, #404, #490, #264, #304, #999, #630, #1008, #977, #496, #168, #702, #83, #761, #562, #913, #1151, #350, #721, #551, #654, #194, #366, #101, #852, #118, #877, #181, #385, #217, #199 ) ) ;
#1062 = DIRECTION ( 'NONE',  ( -1.000000000000000000, 0.000000000000000000, 0.000000000000000000 ) ) ;
#1063 = FACE_OUTER_BOUND ( 'NONE', #665, .T. ) ;
#1064 = FACE_OUTER_BOUND ( 'NONE', #312, .T. ) ;
#1065 = ORIENTED_EDGE ( 'NONE', *, *, #567, .T. ) ;
#1066 = DIRECTION ( 'NONE',  ( 1.000000000000000000, -0.000000000000000000, -0.000000000000000000 ) ) ;
#1067 = EDGE_CURVE ( 'NONE', #653, #50, #981, .T. ) ;
#1068 = AXIS2_PLACEMENT_3D ( 'NONE', #1166, #1075, #619 ) ;
#1069 = CARTESIAN_POINT ( 'NONE',  ( 539.6402577413684867, 896.8742676924055104, 1312.796099798555360 ) ) ;
#1070 = DIRECTION ( 'NONE',  ( 1.000000000000000000, 1.254119382696661907E-16, -3.939145732475853758E-18 ) ) ;
#1071 = DIRECTION ( 'NONE',  ( 0.000000000000000000, -0.007925372303291803103, -0.9999685937437505778 ) ) ;
#1072 = VERTEX_POINT ( 'NONE', #595 ) ;
#1073 = DIRECTION ( 'NONE',  ( 0.000000000000000000, -0.007925372303281818034, -0.9999685937437506889 ) ) ;
#1074 = EDGE_CURVE ( 'NONE', #1007, #868, #784, .T. ) ;
#1075 = DIRECTION ( 'NONE',  ( 1.000000000000000000, 1.254119382696661907E-16, -3.939145732475853758E-18 ) ) ;
#1076 = FACE_OUTER_BOUND ( 'NONE', #485, .T. ) ;
#1077 = DIRECTION ( 'NONE',  ( 1.000000000000000000, 1.254119382696661907E-16, -3.939145732475853758E-18 ) ) ;
#1078 = DIRECTION ( 'NONE',  ( -0.000000000000000000, 0.007925372303280249844, 0.9999685937437506889 ) ) ;
#1079 = DIRECTION ( 'NONE',  ( 0.000000000000000000, -0.007925372303281818034, -0.9999685937437506889 ) ) ;
#1080 = DIRECTION ( 'NONE',  ( 1.000000000000000000, -0.000000000000000000, -0.000000000000000000 ) ) ;
#1081 = CARTESIAN_POINT ( 'NONE',  ( 525.2402577413685094, 897.1330558911555499, 1345.795085651726595 ) ) ;
#1082 = ORIENTED_EDGE ( 'NONE', *, *, #829, .F. ) ;
#1083 = SECURITY_CLASSIFICATION_LEVEL ( 'unclassified' ) ;
#1084 = DIRECTION ( 'NONE',  ( 1.000000000000000000, -0.000000000000000000, 0.000000000000000000 ) ) ;
#1085 = EDGE_CURVE ( 'NONE', #686, #276, #1091, .T. ) ;
#1086 = CARTESIAN_POINT ( 'NONE',  ( 522.2402577413685094, 907.1751177767545187, 1350.715652636804634 ) ) ;
#1087 = VERTEX_POINT ( 'NONE', #421 ) ;
#1088 = APPLICATION_PROTOCOL_DEFINITION ( 'international standard', 'config_control_design', 1994, #920 ) ;
#1089 = EDGE_CURVE ( 'NONE', #645, #1087, #175, .T. ) ;
#1090 = AXIS2_PLACEMENT_3D ( 'NONE', #351, #979, #158 ) ;
#1091 = CIRCLE ( 'NONE', #323, 2.600000000000157740 ) ;
#1092 = DIRECTION ( 'NONE',  ( 0.000000000000000000, 0.007925372303280246375, 0.9999685937437506889 ) ) ;
#1093 = APPROVAL_DATE_TIME ( #450, #897 ) ;
#1094 = CIRCLE ( 'NONE', #703, 1.599999999475627543 ) ;
#1095 = EDGE_CURVE ( 'NONE', #837, #886, #900, .T. ) ;
#1096 = AXIS2_PLACEMENT_3D ( 'NONE', #1022, #1014, #205 ) ;
#1097 = VECTOR ( 'NONE', #1053, 1000.000000000000227 ) ;
#1098 = ORIENTED_EDGE ( 'NONE', *, *, #829, .T. ) ;
#1099 = PERSON_AND_ORGANIZATION ( #778, #1012 ) ;
#1100 = EDGE_CURVE ( 'NONE', #267, #677, #1147, .T. ) ;
#1101 = CIRCLE ( 'NONE', #75, 2.499999999505405412 ) ;
#1102 = EDGE_CURVE ( 'NONE', #56, #652, #58, .T. ) ;
#1103 = ORIENTED_EDGE ( 'NONE', *, *, #834, .F. ) ;
#1104 = AXIS2_PLACEMENT_3D ( 'NONE', #1122, #310, #584 ) ;
#1105 = DATE_AND_TIME ( #91, #1038 ) ;
#1106 = DIRECTION ( 'NONE',  ( 0.000000000000000000, -0.007925372303288239981, -0.9999685937437506889 ) ) ;
#1107 = ORIENTED_EDGE ( 'NONE', *, *, #321, .T. ) ;
#1108 =( GEOMETRIC_REPRESENTATION_CONTEXT ( 3 ) GLOBAL_UNCERTAINTY_ASSIGNED_CONTEXT ( ( #356 ) ) GLOBAL_UNIT_ASSIGNED_CONTEXT ( ( #187, #1009, #1183 ) ) REPRESENTATION_CONTEXT ( 'NONE', 'WORKASPACE' ) );
#1109 = ORIENTED_EDGE ( 'NONE', *, *, #549, .F. ) ;
#1110 = APPROVAL_DATE_TIME ( #1105, #1161 ) ;
#1111 = DIRECTION ( 'NONE',  ( -1.000000000000000000, -1.254119382696661907E-16, 3.939145732475853758E-18 ) ) ;
#1112 = ORIENTED_EDGE ( 'NONE', *, *, #163, .F. ) ;
#1113 = CARTESIAN_POINT ( 'NONE',  ( 545.2402577413685094, 887.1757459018798500, 1350.874160082870503 ) ) ;
#1114 = VERTEX_POINT ( 'NONE', #359 ) ;
#1115 = EDGE_CURVE ( 'NONE', #451, #842, #106, .T. ) ;
#1116 = CARTESIAN_POINT ( 'NONE',  ( 545.2402577413685094, 890.1994278000209988, 1353.850289747191937 ) ) ;
#1117 = EDGE_LOOP ( 'NONE', ( #708, #1047, #382, #192 ) ) ;
#1118 = ORIENTED_EDGE ( 'NONE', *, *, #1074, .T. ) ;
#1119 = FACE_BOUND ( 'NONE', #397, .T. ) ;
#1120 = EDGE_CURVE ( 'NONE', #868, #1039, #204, .T. ) ;
#1121 = LINE ( 'NONE', #472, #224 ) ;
#1122 = CARTESIAN_POINT ( 'NONE',  ( 545.2402577413685094, 904.1752119955236822, 1350.739428753714719 ) ) ;
#1123 = ORIENTED_EDGE ( 'NONE', *, *, #809, .F. ) ;
#1124 = VERTEX_POINT ( 'NONE', #71 ) ;
#1125 = FACE_BOUND ( 'NONE', #1057, .T. ) ;
#1126 = DIRECTION ( 'NONE',  ( -1.000000000000000000, 0.000000000000000000, -0.000000000000000000 ) ) ;
#1127 = CARTESIAN_POINT ( 'NONE',  ( 548.2402577413685094, 897.1330558911555499, 1345.795085651726595 ) ) ;
#1128 = DIRECTION ( 'NONE',  ( 1.266188576884244149E-16, -0.9999685937437506889, 0.007925372303280071168 ) ) ;
#1129 = ORIENTED_EDGE ( 'NONE', *, *, #1181, .F. ) ;
#1130 = EDGE_CURVE ( 'NONE', #560, #919, #435, .T. ) ;
#1131 = ORIENTED_EDGE ( 'NONE', *, *, #611, .T. ) ;
#1132 = DIRECTION ( 'NONE',  ( 0.000000000000000000, -0.007925372303291803103, -0.9999685937437505778 ) ) ;
#1133 = LINE ( 'NONE', #606, #846 ) ;
#1134 = CYLINDRICAL_SURFACE ( 'NONE', #429, 2.600000000000157740 ) ;
#1135 = LINE ( 'NONE', #334, #993 ) ;
#1136 = EDGE_LOOP ( 'NONE', ( #724, #328 ) ) ;
#1137 = EDGE_CURVE ( 'NONE', #371, #1024, #596, .T. ) ;
#1138 = ORIENTED_EDGE ( 'NONE', *, *, #675, .T. ) ;
#1139 = CARTESIAN_POINT ( 'NONE',  ( 548.2402577413685094, 896.8940811225510288, 1315.296021281934372 ) ) ;
#1140 = AXIS2_PLACEMENT_3D ( 'NONE', #996, #805, #527 ) ;
#1141 = CYLINDRICAL_SURFACE ( 'NONE', #739, 2.499999999505405412 ) ;
#1142 = CARTESIAN_POINT ( 'NONE',  ( 525.2402577413685094, 907.1988938936643763, 1353.715558418035926 ) ) ;
#1143 = PLANE ( 'NONE',  #12 ) ;
#1144 = ORIENTED_EDGE ( 'NONE', *, *, #330, .T. ) ;
#1145 = AXIS2_PLACEMENT_3D ( 'NONE', #896, #343, #1071 ) ;
#1146 = CARTESIAN_POINT ( 'NONE',  ( 545.2402577413685094, 896.9138945539141332, 1317.795942766284952 ) ) ;
#1147 = CIRCLE ( 'NONE', #378, 3.000000000000074607 ) ;
#1148 = ORIENTED_EDGE ( 'NONE', *, *, #538, .F. ) ;
#1149 = CARTESIAN_POINT ( 'NONE',  ( 538.2402577413685094, 896.8814005268657183, 1313.696071531944654 ) ) ;
#1150 = CARTESIAN_POINT ( 'NONE',  ( 522.2402577413685094, 897.1330558911555499, 1345.795085651726595 ) ) ;
#1151 = ADVANCED_FACE ( 'NONE', ( #987, #234, #139, #500 ), #869, .F. ) ;
#1152 = CARTESIAN_POINT ( 'NONE',  ( 0.000000000000000000, 10.38907677679708641, 1310.821762970397685 ) ) ;
#1153 = FACE_OUTER_BOUND ( 'NONE', #763, .T. ) ;
#1154 = ORIENTED_EDGE ( 'NONE', *, *, #375, .F. ) ;
#1155 = PLANE ( 'NONE',  #836 ) ;
#1156 = LINE ( 'NONE', #414, #803 ) ;
#1157 = ORIENTED_EDGE ( 'NONE', *, *, #127, .T. ) ;
#1158 = VECTOR ( 'NONE', #59, 1000.000000000000000 ) ;
#1159 = DIRECTION ( 'NONE',  ( -1.000000000000000000, 0.000000000000000000, 0.000000000000000000 ) ) ;
#1160 = FACE_OUTER_BOUND ( 'NONE', #398, .T. ) ;
#1161 = APPROVAL ( #744, 'UNSPECIFIED' ) ;
#1162 = ORIENTED_EDGE ( 'NONE', *, *, #33, .T. ) ;
#1163 = CIRCLE ( 'NONE', #641, 2.600000000000157740 ) ;
#1164 = CARTESIAN_POINT ( 'NONE',  ( 545.2402577413685094, 886.7636265421095914, 1298.875793208195773 ) ) ;
#1165 = VECTOR ( 'NONE', #23, 1000.000000000000000 ) ;
#1166 = CARTESIAN_POINT ( 'NONE',  ( 545.2402577413685094, 890.1756516831111412, 1350.850383965960646 ) ) ;
#1167 = CYLINDRICAL_SURFACE ( 'NONE', #810, 1.599999999999891953 ) ;
#1168 = AXIS2_PLACEMENT_3D ( 'NONE', #525, #943, #867 ) ;
#1169 = CARTESIAN_POINT ( 'NONE',  ( 545.2402577413685094, 897.0466445393890353, 1335.345416711501457 ) ) ;
#1170 = ORIENTED_EDGE ( 'NONE', *, *, #1095, .F. ) ;
#1171 = DIRECTION ( 'NONE',  ( 0.000000000000000000, 0.9999685937437507999, -0.007925372303280248110 ) ) ;
#1172 = DIRECTION ( 'NONE',  ( 1.000000000000000000, -0.000000000000000000, -0.000000000000000000 ) ) ;
#1173 = FACE_BOUND ( 'NONE', #1180, .T. ) ;
#1174 = ORIENTED_EDGE ( 'NONE', *, *, #389, .T. ) ;
#1175 = DIRECTION ( 'NONE',  ( 0.000000000000000000, -0.007925372303288239981, -0.9999685937437506889 ) ) ;
#1176 = CC_DESIGN_APPROVAL ( #433, ( #185 ) ) ;
#1177 = EDGE_CURVE ( 'NONE', #1072, #677, #628, .T. ) ;
#1178 = CARTESIAN_POINT ( 'NONE',  ( 539.6402577413684867, 896.8940811231598218, 1315.296021282420043 ) ) ;
#1179 = FACE_OUTER_BOUND ( 'NONE', #405, .T. ) ;
#1180 = EDGE_LOOP ( 'NONE', ( #916, #125 ) ) ;
#1181 = EDGE_CURVE ( 'NONE', #27, #518, #86, .T. ) ;
#1182 = FACE_OUTER_BOUND ( 'NONE', #961, .T. ) ;
#1183 =( NAMED_UNIT ( * ) SI_UNIT ( $, .STERADIAN. ) SOLID_ANGLE_UNIT ( ) );
ENDSEC;
END-ISO-10303-21;
