ISO-10303-21;
HEADER;
/* Generated by software containing ST-Developer
 * from STEP Tools, Inc. (www.steptools.com) 
 */
/* OPTION: using custom renumber hook */

FILE_DESCRIPTION(
/* description */ ('STEP AP203'),
/* implementation_level */ '2;1');

FILE_NAME(
/* name */ 'SZV4-14',
/* time_stamp */ '2025-09-16T17:32:21+02:00',
/* author */ ('License CC BY-ND 4.0'),
/* organization */ ('CADENAS'),
/* preprocessor_version */ 'ST-DEVELOPER v19.3',
/* originating_system */ 'PARTsolutions',
/* authorisation */ '  ');

FILE_SCHEMA (('CONFIG_CONTROL_DESIGN'));
ENDSEC;

DATA;
#10=PROPERTY_DEFINITION_REPRESENTATION(#14,#12);
#11=PROPERTY_DEFINITION_REPRESENTATION(#15,#13);
#12=REPRESENTATION('',(#16),#377);
#13=REPRESENTATION('',(#17),#377);
#14=PROPERTY_DEFINITION('pmi validation property','',#382);
#15=PROPERTY_DEFINITION('pmi validation property','',#382);
#16=VALUE_REPRESENTATION_ITEM('number of annotations',COUNT_MEASURE(0.));
#17=VALUE_REPRESENTATION_ITEM('number of views',COUNT_MEASURE(0.));
#18=SHAPE_REPRESENTATION_RELATIONSHIP('','',#218,#19);
#19=ADVANCED_BREP_SHAPE_REPRESENTATION('',(#216),#377);
#20=CONICAL_SURFACE('',#233,2.25,0.785398163397447);
#21=CONICAL_SURFACE('',#237,2.,0.785398163397449);
#22=CONICAL_SURFACE('',#251,7.,0.785398163397448);
#23=CONICAL_SURFACE('',#253,5.53,0.785398163397448);
#24=PLANE('',#223);
#25=PLANE('',#227);
#26=PLANE('',#231);
#27=PLANE('',#239);
#28=PLANE('',#243);
#29=PLANE('',#247);
#30=ORIENTED_EDGE('',*,*,#64,.T.);
#31=ORIENTED_EDGE('',*,*,#65,.F.);
#32=ORIENTED_EDGE('',*,*,#66,.T.);
#33=ORIENTED_EDGE('',*,*,#64,.F.);
#34=ORIENTED_EDGE('',*,*,#67,.T.);
#35=ORIENTED_EDGE('',*,*,#66,.F.);
#36=ORIENTED_EDGE('',*,*,#68,.T.);
#37=ORIENTED_EDGE('',*,*,#67,.F.);
#38=ORIENTED_EDGE('',*,*,#69,.T.);
#39=ORIENTED_EDGE('',*,*,#68,.F.);
#40=ORIENTED_EDGE('',*,*,#70,.T.);
#41=ORIENTED_EDGE('',*,*,#69,.F.);
#42=ORIENTED_EDGE('',*,*,#71,.T.);
#43=ORIENTED_EDGE('',*,*,#70,.F.);
#44=ORIENTED_EDGE('',*,*,#72,.T.);
#45=ORIENTED_EDGE('',*,*,#71,.F.);
#46=ORIENTED_EDGE('',*,*,#73,.T.);
#47=ORIENTED_EDGE('',*,*,#72,.F.);
#48=ORIENTED_EDGE('',*,*,#74,.T.);
#49=ORIENTED_EDGE('',*,*,#73,.F.);
#50=ORIENTED_EDGE('',*,*,#75,.T.);
#51=ORIENTED_EDGE('',*,*,#74,.F.);
#52=ORIENTED_EDGE('',*,*,#76,.T.);
#53=ORIENTED_EDGE('',*,*,#75,.F.);
#54=ORIENTED_EDGE('',*,*,#77,.T.);
#55=ORIENTED_EDGE('',*,*,#76,.F.);
#56=ORIENTED_EDGE('',*,*,#78,.T.);
#57=ORIENTED_EDGE('',*,*,#77,.F.);
#58=ORIENTED_EDGE('',*,*,#79,.T.);
#59=ORIENTED_EDGE('',*,*,#78,.F.);
#60=ORIENTED_EDGE('',*,*,#80,.T.);
#61=ORIENTED_EDGE('',*,*,#79,.F.);
#62=ORIENTED_EDGE('',*,*,#65,.T.);
#63=ORIENTED_EDGE('',*,*,#80,.F.);
#64=EDGE_CURVE('',#81,#81,#98,.T.);
#65=EDGE_CURVE('',#82,#82,#99,.T.);
#66=EDGE_CURVE('',#83,#83,#100,.T.);
#67=EDGE_CURVE('',#84,#84,#101,.T.);
#68=EDGE_CURVE('',#85,#85,#102,.T.);
#69=EDGE_CURVE('',#86,#86,#103,.T.);
#70=EDGE_CURVE('',#87,#87,#104,.T.);
#71=EDGE_CURVE('',#88,#88,#105,.T.);
#72=EDGE_CURVE('',#89,#89,#106,.T.);
#73=EDGE_CURVE('',#90,#90,#107,.T.);
#74=EDGE_CURVE('',#91,#91,#108,.T.);
#75=EDGE_CURVE('',#92,#92,#109,.T.);
#76=EDGE_CURVE('',#93,#93,#110,.T.);
#77=EDGE_CURVE('',#94,#94,#111,.T.);
#78=EDGE_CURVE('',#95,#95,#112,.T.);
#79=EDGE_CURVE('',#96,#96,#113,.T.);
#80=EDGE_CURVE('',#97,#97,#114,.T.);
#81=VERTEX_POINT('',#327);
#82=VERTEX_POINT('',#329);
#83=VERTEX_POINT('',#332);
#84=VERTEX_POINT('',#335);
#85=VERTEX_POINT('',#338);
#86=VERTEX_POINT('',#341);
#87=VERTEX_POINT('',#344);
#88=VERTEX_POINT('',#347);
#89=VERTEX_POINT('',#350);
#90=VERTEX_POINT('',#353);
#91=VERTEX_POINT('',#356);
#92=VERTEX_POINT('',#359);
#93=VERTEX_POINT('',#362);
#94=VERTEX_POINT('',#365);
#95=VERTEX_POINT('',#368);
#96=VERTEX_POINT('',#371);
#97=VERTEX_POINT('',#374);
#98=CIRCLE('',#221,7.);
#99=CIRCLE('',#222,7.);
#100=CIRCLE('',#224,3.75);
#101=CIRCLE('',#226,3.75);
#102=CIRCLE('',#228,2.75);
#103=CIRCLE('',#230,2.75);
#104=CIRCLE('',#232,2.25);
#105=CIRCLE('',#234,2.);
#106=CIRCLE('',#236,2.);
#107=CIRCLE('',#238,2.25);
#108=CIRCLE('',#240,2.75);
#109=CIRCLE('',#242,2.75);
#110=CIRCLE('',#244,3.75);
#111=CIRCLE('',#246,3.75);
#112=CIRCLE('',#248,7.);
#113=CIRCLE('',#250,7.);
#114=CIRCLE('',#252,5.53);
#115=EDGE_LOOP('',(#30));
#116=EDGE_LOOP('',(#31));
#117=EDGE_LOOP('',(#32));
#118=EDGE_LOOP('',(#33));
#119=EDGE_LOOP('',(#34));
#120=EDGE_LOOP('',(#35));
#121=EDGE_LOOP('',(#36));
#122=EDGE_LOOP('',(#37));
#123=EDGE_LOOP('',(#38));
#124=EDGE_LOOP('',(#39));
#125=EDGE_LOOP('',(#40));
#126=EDGE_LOOP('',(#41));
#127=EDGE_LOOP('',(#42));
#128=EDGE_LOOP('',(#43));
#129=EDGE_LOOP('',(#44));
#130=EDGE_LOOP('',(#45));
#131=EDGE_LOOP('',(#46));
#132=EDGE_LOOP('',(#47));
#133=EDGE_LOOP('',(#48));
#134=EDGE_LOOP('',(#49));
#135=EDGE_LOOP('',(#50));
#136=EDGE_LOOP('',(#51));
#137=EDGE_LOOP('',(#52));
#138=EDGE_LOOP('',(#53));
#139=EDGE_LOOP('',(#54));
#140=EDGE_LOOP('',(#55));
#141=EDGE_LOOP('',(#56));
#142=EDGE_LOOP('',(#57));
#143=EDGE_LOOP('',(#58));
#144=EDGE_LOOP('',(#59));
#145=EDGE_LOOP('',(#60));
#146=EDGE_LOOP('',(#61));
#147=EDGE_LOOP('',(#62));
#148=EDGE_LOOP('',(#63));
#149=FACE_BOUND('',#115,.T.);
#150=FACE_BOUND('',#116,.T.);
#151=FACE_BOUND('',#117,.T.);
#152=FACE_BOUND('',#118,.T.);
#153=FACE_BOUND('',#119,.T.);
#154=FACE_BOUND('',#120,.T.);
#155=FACE_BOUND('',#121,.T.);
#156=FACE_BOUND('',#122,.T.);
#157=FACE_BOUND('',#123,.T.);
#158=FACE_BOUND('',#124,.T.);
#159=FACE_BOUND('',#125,.T.);
#160=FACE_BOUND('',#126,.T.);
#161=FACE_BOUND('',#127,.T.);
#162=FACE_BOUND('',#128,.T.);
#163=FACE_BOUND('',#129,.T.);
#164=FACE_BOUND('',#130,.T.);
#165=FACE_BOUND('',#131,.T.);
#166=FACE_BOUND('',#132,.T.);
#167=FACE_BOUND('',#133,.T.);
#168=FACE_BOUND('',#134,.T.);
#169=FACE_BOUND('',#135,.T.);
#170=FACE_BOUND('',#136,.T.);
#171=FACE_BOUND('',#137,.T.);
#172=FACE_BOUND('',#138,.T.);
#173=FACE_BOUND('',#139,.T.);
#174=FACE_BOUND('',#140,.T.);
#175=FACE_BOUND('',#141,.T.);
#176=FACE_BOUND('',#142,.T.);
#177=FACE_BOUND('',#143,.T.);
#178=FACE_BOUND('',#144,.T.);
#179=FACE_BOUND('',#145,.T.);
#180=FACE_BOUND('',#146,.T.);
#181=FACE_BOUND('',#147,.T.);
#182=FACE_BOUND('',#148,.T.);
#183=CYLINDRICAL_SURFACE('',#220,7.);
#184=CYLINDRICAL_SURFACE('',#225,3.75);
#185=CYLINDRICAL_SURFACE('',#229,2.75);
#186=CYLINDRICAL_SURFACE('',#235,2.);
#187=CYLINDRICAL_SURFACE('',#241,2.75);
#188=CYLINDRICAL_SURFACE('',#245,3.75);
#189=CYLINDRICAL_SURFACE('',#249,7.);
#190=ADVANCED_FACE('',(#149,#150),#183,.T.);
#191=ADVANCED_FACE('',(#151,#152),#24,.T.);
#192=ADVANCED_FACE('',(#153,#154),#184,.F.);
#193=ADVANCED_FACE('',(#155,#156),#25,.T.);
#194=ADVANCED_FACE('',(#157,#158),#185,.T.);
#195=ADVANCED_FACE('',(#159,#160),#26,.T.);
#196=ADVANCED_FACE('',(#161,#162),#20,.F.);
#197=ADVANCED_FACE('',(#163,#164),#186,.F.);
#198=ADVANCED_FACE('',(#165,#166),#21,.F.);
#199=ADVANCED_FACE('',(#167,#168),#27,.T.);
#200=ADVANCED_FACE('',(#169,#170),#187,.T.);
#201=ADVANCED_FACE('',(#171,#172),#28,.T.);
#202=ADVANCED_FACE('',(#173,#174),#188,.F.);
#203=ADVANCED_FACE('',(#175,#176),#29,.T.);
#204=ADVANCED_FACE('',(#177,#178),#189,.T.);
#205=ADVANCED_FACE('',(#179,#180),#22,.T.);
#206=ADVANCED_FACE('',(#181,#182),#23,.T.);
#207=CLOSED_SHELL('',(#190,#191,#192,#193,#194,#195,#196,#197,#198,#199,
#200,#201,#202,#203,#204,#205,#206));
#208=STYLED_ITEM('',(#209),#216);
#209=PRESENTATION_STYLE_ASSIGNMENT((#210));
#210=SURFACE_STYLE_USAGE(.BOTH.,#211);
#211=SURFACE_SIDE_STYLE('',(#212));
#212=SURFACE_STYLE_FILL_AREA(#213);
#213=FILL_AREA_STYLE('',(#214));
#214=FILL_AREA_STYLE_COLOUR('',#215);
#215=COLOUR_RGB('',0.689999997615814,0.689999997615814,0.689999997615814);
#216=MANIFOLD_SOLID_BREP('SZV4-14',#207);
#217=SHAPE_DEFINITION_REPRESENTATION(#382,#218);
#218=SHAPE_REPRESENTATION('SZV4-14',(#219),#377);
#219=AXIS2_PLACEMENT_3D('',#324,#254,#255);
#220=AXIS2_PLACEMENT_3D('',#325,#256,#257);
#221=AXIS2_PLACEMENT_3D('',#326,#258,#259);
#222=AXIS2_PLACEMENT_3D('',#328,#260,#261);
#223=AXIS2_PLACEMENT_3D('',#330,#262,#263);
#224=AXIS2_PLACEMENT_3D('',#331,#264,#265);
#225=AXIS2_PLACEMENT_3D('',#333,#266,#267);
#226=AXIS2_PLACEMENT_3D('',#334,#268,#269);
#227=AXIS2_PLACEMENT_3D('',#336,#270,#271);
#228=AXIS2_PLACEMENT_3D('',#337,#272,#273);
#229=AXIS2_PLACEMENT_3D('',#339,#274,#275);
#230=AXIS2_PLACEMENT_3D('',#340,#276,#277);
#231=AXIS2_PLACEMENT_3D('',#342,#278,#279);
#232=AXIS2_PLACEMENT_3D('',#343,#280,#281);
#233=AXIS2_PLACEMENT_3D('',#345,#282,#283);
#234=AXIS2_PLACEMENT_3D('',#346,#284,#285);
#235=AXIS2_PLACEMENT_3D('',#348,#286,#287);
#236=AXIS2_PLACEMENT_3D('',#349,#288,#289);
#237=AXIS2_PLACEMENT_3D('',#351,#290,#291);
#238=AXIS2_PLACEMENT_3D('',#352,#292,#293);
#239=AXIS2_PLACEMENT_3D('',#354,#294,#295);
#240=AXIS2_PLACEMENT_3D('',#355,#296,#297);
#241=AXIS2_PLACEMENT_3D('',#357,#298,#299);
#242=AXIS2_PLACEMENT_3D('',#358,#300,#301);
#243=AXIS2_PLACEMENT_3D('',#360,#302,#303);
#244=AXIS2_PLACEMENT_3D('',#361,#304,#305);
#245=AXIS2_PLACEMENT_3D('',#363,#306,#307);
#246=AXIS2_PLACEMENT_3D('',#364,#308,#309);
#247=AXIS2_PLACEMENT_3D('',#366,#310,#311);
#248=AXIS2_PLACEMENT_3D('',#367,#312,#313);
#249=AXIS2_PLACEMENT_3D('',#369,#314,#315);
#250=AXIS2_PLACEMENT_3D('',#370,#316,#317);
#251=AXIS2_PLACEMENT_3D('',#372,#318,#319);
#252=AXIS2_PLACEMENT_3D('',#373,#320,#321);
#253=AXIS2_PLACEMENT_3D('',#375,#322,#323);
#254=DIRECTION('',(0.,0.,1.));
#255=DIRECTION('',(1.,0.,0.));
#256=DIRECTION('',(1.,0.,0.));
#257=DIRECTION('',(0.,0.,-1.));
#258=DIRECTION('',(1.,0.,0.));
#259=DIRECTION('',(0.,0.,-1.));
#260=DIRECTION('',(1.,0.,0.));
#261=DIRECTION('',(0.,0.,-1.));
#262=DIRECTION('',(-1.,0.,0.));
#263=DIRECTION('',(0.,0.,1.));
#264=DIRECTION('',(1.,0.,0.));
#265=DIRECTION('',(0.,0.,-1.));
#266=DIRECTION('',(1.,0.,0.));
#267=DIRECTION('',(0.,0.,-1.));
#268=DIRECTION('',(1.,0.,0.));
#269=DIRECTION('',(0.,0.,-1.));
#270=DIRECTION('',(-1.,0.,0.));
#271=DIRECTION('',(0.,0.,1.));
#272=DIRECTION('',(1.,0.,0.));
#273=DIRECTION('',(0.,0.,-1.));
#274=DIRECTION('',(1.,0.,0.));
#275=DIRECTION('',(0.,0.,-1.));
#276=DIRECTION('',(1.,0.,0.));
#277=DIRECTION('',(0.,0.,-1.));
#278=DIRECTION('',(-1.,0.,0.));
#279=DIRECTION('',(0.,0.,1.));
#280=DIRECTION('',(1.,0.,0.));
#281=DIRECTION('',(0.,0.,-1.));
#282=DIRECTION('',(-1.,0.,0.));
#283=DIRECTION('',(0.,0.,1.));
#284=DIRECTION('',(1.,0.,0.));
#285=DIRECTION('',(0.,0.,-1.));
#286=DIRECTION('',(1.,0.,0.));
#287=DIRECTION('',(0.,0.,-1.));
#288=DIRECTION('',(1.,0.,0.));
#289=DIRECTION('',(0.,0.,-1.));
#290=DIRECTION('',(1.,0.,0.));
#291=DIRECTION('',(0.,0.,-1.));
#292=DIRECTION('',(1.,0.,0.));
#293=DIRECTION('',(0.,0.,-1.));
#294=DIRECTION('',(1.,0.,0.));
#295=DIRECTION('',(0.,0.,-1.));
#296=DIRECTION('',(1.,0.,0.));
#297=DIRECTION('',(0.,0.,-1.));
#298=DIRECTION('',(1.,0.,0.));
#299=DIRECTION('',(0.,0.,-1.));
#300=DIRECTION('',(1.,0.,0.));
#301=DIRECTION('',(0.,0.,-1.));
#302=DIRECTION('',(1.,0.,0.));
#303=DIRECTION('',(0.,0.,-1.));
#304=DIRECTION('',(1.,0.,0.));
#305=DIRECTION('',(0.,0.,-1.));
#306=DIRECTION('',(1.,0.,0.));
#307=DIRECTION('',(0.,0.,-1.));
#308=DIRECTION('',(1.,0.,0.));
#309=DIRECTION('',(0.,0.,-1.));
#310=DIRECTION('',(1.,0.,0.));
#311=DIRECTION('',(0.,0.,-1.));
#312=DIRECTION('',(1.,0.,0.));
#313=DIRECTION('',(0.,0.,-1.));
#314=DIRECTION('',(1.,0.,0.));
#315=DIRECTION('',(0.,0.,-1.));
#316=DIRECTION('',(1.,0.,0.));
#317=DIRECTION('',(0.,0.,-1.));
#318=DIRECTION('',(1.,0.,0.));
#319=DIRECTION('',(0.,0.,-1.));
#320=DIRECTION('',(1.,0.,0.));
#321=DIRECTION('',(0.,0.,-1.));
#322=DIRECTION('',(-1.,0.,0.));
#323=DIRECTION('',(0.,0.,1.));
#324=CARTESIAN_POINT('',(0.,0.,0.));
#325=CARTESIAN_POINT('',(2.,0.,0.));
#326=CARTESIAN_POINT('',(-2.,0.,0.));
#327=CARTESIAN_POINT('',(-2.,0.,-7.));
#328=CARTESIAN_POINT('',(-1.47,0.,0.));
#329=CARTESIAN_POINT('',(-1.47,0.,-7.));
#330=CARTESIAN_POINT('',(-2.,7.,0.));
#331=CARTESIAN_POINT('',(-2.,0.,0.));
#332=CARTESIAN_POINT('',(-2.,0.,-3.75));
#333=CARTESIAN_POINT('',(2.,0.,0.));
#334=CARTESIAN_POINT('',(-1.9,0.,0.));
#335=CARTESIAN_POINT('',(-1.9,0.,-3.75));
#336=CARTESIAN_POINT('',(-1.9,3.75,0.));
#337=CARTESIAN_POINT('',(-1.9,0.,0.));
#338=CARTESIAN_POINT('',(-1.9,0.,-2.75));
#339=CARTESIAN_POINT('',(2.,0.,0.));
#340=CARTESIAN_POINT('',(-2.,0.,0.));
#341=CARTESIAN_POINT('',(-2.,0.,-2.75));
#342=CARTESIAN_POINT('',(-2.,2.75,0.));
#343=CARTESIAN_POINT('',(-2.,0.,0.));
#344=CARTESIAN_POINT('',(-2.,0.,-2.25));
#345=CARTESIAN_POINT('',(-2.,0.,0.));
#346=CARTESIAN_POINT('',(-1.75,0.,0.));
#347=CARTESIAN_POINT('',(-1.75,0.,-2.));
#348=CARTESIAN_POINT('',(2.,0.,0.));
#349=CARTESIAN_POINT('',(1.75,0.,0.));
#350=CARTESIAN_POINT('',(1.75,0.,-2.));
#351=CARTESIAN_POINT('',(1.75,0.,0.));
#352=CARTESIAN_POINT('',(2.,0.,0.));
#353=CARTESIAN_POINT('',(2.,0.,-2.25));
#354=CARTESIAN_POINT('',(2.,2.25,0.));
#355=CARTESIAN_POINT('',(2.,0.,0.));
#356=CARTESIAN_POINT('',(2.,0.,-2.75));
#357=CARTESIAN_POINT('',(2.,0.,0.));
#358=CARTESIAN_POINT('',(1.9,0.,0.));
#359=CARTESIAN_POINT('',(1.9,0.,-2.75));
#360=CARTESIAN_POINT('',(1.9,2.75,0.));
#361=CARTESIAN_POINT('',(1.9,0.,0.));
#362=CARTESIAN_POINT('',(1.9,0.,-3.75));
#363=CARTESIAN_POINT('',(2.,0.,0.));
#364=CARTESIAN_POINT('',(2.,0.,0.));
#365=CARTESIAN_POINT('',(2.,0.,-3.75));
#366=CARTESIAN_POINT('',(2.,3.75,0.));
#367=CARTESIAN_POINT('',(2.,0.,0.));
#368=CARTESIAN_POINT('',(2.,0.,-7.));
#369=CARTESIAN_POINT('',(2.,0.,0.));
#370=CARTESIAN_POINT('',(1.47,0.,0.));
#371=CARTESIAN_POINT('',(1.47,0.,-7.));
#372=CARTESIAN_POINT('',(1.47,0.,0.));
#373=CARTESIAN_POINT('',(0.,0.,0.));
#374=CARTESIAN_POINT('',(0.,0.,-5.53));
#375=CARTESIAN_POINT('',(0.,0.,0.));
#376=MECHANICAL_DESIGN_GEOMETRIC_PRESENTATION_REPRESENTATION('',(#208),
#377);
#377=(
GEOMETRIC_REPRESENTATION_CONTEXT(3)
GLOBAL_UNCERTAINTY_ASSIGNED_CONTEXT((#378))
GLOBAL_UNIT_ASSIGNED_CONTEXT((#381,#380,#379))
REPRESENTATION_CONTEXT('SZV4-14','TOP_LEVEL_ASSEMBLY_PART')
);
#378=UNCERTAINTY_MEASURE_WITH_UNIT(LENGTH_MEASURE(0.005),#381,
'DISTANCE_ACCURACY_VALUE','Maximum Tolerance applied to model');
#379=(
NAMED_UNIT(*)
SI_UNIT($,.STERADIAN.)
SOLID_ANGLE_UNIT()
);
#380=(
NAMED_UNIT(*)
PLANE_ANGLE_UNIT()
SI_UNIT($,.RADIAN.)
);
#381=(
LENGTH_UNIT()
NAMED_UNIT(*)
SI_UNIT(.MILLI.,.METRE.)
);
#382=PRODUCT_DEFINITION_SHAPE('','',#383);
#383=PRODUCT_DEFINITION('','',#385,#384);
#384=DESIGN_CONTEXT('',#391,'design');
#385=PRODUCT_DEFINITION_FORMATION_WITH_SPECIFIED_SOURCE('','',#387,
 .NOT_KNOWN.);
#386=PRODUCT_RELATED_PRODUCT_CATEGORY('','',(#387));
#387=PRODUCT('SZV4-14','SZV4-14','SZV4-14',(#389));
#388=PRODUCT_CATEGORY('','');
#389=MECHANICAL_CONTEXT('',#391,'mechanical');
#390=APPLICATION_PROTOCOL_DEFINITION('international standard',
'config_control_design',2010,#391);
#391=APPLICATION_CONTEXT(
'configuration controlled 3D designs of mechanical parts and assemblie
s');
ENDSEC;
END-ISO-10303-21;
