ISO-10303-21;
HEADER;
FILE_DESCRIPTION (( 'STEP AP203' ),
    '1' );
FILE_NAME ('3rd_Floor_Adapter_Mirror.STEP',
    '2025-09-25T17:59:16',
    ( '' ),
    ( '' ),
    'SwSTEP 2.0',
    'SolidWorks 2025',
    '' );
FILE_SCHEMA (( 'CONFIG_CONTROL_DESIGN' ));
ENDSEC;

DATA;
#1 = ORIENTED_EDGE ( 'NONE', *, *, #208, .T. ) ;
#2 = EDGE_CURVE ( 'NONE', #564, #254, #579, .T. ) ;
#3 =( NAMED_UNIT ( * ) PLANE_ANGLE_UNIT ( ) SI_UNIT ( $, .RADIAN. ) );
#4 = FACE_OUTER_BOUND ( 'NONE', #275, .T. ) ;
#5 = ORIENTED_EDGE ( 'NONE', *, *, #340, .T. ) ;
#6 = CIRCLE ( 'NONE', #60, 1.599999999999998090 ) ;
#7 = EDGE_CURVE ( 'NONE', #69, #315, #290, .T. ) ;
#8 = DIRECTION ( 'NONE',  ( -0.000000000000000000, -1.000000000000000000, -0.000000000000000000 ) ) ;
#9 = ORIENTED_EDGE ( 'NONE', *, *, #149, .F. ) ;
#10 = CARTESIAN_POINT ( 'NONE',  ( 25.99999999999999289, 5.000000000000000000, -0.4499999999999990119 ) ) ;
#11 = CC_DESIGN_PERSON_AND_ORGANIZATION_ASSIGNMENT ( #565, #518, ( #635 ) ) ;
#12 = ORIENTED_EDGE ( 'NONE', *, *, #553, .F. ) ;
#13 = COORDINATED_UNIVERSAL_TIME_OFFSET ( 7, 0, .AHEAD. ) ;
#14 = DIRECTION ( 'NONE',  ( 0.000000000000000000, 1.000000000000000000, 0.000000000000000000 ) ) ;
#15 = ORIENTED_EDGE ( 'NONE', *, *, #418, .F. ) ;
#16 = CALENDAR_DATE ( 2025, 26, 9 ) ;
#17 = AXIS2_PLACEMENT_3D ( 'NONE', #34, #494, #399 ) ;
#18 = CARTESIAN_POINT ( 'NONE',  ( 35.99999999999999289, 5.000000000000000000, 0.000000000000000000 ) ) ;
#19 = FACE_OUTER_BOUND ( 'NONE', #510, .T. ) ;
#20 = DATE_TIME_ROLE ( 'classification_date' ) ;
#21 = EDGE_CURVE ( 'NONE', #177, #191, #657, .T. ) ;
#22 = CARTESIAN_POINT ( 'NONE',  ( 45.99999999999999289, 5.000000000000000000, 10.00000000000000000 ) ) ;
#23 = CARTESIAN_POINT ( 'NONE',  ( 0.000000000000000000, 0.000000000000000000, 0.000000000000000000 ) ) ;
#24 = FACE_OUTER_BOUND ( 'NONE', #272, .T. ) ;
#25 = FACE_BOUND ( 'NONE', #159, .T. ) ;
#26 = CIRCLE ( 'NONE', #17, 1.599999999999998090 ) ;
#27 = DIRECTION ( 'NONE',  ( 0.000000000000000000, -1.000000000000000000, 0.000000000000000000 ) ) ;
#28 = EDGE_CURVE ( 'NONE', #605, #360, #266, .T. ) ;
#29 = ORIENTED_EDGE ( 'NONE', *, *, #514, .F. ) ;
#30 = PERSON_AND_ORGANIZATION ( #155, #611 ) ;
#31 = CC_DESIGN_PERSON_AND_ORGANIZATION_ASSIGNMENT ( #163, #273, ( #366 ) ) ;
#32 = FACE_BOUND ( 'NONE', #42, .T. ) ;
#33 = ORIENTED_EDGE ( 'NONE', *, *, #348, .F. ) ;
#34 = CARTESIAN_POINT ( 'NONE',  ( 25.99999999999999289, 0.000000000000000000, -0.4499999999999990119 ) ) ;
#35 = ORIENTED_EDGE ( 'NONE', *, *, #340, .F. ) ;
#36 = EDGE_CURVE ( 'NONE', #177, #371, #331, .T. ) ;
#37 = AXIS2_PLACEMENT_3D ( 'NONE', #267, #115, #610 ) ;
#38 = DIRECTION ( 'NONE',  ( 0.000000000000000000, -1.000000000000000000, -0.000000000000000000 ) ) ;
#39 = EDGE_LOOP ( 'NONE', ( #152, #107, #661, #207, #162 ) ) ;
#40 = EDGE_CURVE ( 'NONE', #218, #516, #283, .T. ) ;
#41 = LINE ( 'NONE', #599, #471 ) ;
#42 = EDGE_LOOP ( 'NONE', ( #412, #503 ) ) ;
#43 = CALENDAR_DATE ( 2025, 26, 9 ) ;
#44 = APPROVAL_PERSON_ORGANIZATION ( #216, #230, #384 ) ;
#45 = DIRECTION ( 'NONE',  ( 0.000000000000000000, 0.000000000000000000, -1.000000000000000000 ) ) ;
#46 = ORIENTED_EDGE ( 'NONE', *, *, #220, .T. ) ;
#47 = DIRECTION ( 'NONE',  ( 0.000000000000000000, -1.000000000000000000, 0.000000000000000000 ) ) ;
#48 = FACE_OUTER_BOUND ( 'NONE', #609, .T. ) ;
#49 = ADVANCED_FACE ( 'NONE', ( #32, #485, #25, #288 ), #285, .T. ) ;
#50 = ORIENTED_EDGE ( 'NONE', *, *, #195, .T. ) ;
#51 = AXIS2_PLACEMENT_3D ( 'NONE', #656, #199, #408 ) ;
#52 = FACE_OUTER_BOUND ( 'NONE', #100, .T. ) ;
#53 = DIRECTION ( 'NONE',  ( 0.000000000000000000, -1.000000000000000000, -0.000000000000000000 ) ) ;
#54 = ORIENTED_EDGE ( 'NONE', *, *, #581, .F. ) ;
#55 = DIRECTION ( 'NONE',  ( -0.000000000000000000, -1.000000000000000000, -0.000000000000000000 ) ) ;
#56 = ORIENTED_EDGE ( 'NONE', *, *, #361, .T. ) ;
#57 = ADVANCED_FACE ( 'NONE', ( #232 ), #643, .F. ) ;
#58 = DIRECTION ( 'NONE',  ( 0.000000000000000000, 1.000000000000000000, 0.000000000000000000 ) ) ;
#59 = VERTEX_POINT ( 'NONE', #135 ) ;
#60 = AXIS2_PLACEMENT_3D ( 'NONE', #303, #502, #253 ) ;
#61 = LINE ( 'NONE', #310, #198 ) ;
#62 = VERTEX_POINT ( 'NONE', #430 ) ;
#63 = APPROVAL_STATUS ( 'not_yet_approved' ) ;
#64 = DIRECTION ( 'NONE',  ( 0.000000000000000000, 0.000000000000000000, 1.000000000000000000 ) ) ;
#65 = ORIENTED_EDGE ( 'NONE', *, *, #585, .F. ) ;
#66 = DATE_AND_TIME ( #16, #350 ) ;
#67 = CARTESIAN_POINT ( 'NONE',  ( -37.25000000000001421, 40.00000000000000000, 0.000000000000000000 ) ) ;
#68 = EDGE_CURVE ( 'NONE', #500, #196, #445, .T. ) ;
#69 = VERTEX_POINT ( 'NONE', #393 ) ;
#70 = CALENDAR_DATE ( 2025, 26, 9 ) ;
#71 = AXIS2_PLACEMENT_3D ( 'NONE', #150, #655, #618 ) ;
#72 = CARTESIAN_POINT ( 'NONE',  ( -36.00000000000000000, 5.000000000000000000, -10.00000000000000000 ) ) ;
#73 = DIRECTION ( 'NONE',  ( -0.000000000000000000, -1.000000000000000000, -0.000000000000000000 ) ) ;
#74 = DIRECTION ( 'NONE',  ( -1.000000000000000000, 0.000000000000000000, 0.000000000000000000 ) ) ;
#75 = DIRECTION ( 'NONE',  ( -0.000000000000000000, 1.000000000000000000, -0.000000000000000000 ) ) ;
#76 = EDGE_CURVE ( 'NONE', #406, #605, #395, .T. ) ;
#77 = FACE_OUTER_BOUND ( 'NONE', #575, .T. ) ;
#78 = EDGE_LOOP ( 'NONE', ( #304, #128, #598, #211 ) ) ;
#79 = ORIENTED_EDGE ( 'NONE', *, *, #149, .T. ) ;
#80 = AXIS2_PLACEMENT_3D ( 'NONE', #493, #338, #228 ) ;
#81 = AXIS2_PLACEMENT_3D ( 'NONE', #472, #660, #260 ) ;
#82 = CARTESIAN_POINT ( 'NONE',  ( -28.50000000000001421, 40.00000000000000000, -10.00000000000000000 ) ) ;
#83 = VERTEX_POINT ( 'NONE', #171 ) ;
#84 = CARTESIAN_POINT ( 'NONE',  ( 45.99999999999999289, 5.000000000000000000, 10.00000000000000000 ) ) ;
#85 = DIRECTION ( 'NONE',  ( 0.000000000000000000, 1.000000000000000000, 0.000000000000000000 ) ) ;
#86 = EDGE_CURVE ( 'NONE', #83, #406, #383, .T. ) ;
#87 = ORIENTED_EDGE ( 'NONE', *, *, #118, .F. ) ;
#88 = AXIS2_PLACEMENT_3D ( 'NONE', #202, #566, #460 ) ;
#89 = CARTESIAN_POINT ( 'NONE',  ( 35.99999999999999289, 0.000000000000000000, 0.000000000000000000 ) ) ;
#90 = EDGE_LOOP ( 'NONE', ( #422, #415, #251 ) ) ;
#91 = APPROVAL_ROLE ( '' ) ;
#92 = APPLICATION_CONTEXT ( 'configuration controlled 3d designs of mechanical parts and assemblies' ) ;
#93 = LINE ( 'NONE', #452, #245 ) ;
#94 = ORIENTED_EDGE ( 'NONE', *, *, #28, .T. ) ;
#95 = CARTESIAN_POINT ( 'NONE',  ( 45.99999999999999289, 0.000000000000000000, 10.00000000000000000 ) ) ;
#96 = ADVANCED_BREP_SHAPE_REPRESENTATION ( '3rd_Floor_Adapter_Mirror', ( #517, #205 ), #133 ) ;
#97 = ADVANCED_FACE ( 'NONE', ( #19 ), #224, .T. ) ;
#98 = LOCAL_TIME ( 0, 59, 16.00000000000000000, #469 ) ;
#99 = DIRECTION ( 'NONE',  ( 0.000000000000000000, 0.000000000000000000, 1.000000000000000000 ) ) ;
#100 = EDGE_LOOP ( 'NONE', ( #498, #200, #174, #586 ) ) ;
#101 = DIRECTION ( 'NONE',  ( -1.000000000000000000, 0.000000000000000000, 0.000000000000000000 ) ) ;
#102 = VECTOR ( 'NONE', #85, 1000.000000000000000 ) ;
#103 = EDGE_LOOP ( 'NONE', ( #349, #116, #468, #35 ) ) ;
#104 = AXIS2_PLACEMENT_3D ( 'NONE', #512, #55, #374 ) ;
#105 = DATE_AND_TIME ( #43, #339 ) ;
#106 = CARTESIAN_POINT ( 'NONE',  ( 45.99999999999999289, 0.000000000000000000, 10.00000000000000000 ) ) ;
#107 = ORIENTED_EDGE ( 'NONE', *, *, #220, .F. ) ;
#108 = DIRECTION ( 'NONE',  ( 0.000000000000000000, -1.000000000000000000, 0.000000000000000000 ) ) ;
#109 = ORIENTED_EDGE ( 'NONE', *, *, #563, .T. ) ;
#110 = EDGE_CURVE ( 'NONE', #62, #69, #647, .T. ) ;
#111 = PERSON_AND_ORGANIZATION ( #155, #611 ) ;
#112 = CYLINDRICAL_SURFACE ( 'NONE', #81, 1.600000000000001865 ) ;
#113 = VERTEX_POINT ( 'NONE', #138 ) ;
#114 = AXIS2_PLACEMENT_3D ( 'NONE', #642, #170, #578 ) ;
#115 = DIRECTION ( 'NONE',  ( -0.000000000000000000, 1.000000000000000000, -0.000000000000000000 ) ) ;
#116 = ORIENTED_EDGE ( 'NONE', *, *, #396, .F. ) ;
#117 = APPLICATION_CONTEXT ( 'configuration controlled 3d designs of mechanical parts and assemblies' ) ;
#118 = EDGE_CURVE ( 'NONE', #446, #83, #345, .T. ) ;
#119 = CYLINDRICAL_SURFACE ( 'NONE', #278, 2.799999999999998046 ) ;
#120 = CARTESIAN_POINT ( 'NONE',  ( -46.00000000000000711, 0.000000000000000000, 10.00000000000000000 ) ) ;
#121 = APPROVAL_ROLE ( '' ) ;
#122 = DIRECTION ( 'NONE',  ( 0.000000000000000000, 0.000000000000000000, 1.000000000000000000 ) ) ;
#123 = EDGE_CURVE ( 'NONE', #113, #59, #480, .T. ) ;
#124 = CARTESIAN_POINT ( 'NONE',  ( -28.50000000000001421, 5.000000000000000000, -10.00000000000000000 ) ) ;
#125 = ORIENTED_EDGE ( 'NONE', *, *, #169, .F. ) ;
#126 = VECTOR ( 'NONE', #443, 1000.000000000000000 ) ;
#127 = CARTESIAN_POINT ( 'NONE',  ( 35.99999999999999289, 5.000000000000000000, -10.00000000000000000 ) ) ;
#128 = ORIENTED_EDGE ( 'NONE', *, *, #600, .T. ) ;
#129 = EDGE_CURVE ( 'NONE', #621, #516, #365, .T. ) ;
#130 = CYLINDRICAL_SURFACE ( 'NONE', #114, 1.599999999999998090 ) ;
#131 = DIRECTION ( 'NONE',  ( -1.734723475976807094E-16, 0.000000000000000000, 1.000000000000000000 ) ) ;
#132 = EDGE_CURVE ( 'NONE', #546, #479, #41, .T. ) ;
#133 =( GEOMETRIC_REPRESENTATION_CONTEXT ( 3 ) GLOBAL_UNCERTAINTY_ASSIGNED_CONTEXT ( ( #238 ) ) GLOBAL_UNIT_ASSIGNED_CONTEXT ( ( #263, #3, #410 ) ) REPRESENTATION_CONTEXT ( 'NONE', 'WORKASPACE' ) );
#134 = CARTESIAN_POINT ( 'NONE',  ( -28.50000000000001421, 40.00000000000000000, -10.00000000000000000 ) ) ;
#135 = CARTESIAN_POINT ( 'NONE',  ( -24.00000000000001421, 5.000000000000000000, 1.150000000000002798 ) ) ;
#136 = AXIS2_PLACEMENT_3D ( 'NONE', #183, #634, #541 ) ;
#137 = AXIS2_PLACEMENT_3D ( 'NONE', #18, #27, #182 ) ;
#138 = CARTESIAN_POINT ( 'NONE',  ( -24.00000000000001421, 5.000000000000000000, -2.050000000000001155 ) ) ;
#139 = EDGE_LOOP ( 'NONE', ( #144, #325, #425, #451, #588, #65 ) ) ;
#140 = EDGE_CURVE ( 'NONE', #546, #446, #594, .T. ) ;
#141 = CARTESIAN_POINT ( 'NONE',  ( -24.00000000000001421, 5.000000000000000000, -0.4499999999999990119 ) ) ;
#142 = VERTEX_POINT ( 'NONE', #296 ) ;
#143 = DIRECTION ( 'NONE',  ( 0.000000000000000000, -1.000000000000000000, 0.000000000000000000 ) ) ;
#144 = ORIENTED_EDGE ( 'NONE', *, *, #40, .T. ) ;
#145 = CARTESIAN_POINT ( 'NONE',  ( -46.00000000000000711, 5.000000000000000000, 10.00000000000000000 ) ) ;
#146 = CIRCLE ( 'NONE', #188, 1.599999999999998090 ) ;
#147 = PLANE ( 'NONE',  #298 ) ;
#148 = ORIENTED_EDGE ( 'NONE', *, *, #418, .T. ) ;
#149 = EDGE_CURVE ( 'NONE', #409, #83, #356, .T. ) ;
#150 = CARTESIAN_POINT ( 'NONE',  ( -37.25000000000001421, 0.000000000000000000, 0.000000000000000000 ) ) ;
#151 = CARTESIAN_POINT ( 'NONE',  ( 45.99999999999999289, 5.000000000000000000, 10.00000000000000000 ) ) ;
#152 = ORIENTED_EDGE ( 'NONE', *, *, #466, .F. ) ;
#153 = FACE_BOUND ( 'NONE', #649, .T. ) ;
#154 = ORIENTED_EDGE ( 'NONE', *, *, #123, .T. ) ;
#155 = PERSON ( 'UNSPECIFIED', 'UNSPECIFIED', 'UNSPECIFIED', ('UNSPECIFIED'), ('UNSPECIFIED'), ('UNSPECIFIED') ) ;
#156 = CARTESIAN_POINT ( 'NONE',  ( 45.99999999999999289, 5.000000000000000000, 0.000000000000000000 ) ) ;
#157 = CARTESIAN_POINT ( 'NONE',  ( -46.00000000000000711, 40.00000000000000000, 10.00000000000000000 ) ) ;
#158 = AXIS2_PLACEMENT_3D ( 'NONE', #22, #481, #428 ) ;
#159 = EDGE_LOOP ( 'NONE', ( #507, #261 ) ) ;
#160 = CIRCLE ( 'NONE', #71, 2.799999999999998046 ) ;
#161 = DIRECTION ( 'NONE',  ( 0.000000000000000000, -1.000000000000000000, -0.000000000000000000 ) ) ;
#162 = ORIENTED_EDGE ( 'NONE', *, *, #68, .F. ) ;
#163 = PERSON_AND_ORGANIZATION ( #155, #611 ) ;
#164 = DIRECTION ( 'NONE',  ( 0.000000000000000000, -1.000000000000000000, -0.000000000000000000 ) ) ;
#165 = ORIENTED_EDGE ( 'NONE', *, *, #140, .F. ) ;
#166 = LINE ( 'NONE', #378, #417 ) ;
#167 = ORIENTED_EDGE ( 'NONE', *, *, #68, .T. ) ;
#168 = APPROVAL_STATUS ( 'not_yet_approved' ) ;
#169 = EDGE_CURVE ( 'NONE', #62, #297, #26, .T. ) ;
#170 = DIRECTION ( 'NONE',  ( 0.000000000000000000, 1.000000000000000000, 0.000000000000000000 ) ) ;
#171 = CARTESIAN_POINT ( 'NONE',  ( -46.00000000000000711, 0.000000000000000000, 10.00000000000000000 ) ) ;
#172 = CARTESIAN_POINT ( 'NONE',  ( 35.99999999999999289, 0.000000000000000000, -10.00000000000000000 ) ) ;
#173 = DIRECTION ( 'NONE',  ( 0.000000000000000000, -1.000000000000000000, 0.000000000000000000 ) ) ;
#174 = ORIENTED_EDGE ( 'NONE', *, *, #7, .F. ) ;
#175 = PLANE ( 'NONE',  #482 ) ;
#176 = ORIENTED_EDGE ( 'NONE', *, *, #240, .F. ) ;
#177 = VERTEX_POINT ( 'NONE', #239 ) ;
#178 = AXIS2_PLACEMENT_3D ( 'NONE', #536, #75, #439 ) ;
#179 = AXIS2_PLACEMENT_3D ( 'NONE', #414, #108, #509 ) ;
#180 = DIRECTION ( 'NONE',  ( 0.000000000000000000, 0.000000000000000000, 1.000000000000000000 ) ) ;
#181 = DIRECTION ( 'NONE',  ( 0.000000000000000000, 0.000000000000000000, 1.000000000000000000 ) ) ;
#182 = DIRECTION ( 'NONE',  ( 0.000000000000000000, 0.000000000000000000, -1.000000000000000000 ) ) ;
#183 = CARTESIAN_POINT ( 'NONE',  ( -24.00000000000001421, 0.000000000000000000, -0.4499999999999990119 ) ) ;
#184 = DIRECTION ( 'NONE',  ( 0.000000000000000000, 1.000000000000000000, 0.000000000000000000 ) ) ;
#185 = PRODUCT_DEFINITION_SHAPE ( 'NONE', 'NONE',  #366 ) ;
#186 = VECTOR ( 'NONE', #491, 1000.000000000000000 ) ;
#187 = ADVANCED_FACE ( 'NONE', ( #242 ), #545, .T. ) ;
#188 = AXIS2_PLACEMENT_3D ( 'NONE', #10, #8, #562 ) ;
#189 = CIRCLE ( 'NONE', #51, 2.799999999999998046 ) ;
#190 = DIRECTION ( 'NONE',  ( -1.000000000000000000, 0.000000000000000000, 0.000000000000000000 ) ) ;
#191 = VERTEX_POINT ( 'NONE', #444 ) ;
#192 = LINE ( 'NONE', #402, #531 ) ;
#193 = ORIENTED_EDGE ( 'NONE', *, *, #550, .F. ) ;
#194 = LINE ( 'NONE', #359, #573 ) ;
#195 = EDGE_CURVE ( 'NONE', #196, #479, #192, .T. ) ;
#196 = VERTEX_POINT ( 'NONE', #547 ) ;
#197 = DIRECTION ( 'NONE',  ( 1.000000000000000000, 0.000000000000000000, -0.000000000000000000 ) ) ;
#198 = VECTOR ( 'NONE', #314, 1000.000000000000000 ) ;
#199 = DIRECTION ( 'NONE',  ( -0.000000000000000000, -1.000000000000000000, -0.000000000000000000 ) ) ;
#200 = ORIENTED_EDGE ( 'NONE', *, *, #270, .T. ) ;
#201 = DIRECTION ( 'NONE',  ( 1.734723475976807094E-16, 0.000000000000000000, -1.000000000000000000 ) ) ;
#202 = CARTESIAN_POINT ( 'NONE',  ( -24.00000000000001421, 0.000000000000000000, -0.4499999999999990119 ) ) ;
#203 = ORIENTED_EDGE ( 'NONE', *, *, #432, .T. ) ;
#204 = LINE ( 'NONE', #95, #333 ) ;
#205 = AXIS2_PLACEMENT_3D ( 'NONE', #492, #511, #613 ) ;
#206 = CARTESIAN_POINT ( 'NONE',  ( -37.25000000000001421, -5.000000000000004441, -2.799999999999998046 ) ) ;
#207 = ORIENTED_EDGE ( 'NONE', *, *, #370, .F. ) ;
#208 = EDGE_CURVE ( 'NONE', #142, #59, #93, .T. ) ;
#209 = CARTESIAN_POINT ( 'NONE',  ( -46.00000000000000711, 5.000000000000000000, -10.00000000000000000 ) ) ;
#210 = AXIS2_PLACEMENT_3D ( 'NONE', #392, #282, #227 ) ;
#211 = ORIENTED_EDGE ( 'NONE', *, *, #571, .T. ) ;
#212 = DIRECTION ( 'NONE',  ( -0.000000000000000000, 0.000000000000000000, -1.000000000000000000 ) ) ;
#213 = ORIENTED_EDGE ( 'NONE', *, *, #36, .T. ) ;
#214 = LINE ( 'NONE', #424, #234 ) ;
#215 = ORIENTED_EDGE ( 'NONE', *, *, #553, .T. ) ;
#216 = PERSON_AND_ORGANIZATION ( #155, #611 ) ;
#217 = CARTESIAN_POINT ( 'NONE',  ( -28.50000000000001421, 5.000000000000000000, -10.00000000000000000 ) ) ;
#218 = VERTEX_POINT ( 'NONE', #653 ) ;
#219 = AXIS2_PLACEMENT_3D ( 'NONE', #638, #73, #336 ) ;
#220 = EDGE_CURVE ( 'NONE', #243, #552, #194, .T. ) ;
#221 = CIRCLE ( 'NONE', #595, 10.00000000000000000 ) ;
#222 = PERSON_AND_ORGANIZATION ( #155, #611 ) ;
#223 = DIRECTION ( 'NONE',  ( -0.000000000000000000, -1.000000000000000000, -0.000000000000000000 ) ) ;
#224 = CYLINDRICAL_SURFACE ( 'NONE', #519, 10.00000000000000000 ) ;
#225 = DATE_AND_TIME ( #576, #327 ) ;
#226 = ADVANCED_FACE ( 'NONE', ( #603 ), #147, .F. ) ;
#227 = DIRECTION ( 'NONE',  ( 0.000000000000000000, 0.000000000000000000, 1.000000000000000000 ) ) ;
#228 = DIRECTION ( 'NONE',  ( 0.000000000000000000, 0.000000000000000000, -1.000000000000000000 ) ) ;
#229 = CC_DESIGN_APPROVAL ( #230, ( #635 ) ) ;
#230 = APPROVAL ( #63, 'UNSPECIFIED' ) ;
#231 = LINE ( 'NONE', #217, #379 ) ;
#232 = FACE_OUTER_BOUND ( 'NONE', #601, .T. ) ;
#233 = CLOSED_SHELL ( 'NONE', ( #478, #614, #401, #330, #623, #577, #487, #226, #49, #320, #187, #57, #495, #523, #644, #301, #529, #97 ) ) ;
#234 = VECTOR ( 'NONE', #264, 1000.000000000000000 ) ;
#235 = CARTESIAN_POINT ( 'NONE',  ( -38.50000000000001421, 5.000000000000000000, 10.00000000000000000 ) ) ;
#236 = DIRECTION ( 'NONE',  ( 0.000000000000000000, -1.000000000000000000, -0.000000000000000000 ) ) ;
#237 = PLANE ( 'NONE',  #561 ) ;
#238 = UNCERTAINTY_MEASURE_WITH_UNIT (LENGTH_MEASURE( 1.000000000000000082E-05 ), #263, 'distance_accuracy_value', 'NONE');
#239 = CARTESIAN_POINT ( 'NONE',  ( -37.25000000000001421, 0.000000000000000000, 2.799999999999998046 ) ) ;
#240 = EDGE_CURVE ( 'NONE', #297, #62, #6, .T. ) ;
#241 = CC_DESIGN_APPROVAL ( #470, ( #366 ) ) ;
#242 = FACE_OUTER_BOUND ( 'NONE', #78, .T. ) ;
#243 = VERTEX_POINT ( 'NONE', #455 ) ;
#244 = CC_DESIGN_PERSON_AND_ORGANIZATION_ASSIGNMENT ( #222, #570, ( #635 ) ) ;
#245 = VECTOR ( 'NONE', #184, 1000.000000000000000 ) ;
#246 = AXIS2_PLACEMENT_3D ( 'NONE', #259, #659, #252 ) ;
#247 = DIRECTION ( 'NONE',  ( 0.000000000000000000, -1.000000000000000000, 0.000000000000000000 ) ) ;
#248 = ORIENTED_EDGE ( 'NONE', *, *, #132, .T. ) ;
#249 = EDGE_CURVE ( 'NONE', #371, #558, #189, .T. ) ;
#250 = CARTESIAN_POINT ( 'NONE',  ( -46.00000000000000711, 5.000000000000000000, 10.00000000000000000 ) ) ;
#251 = ORIENTED_EDGE ( 'NONE', *, *, #28, .F. ) ;
#252 = DIRECTION ( 'NONE',  ( 0.000000000000000000, 0.000000000000000000, 1.000000000000000000 ) ) ;
#253 = DIRECTION ( 'NONE',  ( 0.000000000000000000, 0.000000000000000000, 1.000000000000000000 ) ) ;
#254 = VERTEX_POINT ( 'NONE', #555 ) ;
#255 = CARTESIAN_POINT ( 'NONE',  ( 45.99999999999999289, 5.000000000000000000, -10.00000000000000000 ) ) ;
#256 = AXIS2_PLACEMENT_3D ( 'NONE', #535, #287, #74 ) ;
#257 = PLANE ( 'NONE',  #332 ) ;
#258 = ORIENTED_EDGE ( 'NONE', *, *, #396, .T. ) ;
#259 = CARTESIAN_POINT ( 'NONE',  ( 25.99999999999999289, 0.000000000000000000, -0.4499999999999990119 ) ) ;
#260 = DIRECTION ( 'NONE',  ( 0.000000000000000000, 0.000000000000000000, 1.000000000000000000 ) ) ;
#261 = ORIENTED_EDGE ( 'NONE', *, *, #563, .F. ) ;
#262 = EDGE_CURVE ( 'NONE', #612, #546, #608, .T. ) ;
#263 =( LENGTH_UNIT ( ) NAMED_UNIT ( * ) SI_UNIT ( .MILLI., .METRE. ) );
#264 = DIRECTION ( 'NONE',  ( 0.000000000000000000, -0.000000000000000000, -1.000000000000000000 ) ) ;
#265 = EDGE_LOOP ( 'NONE', ( #125, #176 ) ) ;
#266 = CIRCLE ( 'NONE', #80, 10.00000000000000000 ) ;
#267 = CARTESIAN_POINT ( 'NONE',  ( -38.50000000000001421, 5.000000000000000000, 0.000000000000000000 ) ) ;
#268 = AXIS2_PLACEMENT_3D ( 'NONE', #633, #382, #64 ) ;
#269 = ORIENTED_EDGE ( 'NONE', *, *, #650, .T. ) ;
#270 = EDGE_CURVE ( 'NONE', #297, #315, #306, .T. ) ;
#271 = CARTESIAN_POINT ( 'NONE',  ( -28.50000000000001421, 40.00000000000000000, -10.00000000000000000 ) ) ;
#272 = EDGE_LOOP ( 'NONE', ( #496, #652, #403, #624 ) ) ;
#273 = PERSON_AND_ORGANIZATION_ROLE ( 'creator' ) ;
#274 = CARTESIAN_POINT ( 'NONE',  ( -24.00000000000001421, 0.000000000000000000, -2.050000000000000711 ) ) ;
#275 = EDGE_LOOP ( 'NONE', ( #94, #215, #437, #300 ) ) ;
#276 = FACE_OUTER_BOUND ( 'NONE', #626, .T. ) ;
#277 = ORIENTED_EDGE ( 'NONE', *, *, #195, .F. ) ;
#278 = AXIS2_PLACEMENT_3D ( 'NONE', #440, #532, #180 ) ;
#279 = VECTOR ( 'NONE', #554, 1000.000000000000000 ) ;
#280 = ORIENTED_EDGE ( 'NONE', *, *, #76, .F. ) ;
#281 = SHAPE_DEFINITION_REPRESENTATION ( #185, #96 ) ;
#282 = DIRECTION ( 'NONE',  ( -0.000000000000000000, -1.000000000000000000, -0.000000000000000000 ) ) ;
#283 = LINE ( 'NONE', #534, #186 ) ;
#284 = CARTESIAN_POINT ( 'NONE',  ( -36.00000000000000000, 0.000000000000000000, 0.000000000000000000 ) ) ;
#285 = PLANE ( 'NONE',  #343 ) ;
#286 = CC_DESIGN_APPROVAL ( #352, ( #590 ) ) ;
#287 = DIRECTION ( 'NONE',  ( 0.000000000000000000, 0.000000000000000000, 1.000000000000000000 ) ) ;
#288 = FACE_OUTER_BOUND ( 'NONE', #139, .T. ) ;
#289 = EDGE_LOOP ( 'NONE', ( #464, #148, #513, #380 ) ) ;
#290 = CIRCLE ( 'NONE', #219, 1.599999999999998090 ) ;
#291 = VECTOR ( 'NONE', #14, 1000.000000000000000 ) ;
#292 = APPROVAL_STATUS ( 'not_yet_approved' ) ;
#293 = CARTESIAN_POINT ( 'NONE',  ( -37.25000000000001421, -5.000000000000004441, 2.799999999999998046 ) ) ;
#294 = DIRECTION ( 'NONE',  ( 0.000000000000000000, -1.000000000000000000, -0.000000000000000000 ) ) ;
#295 = ORIENTED_EDGE ( 'NONE', *, *, #21, .F. ) ;
#296 = CARTESIAN_POINT ( 'NONE',  ( -24.00000000000001421, 0.000000000000000000, 1.150000000000002798 ) ) ;
#297 = VERTEX_POINT ( 'NONE', #645 ) ;
#298 = AXIS2_PLACEMENT_3D ( 'NONE', #397, #45, #551 ) ;
#299 = CARTESIAN_POINT ( 'NONE',  ( 25.99999999999999289, 0.000000000000000000, 1.149999999999999023 ) ) ;
#300 = ORIENTED_EDGE ( 'NONE', *, *, #76, .T. ) ;
#301 = ADVANCED_FACE ( 'NONE', ( #153, #411 ), #467, .T. ) ;
#302 = DIRECTION ( 'NONE',  ( -1.000000000000000000, 0.000000000000000000, -1.734723475976807094E-16 ) ) ;
#303 = CARTESIAN_POINT ( 'NONE',  ( 25.99999999999999289, 0.000000000000000000, -0.4499999999999990119 ) ) ;
#304 = ORIENTED_EDGE ( 'NONE', *, *, #581, .T. ) ;
#305 = CYLINDRICAL_SURFACE ( 'NONE', #246, 1.599999999999998090 ) ;
#306 = LINE ( 'NONE', #506, #126 ) ;
#307 = ORIENTED_EDGE ( 'NONE', *, *, #592, .F. ) ;
#308 = PERSON_AND_ORGANIZATION ( #155, #611 ) ;
#309 = VECTOR ( 'NONE', #53, 1000.000000000000000 ) ;
#310 = CARTESIAN_POINT ( 'NONE',  ( -28.50000000000001776, 40.00000000000000000, 1.734723475976807094E-15 ) ) ;
#311 = EDGE_CURVE ( 'NONE', #605, #391, #421, .T. ) ;
#312 = ORIENTED_EDGE ( 'NONE', *, *, #2, .T. ) ;
#313 = APPROVAL_DATE_TIME ( #105, #470 ) ;
#314 = DIRECTION ( 'NONE',  ( -0.000000000000000000, 1.000000000000000000, -0.000000000000000000 ) ) ;
#315 = VERTEX_POINT ( 'NONE', #520 ) ;
#316 = PERSON_AND_ORGANIZATION_ROLE ( 'classification_officer' ) ;
#317 = CC_DESIGN_SECURITY_CLASSIFICATION ( #590, ( #635 ) ) ;
#318 = LINE ( 'NONE', #622, #309 ) ;
#319 = EDGE_LOOP ( 'NONE', ( #654, #203 ) ) ;
#320 = ADVANCED_FACE ( 'NONE', ( #4 ), #620, .T. ) ;
#321 = DIRECTION ( 'NONE',  ( 0.000000000000000000, -0.000000000000000000, -1.000000000000000000 ) ) ;
#322 = CIRCLE ( 'NONE', #37, 10.00000000000000000 ) ;
#323 = ORIENTED_EDGE ( 'NONE', *, *, #385, .T. ) ;
#324 = FACE_OUTER_BOUND ( 'NONE', #569, .T. ) ;
#325 = ORIENTED_EDGE ( 'NONE', *, *, #129, .F. ) ;
#326 = CARTESIAN_POINT ( 'NONE',  ( -28.50000000000001776, 5.000000000000000000, -10.00000000000000000 ) ) ;
#327 = LOCAL_TIME ( 0, 59, 16.00000000000000000, #381 ) ;
#328 = DIRECTION ( 'NONE',  ( 0.000000000000000000, 0.000000000000000000, -1.000000000000000000 ) ) ;
#329 = FACE_OUTER_BOUND ( 'NONE', #90, .T. ) ;
#330 = ADVANCED_FACE ( 'NONE', ( #625, #463, #48 ), #257, .F. ) ;
#331 = LINE ( 'NONE', #293, #458 ) ;
#332 = AXIS2_PLACEMENT_3D ( 'NONE', #515, #161, #212 ) ;
#333 = VECTOR ( 'NONE', #504, 1000.000000000000000 ) ;
#334 = EDGE_LOOP ( 'NONE', ( #544, #154 ) ) ;
#335 = PLANE ( 'NONE',  #256 ) ;
#336 = DIRECTION ( 'NONE',  ( 0.000000000000000000, 0.000000000000000000, 1.000000000000000000 ) ) ;
#337 = LINE ( 'NONE', #274, #291 ) ;
#338 = DIRECTION ( 'NONE',  ( 0.000000000000000000, -1.000000000000000000, 0.000000000000000000 ) ) ;
#339 = LOCAL_TIME ( 0, 59, 16.00000000000000000, #501 ) ;
#340 = EDGE_CURVE ( 'NONE', #254, #500, #61, .T. ) ;
#341 = CARTESIAN_POINT ( 'NONE',  ( 45.99999999999999289, 0.000000000000000000, 0.000000000000000000 ) ) ;
#342 = DIRECTION ( 'NONE',  ( -0.000000000000000000, 1.000000000000000000, -0.000000000000000000 ) ) ;
#343 = AXIS2_PLACEMENT_3D ( 'NONE', #23, #236, #489 ) ;
#344 = CIRCLE ( 'NONE', #88, 1.600000000000001865 ) ;
#345 = LINE ( 'NONE', #597, #508 ) ;
#346 = VERTEX_POINT ( 'NONE', #369 ) ;
#347 = DIRECTION ( 'NONE',  ( -0.000000000000000000, -1.000000000000000000, -0.000000000000000000 ) ) ;
#348 = EDGE_CURVE ( 'NONE', #243, #391, #318, .T. ) ;
#349 = ORIENTED_EDGE ( 'NONE', *, *, #2, .F. ) ;
#350 = LOCAL_TIME ( 0, 59, 16.00000000000000000, #13 ) ;
#351 = DIRECTION ( 'NONE',  ( 0.000000000000000000, 0.000000000000000000, -1.000000000000000000 ) ) ;
#352 = APPROVAL ( #168, 'UNSPECIFIED' ) ;
#353 = ORIENTED_EDGE ( 'NONE', *, *, #249, .T. ) ;
#354 = DIRECTION ( 'NONE',  ( 0.000000000000000000, 0.000000000000000000, 1.000000000000000000 ) ) ;
#355 = AXIS2_PLACEMENT_3D ( 'NONE', #497, #247, #651 ) ;
#356 = LINE ( 'NONE', #250, #639 ) ;
#357 = ORIENTED_EDGE ( 'NONE', *, *, #208, .F. ) ;
#358 = FACE_OUTER_BOUND ( 'NONE', #103, .T. ) ;
#359 = CARTESIAN_POINT ( 'NONE',  ( -28.50000000000001421, 40.00000000000000000, -10.00000000000000000 ) ) ;
#360 = VERTEX_POINT ( 'NONE', #615 ) ;
#361 = EDGE_CURVE ( 'NONE', #479, #254, #322, .T. ) ;
#362 = CARTESIAN_POINT ( 'NONE',  ( -37.25000000000001421, 40.00000000000000000, 2.799999999999998046 ) ) ;
#363 = ORIENTED_EDGE ( 'NONE', *, *, #86, .F. ) ;
#364 = VECTOR ( 'NONE', #328, 1000.000000000000000 ) ;
#365 = CIRCLE ( 'NONE', #459, 10.00000000000000000 ) ;
#366 = PRODUCT_DEFINITION ( 'UNKNOWN', '', #635, #525 ) ;
#367 = DIRECTION ( 'NONE',  ( 0.000000000000000000, 1.000000000000000000, 0.000000000000000000 ) ) ;
#368 = ORIENTED_EDGE ( 'NONE', *, *, #240, .T. ) ;
#369 = CARTESIAN_POINT ( 'NONE',  ( -24.00000000000001421, 0.000000000000000000, -2.050000000000001155 ) ) ;
#370 = EDGE_CURVE ( 'NONE', #196, #409, #166, .T. ) ;
#371 = VERTEX_POINT ( 'NONE', #362 ) ;
#372 = DATE_AND_TIME ( #70, #98 ) ;
#373 = LOCAL_TIME ( 0, 59, 16.00000000000000000, #431 ) ;
#374 = DIRECTION ( 'NONE',  ( 0.000000000000000000, 0.000000000000000000, 1.000000000000000000 ) ) ;
#375 = ORIENTED_EDGE ( 'NONE', *, *, #361, .F. ) ;
#376 = CC_DESIGN_PERSON_AND_ORGANIZATION_ASSIGNMENT ( #377, #316, ( #590 ) ) ;
#377 = PERSON_AND_ORGANIZATION ( #155, #611 ) ;
#378 = CARTESIAN_POINT ( 'NONE',  ( -28.50000000000001776, 40.00000000000000000, 10.00000000000000000 ) ) ;
#379 = VECTOR ( 'NONE', #484, 1000.000000000000000 ) ;
#380 = ORIENTED_EDGE ( 'NONE', *, *, #36, .F. ) ;
#381 = COORDINATED_UNIVERSAL_TIME_OFFSET ( 7, 0, .AHEAD. ) ;
#382 = DIRECTION ( 'NONE',  ( 0.000000000000000000, 1.000000000000000000, 0.000000000000000000 ) ) ;
#383 = LINE ( 'NONE', #120, #364 ) ;
#384 = APPROVAL_ROLE ( '' ) ;
#385 = EDGE_CURVE ( 'NONE', #142, #346, #344, .T. ) ;
#386 = CARTESIAN_POINT ( 'NONE',  ( 0.000000000000000000, 5.000000000000000000, 0.000000000000000000 ) ) ;
#387 = ORIENTED_EDGE ( 'NONE', *, *, #514, .T. ) ;
#388 = CARTESIAN_POINT ( 'NONE',  ( -37.25000000000001421, 40.00000000000000000, -2.799999999999998046 ) ) ;
#389 = ORIENTED_EDGE ( 'NONE', *, *, #110, .T. ) ;
#390 = AXIS2_PLACEMENT_3D ( 'NONE', #419, #58, #568 ) ;
#391 = VERTEX_POINT ( 'NONE', #209 ) ;
#392 = CARTESIAN_POINT ( 'NONE',  ( -24.00000000000001421, 0.000000000000000000, -0.4499999999999990119 ) ) ;
#393 = CARTESIAN_POINT ( 'NONE',  ( 25.99999999999999289, 5.000000000000000000, 1.149999999999999023 ) ) ;
#394 = DIRECTION ( 'NONE',  ( -1.734723475976807094E-16, 0.000000000000000000, 1.000000000000000000 ) ) ;
#395 = LINE ( 'NONE', #591, #593 ) ;
#396 = EDGE_CURVE ( 'NONE', #552, #564, #557, .T. ) ;
#397 = CARTESIAN_POINT ( 'NONE',  ( 45.99999999999999289, 5.000000000000000000, 10.00000000000000000 ) ) ;
#398 = CIRCLE ( 'NONE', #104, 1.600000000000001865 ) ;
#399 = DIRECTION ( 'NONE',  ( 0.000000000000000000, 0.000000000000000000, 1.000000000000000000 ) ) ;
#400 = EDGE_LOOP ( 'NONE', ( #15, #295, #213, #307 ) ) ;
#401 = ADVANCED_FACE ( 'NONE', ( #324 ), #112, .F. ) ;
#402 = CARTESIAN_POINT ( 'NONE',  ( -38.50000000000001421, 5.000000000000000000, 10.00000000000000000 ) ) ;
#403 = ORIENTED_EDGE ( 'NONE', *, *, #636, .F. ) ;
#404 = CARTESIAN_POINT ( 'NONE',  ( 45.99999999999999289, 5.000000000000000000, 0.000000000000000000 ) ) ;
#405 = DIRECTION ( 'NONE',  ( 1.000000000000000000, -0.000000000000000000, -0.000000000000000000 ) ) ;
#406 = VERTEX_POINT ( 'NONE', #663 ) ;
#407 = VECTOR ( 'NONE', #99, 1000.000000000000000 ) ;
#408 = DIRECTION ( 'NONE',  ( 0.000000000000000000, 0.000000000000000000, 1.000000000000000000 ) ) ;
#409 = VERTEX_POINT ( 'NONE', #157 ) ;
#410 =( NAMED_UNIT ( * ) SI_UNIT ( $, .STERADIAN. ) SOLID_ANGLE_UNIT ( ) );
#411 = FACE_OUTER_BOUND ( 'NONE', #39, .T. ) ;
#412 = ORIENTED_EDGE ( 'NONE', *, *, #21, .T. ) ;
#413 = CARTESIAN_POINT ( 'NONE',  ( -46.00000000000000711, 5.000000000000000000, 0.000000000000000000 ) ) ;
#414 = CARTESIAN_POINT ( 'NONE',  ( -36.00000000000000000, 5.000000000000000000, 0.000000000000000000 ) ) ;
#415 = ORIENTED_EDGE ( 'NONE', *, *, #550, .T. ) ;
#416 = APPLICATION_PROTOCOL_DEFINITION ( 'international standard', 'config_control_design', 1994, #117 ) ;
#417 = VECTOR ( 'NONE', #101, 1000.000000000000000 ) ;
#418 = EDGE_CURVE ( 'NONE', #191, #558, #475, .T. ) ;
#419 = CARTESIAN_POINT ( 'NONE',  ( 0.000000000000000000, 40.00000000000000000, 0.000000000000000000 ) ) ;
#420 = ORIENTED_EDGE ( 'NONE', *, *, #311, .F. ) ;
#421 = LINE ( 'NONE', #574, #617 ) ;
#422 = ORIENTED_EDGE ( 'NONE', *, *, #311, .T. ) ;
#423 = APPROVAL_PERSON_ORGANIZATION ( #30, #470, #91 ) ;
#424 = CARTESIAN_POINT ( 'NONE',  ( -46.00000000000000711, 40.00000000000000000, -10.00000000000000000 ) ) ;
#425 = ORIENTED_EDGE ( 'NONE', *, *, #636, .T. ) ;
#426 = APPROVAL_DATE_TIME ( #66, #230 ) ;
#427 = AXIS2_PLACEMENT_3D ( 'NONE', #483, #641, #181 ) ;
#428 = DIRECTION ( 'NONE',  ( 0.000000000000000000, 0.000000000000000000, -1.000000000000000000 ) ) ;
#429 = CIRCLE ( 'NONE', #210, 1.600000000000001865 ) ;
#430 = CARTESIAN_POINT ( 'NONE',  ( 25.99999999999999289, 0.000000000000000000, 1.149999999999999023 ) ) ;
#431 = COORDINATED_UNIVERSAL_TIME_OFFSET ( 7, 0, .AHEAD. ) ;
#432 = EDGE_CURVE ( 'NONE', #315, #69, #146, .T. ) ;
#433 = CARTESIAN_POINT ( 'NONE',  ( -28.50000000000001776, 40.00000000000000000, 1.734723475976807094E-15 ) ) ;
#434 = CARTESIAN_POINT ( 'NONE',  ( -38.50000000000001421, 5.000000000000000000, 0.000000000000000000 ) ) ;
#435 = APPROVAL_DATE_TIME ( #225, #352 ) ;
#436 = LINE ( 'NONE', #72, #646 ) ;
#437 = ORIENTED_EDGE ( 'NONE', *, *, #585, .T. ) ;
#438 = CARTESIAN_POINT ( 'NONE',  ( -28.50000000000001421, 40.00000000000000000, -10.00000000000000000 ) ) ;
#439 = DIRECTION ( 'NONE',  ( 0.000000000000000000, 0.000000000000000000, -1.000000000000000000 ) ) ;
#440 = CARTESIAN_POINT ( 'NONE',  ( -37.25000000000001421, -5.000000000000004441, 0.000000000000000000 ) ) ;
#441 = CC_DESIGN_DATE_AND_TIME_ASSIGNMENT ( #522, #20, ( #590 ) ) ;
#442 = ORIENTED_EDGE ( 'NONE', *, *, #348, .T. ) ;
#443 = DIRECTION ( 'NONE',  ( 0.000000000000000000, 1.000000000000000000, 0.000000000000000000 ) ) ;
#444 = CARTESIAN_POINT ( 'NONE',  ( -37.25000000000001421, 0.000000000000000000, -2.799999999999998046 ) ) ;
#445 = CIRCLE ( 'NONE', #427, 10.00000000000000000 ) ;
#446 = VERTEX_POINT ( 'NONE', #106 ) ;
#447 = VECTOR ( 'NONE', #164, 1000.000000000000000 ) ;
#448 = AXIS2_PLACEMENT_3D ( 'NONE', #145, #197, #354 ) ;
#449 = EDGE_CURVE ( 'NONE', #59, #113, #398, .T. ) ;
#450 = DIRECTION ( 'NONE',  ( -0.000000000000000000, 1.000000000000000000, -0.000000000000000000 ) ) ;
#451 = ORIENTED_EDGE ( 'NONE', *, *, #118, .T. ) ;
#452 = CARTESIAN_POINT ( 'NONE',  ( -24.00000000000001421, 0.000000000000000000, 1.150000000000002798 ) ) ;
#453 = ORIENTED_EDGE ( 'NONE', *, *, #40, .F. ) ;
#454 = LINE ( 'NONE', #255, #279 ) ;
#455 = CARTESIAN_POINT ( 'NONE',  ( -46.00000000000000711, 40.00000000000000000, -10.00000000000000000 ) ) ;
#456 = EDGE_CURVE ( 'NONE', #409, #243, #214, .T. ) ;
#457 = ORIENTED_EDGE ( 'NONE', *, *, #370, .T. ) ;
#458 = VECTOR ( 'NONE', #539, 1000.000000000000000 ) ;
#459 = AXIS2_PLACEMENT_3D ( 'NONE', #89, #450, #351 ) ;
#460 = DIRECTION ( 'NONE',  ( 0.000000000000000000, 0.000000000000000000, 1.000000000000000000 ) ) ;
#461 = ORIENTED_EDGE ( 'NONE', *, *, #592, .T. ) ;
#462 = FACE_OUTER_BOUND ( 'NONE', #616, .T. ) ;
#463 = FACE_BOUND ( 'NONE', #319, .T. ) ;
#464 = ORIENTED_EDGE ( 'NONE', *, *, #627, .F. ) ;
#465 = PLANE ( 'NONE',  #448 ) ;
#466 = EDGE_CURVE ( 'NONE', #552, #500, #587, .T. ) ;
#467 = PLANE ( 'NONE',  #390 ) ;
#468 = ORIENTED_EDGE ( 'NONE', *, *, #466, .T. ) ;
#469 = COORDINATED_UNIVERSAL_TIME_OFFSET ( 7, 0, .AHEAD. ) ;
#470 = APPROVAL ( #292, 'UNSPECIFIED' ) ;
#471 = VECTOR ( 'NONE', #543, 1000.000000000000000 ) ;
#472 = CARTESIAN_POINT ( 'NONE',  ( -24.00000000000001421, 0.000000000000000000, -0.4499999999999990119 ) ) ;
#473 = ORIENTED_EDGE ( 'NONE', *, *, #456, .T. ) ;
#474 = DATE_TIME_ROLE ( 'creation_date' ) ;
#475 = LINE ( 'NONE', #206, #549 ) ;
#476 = ORIENTED_EDGE ( 'NONE', *, *, #650, .F. ) ;
#477 = DIRECTION ( 'NONE',  ( 0.000000000000000000, 1.000000000000000000, 0.000000000000000000 ) ) ;
#478 = ADVANCED_FACE ( 'NONE', ( #524 ), #640, .F. ) ;
#479 = VERTEX_POINT ( 'NONE', #235 ) ;
#480 = CIRCLE ( 'NONE', #583, 1.600000000000001865 ) ;
#481 = DIRECTION ( 'NONE',  ( -1.000000000000000000, 0.000000000000000000, 0.000000000000000000 ) ) ;
#482 = AXIS2_PLACEMENT_3D ( 'NONE', #386, #477, #122 ) ;
#483 = CARTESIAN_POINT ( 'NONE',  ( -38.50000000000001421, 40.00000000000000000, 0.000000000000000000 ) ) ;
#484 = DIRECTION ( 'NONE',  ( 1.000000000000000000, -0.000000000000000000, -0.000000000000000000 ) ) ;
#485 = FACE_BOUND ( 'NONE', #265, .T. ) ;
#486 = ORIENTED_EDGE ( 'NONE', *, *, #270, .F. ) ;
#487 = ADVANCED_FACE ( 'NONE', ( #24 ), #580, .F. ) ;
#488 = DIRECTION ( 'NONE',  ( -0.000000000000000000, 1.000000000000000000, -0.000000000000000000 ) ) ;
#489 = DIRECTION ( 'NONE',  ( -0.000000000000000000, 0.000000000000000000, -1.000000000000000000 ) ) ;
#490 = DIRECTION ( 'NONE',  ( -0.000000000000000000, 1.000000000000000000, -0.000000000000000000 ) ) ;
#491 = DIRECTION ( 'NONE',  ( 1.000000000000000000, -0.000000000000000000, -0.000000000000000000 ) ) ;
#492 = CARTESIAN_POINT ( 'NONE',  ( 0.000000000000000000, 0.000000000000000000, 0.000000000000000000 ) ) ;
#493 = CARTESIAN_POINT ( 'NONE',  ( -36.00000000000000000, 5.000000000000000000, 0.000000000000000000 ) ) ;
#494 = DIRECTION ( 'NONE',  ( -0.000000000000000000, -1.000000000000000000, -0.000000000000000000 ) ) ;
#495 = ADVANCED_FACE ( 'NONE', ( #276 ), #130, .F. ) ;
#496 = ORIENTED_EDGE ( 'NONE', *, *, #262, .T. ) ;
#497 = CARTESIAN_POINT ( 'NONE',  ( 35.99999999999999289, 5.000000000000000000, 0.000000000000000000 ) ) ;
#498 = ORIENTED_EDGE ( 'NONE', *, *, #169, .T. ) ;
#499 = DIRECTION ( 'NONE',  ( 0.000000000000000000, 0.000000000000000000, 1.000000000000000000 ) ) ;
#500 = VERTEX_POINT ( 'NONE', #433 ) ;
#501 = COORDINATED_UNIVERSAL_TIME_OFFSET ( 7, 0, .AHEAD. ) ;
#502 = DIRECTION ( 'NONE',  ( -0.000000000000000000, -1.000000000000000000, -0.000000000000000000 ) ) ;
#503 = ORIENTED_EDGE ( 'NONE', *, *, #627, .T. ) ;
#504 = DIRECTION ( 'NONE',  ( 0.000000000000000000, 0.000000000000000000, 1.000000000000000000 ) ) ;
#505 = PRODUCT_RELATED_PRODUCT_CATEGORY ( 'detail', '', ( #632 ) ) ;
#506 = CARTESIAN_POINT ( 'NONE',  ( 25.99999999999999289, 0.000000000000000000, -2.049999999999997158 ) ) ;
#507 = ORIENTED_EDGE ( 'NONE', *, *, #385, .F. ) ;
#508 = VECTOR ( 'NONE', #190, 1000.000000000000000 ) ;
#509 = DIRECTION ( 'NONE',  ( 0.000000000000000000, 0.000000000000000000, -1.000000000000000000 ) ) ;
#510 = EDGE_LOOP ( 'NONE', ( #167, #50, #56, #5 ) ) ;
#511 = DIRECTION ( 'NONE',  ( 0.000000000000000000, 0.000000000000000000, 1.000000000000000000 ) ) ;
#512 = CARTESIAN_POINT ( 'NONE',  ( -24.00000000000001421, 5.000000000000000000, -0.4499999999999990119 ) ) ;
#513 = ORIENTED_EDGE ( 'NONE', *, *, #249, .F. ) ;
#514 = EDGE_CURVE ( 'NONE', #346, #113, #337, .T. ) ;
#515 = CARTESIAN_POINT ( 'NONE',  ( 0.000000000000000000, 5.000000000000000000, 0.000000000000000000 ) ) ;
#516 = VERTEX_POINT ( 'NONE', #172 ) ;
#517 = MANIFOLD_SOLID_BREP ( '<3rd_Floor_Adapter>-<Fillet5>', #233 ) ;
#518 = PERSON_AND_ORGANIZATION_ROLE ( 'creator' ) ;
#519 = AXIS2_PLACEMENT_3D ( 'NONE', #434, #173, #582 ) ;
#520 = CARTESIAN_POINT ( 'NONE',  ( 25.99999999999999289, 5.000000000000000000, -2.049999999999997158 ) ) ;
#521 = VERTEX_POINT ( 'NONE', #637 ) ;
#522 = DATE_AND_TIME ( #628, #373 ) ;
#523 = ADVANCED_FACE ( 'NONE', ( #329 ), #175, .F. ) ;
#524 = FACE_OUTER_BOUND ( 'NONE', #289, .T. ) ;
#525 = DESIGN_CONTEXT ( 'detailed design', #92, 'design' ) ;
#526 = ORIENTED_EDGE ( 'NONE', *, *, #432, .F. ) ;
#527 = SECURITY_CLASSIFICATION_LEVEL ( 'unclassified' ) ;
#528 = DIRECTION ( 'NONE',  ( 0.000000000000000000, 0.000000000000000000, -1.000000000000000000 ) ) ;
#529 = ADVANCED_FACE ( 'NONE', ( #589 ), #119, .F. ) ;
#530 = ORIENTED_EDGE ( 'NONE', *, *, #571, .F. ) ;
#531 = VECTOR ( 'NONE', #143, 1000.000000000000000 ) ;
#532 = DIRECTION ( 'NONE',  ( 0.000000000000000000, 1.000000000000000000, 0.000000000000000000 ) ) ;
#533 = VECTOR ( 'NONE', #47, 1000.000000000000000 ) ;
#534 = CARTESIAN_POINT ( 'NONE',  ( 45.99999999999999289, 0.000000000000000000, -10.00000000000000000 ) ) ;
#535 = CARTESIAN_POINT ( 'NONE',  ( 45.99999999999999289, 5.000000000000000000, -10.00000000000000000 ) ) ;
#536 = CARTESIAN_POINT ( 'NONE',  ( -37.25000000000001421, 0.000000000000000000, 0.000000000000000000 ) ) ;
#537 = LINE ( 'NONE', #127, #542 ) ;
#538 = APPROVAL_PERSON_ORGANIZATION ( #111, #352, #121 ) ;
#539 = DIRECTION ( 'NONE',  ( 0.000000000000000000, 1.000000000000000000, 0.000000000000000000 ) ) ;
#540 = LINE ( 'NONE', #404, #533 ) ;
#541 = DIRECTION ( 'NONE',  ( 0.000000000000000000, 0.000000000000000000, 1.000000000000000000 ) ) ;
#542 = VECTOR ( 'NONE', #490, 1000.000000000000000 ) ;
#543 = DIRECTION ( 'NONE',  ( -1.000000000000000000, 0.000000000000000000, 0.000000000000000000 ) ) ;
#544 = ORIENTED_EDGE ( 'NONE', *, *, #449, .T. ) ;
#545 = CYLINDRICAL_SURFACE ( 'NONE', #355, 10.00000000000000000 ) ;
#546 = VERTEX_POINT ( 'NONE', #630 ) ;
#547 = CARTESIAN_POINT ( 'NONE',  ( -38.50000000000001421, 40.00000000000000000, 10.00000000000000000 ) ) ;
#548 = ORIENTED_EDGE ( 'NONE', *, *, #449, .F. ) ;
#549 = VECTOR ( 'NONE', #367, 1000.000000000000000 ) ;
#550 = EDGE_CURVE ( 'NONE', #391, #360, #231, .T. ) ;
#551 = DIRECTION ( 'NONE',  ( 1.000000000000000000, 0.000000000000000000, 0.000000000000000000 ) ) ;
#552 = VERTEX_POINT ( 'NONE', #134 ) ;
#553 = EDGE_CURVE ( 'NONE', #360, #218, #436, .T. ) ;
#554 = DIRECTION ( 'NONE',  ( 1.000000000000000000, -0.000000000000000000, -0.000000000000000000 ) ) ;
#555 = CARTESIAN_POINT ( 'NONE',  ( -28.50000000000001776, 5.000000000000000000, 1.734723475976807094E-15 ) ) ;
#556 = ORIENTED_EDGE ( 'NONE', *, *, #132, .F. ) ;
#557 = LINE ( 'NONE', #271, #447 ) ;
#558 = VERTEX_POINT ( 'NONE', #388 ) ;
#559 = VECTOR ( 'NONE', #38, 1000.000000000000000 ) ;
#560 = APPLICATION_PROTOCOL_DEFINITION ( 'international standard', 'config_control_design', 1994, #92 ) ;
#561 = AXIS2_PLACEMENT_3D ( 'NONE', #82, #302, #201 ) ;
#562 = DIRECTION ( 'NONE',  ( 0.000000000000000000, 0.000000000000000000, 1.000000000000000000 ) ) ;
#563 = EDGE_CURVE ( 'NONE', #346, #142, #429, .T. ) ;
#564 = VERTEX_POINT ( 'NONE', #326 ) ;
#565 = PERSON_AND_ORGANIZATION ( #155, #611 ) ;
#566 = DIRECTION ( 'NONE',  ( -0.000000000000000000, -1.000000000000000000, -0.000000000000000000 ) ) ;
#567 = ORIENTED_EDGE ( 'NONE', *, *, #123, .F. ) ;
#568 = DIRECTION ( 'NONE',  ( 0.000000000000000000, 0.000000000000000000, 1.000000000000000000 ) ) ;
#569 = EDGE_LOOP ( 'NONE', ( #323, #387, #548, #357 ) ) ;
#570 = PERSON_AND_ORGANIZATION_ROLE ( 'design_supplier' ) ;
#571 = EDGE_CURVE ( 'NONE', #516, #521, #537, .T. ) ;
#572 = VECTOR ( 'NONE', #131, 1000.000000000000000 ) ;
#573 = VECTOR ( 'NONE', #405, 1000.000000000000000 ) ;
#574 = CARTESIAN_POINT ( 'NONE',  ( -46.00000000000000711, 5.000000000000000000, -10.00000000000000000 ) ) ;
#575 = EDGE_LOOP ( 'NONE', ( #269, #530, #453, #12, #193, #33, #46, #258 ) ) ;
#576 = CALENDAR_DATE ( 2025, 26, 9 ) ;
#577 = ADVANCED_FACE ( 'NONE', ( #77 ), #335, .F. ) ;
#578 = DIRECTION ( 'NONE',  ( 0.000000000000000000, 0.000000000000000000, 1.000000000000000000 ) ) ;
#579 = LINE ( 'NONE', #124, #572 ) ;
#580 = PLANE ( 'NONE',  #158 ) ;
#581 = EDGE_CURVE ( 'NONE', #521, #612, #629, .T. ) ;
#582 = DIRECTION ( 'NONE',  ( 0.000000000000000000, 0.000000000000000000, -1.000000000000000000 ) ) ;
#583 = AXIS2_PLACEMENT_3D ( 'NONE', #141, #347, #499 ) ;
#584 = DIRECTION ( 'NONE',  ( 0.000000000000000000, -1.000000000000000000, 0.000000000000000000 ) ) ;
#585 = EDGE_CURVE ( 'NONE', #218, #406, #221, .T. ) ;
#586 = ORIENTED_EDGE ( 'NONE', *, *, #110, .F. ) ;
#587 = LINE ( 'NONE', #438, #606 ) ;
#588 = ORIENTED_EDGE ( 'NONE', *, *, #86, .T. ) ;
#589 = FACE_OUTER_BOUND ( 'NONE', #400, .T. ) ;
#590 = SECURITY_CLASSIFICATION ( '', '', #527 ) ;
#591 = CARTESIAN_POINT ( 'NONE',  ( -46.00000000000000711, 5.000000000000000000, 0.000000000000000000 ) ) ;
#592 = EDGE_CURVE ( 'NONE', #558, #371, #619, .T. ) ;
#593 = VECTOR ( 'NONE', #342, 1000.000000000000000 ) ;
#594 = LINE ( 'NONE', #84, #559 ) ;
#595 = AXIS2_PLACEMENT_3D ( 'NONE', #284, #488, #528 ) ;
#596 = CC_DESIGN_DATE_AND_TIME_ASSIGNMENT ( #372, #474, ( #366 ) ) ;
#597 = CARTESIAN_POINT ( 'NONE',  ( 45.99999999999999289, 0.000000000000000000, 10.00000000000000000 ) ) ;
#598 = ORIENTED_EDGE ( 'NONE', *, *, #129, .T. ) ;
#599 = CARTESIAN_POINT ( 'NONE',  ( 45.99999999999999289, 5.000000000000000000, 10.00000000000000000 ) ) ;
#600 = EDGE_CURVE ( 'NONE', #612, #621, #540, .T. ) ;
#601 = EDGE_LOOP ( 'NONE', ( #29, #109, #1, #567 ) ) ;
#602 = DIRECTION ( 'NONE',  ( 0.000000000000000000, 0.000000000000000000, 1.000000000000000000 ) ) ;
#603 = FACE_OUTER_BOUND ( 'NONE', #631, .T. ) ;
#604 = CC_DESIGN_PERSON_AND_ORGANIZATION_ASSIGNMENT ( #308, #662, ( #632 ) ) ;
#605 = VERTEX_POINT ( 'NONE', #413 ) ;
#606 = VECTOR ( 'NONE', #394, 1000.000000000000000 ) ;
#607 = MECHANICAL_CONTEXT ( 'NONE', #117, 'mechanical' ) ;
#608 = LINE ( 'NONE', #151, #407 ) ;
#609 = EDGE_LOOP ( 'NONE', ( #312, #375, #556, #658, #54, #476 ) ) ;
#610 = DIRECTION ( 'NONE',  ( 0.000000000000000000, 0.000000000000000000, -1.000000000000000000 ) ) ;
#611 = ORGANIZATION ( 'UNSPECIFIED', 'UNSPECIFIED', '' ) ;
#612 = VERTEX_POINT ( 'NONE', #156 ) ;
#613 = DIRECTION ( 'NONE',  ( 1.000000000000000000, 0.000000000000000000, 0.000000000000000000 ) ) ;
#614 = ADVANCED_FACE ( 'NONE', ( #52 ), #305, .F. ) ;
#615 = CARTESIAN_POINT ( 'NONE',  ( -36.00000000000000000, 5.000000000000000000, -10.00000000000000000 ) ) ;
#616 = EDGE_LOOP ( 'NONE', ( #363, #9, #473, #442, #420, #280 ) ) ;
#617 = VECTOR ( 'NONE', #321, 1000.000000000000000 ) ;
#618 = DIRECTION ( 'NONE',  ( 0.000000000000000000, 0.000000000000000000, -1.000000000000000000 ) ) ;
#619 = CIRCLE ( 'NONE', #648, 2.799999999999998046 ) ;
#620 = CYLINDRICAL_SURFACE ( 'NONE', #179, 10.00000000000000000 ) ;
#621 = VERTEX_POINT ( 'NONE', #341 ) ;
#622 = CARTESIAN_POINT ( 'NONE',  ( -46.00000000000000711, 40.00000000000000000, -10.00000000000000000 ) ) ;
#623 = ADVANCED_FACE ( 'NONE', ( #462 ), #465, .F. ) ;
#624 = ORIENTED_EDGE ( 'NONE', *, *, #600, .F. ) ;
#625 = FACE_BOUND ( 'NONE', #334, .T. ) ;
#626 = EDGE_LOOP ( 'NONE', ( #486, #368, #389, #526 ) ) ;
#627 = EDGE_CURVE ( 'NONE', #191, #177, #160, .T. ) ;
#628 = CALENDAR_DATE ( 2025, 26, 9 ) ;
#629 = CIRCLE ( 'NONE', #137, 10.00000000000000000 ) ;
#630 = CARTESIAN_POINT ( 'NONE',  ( 45.99999999999999289, 5.000000000000000000, 10.00000000000000000 ) ) ;
#631 = EDGE_LOOP ( 'NONE', ( #457, #79, #87, #165, #248, #277 ) ) ;
#632 = PRODUCT ( '3rd_Floor_Adapter_Mirror', '3rd_Floor_Adapter_Mirror', '', ( #607 ) ) ;
#633 = CARTESIAN_POINT ( 'NONE',  ( -37.25000000000001421, -5.000000000000004441, 0.000000000000000000 ) ) ;
#634 = DIRECTION ( 'NONE',  ( 0.000000000000000000, 1.000000000000000000, 0.000000000000000000 ) ) ;
#635 = PRODUCT_DEFINITION_FORMATION_WITH_SPECIFIED_SOURCE ( 'ANY', '', #632, .NOT_KNOWN. ) ;
#636 = EDGE_CURVE ( 'NONE', #621, #446, #204, .T. ) ;
#637 = CARTESIAN_POINT ( 'NONE',  ( 35.99999999999999289, 5.000000000000000000, -10.00000000000000000 ) ) ;
#638 = CARTESIAN_POINT ( 'NONE',  ( 25.99999999999999289, 5.000000000000000000, -0.4499999999999990119 ) ) ;
#639 = VECTOR ( 'NONE', #294, 1000.000000000000000 ) ;
#640 = CYLINDRICAL_SURFACE ( 'NONE', #268, 2.799999999999998046 ) ;
#641 = DIRECTION ( 'NONE',  ( -0.000000000000000000, -1.000000000000000000, -0.000000000000000000 ) ) ;
#642 = CARTESIAN_POINT ( 'NONE',  ( 25.99999999999999289, 0.000000000000000000, -0.4499999999999990119 ) ) ;
#643 = CYLINDRICAL_SURFACE ( 'NONE', #136, 1.600000000000001865 ) ;
#644 = ADVANCED_FACE ( 'NONE', ( #358 ), #237, .F. ) ;
#645 = CARTESIAN_POINT ( 'NONE',  ( 25.99999999999999289, 0.000000000000000000, -2.049999999999997158 ) ) ;
#646 = VECTOR ( 'NONE', #584, 1000.000000000000000 ) ;
#647 = LINE ( 'NONE', #299, #102 ) ;
#648 = AXIS2_PLACEMENT_3D ( 'NONE', #67, #223, #602 ) ;
#649 = EDGE_LOOP ( 'NONE', ( #353, #461 ) ) ;
#650 = EDGE_CURVE ( 'NONE', #564, #521, #454, .T. ) ;
#651 = DIRECTION ( 'NONE',  ( 0.000000000000000000, 0.000000000000000000, -1.000000000000000000 ) ) ;
#652 = ORIENTED_EDGE ( 'NONE', *, *, #140, .T. ) ;
#653 = CARTESIAN_POINT ( 'NONE',  ( -36.00000000000000000, 0.000000000000000000, -10.00000000000000000 ) ) ;
#654 = ORIENTED_EDGE ( 'NONE', *, *, #7, .T. ) ;
#655 = DIRECTION ( 'NONE',  ( -0.000000000000000000, 1.000000000000000000, -0.000000000000000000 ) ) ;
#656 = CARTESIAN_POINT ( 'NONE',  ( -37.25000000000001421, 40.00000000000000000, 0.000000000000000000 ) ) ;
#657 = CIRCLE ( 'NONE', #178, 2.799999999999998046 ) ;
#658 = ORIENTED_EDGE ( 'NONE', *, *, #262, .F. ) ;
#659 = DIRECTION ( 'NONE',  ( 0.000000000000000000, 1.000000000000000000, 0.000000000000000000 ) ) ;
#660 = DIRECTION ( 'NONE',  ( 0.000000000000000000, 1.000000000000000000, 0.000000000000000000 ) ) ;
#661 = ORIENTED_EDGE ( 'NONE', *, *, #456, .F. ) ;
#662 = PERSON_AND_ORGANIZATION_ROLE ( 'design_owner' ) ;
#663 = CARTESIAN_POINT ( 'NONE',  ( -46.00000000000000711, 0.000000000000000000, 0.000000000000000000 ) ) ;
ENDSEC;
END-ISO-10303-21;
