ISO-10303-21;
HEADER;
FILE_DESCRIPTION (( 'STEP AP203' ),
    '1' );
FILE_NAME ('3rd_Floor_Adapter.STEP',
    '2025-09-25T17:57:51',
    ( '' ),
    ( '' ),
    'SwSTEP 2.0',
    'SolidWorks 2025',
    '' );
FILE_SCHEMA (( 'CONFIG_CONTROL_DESIGN' ));
ENDSEC;

DATA;
#1 = EDGE_LOOP ( 'NONE', ( #199, #632, #374, #518 ) ) ;
#2 = EDGE_CURVE ( 'NONE', #611, #570, #133, .T. ) ;
#3 = DIRECTION ( 'NONE',  ( 0.000000000000000000, -1.000000000000000000, 0.000000000000000000 ) ) ;
#4 = ORIENTED_EDGE ( 'NONE', *, *, #634, .F. ) ;
#5 = ADVANCED_BREP_SHAPE_REPRESENTATION ( '3rd_Floor_Adapter', ( #522, #475 ), #284 ) ;
#6 = FACE_OUTER_BOUND ( 'NONE', #26, .T. ) ;
#7 = ORIENTED_EDGE ( 'NONE', *, *, #400, .F. ) ;
#8 = PRODUCT_DEFINITION_FORMATION_WITH_SPECIFIED_SOURCE ( 'ANY', '', #282, .NOT_KNOWN. ) ;
#9 = ORIENTED_EDGE ( 'NONE', *, *, #408, .T. ) ;
#10 = DIRECTION ( 'NONE',  ( 0.000000000000000000, 1.000000000000000000, 0.000000000000000000 ) ) ;
#11 = DIRECTION ( 'NONE',  ( 1.000000000000000000, 0.000000000000000000, -0.000000000000000000 ) ) ;
#12 = ADVANCED_FACE ( 'NONE', ( #447 ), #172, .T. ) ;
#13 = VERTEX_POINT ( 'NONE', #526 ) ;
#14 = ORIENTED_EDGE ( 'NONE', *, *, #500, .T. ) ;
#15 = CYLINDRICAL_SURFACE ( 'NONE', #296, 2.799999999999998046 ) ;
#16 = EDGE_LOOP ( 'NONE', ( #4, #257, #121, #629, #630, #499 ) ) ;
#17 = CC_DESIGN_PERSON_AND_ORGANIZATION_ASSIGNMENT ( #151, #613, ( #8 ) ) ;
#18 = DIRECTION ( 'NONE',  ( 0.000000000000000000, 1.000000000000000000, 0.000000000000000000 ) ) ;
#19 = CARTESIAN_POINT ( 'NONE',  ( -35.99999999999999289, 5.000000000000000000, 0.000000000000000000 ) ) ;
#20 = VECTOR ( 'NONE', #549, 1000.000000000000000 ) ;
#21 = CIRCLE ( 'NONE', #466, 1.599999999999998090 ) ;
#22 = EDGE_LOOP ( 'NONE', ( #467, #184, #330, #202, #251, #647 ) ) ;
#23 = DIRECTION ( 'NONE',  ( 0.000000000000000000, 0.000000000000000000, 1.000000000000000000 ) ) ;
#24 = EDGE_CURVE ( 'NONE', #391, #560, #64, .T. ) ;
#25 = CARTESIAN_POINT ( 'NONE',  ( 28.50000000000001776, 40.00000000000000000, 1.734723475976807094E-15 ) ) ;
#26 = EDGE_LOOP ( 'NONE', ( #359, #66, #51, #505, #348, #437 ) ) ;
#27 = DIRECTION ( 'NONE',  ( -0.000000000000000000, 1.000000000000000000, -0.000000000000000000 ) ) ;
#28 = VERTEX_POINT ( 'NONE', #136 ) ;
#29 = CARTESIAN_POINT ( 'NONE',  ( 24.00000000000001421, 0.000000000000000000, 1.150000000000002798 ) ) ;
#30 = CARTESIAN_POINT ( 'NONE',  ( 28.50000000000001421, 5.000000000000000000, -10.00000000000000000 ) ) ;
#31 = VECTOR ( 'NONE', #556, 1000.000000000000000 ) ;
#32 = VECTOR ( 'NONE', #539, 1000.000000000000000 ) ;
#33 = DIRECTION ( 'NONE',  ( -0.000000000000000000, 1.000000000000000000, -0.000000000000000000 ) ) ;
#34 = CARTESIAN_POINT ( 'NONE',  ( 46.00000000000000711, 5.000000000000000000, -10.00000000000000000 ) ) ;
#35 = APPROVAL_DATE_TIME ( #85, #461 ) ;
#36 = LINE ( 'NONE', #30, #334 ) ;
#37 = CARTESIAN_POINT ( 'NONE',  ( -45.99999999999999289, 5.000000000000000000, -10.00000000000000000 ) ) ;
#38 = FACE_OUTER_BOUND ( 'NONE', #16, .T. ) ;
#39 = CC_DESIGN_SECURITY_CLASSIFICATION ( #535, ( #8 ) ) ;
#40 = VECTOR ( 'NONE', #280, 1000.000000000000000 ) ;
#41 = VECTOR ( 'NONE', #231, 1000.000000000000000 ) ;
#42 = ADVANCED_FACE ( 'NONE', ( #459 ), #139, .F. ) ;
#43 = DIRECTION ( 'NONE',  ( -1.000000000000000000, -0.000000000000000000, -0.000000000000000000 ) ) ;
#44 = DIRECTION ( 'NONE',  ( -1.000000000000000000, 0.000000000000000000, -0.000000000000000000 ) ) ;
#45 = DIRECTION ( 'NONE',  ( -0.000000000000000000, 1.000000000000000000, -0.000000000000000000 ) ) ;
#46 = CARTESIAN_POINT ( 'NONE',  ( 24.00000000000001421, 5.000000000000000000, -2.050000000000001155 ) ) ;
#47 = ORIENTED_EDGE ( 'NONE', *, *, #200, .F. ) ;
#48 = DIRECTION ( 'NONE',  ( 0.000000000000000000, 1.000000000000000000, 0.000000000000000000 ) ) ;
#49 = PLANE ( 'NONE',  #587 ) ;
#50 = EDGE_CURVE ( 'NONE', #100, #108, #36, .T. ) ;
#51 = ORIENTED_EDGE ( 'NONE', *, *, #528, .T. ) ;
#52 = AXIS2_PLACEMENT_3D ( 'NONE', #546, #132, #498 ) ;
#53 = CIRCLE ( 'NONE', #73, 1.599999999999998090 ) ;
#54 = CARTESIAN_POINT ( 'NONE',  ( 46.00000000000000711, 40.00000000000000000, 10.00000000000000000 ) ) ;
#55 = EDGE_LOOP ( 'NONE', ( #74, #337, #411, #453 ) ) ;
#56 = EDGE_CURVE ( 'NONE', #248, #100, #407, .T. ) ;
#57 = DIRECTION ( 'NONE',  ( 0.000000000000000000, 0.000000000000000000, -1.000000000000000000 ) ) ;
#58 = CARTESIAN_POINT ( 'NONE',  ( -45.99999999999999289, 5.000000000000000000, -10.00000000000000000 ) ) ;
#59 = ORIENTED_EDGE ( 'NONE', *, *, #400, .T. ) ;
#60 = CARTESIAN_POINT ( 'NONE',  ( 36.00000000000000000, 5.000000000000000000, -10.00000000000000000 ) ) ;
#61 = VERTEX_POINT ( 'NONE', #496 ) ;
#62 = CIRCLE ( 'NONE', #283, 1.600000000000001865 ) ;
#63 = AXIS2_PLACEMENT_3D ( 'NONE', #58, #209, #11 ) ;
#64 = LINE ( 'NONE', #262, #40 ) ;
#65 = DIRECTION ( 'NONE',  ( 0.000000000000000000, 0.000000000000000000, -1.000000000000000000 ) ) ;
#66 = ORIENTED_EDGE ( 'NONE', *, *, #626, .T. ) ;
#67 = CARTESIAN_POINT ( 'NONE',  ( -45.99999999999999289, 0.000000000000000000, 10.00000000000000000 ) ) ;
#68 = CARTESIAN_POINT ( 'NONE',  ( 28.50000000000001421, 40.00000000000000000, -10.00000000000000000 ) ) ;
#69 = VERTEX_POINT ( 'NONE', #232 ) ;
#70 = EDGE_CURVE ( 'NONE', #281, #430, #597, .T. ) ;
#71 = DIRECTION ( 'NONE',  ( -0.000000000000000000, 1.000000000000000000, -0.000000000000000000 ) ) ;
#72 = DIRECTION ( 'NONE',  ( -0.000000000000000000, 1.000000000000000000, -0.000000000000000000 ) ) ;
#73 = AXIS2_PLACEMENT_3D ( 'NONE', #585, #590, #536 ) ;
#74 = ORIENTED_EDGE ( 'NONE', *, *, #286, .F. ) ;
#75 = CC_DESIGN_PERSON_AND_ORGANIZATION_ASSIGNMENT ( #102, #246, ( #535 ) ) ;
#76 = DIRECTION ( 'NONE',  ( -0.000000000000000000, -1.000000000000000000, -0.000000000000000000 ) ) ;
#77 = ORIENTED_EDGE ( 'NONE', *, *, #70, .F. ) ;
#78 = CARTESIAN_POINT ( 'NONE',  ( -45.99999999999999289, 0.000000000000000000, -10.00000000000000000 ) ) ;
#79 = CARTESIAN_POINT ( 'NONE',  ( 38.50000000000001421, 5.000000000000000000, 10.00000000000000000 ) ) ;
#80 = LINE ( 'NONE', #37, #104 ) ;
#81 = EDGE_CURVE ( 'NONE', #28, #100, #91, .T. ) ;
#82 = CARTESIAN_POINT ( 'NONE',  ( -45.99999999999999289, 0.000000000000000000, 10.00000000000000000 ) ) ;
#83 = AXIS2_PLACEMENT_3D ( 'NONE', #175, #285, #287 ) ;
#84 = AXIS2_PLACEMENT_3D ( 'NONE', #187, #33, #345 ) ;
#85 = DATE_AND_TIME ( #131, #426 ) ;
#86 = DIRECTION ( 'NONE',  ( -1.000000000000000000, -0.000000000000000000, -0.000000000000000000 ) ) ;
#87 = APPLICATION_CONTEXT ( 'configuration controlled 3d designs of mechanical parts and assemblies' ) ;
#88 =( NAMED_UNIT ( * ) SI_UNIT ( $, .STERADIAN. ) SOLID_ANGLE_UNIT ( ) );
#89 = CARTESIAN_POINT ( 'NONE',  ( 46.00000000000000711, 40.00000000000000000, -10.00000000000000000 ) ) ;
#90 = EDGE_CURVE ( 'NONE', #329, #28, #593, .T. ) ;
#91 = LINE ( 'NONE', #89, #234 ) ;
#92 = ORIENTED_EDGE ( 'NONE', *, *, #557, .T. ) ;
#93 = CARTESIAN_POINT ( 'NONE',  ( 24.00000000000001421, 0.000000000000000000, -0.4499999999999990119 ) ) ;
#94 = APPROVAL_STATUS ( 'not_yet_approved' ) ;
#95 = ORIENTED_EDGE ( 'NONE', *, *, #387, .F. ) ;
#96 = DIRECTION ( 'NONE',  ( 0.000000000000000000, 0.000000000000000000, 1.000000000000000000 ) ) ;
#97 = EDGE_CURVE ( 'NONE', #605, #430, #235, .T. ) ;
#98 = DIRECTION ( 'NONE',  ( 0.000000000000000000, 0.000000000000000000, 1.000000000000000000 ) ) ;
#99 = DATE_AND_TIME ( #301, #662 ) ;
#100 = VERTEX_POINT ( 'NONE', #34 ) ;
#101 = LINE ( 'NONE', #305, #355 ) ;
#102 = PERSON_AND_ORGANIZATION ( #289, #414 ) ;
#103 = ORIENTED_EDGE ( 'NONE', *, *, #342, .T. ) ;
#104 = VECTOR ( 'NONE', #43, 1000.000000000000000 ) ;
#105 = CARTESIAN_POINT ( 'NONE',  ( 0.000000000000000000, 5.000000000000000000, 0.000000000000000000 ) ) ;
#106 = VERTEX_POINT ( 'NONE', #452 ) ;
#107 = DIRECTION ( 'NONE',  ( -0.000000000000000000, 1.000000000000000000, -0.000000000000000000 ) ) ;
#108 = VERTEX_POINT ( 'NONE', #552 ) ;
#109 = EDGE_CURVE ( 'NONE', #560, #611, #186, .T. ) ;
#110 = CARTESIAN_POINT ( 'NONE',  ( 38.50000000000001421, 5.000000000000000000, 0.000000000000000000 ) ) ;
#111 = DIRECTION ( 'NONE',  ( 0.000000000000000000, 0.000000000000000000, 1.000000000000000000 ) ) ;
#112 = AXIS2_PLACEMENT_3D ( 'NONE', #142, #115, #111 ) ;
#113 = CARTESIAN_POINT ( 'NONE',  ( -35.99999999999999289, 0.000000000000000000, 0.000000000000000000 ) ) ;
#114 = EDGE_LOOP ( 'NONE', ( #622, #307 ) ) ;
#115 = DIRECTION ( 'NONE',  ( -0.000000000000000000, 1.000000000000000000, -0.000000000000000000 ) ) ;
#116 = DIRECTION ( 'NONE',  ( -0.000000000000000000, -1.000000000000000000, 0.000000000000000000 ) ) ;
#117 = ADVANCED_FACE ( 'NONE', ( #350 ), #642, .F. ) ;
#118 = ORIENTED_EDGE ( 'NONE', *, *, #137, .F. ) ;
#119 = DIRECTION ( 'NONE',  ( -1.000000000000000000, -0.000000000000000000, -0.000000000000000000 ) ) ;
#120 = EDGE_CURVE ( 'NONE', #582, #274, #122, .T. ) ;
#121 = ORIENTED_EDGE ( 'NONE', *, *, #109, .F. ) ;
#122 = CIRCLE ( 'NONE', #543, 10.00000000000000000 ) ;
#123 = CARTESIAN_POINT ( 'NONE',  ( -35.99999999999999289, 5.000000000000000000, -10.00000000000000000 ) ) ;
#124 = CIRCLE ( 'NONE', #652, 10.00000000000000000 ) ;
#125 = ORIENTED_EDGE ( 'NONE', *, *, #333, .F. ) ;
#126 = LINE ( 'NONE', #29, #525 ) ;
#127 = DIRECTION ( 'NONE',  ( 0.000000000000000000, 1.000000000000000000, 0.000000000000000000 ) ) ;
#128 = ADVANCED_FACE ( 'NONE', ( #38 ), #130, .F. ) ;
#129 = CALENDAR_DATE ( 2025, 26, 9 ) ;
#130 = PLANE ( 'NONE',  #224 ) ;
#131 = CALENDAR_DATE ( 2025, 26, 9 ) ;
#132 = DIRECTION ( 'NONE',  ( 0.000000000000000000, -1.000000000000000000, 0.000000000000000000 ) ) ;
#133 = CIRCLE ( 'NONE', #215, 10.00000000000000000 ) ;
#134 = ORIENTED_EDGE ( 'NONE', *, *, #211, .T. ) ;
#135 = DATE_AND_TIME ( #404, #183 ) ;
#136 = CARTESIAN_POINT ( 'NONE',  ( 46.00000000000000711, 40.00000000000000000, -10.00000000000000000 ) ) ;
#137 = EDGE_CURVE ( 'NONE', #377, #69, #229, .T. ) ;
#138 = EDGE_LOOP ( 'NONE', ( #550, #456, #614, #332 ) ) ;
#139 = PLANE ( 'NONE',  #344 ) ;
#140 = ORIENTED_EDGE ( 'NONE', *, *, #97, .F. ) ;
#141 = DIRECTION ( 'NONE',  ( 0.000000000000000000, -0.000000000000000000, -1.000000000000000000 ) ) ;
#142 = CARTESIAN_POINT ( 'NONE',  ( -25.99999999999999289, 0.000000000000000000, -0.4499999999999990119 ) ) ;
#143 = PLANE ( 'NONE',  #554 ) ;
#144 = EDGE_LOOP ( 'NONE', ( #620, #220 ) ) ;
#145 = DIRECTION ( 'NONE',  ( -0.000000000000000000, 1.000000000000000000, -0.000000000000000000 ) ) ;
#146 = EDGE_LOOP ( 'NONE', ( #95, #318, #210, #601 ) ) ;
#147 = FACE_OUTER_BOUND ( 'NONE', #584, .T. ) ;
#148 = VERTEX_POINT ( 'NONE', #462 ) ;
#149 = CC_DESIGN_APPROVAL ( #157, ( #8 ) ) ;
#150 = LINE ( 'NONE', #373, #31 ) ;
#151 = PERSON_AND_ORGANIZATION ( #289, #414 ) ;
#152 = ADVANCED_FACE ( 'NONE', ( #657 ), #494, .F. ) ;
#153 = ORIENTED_EDGE ( 'NONE', *, *, #547, .F. ) ;
#154 = DIRECTION ( 'NONE',  ( 0.000000000000000000, -0.000000000000000000, 1.000000000000000000 ) ) ;
#155 = ORIENTED_EDGE ( 'NONE', *, *, #408, .F. ) ;
#156 = ORIENTED_EDGE ( 'NONE', *, *, #353, .T. ) ;
#157 = APPROVAL ( #94, 'UNSPECIFIED' ) ;
#158 = ORIENTED_EDGE ( 'NONE', *, *, #2, .F. ) ;
#159 = AXIS2_PLACEMENT_3D ( 'NONE', #399, #292, #649 ) ;
#160 = EDGE_CURVE ( 'NONE', #274, #611, #540, .T. ) ;
#161 = VECTOR ( 'NONE', #576, 1000.000000000000000 ) ;
#162 = LINE ( 'NONE', #633, #260 ) ;
#163 = ORIENTED_EDGE ( 'NONE', *, *, #173, .T. ) ;
#164 = FACE_OUTER_BOUND ( 'NONE', #1, .T. ) ;
#165 = CC_DESIGN_PERSON_AND_ORGANIZATION_ASSIGNMENT ( #512, #425, ( #8 ) ) ;
#166 = DIRECTION ( 'NONE',  ( 0.000000000000000000, 0.000000000000000000, -1.000000000000000000 ) ) ;
#167 = ORIENTED_EDGE ( 'NONE', *, *, #451, .T. ) ;
#168 = CYLINDRICAL_SURFACE ( 'NONE', #393, 10.00000000000000000 ) ;
#169 = EDGE_LOOP ( 'NONE', ( #661, #125 ) ) ;
#170 = CARTESIAN_POINT ( 'NONE',  ( 28.50000000000001421, 5.000000000000000000, -10.00000000000000000 ) ) ;
#171 = APPROVAL_PERSON_ORGANIZATION ( #233, #461, #497 ) ;
#172 = CYLINDRICAL_SURFACE ( 'NONE', #565, 10.00000000000000000 ) ;
#173 = EDGE_CURVE ( 'NONE', #13, #659, #403, .T. ) ;
#174 = FACE_OUTER_BOUND ( 'NONE', #255, .T. ) ;
#175 = CARTESIAN_POINT ( 'NONE',  ( 37.25000000000001421, 40.00000000000000000, 0.000000000000000000 ) ) ;
#176 = APPLICATION_PROTOCOL_DEFINITION ( 'international standard', 'config_control_design', 1994, #87 ) ;
#177 = CARTESIAN_POINT ( 'NONE',  ( 24.00000000000001421, 0.000000000000000000, -0.4499999999999990119 ) ) ;
#178 = ORIENTED_EDGE ( 'NONE', *, *, #56, .F. ) ;
#179 = EDGE_CURVE ( 'NONE', #605, #415, #191, .T. ) ;
#180 = COORDINATED_UNIVERSAL_TIME_OFFSET ( 7, 0, .AHEAD. ) ;
#181 = DIRECTION ( 'NONE',  ( -0.000000000000000000, -0.000000000000000000, -1.000000000000000000 ) ) ;
#182 = AXIS2_PLACEMENT_3D ( 'NONE', #413, #107, #465 ) ;
#183 = LOCAL_TIME ( 0, 57, 51.00000000000000000, #180 ) ;
#184 = ORIENTED_EDGE ( 'NONE', *, *, #275, .T. ) ;
#185 = CYLINDRICAL_SURFACE ( 'NONE', #84, 1.599999999999998090 ) ;
#186 = LINE ( 'NONE', #646, #20 ) ;
#187 = CARTESIAN_POINT ( 'NONE',  ( -25.99999999999999289, 0.000000000000000000, -0.4499999999999990119 ) ) ;
#188 = FACE_BOUND ( 'NONE', #427, .T. ) ;
#189 = EDGE_LOOP ( 'NONE', ( #326, #464, #158, #381 ) ) ;
#190 = CARTESIAN_POINT ( 'NONE',  ( -25.99999999999999289, 0.000000000000000000, -2.049999999999997158 ) ) ;
#191 = CIRCLE ( 'NONE', #52, 2.799999999999998046 ) ;
#192 = EDGE_LOOP ( 'NONE', ( #242, #388 ) ) ;
#193 = CC_DESIGN_APPROVAL ( #461, ( #419 ) ) ;
#194 = EDGE_CURVE ( 'NONE', #265, #315, #392, .T. ) ;
#195 = DIRECTION ( 'NONE',  ( 0.000000000000000000, 0.000000000000000000, 1.000000000000000000 ) ) ;
#196 = FACE_BOUND ( 'NONE', #114, .T. ) ;
#197 = ORIENTED_EDGE ( 'NONE', *, *, #50, .F. ) ;
#198 = CARTESIAN_POINT ( 'NONE',  ( 37.25000000000001421, 40.00000000000000000, -2.799999999999998046 ) ) ;
#199 = ORIENTED_EDGE ( 'NONE', *, *, #594, .T. ) ;
#200 = EDGE_CURVE ( 'NONE', #69, #277, #423, .T. ) ;
#201 = CARTESIAN_POINT ( 'NONE',  ( -45.99999999999999289, 5.000000000000000000, 10.00000000000000000 ) ) ;
#202 = ORIENTED_EDGE ( 'NONE', *, *, #81, .F. ) ;
#203 = AXIS2_PLACEMENT_3D ( 'NONE', #463, #514, #566 ) ;
#204 = VECTOR ( 'NONE', #71, 1000.000000000000000 ) ;
#205 = CC_DESIGN_PERSON_AND_ORGANIZATION_ASSIGNMENT ( #454, #648, ( #419 ) ) ;
#206 = ORIENTED_EDGE ( 'NONE', *, *, #626, .F. ) ;
#207 = PLANE ( 'NONE',  #598 ) ;
#208 = VERTEX_POINT ( 'NONE', #571 ) ;
#209 = DIRECTION ( 'NONE',  ( 0.000000000000000000, 0.000000000000000000, 1.000000000000000000 ) ) ;
#210 = ORIENTED_EDGE ( 'NONE', *, *, #333, .T. ) ;
#211 = EDGE_CURVE ( 'NONE', #106, #277, #269, .T. ) ;
#212 = VERTEX_POINT ( 'NONE', #190 ) ;
#213 = LINE ( 'NONE', #68, #639 ) ;
#214 = ORIENTED_EDGE ( 'NONE', *, *, #173, .F. ) ;
#215 = AXIS2_PLACEMENT_3D ( 'NONE', #489, #445, #223 ) ;
#216 = CARTESIAN_POINT ( 'NONE',  ( -25.99999999999999289, 0.000000000000000000, -2.049999999999997158 ) ) ;
#217 = VERTEX_POINT ( 'NONE', #510 ) ;
#218 = FACE_OUTER_BOUND ( 'NONE', #138, .T. ) ;
#219 = LINE ( 'NONE', #444, #323 ) ;
#220 = ORIENTED_EDGE ( 'NONE', *, *, #519, .F. ) ;
#221 = DIRECTION ( 'NONE',  ( 0.000000000000000000, 0.000000000000000000, 1.000000000000000000 ) ) ;
#222 = EDGE_CURVE ( 'NONE', #248, #108, #485, .T. ) ;
#223 = DIRECTION ( 'NONE',  ( 0.000000000000000000, 0.000000000000000000, -1.000000000000000000 ) ) ;
#224 = AXIS2_PLACEMENT_3D ( 'NONE', #295, #600, #44 ) ;
#225 = LINE ( 'NONE', #78, #578 ) ;
#226 = AXIS2_PLACEMENT_3D ( 'NONE', #354, #228, #545 ) ;
#227 = DIRECTION ( 'NONE',  ( -0.000000000000000000, -0.000000000000000000, -1.000000000000000000 ) ) ;
#228 = DIRECTION ( 'NONE',  ( 0.000000000000000000, 1.000000000000000000, 0.000000000000000000 ) ) ;
#229 = LINE ( 'NONE', #82, #247 ) ;
#230 = ADVANCED_FACE ( 'NONE', ( #660, #367, #6 ), #49, .F. ) ;
#231 = DIRECTION ( 'NONE',  ( 1.000000000000000000, 0.000000000000000000, 0.000000000000000000 ) ) ;
#232 = CARTESIAN_POINT ( 'NONE',  ( 46.00000000000000711, 0.000000000000000000, 10.00000000000000000 ) ) ;
#233 = PERSON_AND_ORGANIZATION ( #289, #414 ) ;
#234 = VECTOR ( 'NONE', #591, 1000.000000000000000 ) ;
#235 = LINE ( 'NONE', #450, #424 ) ;
#236 = APPROVAL_PERSON_ORGANIZATION ( #421, #304, #338 ) ;
#237 = CARTESIAN_POINT ( 'NONE',  ( 28.50000000000001776, 40.00000000000000000, 10.00000000000000000 ) ) ;
#238 = DIRECTION ( 'NONE',  ( 1.000000000000000000, 0.000000000000000000, 0.000000000000000000 ) ) ;
#239 = DIRECTION ( 'NONE',  ( 1.000000000000000000, 0.000000000000000000, 0.000000000000000000 ) ) ;
#240 = CARTESIAN_POINT ( 'NONE',  ( 28.50000000000001776, 5.000000000000000000, -10.00000000000000000 ) ) ;
#241 = EDGE_CURVE ( 'NONE', #108, #106, #517, .T. ) ;
#242 = ORIENTED_EDGE ( 'NONE', *, *, #194, .F. ) ;
#243 = DIRECTION ( 'NONE',  ( 0.000000000000000000, 0.000000000000000000, 1.000000000000000000 ) ) ;
#244 = DIRECTION ( 'NONE',  ( 1.000000000000000000, -0.000000000000000000, 0.000000000000000000 ) ) ;
#245 = CC_DESIGN_DATE_AND_TIME_ASSIGNMENT ( #250, #469, ( #535 ) ) ;
#246 = PERSON_AND_ORGANIZATION_ROLE ( 'classification_officer' ) ;
#247 = VECTOR ( 'NONE', #238, 1000.000000000000000 ) ;
#248 = VERTEX_POINT ( 'NONE', #317 ) ;
#249 = CARTESIAN_POINT ( 'NONE',  ( -25.99999999999999289, 5.000000000000000000, -0.4499999999999990119 ) ) ;
#250 = DATE_AND_TIME ( #515, #383 ) ;
#251 = ORIENTED_EDGE ( 'NONE', *, *, #90, .F. ) ;
#252 = ADVANCED_FACE ( 'NONE', ( #147 ), #471, .F. ) ;
#253 = CARTESIAN_POINT ( 'NONE',  ( 38.50000000000001421, 40.00000000000000000, 10.00000000000000000 ) ) ;
#254 = CARTESIAN_POINT ( 'NONE',  ( 37.25000000000001421, 40.00000000000000000, 2.799999999999998046 ) ) ;
#255 = EDGE_LOOP ( 'NONE', ( #7, #9, #103, #491 ) ) ;
#256 = LINE ( 'NONE', #612, #438 ) ;
#257 = ORIENTED_EDGE ( 'NONE', *, *, #160, .T. ) ;
#258 = AXIS2_PLACEMENT_3D ( 'NONE', #93, #559, #98 ) ;
#259 = CARTESIAN_POINT ( 'NONE',  ( -35.99999999999999289, 5.000000000000000000, -10.00000000000000000 ) ) ;
#260 = VECTOR ( 'NONE', #328, 1000.000000000000000 ) ;
#261 = CARTESIAN_POINT ( 'NONE',  ( -25.99999999999999289, 5.000000000000000000, -2.049999999999997158 ) ) ;
#262 = CARTESIAN_POINT ( 'NONE',  ( -45.99999999999999289, 5.000000000000000000, 10.00000000000000000 ) ) ;
#263 = DIRECTION ( 'NONE',  ( -0.000000000000000000, 1.000000000000000000, -0.000000000000000000 ) ) ;
#264 = EDGE_CURVE ( 'NONE', #329, #69, #619, .T. ) ;
#265 = VERTEX_POINT ( 'NONE', #610 ) ;
#266 = CARTESIAN_POINT ( 'NONE',  ( -45.99999999999999289, 5.000000000000000000, 10.00000000000000000 ) ) ;
#267 = ORIENTED_EDGE ( 'NONE', *, *, #211, .F. ) ;
#268 = PLANE ( 'NONE',  #346 ) ;
#269 = CIRCLE ( 'NONE', #203, 10.00000000000000000 ) ;
#270 = CLOSED_SHELL ( 'NONE', ( #117, #643, #606, #230, #42, #429, #252, #128, #299, #457, #523, #311, #379, #152, #363, #360, #569, #12 ) ) ;
#271 = AXIS2_PLACEMENT_3D ( 'NONE', #331, #533, #166 ) ;
#272 = ORIENTED_EDGE ( 'NONE', *, *, #353, .F. ) ;
#273 = CARTESIAN_POINT ( 'NONE',  ( 36.00000000000000000, 5.000000000000000000, 0.000000000000000000 ) ) ;
#274 = VERTEX_POINT ( 'NONE', #253 ) ;
#275 = EDGE_CURVE ( 'NONE', #277, #248, #150, .T. ) ;
#276 = DIRECTION ( 'NONE',  ( 0.000000000000000000, 0.000000000000000000, -1.000000000000000000 ) ) ;
#277 = VERTEX_POINT ( 'NONE', #561 ) ;
#278 = APPROVAL_STATUS ( 'not_yet_approved' ) ;
#279 = DIRECTION ( 'NONE',  ( 1.734723475976807094E-16, 0.000000000000000000, 1.000000000000000000 ) ) ;
#280 = DIRECTION ( 'NONE',  ( -0.000000000000000000, -0.000000000000000000, 1.000000000000000000 ) ) ;
#281 = VERTEX_POINT ( 'NONE', #198 ) ;
#282 = PRODUCT ( '3rd_Floor_Adapter', '3rd_Floor_Adapter', '', ( #412 ) ) ;
#283 = AXIS2_PLACEMENT_3D ( 'NONE', #431, #10, #23 ) ;
#284 =( GEOMETRIC_REPRESENTATION_CONTEXT ( 3 ) GLOBAL_UNCERTAINTY_ASSIGNED_CONTEXT ( ( #397 ) ) GLOBAL_UNIT_ASSIGNED_CONTEXT ( ( #654, #551, #88 ) ) REPRESENTATION_CONTEXT ( 'NONE', 'WORKASPACE' ) );
#285 = DIRECTION ( 'NONE',  ( 0.000000000000000000, 1.000000000000000000, 0.000000000000000000 ) ) ;
#286 = EDGE_CURVE ( 'NONE', #415, #281, #256, .T. ) ;
#287 = DIRECTION ( 'NONE',  ( 0.000000000000000000, 0.000000000000000000, 1.000000000000000000 ) ) ;
#288 = CARTESIAN_POINT ( 'NONE',  ( 37.25000000000001421, 0.000000000000000000, -2.799999999999998046 ) ) ;
#289 = PERSON ( 'UNSPECIFIED', 'UNSPECIFIED', 'UNSPECIFIED', ('UNSPECIFIED'), ('UNSPECIFIED'), ('UNSPECIFIED') ) ;
#290 = ORIENTED_EDGE ( 'NONE', *, *, #179, .T. ) ;
#291 = DIRECTION ( 'NONE',  ( 0.000000000000000000, 0.000000000000000000, 1.000000000000000000 ) ) ;
#292 = DIRECTION ( 'NONE',  ( -0.000000000000000000, 1.000000000000000000, -0.000000000000000000 ) ) ;
#293 = CARTESIAN_POINT ( 'NONE',  ( 24.00000000000001421, 0.000000000000000000, -2.050000000000000711 ) ) ;
#294 = VECTOR ( 'NONE', #3, 1000.000000000000000 ) ;
#295 = CARTESIAN_POINT ( 'NONE',  ( -45.99999999999999289, 5.000000000000000000, 10.00000000000000000 ) ) ;
#296 = AXIS2_PLACEMENT_3D ( 'NONE', #340, #631, #221 ) ;
#297 = SECURITY_CLASSIFICATION_LEVEL ( 'unclassified' ) ;
#298 = ORIENTED_EDGE ( 'NONE', *, *, #24, .F. ) ;
#299 = ADVANCED_FACE ( 'NONE', ( #474, #196, #188, #410 ), #143, .T. ) ;
#300 = CARTESIAN_POINT ( 'NONE',  ( 46.00000000000000711, 0.000000000000000000, 10.00000000000000000 ) ) ;
#301 = CALENDAR_DATE ( 2025, 26, 9 ) ;
#302 = ORIENTED_EDGE ( 'NONE', *, *, #286, .T. ) ;
#303 = CARTESIAN_POINT ( 'NONE',  ( -45.99999999999999289, 5.000000000000000000, 0.000000000000000000 ) ) ;
#304 = APPROVAL ( #278, 'UNSPECIFIED' ) ;
#305 = CARTESIAN_POINT ( 'NONE',  ( -25.99999999999999289, 0.000000000000000000, 1.149999999999999023 ) ) ;
#306 = APPROVAL_DATE_TIME ( #99, #157 ) ;
#307 = ORIENTED_EDGE ( 'NONE', *, *, #387, .T. ) ;
#308 = DIRECTION ( 'NONE',  ( -0.000000000000000000, -1.000000000000000000, -0.000000000000000000 ) ) ;
#309 = COORDINATED_UNIVERSAL_TIME_OFFSET ( 7, 0, .AHEAD. ) ;
#310 = VECTOR ( 'NONE', #181, 1000.000000000000000 ) ;
#311 = ADVANCED_FACE ( 'NONE', ( #356 ), #361, .F. ) ;
#312 = ORIENTED_EDGE ( 'NONE', *, *, #481, .T. ) ;
#313 = VECTOR ( 'NONE', #336, 1000.000000000000000 ) ;
#314 = DIRECTION ( 'NONE',  ( 0.000000000000000000, -0.000000000000000000, -1.000000000000000000 ) ) ;
#315 = VERTEX_POINT ( 'NONE', #46 ) ;
#316 = CC_DESIGN_PERSON_AND_ORGANIZATION_ASSIGNMENT ( #458, #645, ( #282 ) ) ;
#317 = CARTESIAN_POINT ( 'NONE',  ( 46.00000000000000711, 5.000000000000000000, 0.000000000000000000 ) ) ;
#318 = ORIENTED_EDGE ( 'NONE', *, *, #589, .T. ) ;
#319 = VERTEX_POINT ( 'NONE', #240 ) ;
#320 = DIRECTION ( 'NONE',  ( 0.000000000000000000, 0.000000000000000000, -1.000000000000000000 ) ) ;
#321 = VECTOR ( 'NONE', #308, 1000.000000000000000 ) ;
#322 = CARTESIAN_POINT ( 'NONE',  ( -25.99999999999999289, 0.000000000000000000, -0.4499999999999990119 ) ) ;
#323 = VECTOR ( 'NONE', #583, 1000.000000000000000 ) ;
#324 = EDGE_CURVE ( 'NONE', #478, #217, #101, .T. ) ;
#325 = CARTESIAN_POINT ( 'NONE',  ( 24.00000000000001421, 0.000000000000000000, -0.4499999999999990119 ) ) ;
#326 = ORIENTED_EDGE ( 'NONE', *, *, #120, .F. ) ;
#327 = LINE ( 'NONE', #375, #628 ) ;
#328 = DIRECTION ( 'NONE',  ( -0.000000000000000000, -0.000000000000000000, 1.000000000000000000 ) ) ;
#329 = VERTEX_POINT ( 'NONE', #54 ) ;
#330 = ORIENTED_EDGE ( 'NONE', *, *, #56, .T. ) ;
#331 = CARTESIAN_POINT ( 'NONE',  ( 37.25000000000001421, 0.000000000000000000, 0.000000000000000000 ) ) ;
#332 = ORIENTED_EDGE ( 'NONE', *, *, #658, .T. ) ;
#333 = EDGE_CURVE ( 'NONE', #418, #217, #638, .T. ) ;
#334 = VECTOR ( 'NONE', #86, 1000.000000000000000 ) ;
#335 = CIRCLE ( 'NONE', #372, 2.799999999999998046 ) ;
#336 = DIRECTION ( 'NONE',  ( -0.000000000000000000, 1.000000000000000000, -0.000000000000000000 ) ) ;
#337 = ORIENTED_EDGE ( 'NONE', *, *, #519, .T. ) ;
#338 = APPROVAL_ROLE ( '' ) ;
#339 = DESIGN_CONTEXT ( 'detailed design', #87, 'design' ) ;
#340 = CARTESIAN_POINT ( 'NONE',  ( 37.25000000000001421, -5.000000000000004441, 0.000000000000000000 ) ) ;
#341 = DIRECTION ( 'NONE',  ( 0.000000000000000000, -0.000000000000000000, 1.000000000000000000 ) ) ;
#342 = EDGE_CURVE ( 'NONE', #315, #265, #62, .T. ) ;
#343 = CARTESIAN_POINT ( 'NONE',  ( 0.000000000000000000, 5.000000000000000000, 0.000000000000000000 ) ) ;
#344 = AXIS2_PLACEMENT_3D ( 'NONE', #502, #504, #655 ) ;
#345 = DIRECTION ( 'NONE',  ( 0.000000000000000000, 0.000000000000000000, 1.000000000000000000 ) ) ;
#346 = AXIS2_PLACEMENT_3D ( 'NONE', #416, #18, #154 ) ;
#347 = CARTESIAN_POINT ( 'NONE',  ( 46.00000000000000711, 40.00000000000000000, -10.00000000000000000 ) ) ;
#348 = ORIENTED_EDGE ( 'NONE', *, *, #109, .T. ) ;
#349 = DATE_TIME_ROLE ( 'creation_date' ) ;
#350 = FACE_OUTER_BOUND ( 'NONE', #563, .T. ) ;
#351 = DIRECTION ( 'NONE',  ( 0.000000000000000000, 0.000000000000000000, 1.000000000000000000 ) ) ;
#352 = DIRECTION ( 'NONE',  ( 0.000000000000000000, 1.000000000000000000, 0.000000000000000000 ) ) ;
#353 = EDGE_CURVE ( 'NONE', #208, #472, #609, .T. ) ;
#354 = CARTESIAN_POINT ( 'NONE',  ( -25.99999999999999289, 5.000000000000000000, -0.4499999999999990119 ) ) ;
#355 = VECTOR ( 'NONE', #145, 1000.000000000000000 ) ;
#356 = FACE_OUTER_BOUND ( 'NONE', #435, .T. ) ;
#357 = CIRCLE ( 'NONE', #405, 10.00000000000000000 ) ;
#358 = PERSON_AND_ORGANIZATION ( #289, #414 ) ;
#359 = ORIENTED_EDGE ( 'NONE', *, *, #594, .F. ) ;
#360 = ADVANCED_FACE ( 'NONE', ( #575, #434 ), #268, .T. ) ;
#361 = CYLINDRICAL_SURFACE ( 'NONE', #258, 1.600000000000001865 ) ;
#362 = EDGE_LOOP ( 'NONE', ( #365, #77 ) ) ;
#363 = ADVANCED_FACE ( 'NONE', ( #164 ), #207, .F. ) ;
#364 = DIRECTION ( 'NONE',  ( 0.000000000000000000, 0.000000000000000000, 1.000000000000000000 ) ) ;
#365 = ORIENTED_EDGE ( 'NONE', *, *, #615, .F. ) ;
#366 = CC_DESIGN_APPROVAL ( #304, ( #535 ) ) ;
#367 = FACE_BOUND ( 'NONE', #169, .T. ) ;
#368 = FACE_OUTER_BOUND ( 'NONE', #508, .T. ) ;
#369 = AXIS2_PLACEMENT_3D ( 'NONE', #507, #616, #364 ) ;
#370 = CIRCLE ( 'NONE', #448, 1.600000000000001865 ) ;
#371 = EDGE_LOOP ( 'NONE', ( #532, #484, #267, #402 ) ) ;
#372 = AXIS2_PLACEMENT_3D ( 'NONE', #548, #409, #351 ) ;
#373 = CARTESIAN_POINT ( 'NONE',  ( 46.00000000000000711, 5.000000000000000000, 0.000000000000000000 ) ) ;
#374 = ORIENTED_EDGE ( 'NONE', *, *, #440, .F. ) ;
#375 = CARTESIAN_POINT ( 'NONE',  ( -45.99999999999999289, 5.000000000000000000, 10.00000000000000000 ) ) ;
#376 = ORIENTED_EDGE ( 'NONE', *, *, #390, .F. ) ;
#377 = VERTEX_POINT ( 'NONE', #67 ) ;
#378 = DIRECTION ( 'NONE',  ( 0.000000000000000000, 1.000000000000000000, 0.000000000000000000 ) ) ;
#379 = ADVANCED_FACE ( 'NONE', ( #218 ), #623, .F. ) ;
#380 = CARTESIAN_POINT ( 'NONE',  ( 28.50000000000001421, 40.00000000000000000, -10.00000000000000000 ) ) ;
#381 = ORIENTED_EDGE ( 'NONE', *, *, #160, .F. ) ;
#382 = VECTOR ( 'NONE', #227, 1000.000000000000000 ) ;
#383 = LOCAL_TIME ( 0, 57, 51.00000000000000000, #309 ) ;
#384 = CARTESIAN_POINT ( 'NONE',  ( 28.50000000000001421, 40.00000000000000000, -10.00000000000000000 ) ) ;
#385 = ORIENTED_EDGE ( 'NONE', *, *, #511, .F. ) ;
#386 = DIRECTION ( 'NONE',  ( 0.000000000000000000, 0.000000000000000000, -1.000000000000000000 ) ) ;
#387 = EDGE_CURVE ( 'NONE', #212, #478, #21, .T. ) ;
#388 = ORIENTED_EDGE ( 'NONE', *, *, #342, .F. ) ;
#389 = CARTESIAN_POINT ( 'NONE',  ( -35.99999999999999289, 5.000000000000000000, 0.000000000000000000 ) ) ;
#390 = EDGE_CURVE ( 'NONE', #560, #377, #327, .T. ) ;
#391 = VERTEX_POINT ( 'NONE', #303 ) ;
#392 = CIRCLE ( 'NONE', #369, 1.600000000000001865 ) ;
#393 = AXIS2_PLACEMENT_3D ( 'NONE', #19, #116, #276 ) ;
#394 = CYLINDRICAL_SURFACE ( 'NONE', #608, 10.00000000000000000 ) ;
#395 = DIRECTION ( 'NONE',  ( -0.000000000000000000, 1.000000000000000000, -0.000000000000000000 ) ) ;
#396 = PRODUCT_DEFINITION_SHAPE ( 'NONE', 'NONE',  #419 ) ;
#397 = UNCERTAINTY_MEASURE_WITH_UNIT (LENGTH_MEASURE( 1.000000000000000082E-05 ), #654, 'distance_accuracy_value', 'NONE');
#398 = CYLINDRICAL_SURFACE ( 'NONE', #439, 1.600000000000001865 ) ;
#399 = CARTESIAN_POINT ( 'NONE',  ( 37.25000000000001421, -5.000000000000004441, 0.000000000000000000 ) ) ;
#400 = EDGE_CURVE ( 'NONE', #659, #13, #370, .T. ) ;
#401 = DIRECTION ( 'NONE',  ( 0.000000000000000000, 1.000000000000000000, 0.000000000000000000 ) ) ;
#402 = ORIENTED_EDGE ( 'NONE', *, *, #241, .F. ) ;
#403 = CIRCLE ( 'NONE', #618, 1.600000000000001865 ) ;
#404 = CALENDAR_DATE ( 2025, 26, 9 ) ;
#405 = AXIS2_PLACEMENT_3D ( 'NONE', #389, #72, #65 ) ;
#406 = CARTESIAN_POINT ( 'NONE',  ( 38.50000000000001421, 40.00000000000000000, 0.000000000000000000 ) ) ;
#407 = LINE ( 'NONE', #603, #382 ) ;
#408 = EDGE_CURVE ( 'NONE', #659, #315, #573, .T. ) ;
#409 = DIRECTION ( 'NONE',  ( 0.000000000000000000, 1.000000000000000000, 0.000000000000000000 ) ) ;
#410 = FACE_OUTER_BOUND ( 'NONE', #635, .T. ) ;
#411 = ORIENTED_EDGE ( 'NONE', *, *, #97, .T. ) ;
#412 = MECHANICAL_CONTEXT ( 'NONE', #482, 'mechanical' ) ;
#413 = CARTESIAN_POINT ( 'NONE',  ( 36.00000000000000000, 5.000000000000000000, 0.000000000000000000 ) ) ;
#414 = ORGANIZATION ( 'UNSPECIFIED', 'UNSPECIFIED', '' ) ;
#415 = VERTEX_POINT ( 'NONE', #288 ) ;
#416 = CARTESIAN_POINT ( 'NONE',  ( 0.000000000000000000, 40.00000000000000000, 0.000000000000000000 ) ) ;
#417 = DIRECTION ( 'NONE',  ( 0.000000000000000000, -1.000000000000000000, 0.000000000000000000 ) ) ;
#418 = VERTEX_POINT ( 'NONE', #261 ) ;
#419 = PRODUCT_DEFINITION ( 'UNKNOWN', '', #8, #339 ) ;
#420 = DIRECTION ( 'NONE',  ( 0.000000000000000000, -1.000000000000000000, 0.000000000000000000 ) ) ;
#421 = PERSON_AND_ORGANIZATION ( #289, #414 ) ;
#422 = ORIENTED_EDGE ( 'NONE', *, *, #440, .T. ) ;
#423 = LINE ( 'NONE', #300, #607 ) ;
#424 = VECTOR ( 'NONE', #395, 1000.000000000000000 ) ;
#425 = PERSON_AND_ORGANIZATION_ROLE ( 'creator' ) ;
#426 = LOCAL_TIME ( 0, 57, 51.00000000000000000, #595 ) ;
#427 = EDGE_LOOP ( 'NONE', ( #163, #59 ) ) ;
#428 = DATE_AND_TIME ( #129, #553 ) ;
#429 = ADVANCED_FACE ( 'NONE', ( #368 ), #477, .F. ) ;
#430 = VERTEX_POINT ( 'NONE', #254 ) ;
#431 = CARTESIAN_POINT ( 'NONE',  ( 24.00000000000001421, 5.000000000000000000, -0.4499999999999990119 ) ) ;
#432 = LINE ( 'NONE', #380, #161 ) ;
#433 = ORIENTED_EDGE ( 'NONE', *, *, #50, .T. ) ;
#434 = FACE_OUTER_BOUND ( 'NONE', #516, .T. ) ;
#435 = EDGE_LOOP ( 'NONE', ( #155, #214, #92, #579 ) ) ;
#436 = LINE ( 'NONE', #384, #588 ) ;
#437 = ORIENTED_EDGE ( 'NONE', *, *, #2, .T. ) ;
#438 = VECTOR ( 'NONE', #663, 1000.000000000000000 ) ;
#439 = AXIS2_PLACEMENT_3D ( 'NONE', #325, #263, #479 ) ;
#440 = EDGE_CURVE ( 'NONE', #148, #582, #432, .T. ) ;
#441 = LINE ( 'NONE', #170, #653 ) ;
#442 = EDGE_LOOP ( 'NONE', ( #178, #651, #197 ) ) ;
#443 = PRODUCT_RELATED_PRODUCT_CATEGORY ( 'detail', '', ( #282 ) ) ;
#444 = CARTESIAN_POINT ( 'NONE',  ( -45.99999999999999289, 5.000000000000000000, 0.000000000000000000 ) ) ;
#445 = DIRECTION ( 'NONE',  ( 0.000000000000000000, -1.000000000000000000, 0.000000000000000000 ) ) ;
#446 = CARTESIAN_POINT ( 'NONE',  ( -25.99999999999999289, 0.000000000000000000, 1.149999999999999023 ) ) ;
#447 = FACE_OUTER_BOUND ( 'NONE', #189, .T. ) ;
#448 = AXIS2_PLACEMENT_3D ( 'NONE', #509, #48, #243 ) ;
#449 = CARTESIAN_POINT ( 'NONE',  ( 28.50000000000001776, 40.00000000000000000, 1.734723475976807094E-15 ) ) ;
#450 = CARTESIAN_POINT ( 'NONE',  ( 37.25000000000001421, -5.000000000000004441, 2.799999999999998046 ) ) ;
#451 = EDGE_CURVE ( 'NONE', #61, #208, #124, .T. ) ;
#452 = CARTESIAN_POINT ( 'NONE',  ( 36.00000000000000000, 0.000000000000000000, -10.00000000000000000 ) ) ;
#453 = ORIENTED_EDGE ( 'NONE', *, *, #615, .T. ) ;
#454 = PERSON_AND_ORGANIZATION ( #289, #414 ) ;
#455 = DIRECTION ( 'NONE',  ( 0.000000000000000000, 0.000000000000000000, 1.000000000000000000 ) ) ;
#456 = ORIENTED_EDGE ( 'NONE', *, *, #538, .F. ) ;
#457 = ADVANCED_FACE ( 'NONE', ( #627 ), #394, .T. ) ;
#458 = PERSON_AND_ORGANIZATION ( #289, #414 ) ;
#459 = FACE_OUTER_BOUND ( 'NONE', #22, .T. ) ;
#460 = FACE_OUTER_BOUND ( 'NONE', #146, .T. ) ;
#461 = APPROVAL ( #495, 'UNSPECIFIED' ) ;
#462 = CARTESIAN_POINT ( 'NONE',  ( 28.50000000000001421, 40.00000000000000000, -10.00000000000000000 ) ) ;
#463 = CARTESIAN_POINT ( 'NONE',  ( 36.00000000000000000, 0.000000000000000000, 0.000000000000000000 ) ) ;
#464 = ORIENTED_EDGE ( 'NONE', *, *, #473, .F. ) ;
#465 = DIRECTION ( 'NONE',  ( 0.000000000000000000, 0.000000000000000000, -1.000000000000000000 ) ) ;
#466 = AXIS2_PLACEMENT_3D ( 'NONE', #322, #558, #96 ) ;
#467 = ORIENTED_EDGE ( 'NONE', *, *, #200, .T. ) ;
#468 = CARTESIAN_POINT ( 'NONE',  ( 46.00000000000000711, 5.000000000000000000, 10.00000000000000000 ) ) ;
#469 = DATE_TIME_ROLE ( 'classification_date' ) ;
#470 = ORIENTED_EDGE ( 'NONE', *, *, #451, .F. ) ;
#471 = PLANE ( 'NONE',  #650 ) ;
#472 = VERTEX_POINT ( 'NONE', #123 ) ;
#473 = EDGE_CURVE ( 'NONE', #570, #582, #531, .T. ) ;
#474 = FACE_BOUND ( 'NONE', #144, .T. ) ;
#475 = AXIS2_PLACEMENT_3D ( 'NONE', #506, #291, #239 ) ;
#476 = ORIENTED_EDGE ( 'NONE', *, *, #241, .T. ) ;
#477 = PLANE ( 'NONE',  #63 ) ;
#478 = VERTEX_POINT ( 'NONE', #446 ) ;
#479 = DIRECTION ( 'NONE',  ( 0.000000000000000000, 0.000000000000000000, 1.000000000000000000 ) ) ;
#480 = EDGE_LOOP ( 'NONE', ( #572, #272, #470, #586 ) ) ;
#481 = EDGE_CURVE ( 'NONE', #391, #61, #219, .T. ) ;
#482 = APPLICATION_CONTEXT ( 'configuration controlled 3d designs of mechanical parts and assemblies' ) ;
#483 = FACE_OUTER_BOUND ( 'NONE', #480, .T. ) ;
#484 = ORIENTED_EDGE ( 'NONE', *, *, #275, .F. ) ;
#485 = CIRCLE ( 'NONE', #182, 10.00000000000000000 ) ;
#486 = DIRECTION ( 'NONE',  ( -1.734723475976807094E-16, 0.000000000000000000, -1.000000000000000000 ) ) ;
#487 = CIRCLE ( 'NONE', #226, 1.599999999999998090 ) ;
#488 = DIRECTION ( 'NONE',  ( 0.000000000000000000, -1.000000000000000000, 0.000000000000000000 ) ) ;
#489 = CARTESIAN_POINT ( 'NONE',  ( 38.50000000000001421, 5.000000000000000000, 0.000000000000000000 ) ) ;
#490 = DIRECTION ( 'NONE',  ( -1.000000000000000000, -0.000000000000000000, -0.000000000000000000 ) ) ;
#491 = ORIENTED_EDGE ( 'NONE', *, *, #557, .F. ) ;
#492 = DIRECTION ( 'NONE',  ( 0.000000000000000000, -1.000000000000000000, 0.000000000000000000 ) ) ;
#493 = EDGE_CURVE ( 'NONE', #61, #377, #162, .T. ) ;
#494 = PLANE ( 'NONE',  #564 ) ;
#495 = APPROVAL_STATUS ( 'not_yet_approved' ) ;
#496 = CARTESIAN_POINT ( 'NONE',  ( -45.99999999999999289, 0.000000000000000000, 0.000000000000000000 ) ) ;
#497 = APPROVAL_ROLE ( '' ) ;
#498 = DIRECTION ( 'NONE',  ( 0.000000000000000000, 0.000000000000000000, -1.000000000000000000 ) ) ;
#499 = ORIENTED_EDGE ( 'NONE', *, *, #264, .F. ) ;
#500 = EDGE_CURVE ( 'NONE', #28, #148, #213, .T. ) ;
#501 = APPLICATION_PROTOCOL_DEFINITION ( 'international standard', 'config_control_design', 1994, #482 ) ;
#502 = CARTESIAN_POINT ( 'NONE',  ( 46.00000000000000711, 5.000000000000000000, 10.00000000000000000 ) ) ;
#503 = VECTOR ( 'NONE', #542, 1000.000000000000000 ) ;
#504 = DIRECTION ( 'NONE',  ( -1.000000000000000000, 0.000000000000000000, 0.000000000000000000 ) ) ;
#505 = ORIENTED_EDGE ( 'NONE', *, *, #24, .T. ) ;
#506 = CARTESIAN_POINT ( 'NONE',  ( 0.000000000000000000, 0.000000000000000000, 0.000000000000000000 ) ) ;
#507 = CARTESIAN_POINT ( 'NONE',  ( 24.00000000000001421, 5.000000000000000000, -0.4499999999999990119 ) ) ;
#508 = EDGE_LOOP ( 'NONE', ( #206, #385, #624, #524, #433, #476, #637, #156 ) ) ;
#509 = CARTESIAN_POINT ( 'NONE',  ( 24.00000000000001421, 0.000000000000000000, -0.4499999999999990119 ) ) ;
#510 = CARTESIAN_POINT ( 'NONE',  ( -25.99999999999999289, 5.000000000000000000, 1.149999999999999023 ) ) ;
#511 = EDGE_CURVE ( 'NONE', #148, #319, #436, .T. ) ;
#512 = PERSON_AND_ORGANIZATION ( #289, #414 ) ;
#513 = ORIENTED_EDGE ( 'NONE', *, *, #120, .T. ) ;
#514 = DIRECTION ( 'NONE',  ( 0.000000000000000000, -1.000000000000000000, 0.000000000000000000 ) ) ;
#515 = CALENDAR_DATE ( 2025, 26, 9 ) ;
#516 = EDGE_LOOP ( 'NONE', ( #422, #513, #537, #534, #14 ) ) ;
#517 = LINE ( 'NONE', #60, #294 ) ;
#518 = ORIENTED_EDGE ( 'NONE', *, *, #511, .T. ) ;
#519 = EDGE_CURVE ( 'NONE', #415, #605, #544, .T. ) ;
#520 = DIRECTION ( 'NONE',  ( 0.000000000000000000, 0.000000000000000000, -1.000000000000000000 ) ) ;
#521 = ORIENTED_EDGE ( 'NONE', *, *, #70, .T. ) ;
#522 = MANIFOLD_SOLID_BREP ( 'Fillet5', #270 ) ;
#523 = ADVANCED_FACE ( 'NONE', ( #483 ), #168, .T. ) ;
#524 = ORIENTED_EDGE ( 'NONE', *, *, #81, .T. ) ;
#525 = VECTOR ( 'NONE', #27, 1000.000000000000000 ) ;
#526 = CARTESIAN_POINT ( 'NONE',  ( 24.00000000000001421, 0.000000000000000000, 1.150000000000002798 ) ) ;
#527 = FACE_OUTER_BOUND ( 'NONE', #55, .T. ) ;
#528 = EDGE_CURVE ( 'NONE', #472, #391, #357, .T. ) ;
#529 = ORIENTED_EDGE ( 'NONE', *, *, #493, .T. ) ;
#530 = DIRECTION ( 'NONE',  ( -0.000000000000000000, -1.000000000000000000, -0.000000000000000000 ) ) ;
#531 = LINE ( 'NONE', #25, #313 ) ;
#532 = ORIENTED_EDGE ( 'NONE', *, *, #222, .F. ) ;
#533 = DIRECTION ( 'NONE',  ( 0.000000000000000000, -1.000000000000000000, 0.000000000000000000 ) ) ;
#534 = ORIENTED_EDGE ( 'NONE', *, *, #90, .T. ) ;
#535 = SECURITY_CLASSIFICATION ( '', '', #297 ) ;
#536 = DIRECTION ( 'NONE',  ( 0.000000000000000000, 0.000000000000000000, 1.000000000000000000 ) ) ;
#537 = ORIENTED_EDGE ( 'NONE', *, *, #634, .T. ) ;
#538 = EDGE_CURVE ( 'NONE', #478, #212, #53, .T. ) ;
#539 = DIRECTION ( 'NONE',  ( -0.000000000000000000, 1.000000000000000000, -0.000000000000000000 ) ) ;
#540 = LINE ( 'NONE', #79, #503 ) ;
#541 = CC_DESIGN_DATE_AND_TIME_ASSIGNMENT ( #135, #349, ( #419 ) ) ;
#542 = DIRECTION ( 'NONE',  ( 0.000000000000000000, -1.000000000000000000, 0.000000000000000000 ) ) ;
#543 = AXIS2_PLACEMENT_3D ( 'NONE', #406, #352, #455 ) ;
#544 = CIRCLE ( 'NONE', #271, 2.799999999999998046 ) ;
#545 = DIRECTION ( 'NONE',  ( 0.000000000000000000, 0.000000000000000000, 1.000000000000000000 ) ) ;
#546 = CARTESIAN_POINT ( 'NONE',  ( 37.25000000000001421, 0.000000000000000000, 0.000000000000000000 ) ) ;
#547 = EDGE_CURVE ( 'NONE', #106, #208, #225, .T. ) ;
#548 = CARTESIAN_POINT ( 'NONE',  ( 37.25000000000001421, 40.00000000000000000, 0.000000000000000000 ) ) ;
#549 = DIRECTION ( 'NONE',  ( 1.000000000000000000, 0.000000000000000000, 0.000000000000000000 ) ) ;
#550 = ORIENTED_EDGE ( 'NONE', *, *, #589, .F. ) ;
#551 =( NAMED_UNIT ( * ) PLANE_ANGLE_UNIT ( ) SI_UNIT ( $, .RADIAN. ) );
#552 = CARTESIAN_POINT ( 'NONE',  ( 36.00000000000000000, 5.000000000000000000, -10.00000000000000000 ) ) ;
#553 = LOCAL_TIME ( 0, 57, 51.00000000000000000, #640 ) ;
#554 = AXIS2_PLACEMENT_3D ( 'NONE', #604, #420, #141 ) ;
#555 = VECTOR ( 'NONE', #45, 1000.000000000000000 ) ;
#556 = DIRECTION ( 'NONE',  ( -0.000000000000000000, 1.000000000000000000, -0.000000000000000000 ) ) ;
#557 = EDGE_CURVE ( 'NONE', #13, #265, #126, .T. ) ;
#558 = DIRECTION ( 'NONE',  ( 0.000000000000000000, 1.000000000000000000, 0.000000000000000000 ) ) ;
#559 = DIRECTION ( 'NONE',  ( -0.000000000000000000, 1.000000000000000000, -0.000000000000000000 ) ) ;
#560 = VERTEX_POINT ( 'NONE', #266 ) ;
#561 = CARTESIAN_POINT ( 'NONE',  ( 46.00000000000000711, 0.000000000000000000, 0.000000000000000000 ) ) ;
#562 = APPROVAL_ROLE ( '' ) ;
#563 = EDGE_LOOP ( 'NONE', ( #290, #302, #521, #140 ) ) ;
#564 = AXIS2_PLACEMENT_3D ( 'NONE', #343, #127, #341 ) ;
#565 = AXIS2_PLACEMENT_3D ( 'NONE', #110, #574, #320 ) ;
#566 = DIRECTION ( 'NONE',  ( 0.000000000000000000, 0.000000000000000000, -1.000000000000000000 ) ) ;
#567 = APPROVAL_PERSON_ORGANIZATION ( #358, #157, #562 ) ;
#568 = COORDINATED_UNIVERSAL_TIME_OFFSET ( 7, 0, .AHEAD. ) ;
#569 = ADVANCED_FACE ( 'NONE', ( #527 ), #15, .F. ) ;
#570 = VERTEX_POINT ( 'NONE', #636 ) ;
#571 = CARTESIAN_POINT ( 'NONE',  ( -35.99999999999999289, 0.000000000000000000, -10.00000000000000000 ) ) ;
#572 = ORIENTED_EDGE ( 'NONE', *, *, #528, .F. ) ;
#573 = LINE ( 'NONE', #293, #555 ) ;
#574 = DIRECTION ( 'NONE',  ( 0.000000000000000000, -1.000000000000000000, 0.000000000000000000 ) ) ;
#575 = FACE_BOUND ( 'NONE', #362, .T. ) ;
#576 = DIRECTION ( 'NONE',  ( 1.734723475976807094E-16, 0.000000000000000000, 1.000000000000000000 ) ) ;
#577 = AXIS2_PLACEMENT_3D ( 'NONE', #249, #378, #195 ) ;
#578 = VECTOR ( 'NONE', #490, 1000.000000000000000 ) ;
#579 = ORIENTED_EDGE ( 'NONE', *, *, #194, .T. ) ;
#580 = DIRECTION ( 'NONE',  ( 1.000000000000000000, 0.000000000000000000, -1.734723475976807094E-16 ) ) ;
#581 = DIRECTION ( 'NONE',  ( 0.000000000000000000, 0.000000000000000000, -1.000000000000000000 ) ) ;
#582 = VERTEX_POINT ( 'NONE', #449 ) ;
#583 = DIRECTION ( 'NONE',  ( -0.000000000000000000, -1.000000000000000000, 0.000000000000000000 ) ) ;
#584 = EDGE_LOOP ( 'NONE', ( #298, #312, #529, #376 ) ) ;
#585 = CARTESIAN_POINT ( 'NONE',  ( -25.99999999999999289, 0.000000000000000000, -0.4499999999999990119 ) ) ;
#586 = ORIENTED_EDGE ( 'NONE', *, *, #481, .F. ) ;
#587 = AXIS2_PLACEMENT_3D ( 'NONE', #105, #417, #314 ) ;
#588 = VECTOR ( 'NONE', #76, 1000.000000000000000 ) ;
#589 = EDGE_CURVE ( 'NONE', #212, #418, #592, .T. ) ;
#590 = DIRECTION ( 'NONE',  ( 0.000000000000000000, 1.000000000000000000, 0.000000000000000000 ) ) ;
#591 = DIRECTION ( 'NONE',  ( -0.000000000000000000, -1.000000000000000000, -0.000000000000000000 ) ) ;
#592 = LINE ( 'NONE', #216, #32 ) ;
#593 = LINE ( 'NONE', #347, #310 ) ;
#594 = EDGE_CURVE ( 'NONE', #319, #570, #441, .T. ) ;
#595 = COORDINATED_UNIVERSAL_TIME_OFFSET ( 7, 0, .AHEAD. ) ;
#596 = DIRECTION ( 'NONE',  ( 0.000000000000000000, 0.000000000000000000, 1.000000000000000000 ) ) ;
#597 = CIRCLE ( 'NONE', #83, 2.799999999999998046 ) ;
#598 = AXIS2_PLACEMENT_3D ( 'NONE', #625, #580, #486 ) ;
#599 = CARTESIAN_POINT ( 'NONE',  ( 38.50000000000001421, 5.000000000000000000, 10.00000000000000000 ) ) ;
#600 = DIRECTION ( 'NONE',  ( 0.000000000000000000, 0.000000000000000000, -1.000000000000000000 ) ) ;
#601 = ORIENTED_EDGE ( 'NONE', *, *, #324, .F. ) ;
#602 = CARTESIAN_POINT ( 'NONE',  ( 24.00000000000001421, 0.000000000000000000, -2.050000000000001155 ) ) ;
#603 = CARTESIAN_POINT ( 'NONE',  ( 46.00000000000000711, 5.000000000000000000, -10.00000000000000000 ) ) ;
#604 = CARTESIAN_POINT ( 'NONE',  ( 0.000000000000000000, 0.000000000000000000, 0.000000000000000000 ) ) ;
#605 = VERTEX_POINT ( 'NONE', #641 ) ;
#606 = ADVANCED_FACE ( 'NONE', ( #174 ), #398, .F. ) ;
#607 = VECTOR ( 'NONE', #520, 1000.000000000000000 ) ;
#608 = AXIS2_PLACEMENT_3D ( 'NONE', #273, #488, #581 ) ;
#609 = LINE ( 'NONE', #259, #204 ) ;
#610 = CARTESIAN_POINT ( 'NONE',  ( 24.00000000000001421, 5.000000000000000000, 1.150000000000002798 ) ) ;
#611 = VERTEX_POINT ( 'NONE', #599 ) ;
#612 = CARTESIAN_POINT ( 'NONE',  ( 37.25000000000001421, -5.000000000000004441, -2.799999999999998046 ) ) ;
#613 = PERSON_AND_ORGANIZATION_ROLE ( 'design_supplier' ) ;
#614 = ORIENTED_EDGE ( 'NONE', *, *, #324, .T. ) ;
#615 = EDGE_CURVE ( 'NONE', #430, #281, #335, .T. ) ;
#616 = DIRECTION ( 'NONE',  ( 0.000000000000000000, 1.000000000000000000, 0.000000000000000000 ) ) ;
#617 = ORIENTED_EDGE ( 'NONE', *, *, #493, .F. ) ;
#618 = AXIS2_PLACEMENT_3D ( 'NONE', #177, #401, #596 ) ;
#619 = LINE ( 'NONE', #468, #321 ) ;
#620 = ORIENTED_EDGE ( 'NONE', *, *, #179, .F. ) ;
#621 = SHAPE_DEFINITION_REPRESENTATION ( #396, #5 ) ;
#622 = ORIENTED_EDGE ( 'NONE', *, *, #538, .T. ) ;
#623 = CYLINDRICAL_SURFACE ( 'NONE', #112, 1.599999999999998090 ) ;
#624 = ORIENTED_EDGE ( 'NONE', *, *, #500, .F. ) ;
#625 = CARTESIAN_POINT ( 'NONE',  ( 28.50000000000001421, 40.00000000000000000, -10.00000000000000000 ) ) ;
#626 = EDGE_CURVE ( 'NONE', #319, #472, #80, .T. ) ;
#627 = FACE_OUTER_BOUND ( 'NONE', #371, .T. ) ;
#628 = VECTOR ( 'NONE', #530, 1000.000000000000000 ) ;
#629 = ORIENTED_EDGE ( 'NONE', *, *, #390, .T. ) ;
#630 = ORIENTED_EDGE ( 'NONE', *, *, #137, .T. ) ;
#631 = DIRECTION ( 'NONE',  ( -0.000000000000000000, 1.000000000000000000, -0.000000000000000000 ) ) ;
#632 = ORIENTED_EDGE ( 'NONE', *, *, #473, .T. ) ;
#633 = CARTESIAN_POINT ( 'NONE',  ( -45.99999999999999289, 0.000000000000000000, 10.00000000000000000 ) ) ;
#634 = EDGE_CURVE ( 'NONE', #274, #329, #656, .T. ) ;
#635 = EDGE_LOOP ( 'NONE', ( #153, #134, #47, #118, #617, #167 ) ) ;
#636 = CARTESIAN_POINT ( 'NONE',  ( 28.50000000000001776, 5.000000000000000000, 1.734723475976807094E-15 ) ) ;
#637 = ORIENTED_EDGE ( 'NONE', *, *, #547, .T. ) ;
#638 = CIRCLE ( 'NONE', #577, 1.599999999999998090 ) ;
#639 = VECTOR ( 'NONE', #119, 1000.000000000000000 ) ;
#640 = COORDINATED_UNIVERSAL_TIME_OFFSET ( 7, 0, .AHEAD. ) ;
#641 = CARTESIAN_POINT ( 'NONE',  ( 37.25000000000001421, 0.000000000000000000, 2.799999999999998046 ) ) ;
#642 = CYLINDRICAL_SURFACE ( 'NONE', #159, 2.799999999999998046 ) ;
#643 = ADVANCED_FACE ( 'NONE', ( #460 ), #185, .F. ) ;
#644 = APPROVAL_DATE_TIME ( #428, #304 ) ;
#645 = PERSON_AND_ORGANIZATION_ROLE ( 'design_owner' ) ;
#646 = CARTESIAN_POINT ( 'NONE',  ( -45.99999999999999289, 5.000000000000000000, 10.00000000000000000 ) ) ;
#647 = ORIENTED_EDGE ( 'NONE', *, *, #264, .T. ) ;
#648 = PERSON_AND_ORGANIZATION_ROLE ( 'creator' ) ;
#649 = DIRECTION ( 'NONE',  ( 0.000000000000000000, 0.000000000000000000, 1.000000000000000000 ) ) ;
#650 = AXIS2_PLACEMENT_3D ( 'NONE', #201, #244, #57 ) ;
#651 = ORIENTED_EDGE ( 'NONE', *, *, #222, .T. ) ;
#652 = AXIS2_PLACEMENT_3D ( 'NONE', #113, #492, #386 ) ;
#653 = VECTOR ( 'NONE', #279, 1000.000000000000000 ) ;
#654 =( LENGTH_UNIT ( ) NAMED_UNIT ( * ) SI_UNIT ( .MILLI., .METRE. ) );
#655 = DIRECTION ( 'NONE',  ( 0.000000000000000000, 0.000000000000000000, 1.000000000000000000 ) ) ;
#656 = LINE ( 'NONE', #237, #41 ) ;
#657 = FACE_OUTER_BOUND ( 'NONE', #442, .T. ) ;
#658 = EDGE_CURVE ( 'NONE', #217, #418, #487, .T. ) ;
#659 = VERTEX_POINT ( 'NONE', #602 ) ;
#660 = FACE_BOUND ( 'NONE', #192, .T. ) ;
#661 = ORIENTED_EDGE ( 'NONE', *, *, #658, .F. ) ;
#662 = LOCAL_TIME ( 0, 57, 51.00000000000000000, #568 ) ;
#663 = DIRECTION ( 'NONE',  ( -0.000000000000000000, 1.000000000000000000, -0.000000000000000000 ) ) ;
ENDSEC;
END-ISO-10303-21;
