ISO-10303-21;
HEADER;
FILE_DESCRIPTION (( 'STEP AP203' ),
    '1' );
FILE_NAME ('Bumper_Chassis.STEP',
    '2025-09-11T12:55:20',
    ( '' ),
    ( '' ),
    'SwSTEP 2.0',
    'SolidWorks 2025',
    '' );
FILE_SCHEMA (( 'CONFIG_CONTROL_DESIGN' ));
ENDSEC;

DATA;
#1 =( GEOMETRIC_REPRESENTATION_CONTEXT ( 3 ) GLOBAL_UNCERTAINTY_ASSIGNED_CONTEXT ( ( #750 ) ) GLOBAL_UNIT_ASSIGNED_CONTEXT ( ( #487, #891, #730 ) ) REPRESENTATION_CONTEXT ( 'NONE', 'WORKASPACE' ) );
#2 = DIRECTION ( 'NONE',  ( 0.000000000000000000, 1.000000000000000000, 0.000000000000000000 ) ) ;
#3 = ORIENTED_EDGE ( 'NONE', *, *, #661, .F. ) ;
#4 = VECTOR ( 'NONE', #274, 1000.000000000000000 ) ;
#5 = CARTESIAN_POINT ( 'NONE',  ( -41.99839981628935703, 0.000000000000000000, 4.053144127341053782 ) ) ;
#6 = CARTESIAN_POINT ( 'NONE',  ( 36.92639375715585714, 0.000000000000000000, 6.301389427546009614 ) ) ;
#7 = PLANE ( 'NONE',  #94 ) ;
#8 = PERSON_AND_ORGANIZATION ( #104, #961 ) ;
#9 = CYLINDRICAL_SURFACE ( 'NONE', #127, 4.000000000000000888 ) ;
#10 = ORIENTED_EDGE ( 'NONE', *, *, #951, .T. ) ;
#11 = EDGE_CURVE ( 'NONE', #95, #616, #865, .T. ) ;
#12 = ORIENTED_EDGE ( 'NONE', *, *, #59, .F. ) ;
#13 = DIRECTION ( 'NONE',  ( 0.000000000000000000, 0.000000000000000000, 1.000000000000000000 ) ) ;
#14 = APPROVAL_PERSON_ORGANIZATION ( #295, #283, #155 ) ;
#15 = ORIENTED_EDGE ( 'NONE', *, *, #936, .T. ) ;
#16 = ADVANCED_FACE ( 'NONE', ( #468 ), #7, .T. ) ;
#17 = EDGE_LOOP ( 'NONE', ( #762, #557, #509, #842 ) ) ;
#18 = LINE ( 'NONE', #169, #508 ) ;
#19 = PLANE ( 'NONE',  #652 ) ;
#20 = ORIENTED_EDGE ( 'NONE', *, *, #680, .F. ) ;
#21 = CARTESIAN_POINT ( 'NONE',  ( -41.99980406863909366, 0.000000000000000000, 6.054196454599364507 ) ) ;
#22 = ADVANCED_FACE ( 'NONE', ( #391 ), #464, .F. ) ;
#23 = DIRECTION ( 'NONE',  ( -0.000000000000000000, -1.000000000000000000, -0.000000000000000000 ) ) ;
#24 = CARTESIAN_POINT ( 'NONE',  ( 0.000000000000000000, 0.000000000000000000, -27.94861057245399394 ) ) ;
#25 = VERTEX_POINT ( 'NONE', #474 ) ;
#26 = DIRECTION ( 'NONE',  ( -0.000000000000000000, -1.000000000000000000, -0.000000000000000000 ) ) ;
#27 = EDGE_CURVE ( 'NONE', #723, #917, #785, .T. ) ;
#28 = LINE ( 'NONE', #334, #853 ) ;
#29 = AXIS2_PLACEMENT_3D ( 'NONE', #794, #102, #719 ) ;
#30 = CARTESIAN_POINT ( 'NONE',  ( 46.00300394292607820, 0.000000000000000000, 2.051390412471657765 ) ) ;
#31 = AXIS2_PLACEMENT_3D ( 'NONE', #527, #841, #149 ) ;
#32 = ORIENTED_EDGE ( 'NONE', *, *, #996, .T. ) ;
#33 = CARTESIAN_POINT ( 'NONE',  ( 37.99999999999999289, 54.20000000000000284, 6.301389427546009614 ) ) ;
#34 = CARTESIAN_POINT ( 'NONE',  ( -62.00000000003753797, -6.938893903907228378E-15, -21.14861057245323650 ) ) ;
#35 = CARTESIAN_POINT ( 'NONE',  ( 46.00019691587366566, 0.000000000000000000, 2.051389427546427502 ) ) ;
#36 = EDGE_LOOP ( 'NONE', ( #171, #542 ) ) ;
#37 = DIRECTION ( 'NONE',  ( 0.000000000000000000, 0.000000000000000000, 1.000000000000000000 ) ) ;
#38 = DIRECTION ( 'NONE',  ( 0.000000000000000000, 0.000000000000000000, 1.000000000000000000 ) ) ;
#39 = CARTESIAN_POINT ( 'NONE',  ( 38.00300492650742967, 54.20000000000000284, 2.051389427546411071 ) ) ;
#40 = VERTEX_POINT ( 'NONE', #706 ) ;
#41 = ADVANCED_FACE ( 'NONE', ( #309 ), #19, .T. ) ;
#42 = DIRECTION ( 'NONE',  ( 1.000000000000000000, -0.000000000000000000, 0.000000000000000000 ) ) ;
#43 = CARTESIAN_POINT ( 'NONE',  ( 36.92639375715585714, 2.775557561562891351E-14, 6.301389427546009614 ) ) ;
#44 = DIRECTION ( 'NONE',  ( 0.000000000000000000, 0.000000000000000000, -1.000000000000000000 ) ) ;
#45 = ORIENTED_EDGE ( 'NONE', *, *, #319, .F. ) ;
#46 = VECTOR ( 'NONE', #277, 1000.000000000000000 ) ;
#47 = CARTESIAN_POINT ( 'NONE',  ( -45.99980308369510595, 54.19999999999999574, 2.051389427546936428 ) ) ;
#48 = EDGE_CURVE ( 'NONE', #529, #326, #143, .T. ) ;
#49 = CARTESIAN_POINT ( 'NONE',  ( -70.00000000000000000, 54.20000000000000284, 2.207829878515937048E-14 ) ) ;
#50 = VECTOR ( 'NONE', #959, 1000.000000000000000 ) ;
#51 = CARTESIAN_POINT ( 'NONE',  ( 45.99832545496906278, 54.20000000000000995, 10.05138909916123424 ) ) ;
#52 = ORIENTED_EDGE ( 'NONE', *, *, #308, .T. ) ;
#53 = PLANE ( 'NONE',  #470 ) ;
#54 = ADVANCED_FACE ( 'NONE', ( #249 ), #549, .F. ) ;
#55 = CARTESIAN_POINT ( 'NONE',  ( 0.000000000000000000, 54.20000000000000284, -2.722566187309705121 ) ) ;
#56 = ORIENTED_EDGE ( 'NONE', *, *, #77, .F. ) ;
#57 = LINE ( 'NONE', #207, #671 ) ;
#58 = DIRECTION ( 'NONE',  ( -3.154042683594196107E-16, 0.000000000000000000, -1.000000000000000000 ) ) ;
#59 = EDGE_CURVE ( 'NONE', #802, #864, #717, .T. ) ;
#60 = CARTESIAN_POINT ( 'NONE',  ( 45.99738988882125312, 0.000000000000000000, 10.05138844262119946 ) ) ;
#61 = ORIENTED_EDGE ( 'NONE', *, *, #734, .T. ) ;
#62 = AXIS2_PLACEMENT_3D ( 'NONE', #198, #265, #896 ) ;
#63 = PLANE ( 'NONE',  #632 ) ;
#64 = CARTESIAN_POINT ( 'NONE',  ( -42.99999999999999289, 0.000000000000000000, -2.722566187309705121 ) ) ;
#65 = APPROVAL ( #519, 'UNSPECIFIED' ) ;
#66 = ORIENTED_EDGE ( 'NONE', *, *, #407, .F. ) ;
#67 = COORDINATED_UNIVERSAL_TIME_OFFSET ( 7, 0, .AHEAD. ) ;
#68 = LINE ( 'NONE', #504, #46 ) ;
#69 = LINE ( 'NONE', #303, #471 ) ;
#70 = ORIENTED_EDGE ( 'NONE', *, *, #514, .T. ) ;
#71 = DATE_AND_TIME ( #76, #472 ) ;
#72 = EDGE_CURVE ( 'NONE', #538, #565, #237, .T. ) ;
#73 = DIRECTION ( 'NONE',  ( 0.000000000000000000, 1.000000000000000000, -0.000000000000000000 ) ) ;
#74 = CARTESIAN_POINT ( 'NONE',  ( -56.65464248979756690, 0.000000000000000000, -2.722566187309705121 ) ) ;
#75 = ORIENTED_EDGE ( 'NONE', *, *, #359, .F. ) ;
#76 = CALENDAR_DATE ( 2025, 11, 9 ) ;
#77 = EDGE_CURVE ( 'NONE', #857, #146, #550, .T. ) ;
#78 = FACE_OUTER_BOUND ( 'NONE', #623, .T. ) ;
#79 = CIRCLE ( 'NONE', #635, 2.799999999999993605 ) ;
#80 = DIRECTION ( 'NONE',  ( 0.000000000000000000, 1.000000000000000000, 0.000000000000000000 ) ) ;
#81 = CARTESIAN_POINT ( 'NONE',  ( 61.99999999938118833, -6.938893903907228378E-15, -23.94861057245328695 ) ) ;
#82 = PERSON_AND_ORGANIZATION_ROLE ( 'design_owner' ) ;
#83 = AXIS2_PLACEMENT_3D ( 'NONE', #252, #878, #496 ) ;
#84 = FACE_OUTER_BOUND ( 'NONE', #714, .T. ) ;
#85 = EDGE_CURVE ( 'NONE', #536, #451, #480, .T. ) ;
#86 = CARTESIAN_POINT ( 'NONE',  ( -62.00000000003753797, 54.20000000000000284, -21.14861057245323650 ) ) ;
#87 = EDGE_LOOP ( 'NONE', ( #216, #924, #481, #811 ) ) ;
#88 = ORIENTED_EDGE ( 'NONE', *, *, #888, .F. ) ;
#89 = CARTESIAN_POINT ( 'NONE',  ( -62.00000000003753797, -6.938893903907228378E-15, -23.94861057245323366 ) ) ;
#90 = EDGE_CURVE ( 'NONE', #895, #920, #492, .T. ) ;
#91 = CARTESIAN_POINT ( 'NONE',  ( -70.00000000000000000, 54.20000000000000284, 2.207829878515937048E-14 ) ) ;
#92 = ORIENTED_EDGE ( 'NONE', *, *, #761, .T. ) ;
#93 = CARTESIAN_POINT ( 'NONE',  ( 37.99999999999999289, 0.000000000000000000, 6.301389427546009614 ) ) ;
#94 = AXIS2_PLACEMENT_3D ( 'NONE', #782, #713, #556 ) ;
#95 = VERTEX_POINT ( 'NONE', #349 ) ;
#96 = EDGE_LOOP ( 'NONE', ( #845, #393 ) ) ;
#97 = AXIS2_PLACEMENT_3D ( 'NONE', #81, #100, #400 ) ;
#98 = EDGE_CURVE ( 'NONE', #729, #475, #879, .T. ) ;
#99 = DIRECTION ( 'NONE',  ( 0.000000000000000000, -1.000000000000000000, 0.000000000000000000 ) ) ;
#100 = DIRECTION ( 'NONE',  ( -0.000000000000000000, 1.000000000000000000, -0.000000000000000000 ) ) ;
#101 = ORIENTED_EDGE ( 'NONE', *, *, #502, .T. ) ;
#102 = DIRECTION ( 'NONE',  ( -0.000000000000000000, -1.000000000000000000, 0.000000000000000000 ) ) ;
#103 = CARTESIAN_POINT ( 'NONE',  ( 46.00019691587366566, 54.20000000000000284, 2.051389427546427502 ) ) ;
#104 = PERSON ( 'UNSPECIFIED', 'UNSPECIFIED', 'UNSPECIFIED', ('UNSPECIFIED'), ('UNSPECIFIED'), ('UNSPECIFIED') ) ;
#105 = ORIENTED_EDGE ( 'NONE', *, *, #497, .T. ) ;
#106 = FACE_BOUND ( 'NONE', #829, .T. ) ;
#107 = DIRECTION ( 'NONE',  ( 0.000000000000000000, 0.000000000000000000, -1.000000000000000000 ) ) ;
#108 = CARTESIAN_POINT ( 'NONE',  ( 46.00019691587366566, 54.20000000000000284, 2.051389427546427502 ) ) ;
#109 = EDGE_LOOP ( 'NONE', ( #984, #593, #345, #710 ) ) ;
#110 = VECTOR ( 'NONE', #922, 1000.000000000000000 ) ;
#111 = VECTOR ( 'NONE', #215, 1000.000000000000000 ) ;
#112 = CARTESIAN_POINT ( 'NONE',  ( 56.65464248979756690, 54.20000000000000284, -27.94861057245399394 ) ) ;
#113 = EDGE_CURVE ( 'NONE', #377, #648, #335, .T. ) ;
#114 = LINE ( 'NONE', #422, #302 ) ;
#115 = VERTEX_POINT ( 'NONE', #118 ) ;
#116 = CYLINDRICAL_SURFACE ( 'NONE', #361, 2.799999999999997158 ) ;
#117 = DIRECTION ( 'NONE',  ( 0.000000000000000000, 1.000000000000000000, 0.000000000000000000 ) ) ;
#118 = CARTESIAN_POINT ( 'NONE',  ( 61.99999999938118833, -6.938893903907228378E-15, -21.14861057245329334 ) ) ;
#119 = ADVANCED_FACE ( 'NONE', ( #259, #638, #569, #417, #123 ), #722, .T. ) ;
#120 = ORIENTED_EDGE ( 'NONE', *, *, #175, .T. ) ;
#121 = FACE_OUTER_BOUND ( 'NONE', #513, .T. ) ;
#122 = CARTESIAN_POINT ( 'NONE',  ( -60.00000000000001421, 54.20000000000000284, 16.05138942754599896 ) ) ;
#123 = FACE_OUTER_BOUND ( 'NONE', #946, .T. ) ;
#124 = ORIENTED_EDGE ( 'NONE', *, *, #666, .T. ) ;
#125 = AXIS2_PLACEMENT_3D ( 'NONE', #353, #449, #348 ) ;
#126 = DIRECTION ( 'NONE',  ( 1.000000000000000000, -0.000000000000000000, 0.000000000000000000 ) ) ;
#127 = AXIS2_PLACEMENT_3D ( 'NONE', #165, #850, #926 ) ;
#128 = CARTESIAN_POINT ( 'NONE',  ( 37.99999999999999289, 54.20000000000000284, 0.000000000000000000 ) ) ;
#129 = CARTESIAN_POINT ( 'NONE',  ( -70.00000000000000000, 54.20000000000000284, 6.051389427546002509 ) ) ;
#130 = ORIENTED_EDGE ( 'NONE', *, *, #877, .F. ) ;
#131 = EDGE_CURVE ( 'NONE', #377, #802, #114, .T. ) ;
#132 = AXIS2_PLACEMENT_3D ( 'NONE', #903, #969, #665 ) ;
#133 = CARTESIAN_POINT ( 'NONE',  ( -56.65464248979756690, 0.000000000000000000, 0.000000000000000000 ) ) ;
#134 = LINE ( 'NONE', #987, #191 ) ;
#135 = ORIENTED_EDGE ( 'NONE', *, *, #539, .T. ) ;
#136 = PERSON_AND_ORGANIZATION_ROLE ( 'classification_officer' ) ;
#137 = DIRECTION ( 'NONE',  ( -0.000000000000000000, -1.000000000000000000, 0.000000000000000000 ) ) ;
#138 = CARTESIAN_POINT ( 'NONE',  ( -45.99980308369510595, 54.19999999999999574, 2.051389427546936428 ) ) ;
#139 = ORIENTED_EDGE ( 'NONE', *, *, #27, .T. ) ;
#140 = COORDINATED_UNIVERSAL_TIME_OFFSET ( 7, 0, .AHEAD. ) ;
#141 =( BOUNDED_CURVE ( )  B_SPLINE_CURVE ( 3, ( #595, #148, #764, #218, #749, #990, #840 ),
 .UNSPECIFIED., .F., .F. ) 
 B_SPLINE_CURVE_WITH_KNOTS ( ( 4, 3, 4 ),
 ( 0.7500877196061879193, 1.000000000000000000, 1.250087719606187919 ),
 .UNSPECIFIED. ) 
 CURVE ( )  GEOMETRIC_REPRESENTATION_ITEM ( )  RATIONAL_B_SPLINE_CURVE ( ( 0.5000000615578346075, 0.5001169799941954652, 0.6667836261415839294, 1.000000000000000000, 0.6665497071917494409, 0.4998830610443609768, 0.5000000615578346075 ) ) 
 REPRESENTATION_ITEM ( '' )  );
#142 = EDGE_LOOP ( 'NONE', ( #691, #20, #614, #270 ) ) ;
#143 = CIRCLE ( 'NONE', #742, 2.799999999999997158 ) ;
#144 = CARTESIAN_POINT ( 'NONE',  ( 70.00000000000000000, 54.20000000000000284, 2.207829878515937048E-14 ) ) ;
#145 = EDGE_CURVE ( 'NONE', #861, #814, #651, .T. ) ;
#146 = VERTEX_POINT ( 'NONE', #485 ) ;
#147 = SHAPE_DEFINITION_REPRESENTATION ( #778, #296 ) ;
#148 = CARTESIAN_POINT ( 'NONE',  ( -48.66491054603898903, 54.19999999999999574, 2.051389427546935540 ) ) ;
#149 = DIRECTION ( 'NONE',  ( 0.000000000000000000, 0.000000000000000000, 1.000000000000000000 ) ) ;
#150 = ORIENTED_EDGE ( 'NONE', *, *, #48, .F. ) ;
#151 = VERTEX_POINT ( 'NONE', #340 ) ;
#152 = CARTESIAN_POINT ( 'NONE',  ( -45.99980308369511306, 54.19999999999999574, 10.05138942754693687 ) ) ;
#153 = DIRECTION ( 'NONE',  ( 0.000000000000000000, 0.000000000000000000, 1.000000000000000000 ) ) ;
#154 = ORIENTED_EDGE ( 'NONE', *, *, #767, .F. ) ;
#155 = APPROVAL_ROLE ( '' ) ;
#156 = CC_DESIGN_DATE_AND_TIME_ASSIGNMENT ( #757, #839, ( #554 ) ) ;
#157 = CARTESIAN_POINT ( 'NONE',  ( -45.99980308369511306, 0.000000000000000000, 10.05138942754693687 ) ) ;
#158 = AXIS2_PLACEMENT_3D ( 'NONE', #558, #872, #183 ) ;
#159 = AXIS2_PLACEMENT_3D ( 'NONE', #646, #500, #420 ) ;
#160 = DIRECTION ( 'NONE',  ( 0.000000000000000000, 1.000000000000000000, -0.000000000000000000 ) ) ;
#161 = ORIENTED_EDGE ( 'NONE', *, *, #234, .T. ) ;
#162 = APPLICATION_CONTEXT ( 'configuration controlled 3d designs of mechanical parts and assemblies' ) ;
#163 = VERTEX_POINT ( 'NONE', #185 ) ;
#164 = EDGE_CURVE ( 'NONE', #405, #322, #196, .T. ) ;
#165 = CARTESIAN_POINT ( 'NONE',  ( 46.00019691587365855, 0.000000000000000000, 6.051389427546428834 ) ) ;
#166 = MANIFOLD_SOLID_BREP ( 'Cut-Extrude3', #493 ) ;
#167 = DIRECTION ( 'NONE',  ( 0.000000000000000000, 0.000000000000000000, 1.000000000000000000 ) ) ;
#168 = EDGE_LOOP ( 'NONE', ( #577, #766, #124, #825 ) ) ;
#169 = CARTESIAN_POINT ( 'NONE',  ( -37.99999999999999289, 54.20000000000000284, 6.301389427546009614 ) ) ;
#170 = VERTEX_POINT ( 'NONE', #278 ) ;
#171 = ORIENTED_EDGE ( 'NONE', *, *, #462, .T. ) ;
#172 = FACE_OUTER_BOUND ( 'NONE', #401, .T. ) ;
#173 = VECTOR ( 'NONE', #44, 1000.000000000000000 ) ;
#174 = EDGE_LOOP ( 'NONE', ( #372, #460, #52, #930 ) ) ;
#175 = EDGE_CURVE ( 'NONE', #547, #322, #654, .T. ) ;
#176 = AXIS2_PLACEMENT_3D ( 'NONE', #89, #315, #307 ) ;
#177 = ORIENTED_EDGE ( 'NONE', *, *, #789, .F. ) ;
#178 = CARTESIAN_POINT ( 'NONE',  ( -43.33157670202864864, 0.000000000000000000, 2.051389427546939093 ) ) ;
#179 = DIRECTION ( 'NONE',  ( 0.000000000000000000, 0.000000000000000000, -1.000000000000000000 ) ) ;
#180 = CARTESIAN_POINT ( 'NONE',  ( 46.00019691587694837, 0.000000000000000000, 10.05138942754642883 ) ) ;
#181 = AXIS2_PLACEMENT_3D ( 'NONE', #416, #882, #179 ) ;
#182 = ORIENTED_EDGE ( 'NONE', *, *, #497, .F. ) ;
#183 = DIRECTION ( 'NONE',  ( 0.000000000000000000, 0.000000000000000000, 1.000000000000000000 ) ) ;
#184 = CARTESIAN_POINT ( 'NONE',  ( 38.00000000000000711, 2.775557561562891351E-14, 6.301389427546009614 ) ) ;
#185 = CARTESIAN_POINT ( 'NONE',  ( -70.00000000000001421, 0.000000000000000000, -27.94861057245399394 ) ) ;
#186 = VERTEX_POINT ( 'NONE', #889 ) ;
#187 = CARTESIAN_POINT ( 'NONE',  ( 56.65464248979756690, 0.000000000000000000, -27.94861057245399394 ) ) ;
#188 = EDGE_CURVE ( 'NONE', #146, #536, #200, .T. ) ;
#189 = FACE_OUTER_BOUND ( 'NONE', #434, .T. ) ;
#190 = CARTESIAN_POINT ( 'NONE',  ( -48.66491054603898903, 0.000000000000000000, 2.051389427546935540 ) ) ;
#191 = VECTOR ( 'NONE', #893, 1000.000000000000000 ) ;
#192 = VERTEX_POINT ( 'NONE', #796 ) ;
#193 = APPLICATION_PROTOCOL_DEFINITION ( 'international standard', 'config_control_design', 1994, #162 ) ;
#194 = EDGE_CURVE ( 'NONE', #285, #674, #227, .T. ) ;
#195 = LINE ( 'NONE', #653, #968 ) ;
#196 = LINE ( 'NONE', #498, #173 ) ;
#197 = ORIENTED_EDGE ( 'NONE', *, *, #403, .T. ) ;
#198 = CARTESIAN_POINT ( 'NONE',  ( 0.000000000000000000, 0.000000000000000000, -2.722566187309705121 ) ) ;
#199 = LINE ( 'NONE', #641, #540 ) ;
#200 = LINE ( 'NONE', #501, #708 ) ;
#201 = EDGE_CURVE ( 'NONE', #960, #360, #210, .T. ) ;
#202 = VERTEX_POINT ( 'NONE', #596 ) ;
#203 = FACE_OUTER_BOUND ( 'NONE', #928, .T. ) ;
#204 = DIRECTION ( 'NONE',  ( -0.000000000000000000, 1.000000000000000000, -0.000000000000000000 ) ) ;
#205 = ORIENTED_EDGE ( 'NONE', *, *, #145, .F. ) ;
#206 = PRODUCT_DEFINITION_FORMATION_WITH_SPECIFIED_SOURCE ( 'ANY', '', #572, .NOT_KNOWN. ) ;
#207 = CARTESIAN_POINT ( 'NONE',  ( 0.000000000000000000, 54.20000000000000284, -27.94861057245399394 ) ) ;
#208 = VECTOR ( 'NONE', #478, 1000.000000000000000 ) ;
#209 = DIRECTION ( 'NONE',  ( 0.000000000000000000, 0.000000000000000000, 1.000000000000000000 ) ) ;
#210 = LINE ( 'NONE', #366, #223 ) ;
#211 = ORIENTED_EDGE ( 'NONE', *, *, #539, .F. ) ;
#212 = COORDINATED_UNIVERSAL_TIME_OFFSET ( 7, 0, .AHEAD. ) ;
#213 = APPROVAL ( #447, 'UNSPECIFIED' ) ;
#214 = LINE ( 'NONE', #426, #925 ) ;
#215 = DIRECTION ( 'NONE',  ( 0.000000000000000000, 1.000000000000000000, -0.000000000000000000 ) ) ;
#216 = ORIENTED_EDGE ( 'NONE', *, *, #98, .T. ) ;
#217 = PERSON_AND_ORGANIZATION ( #104, #961 ) ;
#218 = CARTESIAN_POINT ( 'NONE',  ( -49.99980209875113246, 54.20000000000000284, 6.048582400494510125 ) ) ;
#219 = ADVANCED_FACE ( 'NONE', ( #592 ), #904, .T. ) ;
#220 = CARTESIAN_POINT ( 'NONE',  ( 46.00206837678045702, 54.19999999999999574, 2.051389755931626091 ) ) ;
#221 = ORIENTED_EDGE ( 'NONE', *, *, #510, .F. ) ;
#222 = APPROVAL_ROLE ( '' ) ;
#223 = VECTOR ( 'NONE', #689, 1000.000000000000000 ) ;
#224 = DIRECTION ( 'NONE',  ( 1.000000000000000000, 0.000000000000000000, 0.000000000000000000 ) ) ;
#225 = AXIS2_PLACEMENT_3D ( 'NONE', #784, #160, #13 ) ;
#226 = EDGE_CURVE ( 'NONE', #316, #186, #792, .T. ) ;
#227 = LINE ( 'NONE', #64, #268 ) ;
#228 = ORIENTED_EDGE ( 'NONE', *, *, #234, .F. ) ;
#229 = SECURITY_CLASSIFICATION_LEVEL ( 'unclassified' ) ;
#230 = ORIENTED_EDGE ( 'NONE', *, *, #702, .F. ) ;
#231 = DIRECTION ( 'NONE',  ( -1.000000000000000000, 0.000000000000000000, -0.000000000000000000 ) ) ;
#232 = DIRECTION ( 'NONE',  ( 0.000000000000000000, -1.000000000000000000, 0.000000000000000000 ) ) ;
#233 = ORIENTED_EDGE ( 'NONE', *, *, #476, .F. ) ;
#234 = EDGE_CURVE ( 'NONE', #146, #857, #515, .T. ) ;
#235 = CARTESIAN_POINT ( 'NONE',  ( 46.00019691587365855, 0.000000000000000000, 6.051389427546428834 ) ) ;
#236 = FACE_OUTER_BOUND ( 'NONE', #756, .T. ) ;
#237 = LINE ( 'NONE', #801, #50 ) ;
#238 = EDGE_CURVE ( 'NONE', #285, #40, #677, .T. ) ;
#239 = ORIENTED_EDGE ( 'NONE', *, *, #888, .T. ) ;
#240 = CARTESIAN_POINT ( 'NONE',  ( 36.92639375715585714, 0.000000000000000000, 6.301389427546009614 ) ) ;
#241 = VECTOR ( 'NONE', #517, 1000.000000000000000 ) ;
#242 = ORIENTED_EDGE ( 'NONE', *, *, #131, .F. ) ;
#243 = ORIENTED_EDGE ( 'NONE', *, *, #291, .T. ) ;
#244 = DIRECTION ( 'NONE',  ( 0.000000000000000000, 0.000000000000000000, 1.000000000000000000 ) ) ;
#245 = ORIENTED_EDGE ( 'NONE', *, *, #567, .T. ) ;
#246 = ORIENTED_EDGE ( 'NONE', *, *, #863, .F. ) ;
#247 = EDGE_CURVE ( 'NONE', #192, #729, #69, .T. ) ;
#248 = DIRECTION ( 'NONE',  ( 1.000000000000000000, -0.000000000000000000, 0.000000000000000000 ) ) ;
#249 = FACE_OUTER_BOUND ( 'NONE', #168, .T. ) ;
#250 = ORIENTED_EDGE ( 'NONE', *, *, #715, .F. ) ;
#251 = VECTOR ( 'NONE', #26, 1000.000000000000000 ) ;
#252 = CARTESIAN_POINT ( 'NONE',  ( -60.00000000000001421, 54.20000000000000284, 6.051389427545998956 ) ) ;
#253 = AXIS2_PLACEMENT_3D ( 'NONE', #765, #444, #586 ) ;
#254 = EDGE_CURVE ( 'NONE', #25, #917, #355, .T. ) ;
#255 = ORIENTED_EDGE ( 'NONE', *, *, #175, .F. ) ;
#256 = ORIENTED_EDGE ( 'NONE', *, *, #437, .F. ) ;
#257 = CARTESIAN_POINT ( 'NONE',  ( 0.000000000000000000, 54.20000000000000284, -2.722566187309705121 ) ) ;
#258 = CARTESIAN_POINT ( 'NONE',  ( 38.00000000000000711, 54.20000000000000284, 6.301389427546009614 ) ) ;
#259 = FACE_BOUND ( 'NONE', #581, .T. ) ;
#260 = ORIENTED_EDGE ( 'NONE', *, *, #819, .T. ) ;
#261 = DIRECTION ( 'NONE',  ( 0.000000000000000000, 0.000000000000000000, 1.000000000000000000 ) ) ;
#262 = LINE ( 'NONE', #34, #932 ) ;
#263 = CARTESIAN_POINT ( 'NONE',  ( 46.00206837678045702, 0.000000000000000000, 2.051389755931626091 ) ) ;
#264 = ORIENTED_EDGE ( 'NONE', *, *, #403, .F. ) ;
#265 = DIRECTION ( 'NONE',  ( 0.000000000000000000, 0.000000000000000000, 1.000000000000000000 ) ) ;
#266 = ADVANCED_FACE ( 'NONE', ( #438 ), #450, .T. ) ;
#267 = CYLINDRICAL_SURFACE ( 'NONE', #181, 5.000000000000000000 ) ;
#268 = VECTOR ( 'NONE', #900, 1000.000000000000000 ) ;
#269 = DIRECTION ( 'NONE',  ( 0.000000000000000000, 0.000000000000000000, -1.000000000000000000 ) ) ;
#270 = ORIENTED_EDGE ( 'NONE', *, *, #72, .T. ) ;
#271 = AXIS2_PLACEMENT_3D ( 'NONE', #626, #776, #167 ) ;
#272 = CARTESIAN_POINT ( 'NONE',  ( 70.00000000000001421, 54.20000000000000284, -27.94861057245399394 ) ) ;
#273 = EDGE_CURVE ( 'NONE', #170, #616, #134, .T. ) ;
#274 = DIRECTION ( 'NONE',  ( 0.000000000000000000, 1.000000000000000000, 0.000000000000000000 ) ) ;
#275 = VERTEX_POINT ( 'NONE', #138 ) ;
#276 = LINE ( 'NONE', #566, #489 ) ;
#277 = DIRECTION ( 'NONE',  ( -1.000000000000000000, 0.000000000000000000, 0.000000000000000000 ) ) ;
#278 = CARTESIAN_POINT ( 'NONE',  ( 61.99999999938118833, -6.938893903907228378E-15, -26.74861057245328055 ) ) ;
#279 = ORIENTED_EDGE ( 'NONE', *, *, #476, .T. ) ;
#280 = DIRECTION ( 'NONE',  ( -0.000000000000000000, -1.000000000000000000, -0.000000000000000000 ) ) ;
#281 = CARTESIAN_POINT ( 'NONE',  ( -42.99999999999999289, 0.000000000000000000, -2.722566187309705121 ) ) ;
#282 = CARTESIAN_POINT ( 'NONE',  ( 45.99832545496906278, 0.000000000000000000, 10.05138909916123424 ) ) ;
#283 = APPROVAL ( #369, 'UNSPECIFIED' ) ;
#284 = AXIS2_PLACEMENT_3D ( 'NONE', #520, #137, #511 ) ;
#285 = VERTEX_POINT ( 'NONE', #755 ) ;
#286 = LINE ( 'NONE', #657, #634 ) ;
#287 = CARTESIAN_POINT ( 'NONE',  ( 70.00000000000000000, 54.20000000000000284, 2.207829878515937048E-14 ) ) ;
#288 = CARTESIAN_POINT ( 'NONE',  ( 53.99738890523990165, 54.19999999999998863, 10.05138942753329268 ) ) ;
#289 = ORIENTED_EDGE ( 'NONE', *, *, #544, .F. ) ;
#290 = PERSON_AND_ORGANIZATION_ROLE ( 'creator' ) ;
#291 = EDGE_CURVE ( 'NONE', #451, #536, #658, .T. ) ;
#292 = LINE ( 'NONE', #287, #912 ) ;
#293 = CARTESIAN_POINT ( 'NONE',  ( 46.00019691587694837, 54.20000000000000995, 10.05138942754642883 ) ) ;
#294 = ORIENTED_EDGE ( 'NONE', *, *, #807, .T. ) ;
#295 = PERSON_AND_ORGANIZATION ( #104, #961 ) ;
#296 = ADVANCED_BREP_SHAPE_REPRESENTATION ( 'Bumper_Chassis', ( #166, #804 ), #1 ) ;
#297 = ADVANCED_FACE ( 'NONE', ( #837 ), #507, .F. ) ;
#298 = CARTESIAN_POINT ( 'NONE',  ( 56.65464248979756690, 54.20000000000000284, -2.722566187309705121 ) ) ;
#299 = DIRECTION ( 'NONE',  ( 3.154042683594196107E-16, 0.000000000000000000, -1.000000000000000000 ) ) ;
#300 = VERTEX_POINT ( 'NONE', #74 ) ;
#301 = CARTESIAN_POINT ( 'NONE',  ( -37.99999999999999289, 0.000000000000000000, -0.000000000000000000 ) ) ;
#302 = VECTOR ( 'NONE', #269, 1000.000000000000000 ) ;
#303 = CARTESIAN_POINT ( 'NONE',  ( 60.00000000000001421, 54.20000000000000284, 16.05138942754599896 ) ) ;
#304 = ORIENTED_EDGE ( 'NONE', *, *, #942, .F. ) ;
#305 = VERTEX_POINT ( 'NONE', #371 ) ;
#306 = LINE ( 'NONE', #940, #505 ) ;
#307 = DIRECTION ( 'NONE',  ( 0.000000000000000000, 0.000000000000000000, 1.000000000000000000 ) ) ;
#308 = EDGE_CURVE ( 'NONE', #674, #300, #683, .T. ) ;
#309 = FACE_OUTER_BOUND ( 'NONE', #174, .T. ) ;
#310 = CALENDAR_DATE ( 2025, 11, 9 ) ;
#311 = ORIENTED_EDGE ( 'NONE', *, *, #77, .T. ) ;
#312 = CARTESIAN_POINT ( 'NONE',  ( 61.99999999938118833, -6.938893903907228378E-15, -23.94861057245328695 ) ) ;
#313 = DIRECTION ( 'NONE',  ( 1.000000000000000000, 0.000000000000000000, -0.000000000000000000 ) ) ;
#314 = EDGE_LOOP ( 'NONE', ( #916, #901 ) ) ;
#315 = DIRECTION ( 'NONE',  ( 0.000000000000000000, 1.000000000000000000, 0.000000000000000000 ) ) ;
#316 = VERTEX_POINT ( 'NONE', #915 ) ;
#317 = CIRCLE ( 'NONE', #396, 2.799999999999997158 ) ;
#318 = ORIENTED_EDGE ( 'NONE', *, *, #510, .T. ) ;
#319 = EDGE_CURVE ( 'NONE', #410, #151, #457, .T. ) ;
#320 = LINE ( 'NONE', #625, #929 ) ;
#321 = DIRECTION ( 'NONE',  ( 0.000000000000000000, 1.000000000000000000, 0.000000000000000000 ) ) ;
#322 = VERTEX_POINT ( 'NONE', #769 ) ;
#323 = DIRECTION ( 'NONE',  ( 3.154042683594195614E-16, 0.000000000000000000, 1.000000000000000000 ) ) ;
#324 = CARTESIAN_POINT ( 'NONE',  ( -62.00000000003753797, 54.20000000000000284, -23.94861057245323366 ) ) ;
#325 = DIRECTION ( 'NONE',  ( 0.000000000000000000, -0.000000000000000000, 1.000000000000000000 ) ) ;
#326 = VERTEX_POINT ( 'NONE', #86 ) ;
#327 = CARTESIAN_POINT ( 'NONE',  ( -45.99980308369511306, 0.000000000000000000, 6.051389427546937760 ) ) ;
#328 = CIRCLE ( 'NONE', #29, 9.999999999999998224 ) ;
#329 = CARTESIAN_POINT ( 'NONE',  ( 0.000000000000000000, 54.20000000000000284, 6.301389427546009614 ) ) ;
#330 = ADVANCED_FACE ( 'NONE', ( #172 ), #716, .F. ) ;
#331 = DIRECTION ( 'NONE',  ( -0.000000000000000000, 1.000000000000000000, -0.000000000000000000 ) ) ;
#332 = ORIENTED_EDGE ( 'NONE', *, *, #951, .F. ) ;
#333 = CARTESIAN_POINT ( 'NONE',  ( 70.00000000000001421, 0.000000000000000000, -27.94861057245399394 ) ) ;
#334 = CARTESIAN_POINT ( 'NONE',  ( -62.00000000003753797, -6.938893903907228378E-15, -26.74861057245323082 ) ) ;
#335 = LINE ( 'NONE', #642, #747 ) ;
#336 = EDGE_CURVE ( 'NONE', #305, #360, #676, .T. ) ;
#337 = ORIENTED_EDGE ( 'NONE', *, *, #201, .T. ) ;
#338 = DIRECTION ( 'NONE',  ( 1.000000000000000000, 0.000000000000000000, 0.000000000000000000 ) ) ;
#339 = CARTESIAN_POINT ( 'NONE',  ( 0.000000000000000000, 54.20000000000000284, -27.94861057245399394 ) ) ;
#340 = CARTESIAN_POINT ( 'NONE',  ( -62.00000000003753797, -6.938893903907228378E-15, -26.74861057245323082 ) ) ;
#341 = ORIENTED_EDGE ( 'NONE', *, *, #514, .F. ) ;
#342 = FACE_OUTER_BOUND ( 'NONE', #414, .T. ) ;
#343 = CARTESIAN_POINT ( 'NONE',  ( 61.99999999938118833, 54.20000000000000284, -26.74861057245328055 ) ) ;
#344 = CARTESIAN_POINT ( 'NONE',  ( -37.99999999999999289, 54.20000000000000284, 2.277433812690293546 ) ) ;
#345 = ORIENTED_EDGE ( 'NONE', *, *, #425, .F. ) ;
#346 = DIRECTION ( 'NONE',  ( -0.000000000000000000, 1.000000000000000000, -0.000000000000000000 ) ) ;
#347 = EDGE_CURVE ( 'NONE', #861, #275, #459, .T. ) ;
#348 = DIRECTION ( 'NONE',  ( 0.000000000000000000, 0.000000000000000000, 1.000000000000000000 ) ) ;
#349 = CARTESIAN_POINT ( 'NONE',  ( 61.99999999938118833, 54.20000000000000284, -21.14861057245329334 ) ) ;
#350 = ORIENTED_EDGE ( 'NONE', *, *, #483, .T. ) ;
#351 = PERSON_AND_ORGANIZATION ( #104, #961 ) ;
#352 = CC_DESIGN_DATE_AND_TIME_ASSIGNMENT ( #989, #834, ( #594 ) ) ;
#353 = CARTESIAN_POINT ( 'NONE',  ( 42.99999999999998579, 0.000000000000000000, 2.277433812690293990 ) ) ;
#354 = DESIGN_CONTEXT ( 'detailed design', #681, 'design' ) ;
#355 = LINE ( 'NONE', #129, #364 ) ;
#356 = ORIENTED_EDGE ( 'NONE', *, *, #291, .F. ) ;
#357 = DIRECTION ( 'NONE',  ( 0.000000000000000000, 0.000000000000000000, 1.000000000000000000 ) ) ;
#358 = CARTESIAN_POINT ( 'NONE',  ( 0.000000000000000000, 0.000000000000000000, -2.722566187309705121 ) ) ;
#359 = EDGE_CURVE ( 'NONE', #814, #790, #390, .T. ) ;
#360 = VERTEX_POINT ( 'NONE', #240 ) ;
#361 = AXIS2_PLACEMENT_3D ( 'NONE', #902, #590, #424 ) ;
#362 = DATE_AND_TIME ( #685, #944 ) ;
#363 = VECTOR ( 'NONE', #248, 1000.000000000000000 ) ;
#364 = VECTOR ( 'NONE', #832, 1000.000000000000000 ) ;
#365 = LINE ( 'NONE', #525, #741 ) ;
#366 = CARTESIAN_POINT ( 'NONE',  ( 36.92639375715585714, 54.20000000000000284, 6.301389427546009614 ) ) ;
#367 = ORIENTED_EDGE ( 'NONE', *, *, #877, .T. ) ;
#368 = ADVANCED_FACE ( 'NONE', ( #855 ), #617, .T. ) ;
#369 = APPROVAL_STATUS ( 'not_yet_approved' ) ;
#370 = CARTESIAN_POINT ( 'NONE',  ( 60.00000000000001421, 54.20000000000000284, 16.05138942754599896 ) ) ;
#371 = CARTESIAN_POINT ( 'NONE',  ( 37.99999999999999289, 0.000000000000000000, 6.301389427546009614 ) ) ;
#372 = ORIENTED_EDGE ( 'NONE', *, *, #238, .F. ) ;
#373 = APPLICATION_PROTOCOL_DEFINITION ( 'international standard', 'config_control_design', 1994, #681 ) ;
#374 = ADVANCED_FACE ( 'NONE', ( #236 ), #535, .T. ) ;
#375 = DIRECTION ( 'NONE',  ( 1.000000000000000000, -0.000000000000000000, 0.000000000000000000 ) ) ;
#376 = CARTESIAN_POINT ( 'NONE',  ( 53.99458974790285737, 54.20000000000000284, 2.056998563239176292 ) ) ;
#377 = VERTEX_POINT ( 'NONE', #387 ) ;
#378 = AXIS2_PLACEMENT_3D ( 'NONE', #406, #73, #453 ) ;
#379 = EDGE_LOOP ( 'NONE', ( #866, #120, #939, #499 ) ) ;
#380 = AXIS2_PLACEMENT_3D ( 'NONE', #994, #606, #231 ) ;
#381 = DIRECTION ( 'NONE',  ( -1.000000000000000000, 0.000000000000000000, 0.000000000000000000 ) ) ;
#382 = DIRECTION ( 'NONE',  ( 0.000000000000000000, 0.000000000000000000, 1.000000000000000000 ) ) ;
#383 = ORIENTED_EDGE ( 'NONE', *, *, #871, .F. ) ;
#384 = PERSON_AND_ORGANIZATION ( #104, #961 ) ;
#385 = CYLINDRICAL_SURFACE ( 'NONE', #773, 4.000000000000000888 ) ;
#386 = CC_DESIGN_PERSON_AND_ORGANIZATION_ASSIGNMENT ( #679, #910, ( #206 ) ) ;
#387 = CARTESIAN_POINT ( 'NONE',  ( 56.65464248979756690, 0.000000000000000000, -2.722566187309705121 ) ) ;
#388 = ORIENTED_EDGE ( 'NONE', *, *, #687, .F. ) ;
#389 = ORIENTED_EDGE ( 'NONE', *, *, #48, .T. ) ;
#390 = LINE ( 'NONE', #697, #806 ) ;
#391 = FACE_OUTER_BOUND ( 'NONE', #770, .T. ) ;
#392 = ADVANCED_FACE ( 'NONE', ( #705 ), #9, .F. ) ;
#393 = ORIENTED_EDGE ( 'NONE', *, *, #589, .F. ) ;
#394 = DIRECTION ( 'NONE',  ( 0.000000000000000000, 0.000000000000000000, -1.000000000000000000 ) ) ;
#395 = CARTESIAN_POINT ( 'NONE',  ( 0.000000000000000000, 0.000000000000000000, -2.722566187309705121 ) ) ;
#396 = AXIS2_PLACEMENT_3D ( 'NONE', #324, #954, #629 ) ;
#397 = EDGE_CURVE ( 'NONE', #895, #960, #731, .T. ) ;
#398 = ORIENTED_EDGE ( 'NONE', *, *, #589, .T. ) ;
#399 = DIRECTION ( 'NONE',  ( -0.000000000000000000, 1.000000000000000000, -0.000000000000000000 ) ) ;
#400 = DIRECTION ( 'NONE',  ( 0.000000000000000000, 0.000000000000000000, 1.000000000000000000 ) ) ;
#401 = EDGE_LOOP ( 'NONE', ( #289, #699, #398, #885 ) ) ;
#402 = CARTESIAN_POINT ( 'NONE',  ( 70.00000000000001421, 54.20000000000000284, -27.94861057245399394 ) ) ;
#403 = EDGE_CURVE ( 'NONE', #729, #202, #693, .T. ) ;
#404 = DIRECTION ( 'NONE',  ( 0.000000000000000000, 0.000000000000000000, -1.000000000000000000 ) ) ;
#405 = VERTEX_POINT ( 'NONE', #937 ) ;
#406 = CARTESIAN_POINT ( 'NONE',  ( 0.000000000000000000, 0.000000000000000000, 0.000000000000000000 ) ) ;
#407 = EDGE_CURVE ( 'NONE', #151, #410, #962, .T. ) ;
#408 = CARTESIAN_POINT ( 'NONE',  ( -56.65464248979756690, 0.000000000000000000, -27.94861057245399394 ) ) ;
#409 = CARTESIAN_POINT ( 'NONE',  ( 46.00019691587694837, 54.20000000000000995, 10.05138942754642883 ) ) ;
#410 = VERTEX_POINT ( 'NONE', #531 ) ;
#411 = CARTESIAN_POINT ( 'NONE',  ( -43.33157670202864864, 54.20000000000000284, 2.051389427546939093 ) ) ;
#412 = CARTESIAN_POINT ( 'NONE',  ( 56.65464248979756690, 54.20000000000000284, 0.000000000000000000 ) ) ;
#413 = CARTESIAN_POINT ( 'NONE',  ( 46.00113270104517227, 0.000000000000000000, 2.051389427546427946 ) ) ;
#414 = EDGE_LOOP ( 'NONE', ( #182, #45, #70, #135 ) ) ;
#415 = CARTESIAN_POINT ( 'NONE',  ( 37.99999999999999289, 54.20000000000000284, 2.277433812690293990 ) ) ;
#416 = CARTESIAN_POINT ( 'NONE',  ( 42.99999999999998579, 0.000000000000000000, 2.277433812690293990 ) ) ;
#417 = FACE_BOUND ( 'NONE', #703, .T. ) ;
#418 = ORIENTED_EDGE ( 'NONE', *, *, #831, .F. ) ;
#419 = ADVANCED_FACE ( 'NONE', ( #622 ), #846, .F. ) ;
#420 = DIRECTION ( 'NONE',  ( 0.000000000000000000, 0.000000000000000000, 1.000000000000000000 ) ) ;
#421 = AXIS2_PLACEMENT_3D ( 'NONE', #575, #950, #955 ) ;
#422 = CARTESIAN_POINT ( 'NONE',  ( 56.65464248979756690, 0.000000000000000000, 0.000000000000000000 ) ) ;
#423 = ORIENTED_EDGE ( 'NONE', *, *, #767, .T. ) ;
#424 = DIRECTION ( 'NONE',  ( 0.000000000000000000, 0.000000000000000000, 1.000000000000000000 ) ) ;
#425 = EDGE_CURVE ( 'NONE', #864, #909, #545, .T. ) ;
#426 = CARTESIAN_POINT ( 'NONE',  ( 70.00000000000000000, 54.20000000000000284, 6.051389427546002509 ) ) ;
#427 = DIRECTION ( 'NONE',  ( 1.000000000000000000, -0.000000000000000000, 3.154042683594196107E-16 ) ) ;
#428 = EDGE_LOOP ( 'NONE', ( #66, #105, #389, #341 ) ) ;
#429 = CARTESIAN_POINT ( 'NONE',  ( -41.99839981628935703, 54.20000000000000284, 4.053144127341053782 ) ) ;
#430 = CC_DESIGN_PERSON_AND_ORGANIZATION_ASSIGNMENT ( #384, #136, ( #554 ) ) ;
#431 = PLANE ( 'NONE',  #439 ) ;
#432 = EDGE_CURVE ( 'NONE', #405, #543, #18, .T. ) ;
#433 = DIRECTION ( 'NONE',  ( 0.000000000000000000, 0.000000000000000000, 1.000000000000000000 ) ) ;
#434 = EDGE_LOOP ( 'NONE', ( #678, #905, #656, #294 ) ) ;
#435 = PERSON_AND_ORGANIZATION_ROLE ( 'creator' ) ;
#436 = FACE_OUTER_BOUND ( 'NONE', #142, .T. ) ;
#437 = EDGE_CURVE ( 'NONE', #475, #758, #320, .T. ) ;
#438 = FACE_OUTER_BOUND ( 'NONE', #109, .T. ) ;
#439 = AXIS2_PLACEMENT_3D ( 'NONE', #49, #907, #58 ) ;
#440 = ORIENTED_EDGE ( 'NONE', *, *, #942, .T. ) ;
#441 = APPROVAL_PERSON_ORGANIZATION ( #8, #65, #771 ) ;
#442 = DATE_AND_TIME ( #763, #775 ) ;
#443 = DIRECTION ( 'NONE',  ( -0.000000000000000000, 1.000000000000000000, -0.000000000000000000 ) ) ;
#444 = DIRECTION ( 'NONE',  ( -1.000000000000000000, 0.000000000000000000, 0.000000000000000000 ) ) ;
#445 = CC_DESIGN_PERSON_AND_ORGANIZATION_ASSIGNMENT ( #993, #290, ( #206 ) ) ;
#446 = EDGE_LOOP ( 'NONE', ( #228, #522, #546, #673 ) ) ;
#447 = APPROVAL_STATUS ( 'not_yet_approved' ) ;
#448 = EDGE_CURVE ( 'NONE', #405, #960, #454, .T. ) ;
#449 = DIRECTION ( 'NONE',  ( -0.000000000000000000, -1.000000000000000000, 0.000000000000000000 ) ) ;
#450 = PLANE ( 'NONE',  #805 ) ;
#451 = VERTEX_POINT ( 'NONE', #862 ) ;
#452 = ORIENTED_EDGE ( 'NONE', *, *, #914, .F. ) ;
#453 = DIRECTION ( 'NONE',  ( 0.000000000000000000, 0.000000000000000000, 1.000000000000000000 ) ) ;
#454 = LINE ( 'NONE', #774, #363 ) ;
#455 = DIRECTION ( 'NONE',  ( -1.000000000000000000, 0.000000000000000000, 0.000000000000000000 ) ) ;
#456 = APPROVAL_DATE_TIME ( #71, #65 ) ;
#457 = CIRCLE ( 'NONE', #31, 2.799999999999997158 ) ;
#458 = CARTESIAN_POINT ( 'NONE',  ( -45.99980308369511306, 0.000000000000000000, 10.05138942754693687 ) ) ;
#459 = LINE ( 'NONE', #919, #110 ) ;
#460 = ORIENTED_EDGE ( 'NONE', *, *, #194, .T. ) ;
#461 = ORIENTED_EDGE ( 'NONE', *, *, #90, .F. ) ;
#462 = EDGE_CURVE ( 'NONE', #115, #170, #79, .T. ) ;
#463 = CARTESIAN_POINT ( 'NONE',  ( 37.99999999999999289, 54.20000000000000284, 6.301389427546009614 ) ) ;
#464 = PLANE ( 'NONE',  #524 ) ;
#465 = ORIENTED_EDGE ( 'NONE', *, *, #819, .F. ) ;
#466 = CARTESIAN_POINT ( 'NONE',  ( 37.47174679483479309, 0.000000000000000000, 6.314820395586764334 ) ) ;
#467 = ADVANCED_FACE ( 'NONE', ( #568 ), #721, .T. ) ;
#468 = FACE_OUTER_BOUND ( 'NONE', #87, .T. ) ;
#469 = ORIENTED_EDGE ( 'NONE', *, *, #90, .T. ) ;
#470 = AXIS2_PLACEMENT_3D ( 'NONE', #128, #584, #209 ) ;
#471 = VECTOR ( 'NONE', #204, 1000.000000000000000 ) ;
#472 = LOCAL_TIME ( 19, 55, 20.00000000000000000, #67 ) ;
#473 = DIRECTION ( 'NONE',  ( 0.000000000000000000, -1.000000000000000000, 0.000000000000000000 ) ) ;
#474 = CARTESIAN_POINT ( 'NONE',  ( -70.00000000000000000, 0.000000000000000000, 6.051389427546002509 ) ) ;
#475 = VERTEX_POINT ( 'NONE', #122 ) ;
#476 = EDGE_CURVE ( 'NONE', #565, #723, #737, .T. ) ;
#477 = FACE_OUTER_BOUND ( 'NONE', #663, .T. ) ;
#478 = DIRECTION ( 'NONE',  ( -1.000000000000000000, 0.000000000000000000, 0.000000000000000000 ) ) ;
#479 = CARTESIAN_POINT ( 'NONE',  ( 0.000000000000000000, 54.20000000000000284, 16.05138942754599896 ) ) ;
#480 =( BOUNDED_CURVE ( )  B_SPLINE_CURVE ( 3, ( #108, #39, #564, #883, #51, #728, #409 ),
 .UNSPECIFIED., .F., .F. ) 
 B_SPLINE_CURVE_WITH_KNOTS ( ( 4, 3, 4 ),
 ( 0.5001753776761327375, 1.000000000000000000, 1.000175377676543631 ),
 .UNSPECIFIED. ) 
 CURVE ( )  GEOMETRIC_REPRESENTATION_ITEM ( )  RATIONAL_B_SPLINE_CURVE ( ( 0.9992987353541032958, 0.3333334153528781374, 0.3335671702348436685, 1.000000000000000000, 0.9997661630979418623, 0.9995324082154288803, 0.9992987353524610539 ) ) 
 REPRESENTATION_ITEM ( '' )  );
#481 = ORIENTED_EDGE ( 'NONE', *, *, #734, .F. ) ;
#482 = CARTESIAN_POINT ( 'NONE',  ( -45.99980308369511306, 54.19999999999999574, 10.05138942754693687 ) ) ;
#483 = EDGE_CURVE ( 'NONE', #322, #285, #587, .T. ) ;
#484 = CARTESIAN_POINT ( 'NONE',  ( 37.99999999999999289, 0.000000000000000000, 0.000000000000000000 ) ) ;
#485 = CARTESIAN_POINT ( 'NONE',  ( 46.00019691587366566, 0.000000000000000000, 2.051389427546427502 ) ) ;
#486 = ORIENTED_EDGE ( 'NONE', *, *, #308, .F. ) ;
#487 =( LENGTH_UNIT ( ) NAMED_UNIT ( * ) SI_UNIT ( .MILLI., .METRE. ) );
#488 = PRODUCT_RELATED_PRODUCT_CATEGORY ( 'detail', '', ( #572 ) ) ;
#489 = VECTOR ( 'NONE', #280, 1000.000000000000000 ) ;
#490 = LINE ( 'NONE', #484, #607 ) ;
#491 = CIRCLE ( 'NONE', #83, 9.999999999999998224 ) ;
#492 = LINE ( 'NONE', #560, #605 ) ;
#493 = CLOSED_SHELL ( 'NONE', ( #931, #330, #392, #858, #297, #22, #119, #836, #16, #266, #894, #720, #528, #467, #696, #219, #368, #419, #844, #967, #644, #740, #41, #600, #374, #54, #982 ) ) ;
#494 = ORIENTED_EDGE ( 'NONE', *, *, #164, .T. ) ;
#495 = FACE_OUTER_BOUND ( 'NONE', #428, .T. ) ;
#496 = DIRECTION ( 'NONE',  ( 0.000000000000000000, 0.000000000000000000, 1.000000000000000000 ) ) ;
#497 = EDGE_CURVE ( 'NONE', #151, #529, #28, .T. ) ;
#498 = CARTESIAN_POINT ( 'NONE',  ( -37.99999999999999289, 54.20000000000000284, 0.000000000000000000 ) ) ;
#499 = ORIENTED_EDGE ( 'NONE', *, *, #432, .T. ) ;
#500 = DIRECTION ( 'NONE',  ( 0.000000000000000000, 1.000000000000000000, -0.000000000000000000 ) ) ;
#501 = CARTESIAN_POINT ( 'NONE',  ( 46.00019691587365855, 0.000000000000000000, 2.051389427546427058 ) ) ;
#502 = EDGE_CURVE ( 'NONE', #857, #451, #199, .T. ) ;
#503 = EDGE_LOOP ( 'NONE', ( #838, #684, #242, #621 ) ) ;
#504 = CARTESIAN_POINT ( 'NONE',  ( 0.000000000000000000, 0.000000000000000000, 16.05138942754599896 ) ) ;
#505 = VECTOR ( 'NONE', #323, 1000.000000000000000 ) ;
#506 = VECTOR ( 'NONE', #824, 1000.000000000000000 ) ;
#507 = PLANE ( 'NONE',  #253 ) ;
#508 = VECTOR ( 'NONE', #23, 1000.000000000000000 ) ;
#509 = ORIENTED_EDGE ( 'NONE', *, *, #27, .F. ) ;
#510 = EDGE_CURVE ( 'NONE', #917, #475, #491, .T. ) ;
#511 = DIRECTION ( 'NONE',  ( 0.000000000000000000, 0.000000000000000000, 1.000000000000000000 ) ) ;
#512 = CARTESIAN_POINT ( 'NONE',  ( 46.00019691587366566, 0.000000000000000000, 2.051389427546427502 ) ) ;
#513 = EDGE_LOOP ( 'NONE', ( #230, #704, #367, #856 ) ) ;
#514 = EDGE_CURVE ( 'NONE', #410, #326, #262, .T. ) ;
#515 =( BOUNDED_CURVE ( )  B_SPLINE_CURVE ( 3, ( #512, #974, #828, #60, #282, #601, #980 ),
 .UNSPECIFIED., .F., .F. ) 
 B_SPLINE_CURVE_WITH_KNOTS ( ( 4, 3, 4 ),
 ( 0.5001753776761327375, 1.000000000000000000, 1.000175377676543631 ),
 .UNSPECIFIED. ) 
 CURVE ( )  GEOMETRIC_REPRESENTATION_ITEM ( )  RATIONAL_B_SPLINE_CURVE ( ( 0.9992987353541032958, 0.3333334153528781374, 0.3335671702348436685, 1.000000000000000000, 0.9997661630979418623, 0.9995324082154288803, 0.9992987353524610539 ) ) 
 REPRESENTATION_ITEM ( '' )  );
#516 = CARTESIAN_POINT ( 'NONE',  ( -70.00000000000001421, 54.20000000000000284, -27.94861057245399394 ) ) ;
#517 = DIRECTION ( 'NONE',  ( -1.000000000000000000, 0.000000000000000000, 0.000000000000000000 ) ) ;
#518 = VERTEX_POINT ( 'NONE', #112 ) ;
#519 = APPROVAL_STATUS ( 'not_yet_approved' ) ;
#520 = CARTESIAN_POINT ( 'NONE',  ( -42.99999999999999289, 0.000000000000000000, 2.277433812690293546 ) ) ;
#521 = CARTESIAN_POINT ( 'NONE',  ( 46.00019691587366566, 54.20000000000000284, 2.051389427546427502 ) ) ;
#522 = ORIENTED_EDGE ( 'NONE', *, *, #188, .T. ) ;
#523 = COORDINATED_UNIVERSAL_TIME_OFFSET ( 7, 0, .AHEAD. ) ;
#524 = AXIS2_PLACEMENT_3D ( 'NONE', #788, #325, #313 ) ;
#525 = CARTESIAN_POINT ( 'NONE',  ( 37.99999999999999289, 0.000000000000000000, 2.277433812690293990 ) ) ;
#526 = AXIS2_PLACEMENT_3D ( 'NONE', #563, #812, #873 ) ;
#527 = CARTESIAN_POINT ( 'NONE',  ( -62.00000000003753797, -6.938893903907228378E-15, -23.94861057245323366 ) ) ;
#528 = ADVANCED_FACE ( 'NONE', ( #189 ), #884, .F. ) ;
#529 = VERTEX_POINT ( 'NONE', #800 ) ;
#530 = CARTESIAN_POINT ( 'NONE',  ( 37.99999999999999289, 54.20000000000000284, 6.301389427546009614 ) ) ;
#531 = CARTESIAN_POINT ( 'NONE',  ( -62.00000000003753797, -6.938893903907228378E-15, -21.14861057245323650 ) ) ;
#532 = ORIENTED_EDGE ( 'NONE', *, *, #448, .F. ) ;
#533 = ORIENTED_EDGE ( 'NONE', *, *, #254, .F. ) ;
#534 = DIRECTION ( 'NONE',  ( -0.000000000000000000, 1.000000000000000000, -0.000000000000000000 ) ) ;
#535 = CYLINDRICAL_SURFACE ( 'NONE', #979, 5.000000000000000000 ) ;
#536 = VERTEX_POINT ( 'NONE', #103 ) ;
#537 = APPROVAL_PERSON_ORGANIZATION ( #610, #213, #222 ) ;
#538 = VERTEX_POINT ( 'NONE', #408 ) ;
#539 = EDGE_CURVE ( 'NONE', #326, #529, #317, .T. ) ;
#540 = VECTOR ( 'NONE', #636, 1000.000000000000000 ) ;
#541 = CARTESIAN_POINT ( 'NONE',  ( 36.92639375715585714, 54.20000000000000284, 6.301389427546009614 ) ) ;
#542 = ORIENTED_EDGE ( 'NONE', *, *, #544, .T. ) ;
#543 = VERTEX_POINT ( 'NONE', #941 ) ;
#544 = EDGE_CURVE ( 'NONE', #170, #115, #964, .T. ) ;
#545 = LINE ( 'NONE', #859, #948 ) ;
#546 = ORIENTED_EDGE ( 'NONE', *, *, #85, .T. ) ;
#547 = VERTEX_POINT ( 'NONE', #795 ) ;
#548 = DIRECTION ( 'NONE',  ( -3.154042683594195614E-16, 0.000000000000000000, 1.000000000000000000 ) ) ;
#549 = CYLINDRICAL_SURFACE ( 'NONE', #97, 2.799999999999993605 ) ;
#550 =( BOUNDED_CURVE ( )  B_SPLINE_CURVE ( 3, ( #180, #813, #810, #30, #263, #413, #35 ),
 .UNSPECIFIED., .F., .F. ) 
 B_SPLINE_CURVE_WITH_KNOTS ( ( 4, 3, 4 ),
 ( 0.0001753776765436619654, 0.5000000000000000000, 0.5001753776761327375 ),
 .UNSPECIFIED. ) 
 CURVE ( )  GEOMETRIC_REPRESENTATION_ITEM ( )  RATIONAL_B_SPLINE_CURVE ( ( 0.9992987353524607208, 0.3333334153528785260, 0.3335671702353915635, 1.000000000000000000, 0.9997661630984896464, 0.9995324082165240043, 0.9992987353541032958 ) ) 
 REPRESENTATION_ITEM ( '' )  );
#551 = ORIENTED_EDGE ( 'NONE', *, *, #702, .T. ) ;
#552 = DIRECTION ( 'NONE',  ( 0.000000000000000000, 0.000000000000000000, 1.000000000000000000 ) ) ;
#553 = CIRCLE ( 'NONE', #125, 5.000000000000000000 ) ;
#554 = SECURITY_CLASSIFICATION ( '', '', #229 ) ;
#555 = LINE ( 'NONE', #412, #659 ) ;
#556 = DIRECTION ( 'NONE',  ( 1.000000000000000000, 0.000000000000000000, -0.000000000000000000 ) ) ;
#557 = ORIENTED_EDGE ( 'NONE', *, *, #254, .T. ) ;
#558 = CARTESIAN_POINT ( 'NONE',  ( -60.00000000000001421, 0.000000000000000000, 6.051389427545998956 ) ) ;
#559 = CARTESIAN_POINT ( 'NONE',  ( 37.47174679483479309, 54.20000000000000284, 6.314820395586764334 ) ) ;
#560 = CARTESIAN_POINT ( 'NONE',  ( 37.99999999999999289, 54.20000000000000284, 0.000000000000000000 ) ) ;
#561 = EDGE_LOOP ( 'NONE', ( #260, #735 ) ) ;
#562 = CARTESIAN_POINT ( 'NONE',  ( -42.00120684360094714, 0.000000000000000000, 8.053143511762748119 ) ) ;
#563 = CARTESIAN_POINT ( 'NONE',  ( 61.99999999938118833, -6.938893903907228378E-15, -23.94861057245328695 ) ) ;
#564 = CARTESIAN_POINT ( 'NONE',  ( 38.00580408382477060, 54.20000000000000284, 10.04578029185366539 ) ) ;
#565 = VERTEX_POINT ( 'NONE', #816 ) ;
#566 = CARTESIAN_POINT ( 'NONE',  ( -70.00000000000001421, 54.20000000000000284, -27.94861057245399394 ) ) ;
#567 = EDGE_CURVE ( 'NONE', #305, #854, #490, .T. ) ;
#568 = FACE_OUTER_BOUND ( 'NONE', #988, .T. ) ;
#569 = FACE_BOUND ( 'NONE', #965, .T. ) ;
#570 = VECTOR ( 'NONE', #943, 1000.000000000000000 ) ;
#571 = ORIENTED_EDGE ( 'NONE', *, *, #359, .T. ) ;
#572 = PRODUCT ( 'Bumper_Chassis', 'Bumper_Chassis', '', ( #886 ) ) ;
#573 = EDGE_CURVE ( 'NONE', #648, #518, #555, .T. ) ;
#574 = CARTESIAN_POINT ( 'NONE',  ( 37.47174679483479309, 2.775557561562891351E-14, 6.314820395586764334 ) ) ;
#575 = CARTESIAN_POINT ( 'NONE',  ( 0.000000000000000000, 54.20000000000000284, 0.000000000000000000 ) ) ;
#576 = AXIS2_PLACEMENT_3D ( 'NONE', #732, #117, #38 ) ;
#577 = ORIENTED_EDGE ( 'NONE', *, *, #273, .F. ) ;
#578 = LINE ( 'NONE', #826, #726 ) ;
#579 = DIRECTION ( 'NONE',  ( 0.000000000000000000, 0.000000000000000000, -1.000000000000000000 ) ) ;
#580 = DIRECTION ( 'NONE',  ( 0.000000000000000000, 0.000000000000000000, -1.000000000000000000 ) ) ;
#581 = EDGE_LOOP ( 'NONE', ( #211, #150 ) ) ;
#582 = CARTESIAN_POINT ( 'NONE',  ( -70.00000000000000000, 54.20000000000000284, 6.051389427546002509 ) ) ;
#583 =( BOUNDED_CURVE ( )  B_SPLINE_CURVE ( 3, ( #458, #695, #562, #21, #5, #178, #779 ),
 .UNSPECIFIED., .F., .F. ) 
 B_SPLINE_CURVE_WITH_KNOTS ( ( 4, 3, 4 ),
 ( 0.2500877196061879748, 0.5000000000000000000, 0.7500877196061879193 ),
 .UNSPECIFIED. ) 
 CURVE ( )  GEOMETRIC_REPRESENTATION_ITEM ( )  RATIONAL_B_SPLINE_CURVE ( ( 0.5000000615578346075, 0.5001169799941955763, 0.6667836261415840404, 1.000000000000000000, 0.6665497071917494409, 0.4998830610443609768, 0.5000000615578346075 ) ) 
 REPRESENTATION_ITEM ( '' )  );
#584 = DIRECTION ( 'NONE',  ( -1.000000000000000000, 0.000000000000000000, 0.000000000000000000 ) ) ;
#585 = VECTOR ( 'NONE', #375, 1000.000000000000000 ) ;
#586 = DIRECTION ( 'NONE',  ( 0.000000000000000000, 0.000000000000000000, 1.000000000000000000 ) ) ;
#587 = CIRCLE ( 'NONE', #159, 4.999999999999999112 ) ;
#588 = EDGE_LOOP ( 'NONE', ( #221, #533, #88, #256 ) ) ;
#589 = EDGE_CURVE ( 'NONE', #616, #95, #986, .T. ) ;
#590 = DIRECTION ( 'NONE',  ( -0.000000000000000000, 1.000000000000000000, -0.000000000000000000 ) ) ;
#591 = DIRECTION ( 'NONE',  ( -0.000000000000000000, 1.000000000000000000, -0.000000000000000000 ) ) ;
#592 = FACE_OUTER_BOUND ( 'NONE', #588, .T. ) ;
#593 = ORIENTED_EDGE ( 'NONE', *, *, #687, .T. ) ;
#594 = PRODUCT_DEFINITION ( 'UNKNOWN', '', #206, #354 ) ;
#595 = CARTESIAN_POINT ( 'NONE',  ( -45.99980308369510595, 54.19999999999999574, 2.051389427546936428 ) ) ;
#596 = CARTESIAN_POINT ( 'NONE',  ( 70.00000000000000000, 54.20000000000000284, 6.051389427546002509 ) ) ;
#597 = ORIENTED_EDGE ( 'NONE', *, *, #863, .T. ) ;
#598 = APPROVAL_DATE_TIME ( #442, #283 ) ;
#599 = CARTESIAN_POINT ( 'NONE',  ( -56.65464248979756690, 0.000000000000000000, 0.000000000000000000 ) ) ;
#600 = ADVANCED_FACE ( 'NONE', ( #868 ), #267, .T. ) ;
#601 = CARTESIAN_POINT ( 'NONE',  ( 45.99926113070653599, 0.000000000000000000, 10.05138942754642883 ) ) ;
#602 = CIRCLE ( 'NONE', #284, 4.999999999999999112 ) ;
#603 = AXIS2_PLACEMENT_3D ( 'NONE', #672, #2, #433 ) ;
#604 = ORIENTED_EDGE ( 'NONE', *, *, #397, .T. ) ;
#605 = VECTOR ( 'NONE', #580, 1000.000000000000000 ) ;
#606 = DIRECTION ( 'NONE',  ( 0.000000000000000000, 0.000000000000000000, -1.000000000000000000 ) ) ;
#607 = VECTOR ( 'NONE', #808, 1000.000000000000000 ) ;
#608 = DIRECTION ( 'NONE',  ( -0.000000000000000000, 1.000000000000000000, -0.000000000000000000 ) ) ;
#609 = EDGE_LOOP ( 'NONE', ( #992, #624, #739, #797 ) ) ;
#610 = PERSON_AND_ORGANIZATION ( #104, #961 ) ;
#611 = EDGE_LOOP ( 'NONE', ( #890, #465, #571, #956 ) ) ;
#612 = FACE_BOUND ( 'NONE', #36, .T. ) ;
#613 = CARTESIAN_POINT ( 'NONE',  ( 61.99999999938118833, -6.938893903907228378E-15, -23.94861057245328695 ) ) ;
#614 = ORIENTED_EDGE ( 'NONE', *, *, #661, .T. ) ;
#615 = APPROVAL_DATE_TIME ( #362, #213 ) ;
#616 = VERTEX_POINT ( 'NONE', #343 ) ;
#617 = CYLINDRICAL_SURFACE ( 'NONE', #777, 10.00000000000000000 ) ;
#618 = ORIENTED_EDGE ( 'NONE', *, *, #789, .T. ) ;
#619 = LOCAL_TIME ( 19, 55, 20.00000000000000000, #212 ) ;
#620 = EDGE_CURVE ( 'NONE', #802, #518, #195, .T. ) ;
#621 = ORIENTED_EDGE ( 'NONE', *, *, #113, .T. ) ;
#622 = FACE_OUTER_BOUND ( 'NONE', #611, .T. ) ;
#623 = EDGE_LOOP ( 'NONE', ( #205, #686, #423, #75 ) ) ;
#624 = ORIENTED_EDGE ( 'NONE', *, *, #761, .F. ) ;
#625 = CARTESIAN_POINT ( 'NONE',  ( -60.00000000000001421, 0.000000000000000000, 16.05138942754599896 ) ) ;
#626 = CARTESIAN_POINT ( 'NONE',  ( 61.99999999938118833, 54.20000000000000284, -23.94861057245328695 ) ) ;
#627 = VERTEX_POINT ( 'NONE', #272 ) ;
#628 = LINE ( 'NONE', #33, #821 ) ;
#629 = DIRECTION ( 'NONE',  ( 0.000000000000000000, 0.000000000000000000, 1.000000000000000000 ) ) ;
#630 = ORIENTED_EDGE ( 'NONE', *, *, #799, .T. ) ;
#631 = EDGE_LOOP ( 'NONE', ( #981, #440, #630, #12 ) ) ;
#632 = AXIS2_PLACEMENT_3D ( 'NONE', #599, #224, #675 ) ;
#633 = LINE ( 'NONE', #301, #743 ) ;
#634 = VECTOR ( 'NONE', #42, 1000.000000000000000 ) ;
#635 = AXIS2_PLACEMENT_3D ( 'NONE', #613, #80, #382 ) ;
#636 = DIRECTION ( 'NONE',  ( -0.000000000000000000, 1.000000000000000000, -0.000000000000000000 ) ) ;
#637 = CC_DESIGN_PERSON_AND_ORGANIZATION_ASSIGNMENT ( #217, #435, ( #594 ) ) ;
#638 = FACE_BOUND ( 'NONE', #96, .T. ) ;
#639 = ORIENTED_EDGE ( 'NONE', *, *, #425, .T. ) ;
#640 = DIRECTION ( 'NONE',  ( 0.000000000000000000, 0.000000000000000000, -1.000000000000000000 ) ) ;
#641 = CARTESIAN_POINT ( 'NONE',  ( 46.00019691587365855, 0.000000000000000000, 10.05138942754642883 ) ) ;
#642 = CARTESIAN_POINT ( 'NONE',  ( 56.65464248979756690, 0.000000000000000000, -2.722566187309705121 ) ) ;
#643 = ORIENTED_EDGE ( 'NONE', *, *, #98, .F. ) ;
#644 = ADVANCED_FACE ( 'NONE', ( #887 ), #830, .F. ) ;
#645 = DIRECTION ( 'NONE',  ( 0.000000000000000000, 0.000000000000000000, 1.000000000000000000 ) ) ;
#646 = CARTESIAN_POINT ( 'NONE',  ( -42.99999999999999289, 54.20000000000000284, 2.277433812690293546 ) ) ;
#647 = CARTESIAN_POINT ( 'NONE',  ( -45.99980308369510595, 0.000000000000000000, 2.051389427546936428 ) ) ;
#648 = VERTEX_POINT ( 'NONE', #298 ) ;
#649 = CARTESIAN_POINT ( 'NONE',  ( -43.33469562135123709, 54.20000000000000284, 10.05138942754693687 ) ) ;
#650 = EDGE_CURVE ( 'NONE', #674, #547, #602, .T. ) ;
#651 =( BOUNDED_CURVE ( )  B_SPLINE_CURVE ( 3, ( #647, #190, #733, #874, #746, #662, #738 ),
 .UNSPECIFIED., .F., .F. ) 
 B_SPLINE_CURVE_WITH_KNOTS ( ( 4, 3, 4 ),
 ( 0.7500877196061879193, 1.000000000000000000, 1.250087719606187919 ),
 .UNSPECIFIED. ) 
 CURVE ( )  GEOMETRIC_REPRESENTATION_ITEM ( )  RATIONAL_B_SPLINE_CURVE ( ( 0.5000000615578346075, 0.5001169799941954652, 0.6667836261415839294, 1.000000000000000000, 0.6665497071917494409, 0.4998830610443609768, 0.5000000615578346075 ) ) 
 REPRESENTATION_ITEM ( '' )  );
#652 = AXIS2_PLACEMENT_3D ( 'NONE', #395, #869, #455 ) ;
#653 = CARTESIAN_POINT ( 'NONE',  ( 56.65464248979756690, 0.000000000000000000, -27.94861057245399394 ) ) ;
#654 = LINE ( 'NONE', #344, #4 ) ;
#655 = VECTOR ( 'NONE', #923, 1000.000000000000000 ) ;
#656 = ORIENTED_EDGE ( 'NONE', *, *, #397, .F. ) ;
#657 = CARTESIAN_POINT ( 'NONE',  ( 0.000000000000000000, 0.000000000000000000, 6.301389427546009614 ) ) ;
#658 =( BOUNDED_CURVE ( )  B_SPLINE_CURVE ( 3, ( #293, #288, #376, #908, #220, #667, #521 ),
 .UNSPECIFIED., .F., .F. ) 
 B_SPLINE_CURVE_WITH_KNOTS ( ( 4, 3, 4 ),
 ( 0.0001753776765436619654, 0.5000000000000000000, 0.5001753776761327375 ),
 .UNSPECIFIED. ) 
 CURVE ( )  GEOMETRIC_REPRESENTATION_ITEM ( )  RATIONAL_B_SPLINE_CURVE ( ( 0.9992987353524607208, 0.3333334153528785260, 0.3335671702353915635, 1.000000000000000000, 0.9997661630984896464, 0.9995324082165240043, 0.9992987353541032958 ) ) 
 REPRESENTATION_ITEM ( '' )  );
#659 = VECTOR ( 'NONE', #107, 1000.000000000000000 ) ;
#660 = LINE ( 'NONE', #823, #690 ) ;
#661 = EDGE_CURVE ( 'NONE', #300, #538, #670, .T. ) ;
#662 = CARTESIAN_POINT ( 'NONE',  ( -48.66802946536158458, 0.000000000000000000, 10.05138942754693687 ) ) ;
#663 = EDGE_LOOP ( 'NONE', ( #245, #975, #551, #793, #935, #639, #597, #61, #239, #418, #177, #3, #486, #818, #383, #10, #783 ) ) ;
#664 = CARTESIAN_POINT ( 'NONE',  ( -41.99980406863909366, 54.20000000000000284, 6.054196454599364507 ) ) ;
#665 = DIRECTION ( 'NONE',  ( 0.000000000000000000, 0.000000000000000000, -1.000000000000000000 ) ) ;
#666 = EDGE_CURVE ( 'NONE', #115, #95, #827, .T. ) ;
#667 = CARTESIAN_POINT ( 'NONE',  ( 46.00113270104517227, 54.20000000000000995, 2.051389427546427946 ) ) ;
#668 = ORIENTED_EDGE ( 'NONE', *, *, #247, .F. ) ;
#669 = CARTESIAN_POINT ( 'NONE',  ( -42.00120684360094714, 54.19999999999999574, 8.053143511762748119 ) ) ;
#670 = LINE ( 'NONE', #133, #849 ) ;
#671 = VECTOR ( 'NONE', #126, 1000.000000000000000 ) ;
#672 = CARTESIAN_POINT ( 'NONE',  ( -60.00000000000001421, 54.20000000000000284, 6.051389427545998956 ) ) ;
#673 = ORIENTED_EDGE ( 'NONE', *, *, #502, .F. ) ;
#674 = VERTEX_POINT ( 'NONE', #281 ) ;
#675 = DIRECTION ( 'NONE',  ( 0.000000000000000000, 0.000000000000000000, -1.000000000000000000 ) ) ;
#676 = B_SPLINE_CURVE_WITH_KNOTS ( 'NONE', 2,
 ( #93, #466, #6 ),
 .UNSPECIFIED., .F., .F.,
 ( 3, 3 ),
 ( 0.9723842197032895873, 1.000000000000000000 ),
 .UNSPECIFIED. ) ;
#677 = LINE ( 'NONE', #55, #241 ) ;
#678 = ORIENTED_EDGE ( 'NONE', *, *, #336, .T. ) ;
#679 = PERSON_AND_ORGANIZATION ( #104, #961 ) ;
#680 = EDGE_CURVE ( 'NONE', #300, #40, #759, .T. ) ;
#681 = APPLICATION_CONTEXT ( 'configuration controlled 3d designs of mechanical parts and assemblies' ) ;
#682 = CARTESIAN_POINT ( 'NONE',  ( -56.65464248979756690, 0.000000000000000000, -2.722566187309705121 ) ) ;
#683 = LINE ( 'NONE', #991, #506 ) ;
#684 = ORIENTED_EDGE ( 'NONE', *, *, #620, .F. ) ;
#685 = CALENDAR_DATE ( 2025, 11, 9 ) ;
#686 = ORIENTED_EDGE ( 'NONE', *, *, #347, .T. ) ;
#687 = EDGE_CURVE ( 'NONE', #202, #909, #214, .T. ) ;
#688 = FACE_OUTER_BOUND ( 'NONE', #631, .T. ) ;
#689 = DIRECTION ( 'NONE',  ( -0.000000000000000000, -1.000000000000000000, -0.000000000000000000 ) ) ;
#690 = VECTOR ( 'NONE', #381, 1000.000000000000000 ) ;
#691 = ORIENTED_EDGE ( 'NONE', *, *, #996, .F. ) ;
#692 = AXIS2_PLACEMENT_3D ( 'NONE', #966, #346, #645 ) ;
#693 = CIRCLE ( 'NONE', #225, 9.999999999999998224 ) ;
#694 = ORIENTED_EDGE ( 'NONE', *, *, #85, .F. ) ;
#695 = CARTESIAN_POINT ( 'NONE',  ( -43.33469562135123709, 0.000000000000000000, 10.05138942754693687 ) ) ;
#696 = ADVANCED_FACE ( 'NONE', ( #911 ), #431, .F. ) ;
#697 = CARTESIAN_POINT ( 'NONE',  ( -45.99980308369511306, 0.000000000000000000, 10.05138942752818743 ) ) ;
#698 =( BOUNDED_CURVE ( )  B_SPLINE_CURVE ( 3, ( #152, #649, #669, #664, #429, #411, #47 ),
 .UNSPECIFIED., .F., .F. ) 
 B_SPLINE_CURVE_WITH_KNOTS ( ( 4, 3, 4 ),
 ( 0.2500877196061879748, 0.5000000000000000000, 0.7500877196061879193 ),
 .UNSPECIFIED. ) 
 CURVE ( )  GEOMETRIC_REPRESENTATION_ITEM ( )  RATIONAL_B_SPLINE_CURVE ( ( 0.5000000615578346075, 0.5001169799941955763, 0.6667836261415840404, 1.000000000000000000, 0.6665497071917494409, 0.4998830610443609768, 0.5000000615578346075 ) ) 
 REPRESENTATION_ITEM ( '' )  );
#699 = ORIENTED_EDGE ( 'NONE', *, *, #273, .T. ) ;
#700 = LINE ( 'NONE', #402, #251 ) ;
#701 = DIRECTION ( 'NONE',  ( 0.000000000000000000, 0.000000000000000000, -1.000000000000000000 ) ) ;
#702 = EDGE_CURVE ( 'NONE', #316, #377, #835, .T. ) ;
#703 = EDGE_LOOP ( 'NONE', ( #786, #154 ) ) ;
#704 = ORIENTED_EDGE ( 'NONE', *, *, #226, .T. ) ;
#705 = FACE_OUTER_BOUND ( 'NONE', #446, .T. ) ;
#706 = CARTESIAN_POINT ( 'NONE',  ( -56.65464248979756690, 54.20000000000000284, -2.722566187309705121 ) ) ;
#707 = CC_DESIGN_PERSON_AND_ORGANIZATION_ASSIGNMENT ( #351, #82, ( #572 ) ) ;
#708 = VECTOR ( 'NONE', #817, 1000.000000000000000 ) ;
#709 = CIRCLE ( 'NONE', #158, 9.999999999999998224 ) ;
#710 = ORIENTED_EDGE ( 'NONE', *, *, #799, .F. ) ;
#711 = AXIS2_PLACEMENT_3D ( 'NONE', #312, #608, #244 ) ;
#712 = CARTESIAN_POINT ( 'NONE',  ( 37.47174679483479309, 54.20000000000000284, 6.314820395586764334 ) ) ;
#713 = DIRECTION ( 'NONE',  ( 0.000000000000000000, -0.000000000000000000, 1.000000000000000000 ) ) ;
#714 = EDGE_LOOP ( 'NONE', ( #880, #56, #101, #243 ) ) ;
#715 = EDGE_CURVE ( 'NONE', #627, #202, #292, .T. ) ;
#716 = CYLINDRICAL_SURFACE ( 'NONE', #711, 2.799999999999993605 ) ;
#717 = LINE ( 'NONE', #24, #655 ) ;
#718 = ORIENTED_EDGE ( 'NONE', *, *, #807, .F. ) ;
#719 = DIRECTION ( 'NONE',  ( -6.938893903907229364E-16, 0.000000000000000000, 1.000000000000000000 ) ) ;
#720 = ADVANCED_FACE ( 'NONE', ( #203 ), #53, .T. ) ;
#721 = PLANE ( 'NONE',  #899 ) ;
#722 = PLANE ( 'NONE',  #421 ) ;
#723 = VERTEX_POINT ( 'NONE', #516 ) ;
#724 = VECTOR ( 'NONE', #443, 1000.000000000000000 ) ;
#725 = CARTESIAN_POINT ( 'NONE',  ( 46.00019691587694837, 0.000000000000000000, 10.05138942754642883 ) ) ;
#726 = VECTOR ( 'NONE', #881, 1000.000000000000000 ) ;
#727 = DIRECTION ( 'NONE',  ( -0.000000000000000000, 1.000000000000000000, -0.000000000000000000 ) ) ;
#728 = CARTESIAN_POINT ( 'NONE',  ( 45.99926113070653599, 54.19999999999999574, 10.05138942754642883 ) ) ;
#729 = VERTEX_POINT ( 'NONE', #370 ) ;
#730 =( NAMED_UNIT ( * ) SI_UNIT ( $, .STERADIAN. ) SOLID_ANGLE_UNIT ( ) );
#731 = B_SPLINE_CURVE_WITH_KNOTS ( 'NONE', 2,
 ( #463, #712, #541 ),
 .UNSPECIFIED., .F., .F.,
 ( 3, 3 ),
 ( 0.9723842197032895873, 1.000000000000000000 ),
 .UNSPECIFIED. ) ;
#732 = CARTESIAN_POINT ( 'NONE',  ( 61.99999999938118833, 54.20000000000000284, -23.94861057245328695 ) ) ;
#733 = CARTESIAN_POINT ( 'NONE',  ( -49.99839932378927188, 0.000000000000000000, 4.049635343331123849 ) ) ;
#734 = EDGE_CURVE ( 'NONE', #192, #758, #68, .T. ) ;
#735 = ORIENTED_EDGE ( 'NONE', *, *, #145, .T. ) ;
#736 = CARTESIAN_POINT ( 'NONE',  ( 42.99999999999998579, 54.20000000000000284, 2.277433812690293990 ) ) ;
#737 = LINE ( 'NONE', #339, #208 ) ;
#738 = CARTESIAN_POINT ( 'NONE',  ( -45.99980308369511306, 0.000000000000000000, 10.05138942754693687 ) ) ;
#739 = ORIENTED_EDGE ( 'NONE', *, *, #936, .F. ) ;
#740 = ADVANCED_FACE ( 'NONE', ( #436 ), #63, .T. ) ;
#741 = VECTOR ( 'NONE', #985, 1000.000000000000000 ) ;
#742 = AXIS2_PLACEMENT_3D ( 'NONE', #934, #321, #938 ) ;
#743 = VECTOR ( 'NONE', #640, 1000.000000000000000 ) ;
#744 = DIRECTION ( 'NONE',  ( -0.000000000000000000, 1.000000000000000000, -0.000000000000000000 ) ) ;
#745 = AXIS2_PLACEMENT_3D ( 'NONE', #933, #399, #153 ) ;
#746 = CARTESIAN_POINT ( 'NONE',  ( -50.00120635110089040, 0.000000000000000000, 8.049634727752820851 ) ) ;
#747 = VECTOR ( 'NONE', #331, 1000.000000000000000 ) ;
#748 = ORIENTED_EDGE ( 'NONE', *, *, #567, .F. ) ;
#749 = CARTESIAN_POINT ( 'NONE',  ( -50.00120635110089040, 54.20000000000000284, 8.049634727752820851 ) ) ;
#750 = UNCERTAINTY_MEASURE_WITH_UNIT (LENGTH_MEASURE( 1.000000000000000082E-05 ), #487, 'distance_accuracy_value', 'NONE');
#751 = CARTESIAN_POINT ( 'NONE',  ( 42.99999999999998579, 54.20000000000000284, -2.722566187309705121 ) ) ;
#752 = ORIENTED_EDGE ( 'NONE', *, *, #432, .F. ) ;
#753 = DIRECTION ( 'NONE',  ( 0.000000000000000000, 1.000000000000000000, -0.000000000000000000 ) ) ;
#754 = DIRECTION ( 'NONE',  ( 0.000000000000000000, -1.000000000000000000, 0.000000000000000000 ) ) ;
#755 = CARTESIAN_POINT ( 'NONE',  ( -42.99999999999999289, 54.20000000000000284, -2.722566187309705121 ) ) ;
#756 = EDGE_LOOP ( 'NONE', ( #833, #847, #952, #255 ) ) ;
#757 = DATE_AND_TIME ( #843, #619 ) ;
#758 = VERTEX_POINT ( 'NONE', #892 ) ;
#759 = LINE ( 'NONE', #682, #724 ) ;
#760 = CC_DESIGN_APPROVAL ( #213, ( #554 ) ) ;
#761 = EDGE_CURVE ( 'NONE', #920, #854, #365, .T. ) ;
#762 = ORIENTED_EDGE ( 'NONE', *, *, #831, .T. ) ;
#763 = CALENDAR_DATE ( 2025, 11, 9 ) ;
#764 = CARTESIAN_POINT ( 'NONE',  ( -49.99839932378927188, 54.19999999999999574, 4.049635343331123849 ) ) ;
#765 = CARTESIAN_POINT ( 'NONE',  ( -37.99999999999999289, 54.20000000000000284, 0.000000000000000000 ) ) ;
#766 = ORIENTED_EDGE ( 'NONE', *, *, #462, .F. ) ;
#767 = EDGE_CURVE ( 'NONE', #275, #790, #141, .T. ) ;
#768 = DIRECTION ( 'NONE',  ( -0.000000000000000000, 1.000000000000000000, -0.000000000000000000 ) ) ;
#769 = CARTESIAN_POINT ( 'NONE',  ( -37.99999999999999289, 54.20000000000000284, 2.277433812690293546 ) ) ;
#770 = EDGE_LOOP ( 'NONE', ( #860, #618, #452, #233 ) ) ;
#771 = APPROVAL_ROLE ( '' ) ;
#772 = CYLINDRICAL_SURFACE ( 'NONE', #897, 3.999999999981249665 ) ;
#773 = AXIS2_PLACEMENT_3D ( 'NONE', #235, #534, #261 ) ;
#774 = CARTESIAN_POINT ( 'NONE',  ( 0.000000000000000000, 54.20000000000000284, 6.301389427546009614 ) ) ;
#775 = LOCAL_TIME ( 19, 55, 20.00000000000000000, #140 ) ;
#776 = DIRECTION ( 'NONE',  ( 0.000000000000000000, 1.000000000000000000, 0.000000000000000000 ) ) ;
#777 = AXIS2_PLACEMENT_3D ( 'NONE', #791, #232, #701 ) ;
#778 = PRODUCT_DEFINITION_SHAPE ( 'NONE', 'NONE',  #594 ) ;
#779 = CARTESIAN_POINT ( 'NONE',  ( -45.99980308369510595, 0.000000000000000000, 2.051389427546936428 ) ) ;
#780 = EDGE_CURVE ( 'NONE', #854, #316, #553, .T. ) ;
#781 = CARTESIAN_POINT ( 'NONE',  ( -42.99999999999999289, 54.20000000000000284, 2.277433812690293546 ) ) ;
#782 = CARTESIAN_POINT ( 'NONE',  ( 0.000000000000000000, 54.20000000000000284, 16.05138942754599896 ) ) ;
#783 = ORIENTED_EDGE ( 'NONE', *, *, #336, .F. ) ;
#784 = CARTESIAN_POINT ( 'NONE',  ( 60.00000000000001421, 54.20000000000000284, 6.051389427545998956 ) ) ;
#785 = LINE ( 'NONE', #91, #570 ) ;
#786 = ORIENTED_EDGE ( 'NONE', *, *, #906, .F. ) ;
#787 = DIRECTION ( 'NONE',  ( -0.000000000000000000, 1.000000000000000000, -0.000000000000000000 ) ) ;
#788 = CARTESIAN_POINT ( 'NONE',  ( 0.000000000000000000, 54.20000000000000284, -27.94861057245399394 ) ) ;
#789 = EDGE_CURVE ( 'NONE', #538, #163, #660, .T. ) ;
#790 = VERTEX_POINT ( 'NONE', #482 ) ;
#791 = CARTESIAN_POINT ( 'NONE',  ( 60.00000000000001421, 54.20000000000000284, 6.051389427545998956 ) ) ;
#792 = LINE ( 'NONE', #751, #111 ) ;
#793 = ORIENTED_EDGE ( 'NONE', *, *, #131, .T. ) ;
#794 = CARTESIAN_POINT ( 'NONE',  ( 60.00000000000001421, 0.000000000000000000, 6.051389427545998956 ) ) ;
#795 = CARTESIAN_POINT ( 'NONE',  ( -37.99999999999999289, 0.000000000000000000, 2.277433812690293546 ) ) ;
#796 = CARTESIAN_POINT ( 'NONE',  ( 60.00000000000001421, 0.000000000000000000, 16.05138942754599896 ) ) ;
#797 = ORIENTED_EDGE ( 'NONE', *, *, #226, .F. ) ;
#798 = DIRECTION ( 'NONE',  ( -0.000000000000000000, -1.000000000000000000, -0.000000000000000000 ) ) ;
#799 = EDGE_CURVE ( 'NONE', #627, #864, #700, .T. ) ;
#800 = CARTESIAN_POINT ( 'NONE',  ( -62.00000000003753797, 54.20000000000000284, -26.74861057245323082 ) ) ;
#801 = CARTESIAN_POINT ( 'NONE',  ( -56.65464248979756690, 0.000000000000000000, -27.94861057245399394 ) ) ;
#802 = VERTEX_POINT ( 'NONE', #187 ) ;
#803 = PLANE ( 'NONE',  #62 ) ;
#804 = AXIS2_PLACEMENT_3D ( 'NONE', #815, #37, #338 ) ;
#805 = AXIS2_PLACEMENT_3D ( 'NONE', #144, #427, #299 ) ;
#806 = VECTOR ( 'NONE', #787, 1000.000000000000000 ) ;
#807 = EDGE_CURVE ( 'NONE', #895, #305, #628, .T. ) ;
#808 = DIRECTION ( 'NONE',  ( 0.000000000000000000, 0.000000000000000000, -1.000000000000000000 ) ) ;
#809 = VECTOR ( 'NONE', #970, 1000.000000000000000 ) ;
#810 = CARTESIAN_POINT ( 'NONE',  ( 53.99458974790285737, 0.000000000000000000, 2.056998563239176292 ) ) ;
#811 = ORIENTED_EDGE ( 'NONE', *, *, #247, .T. ) ;
#812 = DIRECTION ( 'NONE',  ( 0.000000000000000000, 1.000000000000000000, 0.000000000000000000 ) ) ;
#813 = CARTESIAN_POINT ( 'NONE',  ( 53.99738890523990165, 0.000000000000000000, 10.05138942753329268 ) ) ;
#814 = VERTEX_POINT ( 'NONE', #157 ) ;
#815 = CARTESIAN_POINT ( 'NONE',  ( 0.000000000000000000, 0.000000000000000000, 0.000000000000000000 ) ) ;
#816 = CARTESIAN_POINT ( 'NONE',  ( -56.65464248979756690, 54.20000000000000284, -27.94861057245399394 ) ) ;
#817 = DIRECTION ( 'NONE',  ( -0.000000000000000000, 1.000000000000000000, -0.000000000000000000 ) ) ;
#818 = ORIENTED_EDGE ( 'NONE', *, *, #650, .T. ) ;
#819 = EDGE_CURVE ( 'NONE', #814, #861, #583, .T. ) ;
#820 = VECTOR ( 'NONE', #978, 1000.000000000000000 ) ;
#821 = VECTOR ( 'NONE', #798, 1000.000000000000000 ) ;
#822 = CC_DESIGN_APPROVAL ( #283, ( #206 ) ) ;
#823 = CARTESIAN_POINT ( 'NONE',  ( 0.000000000000000000, 0.000000000000000000, -27.94861057245399394 ) ) ;
#824 = DIRECTION ( 'NONE',  ( -1.000000000000000000, 0.000000000000000000, 0.000000000000000000 ) ) ;
#825 = ORIENTED_EDGE ( 'NONE', *, *, #11, .T. ) ;
#826 = CARTESIAN_POINT ( 'NONE',  ( -56.65464248979756690, 54.20000000000000284, -0.000000000000000000 ) ) ;
#827 = LINE ( 'NONE', #898, #995 ) ;
#828 = CARTESIAN_POINT ( 'NONE',  ( 38.00580408382477060, 0.000000000000000000, 10.04578029185366539 ) ) ;
#829 = EDGE_LOOP ( 'NONE', ( #311, #161 ) ) ;
#830 = PLANE ( 'NONE',  #132 ) ;
#831 = EDGE_CURVE ( 'NONE', #163, #25, #306, .T. ) ;
#832 = DIRECTION ( 'NONE',  ( -0.000000000000000000, 1.000000000000000000, -0.000000000000000000 ) ) ;
#833 = ORIENTED_EDGE ( 'NONE', *, *, #650, .F. ) ;
#834 = DATE_TIME_ROLE ( 'creation_date' ) ;
#835 = LINE ( 'NONE', #358, #820 ) ;
#836 = ADVANCED_FACE ( 'NONE', ( #876, #612, #921, #106, #477 ), #953, .F. ) ;
#837 = FACE_OUTER_BOUND ( 'NONE', #379, .T. ) ;
#838 = ORIENTED_EDGE ( 'NONE', *, *, #573, .T. ) ;
#839 = DATE_TIME_ROLE ( 'classification_date' ) ;
#840 = CARTESIAN_POINT ( 'NONE',  ( -45.99980308369511306, 54.19999999999999574, 10.05138942754693687 ) ) ;
#841 = DIRECTION ( 'NONE',  ( 0.000000000000000000, 1.000000000000000000, 0.000000000000000000 ) ) ;
#842 = ORIENTED_EDGE ( 'NONE', *, *, #914, .T. ) ;
#843 = CALENDAR_DATE ( 2025, 11, 9 ) ;
#844 = ADVANCED_FACE ( 'NONE', ( #84 ), #385, .F. ) ;
#845 = ORIENTED_EDGE ( 'NONE', *, *, #11, .F. ) ;
#846 = CYLINDRICAL_SURFACE ( 'NONE', #745, 3.999999999981249665 ) ;
#847 = ORIENTED_EDGE ( 'NONE', *, *, #194, .F. ) ;
#848 = CARTESIAN_POINT ( 'NONE',  ( 37.99999999999999289, 0.000000000000000000, 2.277433812690293990 ) ) ;
#849 = VECTOR ( 'NONE', #579, 1000.000000000000000 ) ;
#850 = DIRECTION ( 'NONE',  ( -0.000000000000000000, 1.000000000000000000, -0.000000000000000000 ) ) ;
#851 = AXIS2_PLACEMENT_3D ( 'NONE', #736, #753, #357 ) ;
#852 = ORIENTED_EDGE ( 'NONE', *, *, #448, .T. ) ;
#853 = VECTOR ( 'NONE', #727, 1000.000000000000000 ) ;
#854 = VERTEX_POINT ( 'NONE', #848 ) ;
#855 = FACE_OUTER_BOUND ( 'NONE', #870, .T. ) ;
#856 = ORIENTED_EDGE ( 'NONE', *, *, #113, .F. ) ;
#857 = VERTEX_POINT ( 'NONE', #725 ) ;
#858 = ADVANCED_FACE ( 'NONE', ( #78 ), #772, .F. ) ;
#859 = CARTESIAN_POINT ( 'NONE',  ( 70.00000000000000000, 0.000000000000000000, 2.207829878515937048E-14 ) ) ;
#860 = ORIENTED_EDGE ( 'NONE', *, *, #72, .F. ) ;
#861 = VERTEX_POINT ( 'NONE', #867 ) ;
#862 = CARTESIAN_POINT ( 'NONE',  ( 46.00019691587694837, 54.20000000000000995, 10.05138942754642883 ) ) ;
#863 = EDGE_CURVE ( 'NONE', #909, #192, #328, .T. ) ;
#864 = VERTEX_POINT ( 'NONE', #333 ) ;
#865 = CIRCLE ( 'NONE', #271, 2.799999999999993605 ) ;
#866 = ORIENTED_EDGE ( 'NONE', *, *, #871, .T. ) ;
#867 = CARTESIAN_POINT ( 'NONE',  ( -45.99980308369510595, 0.000000000000000000, 2.051389427546936428 ) ) ;
#868 = FACE_OUTER_BOUND ( 'NONE', #609, .T. ) ;
#869 = DIRECTION ( 'NONE',  ( -0.000000000000000000, 0.000000000000000000, -1.000000000000000000 ) ) ;
#870 = EDGE_LOOP ( 'NONE', ( #264, #668, #246, #388 ) ) ;
#871 = EDGE_CURVE ( 'NONE', #543, #547, #633, .T. ) ;
#872 = DIRECTION ( 'NONE',  ( -0.000000000000000000, -1.000000000000000000, 0.000000000000000000 ) ) ;
#873 = DIRECTION ( 'NONE',  ( 0.000000000000000000, 0.000000000000000000, 1.000000000000000000 ) ) ;
#874 = CARTESIAN_POINT ( 'NONE',  ( -49.99980209875113246, 0.000000000000000000, 6.048582400494510125 ) ) ;
#875 = ORIENTED_EDGE ( 'NONE', *, *, #573, .F. ) ;
#876 = FACE_BOUND ( 'NONE', #314, .T. ) ;
#877 = EDGE_CURVE ( 'NONE', #186, #648, #947, .T. ) ;
#878 = DIRECTION ( 'NONE',  ( 0.000000000000000000, 1.000000000000000000, -0.000000000000000000 ) ) ;
#879 = LINE ( 'NONE', #479, #809 ) ;
#880 = ORIENTED_EDGE ( 'NONE', *, *, #188, .F. ) ;
#881 = DIRECTION ( 'NONE',  ( 0.000000000000000000, 0.000000000000000000, -1.000000000000000000 ) ) ;
#882 = DIRECTION ( 'NONE',  ( 0.000000000000000000, -1.000000000000000000, 0.000000000000000000 ) ) ;
#883 = CARTESIAN_POINT ( 'NONE',  ( 45.99738988882125312, 54.20000000000000284, 10.05138844262119946 ) ) ;
#884 = B_SPLINE_SURFACE_WITH_KNOTS ( 'NONE', 2, 1, ( 
 ( #258, #184 ),
 ( #559, #574 ),
 ( #958, #43 ) ),
 .UNSPECIFIED., .F., .F., .F.,
 ( 3, 3 ),
 ( 2, 2 ),
 ( 0.9723842197032895873, 1.000000000000000000 ),
 ( 0.000000000000000000, 1.000000000000000000 ),
 .UNSPECIFIED. ) ;
#885 = ORIENTED_EDGE ( 'NONE', *, *, #666, .F. ) ;
#886 = MECHANICAL_CONTEXT ( 'NONE', #162, 'mechanical' ) ;
#887 = FACE_OUTER_BOUND ( 'NONE', #503, .T. ) ;
#888 = EDGE_CURVE ( 'NONE', #758, #25, #709, .T. ) ;
#889 = CARTESIAN_POINT ( 'NONE',  ( 42.99999999999998579, 54.20000000000000284, -2.722566187309705121 ) ) ;
#890 = ORIENTED_EDGE ( 'NONE', *, *, #347, .F. ) ;
#891 =( NAMED_UNIT ( * ) PLANE_ANGLE_UNIT ( ) SI_UNIT ( $, .RADIAN. ) );
#892 = CARTESIAN_POINT ( 'NONE',  ( -60.00000000000001421, 0.000000000000000000, 16.05138942754599896 ) ) ;
#893 = DIRECTION ( 'NONE',  ( -0.000000000000000000, 1.000000000000000000, -0.000000000000000000 ) ) ;
#894 = ADVANCED_FACE ( 'NONE', ( #688 ), #918, .T. ) ;
#895 = VERTEX_POINT ( 'NONE', #530 ) ;
#896 = DIRECTION ( 'NONE',  ( 1.000000000000000000, 0.000000000000000000, -0.000000000000000000 ) ) ;
#897 = AXIS2_PLACEMENT_3D ( 'NONE', #327, #768, #552 ) ;
#898 = CARTESIAN_POINT ( 'NONE',  ( 61.99999999938118833, -6.938893903907228378E-15, -21.14861057245329334 ) ) ;
#899 = AXIS2_PLACEMENT_3D ( 'NONE', #329, #404, #949 ) ;
#900 = DIRECTION ( 'NONE',  ( -0.000000000000000000, -1.000000000000000000, -0.000000000000000000 ) ) ;
#901 = ORIENTED_EDGE ( 'NONE', *, *, #407, .T. ) ;
#902 = CARTESIAN_POINT ( 'NONE',  ( -62.00000000003753797, -6.938893903907228378E-15, -23.94861057245323366 ) ) ;
#903 = CARTESIAN_POINT ( 'NONE',  ( 56.65464248979756690, 0.000000000000000000, 0.000000000000000000 ) ) ;
#904 = CYLINDRICAL_SURFACE ( 'NONE', #603, 9.999999999999998224 ) ;
#905 = ORIENTED_EDGE ( 'NONE', *, *, #201, .F. ) ;
#906 = EDGE_CURVE ( 'NONE', #790, #275, #698, .T. ) ;
#907 = DIRECTION ( 'NONE',  ( 1.000000000000000000, 0.000000000000000000, -3.154042683594196107E-16 ) ) ;
#908 = CARTESIAN_POINT ( 'NONE',  ( 46.00300394292607820, 54.20000000000000284, 2.051390412471657765 ) ) ;
#909 = VERTEX_POINT ( 'NONE', #972 ) ;
#910 = PERSON_AND_ORGANIZATION_ROLE ( 'design_supplier' ) ;
#911 = FACE_OUTER_BOUND ( 'NONE', #17, .T. ) ;
#912 = VECTOR ( 'NONE', #973, 1000.000000000000000 ) ;
#913 = LOCAL_TIME ( 19, 55, 20.00000000000000000, #983 ) ;
#914 = EDGE_CURVE ( 'NONE', #723, #163, #276, .T. ) ;
#915 = CARTESIAN_POINT ( 'NONE',  ( 42.99999999999998579, 0.000000000000000000, -2.722566187309705121 ) ) ;
#916 = ORIENTED_EDGE ( 'NONE', *, *, #319, .T. ) ;
#917 = VERTEX_POINT ( 'NONE', #582 ) ;
#918 = PLANE ( 'NONE',  #380 ) ;
#919 = CARTESIAN_POINT ( 'NONE',  ( -45.99980308369511306, 0.000000000000000000, 2.051389427565687651 ) ) ;
#920 = VERTEX_POINT ( 'NONE', #415 ) ;
#921 = FACE_BOUND ( 'NONE', #561, .T. ) ;
#922 = DIRECTION ( 'NONE',  ( -0.000000000000000000, 1.000000000000000000, -0.000000000000000000 ) ) ;
#923 = DIRECTION ( 'NONE',  ( 1.000000000000000000, -0.000000000000000000, 0.000000000000000000 ) ) ;
#924 = ORIENTED_EDGE ( 'NONE', *, *, #437, .T. ) ;
#925 = VECTOR ( 'NONE', #754, 1000.000000000000000 ) ;
#926 = DIRECTION ( 'NONE',  ( 0.000000000000000000, 0.000000000000000000, 1.000000000000000000 ) ) ;
#927 = CIRCLE ( 'NONE', #851, 5.000000000000000000 ) ;
#928 = EDGE_LOOP ( 'NONE', ( #469, #92, #748, #718 ) ) ;
#929 = VECTOR ( 'NONE', #473, 1000.000000000000000 ) ;
#930 = ORIENTED_EDGE ( 'NONE', *, *, #680, .T. ) ;
#931 = ADVANCED_FACE ( 'NONE', ( #495 ), #976, .F. ) ;
#932 = VECTOR ( 'NONE', #744, 1000.000000000000000 ) ;
#933 = CARTESIAN_POINT ( 'NONE',  ( -45.99980308369511306, 0.000000000000000000, 6.051389427546937760 ) ) ;
#934 = CARTESIAN_POINT ( 'NONE',  ( -62.00000000003753797, 54.20000000000000284, -23.94861057245323366 ) ) ;
#935 = ORIENTED_EDGE ( 'NONE', *, *, #59, .T. ) ;
#936 = EDGE_CURVE ( 'NONE', #186, #920, #927, .T. ) ;
#937 = CARTESIAN_POINT ( 'NONE',  ( -37.99999999999999289, 54.20000000000000284, 6.301389427546009614 ) ) ;
#938 = DIRECTION ( 'NONE',  ( 0.000000000000000000, 0.000000000000000000, 1.000000000000000000 ) ) ;
#939 = ORIENTED_EDGE ( 'NONE', *, *, #164, .F. ) ;
#940 = CARTESIAN_POINT ( 'NONE',  ( -70.00000000000000000, 0.000000000000000000, 2.207829878515937048E-14 ) ) ;
#941 = CARTESIAN_POINT ( 'NONE',  ( -37.99999999999999289, 0.000000000000000000, 6.301389427546009614 ) ) ;
#942 = EDGE_CURVE ( 'NONE', #518, #627, #57, .T. ) ;
#943 = DIRECTION ( 'NONE',  ( 3.154042683594195614E-16, 0.000000000000000000, 1.000000000000000000 ) ) ;
#944 = LOCAL_TIME ( 19, 55, 20.00000000000000000, #523 ) ;
#945 = CC_DESIGN_SECURITY_CLASSIFICATION ( #554, ( #206 ) ) ;
#946 = EDGE_LOOP ( 'NONE', ( #130, #15, #461, #604, #532, #494, #350, #971, #32, #279, #139, #318, #643, #197, #250, #304, #875 ) ) ;
#947 = LINE ( 'NONE', #257, #585 ) ;
#948 = VECTOR ( 'NONE', #548, 1000.000000000000000 ) ;
#949 = DIRECTION ( 'NONE',  ( -1.000000000000000000, 0.000000000000000000, -0.000000000000000000 ) ) ;
#950 = DIRECTION ( 'NONE',  ( 0.000000000000000000, 1.000000000000000000, -0.000000000000000000 ) ) ;
#951 = EDGE_CURVE ( 'NONE', #543, #360, #286, .T. ) ;
#952 = ORIENTED_EDGE ( 'NONE', *, *, #483, .F. ) ;
#953 = PLANE ( 'NONE',  #378 ) ;
#954 = DIRECTION ( 'NONE',  ( 0.000000000000000000, 1.000000000000000000, 0.000000000000000000 ) ) ;
#955 = DIRECTION ( 'NONE',  ( 0.000000000000000000, 0.000000000000000000, 1.000000000000000000 ) ) ;
#956 = ORIENTED_EDGE ( 'NONE', *, *, #906, .T. ) ;
#957 = CARTESIAN_POINT ( 'NONE',  ( 36.92639375715585714, 54.20000000000000284, 6.301389427546009614 ) ) ;
#958 = CARTESIAN_POINT ( 'NONE',  ( 36.92639375715585714, 54.20000000000000284, 6.301389427546009614 ) ) ;
#959 = DIRECTION ( 'NONE',  ( -0.000000000000000000, 1.000000000000000000, -0.000000000000000000 ) ) ;
#960 = VERTEX_POINT ( 'NONE', #957 ) ;
#961 = ORGANIZATION ( 'UNSPECIFIED', 'UNSPECIFIED', '' ) ;
#962 = CIRCLE ( 'NONE', #176, 2.799999999999997158 ) ;
#963 = DIRECTION ( 'NONE',  ( -0.000000000000000000, 1.000000000000000000, -0.000000000000000000 ) ) ;
#964 = CIRCLE ( 'NONE', #526, 2.799999999999993605 ) ;
#965 = EDGE_LOOP ( 'NONE', ( #356, #694 ) ) ;
#966 = CARTESIAN_POINT ( 'NONE',  ( -62.00000000003753797, -6.938893903907228378E-15, -23.94861057245323366 ) ) ;
#967 = ADVANCED_FACE ( 'NONE', ( #121 ), #803, .F. ) ;
#968 = VECTOR ( 'NONE', #963, 1000.000000000000000 ) ;
#969 = DIRECTION ( 'NONE',  ( 1.000000000000000000, 0.000000000000000000, 0.000000000000000000 ) ) ;
#970 = DIRECTION ( 'NONE',  ( -1.000000000000000000, 0.000000000000000000, 0.000000000000000000 ) ) ;
#971 = ORIENTED_EDGE ( 'NONE', *, *, #238, .T. ) ;
#972 = CARTESIAN_POINT ( 'NONE',  ( 70.00000000000000000, 0.000000000000000000, 6.051389427546002509 ) ) ;
#973 = DIRECTION ( 'NONE',  ( -3.154042683594195614E-16, 0.000000000000000000, 1.000000000000000000 ) ) ;
#974 = CARTESIAN_POINT ( 'NONE',  ( 38.00300492650742967, 0.000000000000000000, 2.051389427546411071 ) ) ;
#975 = ORIENTED_EDGE ( 'NONE', *, *, #780, .T. ) ;
#976 = CYLINDRICAL_SURFACE ( 'NONE', #692, 2.799999999999997158 ) ;
#977 = CC_DESIGN_APPROVAL ( #65, ( #594 ) ) ;
#978 = DIRECTION ( 'NONE',  ( 1.000000000000000000, -0.000000000000000000, 0.000000000000000000 ) ) ;
#979 = AXIS2_PLACEMENT_3D ( 'NONE', #781, #99, #394 ) ;
#980 = CARTESIAN_POINT ( 'NONE',  ( 46.00019691587694837, 0.000000000000000000, 10.05138942754642883 ) ) ;
#981 = ORIENTED_EDGE ( 'NONE', *, *, #620, .T. ) ;
#982 = ADVANCED_FACE ( 'NONE', ( #342 ), #116, .F. ) ;
#983 = COORDINATED_UNIVERSAL_TIME_OFFSET ( 7, 0, .AHEAD. ) ;
#984 = ORIENTED_EDGE ( 'NONE', *, *, #715, .T. ) ;
#985 = DIRECTION ( 'NONE',  ( -0.000000000000000000, -1.000000000000000000, -0.000000000000000000 ) ) ;
#986 = CIRCLE ( 'NONE', #576, 2.799999999999993605 ) ;
#987 = CARTESIAN_POINT ( 'NONE',  ( 61.99999999938118833, -6.938893903907228378E-15, -26.74861057245328055 ) ) ;
#988 = EDGE_LOOP ( 'NONE', ( #332, #752, #852, #337 ) ) ;
#989 = DATE_AND_TIME ( #310, #913 ) ;
#990 = CARTESIAN_POINT ( 'NONE',  ( -48.66802946536158458, 54.20000000000000284, 10.05138942754693687 ) ) ;
#991 = CARTESIAN_POINT ( 'NONE',  ( 0.000000000000000000, 0.000000000000000000, -2.722566187309705121 ) ) ;
#992 = ORIENTED_EDGE ( 'NONE', *, *, #780, .F. ) ;
#993 = PERSON_AND_ORGANIZATION ( #104, #961 ) ;
#994 = CARTESIAN_POINT ( 'NONE',  ( 0.000000000000000000, 54.20000000000000284, -27.94861057245399394 ) ) ;
#995 = VECTOR ( 'NONE', #591, 1000.000000000000000 ) ;
#996 = EDGE_CURVE ( 'NONE', #40, #565, #578, .T. ) ;
ENDSEC;
END-ISO-10303-21;
