ISO-10303-21;
HEADER;
FILE_DESCRIPTION (( 'STEP AP203' ),
    '1' );
FILE_NAME ('CAMERA_HANG.STEP',
    '2025-10-06T11:35:44',
    ( '' ),
    ( '' ),
    'SwSTEP 2.0',
    'SolidWorks 2025',
    '' );
FILE_SCHEMA (( 'CONFIG_CONTROL_DESIGN' ));
ENDSEC;

DATA;
#1 = CARTESIAN_POINT ( 'NONE',  ( 7.000000000000008882, 92.00000000000000000, -24.00000000000001066 ) ) ;
#2 = APPROVAL_PERSON_ORGANIZATION ( #193, #924, #1282 ) ;
#3 = VERTEX_POINT ( 'NONE', #1170 ) ;
#4 = VECTOR ( 'NONE', #839, 1000.000000000000000 ) ;
#5 = DIRECTION ( 'NONE',  ( 0.000000000000000000, 1.000000000000000000, -0.000000000000000000 ) ) ;
#6 =( LENGTH_UNIT ( ) NAMED_UNIT ( * ) SI_UNIT ( .MILLI., .METRE. ) );
#7 = ADVANCED_FACE ( 'NONE', ( #1098 ), #88, .T. ) ;
#8 = ADVANCED_BREP_SHAPE_REPRESENTATION ( 'CAMERA_HANG', ( #800, #584 ), #642 ) ;
#9 = LINE ( 'NONE', #776, #141 ) ;
#10 = LINE ( 'NONE', #1177, #111 ) ;
#11 = VERTEX_POINT ( 'NONE', #511 ) ;
#12 = DIRECTION ( 'NONE',  ( -0.000000000000000000, -0.000000000000000000, -1.000000000000000000 ) ) ;
#13 = EDGE_CURVE ( 'NONE', #895, #492, #1189, .T. ) ;
#14 = CALENDAR_DATE ( 2025, 6, 10 ) ;
#15 = CARTESIAN_POINT ( 'NONE',  ( 7.000000000000009770, 95.00000000000000000, -24.00000000000001066 ) ) ;
#16 = EDGE_CURVE ( 'NONE', #1061, #982, #207, .T. ) ;
#17 = DIRECTION ( 'NONE',  ( 1.000000000000000000, 0.000000000000000000, 0.000000000000000000 ) ) ;
#18 = ORIENTED_EDGE ( 'NONE', *, *, #933, .T. ) ;
#19 = CARTESIAN_POINT ( 'NONE',  ( 5.522578595708733300E-15, 0.000000000000000000, -1.100000000000007194 ) ) ;
#20 = DIRECTION ( 'NONE',  ( -1.445602896647338917E-16, 0.000000000000000000, -1.000000000000000000 ) ) ;
#21 = EDGE_LOOP ( 'NONE', ( #18, #862, #1139, #791 ) ) ;
#22 = LINE ( 'NONE', #632, #396 ) ;
#23 = VECTOR ( 'NONE', #145, 1000.000000000000000 ) ;
#24 = EDGE_CURVE ( 'NONE', #375, #524, #9, .T. ) ;
#25 = CARTESIAN_POINT ( 'NONE',  ( 0.1793465417992441413, 85.28247351501482854, -24.00000000000001066 ) ) ;
#26 = ORIENTED_EDGE ( 'NONE', *, *, #1195, .T. ) ;
#27 = DIRECTION ( 'NONE',  ( -1.000000000000000000, 0.000000000000000000, 3.469446951953614682E-16 ) ) ;
#28 = VERTEX_POINT ( 'NONE', #291 ) ;
#29 = EDGE_CURVE ( 'NONE', #490, #379, #285, .T. ) ;
#30 = CARTESIAN_POINT ( 'NONE',  ( -9.999999999999994671, 5.000000000000000000, 9.999999999999994671 ) ) ;
#31 = VERTEX_POINT ( 'NONE', #605 ) ;
#32 = DIRECTION ( 'NONE',  ( 1.000000000000000000, -0.000000000000000000, -0.000000000000000000 ) ) ;
#33 = ORIENTED_EDGE ( 'NONE', *, *, #692, .T. ) ;
#34 = FACE_OUTER_BOUND ( 'NONE', #451, .T. ) ;
#35 = EDGE_CURVE ( 'NONE', #1083, #1030, #385, .T. ) ;
#36 = PLANE ( 'NONE',  #109 ) ;
#37 = VERTEX_POINT ( 'NONE', #783 ) ;
#38 = VECTOR ( 'NONE', #185, 1000.000000000000000 ) ;
#39 = CARTESIAN_POINT ( 'NONE',  ( -6.999999999999998224, 92.00000000000000000, 2.428612866367529143E-15 ) ) ;
#40 = VERTEX_POINT ( 'NONE', #397 ) ;
#41 = LINE ( 'NONE', #720, #774 ) ;
#42 = ADVANCED_FACE ( 'NONE', ( #201 ), #298, .F. ) ;
#43 = FACE_OUTER_BOUND ( 'NONE', #872, .T. ) ;
#44 = EDGE_LOOP ( 'NONE', ( #582, #1130, #676, #210 ) ) ;
#45 = LINE ( 'NONE', #930, #890 ) ;
#46 = ORIENTED_EDGE ( 'NONE', *, *, #16, .F. ) ;
#47 = ADVANCED_FACE ( 'NONE', ( #1004 ), #402, .T. ) ;
#48 = CARTESIAN_POINT ( 'NONE',  ( 7.000000000000009770, 95.00000000000000000, -30.00000000000001066 ) ) ;
#49 = AXIS2_PLACEMENT_3D ( 'NONE', #315, #808, #151 ) ;
#50 = VECTOR ( 'NONE', #1264, 1000.000000000000000 ) ;
#51 = EDGE_CURVE ( 'NONE', #1033, #850, #677, .T. ) ;
#52 = EDGE_LOOP ( 'NONE', ( #181, #929, #1055, #173, #1079, #755, #399, #528 ) ) ;
#53 = CARTESIAN_POINT ( 'NONE',  ( -8.000000000000007105, 94.82842712474619873, -23.96568542494924969 ) ) ;
#54 = CARTESIAN_POINT ( 'NONE',  ( 8.000000000000008882, 95.00000000000000000, -24.00000000000001066 ) ) ;
#55 = ORIENTED_EDGE ( 'NONE', *, *, #296, .T. ) ;
#56 = VECTOR ( 'NONE', #501, 1000.000000000000000 ) ;
#57 = DIRECTION ( 'NONE',  ( 1.000000000000000000, 0.000000000000000000, 0.000000000000000000 ) ) ;
#58 = ORIENTED_EDGE ( 'NONE', *, *, #186, .F. ) ;
#59 = CARTESIAN_POINT ( 'NONE',  ( 5.204170427930421283E-15, 0.000000000000000000, 1.499999999999992673 ) ) ;
#60 = FACE_OUTER_BOUND ( 'NONE', #255, .T. ) ;
#61 = ORIENTED_EDGE ( 'NONE', *, *, #587, .F. ) ;
#62 = EDGE_CURVE ( 'NONE', #963, #379, #1081, .T. ) ;
#63 = LINE ( 'NONE', #684, #38 ) ;
#64 = APPROVAL_PERSON_ORGANIZATION ( #401, #289, #114 ) ;
#65 = VECTOR ( 'NONE', #491, 1000.000000000000000 ) ;
#66 = EDGE_CURVE ( 'NONE', #653, #281, #597, .T. ) ;
#67 = ORIENTED_EDGE ( 'NONE', *, *, #1199, .F. ) ;
#68 = LINE ( 'NONE', #1042, #1124 ) ;
#69 = DIRECTION ( 'NONE',  ( 0.000000000000000000, 0.000000000000000000, 1.000000000000000000 ) ) ;
#70 = EDGE_LOOP ( 'NONE', ( #743, #1184, #96, #646 ) ) ;
#71 = PERSON ( 'UNSPECIFIED', 'UNSPECIFIED', 'UNSPECIFIED', ('UNSPECIFIED'), ('UNSPECIFIED'), ('UNSPECIFIED') ) ;
#72 = DIRECTION ( 'NONE',  ( 0.000000000000000000, -0.000000000000000000, -1.000000000000000000 ) ) ;
#73 = EDGE_CURVE ( 'NONE', #197, #1215, #712, .T. ) ;
#74 = LINE ( 'NONE', #466, #431 ) ;
#75 = EDGE_LOOP ( 'NONE', ( #117, #235, #564, #498, #534, #829 ) ) ;
#76 = PLANE ( 'NONE',  #794 ) ;
#77 = CARTESIAN_POINT ( 'NONE',  ( 5.204170427930421283E-15, 0.000000000000000000, 1.499999999999992673 ) ) ;
#78 = VERTEX_POINT ( 'NONE', #15 ) ;
#79 = DIRECTION ( 'NONE',  ( 0.000000000000000000, -1.000000000000000000, 0.000000000000000000 ) ) ;
#80 = ORIENTED_EDGE ( 'NONE', *, *, #1110, .F. ) ;
#81 = DIRECTION ( 'NONE',  ( 1.000000000000000000, 0.000000000000000000, 0.000000000000000000 ) ) ;
#82 = CARTESIAN_POINT ( 'NONE',  ( 2.000000000000007105, -0.8000000000000000444, 8.797300947221572187 ) ) ;
#83 = ORIENTED_EDGE ( 'NONE', *, *, #587, .T. ) ;
#84 = CARTESIAN_POINT ( 'NONE',  ( -2.220653458200756436, 85.28247351501482854, -30.00000000000001066 ) ) ;
#85 = APPROVAL_DATE_TIME ( #978, #473 ) ;
#86 = AXIS2_PLACEMENT_3D ( 'NONE', #1132, #1242, #57 ) ;
#87 = AXIS2_PLACEMENT_3D ( 'NONE', #348, #744, #1137 ) ;
#88 = PLANE ( 'NONE',  #1136 ) ;
#89 = EDGE_CURVE ( 'NONE', #993, #1061, #1105, .T. ) ;
#90 = CARTESIAN_POINT ( 'NONE',  ( 10.00000000000000888, 10.00000000000000178, -30.00000000000001066 ) ) ;
#91 = ORIENTED_EDGE ( 'NONE', *, *, #880, .T. ) ;
#92 = CARTESIAN_POINT ( 'NONE',  ( -1.999999999999993117, -0.8000000000000000444, 8.797300947221572187 ) ) ;
#93 = APPROVAL_DATE_TIME ( #497, #289 ) ;
#94 = ORIENTED_EDGE ( 'NONE', *, *, #763, .T. ) ;
#95 = DIRECTION ( 'NONE',  ( -0.000000000000000000, -0.000000000000000000, -1.000000000000000000 ) ) ;
#96 = ORIENTED_EDGE ( 'NONE', *, *, #796, .F. ) ;
#97 = CARTESIAN_POINT ( 'NONE',  ( -9.999999999999994671, 5.000000000000000000, 9.999999999999994671 ) ) ;
#98 = PERSON_AND_ORGANIZATION ( #71, #751 ) ;
#99 = ORIENTED_EDGE ( 'NONE', *, *, #1026, .T. ) ;
#100 = FACE_OUTER_BOUND ( 'NONE', #650, .T. ) ;
#101 = EDGE_LOOP ( 'NONE', ( #293, #359, #1253, #203 ) ) ;
#102 = DIRECTION ( 'NONE',  ( -0.000000000000000000, 0.000000000000000000, 1.000000000000000000 ) ) ;
#103 = ADVANCED_FACE ( 'NONE', ( #610 ), #407, .T. ) ;
#104 = PERSON_AND_ORGANIZATION_ROLE ( 'creator' ) ;
#105 = AXIS2_PLACEMENT_3D ( 'NONE', #780, #1266, #583 ) ;
#106 = EDGE_LOOP ( 'NONE', ( #641, #853, #471 ) ) ;
#107 = EDGE_CURVE ( 'NONE', #895, #935, #1043, .T. ) ;
#108 = CARTESIAN_POINT ( 'NONE',  ( -8.000000000000007105, 25.00000000000000000, -10.00000000000000888 ) ) ;
#109 = AXIS2_PLACEMENT_3D ( 'NONE', #412, #836, #20 ) ;
#110 = ORIENTED_EDGE ( 'NONE', *, *, #835, .F. ) ;
#111 = VECTOR ( 'NONE', #408, 1000.000000000000000 ) ;
#112 = CARTESIAN_POINT ( 'NONE',  ( 7.000000000000008882, 92.00000000000000000, -30.00000000000001066 ) ) ;
#113 = CC_DESIGN_PERSON_AND_ORGANIZATION_ASSIGNMENT ( #908, #989, ( #308 ) ) ;
#114 = APPROVAL_ROLE ( '' ) ;
#115 = DIRECTION ( 'NONE',  ( -0.000000000000000000, -1.000000000000000000, -0.000000000000000000 ) ) ;
#116 = DIRECTION ( 'NONE',  ( -0.000000000000000000, -0.000000000000000000, -1.000000000000000000 ) ) ;
#117 = ORIENTED_EDGE ( 'NONE', *, *, #663, .T. ) ;
#118 = FACE_OUTER_BOUND ( 'NONE', #1243, .T. ) ;
#119 = CARTESIAN_POINT ( 'NONE',  ( -7.000000000000007105, 95.00000000000000000, -24.00000000000001066 ) ) ;
#120 = VECTOR ( 'NONE', #337, 1000.000000000000000 ) ;
#121 = DIRECTION ( 'NONE',  ( 0.000000000000000000, 1.000000000000000000, 0.000000000000000000 ) ) ;
#122 = VERTEX_POINT ( 'NONE', #576 ) ;
#123 = DIRECTION ( 'NONE',  ( -1.445602896647338917E-16, 0.000000000000000000, 1.000000000000000000 ) ) ;
#124 = ADVANCED_FACE ( 'NONE', ( #367 ), #558, .T. ) ;
#125 = CARTESIAN_POINT ( 'NONE',  ( -2.220653458200934072, 20.28247351501463669, -30.00000000000001066 ) ) ;
#126 = EDGE_CURVE ( 'NONE', #1113, #719, #772, .T. ) ;
#127 = ORIENTED_EDGE ( 'NONE', *, *, #802, .F. ) ;
#128 = DIRECTION ( 'NONE',  ( -3.469446951953613696E-16, 0.000000000000000000, -1.000000000000000000 ) ) ;
#129 = CARTESIAN_POINT ( 'NONE',  ( -10.00000000000000178, 15.00000000000000000, -30.00000000000001066 ) ) ;
#130 = DIRECTION ( 'NONE',  ( 0.000000000000000000, 0.000000000000000000, 1.000000000000000000 ) ) ;
#131 = ORIENTED_EDGE ( 'NONE', *, *, #1238, .T. ) ;
#132 = EDGE_CURVE ( 'NONE', #963, #335, #667, .T. ) ;
#133 = CARTESIAN_POINT ( 'NONE',  ( -10.00000000000000178, 10.00000000000000178, -30.00000000000001066 ) ) ;
#134 = CARTESIAN_POINT ( 'NONE',  ( 0.1793465417992441413, 85.28247351501482854, -24.00000000000001066 ) ) ;
#135 = PLANE ( 'NONE',  #834 ) ;
#136 = ORIENTED_EDGE ( 'NONE', *, *, #409, .T. ) ;
#137 = CARTESIAN_POINT ( 'NONE',  ( -10.00000000000000178, 0.000000000000000000, -10.00000000000000888 ) ) ;
#138 = VERTEX_POINT ( 'NONE', #871 ) ;
#139 = DIRECTION ( 'NONE',  ( -1.000000000000000000, 0.000000000000000000, 0.000000000000000000 ) ) ;
#140 = EDGE_CURVE ( 'NONE', #885, #3, #264, .T. ) ;
#141 = VECTOR ( 'NONE', #115, 1000.000000000000000 ) ;
#142 = CARTESIAN_POINT ( 'NONE',  ( 0.000000000000000000, 10.00000000000000000, -10.00000000000000888 ) ) ;
#143 = EDGE_LOOP ( 'NONE', ( #1196, #91, #1145, #661 ) ) ;
#144 = AXIS2_PLACEMENT_3D ( 'NONE', #254, #540, #1040 ) ;
#145 = DIRECTION ( 'NONE',  ( -0.000000000000000000, 1.000000000000000000, 0.000000000000000000 ) ) ;
#146 = ORIENTED_EDGE ( 'NONE', *, *, #861, .F. ) ;
#147 = DIRECTION ( 'NONE',  ( 0.000000000000000000, 0.000000000000000000, 1.000000000000000000 ) ) ;
#148 = AXIS2_PLACEMENT_3D ( 'NONE', #728, #121, #735 ) ;
#149 = ORIENTED_EDGE ( 'NONE', *, *, #236, .T. ) ;
#150 = DIRECTION ( 'NONE',  ( 0.000000000000000000, -1.000000000000000000, 0.000000000000000000 ) ) ;
#151 = DIRECTION ( 'NONE',  ( -1.445602896647338917E-16, 0.000000000000000000, 1.000000000000000000 ) ) ;
#152 = ORIENTED_EDGE ( 'NONE', *, *, #89, .F. ) ;
#153 = CARTESIAN_POINT ( 'NONE',  ( -7.000000000000007105, 95.00000000000000000, -24.00000000000001066 ) ) ;
#154 = ORIENTED_EDGE ( 'NONE', *, *, #883, .T. ) ;
#155 = DIRECTION ( 'NONE',  ( 1.000000000000000000, 0.000000000000000000, 0.000000000000000000 ) ) ;
#156 = DIRECTION ( 'NONE',  ( 0.000000000000000000, -0.9805806756909202226, 0.1961161351381839613 ) ) ;
#157 = ORIENTED_EDGE ( 'NONE', *, *, #1008, .F. ) ;
#158 = AXIS2_PLACEMENT_3D ( 'NONE', #1192, #1012, #306 ) ;
#159 = LINE ( 'NONE', #879, #1201 ) ;
#160 = ORIENTED_EDGE ( 'NONE', *, *, #178, .F. ) ;
#161 = EDGE_CURVE ( 'NONE', #972, #982, #163, .T. ) ;
#162 = CARTESIAN_POINT ( 'NONE',  ( 0.000000000000000000, 0.000000000000000000, -30.00000000000001066 ) ) ;
#163 = LINE ( 'NONE', #354, #514 ) ;
#164 = ORIENTED_EDGE ( 'NONE', *, *, #893, .F. ) ;
#165 = DIRECTION ( 'NONE',  ( 0.000000000000000000, 0.000000000000000000, -1.000000000000000000 ) ) ;
#166 = CC_DESIGN_APPROVAL ( #924, ( #1123 ) ) ;
#167 = VECTOR ( 'NONE', #1005, 1000.000000000000000 ) ;
#168 = ORIENTED_EDGE ( 'NONE', *, *, #849, .F. ) ;
#169 = DIRECTION ( 'NONE',  ( 0.000000000000000000, -0.000000000000000000, -1.000000000000000000 ) ) ;
#170 = CARTESIAN_POINT ( 'NONE',  ( 10.00000000000000888, 10.00000000000000178, -30.00000000000001066 ) ) ;
#171 = ORIENTED_EDGE ( 'NONE', *, *, #1199, .T. ) ;
#172 = LINE ( 'NONE', #92, #1267 ) ;
#173 = ORIENTED_EDGE ( 'NONE', *, *, #657, .T. ) ;
#174 = DIRECTION ( 'NONE',  ( 0.000000000000000000, 0.000000000000000000, -1.000000000000000000 ) ) ;
#175 = DIRECTION ( 'NONE',  ( -0.000000000000000000, 1.000000000000000000, 0.000000000000000000 ) ) ;
#176 = VERTEX_POINT ( 'NONE', #1057 ) ;
#177 = DIRECTION ( 'NONE',  ( 0.000000000000000000, -0.000000000000000000, -1.000000000000000000 ) ) ;
#178 = EDGE_CURVE ( 'NONE', #778, #259, #955, .T. ) ;
#179 = LOCAL_TIME ( 18, 35, 44.00000000000000000, #603 ) ;
#180 = COORDINATED_UNIVERSAL_TIME_OFFSET ( 7, 0, .AHEAD. ) ;
#181 = ORIENTED_EDGE ( 'NONE', *, *, #132, .T. ) ;
#182 = LINE ( 'NONE', #190, #188 ) ;
#183 = ORIENTED_EDGE ( 'NONE', *, *, #971, .F. ) ;
#184 = VECTOR ( 'NONE', #1176, 1000.000000000000227 ) ;
#185 = DIRECTION ( 'NONE',  ( -0.000000000000000000, 1.000000000000000000, 0.000000000000000000 ) ) ;
#186 = EDGE_CURVE ( 'NONE', #335, #895, #361, .T. ) ;
#187 = AXIS2_PLACEMENT_3D ( 'NONE', #724, #1119, #130 ) ;
#188 = VECTOR ( 'NONE', #398, 1000.000000000000000 ) ;
#189 = CARTESIAN_POINT ( 'NONE',  ( 10.00000000000000888, 25.00000000000000000, 9.999999999999994671 ) ) ;
#190 = CARTESIAN_POINT ( 'NONE',  ( 5.522578595708733300E-15, 0.000000000000000000, -1.100000000000007194 ) ) ;
#191 = ORIENTED_EDGE ( 'NONE', *, *, #896, .F. ) ;
#192 = CARTESIAN_POINT ( 'NONE',  ( 10.00000000000001066, 93.31565158061279419, -23.66313031612256523 ) ) ;
#193 = PERSON_AND_ORGANIZATION ( #71, #751 ) ;
#194 = CARTESIAN_POINT ( 'NONE',  ( 0.000000000000000000, -0.8000000000000000444, 0.000000000000000000 ) ) ;
#195 = DIRECTION ( 'NONE',  ( 0.000000000000000000, -0.7619393177594592226, 0.6476484200955404669 ) ) ;
#196 = EDGE_CURVE ( 'NONE', #513, #122, #698, .T. ) ;
#197 = VERTEX_POINT ( 'NONE', #754 ) ;
#198 = DIRECTION ( 'NONE',  ( -1.000000000000000000, 0.000000000000000000, 0.000000000000000000 ) ) ;
#199 = SECURITY_CLASSIFICATION_LEVEL ( 'unclassified' ) ;
#200 = EDGE_CURVE ( 'NONE', #770, #1269, #257, .T. ) ;
#201 = FACE_OUTER_BOUND ( 'NONE', #607, .T. ) ;
#202 = DIRECTION ( 'NONE',  ( 0.000000000000000000, -0.000000000000000000, -1.000000000000000000 ) ) ;
#203 = ORIENTED_EDGE ( 'NONE', *, *, #89, .T. ) ;
#204 = CARTESIAN_POINT ( 'NONE',  ( 5.522578595708733300E-15, 5.000000000000000000, -1.100000000000007194 ) ) ;
#205 = CALENDAR_DATE ( 2025, 6, 10 ) ;
#206 = AXIS2_PLACEMENT_3D ( 'NONE', #625, #1203, #828 ) ;
#207 = LINE ( 'NONE', #909, #705 ) ;
#208 = CARTESIAN_POINT ( 'NONE',  ( 0.000000000000000000, -0.8000000000000000444, 5.797300947221572187 ) ) ;
#209 = VECTOR ( 'NONE', #241, 1000.000000000000000 ) ;
#210 = ORIENTED_EDGE ( 'NONE', *, *, #333, .T. ) ;
#211 = CARTESIAN_POINT ( 'NONE',  ( 7.000000000000008882, 95.00000000000000000, -30.00000000000001066 ) ) ;
#212 = DIRECTION ( 'NONE',  ( -0.000000000000000000, 1.000000000000000000, 0.000000000000000000 ) ) ;
#213 = DIRECTION ( 'NONE',  ( 0.000000000000000000, -0.000000000000000000, 1.000000000000000000 ) ) ;
#214 = CARTESIAN_POINT ( 'NONE',  ( 0.000000000000000000, 10.00000000000000000, -30.00000000000001066 ) ) ;
#215 = ORIENTED_EDGE ( 'NONE', *, *, #685, .T. ) ;
#216 = ADVANCED_FACE ( 'NONE', ( #962 ), #652, .F. ) ;
#217 = PLANE ( 'NONE',  #158 ) ;
#218 = AXIS2_PLACEMENT_3D ( 'NONE', #54, #550, #156 ) ;
#219 = VECTOR ( 'NONE', #1245, 1000.000000000000000 ) ;
#220 = EDGE_CURVE ( 'NONE', #993, #972, #373, .T. ) ;
#221 = AXIS2_PLACEMENT_3D ( 'NONE', #573, #12, #198 ) ;
#222 = PLANE ( 'NONE',  #148 ) ;
#223 = ORIENTED_EDGE ( 'NONE', *, *, #470, .F. ) ;
#224 = DIRECTION ( 'NONE',  ( 0.000000000000000000, 1.000000000000000000, 0.000000000000000000 ) ) ;
#225 = ORIENTED_EDGE ( 'NONE', *, *, #258, .T. ) ;
#226 = LINE ( 'NONE', #628, #413 ) ;
#227 = ADVANCED_FACE ( 'NONE', ( #60 ), #675, .T. ) ;
#228 = DIRECTION ( 'NONE',  ( 1.000000000000000000, 0.000000000000000000, 0.000000000000000000 ) ) ;
#229 = EDGE_LOOP ( 'NONE', ( #460, #548, #1279, #46 ) ) ;
#230 = LOCAL_TIME ( 18, 35, 44.00000000000000000, #509 ) ;
#231 = LINE ( 'NONE', #1127, #495 ) ;
#232 = CIRCLE ( 'NONE', #459, 3.000000000000000000 ) ;
#233 = CARTESIAN_POINT ( 'NONE',  ( -9.999999999999994671, 5.000000000000000000, 9.999999999999994671 ) ) ;
#234 = FACE_OUTER_BOUND ( 'NONE', #966, .T. ) ;
#235 = ORIENTED_EDGE ( 'NONE', *, *, #493, .T. ) ;
#236 = EDGE_CURVE ( 'NONE', #467, #3, #374, .T. ) ;
#237 = CARTESIAN_POINT ( 'NONE',  ( 10.00000000000000888, 15.00000000000000000, -10.00000000000000888 ) ) ;
#238 = ORIENTED_EDGE ( 'NONE', *, *, #1104, .F. ) ;
#239 = DIRECTION ( 'NONE',  ( 0.000000000000000000, 0.000000000000000000, -1.000000000000000000 ) ) ;
#240 = EDGE_CURVE ( 'NONE', #31, #1232, #766, .T. ) ;
#241 = DIRECTION ( 'NONE',  ( -1.000000000000000000, 0.000000000000000000, 0.000000000000000000 ) ) ;
#242 = ORIENTED_EDGE ( 'NONE', *, *, #1162, .T. ) ;
#243 = LINE ( 'NONE', #237, #856 ) ;
#244 = EDGE_CURVE ( 'NONE', #630, #963, #1167, .T. ) ;
#245 = LINE ( 'NONE', #1025, #812 ) ;
#246 = FACE_BOUND ( 'NONE', #311, .T. ) ;
#247 = ORIENTED_EDGE ( 'NONE', *, *, #708, .T. ) ;
#248 = LINE ( 'NONE', #644, #1062 ) ;
#249 = DIRECTION ( 'NONE',  ( 0.000000000000000000, 0.000000000000000000, -1.000000000000000000 ) ) ;
#250 = ORIENTED_EDGE ( 'NONE', *, *, #393, .T. ) ;
#251 = CARTESIAN_POINT ( 'NONE',  ( -1.999999999999991340, -0.8000000000000000444, -5.797300947221587286 ) ) ;
#252 = VECTOR ( 'NONE', #622, 1000.000000000000114 ) ;
#253 = VECTOR ( 'NONE', #1158, 1000.000000000000000 ) ;
#254 = CARTESIAN_POINT ( 'NONE',  ( -8.000000000000012434, 0.000000000000000000, 2.367387331921292907E-15 ) ) ;
#255 = EDGE_LOOP ( 'NONE', ( #160, #456, #559, #136 ) ) ;
#256 = DIRECTION ( 'NONE',  ( 1.000000000000000000, 0.000000000000000000, 0.000000000000000000 ) ) ;
#257 = LINE ( 'NONE', #660, #678 ) ;
#258 = EDGE_CURVE ( 'NONE', #1232, #725, #1071, .T. ) ;
#259 = VERTEX_POINT ( 'NONE', #1240 ) ;
#260 = DIRECTION ( 'NONE',  ( 0.000000000000000000, 0.000000000000000000, 1.000000000000000000 ) ) ;
#261 = ADVANCED_FACE ( 'NONE', ( #349 ), #745, .T. ) ;
#262 = ORIENTED_EDGE ( 'NONE', *, *, #1118, .F. ) ;
#263 = FACE_BOUND ( 'NONE', #750, .T. ) ;
#264 = LINE ( 'NONE', #271, #552 ) ;
#265 = ORIENTED_EDGE ( 'NONE', *, *, #510, .T. ) ;
#266 = CARTESIAN_POINT ( 'NONE',  ( -9.999999999999994671, 0.000000000000000000, 9.999999999999994671 ) ) ;
#267 = PRODUCT ( 'CAMERA_HANG', 'CAMERA_HANG', '', ( #691 ) ) ;
#268 = ADVANCED_FACE ( 'NONE', ( #730 ), #433, .F. ) ;
#269 = ORIENTED_EDGE ( 'NONE', *, *, #445, .F. ) ;
#270 = CARTESIAN_POINT ( 'NONE',  ( 2.579346541799065307, 20.28247351501463669, -30.00000000000001066 ) ) ;
#271 = CARTESIAN_POINT ( 'NONE',  ( 5.204170427930421283E-15, 0.000000000000000000, 4.099999999999992539 ) ) ;
#272 = VECTOR ( 'NONE', #280, 1000.000000000000114 ) ;
#273 = ORIENTED_EDGE ( 'NONE', *, *, #740, .F. ) ;
#274 = LINE ( 'NONE', #1149, #769 ) ;
#275 = VECTOR ( 'NONE', #545, 1000.000000000000000 ) ;
#276 = AXIS2_PLACEMENT_3D ( 'NONE', #427, #1023, #822 ) ;
#277 = CARTESIAN_POINT ( 'NONE',  ( -10.00000000000000178, 0.000000000000000000, -10.00000000000000888 ) ) ;
#278 = ORIENTED_EDGE ( 'NONE', *, *, #301, .F. ) ;
#279 = CARTESIAN_POINT ( 'NONE',  ( 10.00000000000000888, 5.000000000000000000, -10.00000000000000888 ) ) ;
#280 = DIRECTION ( 'NONE',  ( 0.000000000000000000, -0.9805806756909202226, 0.1961161351381839613 ) ) ;
#281 = VERTEX_POINT ( 'NONE', #277 ) ;
#282 = ADVANCED_FACE ( 'NONE', ( #346 ), #672, .F. ) ;
#283 = FACE_OUTER_BOUND ( 'NONE', #453, .T. ) ;
#284 = EDGE_CURVE ( 'NONE', #490, #770, #74, .T. ) ;
#285 = LINE ( 'NONE', #679, #474 ) ;
#286 = DIRECTION ( 'NONE',  ( 0.000000000000000000, 0.000000000000000000, 1.000000000000000000 ) ) ;
#287 = ORIENTED_EDGE ( 'NONE', *, *, #760, .T. ) ;
#288 = LINE ( 'NONE', #1161, #832 ) ;
#289 = APPROVAL ( #1080, 'UNSPECIFIED' ) ;
#290 = CIRCLE ( 'NONE', #327, 3.000000000000000000 ) ;
#291 = CARTESIAN_POINT ( 'NONE',  ( 8.000000000000008882, 94.82842712474619873, -23.96568542494924969 ) ) ;
#292 = LINE ( 'NONE', #299, #623 ) ;
#293 = ORIENTED_EDGE ( 'NONE', *, *, #16, .T. ) ;
#294 = CARTESIAN_POINT ( 'NONE',  ( 2.579346541799065307, 20.28247351501463669, -24.00000000000001066 ) ) ;
#295 = APPROVAL_DATE_TIME ( #307, #924 ) ;
#296 = EDGE_CURVE ( 'NONE', #3, #467, #1224, .T. ) ;
#297 = VECTOR ( 'NONE', #256, 1000.000000000000000 ) ;
#298 = CYLINDRICAL_SURFACE ( 'NONE', #1111, 2.399999999999999911 ) ;
#299 = CARTESIAN_POINT ( 'NONE',  ( 2.579346541799065307, 20.28247351501463669, -21.00000000000000711 ) ) ;
#300 = EDGE_LOOP ( 'NONE', ( #831, #869, #918, #223, #440, #577 ) ) ;
#301 = EDGE_CURVE ( 'NONE', #309, #176, #478, .T. ) ;
#302 = CARTESIAN_POINT ( 'NONE',  ( 0.000000000000000000, -0.8000000000000000444, -5.797300947221587286 ) ) ;
#303 = EDGE_CURVE ( 'NONE', #935, #786, #1073, .T. ) ;
#304 = CARTESIAN_POINT ( 'NONE',  ( 10.00000000000000888, 25.00000000000000000, -10.00000000000001599 ) ) ;
#305 = VERTEX_POINT ( 'NONE', #266 ) ;
#306 = DIRECTION ( 'NONE',  ( -1.000000000000000000, 0.000000000000000000, -0.000000000000000000 ) ) ;
#307 = DATE_AND_TIME ( #1091, #900 ) ;
#308 = SECURITY_CLASSIFICATION ( '', '', #199 ) ;
#309 = VERTEX_POINT ( 'NONE', #84 ) ;
#310 = CARTESIAN_POINT ( 'NONE',  ( 2.000000000000005329, -0.8000000000000000444, -5.797300947221587286 ) ) ;
#311 = EDGE_LOOP ( 'NONE', ( #695, #1072 ) ) ;
#312 = LINE ( 'NONE', #211, #56 ) ;
#313 = CARTESIAN_POINT ( 'NONE',  ( 0.000000000000000000, 0.000000000000000000, 0.000000000000000000 ) ) ;
#314 = VECTOR ( 'NONE', #383, 1000.000000000000227 ) ;
#315 = CARTESIAN_POINT ( 'NONE',  ( -1.999999999999992228, -0.8000000000000000444, -2.891205793294666986E-16 ) ) ;
#316 = CARTESIAN_POINT ( 'NONE',  ( 0.1793465417990657562, 20.28247351501463669, -24.00000000000001066 ) ) ;
#317 = VECTOR ( 'NONE', #932, 1000.000000000000000 ) ;
#318 = EDGE_LOOP ( 'NONE', ( #55, #149 ) ) ;
#319 = DIRECTION ( 'NONE',  ( -0.000000000000000000, 0.6476484200955405779, 0.7619393177594593336 ) ) ;
#320 = EDGE_CURVE ( 'NONE', #420, #770, #578, .T. ) ;
#321 = LINE ( 'NONE', #842, #481 ) ;
#322 = EDGE_LOOP ( 'NONE', ( #1260, #818, #67, #1160, #1120, #1069, #636, #874, #1095 ) ) ;
#323 = CYLINDRICAL_SURFACE ( 'NONE', #482, 3.000000000000000000 ) ;
#324 = VECTOR ( 'NONE', #1258, 1000.000000000000000 ) ;
#325 = CARTESIAN_POINT ( 'NONE',  ( 10.00000000000000888, 0.000000000000000000, 9.999999999999994671 ) ) ;
#326 = ADVANCED_FACE ( 'NONE', ( #283 ), #775, .F. ) ;
#327 = AXIS2_PLACEMENT_3D ( 'NONE', #995, #102, #899 ) ;
#328 = PLANE ( 'NONE',  #187 ) ;
#329 = ORIENTED_EDGE ( 'NONE', *, *, #631, .F. ) ;
#330 = CARTESIAN_POINT ( 'NONE',  ( -1.999999999999991340, -0.8000000000000000444, -5.797300947221587286 ) ) ;
#331 = ORIENTED_EDGE ( 'NONE', *, *, #760, .F. ) ;
#332 = FACE_OUTER_BOUND ( 'NONE', #574, .T. ) ;
#333 = EDGE_CURVE ( 'NONE', #1172, #40, #172, .T. ) ;
#334 = DIRECTION ( 'NONE',  ( -0.000000000000000000, 0.000000000000000000, 1.000000000000000000 ) ) ;
#335 = VERTEX_POINT ( 'NONE', #464 ) ;
#336 = VECTOR ( 'NONE', #539, 1000.000000000000000 ) ;
#337 = DIRECTION ( 'NONE',  ( -0.000000000000000000, 1.000000000000000000, -0.000000000000000000 ) ) ;
#338 = AXIS2_PLACEMENT_3D ( 'NONE', #606, #798, #506 ) ;
#339 = DIRECTION ( 'NONE',  ( 1.000000000000000000, 0.000000000000000000, 0.000000000000000000 ) ) ;
#340 = DIRECTION ( 'NONE',  ( 0.000000000000000000, 0.000000000000000000, 1.000000000000000000 ) ) ;
#341 = EDGE_LOOP ( 'NONE', ( #1150, #987, #923, #1262 ) ) ;
#342 = DIRECTION ( 'NONE',  ( 1.000000000000000000, 0.000000000000000000, 0.000000000000000000 ) ) ;
#343 = EDGE_LOOP ( 'NONE', ( #823, #247, #1116, #347, #94, #250, #131, #110, #183 ) ) ;
#344 = CARTESIAN_POINT ( 'NONE',  ( 8.000000000000008882, 0.000000000000000000, 0.000000000000000000 ) ) ;
#345 = DIRECTION ( 'NONE',  ( 0.000000000000000000, 0.000000000000000000, -1.000000000000000000 ) ) ;
#346 = FACE_OUTER_BOUND ( 'NONE', #877, .T. ) ;
#347 = ORIENTED_EDGE ( 'NONE', *, *, #62, .T. ) ;
#348 = CARTESIAN_POINT ( 'NONE',  ( -7.999999999999998224, 0.000000000000000000, 3.023375200988148775E-15 ) ) ;
#349 = FACE_OUTER_BOUND ( 'NONE', #736, .T. ) ;
#350 = ORIENTED_EDGE ( 'NONE', *, *, #301, .T. ) ;
#351 = CARTESIAN_POINT ( 'NONE',  ( 2.000000000000007105, -0.8000000000000000444, 0.000000000000000000 ) ) ;
#352 = ORIENTED_EDGE ( 'NONE', *, *, #1259, .T. ) ;
#353 = CARTESIAN_POINT ( 'NONE',  ( 2.000000000000007105, 0.000000000000000000, 5.797300947221572187 ) ) ;
#354 = CARTESIAN_POINT ( 'NONE',  ( 2.000000000000005329, -0.8000000000000000444, -2.797300947221586842 ) ) ;
#355 = ORIENTED_EDGE ( 'NONE', *, *, #51, .T. ) ;
#356 = CARTESIAN_POINT ( 'NONE',  ( 5.204170427930421283E-15, 0.000000000000000000, 1.499999999999992673 ) ) ;
#357 = VECTOR ( 'NONE', #1088, 1000.000000000000000 ) ;
#358 = ADVANCED_FACE ( 'NONE', ( #1173 ), #363, .T. ) ;
#359 = ORIENTED_EDGE ( 'NONE', *, *, #161, .F. ) ;
#360 = FACE_OUTER_BOUND ( 'NONE', #70, .T. ) ;
#361 = LINE ( 'NONE', #1138, #1235 ) ;
#362 = EDGE_LOOP ( 'NONE', ( #816, #773, #242, #422 ) ) ;
#363 = PLANE ( 'NONE',  #1036 ) ;
#364 = PRODUCT_RELATED_PRODUCT_CATEGORY ( 'detail', '', ( #267 ) ) ;
#365 = EDGE_LOOP ( 'NONE', ( #714, #152, #898, #387 ) ) ;
#366 = CARTESIAN_POINT ( 'NONE',  ( -9.240408205773462669, 94.38987659787525786, -23.87797531957506436 ) ) ;
#367 = FACE_OUTER_BOUND ( 'NONE', #1286, .T. ) ;
#368 = ORIENTED_EDGE ( 'NONE', *, *, #303, .F. ) ;
#369 = CARTESIAN_POINT ( 'NONE',  ( 0.000000000000000000, 0.000000000000000000, 0.000000000000000000 ) ) ;
#370 = VERTEX_POINT ( 'NONE', #1052 ) ;
#371 = ADVANCED_FACE ( 'NONE', ( #866, #970, #376, #762 ), #1261, .T. ) ;
#372 = PLANE ( 'NONE',  #585 ) ;
#373 = LINE ( 'NONE', #864, #324 ) ;
#374 = CIRCLE ( 'NONE', #664, 2.600000000000000089 ) ;
#375 = VERTEX_POINT ( 'NONE', #1059 ) ;
#376 = FACE_OUTER_BOUND ( 'NONE', #865, .T. ) ;
#377 = APPLICATION_CONTEXT ( 'configuration controlled 3d designs of mechanical parts and assemblies' ) ;
#378 = AXIS2_PLACEMENT_3D ( 'NONE', #1222, #213, #228 ) ;
#379 = VERTEX_POINT ( 'NONE', #480 ) ;
#380 = EDGE_CURVE ( 'NONE', #618, #483, #159, .T. ) ;
#381 = DIRECTION ( 'NONE',  ( 0.000000000000000000, 0.000000000000000000, 1.000000000000000000 ) ) ;
#382 = ORIENTED_EDGE ( 'NONE', *, *, #1074, .T. ) ;
#383 = DIRECTION ( 'NONE',  ( -7.290155649472451204E-17, 0.9805806756909201116, -0.1961161351381840445 ) ) ;
#384 = PERSON_AND_ORGANIZATION_ROLE ( 'design_supplier' ) ;
#385 = LINE ( 'NONE', #1076, #977 ) ;
#386 = DIRECTION ( 'NONE',  ( -0.000000000000000000, 0.000000000000000000, 1.000000000000000000 ) ) ;
#387 = ORIENTED_EDGE ( 'NONE', *, *, #722, .T. ) ;
#388 = AXIS2_PLACEMENT_3D ( 'NONE', #112, #912, #600 ) ;
#389 = DIRECTION ( 'NONE',  ( 1.000000000000000000, 0.000000000000000000, 0.000000000000000000 ) ) ;
#390 = ORIENTED_EDGE ( 'NONE', *, *, #927, .F. ) ;
#391 = CARTESIAN_POINT ( 'NONE',  ( -10.00000000000000178, 25.00000000000000000, -10.00000000000000888 ) ) ;
#392 = ORIENTED_EDGE ( 'NONE', *, *, #126, .F. ) ;
#393 = EDGE_CURVE ( 'NONE', #11, #733, #288, .T. ) ;
#394 = PERSON_AND_ORGANIZATION ( #71, #751 ) ;
#395 = LOCAL_TIME ( 18, 35, 44.00000000000000000, #1274 ) ;
#396 = VECTOR ( 'NONE', #738, 1000.000000000000000 ) ;
#397 = CARTESIAN_POINT ( 'NONE',  ( -1.999999999999993117, 0.000000000000000000, 8.797300947221572187 ) ) ;
#398 = DIRECTION ( 'NONE',  ( -0.000000000000000000, 1.000000000000000000, -0.000000000000000000 ) ) ;
#399 = ORIENTED_EDGE ( 'NONE', *, *, #29, .T. ) ;
#400 = CARTESIAN_POINT ( 'NONE',  ( -8.000000000000007105, 94.82842712474619873, -24.00000000000001066 ) ) ;
#401 = PERSON_AND_ORGANIZATION ( #71, #751 ) ;
#402 = PLANE ( 'NONE',  #611 ) ;
#403 = CARTESIAN_POINT ( 'NONE',  ( 2.000000000000005329, 0.000000000000000000, -2.797300947221586842 ) ) ;
#404 = ORIENTED_EDGE ( 'NONE', *, *, #971, .T. ) ;
#405 = PLANE ( 'NONE',  #1115 ) ;
#406 = DATE_AND_TIME ( #14, #179 ) ;
#407 = PLANE ( 'NONE',  #49 ) ;
#408 = DIRECTION ( 'NONE',  ( 0.000000000000000000, 1.000000000000000000, 0.000000000000000000 ) ) ;
#409 = EDGE_CURVE ( 'NONE', #1065, #259, #63, .T. ) ;
#410 = ORIENTED_EDGE ( 'NONE', *, *, #13, .T. ) ;
#411 = FACE_OUTER_BOUND ( 'NONE', #362, .T. ) ;
#412 = CARTESIAN_POINT ( 'NONE',  ( -1.999999999999994449, -0.8000000000000000444, 2.891205793294669452E-16 ) ) ;
#413 = VECTOR ( 'NONE', #734, 1000.000000000000000 ) ;
#414 = VECTOR ( 'NONE', #1202, 1000.000000000000000 ) ;
#415 = ORIENTED_EDGE ( 'NONE', *, *, #35, .F. ) ;
#416 = EDGE_CURVE ( 'NONE', #580, #483, #274, .T. ) ;
#417 = LINE ( 'NONE', #330, #23 ) ;
#418 = ORIENTED_EDGE ( 'NONE', *, *, #333, .F. ) ;
#419 = CARTESIAN_POINT ( 'NONE',  ( 2.000000000000007105, -0.8000000000000000444, 8.797300947221572187 ) ) ;
#420 = VERTEX_POINT ( 'NONE', #1154 ) ;
#421 = DIRECTION ( 'NONE',  ( -1.000000000000000000, -0.000000000000000000, -0.000000000000000000 ) ) ;
#422 = ORIENTED_EDGE ( 'NONE', *, *, #1216, .T. ) ;
#423 = LINE ( 'NONE', #233, #1268 ) ;
#424 = EDGE_CURVE ( 'NONE', #885, #520, #785, .T. ) ;
#425 = DIRECTION ( 'NONE',  ( 0.000000000000000000, 0.000000000000000000, -1.000000000000000000 ) ) ;
#426 = EDGE_LOOP ( 'NONE', ( #485, #262, #767, #906, #1101, #821 ) ) ;
#427 = CARTESIAN_POINT ( 'NONE',  ( 10.00000000000000888, 5.000000000000000000, 9.999999999999994671 ) ) ;
#428 = VERTEX_POINT ( 'NONE', #458 ) ;
#429 = PLANE ( 'NONE',  #1060 ) ;
#430 = CC_DESIGN_PERSON_AND_ORGANIZATION_ASSIGNMENT ( #1003, #881, ( #267 ) ) ;
#431 = VECTOR ( 'NONE', #868, 1000.000000000000000 ) ;
#432 = CARTESIAN_POINT ( 'NONE',  ( -10.00000000000000000, 25.00000000000000000, -7.000000000000009770 ) ) ;
#433 = PLANE ( 'NONE',  #997 ) ;
#434 = ORIENTED_EDGE ( 'NONE', *, *, #424, .T. ) ;
#435 = CIRCLE ( 'NONE', #1227, 2.400000000000000799 ) ;
#436 = LINE ( 'NONE', #137, #4 ) ;
#437 = EDGE_LOOP ( 'NONE', ( #83, #804, #164, #1024 ) ) ;
#438 = DIRECTION ( 'NONE',  ( 1.000000000000000000, 0.000000000000000000, 0.000000000000000000 ) ) ;
#439 = DIRECTION ( 'NONE',  ( 1.000000000000000000, 0.000000000000000000, -0.000000000000000000 ) ) ;
#440 = ORIENTED_EDGE ( 'NONE', *, *, #953, .F. ) ;
#441 = CARTESIAN_POINT ( 'NONE',  ( 10.00000000000000888, 0.000000000000000000, 9.999999999999994671 ) ) ;
#442 = ORIENTED_EDGE ( 'NONE', *, *, #722, .F. ) ;
#443 = VECTOR ( 'NONE', #212, 1000.000000000000000 ) ;
#444 = LINE ( 'NONE', #1045, #503 ) ;
#445 = EDGE_CURVE ( 'NONE', #176, #309, #1175, .T. ) ;
#446 = ORIENTED_EDGE ( 'NONE', *, *, #244, .F. ) ;
#447 = AXIS2_PLACEMENT_3D ( 'NONE', #356, #756, #260 ) ;
#448 = ADVANCED_FACE ( 'NONE', ( #670 ), #1254, .F. ) ;
#449 = CARTESIAN_POINT ( 'NONE',  ( 8.000000000000008882, 25.00000000000000000, -10.00000000000001599 ) ) ;
#450 = CARTESIAN_POINT ( 'NONE',  ( 0.000000000000000000, 0.000000000000000000, 5.797300947221572187 ) ) ;
#451 = EDGE_LOOP ( 'NONE', ( #757, #665, #1210, #146, #168 ) ) ;
#452 = PLANE ( 'NONE',  #1207 ) ;
#453 = EDGE_LOOP ( 'NONE', ( #1284, #352, #570, #350 ) ) ;
#454 = CARTESIAN_POINT ( 'NONE',  ( -10.00000000000000711, 92.00000000000000000, -23.40000000000001279 ) ) ;
#455 = DIRECTION ( 'NONE',  ( 0.000000000000000000, -1.000000000000000000, 0.000000000000000000 ) ) ;
#456 = ORIENTED_EDGE ( 'NONE', *, *, #569, .F. ) ;
#457 = CC_DESIGN_PERSON_AND_ORGANIZATION_ASSIGNMENT ( #703, #104, ( #1123 ) ) ;
#458 = CARTESIAN_POINT ( 'NONE',  ( -2.220653458200934072, 20.28247351501463669, -24.00000000000001066 ) ) ;
#459 = AXIS2_PLACEMENT_3D ( 'NONE', #1, #386, #17 ) ;
#460 = ORIENTED_EDGE ( 'NONE', *, *, #1288, .T. ) ;
#461 = FACE_BOUND ( 'NONE', #764, .T. ) ;
#462 = DIRECTION ( 'NONE',  ( -0.000000000000000000, -1.000000000000000000, -0.000000000000000000 ) ) ;
#463 = ORIENTED_EDGE ( 'NONE', *, *, #1106, .T. ) ;
#464 = CARTESIAN_POINT ( 'NONE',  ( 8.000000000000007105, 25.00000000000000000, -10.00000000000001599 ) ) ;
#465 = ADVANCED_FACE ( 'NONE', ( #118 ), #614, .F. ) ;
#466 = CARTESIAN_POINT ( 'NONE',  ( 70.00000000000000000, 25.00000000000000000, -7.000000000000037303 ) ) ;
#467 = VERTEX_POINT ( 'NONE', #204 ) ;
#468 = DIRECTION ( 'NONE',  ( -0.000000000000000000, -1.000000000000000000, -0.000000000000000000 ) ) ;
#469 = CARTESIAN_POINT ( 'NONE',  ( -8.000000000000001776, 25.00000000000000000, -10.00000000000000888 ) ) ;
#470 = EDGE_CURVE ( 'NONE', #78, #1230, #312, .T. ) ;
#471 = ORIENTED_EDGE ( 'NONE', *, *, #1162, .F. ) ;
#472 = CARTESIAN_POINT ( 'NONE',  ( -8.000000000000014211, 25.00000000000000000, -7.000000000000010658 ) ) ;
#473 = APPROVAL ( #782, 'UNSPECIFIED' ) ;
#474 = VECTOR ( 'NONE', #882, 1000.000000000000000 ) ;
#475 = ORIENTED_EDGE ( 'NONE', *, *, #936, .T. ) ;
#476 = FACE_BOUND ( 'NONE', #318, .T. ) ;
#477 = DIRECTION ( 'NONE',  ( -1.000000000000000000, 1.734723475976806848E-16, -0.000000000000000000 ) ) ;
#478 = CIRCLE ( 'NONE', #1099, 2.400000000000000799 ) ;
#479 = ORIENTED_EDGE ( 'NONE', *, *, #445, .T. ) ;
#480 = CARTESIAN_POINT ( 'NONE',  ( 10.00000000000000888, 25.00000000000000000, -7.000000000000009770 ) ) ;
#481 = VECTOR ( 'NONE', #1112, 1000.000000000000000 ) ;
#482 = AXIS2_PLACEMENT_3D ( 'NONE', #39, #128, #27 ) ;
#483 = VERTEX_POINT ( 'NONE', #715 ) ;
#484 = LINE ( 'NONE', #986, #65 ) ;
#485 = ORIENTED_EDGE ( 'NONE', *, *, #1106, .F. ) ;
#486 = FACE_OUTER_BOUND ( 'NONE', #322, .T. ) ;
#487 = DATE_AND_TIME ( #205, #395 ) ;
#488 = ADVANCED_FACE ( 'NONE', ( #486 ), #405, .F. ) ;
#489 = VECTOR ( 'NONE', #1009, 1000.000000000000000 ) ;
#490 = VERTEX_POINT ( 'NONE', #595 ) ;
#491 = DIRECTION ( 'NONE',  ( 1.000000000000000000, 0.000000000000000000, 0.000000000000000000 ) ) ;
#492 = VERTEX_POINT ( 'NONE', #608 ) ;
#493 = EDGE_CURVE ( 'NONE', #1215, #375, #290, .T. ) ;
#494 = DIRECTION ( 'NONE',  ( 3.469446951953613696E-16, -0.000000000000000000, 1.000000000000000000 ) ) ;
#495 = VECTOR ( 'NONE', #224, 1000.000000000000000 ) ;
#496 = CC_DESIGN_SECURITY_CLASSIFICATION ( #308, ( #1123 ) ) ;
#497 = DATE_AND_TIME ( #596, #230 ) ;
#498 = ORIENTED_EDGE ( 'NONE', *, *, #796, .T. ) ;
#499 = DIRECTION ( 'NONE',  ( 2.643508043574172265E-16, 0.6476484200955405779, 0.7619393177594593336 ) ) ;
#500 = ORIENTED_EDGE ( 'NONE', *, *, #66, .F. ) ;
#501 = DIRECTION ( 'NONE',  ( 0.000000000000000000, 0.000000000000000000, -1.000000000000000000 ) ) ;
#502 = VECTOR ( 'NONE', #976, 1000.000000000000114 ) ;
#503 = VECTOR ( 'NONE', #537, 1000.000000000000000 ) ;
#504 = VECTOR ( 'NONE', #155, 1000.000000000000000 ) ;
#505 = ORIENTED_EDGE ( 'NONE', *, *, #1234, .F. ) ;
#506 = DIRECTION ( 'NONE',  ( 1.000000000000000000, 0.000000000000000000, 0.000000000000000000 ) ) ;
#507 = ORIENTED_EDGE ( 'NONE', *, *, #380, .T. ) ;
#508 = DIRECTION ( 'NONE',  ( -0.000000000000000000, 1.000000000000000000, 0.000000000000000000 ) ) ;
#509 = COORDINATED_UNIVERSAL_TIME_OFFSET ( 7, 0, .AHEAD. ) ;
#510 = EDGE_CURVE ( 'NONE', #630, #28, #1273, .T. ) ;
#511 = CARTESIAN_POINT ( 'NONE',  ( 10.00000000000000888, 5.000000000000000000, 9.999999999999994671 ) ) ;
#512 = CARTESIAN_POINT ( 'NONE',  ( -2.220653458200934072, 20.28247351501463669, -21.00000000000000711 ) ) ;
#513 = VERTEX_POINT ( 'NONE', #590 ) ;
#514 = VECTOR ( 'NONE', #948, 1000.000000000000000 ) ;
#515 = DIRECTION ( 'NONE',  ( 0.000000000000000000, 0.000000000000000000, -1.000000000000000000 ) ) ;
#516 = EDGE_CURVE ( 'NONE', #520, #885, #556, .T. ) ;
#517 = DIRECTION ( 'NONE',  ( 3.469446951953613696E-16, -0.000000000000000000, 1.000000000000000000 ) ) ;
#518 = EDGE_CURVE ( 'NONE', #1230, #31, #951, .T. ) ;
#519 = FACE_OUTER_BOUND ( 'NONE', #44, .T. ) ;
#520 = VERTEX_POINT ( 'NONE', #19 ) ;
#521 = CARTESIAN_POINT ( 'NONE',  ( -10.00000000000000178, 95.00000000000000000, -24.00000000000001066 ) ) ;
#522 = FACE_OUTER_BOUND ( 'NONE', #300, .T. ) ;
#523 = AXIS2_PLACEMENT_3D ( 'NONE', #1257, #777, #286 ) ;
#524 = VERTEX_POINT ( 'NONE', #1096 ) ;
#525 = LINE ( 'NONE', #1231, #901 ) ;
#526 = PLANE ( 'NONE',  #86 ) ;
#527 = FACE_OUTER_BOUND ( 'NONE', #707, .T. ) ;
#528 = ORIENTED_EDGE ( 'NONE', *, *, #62, .F. ) ;
#529 = DIRECTION ( 'NONE',  ( -1.000000000000000000, 0.000000000000000000, 0.000000000000000000 ) ) ;
#530 = ORIENTED_EDGE ( 'NONE', *, *, #896, .T. ) ;
#531 = CC_DESIGN_DATE_AND_TIME_ASSIGNMENT ( #406, #807, ( #308 ) ) ;
#532 = CARTESIAN_POINT ( 'NONE',  ( -8.000000000000014211, 5.000000000000000000, -7.000000000000010658 ) ) ;
#533 = DIRECTION ( 'NONE',  ( -1.000000000000000000, -1.734723475976805615E-16, -0.000000000000000000 ) ) ;
#534 = ORIENTED_EDGE ( 'NONE', *, *, #615, .T. ) ;
#535 = CARTESIAN_POINT ( 'NONE',  ( -2.220653458200756436, 85.28247351501482854, -24.00000000000001066 ) ) ;
#536 = EDGE_LOOP ( 'NONE', ( #33, #761, #390, #916 ) ) ;
#537 = DIRECTION ( 'NONE',  ( -1.445602896647338917E-16, 0.000000000000000000, -1.000000000000000000 ) ) ;
#538 = VECTOR ( 'NONE', #477, 1000.000000000000000 ) ;
#539 = DIRECTION ( 'NONE',  ( -3.469446951953613696E-16, -0.000000000000000000, -1.000000000000000000 ) ) ;
#540 = DIRECTION ( 'NONE',  ( -1.000000000000000000, 0.000000000000000000, 3.061276722312011504E-16 ) ) ;
#541 = ORIENTED_EDGE ( 'NONE', *, *, #200, .F. ) ;
#542 = VECTOR ( 'NONE', #533, 1000.000000000000000 ) ;
#543 = LINE ( 'NONE', #732, #643 ) ;
#544 = VERTEX_POINT ( 'NONE', #294 ) ;
#545 = DIRECTION ( 'NONE',  ( -0.000000000000000000, 1.000000000000000000, -0.000000000000000000 ) ) ;
#546 = ADVANCED_FACE ( 'NONE', ( #411 ), #1206, .T. ) ;
#547 = DIRECTION ( 'NONE',  ( 0.000000000000000000, -1.000000000000000000, 0.000000000000000000 ) ) ;
#548 = ORIENTED_EDGE ( 'NONE', *, *, #416, .T. ) ;
#549 = PLANE ( 'NONE',  #1143 ) ;
#550 = DIRECTION ( 'NONE',  ( -0.000000000000000000, 0.1961161351381839613, 0.9805806756909202226 ) ) ;
#551 = ORIENTED_EDGE ( 'NONE', *, *, #1110, .T. ) ;
#552 = VECTOR ( 'NONE', #1147, 1000.000000000000000 ) ;
#553 = LINE ( 'NONE', #325, #1038 ) ;
#554 = EDGE_CURVE ( 'NONE', #375, #492, #988, .T. ) ;
#555 = ORIENTED_EDGE ( 'NONE', *, *, #936, .F. ) ;
#556 = CIRCLE ( 'NONE', #658, 2.600000000000000089 ) ;
#557 = CARTESIAN_POINT ( 'NONE',  ( -8.000000000000007105, 25.00000000000000000, -7.000000000000010658 ) ) ;
#558 = PLANE ( 'NONE',  #218 ) ;
#559 = ORIENTED_EDGE ( 'NONE', *, *, #893, .T. ) ;
#560 = DIRECTION ( 'NONE',  ( -0.000000000000000000, -1.000000000000000000, -0.000000000000000000 ) ) ;
#561 = ORIENTED_EDGE ( 'NONE', *, *, #602, .F. ) ;
#562 = FACE_OUTER_BOUND ( 'NONE', #1089, .T. ) ;
#563 = DIRECTION ( 'NONE',  ( -1.000000000000000000, -0.000000000000000000, 3.469446951953613696E-16 ) ) ;
#564 = ORIENTED_EDGE ( 'NONE', *, *, #24, .T. ) ;
#565 = AXIS2_PLACEMENT_3D ( 'NONE', #316, #334, #1125 ) ;
#566 = ADVANCED_FACE ( 'NONE', ( #1109 ), #217, .F. ) ;
#567 = DIRECTION ( 'NONE',  ( -1.000000000000000000, 0.000000000000000000, 0.000000000000000000 ) ) ;
#568 = AXIS2_PLACEMENT_3D ( 'NONE', #981, #499, #195 ) ;
#569 = EDGE_CURVE ( 'NONE', #949, #778, #886, .T. ) ;
#570 = ORIENTED_EDGE ( 'NONE', *, *, #802, .T. ) ;
#571 = CARTESIAN_POINT ( 'NONE',  ( 10.00000000000000888, 95.00000000000000000, -24.00000000000001066 ) ) ;
#572 = ORIENTED_EDGE ( 'NONE', *, *, #849, .T. ) ;
#573 = CARTESIAN_POINT ( 'NONE',  ( 0.1793465417990657562, 20.28247351501463669, -21.00000000000000711 ) ) ;
#574 = EDGE_LOOP ( 'NONE', ( #80, #1246, #215, #500 ) ) ;
#575 = CYLINDRICAL_SURFACE ( 'NONE', #813, 2.600000000000000089 ) ;
#576 = CARTESIAN_POINT ( 'NONE',  ( 8.000000000000023093, 5.000000000000000000, -7.000000000000009770 ) ) ;
#577 = ORIENTED_EDGE ( 'NONE', *, *, #915, .F. ) ;
#578 = LINE ( 'NONE', #472, #502 ) ;
#579 = CALENDAR_DATE ( 2025, 6, 10 ) ;
#580 = VERTEX_POINT ( 'NONE', #787 ) ;
#581 = CARTESIAN_POINT ( 'NONE',  ( 0.1793465417992441413, 85.28247351501482854, -21.00000000000000711 ) ) ;
#582 = ORIENTED_EDGE ( 'NONE', *, *, #649, .T. ) ;
#583 = DIRECTION ( 'NONE',  ( -1.000000000000000000, 0.000000000000000000, 0.000000000000000000 ) ) ;
#584 = AXIS2_PLACEMENT_3D ( 'NONE', #313, #697, #389 ) ;
#585 = AXIS2_PLACEMENT_3D ( 'NONE', #162, #947, #771 ) ;
#586 = DIRECTION ( 'NONE',  ( -1.000000000000000000, 0.000000000000000000, 0.000000000000000000 ) ) ;
#587 = EDGE_CURVE ( 'NONE', #1113, #1172, #892, .T. ) ;
#588 = DIRECTION ( 'NONE',  ( 0.000000000000000000, -1.000000000000000000, 0.000000000000000000 ) ) ;
#589 = ORIENTED_EDGE ( 'NONE', *, *, #1216, .F. ) ;
#590 = CARTESIAN_POINT ( 'NONE',  ( 8.000000000000023093, 5.000000000000000000, 9.999999999999994671 ) ) ;
#591 = CARTESIAN_POINT ( 'NONE',  ( 0.1793465417990657562, 20.28247351501463669, -30.00000000000001066 ) ) ;
#592 = CC_DESIGN_PERSON_AND_ORGANIZATION_ASSIGNMENT ( #795, #384, ( #1123 ) ) ;
#593 = DIRECTION ( 'NONE',  ( -0.000000000000000000, -0.000000000000000000, 1.000000000000000000 ) ) ;
#594 = ORIENTED_EDGE ( 'NONE', *, *, #685, .F. ) ;
#595 = CARTESIAN_POINT ( 'NONE',  ( 8.000000000000023093, 25.00000000000000000, -7.000000000000009770 ) ) ;
#596 = CALENDAR_DATE ( 2025, 6, 10 ) ;
#597 = LINE ( 'NONE', #996, #489 ) ;
#598 = LINE ( 'NONE', #208, #414 ) ;
#599 = EDGE_LOOP ( 'NONE', ( #434, #673 ) ) ;
#600 = DIRECTION ( 'NONE',  ( 1.000000000000000000, 0.000000000000000000, 0.000000000000000000 ) ) ;
#601 = AXIS2_PLACEMENT_3D ( 'NONE', #369, #768, #177 ) ;
#602 = EDGE_CURVE ( 'NONE', #1083, #420, #792, .T. ) ;
#603 = COORDINATED_UNIVERSAL_TIME_OFFSET ( 7, 0, .AHEAD. ) ;
#604 = AXIS2_PLACEMENT_3D ( 'NONE', #581, #95, #992 ) ;
#605 = CARTESIAN_POINT ( 'NONE',  ( 10.00000000000000888, 92.00000000000000000, -30.00000000000001066 ) ) ;
#606 = CARTESIAN_POINT ( 'NONE',  ( 0.1793465417990657562, 20.28247351501463669, -24.00000000000001066 ) ) ;
#607 = EDGE_LOOP ( 'NONE', ( #191, #99, #475, #355 ) ) ;
#608 = CARTESIAN_POINT ( 'NONE',  ( -8.000000000000007105, 94.82842712474619873, -23.96568542494924969 ) ) ;
#609 = EDGE_CURVE ( 'NONE', #719, #40, #45, .T. ) ;
#610 = FACE_OUTER_BOUND ( 'NONE', #1168, .T. ) ;
#611 = AXIS2_PLACEMENT_3D ( 'NONE', #302, #1086, #687 ) ;
#612 = CARTESIAN_POINT ( 'NONE',  ( 0.000000000000000000, -0.8000000000000000444, -2.797300947221586842 ) ) ;
#613 = ORIENTED_EDGE ( 'NONE', *, *, #1205, .T. ) ;
#614 = PLANE ( 'NONE',  #1218 ) ;
#615 = EDGE_CURVE ( 'NONE', #746, #37, #231, .T. ) ;
#616 = AXIS2_PLACEMENT_3D ( 'NONE', #860, #662, #1067 ) ;
#617 = CARTESIAN_POINT ( 'NONE',  ( 8.000000000000008882, 95.00000000000000000, -24.00000000000001066 ) ) ;
#618 = VERTEX_POINT ( 'NONE', #627 ) ;
#619 = CARTESIAN_POINT ( 'NONE',  ( 10.00000000000000888, 92.00000000000000000, -24.00000000000001066 ) ) ;
#620 = EDGE_CURVE ( 'NONE', #1204, #895, #1217, .T. ) ;
#621 = DIRECTION ( 'NONE',  ( 0.000000000000000000, 0.000000000000000000, -1.000000000000000000 ) ) ;
#622 = DIRECTION ( 'NONE',  ( 0.000000000000000000, -0.9805806756909202226, 0.1961161351381839613 ) ) ;
#623 = VECTOR ( 'NONE', #116, 1000.000000000000000 ) ;
#624 = ADVANCED_FACE ( 'NONE', ( #1017 ), #323, .T. ) ;
#625 = CARTESIAN_POINT ( 'NONE',  ( -8.000000000000007105, 95.00000000000000000, -24.00000000000001066 ) ) ;
#626 = ORIENTED_EDGE ( 'NONE', *, *, #602, .T. ) ;
#627 = CARTESIAN_POINT ( 'NONE',  ( -1.999999999999991784, -0.8000000000000000444, -2.797300947221586842 ) ) ;
#628 = CARTESIAN_POINT ( 'NONE',  ( 2.000000000000007105, -0.8000000000000000444, 0.000000000000000000 ) ) ;
#629 = CARTESIAN_POINT ( 'NONE',  ( -10.00000000000000178, 5.000000000000000000, -10.00000000000000888 ) ) ;
#630 = VERTEX_POINT ( 'NONE', #830 ) ;
#631 = EDGE_CURVE ( 'NONE', #993, #1219, #726, .T. ) ;
#632 = CARTESIAN_POINT ( 'NONE',  ( 2.579346541799245163, 85.28247351501482854, -21.00000000000000711 ) ) ;
#633 = ORIENTED_EDGE ( 'NONE', *, *, #620, .T. ) ;
#634 = DIRECTION ( 'NONE',  ( -0.000000000000000000, 0.000000000000000000, 1.000000000000000000 ) ) ;
#635 = CARTESIAN_POINT ( 'NONE',  ( -7.000000000000008882, 92.00000000000000000, -30.00000000000001066 ) ) ;
#636 = ORIENTED_EDGE ( 'NONE', *, *, #1195, .F. ) ;
#637 = CARTESIAN_POINT ( 'NONE',  ( -10.00000000000000178, 10.00000000000000178, -10.00000000000000888 ) ) ;
#638 = DIRECTION ( 'NONE',  ( 1.000000000000000000, 0.000000000000000000, -0.000000000000000000 ) ) ;
#639 = EDGE_CURVE ( 'NONE', #1204, #1047, #243, .T. ) ;
#640 = FACE_BOUND ( 'NONE', #799, .T. ) ;
#641 = ORIENTED_EDGE ( 'NONE', *, *, #933, .F. ) ;
#642 =( GEOMETRIC_REPRESENTATION_CONTEXT ( 3 ) GLOBAL_UNCERTAINTY_ASSIGNED_CONTEXT ( ( #921 ) ) GLOBAL_UNIT_ASSIGNED_CONTEXT ( ( #6, #903, #1187 ) ) REPRESENTATION_CONTEXT ( 'NONE', 'WORKASPACE' ) );
#643 = VECTOR ( 'NONE', #342, 1000.000000000000000 ) ;
#644 = CARTESIAN_POINT ( 'NONE',  ( -1.999999999999992228, -0.8000000000000000444, -2.891205793294666986E-16 ) ) ;
#645 = CARTESIAN_POINT ( 'NONE',  ( 70.00000000000000000, 25.00000000000000000, -10.00000000000003730 ) ) ;
#646 = ORIENTED_EDGE ( 'NONE', *, *, #979, .T. ) ;
#647 = DIRECTION ( 'NONE',  ( 0.000000000000000000, 0.000000000000000000, 1.000000000000000000 ) ) ;
#649 = EDGE_CURVE ( 'NONE', #40, #259, #525, .T. ) ;
#648 =( BOUNDED_CURVE ( )  B_SPLINE_CURVE ( 3, ( #53, #366, #1270, #454 ),
 .UNSPECIFIED., .F., .F. ) 
 B_SPLINE_CURVE_WITH_KNOTS ( ( 4, 4 ),
 ( 0.3398369094541217050, 1.570796326794896558 ),
 .UNSPECIFIED. ) 
 CURVE ( )  GEOMETRIC_REPRESENTATION_ITEM ( )  RATIONAL_B_SPLINE_CURVE ( ( 1.000000000000000000, 0.8776643872851506156, 0.8776643872851506156, 1.000000000000000000 ) ) 
 REPRESENTATION_ITEM ( '' )  );
#650 = EDGE_LOOP ( 'NONE', ( #415, #626, #985, #1044 ) ) ;
#651 = CARTESIAN_POINT ( 'NONE',  ( 8.000000000000008882, 15.00000000000000000, -24.00000000000001066 ) ) ;
#652 = CYLINDRICAL_SURFACE ( 'NONE', #1049, 2.600000000000000089 ) ;
#653 = VERTEX_POINT ( 'NONE', #637 ) ;
#654 = VECTOR ( 'NONE', #517, 1000.000000000000000 ) ;
#655 = CARTESIAN_POINT ( 'NONE',  ( 0.1793465417992441413, 85.28247351501482854, -30.00000000000001066 ) ) ;
#656 = EDGE_LOOP ( 'NONE', ( #329, #1178, #952, #273 ) ) ;
#657 = EDGE_CURVE ( 'NONE', #935, #1030, #1131, .T. ) ;
#658 = AXIS2_PLACEMENT_3D ( 'NONE', #1102, #5, #1287 ) ;
#659 = CARTESIAN_POINT ( 'NONE',  ( 10.00000000000000888, 25.00000000000000000, -7.000000000000009770 ) ) ;
#660 = CARTESIAN_POINT ( 'NONE',  ( -8.000000000000014211, 5.000000000000000000, -7.000000000000010658 ) ) ;
#661 = ORIENTED_EDGE ( 'NONE', *, *, #140, .F. ) ;
#662 = DIRECTION ( 'NONE',  ( 0.000000000000000000, 0.000000000000000000, -1.000000000000000000 ) ) ;
#663 = EDGE_CURVE ( 'NONE', #78, #1215, #1114, .T. ) ;
#664 = AXIS2_PLACEMENT_3D ( 'NONE', #968, #455, #1252 ) ;
#665 = ORIENTED_EDGE ( 'NONE', *, *, #915, .T. ) ;
#666 = LINE ( 'NONE', #1070, #1002 ) ;
#667 = LINE ( 'NONE', #645, #946 ) ;
#668 = ORIENTED_EDGE ( 'NONE', *, *, #132, .F. ) ;
#669 = CIRCLE ( 'NONE', #1103, 2.400000000000000799 ) ;
#670 = FACE_OUTER_BOUND ( 'NONE', #975, .T. ) ;
#671 = VECTOR ( 'NONE', #1190, 1000.000000000000000 ) ;
#672 = PLANE ( 'NONE',  #144 ) ;
#673 = ORIENTED_EDGE ( 'NONE', *, *, #516, .T. ) ;
#674 = CARTESIAN_POINT ( 'NONE',  ( 10.00000000000000888, 10.00000000000000178, -10.00000000000000888 ) ) ;
#675 = PLANE ( 'NONE',  #938 ) ;
#676 = ORIENTED_EDGE ( 'NONE', *, *, #1255, .F. ) ;
#677 = CIRCLE ( 'NONE', #1213, 2.399999999999999911 ) ;
#678 = VECTOR ( 'NONE', #462, 1000.000000000000000 ) ;
#679 = CARTESIAN_POINT ( 'NONE',  ( 8.000000000000023093, 25.00000000000000000, -7.000000000000009770 ) ) ;
#680 = ADVANCED_FACE ( 'NONE', ( #942 ), #1225, .F. ) ;
#681 = FACE_OUTER_BOUND ( 'NONE', #1016, .T. ) ;
#682 = ORIENTED_EDGE ( 'NONE', *, *, #1280, .F. ) ;
#683 = LOCAL_TIME ( 18, 35, 44.00000000000000000, #180 ) ;
#684 = CARTESIAN_POINT ( 'NONE',  ( -1.999999999999993561, -0.8000000000000000444, 5.797300947221572187 ) ) ;
#685 = EDGE_CURVE ( 'NONE', #370, #281, #436, .T. ) ;
#686 = APPLICATION_PROTOCOL_DEFINITION ( 'international standard', 'config_control_design', 1994, #749 ) ;
#687 = DIRECTION ( 'NONE',  ( -1.000000000000000000, 0.000000000000000000, -0.000000000000000000 ) ) ;
#688 = CARTESIAN_POINT ( 'NONE',  ( 2.000000000000007105, -0.8000000000000000444, 5.797300947221572187 ) ) ;
#689 = ORIENTED_EDGE ( 'NONE', *, *, #161, .T. ) ;
#690 = VECTOR ( 'NONE', #421, 1000.000000000000000 ) ;
#691 = MECHANICAL_CONTEXT ( 'NONE', #749, 'mechanical' ) ;
#692 = EDGE_CURVE ( 'NONE', #420, #513, #543, .T. ) ;
#693 = CARTESIAN_POINT ( 'NONE',  ( 0.1793465417990657562, 20.28247351501463669, -21.00000000000000711 ) ) ;
#694 = LINE ( 'NONE', #803, #357 ) ;
#695 = ORIENTED_EDGE ( 'NONE', *, *, #1093, .F. ) ;
#696 = DIRECTION ( 'NONE',  ( 1.000000000000000000, 0.000000000000000000, 0.000000000000000000 ) ) ;
#697 = DIRECTION ( 'NONE',  ( 0.000000000000000000, 0.000000000000000000, 1.000000000000000000 ) ) ;
#698 = LINE ( 'NONE', #759, #219 ) ;
#699 = PLANE ( 'NONE',  #752 ) ;
#700 = EDGE_CURVE ( 'NONE', #1041, #176, #22, .T. ) ;
#701 = ORIENTED_EDGE ( 'NONE', *, *, #320, .F. ) ;
#702 = CARTESIAN_POINT ( 'NONE',  ( 2.000000000000007105, -0.8000000000000000444, 5.797300947221572187 ) ) ;
#703 = PERSON_AND_ORGANIZATION ( #71, #751 ) ;
#704 = ORIENTED_EDGE ( 'NONE', *, *, #258, .F. ) ;
#705 = VECTOR ( 'NONE', #801, 1000.000000000000000 ) ;
#706 = LINE ( 'NONE', #1100, #837 ) ;
#707 = EDGE_LOOP ( 'NONE', ( #980, #418, #61, #959 ) ) ;
#708 = EDGE_CURVE ( 'NONE', #31, #630, #817, .T. ) ;
#709 = DIRECTION ( 'NONE',  ( -3.469446951953613696E-16, 0.000000000000000000, -1.000000000000000000 ) ) ;
#710 = VECTOR ( 'NONE', #1159, 1000.000000000000000 ) ;
#711 = VECTOR ( 'NONE', #438, 1000.000000000000000 ) ;
#712 = LINE ( 'NONE', #119, #654 ) ;
#713 = CARTESIAN_POINT ( 'NONE',  ( 2.000000000000005329, 0.000000000000000000, -5.797300947221587286 ) ) ;
#714 = ORIENTED_EDGE ( 'NONE', *, *, #1288, .F. ) ;
#715 = CARTESIAN_POINT ( 'NONE',  ( -1.999999999999991784, 0.000000000000000000, -2.797300947221586842 ) ) ;
#716 = CARTESIAN_POINT ( 'NONE',  ( 2.579346541799245163, 85.28247351501482854, -24.00000000000001066 ) ) ;
#717 = VERTEX_POINT ( 'NONE', #535 ) ;
#718 = CARTESIAN_POINT ( 'NONE',  ( 0.000000000000000000, -0.8000000000000000444, -5.797300947221587286 ) ) ;
#719 = VERTEX_POINT ( 'NONE', #937 ) ;
#720 = CARTESIAN_POINT ( 'NONE',  ( 0.000000000000000000, -0.000000000000000000, -5.797300947221587286 ) ) ;
#721 = VECTOR ( 'NONE', #494, 1000.000000000000000 ) ;
#722 = EDGE_CURVE ( 'NONE', #1219, #580, #417, .T. ) ;
#723 = DESIGN_CONTEXT ( 'detailed design', #377, 'design' ) ;
#724 = CARTESIAN_POINT ( 'NONE',  ( 8.000000000000023093, 0.000000000000000000, 0.000000000000000000 ) ) ;
#725 = VERTEX_POINT ( 'NONE', #133 ) ;
#726 = LINE ( 'NONE', #718, #1249 ) ;
#727 = DIRECTION ( 'NONE',  ( -0.000000000000000000, -0.000000000000000000, 1.000000000000000000 ) ) ;
#728 = CARTESIAN_POINT ( 'NONE',  ( 0.000000000000000000, 95.00000000000000000, 0.000000000000000000 ) ) ;
#729 = VECTOR ( 'NONE', #468, 1000.000000000000000 ) ;
#730 = FACE_OUTER_BOUND ( 'NONE', #1256, .T. ) ;
#731 = ORIENTED_EDGE ( 'NONE', *, *, #883, .F. ) ;
#732 = CARTESIAN_POINT ( 'NONE',  ( -9.999999999999994671, 5.000000000000000000, 9.999999999999994671 ) ) ;
#733 = VERTEX_POINT ( 'NONE', #441 ) ;
#734 = DIRECTION ( 'NONE',  ( 0.000000000000000000, 0.000000000000000000, -1.000000000000000000 ) ) ;
#735 = DIRECTION ( 'NONE',  ( 0.000000000000000000, -0.000000000000000000, 1.000000000000000000 ) ) ;
#736 = EDGE_LOOP ( 'NONE', ( #410, #838, #368, #1164 ) ) ;
#737 = ADVANCED_FACE ( 'NONE', ( #846 ), #1239, .F. ) ;
#738 = DIRECTION ( 'NONE',  ( -0.000000000000000000, -0.000000000000000000, -1.000000000000000000 ) ) ;
#739 = CARTESIAN_POINT ( 'NONE',  ( -8.000000000000000000, 15.00000000000000000, -10.00000000000000888 ) ) ;
#740 = EDGE_CURVE ( 'NONE', #1219, #618, #248, .T. ) ;
#741 = CARTESIAN_POINT ( 'NONE',  ( 0.000000000000000000, -0.8000000000000000444, 8.797300947221572187 ) ) ;
#742 = CARTESIAN_POINT ( 'NONE',  ( 5.204170427930421283E-15, 5.000000000000000000, 1.499999999999992673 ) ) ;
#743 = ORIENTED_EDGE ( 'NONE', *, *, #639, .T. ) ;
#744 = DIRECTION ( 'NONE',  ( -1.000000000000000000, 0.000000000000000000, 3.717264591378871711E-16 ) ) ;
#745 = PLANE ( 'NONE',  #206 ) ;
#746 = VERTEX_POINT ( 'NONE', #651 ) ;
#747 = ADVANCED_FACE ( 'NONE', ( #954 ), #575, .F. ) ;
#748 = DIRECTION ( 'NONE',  ( 1.000000000000000000, 0.000000000000000000, 0.000000000000000000 ) ) ;
#749 = APPLICATION_CONTEXT ( 'configuration controlled 3d designs of mechanical parts and assemblies' ) ;
#750 = EDGE_LOOP ( 'NONE', ( #278, #269 ) ) ;
#751 = ORGANIZATION ( 'UNSPECIFIED', 'UNSPECIFIED', '' ) ;
#752 = AXIS2_PLACEMENT_3D ( 'NONE', #1094, #588, #202 ) ;
#753 = DIRECTION ( 'NONE',  ( -0.000000000000000000, 1.000000000000000000, -0.000000000000000000 ) ) ;
#754 = CARTESIAN_POINT ( 'NONE',  ( -7.000000000000008882, 95.00000000000000000, -30.00000000000001066 ) ) ;
#755 = ORIENTED_EDGE ( 'NONE', *, *, #284, .F. ) ;
#756 = DIRECTION ( 'NONE',  ( 0.000000000000000000, 1.000000000000000000, -0.000000000000000000 ) ) ;
#757 = ORIENTED_EDGE ( 'NONE', *, *, #1074, .F. ) ;
#758 = DIRECTION ( 'NONE',  ( 0.000000000000000000, -1.000000000000000000, -0.000000000000000000 ) ) ;
#759 = CARTESIAN_POINT ( 'NONE',  ( 8.000000000000023093, 5.000000000000000000, 9.999999999999994671 ) ) ;
#760 = EDGE_CURVE ( 'NONE', #305, #733, #1166, .T. ) ;
#761 = ORIENTED_EDGE ( 'NONE', *, *, #196, .T. ) ;
#762 = FACE_BOUND ( 'NONE', #1237, .T. ) ;
#763 = EDGE_CURVE ( 'NONE', #379, #11, #1244, .T. ) ;
#764 = EDGE_LOOP ( 'NONE', ( #1148, #682 ) ) ;
#765 = CARTESIAN_POINT ( 'NONE',  ( -10.00000000000000178, 15.00000000000000000, -24.00000000000001066 ) ) ;
#766 = LINE ( 'NONE', #170, #710 ) ;
#767 = ORIENTED_EDGE ( 'NONE', *, *, #788, .F. ) ;
#768 = DIRECTION ( 'NONE',  ( 0.000000000000000000, -1.000000000000000000, 0.000000000000000000 ) ) ;
#769 = VECTOR ( 'NONE', #1248, 1000.000000000000000 ) ;
#770 = VERTEX_POINT ( 'NONE', #557 ) ;
#771 = DIRECTION ( 'NONE',  ( 1.000000000000000000, 0.000000000000000000, 0.000000000000000000 ) ) ;
#772 = LINE ( 'NONE', #82, #1278 ) ;
#773 = ORIENTED_EDGE ( 'NONE', *, *, #29, .F. ) ;
#774 = VECTOR ( 'NONE', #1018, 1000.000000000000000 ) ;
#775 = CYLINDRICAL_SURFACE ( 'NONE', #105, 2.400000000000000799 ) ;
#776 = CARTESIAN_POINT ( 'NONE',  ( -8.000000000000007105, 15.00000000000000000, -24.00000000000001066 ) ) ;
#777 = DIRECTION ( 'NONE',  ( -1.000000000000000000, -0.000000000000000000, 0.000000000000000000 ) ) ;
#778 = VERTEX_POINT ( 'NONE', #353 ) ;
#779 = ADVANCED_FACE ( 'NONE', ( #1063 ), #1171, .F. ) ;
#780 = CARTESIAN_POINT ( 'NONE',  ( 0.1793465417992441413, 85.28247351501482854, -21.00000000000000711 ) ) ;
#781 = VECTOR ( 'NONE', #1152, 1000.000000000000000 ) ;
#782 = APPROVAL_STATUS ( 'not_yet_approved' ) ;
#783 = CARTESIAN_POINT ( 'NONE',  ( 8.000000000000008882, 94.82842712474619873, -24.00000000000001066 ) ) ;
#784 = DIRECTION ( 'NONE',  ( 3.717264591378871711E-16, -0.000000000000000000, 1.000000000000000000 ) ) ;
#785 = CIRCLE ( 'NONE', #447, 2.600000000000000089 ) ;
#786 = VERTEX_POINT ( 'NONE', #1056 ) ;
#787 = CARTESIAN_POINT ( 'NONE',  ( -1.999999999999991340, -0.000000000000000000, -5.797300947221587286 ) ) ;
#788 = EDGE_CURVE ( 'NONE', #492, #786, #648, .T. ) ;
#789 = ORIENTED_EDGE ( 'NONE', *, *, #569, .T. ) ;
#790 = LINE ( 'NONE', #884, #167 ) ;
#791 = ORIENTED_EDGE ( 'NONE', *, *, #927, .T. ) ;
#792 = LINE ( 'NONE', #1186, #826 ) ;
#793 = CIRCLE ( 'NONE', #878, 3.000000000000000000 ) ;
#794 = AXIS2_PLACEMENT_3D ( 'NONE', #863, #150, #169 ) ;
#795 = PERSON_AND_ORGANIZATION ( #71, #751 ) ;
#796 = EDGE_CURVE ( 'NONE', #524, #746, #857, .T. ) ;
#797 = DIRECTION ( 'NONE',  ( -0.000000000000000000, -0.000000000000000000, -1.000000000000000000 ) ) ;
#798 = DIRECTION ( 'NONE',  ( -0.000000000000000000, 0.000000000000000000, 1.000000000000000000 ) ) ;
#799 = EDGE_LOOP ( 'NONE', ( #891, #999 ) ) ;
#800 = MANIFOLD_SOLID_BREP ( 'Cut-Extrude5', #1034 ) ;
#801 = DIRECTION ( 'NONE',  ( 0.000000000000000000, 0.000000000000000000, 1.000000000000000000 ) ) ;
#802 = EDGE_CURVE ( 'NONE', #717, #309, #1146, .T. ) ;
#803 = CARTESIAN_POINT ( 'NONE',  ( 8.000000000000008882, 94.82842712474619873, -23.96568542494924969 ) ) ;
#804 = ORIENTED_EDGE ( 'NONE', *, *, #1255, .T. ) ;
#805 = CARTESIAN_POINT ( 'NONE',  ( 0.000000000000000000, -0.8000000000000000444, -2.797300947221586842 ) ) ;
#806 = CC_DESIGN_APPROVAL ( #473, ( #308 ) ) ;
#807 = DATE_TIME_ROLE ( 'classification_date' ) ;
#808 = DIRECTION ( 'NONE',  ( -1.000000000000000000, 0.000000000000000000, -1.445602896647338917E-16 ) ) ;
#809 = LINE ( 'NONE', #90, #1185 ) ;
#810 = ORIENTED_EDGE ( 'NONE', *, *, #240, .T. ) ;
#811 = CARTESIAN_POINT ( 'NONE',  ( 10.00000000000000888, 92.00000000000000000, -23.40000000000001279 ) ) ;
#812 = VECTOR ( 'NONE', #1122, 1000.000000000000114 ) ;
#813 = AXIS2_PLACEMENT_3D ( 'NONE', #59, #753, #381 ) ;
#814 = ADVANCED_FACE ( 'NONE', ( #1251 ), #76, .F. ) ;
#815 = DIRECTION ( 'NONE',  ( -1.000000000000000000, 0.000000000000000000, -0.000000000000000000 ) ) ;
#816 = ORIENTED_EDGE ( 'NONE', *, *, #763, .F. ) ;
#817 = LINE ( 'NONE', #619, #984 ) ;
#818 = ORIENTED_EDGE ( 'NONE', *, *, #1118, .T. ) ;
#819 = EDGE_CURVE ( 'NONE', #1030, #770, #68, .T. ) ;
#820 = CARTESIAN_POINT ( 'NONE',  ( -10.00000000000000888, 92.00000000000000000, -30.00000000000001066 ) ) ;
#821 = ORIENTED_EDGE ( 'NONE', *, *, #73, .F. ) ;
#822 = DIRECTION ( 'NONE',  ( 0.000000000000000000, 0.000000000000000000, 1.000000000000000000 ) ) ;
#823 = ORIENTED_EDGE ( 'NONE', *, *, #240, .F. ) ;
#824 = CARTESIAN_POINT ( 'NONE',  ( 8.000000000000023093, 5.000000000000000000, 9.999999999999994671 ) ) ;
#825 = ADVANCED_FACE ( 'NONE', ( #360 ), #549, .F. ) ;
#826 = VECTOR ( 'NONE', #696, 1000.000000000000000 ) ;
#827 = LINE ( 'NONE', #617, #252 ) ;
#828 = DIRECTION ( 'NONE',  ( 0.000000000000000000, -0.9805806756909201116, 0.1961161351381840445 ) ) ;
#829 = ORIENTED_EDGE ( 'NONE', *, *, #953, .T. ) ;
#830 = CARTESIAN_POINT ( 'NONE',  ( 10.00000000000000888, 92.00000000000000000, -23.40000000000001279 ) ) ;
#831 = ORIENTED_EDGE ( 'NONE', *, *, #510, .F. ) ;
#832 = VECTOR ( 'NONE', #560, 1000.000000000000000 ) ;
#833 = DIRECTION ( 'NONE',  ( -0.000000000000000000, -1.000000000000000000, -0.000000000000000000 ) ) ;
#834 = AXIS2_PLACEMENT_3D ( 'NONE', #30, #425, #815 ) ;
#835 = EDGE_CURVE ( 'NONE', #859, #370, #967, .T. ) ;
#836 = DIRECTION ( 'NONE',  ( 1.000000000000000000, 0.000000000000000000, -1.445602896647338917E-16 ) ) ;
#837 = VECTOR ( 'NONE', #910, 1000.000000000000000 ) ;
#838 = ORIENTED_EDGE ( 'NONE', *, *, #788, .T. ) ;
#839 = DIRECTION ( 'NONE',  ( -1.000000000000000000, -0.000000000000000000, -0.000000000000000000 ) ) ;
#840 = ORIENTED_EDGE ( 'NONE', *, *, #649, .F. ) ;
#841 = LINE ( 'NONE', #1226, #1001 ) ;
#842 = CARTESIAN_POINT ( 'NONE',  ( -9.999999999999994671, 0.000000000000000000, 9.999999999999994671 ) ) ;
#843 = ADVANCED_FACE ( 'NONE', ( #263, #461, #562 ), #372, .F. ) ;
#844 = ORIENTED_EDGE ( 'NONE', *, *, #663, .F. ) ;
#845 = VECTOR ( 'NONE', #1092, 1000.000000000000000 ) ;
#846 = FACE_OUTER_BOUND ( 'NONE', #1051, .T. ) ;
#847 = ORIENTED_EDGE ( 'NONE', *, *, #380, .F. ) ;
#848 = FACE_OUTER_BOUND ( 'NONE', #1153, .T. ) ;
#849 = EDGE_CURVE ( 'NONE', #335, #1047, #961, .T. ) ;
#850 = VERTEX_POINT ( 'NONE', #270 ) ;
#851 = DIRECTION ( 'NONE',  ( -0.000000000000000000, -0.000000000000000000, -1.000000000000000000 ) ) ;
#852 = DIRECTION ( 'NONE',  ( -1.000000000000000000, -0.000000000000000000, 3.469446951953613696E-16 ) ) ;
#853 = ORIENTED_EDGE ( 'NONE', *, *, #196, .F. ) ;
#854 = CARTESIAN_POINT ( 'NONE',  ( 0.000000000000000000, -0.8000000000000000444, 0.000000000000000000 ) ) ;
#855 = ORIENTED_EDGE ( 'NONE', *, *, #73, .T. ) ;
#856 = VECTOR ( 'NONE', #32, 1000.000000000000000 ) ;
#857 = LINE ( 'NONE', #765, #297 ) ;
#858 = DIRECTION ( 'NONE',  ( -1.000000000000000000, 0.000000000000000000, -0.000000000000000000 ) ) ;
#859 = VERTEX_POINT ( 'NONE', #674 ) ;
#860 = CARTESIAN_POINT ( 'NONE',  ( 0.1793465417992441413, 85.28247351501482854, -30.00000000000001066 ) ) ;
#861 = EDGE_CURVE ( 'NONE', #1047, #746, #666, .T. ) ;
#862 = ORIENTED_EDGE ( 'NONE', *, *, #284, .T. ) ;
#863 = CARTESIAN_POINT ( 'NONE',  ( 70.00000000000000000, 25.00000000000000000, -10.00000000000003730 ) ) ;
#864 = CARTESIAN_POINT ( 'NONE',  ( 2.000000000000005329, -0.8000000000000000444, 0.000000000000000000 ) ) ;
#865 = EDGE_LOOP ( 'NONE', ( #1156, #331, #238, #594 ) ) ;
#866 = FACE_BOUND ( 'NONE', #229, .T. ) ;
#867 = ADVANCED_FACE ( 'NONE', ( #476, #876 ), #699, .F. ) ;
#868 = DIRECTION ( 'NONE',  ( -1.000000000000000000, -0.000000000000000000, 3.469446951953613696E-16 ) ) ;
#869 = ORIENTED_EDGE ( 'NONE', *, *, #708, .F. ) ;
#870 = CARTESIAN_POINT ( 'NONE',  ( -2.220653458200756436, 85.28247351501482854, -21.00000000000000711 ) ) ;
#871 = CARTESIAN_POINT ( 'NONE',  ( -10.00000000000000178, 92.00000000000000000, -30.00000000000001066 ) ) ;
#872 = EDGE_LOOP ( 'NONE', ( #154, #855, #844, #941 ) ) ;
#873 = AXIS2_PLACEMENT_3D ( 'NONE', #742, #547, #957 ) ;
#874 = ORIENTED_EDGE ( 'NONE', *, *, #35, .T. ) ;
#875 = ADVANCED_FACE ( 'NONE', ( #100 ), #889, .T. ) ;
#876 = FACE_OUTER_BOUND ( 'NONE', #536, .T. ) ;
#877 = EDGE_LOOP ( 'NONE', ( #541, #701, #157 ) ) ;
#878 = AXIS2_PLACEMENT_3D ( 'NONE', #635, #1015, #1229 ) ;
#879 = CARTESIAN_POINT ( 'NONE',  ( -1.999999999999991784, -0.8000000000000000444, -2.797300947221586842 ) ) ;
#880 = EDGE_CURVE ( 'NONE', #520, #467, #182, .T. ) ;
#881 = PERSON_AND_ORGANIZATION_ROLE ( 'design_owner' ) ;
#882 = DIRECTION ( 'NONE',  ( 1.000000000000000000, 0.000000000000000000, 0.000000000000000000 ) ) ;
#883 = EDGE_CURVE ( 'NONE', #1230, #197, #790, .T. ) ;
#884 = CARTESIAN_POINT ( 'NONE',  ( -10.00000000000000178, 95.00000000000000000, -30.00000000000001066 ) ) ;
#885 = VERTEX_POINT ( 'NONE', #998 ) ;
#886 = LINE ( 'NONE', #702, #1053 ) ;
#887 = DATE_TIME_ROLE ( 'creation_date' ) ;
#888 = ORIENTED_EDGE ( 'NONE', *, *, #639, .F. ) ;
#889 = PLANE ( 'NONE',  #568 ) ;
#890 = VECTOR ( 'NONE', #925, 1000.000000000000000 ) ;
#891 = ORIENTED_EDGE ( 'NONE', *, *, #913, .F. ) ;
#892 = LINE ( 'NONE', #907, #1013 ) ;
#893 = EDGE_CURVE ( 'NONE', #949, #1065, #598, .T. ) ;
#894 = PERSON_AND_ORGANIZATION_ROLE ( 'creator' ) ;
#895 = VERTEX_POINT ( 'NONE', #108 ) ;
#896 = EDGE_CURVE ( 'NONE', #544, #850, #292, .T. ) ;
#897 = LINE ( 'NONE', #512, #1228 ) ;
#898 = ORIENTED_EDGE ( 'NONE', *, *, #631, .T. ) ;
#899 = DIRECTION ( 'NONE',  ( 1.000000000000000000, 0.000000000000000000, 0.000000000000000000 ) ) ;
#900 = LOCAL_TIME ( 18, 35, 44.00000000000000000, #1075 ) ;
#901 = VECTOR ( 'NONE', #1121, 1000.000000000000000 ) ;
#902 = PRODUCT_DEFINITION ( 'UNKNOWN', '', #1123, #723 ) ;
#903 =( NAMED_UNIT ( * ) PLANE_ANGLE_UNIT ( ) SI_UNIT ( $, .RADIAN. ) );
#904 = DIRECTION ( 'NONE',  ( 0.000000000000000000, -0.000000000000000000, -1.000000000000000000 ) ) ;
#905 = CARTESIAN_POINT ( 'NONE',  ( -8.000000000000001776, 15.00000000000000000, -10.00000000000000888 ) ) ;
#906 = ORIENTED_EDGE ( 'NONE', *, *, #554, .F. ) ;
#907 = CARTESIAN_POINT ( 'NONE',  ( 0.000000000000000000, -0.8000000000000000444, 8.797300947221572187 ) ) ;
#908 = PERSON_AND_ORGANIZATION ( #71, #751 ) ;
#909 = CARTESIAN_POINT ( 'NONE',  ( 2.000000000000005329, 0.000000000000000000, 0.000000000000000000 ) ) ;
#910 = DIRECTION ( 'NONE',  ( 3.061276722312011504E-16, -0.000000000000000000, 1.000000000000000000 ) ) ;
#911 = ORIENTED_EDGE ( 'NONE', *, *, #554, .T. ) ;
#912 = DIRECTION ( 'NONE',  ( 0.000000000000000000, -0.000000000000000000, -1.000000000000000000 ) ) ;
#913 = EDGE_CURVE ( 'NONE', #428, #544, #920, .T. ) ;
#914 = PLANE ( 'NONE',  #1165 ) ;
#915 = EDGE_CURVE ( 'NONE', #28, #37, #694, .T. ) ;
#916 = ORIENTED_EDGE ( 'NONE', *, *, #1008, .T. ) ;
#917 = DIRECTION ( 'NONE',  ( -0.000000000000000000, -0.000000000000000000, 1.000000000000000000 ) ) ;
#918 = ORIENTED_EDGE ( 'NONE', *, *, #518, .F. ) ;
#919 = AXIS2_PLACEMENT_3D ( 'NONE', #741, #345, #1134 ) ;
#920 = CIRCLE ( 'NONE', #338, 2.399999999999999911 ) ;
#921 = UNCERTAINTY_MEASURE_WITH_UNIT (LENGTH_MEASURE( 1.000000000000000082E-05 ), #6, 'distance_accuracy_value', 'NONE');
#922 = CARTESIAN_POINT ( 'NONE',  ( 8.000000000000008882, 15.00000000000000000, -10.00000000000000888 ) ) ;
#923 = ORIENTED_EDGE ( 'NONE', *, *, #140, .T. ) ;
#924 = APPROVAL ( #1181, 'UNSPECIFIED' ) ;
#925 = DIRECTION ( 'NONE',  ( -1.000000000000000000, 0.000000000000000000, 0.000000000000000000 ) ) ;
#926 = ORIENTED_EDGE ( 'NONE', *, *, #700, .T. ) ;
#927 = EDGE_CURVE ( 'NONE', #1269, #122, #484, .T. ) ;
#928 = PLANE ( 'NONE',  #919 ) ;
#929 = ORIENTED_EDGE ( 'NONE', *, *, #186, .T. ) ;
#930 = CARTESIAN_POINT ( 'NONE',  ( 0.000000000000000000, 0.000000000000000000, 8.797300947221572187 ) ) ;
#931 = ORIENTED_EDGE ( 'NONE', *, *, #740, .T. ) ;
#932 = DIRECTION ( 'NONE',  ( 0.000000000000000000, 0.000000000000000000, -1.000000000000000000 ) ) ;
#933 = EDGE_CURVE ( 'NONE', #122, #490, #10, .T. ) ;
#934 = LINE ( 'NONE', #820, #336 ) ;
#935 = VERTEX_POINT ( 'NONE', #391 ) ;
#936 = EDGE_CURVE ( 'NONE', #428, #1033, #897, .T. ) ;
#937 = CARTESIAN_POINT ( 'NONE',  ( 2.000000000000007105, 0.000000000000000000, 8.797300947221572187 ) ) ;
#938 = AXIS2_PLACEMENT_3D ( 'NONE', #1064, #249, #858 ) ;
#939 = LINE ( 'NONE', #129, #275 ) ;
#940 = CYLINDRICAL_SURFACE ( 'NONE', #378, 3.000000000000000000 ) ;
#941 = ORIENTED_EDGE ( 'NONE', *, *, #470, .T. ) ;
#942 = FACE_OUTER_BOUND ( 'NONE', #343, .T. ) ;
#943 = ORIENTED_EDGE ( 'NONE', *, *, #518, .T. ) ;
#944 = CARTESIAN_POINT ( 'NONE',  ( -1.999999999999993117, -0.8000000000000000444, 8.797300947221572187 ) ) ;
#945 = ORIENTED_EDGE ( 'NONE', *, *, #1180, .F. ) ;
#946 = VECTOR ( 'NONE', #852, 1000.000000000000000 ) ;
#947 = DIRECTION ( 'NONE',  ( -0.000000000000000000, 0.000000000000000000, 1.000000000000000000 ) ) ;
#948 = DIRECTION ( 'NONE',  ( -0.000000000000000000, 1.000000000000000000, 0.000000000000000000 ) ) ;
#949 = VERTEX_POINT ( 'NONE', #688 ) ;
#950 = CARTESIAN_POINT ( 'NONE',  ( 0.1793465417990657562, 20.28247351501463669, -30.00000000000001066 ) ) ;
#951 = CIRCLE ( 'NONE', #388, 3.000000000000000000 ) ;
#952 = ORIENTED_EDGE ( 'NONE', *, *, #1087, .T. ) ;
#953 = EDGE_CURVE ( 'NONE', #37, #78, #232, .T. ) ;
#954 = FACE_OUTER_BOUND ( 'NONE', #341, .T. ) ;
#955 = LINE ( 'NONE', #450, #50 ) ;
#956 = ORIENTED_EDGE ( 'NONE', *, *, #24, .F. ) ;
#957 = DIRECTION ( 'NONE',  ( 0.000000000000000000, 0.000000000000000000, -1.000000000000000000 ) ) ;
#958 = CC_DESIGN_APPROVAL ( #289, ( #902 ) ) ;
#959 = ORIENTED_EDGE ( 'NONE', *, *, #126, .T. ) ;
#960 = VECTOR ( 'NONE', #784, 1000.000000000000000 ) ;
#961 = LINE ( 'NONE', #449, #253 ) ;
#962 = FACE_OUTER_BOUND ( 'NONE', #143, .T. ) ;
#963 = VERTEX_POINT ( 'NONE', #304 ) ;
#964 = CARTESIAN_POINT ( 'NONE',  ( -10.00000000000000711, 95.00000000000000000, -24.00000000000001066 ) ) ;
#965 = DIRECTION ( 'NONE',  ( -1.734723475976805862E-16, 1.000000000000000000, 0.000000000000000000 ) ) ;
#966 = EDGE_LOOP ( 'NONE', ( #58, #572, #888, #633 ) ) ;
#967 = LINE ( 'NONE', #279, #729 ) ;
#968 = CARTESIAN_POINT ( 'NONE',  ( 5.204170427930421283E-15, 5.000000000000000000, 1.499999999999992673 ) ) ;
#969 = ORIENTED_EDGE ( 'NONE', *, *, #1180, .T. ) ;
#970 = FACE_BOUND ( 'NONE', #599, .T. ) ;
#971 = EDGE_CURVE ( 'NONE', #1232, #859, #809, .T. ) ;
#972 = VERTEX_POINT ( 'NONE', #1277 ) ;
#973 = CARTESIAN_POINT ( 'NONE',  ( -9.999999999999994671, 0.000000000000000000, 9.999999999999994671 ) ) ;
#974 = CARTESIAN_POINT ( 'NONE',  ( -10.00000000000000178, 10.00000000000000178, -30.00000000000001066 ) ) ;
#975 = EDGE_LOOP ( 'NONE', ( #1265, #530, #1250, #555 ) ) ;
#976 = DIRECTION ( 'NONE',  ( -1.982631032680628829E-16, 0.7619393177594592226, -0.6476484200955404669 ) ) ;
#977 = VECTOR ( 'NONE', #1289, 1000.000000000000114 ) ;
#978 = DATE_AND_TIME ( #579, #683 ) ;
#979 = EDGE_CURVE ( 'NONE', #524, #1204, #1194, .T. ) ;
#980 = ORIENTED_EDGE ( 'NONE', *, *, #609, .T. ) ;
#981 = CARTESIAN_POINT ( 'NONE',  ( -8.000000000000014211, 25.00000000000000000, -7.000000000000010658 ) ) ;
#982 = VERTEX_POINT ( 'NONE', #403 ) ;
#983 = AXIS2_PLACEMENT_3D ( 'NONE', #351, #748, #239 ) ;
#984 = VECTOR ( 'NONE', #917, 1000.000000000000000 ) ;
#985 = ORIENTED_EDGE ( 'NONE', *, *, #320, .T. ) ;
#986 = CARTESIAN_POINT ( 'NONE',  ( -10.00000000000000178, 5.000000000000000000, -7.000000000000009770 ) ) ;
#987 = ORIENTED_EDGE ( 'NONE', *, *, #424, .F. ) ;
#988 = LINE ( 'NONE', #400, #721 ) ;
#989 = PERSON_AND_ORGANIZATION_ROLE ( 'classification_officer' ) ;
#990 = EDGE_CURVE ( 'NONE', #982, #483, #1285, .T. ) ;
#991 = DIRECTION ( 'NONE',  ( 0.000000000000000000, 0.000000000000000000, -1.000000000000000000 ) ) ;
#992 = DIRECTION ( 'NONE',  ( -1.000000000000000000, 0.000000000000000000, 0.000000000000000000 ) ) ;
#993 = VERTEX_POINT ( 'NONE', #310 ) ;
#994 = CC_DESIGN_PERSON_AND_ORGANIZATION_ASSIGNMENT ( #394, #894, ( #902 ) ) ;
#995 = CARTESIAN_POINT ( 'NONE',  ( -7.000000000000007105, 92.00000000000000000, -24.00000000000001066 ) ) ;
#996 = CARTESIAN_POINT ( 'NONE',  ( -10.00000000000000178, 5.000000000000000000, -10.00000000000000888 ) ) ;
#997 = AXIS2_PLACEMENT_3D ( 'NONE', #214, #965, #1144 ) ;
#998 = CARTESIAN_POINT ( 'NONE',  ( 5.204170427930421283E-15, 0.000000000000000000, 4.099999999999992539 ) ) ;
#999 = ORIENTED_EDGE ( 'NONE', *, *, #1026, .F. ) ;
#1000 = CARTESIAN_POINT ( 'NONE',  ( 8.000000000000023093, 25.00000000000000000, -7.000000000000009770 ) ) ;
#1001 = VECTOR ( 'NONE', #727, 1000.000000000000000 ) ;
#1002 = VECTOR ( 'NONE', #174, 1000.000000000000000 ) ;
#1003 = PERSON_AND_ORGANIZATION ( #71, #751 ) ;
#1004 = FACE_OUTER_BOUND ( 'NONE', #365, .T. ) ;
#1005 = DIRECTION ( 'NONE',  ( -1.000000000000000000, -0.000000000000000000, -0.000000000000000000 ) ) ;
#1006 = ORIENTED_EDGE ( 'NONE', *, *, #979, .F. ) ;
#1007 = CARTESIAN_POINT ( 'NONE',  ( 8.000000000000008882, 94.82842712474619873, -23.96568542494924969 ) ) ;
#1008 = EDGE_CURVE ( 'NONE', #1269, #420, #706, .T. ) ;
#1009 = DIRECTION ( 'NONE',  ( -0.000000000000000000, -1.000000000000000000, -0.000000000000000000 ) ) ;
#1010 = FACE_OUTER_BOUND ( 'NONE', #1108, .T. ) ;
#1011 = ORIENTED_EDGE ( 'NONE', *, *, #416, .F. ) ;
#1012 = DIRECTION ( 'NONE',  ( 0.000000000000000000, 0.000000000000000000, -1.000000000000000000 ) ) ;
#1013 = VECTOR ( 'NONE', #1179, 1000.000000000000000 ) ;
#1014 = ADVANCED_FACE ( 'NONE', ( #681 ), #1078, .F. ) ;
#1015 = DIRECTION ( 'NONE',  ( 0.000000000000000000, -0.000000000000000000, -1.000000000000000000 ) ) ;
#1016 = EDGE_LOOP ( 'NONE', ( #1126, #926, #479, #127 ) ) ;
#1017 = FACE_OUTER_BOUND ( 'NONE', #426, .T. ) ;
#1018 = DIRECTION ( 'NONE',  ( -1.000000000000000000, 0.000000000000000000, 0.000000000000000000 ) ) ;
#1019 = VECTOR ( 'NONE', #851, 1000.000000000000000 ) ;
#1020 = LINE ( 'NONE', #142, #542 ) ;
#1021 = ORIENTED_EDGE ( 'NONE', *, *, #178, .T. ) ;
#1022 = ADVANCED_FACE ( 'NONE', ( #234 ), #914, .F. ) ;
#1023 = DIRECTION ( 'NONE',  ( -1.000000000000000000, 0.000000000000000000, 0.000000000000000000 ) ) ;
#1024 = ORIENTED_EDGE ( 'NONE', *, *, #1205, .F. ) ;
#1025 = CARTESIAN_POINT ( 'NONE',  ( 8.000000000000023093, 25.00000000000000000, -7.000000000000009770 ) ) ;
#1026 = EDGE_CURVE ( 'NONE', #544, #428, #1208, .T. ) ;
#1027 = LINE ( 'NONE', #612, #209 ) ;
#1028 = ORIENTED_EDGE ( 'NONE', *, *, #609, .F. ) ;
#1029 = CARTESIAN_POINT ( 'NONE',  ( -10.00000000000000178, 25.00000000000000000, -10.00000000000000888 ) ) ;
#1030 = VERTEX_POINT ( 'NONE', #432 ) ;
#1031 = LINE ( 'NONE', #1140, #317 ) ;
#1032 = CARTESIAN_POINT ( 'NONE',  ( -9.999999999999994671, 5.000000000000000000, 9.999999999999994671 ) ) ;
#1033 = VERTEX_POINT ( 'NONE', #125 ) ;
#1034 = CLOSED_SHELL ( 'NONE', ( #1014, #448, #216, #825, #1022, #1157, #1221, #371, #867, #566, #680, #488, #1046, #747, #875, #282, #546, #1133, #1141, #1068, #227, #1275, #7, #47, #779, #465, #103, #358, #268, #843, #1054, #814, #261, #737, #124, #1247, #624, #1066, #42, #326 ) ) ;
#1035 = DIRECTION ( 'NONE',  ( 5.782411586589358625E-16, 0.000000000000000000, 1.000000000000000000 ) ) ;
#1036 = AXIS2_PLACEMENT_3D ( 'NONE', #854, #79, #72 ) ;
#1037 = DIRECTION ( 'NONE',  ( -1.000000000000000000, 0.000000000000000000, 0.000000000000000000 ) ) ;
#1038 = VECTOR ( 'NONE', #621, 1000.000000000000000 ) ;
#1039 = VECTOR ( 'NONE', #1035, 1000.000000000000000 ) ;
#1040 = DIRECTION ( 'NONE',  ( 3.061276722312011504E-16, 0.000000000000000000, 1.000000000000000000 ) ) ;
#1041 = VERTEX_POINT ( 'NONE', #716 ) ;
#1042 = CARTESIAN_POINT ( 'NONE',  ( -10.00000000000000178, 25.00000000000000000, -7.000000000000009770 ) ) ;
#1043 = LINE ( 'NONE', #469, #781 ) ;
#1044 = ORIENTED_EDGE ( 'NONE', *, *, #819, .F. ) ;
#1045 = CARTESIAN_POINT ( 'NONE',  ( -1.999999999999994449, -0.8000000000000000444, 2.891205793294669452E-16 ) ) ;
#1046 = ADVANCED_FACE ( 'NONE', ( #1010 ), #135, .F. ) ;
#1047 = VERTEX_POINT ( 'NONE', #922 ) ;
#1048 = DIRECTION ( 'NONE',  ( 0.000000000000000000, -0.7619393177594592226, 0.6476484200955404669 ) ) ;
#1049 = AXIS2_PLACEMENT_3D ( 'NONE', #77, #1050, #69 ) ;
#1050 = DIRECTION ( 'NONE',  ( -0.000000000000000000, 1.000000000000000000, -0.000000000000000000 ) ) ;
#1051 = EDGE_LOOP ( 'NONE', ( #956, #911, #1241, #1135, #1006 ) ) ;
#1052 = CARTESIAN_POINT ( 'NONE',  ( 10.00000000000000888, 0.000000000000000000, -10.00000000000000888 ) ) ;
#1053 = VECTOR ( 'NONE', #508, 1000.000000000000000 ) ;
#1054 = ADVANCED_FACE ( 'NONE', ( #43 ), #222, .T. ) ;
#1055 = ORIENTED_EDGE ( 'NONE', *, *, #107, .T. ) ;
#1056 = CARTESIAN_POINT ( 'NONE',  ( -10.00000000000000711, 92.00000000000000000, -23.40000000000001279 ) ) ;
#1057 = CARTESIAN_POINT ( 'NONE',  ( 2.579346541799245163, 85.28247351501482854, -30.00000000000001066 ) ) ;
#1058 = ORIENTED_EDGE ( 'NONE', *, *, #692, .F. ) ;
#1059 = CARTESIAN_POINT ( 'NONE',  ( -8.000000000000007105, 94.82842712474619873, -24.00000000000001066 ) ) ;
#1060 = AXIS2_PLACEMENT_3D ( 'NONE', #1233, #147, #638 ) ;
#1061 = VERTEX_POINT ( 'NONE', #713 ) ;
#1062 = VECTOR ( 'NONE', #123, 1000.000000000000000 ) ;
#1063 = FACE_OUTER_BOUND ( 'NONE', #101, .T. ) ;
#1064 = CARTESIAN_POINT ( 'NONE',  ( 0.000000000000000000, -0.8000000000000000444, 5.797300947221572187 ) ) ;
#1065 = VERTEX_POINT ( 'NONE', #1107 ) ;
#1066 = ADVANCED_FACE ( 'NONE', ( #522 ), #940, .T. ) ;
#1067 = DIRECTION ( 'NONE',  ( -1.000000000000000000, 0.000000000000000000, 0.000000000000000000 ) ) ;
#1068 = ADVANCED_FACE ( 'NONE', ( #519 ), #36, .F. ) ;
#1069 = ORIENTED_EDGE ( 'NONE', *, *, #1104, .T. ) ;
#1070 = CARTESIAN_POINT ( 'NONE',  ( 8.000000000000008882, 15.00000000000000000, -10.00000000000000888 ) ) ;
#1071 = LINE ( 'NONE', #974, #538 ) ;
#1072 = ORIENTED_EDGE ( 'NONE', *, *, #1259, .F. ) ;
#1073 = LINE ( 'NONE', #964, #314 ) ;
#1074 = EDGE_CURVE ( 'NONE', #28, #335, #827, .T. ) ;
#1075 = COORDINATED_UNIVERSAL_TIME_OFFSET ( 7, 0, .AHEAD. ) ;
#1076 = CARTESIAN_POINT ( 'NONE',  ( -10.00000000000000000, 25.00000000000000000, -7.000000000000009770 ) ) ;
#1077 = APPROVAL_PERSON_ORGANIZATION ( #98, #473, #1198 ) ;
#1078 = CYLINDRICAL_SURFACE ( 'NONE', #604, 2.400000000000000799 ) ;
#1079 = ORIENTED_EDGE ( 'NONE', *, *, #819, .T. ) ;
#1080 = APPROVAL_STATUS ( 'not_yet_approved' ) ;
#1081 = LINE ( 'NONE', #189, #845 ) ;
#1082 = CARTESIAN_POINT ( 'NONE',  ( 0.000000000000000000, -0.000000000000000000, -2.797300947221586842 ) ) ;
#1083 = VERTEX_POINT ( 'NONE', #1032 ) ;
#1084 = VECTOR ( 'NONE', #1048, 1000.000000000000114 ) ;
#1085 = CARTESIAN_POINT ( 'NONE',  ( 9.240408205773466221, 94.38987659787525786, -23.87797531957506436 ) ) ;
#1086 = DIRECTION ( 'NONE',  ( 0.000000000000000000, 0.000000000000000000, -1.000000000000000000 ) ) ;
#1087 = EDGE_CURVE ( 'NONE', #972, #618, #1027, .T. ) ;
#1088 = DIRECTION ( 'NONE',  ( -0.000000000000000000, 0.000000000000000000, -1.000000000000000000 ) ) ;
#1089 = EDGE_LOOP ( 'NONE', ( #171, #463, #731, #943, #810, #225 ) ) ;
#1090 = DIRECTION ( 'NONE',  ( 1.000000000000000000, 0.000000000000000000, -3.469446951953613696E-16 ) ) ;
#1091 = CALENDAR_DATE ( 2025, 6, 10 ) ;
#1092 = DIRECTION ( 'NONE',  ( 0.000000000000000000, 0.000000000000000000, 1.000000000000000000 ) ) ;
#1093 = EDGE_CURVE ( 'NONE', #717, #1041, #669, .T. ) ;
#1094 = CARTESIAN_POINT ( 'NONE',  ( 0.000000000000000000, 5.000000000000000000, 0.000000000000000000 ) ) ;
#1095 = ORIENTED_EDGE ( 'NONE', *, *, #657, .F. ) ;
#1096 = CARTESIAN_POINT ( 'NONE',  ( -8.000000000000007105, 15.00000000000000000, -24.00000000000001066 ) ) ;
#1097 = APPLICATION_PROTOCOL_DEFINITION ( 'international standard', 'config_control_design', 1994, #377 ) ;
#1098 = FACE_OUTER_BOUND ( 'NONE', #437, .T. ) ;
#1099 = AXIS2_PLACEMENT_3D ( 'NONE', #655, #165, #567 ) ;
#1100 = CARTESIAN_POINT ( 'NONE',  ( -8.000000000000008882, 5.000000000000000000, 9.999999999999994671 ) ) ;
#1101 = ORIENTED_EDGE ( 'NONE', *, *, #493, .F. ) ;
#1102 = CARTESIAN_POINT ( 'NONE',  ( 5.204170427930421283E-15, 0.000000000000000000, 1.499999999999992673 ) ) ;
#1103 = AXIS2_PLACEMENT_3D ( 'NONE', #25, #1129, #1209 ) ;
#1104 = EDGE_CURVE ( 'NONE', #281, #305, #321, .T. ) ;
#1105 = LINE ( 'NONE', #1200, #443 ) ;
#1106 = EDGE_CURVE ( 'NONE', #138, #197, #793, .T. ) ;
#1107 = CARTESIAN_POINT ( 'NONE',  ( -1.999999999999993561, -0.8000000000000000444, 5.797300947221572187 ) ) ;
#1108 = EDGE_LOOP ( 'NONE', ( #287, #1191, #589, #1058, #561, #26 ) ) ;
#1109 = FACE_OUTER_BOUND ( 'NONE', #21, .T. ) ;
#1110 = EDGE_CURVE ( 'NONE', #859, #653, #1020, .T. ) ;
#1111 = AXIS2_PLACEMENT_3D ( 'NONE', #693, #797, #1193 ) ;
#1112 = DIRECTION ( 'NONE',  ( 3.469446951953613696E-16, -0.000000000000000000, 1.000000000000000000 ) ) ;
#1113 = VERTEX_POINT ( 'NONE', #419 ) ;
#1114 = LINE ( 'NONE', #521, #690 ) ;
#1115 = AXIS2_PLACEMENT_3D ( 'NONE', #97, #1090, #709 ) ;
#1116 = ORIENTED_EDGE ( 'NONE', *, *, #244, .T. ) ;
#1117 = LINE ( 'NONE', #824, #711 ) ;
#1118 = EDGE_CURVE ( 'NONE', #786, #138, #934, .T. ) ;
#1119 = DIRECTION ( 'NONE',  ( -1.000000000000000000, 0.000000000000000000, 0.000000000000000000 ) ) ;
#1120 = ORIENTED_EDGE ( 'NONE', *, *, #66, .T. ) ;
#1121 = DIRECTION ( 'NONE',  ( -1.445602896647338917E-16, 0.000000000000000000, -1.000000000000000000 ) ) ;
#1122 = DIRECTION ( 'NONE',  ( 0.000000000000000000, -0.7619393177594592226, 0.6476484200955404669 ) ) ;
#1123 = PRODUCT_DEFINITION_FORMATION_WITH_SPECIFIED_SOURCE ( 'ANY', '', #267, .NOT_KNOWN. ) ;
#1124 = VECTOR ( 'NONE', #81, 1000.000000000000000 ) ;
#1125 = DIRECTION ( 'NONE',  ( 1.000000000000000000, 0.000000000000000000, 0.000000000000000000 ) ) ;
#1126 = ORIENTED_EDGE ( 'NONE', *, *, #1093, .T. ) ;
#1127 = CARTESIAN_POINT ( 'NONE',  ( 8.000000000000008882, 15.00000000000000000, -24.00000000000001066 ) ) ;
#1128 = PLANE ( 'NONE',  #983 ) ;
#1129 = DIRECTION ( 'NONE',  ( -0.000000000000000000, 0.000000000000000000, 1.000000000000000000 ) ) ;
#1130 = ORIENTED_EDGE ( 'NONE', *, *, #409, .F. ) ;
#1131 = LINE ( 'NONE', #1029, #1039 ) ;
#1132 = CARTESIAN_POINT ( 'NONE',  ( 0.000000000000000000, 0.000000000000000000, -24.00000000000001066 ) ) ;
#1133 = ADVANCED_FACE ( 'NONE', ( #1214 ), #328, .T. ) ;
#1134 = DIRECTION ( 'NONE',  ( -1.000000000000000000, 0.000000000000000000, -0.000000000000000000 ) ) ;
#1135 = ORIENTED_EDGE ( 'NONE', *, *, #620, .F. ) ;
#1136 = AXIS2_PLACEMENT_3D ( 'NONE', #194, #1276, #904 ) ;
#1137 = DIRECTION ( 'NONE',  ( 3.717264591378871711E-16, 0.000000000000000000, 1.000000000000000000 ) ) ;
#1138 = CARTESIAN_POINT ( 'NONE',  ( 70.00000000000000000, 25.00000000000000000, -10.00000000000003730 ) ) ;
#1139 = ORIENTED_EDGE ( 'NONE', *, *, #200, .T. ) ;
#1140 = CARTESIAN_POINT ( 'NONE',  ( 2.000000000000007105, 0.000000000000000000, 0.000000000000000000 ) ) ;
#1141 = ADVANCED_FACE ( 'NONE', ( #527 ), #928, .F. ) ;
#1142 = AXIS2_PLACEMENT_3D ( 'NONE', #950, #1212, #139 ) ;
#1143 = AXIS2_PLACEMENT_3D ( 'NONE', #1263, #758, #1151 ) ;
#1144 = DIRECTION ( 'NONE',  ( -1.000000000000000000, -1.734723475976805862E-16, 0.000000000000000000 ) ) ;
#1145 = ORIENTED_EDGE ( 'NONE', *, *, #296, .F. ) ;
#1146 = LINE ( 'NONE', #870, #1019 ) ;
#1147 = DIRECTION ( 'NONE',  ( -0.000000000000000000, 1.000000000000000000, -0.000000000000000000 ) ) ;
#1148 = ORIENTED_EDGE ( 'NONE', *, *, #51, .F. ) ;
#1149 = CARTESIAN_POINT ( 'NONE',  ( -1.999999999999992228, -0.000000000000000000, -2.891205793294666986E-16 ) ) ;
#1150 = ORIENTED_EDGE ( 'NONE', *, *, #880, .F. ) ;
#1151 = DIRECTION ( 'NONE',  ( 0.000000000000000000, 0.000000000000000000, -1.000000000000000000 ) ) ;
#1152 = DIRECTION ( 'NONE',  ( -1.000000000000000000, 0.000000000000000000, 3.469446951953613696E-16 ) ) ;
#1153 = EDGE_LOOP ( 'NONE', ( #945, #392, #613, #789 ) ) ;
#1154 = CARTESIAN_POINT ( 'NONE',  ( -8.000000000000008882, 5.000000000000000000, 9.999999999999994671 ) ) ;
#1155 = PRODUCT_DEFINITION_SHAPE ( 'NONE', 'NONE',  #902 ) ;
#1156 = ORIENTED_EDGE ( 'NONE', *, *, #1238, .F. ) ;
#1157 = ADVANCED_FACE ( 'NONE', ( #246, #640, #1236 ), #526, .T. ) ;
#1158 = DIRECTION ( 'NONE',  ( 0.000000000000000000, -1.000000000000000000, 6.938893903907227392E-16 ) ) ;
#1159 = DIRECTION ( 'NONE',  ( -0.000000000000000000, -1.000000000000000000, -0.000000000000000000 ) ) ;
#1160 = ORIENTED_EDGE ( 'NONE', *, *, #1234, .T. ) ;
#1161 = CARTESIAN_POINT ( 'NONE',  ( 10.00000000000000888, 5.000000000000000000, 9.999999999999994671 ) ) ;
#1162 = EDGE_CURVE ( 'NONE', #490, #513, #245, .T. ) ;
#1163 = CIRCLE ( 'NONE', #1142, 2.399999999999999911 ) ;
#1164 = ORIENTED_EDGE ( 'NONE', *, *, #107, .F. ) ;
#1165 = AXIS2_PLACEMENT_3D ( 'NONE', #629, #340, #439 ) ;
#1166 = LINE ( 'NONE', #973, #504 ) ;
#1167 = LINE ( 'NONE', #571, #272 ) ;
#1168 = EDGE_LOOP ( 'NONE', ( #1011, #442, #931, #507 ) ) ;
#1169 = DIRECTION ( 'NONE',  ( -0.000000000000000000, 1.000000000000000000, 0.000000000000000000 ) ) ;
#1170 = CARTESIAN_POINT ( 'NONE',  ( 5.204170427930421283E-15, 5.000000000000000000, 4.099999999999992539 ) ) ;
#1171 = PLANE ( 'NONE',  #523 ) ;
#1172 = VERTEX_POINT ( 'NONE', #944 ) ;
#1173 = FACE_OUTER_BOUND ( 'NONE', #656, .T. ) ;
#1174 = SHAPE_DEFINITION_REPRESENTATION ( #1155, #8 ) ;
#1175 = CIRCLE ( 'NONE', #616, 2.400000000000000799 ) ;
#1176 = DIRECTION ( 'NONE',  ( -7.290155649472451204E-17, 0.9805806756909201116, -0.1961161351381840445 ) ) ;
#1177 = CARTESIAN_POINT ( 'NONE',  ( 8.000000000000023093, 5.000000000000000000, -7.000000000000009770 ) ) ;
#1178 = ORIENTED_EDGE ( 'NONE', *, *, #220, .T. ) ;
#1179 = DIRECTION ( 'NONE',  ( -1.000000000000000000, 0.000000000000000000, 0.000000000000000000 ) ) ;
#1180 = EDGE_CURVE ( 'NONE', #719, #778, #1031, .T. ) ;
#1181 = APPROVAL_STATUS ( 'not_yet_approved' ) ;
#1182 = CARTESIAN_POINT ( 'NONE',  ( -8.000000000000007105, 95.00000000000000000, -24.00000000000001066 ) ) ;
#1183 = DIRECTION ( 'NONE',  ( -0.000000000000000000, -0.000000000000000000, -1.000000000000000000 ) ) ;
#1184 = ORIENTED_EDGE ( 'NONE', *, *, #861, .T. ) ;
#1185 = VECTOR ( 'NONE', #593, 1000.000000000000000 ) ;
#1186 = CARTESIAN_POINT ( 'NONE',  ( -9.999999999999994671, 5.000000000000000000, 9.999999999999994671 ) ) ;
#1187 =( NAMED_UNIT ( * ) SI_UNIT ( $, .STERADIAN. ) SOLID_ANGLE_UNIT ( ) );
#1188 = CC_DESIGN_DATE_AND_TIME_ASSIGNMENT ( #487, #887, ( #902 ) ) ;
#1189 = LINE ( 'NONE', #1182, #184 ) ;
#1190 = DIRECTION ( 'NONE',  ( -1.000000000000000000, 0.000000000000000000, 0.000000000000000000 ) ) ;
#1191 = ORIENTED_EDGE ( 'NONE', *, *, #393, .F. ) ;
#1192 = CARTESIAN_POINT ( 'NONE',  ( -10.00000000000000178, 25.00000000000000000, -7.000000000000009770 ) ) ;
#1193 = DIRECTION ( 'NONE',  ( -1.000000000000000000, 0.000000000000000000, 0.000000000000000000 ) ) ;
#1194 = LINE ( 'NONE', #905, #960 ) ;
#1195 = EDGE_CURVE ( 'NONE', #1083, #305, #423, .T. ) ;
#1196 = ORIENTED_EDGE ( 'NONE', *, *, #516, .F. ) ;
#1197 = DIRECTION ( 'NONE',  ( -1.000000000000000000, 0.000000000000000000, -0.000000000000000000 ) ) ;
#1198 = APPROVAL_ROLE ( '' ) ;
#1199 = EDGE_CURVE ( 'NONE', #725, #138, #939, .T. ) ;
#1200 = CARTESIAN_POINT ( 'NONE',  ( 2.000000000000005329, -0.8000000000000000444, -5.797300947221587286 ) ) ;
#1201 = VECTOR ( 'NONE', #1272, 1000.000000000000000 ) ;
#1202 = DIRECTION ( 'NONE',  ( -1.000000000000000000, 0.000000000000000000, 0.000000000000000000 ) ) ;
#1203 = DIRECTION ( 'NONE',  ( 3.402072636420477968E-16, 0.1961161351381840723, 0.9805806756909202226 ) ) ;
#1204 = VERTEX_POINT ( 'NONE', #739 ) ;
#1205 = EDGE_CURVE ( 'NONE', #1113, #949, #226, .T. ) ;
#1206 = PLANE ( 'NONE',  #1283 ) ;
#1207 = AXIS2_PLACEMENT_3D ( 'NONE', #344, #1037, #647 ) ;
#1208 = CIRCLE ( 'NONE', #565, 2.399999999999999911 ) ;
#1209 = DIRECTION ( 'NONE',  ( 1.000000000000000000, 0.000000000000000000, 0.000000000000000000 ) ) ;
#1210 = ORIENTED_EDGE ( 'NONE', *, *, #615, .F. ) ;
#1211 = CARTESIAN_POINT ( 'NONE',  ( -8.000000000000001776, 25.00000000000000000, -10.00000000000000888 ) ) ;
#1212 = DIRECTION ( 'NONE',  ( 0.000000000000000000, 0.000000000000000000, -1.000000000000000000 ) ) ;
#1213 = AXIS2_PLACEMENT_3D ( 'NONE', #591, #991, #586 ) ;
#1214 = FACE_OUTER_BOUND ( 'NONE', #106, .T. ) ;
#1215 = VERTEX_POINT ( 'NONE', #153 ) ;
#1216 = EDGE_CURVE ( 'NONE', #513, #11, #1117, .T. ) ;
#1217 = LINE ( 'NONE', #1211, #120 ) ;
#1218 = AXIS2_PLACEMENT_3D ( 'NONE', #805, #515, #1197 ) ;
#1219 = VERTEX_POINT ( 'NONE', #251 ) ;
#1220 = CARTESIAN_POINT ( 'NONE',  ( 10.00000000000000888, 10.00000000000000178, -30.00000000000001066 ) ) ;
#1221 = ADVANCED_FACE ( 'NONE', ( #332 ), #429, .F. ) ;
#1222 = CARTESIAN_POINT ( 'NONE',  ( 7.000000000000008882, 92.00000000000000000, 0.000000000000000000 ) ) ;
#1223 = ORIENTED_EDGE ( 'NONE', *, *, #1087, .F. ) ;
#1224 = CIRCLE ( 'NONE', #873, 2.600000000000000089 ) ;
#1225 = PLANE ( 'NONE',  #276 ) ;
#1226 = CARTESIAN_POINT ( 'NONE',  ( -10.00000000000000178, 10.00000000000000178, -30.00000000000001066 ) ) ;
#1227 = AXIS2_PLACEMENT_3D ( 'NONE', #134, #634, #339 ) ;
#1228 = VECTOR ( 'NONE', #1183, 1000.000000000000000 ) ;
#1229 = DIRECTION ( 'NONE',  ( 1.000000000000000000, 0.000000000000000000, 0.000000000000000000 ) ) ;
#1230 = VERTEX_POINT ( 'NONE', #48 ) ;
#1231 = CARTESIAN_POINT ( 'NONE',  ( -1.999999999999994449, 0.000000000000000000, 2.891205793294669452E-16 ) ) ;
#1232 = VERTEX_POINT ( 'NONE', #1220 ) ;
#1233 = CARTESIAN_POINT ( 'NONE',  ( -10.00000000000000178, 5.000000000000000000, -10.00000000000000888 ) ) ;
#1234 = EDGE_CURVE ( 'NONE', #725, #653, #841, .T. ) ;
#1235 = VECTOR ( 'NONE', #563, 1000.000000000000000 ) ;
#1236 = FACE_OUTER_BOUND ( 'NONE', #75, .T. ) ;
#1237 = EDGE_LOOP ( 'NONE', ( #840, #1028, #969, #1021 ) ) ;
#1238 = EDGE_CURVE ( 'NONE', #733, #370, #553, .T. ) ;
#1239 = PLANE ( 'NONE',  #87 ) ;
#1240 = CARTESIAN_POINT ( 'NONE',  ( -1.999999999999993561, -0.000000000000000000, 5.797300947221572187 ) ) ;
#1241 = ORIENTED_EDGE ( 'NONE', *, *, #13, .F. ) ;
#1242 = DIRECTION ( 'NONE',  ( -0.000000000000000000, 0.000000000000000000, 1.000000000000000000 ) ) ;
#1243 = EDGE_LOOP ( 'NONE', ( #1271, #847, #1223, #689 ) ) ;
#1244 = LINE ( 'NONE', #659, #1084 ) ;
#1245 = DIRECTION ( 'NONE',  ( 0.000000000000000000, 0.000000000000000000, -1.000000000000000000 ) ) ;
#1246 = ORIENTED_EDGE ( 'NONE', *, *, #835, .T. ) ;
#1247 = ADVANCED_FACE ( 'NONE', ( #34 ), #452, .T. ) ;
#1248 = DIRECTION ( 'NONE',  ( -1.445602896647338917E-16, 0.000000000000000000, 1.000000000000000000 ) ) ;
#1249 = VECTOR ( 'NONE', #529, 1000.000000000000000 ) ;
#1250 = ORIENTED_EDGE ( 'NONE', *, *, #1280, .T. ) ;
#1251 = FACE_OUTER_BOUND ( 'NONE', #52, .T. ) ;
#1252 = DIRECTION ( 'NONE',  ( 0.000000000000000000, 0.000000000000000000, -1.000000000000000000 ) ) ;
#1253 = ORIENTED_EDGE ( 'NONE', *, *, #220, .F. ) ;
#1254 = CYLINDRICAL_SURFACE ( 'NONE', #221, 2.399999999999999911 ) ;
#1255 = EDGE_CURVE ( 'NONE', #1172, #1065, #444, .T. ) ;
#1256 = EDGE_LOOP ( 'NONE', ( #551, #505, #704, #404 ) ) ;
#1257 = CARTESIAN_POINT ( 'NONE',  ( 2.000000000000005329, -0.8000000000000000444, 0.000000000000000000 ) ) ;
#1258 = DIRECTION ( 'NONE',  ( 0.000000000000000000, 0.000000000000000000, 1.000000000000000000 ) ) ;
#1259 = EDGE_CURVE ( 'NONE', #1041, #717, #435, .T. ) ;
#1260 = ORIENTED_EDGE ( 'NONE', *, *, #303, .T. ) ;
#1261 = PLANE ( 'NONE',  #601 ) ;
#1262 = ORIENTED_EDGE ( 'NONE', *, *, #236, .F. ) ;
#1263 = CARTESIAN_POINT ( 'NONE',  ( 10.00000000000000888, 15.00000000000000000, -30.00000000000001066 ) ) ;
#1264 = DIRECTION ( 'NONE',  ( -1.000000000000000000, 0.000000000000000000, 0.000000000000000000 ) ) ;
#1265 = ORIENTED_EDGE ( 'NONE', *, *, #913, .T. ) ;
#1266 = DIRECTION ( 'NONE',  ( -0.000000000000000000, -0.000000000000000000, -1.000000000000000000 ) ) ;
#1267 = VECTOR ( 'NONE', #1169, 1000.000000000000000 ) ;
#1268 = VECTOR ( 'NONE', #833, 1000.000000000000000 ) ;
#1269 = VERTEX_POINT ( 'NONE', #532 ) ;
#1270 = CARTESIAN_POINT ( 'NONE',  ( -10.00000000000000711, 93.31565158061277998, -23.66313031612256879 ) ) ;
#1271 = ORIENTED_EDGE ( 'NONE', *, *, #990, .T. ) ;
#1272 = DIRECTION ( 'NONE',  ( -0.000000000000000000, 1.000000000000000000, 0.000000000000000000 ) ) ;
#1273 =( BOUNDED_CURVE ( )  B_SPLINE_CURVE ( 3, ( #811, #192, #1085, #1007 ),
 .UNSPECIFIED., .F., .T. ) 
 B_SPLINE_CURVE_WITH_KNOTS ( ( 4, 4 ),
 ( 1.570796326794896558, 2.801755744135671744 ),
 .UNSPECIFIED. ) 
 CURVE ( )  GEOMETRIC_REPRESENTATION_ITEM ( )  RATIONAL_B_SPLINE_CURVE ( ( 1.000000000000000000, 0.8776643872851505046, 0.8776643872851505046, 1.000000000000000000 ) ) 
 REPRESENTATION_ITEM ( '' )  );
#1274 = COORDINATED_UNIVERSAL_TIME_OFFSET ( 7, 0, .AHEAD. ) ;
#1275 = ADVANCED_FACE ( 'NONE', ( #848 ), #1128, .T. ) ;
#1276 = DIRECTION ( 'NONE',  ( 0.000000000000000000, -1.000000000000000000, 0.000000000000000000 ) ) ;
#1277 = CARTESIAN_POINT ( 'NONE',  ( 2.000000000000005329, -0.8000000000000000444, -2.797300947221586842 ) ) ;
#1278 = VECTOR ( 'NONE', #175, 1000.000000000000000 ) ;
#1279 = ORIENTED_EDGE ( 'NONE', *, *, #990, .F. ) ;
#1280 = EDGE_CURVE ( 'NONE', #850, #1033, #1163, .T. ) ;
#1281 = DIRECTION ( 'NONE',  ( 0.000000000000000000, -0.7619393177594592226, 0.6476484200955404669 ) ) ;
#1282 = APPROVAL_ROLE ( '' ) ;
#1283 = AXIS2_PLACEMENT_3D ( 'NONE', #1000, #319, #1281 ) ;
#1284 = ORIENTED_EDGE ( 'NONE', *, *, #700, .F. ) ;
#1285 = LINE ( 'NONE', #1082, #671 ) ;
#1286 = EDGE_LOOP ( 'NONE', ( #446, #265, #382, #668 ) ) ;
#1287 = DIRECTION ( 'NONE',  ( 0.000000000000000000, 0.000000000000000000, 1.000000000000000000 ) ) ;
#1288 = EDGE_CURVE ( 'NONE', #1061, #580, #41, .T. ) ;
#1289 = DIRECTION ( 'NONE',  ( -1.982631032680628829E-16, 0.7619393177594592226, -0.6476484200955404669 ) ) ;
ENDSEC;
END-ISO-10303-21;
