ISO-10303-21;
HEADER;
FILE_DESCRIPTION (( 'STEP AP203' ),
    '1' );
FILE_NAME ('CAMERA02_HUB.STEP',
    '2025-10-05T12:46:47',
    ( '' ),
    ( '' ),
    'SwSTEP 2.0',
    'SolidWorks 2025',
    '' );
FILE_SCHEMA (( 'CONFIG_CONTROL_DESIGN' ));
ENDSEC;

DATA;
#1 = LINE ( 'NONE', #295, #275 ) ;
#2 = DIRECTION ( 'NONE',  ( 0.000000000000000000, 0.000000000000000000, -1.000000000000000000 ) ) ;
#3 = CC_DESIGN_DATE_AND_TIME_ASSIGNMENT ( #667, #814, ( #390 ) ) ;
#4 = EDGE_CURVE ( 'NONE', #459, #365, #186, .T. ) ;
#5 = CARTESIAN_POINT ( 'NONE',  ( -21.75000000000000000, 10.00000000000000178, -12.00000000000000000 ) ) ;
#6 = LINE ( 'NONE', #82, #542 ) ;
#7 = ADVANCED_FACE ( 'NONE', ( #755 ), #401, .F. ) ;
#8 = CARTESIAN_POINT ( 'NONE',  ( -24.74999999999999645, -9.999999999999998224, -12.00000000000000000 ) ) ;
#9 = ORIENTED_EDGE ( 'NONE', *, *, #427, .T. ) ;
#10 = CARTESIAN_POINT ( 'NONE',  ( 0.000000000000000000, 0.000000000000000000, 0.000000000000000000 ) ) ;
#11 = PLANE ( 'NONE',  #38 ) ;
#12 = CARTESIAN_POINT ( 'NONE',  ( 21.74999999999999645, 10.00000000000000178, -12.00000000000000000 ) ) ;
#13 = ORIENTED_EDGE ( 'NONE', *, *, #448, .F. ) ;
#14 = EDGE_CURVE ( 'NONE', #52, #122, #807, .T. ) ;
#15 = EDGE_LOOP ( 'NONE', ( #730, #396 ) ) ;
#16 = COORDINATED_UNIVERSAL_TIME_OFFSET ( 7, 0, .AHEAD. ) ;
#17 = ORIENTED_EDGE ( 'NONE', *, *, #408, .T. ) ;
#18 = UNCERTAINTY_MEASURE_WITH_UNIT (LENGTH_MEASURE( 1.000000000000000082E-05 ), #145, 'distance_accuracy_value', 'NONE');
#19 = ORIENTED_EDGE ( 'NONE', *, *, #77, .F. ) ;
#20 = SECURITY_CLASSIFICATION_LEVEL ( 'unclassified' ) ;
#21 = VECTOR ( 'NONE', #147, 1000.000000000000000 ) ;
#22 = AXIS2_PLACEMENT_3D ( 'NONE', #250, #391, #511 ) ;
#23 = CIRCLE ( 'NONE', #302, 3.100000000000000089 ) ;
#24 = AXIS2_PLACEMENT_3D ( 'NONE', #911, #269, #906 ) ;
#25 = EDGE_LOOP ( 'NONE', ( #515, #829, #264, #184 ) ) ;
#26 = PERSON_AND_ORGANIZATION ( #442, #89 ) ;
#27 = ORIENTED_EDGE ( 'NONE', *, *, #154, .T. ) ;
#28 = DIRECTION ( 'NONE',  ( -0.000000000000000000, -0.000000000000000000, 1.000000000000000000 ) ) ;
#29 = EDGE_CURVE ( 'NONE', #344, #820, #193, .T. ) ;
#30 = CARTESIAN_POINT ( 'NONE',  ( 32.38064815862642831, 0.03099254336257767362, 0.000000000000000000 ) ) ;
#31 = ORIENTED_EDGE ( 'NONE', *, *, #90, .F. ) ;
#32 = ORIENTED_EDGE ( 'NONE', *, *, #245, .T. ) ;
#33 = CARTESIAN_POINT ( 'NONE',  ( 39.49999999999998579, 7.000000000000001776, 3.000000000000000000 ) ) ;
#34 = CARTESIAN_POINT ( 'NONE',  ( -42.50000000000002842, 10.00000000000000178, 0.000000000000000000 ) ) ;
#35 = VERTEX_POINT ( 'NONE', #68 ) ;
#36 = ORIENTED_EDGE ( 'NONE', *, *, #487, .T. ) ;
#37 = FACE_OUTER_BOUND ( 'NONE', #500, .T. ) ;
#38 = AXIS2_PLACEMENT_3D ( 'NONE', #784, #305, #2 ) ;
#39 = EDGE_LOOP ( 'NONE', ( #446, #737, #830, #309 ) ) ;
#40 = EDGE_CURVE ( 'NONE', #409, #365, #403, .T. ) ;
#41 = CIRCLE ( 'NONE', #524, 1.600000000000004086 ) ;
#42 = VERTEX_POINT ( 'NONE', #709 ) ;
#43 = EDGE_CURVE ( 'NONE', #459, #42, #897, .T. ) ;
#44 = CARTESIAN_POINT ( 'NONE',  ( -24.74999999999999645, -9.999999999999998224, -12.00000000000000000 ) ) ;
#45 = DIRECTION ( 'NONE',  ( -0.000000000000000000, -0.000000000000000000, -1.000000000000000000 ) ) ;
#46 = CARTESIAN_POINT ( 'NONE',  ( 0.000000000000000000, 0.000000000000000000, 2.999999999999999112 ) ) ;
#47 = ORIENTED_EDGE ( 'NONE', *, *, #867, .F. ) ;
#48 = FACE_OUTER_BOUND ( 'NONE', #304, .T. ) ;
#49 = EDGE_CURVE ( 'NONE', #882, #889, #933, .T. ) ;
#50 = DIRECTION ( 'NONE',  ( 0.000000000000000000, 1.000000000000000000, 0.000000000000000000 ) ) ;
#51 = ORIENTED_EDGE ( 'NONE', *, *, #40, .T. ) ;
#52 = VERTEX_POINT ( 'NONE', #216 ) ;
#53 = CARTESIAN_POINT ( 'NONE',  ( 24.75000000000000000, 10.00000000000000178, 0.000000000000000000 ) ) ;
#54 = DIRECTION ( 'NONE',  ( -1.000000000000000000, -0.000000000000000000, -0.000000000000000000 ) ) ;
#55 = EDGE_CURVE ( 'NONE', #563, #339, #64, .T. ) ;
#56 = DIRECTION ( 'NONE',  ( -0.000000000000000000, 0.000000000000000000, -1.000000000000000000 ) ) ;
#57 = VECTOR ( 'NONE', #142, 1000.000000000000000 ) ;
#58 = AXIS2_PLACEMENT_3D ( 'NONE', #111, #844, #567 ) ;
#59 = CARTESIAN_POINT ( 'NONE',  ( -42.50000000000002842, -6.999999999999998224, 0.000000000000000000 ) ) ;
#60 = ADVANCED_FACE ( 'NONE', ( #431, #434 ), #62, .T. ) ;
#61 = EDGE_CURVE ( 'NONE', #886, #656, #200, .T. ) ;
#62 = PLANE ( 'NONE',  #674 ) ;
#63 = CARTESIAN_POINT ( 'NONE',  ( -21.75000000000000000, -9.999999999999998224, -12.00000000000000000 ) ) ;
#64 = LINE ( 'NONE', #790, #930 ) ;
#65 = ADVANCED_FACE ( 'NONE', ( #921 ), #499, .F. ) ;
#66 = CARTESIAN_POINT ( 'NONE',  ( 24.74999999999999289, -9.999999999999998224, -12.00000000000000000 ) ) ;
#67 = CARTESIAN_POINT ( 'NONE',  ( 0.000000000000000000, 0.000000000000000000, -12.00000000000000000 ) ) ;
#68 = CARTESIAN_POINT ( 'NONE',  ( -24.74999999999999645, -9.999999999999998224, 0.000000000000000000 ) ) ;
#69 = EDGE_CURVE ( 'NONE', #314, #554, #520, .T. ) ;
#70 = LINE ( 'NONE', #66, #196 ) ;
#71 = FACE_OUTER_BOUND ( 'NONE', #809, .T. ) ;
#72 = PRODUCT_DEFINITION_SHAPE ( 'NONE', 'NONE',  #752 ) ;
#73 = CC_DESIGN_APPROVAL ( #188, ( #361 ) ) ;
#74 = DIRECTION ( 'NONE',  ( -0.000000000000000000, -0.000000000000000000, 1.000000000000000000 ) ) ;
#75 = ORIENTED_EDGE ( 'NONE', *, *, #143, .F. ) ;
#76 = DIRECTION ( 'NONE',  ( -1.000000000000000000, 0.000000000000000000, 0.000000000000000000 ) ) ;
#77 = EDGE_CURVE ( 'NONE', #252, #130, #638, .T. ) ;
#78 = DIRECTION ( 'NONE',  ( -0.000000000000000000, 1.000000000000000000, -0.000000000000000000 ) ) ;
#79 = PRODUCT ( 'CAMERA02_HUB', 'CAMERA02_HUB', '', ( #425 ) ) ;
#80 = VERTEX_POINT ( 'NONE', #703 ) ;
#81 = APPLICATION_PROTOCOL_DEFINITION ( 'international standard', 'config_control_design', 1994, #687 ) ;
#82 = CARTESIAN_POINT ( 'NONE',  ( -24.74999999999999645, 0.000000000000000000, -12.00000000000000000 ) ) ;
#83 = DIRECTION ( 'NONE',  ( 0.000000000000000000, 0.000000000000000000, -1.000000000000000000 ) ) ;
#84 = ORIENTED_EDGE ( 'NONE', *, *, #258, .F. ) ;
#85 = DATE_TIME_ROLE ( 'creation_date' ) ;
#86 = AXIS2_PLACEMENT_3D ( 'NONE', #113, #109, #190 ) ;
#87 = DIRECTION ( 'NONE',  ( 1.000000000000000000, 0.000000000000000000, 0.000000000000000000 ) ) ;
#88 = AXIS2_PLACEMENT_3D ( 'NONE', #568, #912, #636 ) ;
#89 = ORGANIZATION ( 'UNSPECIFIED', 'UNSPECIFIED', '' ) ;
#90 = EDGE_CURVE ( 'NONE', #765, #52, #144, .T. ) ;
#91 = ORIENTED_EDGE ( 'NONE', *, *, #700, .F. ) ;
#92 = PERSON_AND_ORGANIZATION ( #442, #89 ) ;
#93 = CARTESIAN_POINT ( 'NONE',  ( -42.50000000000002842, -9.999999999999998224, 3.000000000000000000 ) ) ;
#94 = ORIENTED_EDGE ( 'NONE', *, *, #4, .F. ) ;
#95 = DIRECTION ( 'NONE',  ( -1.000000000000000000, 0.000000000000000000, 0.000000000000000000 ) ) ;
#96 = ORIENTED_EDGE ( 'NONE', *, *, #318, .F. ) ;
#97 = EDGE_CURVE ( 'NONE', #886, #512, #646, .T. ) ;
#98 = DIRECTION ( 'NONE',  ( -0.000000000000000000, -0.000000000000000000, 1.000000000000000000 ) ) ;
#99 = AXIS2_PLACEMENT_3D ( 'NONE', #781, #721, #786 ) ;
#100 = CARTESIAN_POINT ( 'NONE',  ( 24.74999999999999289, 0.000000000000000000, -12.00000000000000000 ) ) ;
#101 = VECTOR ( 'NONE', #112, 1000.000000000000000 ) ;
#102 = AXIS2_PLACEMENT_3D ( 'NONE', #518, #743, #95 ) ;
#103 = ORIENTED_EDGE ( 'NONE', *, *, #728, .F. ) ;
#104 = PERSON_AND_ORGANIZATION_ROLE ( 'design_supplier' ) ;
#105 = ORIENTED_EDGE ( 'NONE', *, *, #371, .F. ) ;
#106 = CARTESIAN_POINT ( 'NONE',  ( 24.74999999999999289, 0.000000000000000000, 0.000000000000000000 ) ) ;
#107 = LINE ( 'NONE', #34, #658 ) ;
#108 = EDGE_CURVE ( 'NONE', #694, #441, #539, .T. ) ;
#109 = DIRECTION ( 'NONE',  ( -0.000000000000000000, -0.000000000000000000, 1.000000000000000000 ) ) ;
#110 = VERTEX_POINT ( 'NONE', #139 ) ;
#111 = CARTESIAN_POINT ( 'NONE',  ( 32.38064815862642831, 0.03099254336257767362, -15.00000000000000000 ) ) ;
#112 = DIRECTION ( 'NONE',  ( -0.000000000000000000, -0.000000000000000000, 1.000000000000000000 ) ) ;
#113 = CARTESIAN_POINT ( 'NONE',  ( -39.50000000000002842, 7.000000000000002665, 3.000000000000000000 ) ) ;
#114 = ORIENTED_EDGE ( 'NONE', *, *, #382, .F. ) ;
#115 = DIRECTION ( 'NONE',  ( -0.000000000000000000, -0.000000000000000000, 1.000000000000000000 ) ) ;
#116 = CARTESIAN_POINT ( 'NONE',  ( 30.78064815862643755, 0.03099254336257787137, 0.000000000000000000 ) ) ;
#117 = VECTOR ( 'NONE', #74, 1000.000000000000000 ) ;
#118 = VECTOR ( 'NONE', #774, 1000.000000000000000 ) ;
#119 = ORIENTED_EDGE ( 'NONE', *, *, #357, .T. ) ;
#120 = AXIS2_PLACEMENT_3D ( 'NONE', #207, #861, #505 ) ;
#121 = EDGE_CURVE ( 'NONE', #168, #804, #792, .T. ) ;
#122 = VERTEX_POINT ( 'NONE', #286 ) ;
#123 = CARTESIAN_POINT ( 'NONE',  ( 24.74999999999999289, -9.999999999999998224, -0.000000000000000000 ) ) ;
#124 = CARTESIAN_POINT ( 'NONE',  ( 39.49999999999998579, -9.999999999999998224, 3.000000000000000000 ) ) ;
#125 = ORIENTED_EDGE ( 'NONE', *, *, #330, .F. ) ;
#126 = EDGE_CURVE ( 'NONE', #694, #521, #576, .T. ) ;
#127 = ORIENTED_EDGE ( 'NONE', *, *, #888, .T. ) ;
#128 = DIRECTION ( 'NONE',  ( 0.000000000000000000, 1.000000000000000000, 0.000000000000000000 ) ) ;
#129 = CARTESIAN_POINT ( 'NONE',  ( 21.75000000000000000, 10.00000000000000178, 3.000000000000000000 ) ) ;
#130 = VERTEX_POINT ( 'NONE', #291 ) ;
#131 = LINE ( 'NONE', #922, #181 ) ;
#132 = ADVANCED_FACE ( 'NONE', ( #580 ), #350, .T. ) ;
#133 = LINE ( 'NONE', #621, #808 ) ;
#134 = VECTOR ( 'NONE', #566, 1000.000000000000000 ) ;
#135 = DIRECTION ( 'NONE',  ( -0.000000000000000000, -1.000000000000000000, -0.000000000000000000 ) ) ;
#136 = DIRECTION ( 'NONE',  ( 1.000000000000000000, 0.000000000000000000, 0.000000000000000000 ) ) ;
#137 = CYLINDRICAL_SURFACE ( 'NONE', #618, 3.000000000000002665 ) ;
#138 = ADVANCED_BREP_SHAPE_REPRESENTATION ( 'CAMERA02_HUB', ( #664, #496 ), #691 ) ;
#139 = CARTESIAN_POINT ( 'NONE',  ( 30.78064815862643755, 0.03099254336257787137, 3.000000000000000000 ) ) ;
#140 = ORIENTED_EDGE ( 'NONE', *, *, #121, .T. ) ;
#141 = DIRECTION ( 'NONE',  ( -1.000000000000000000, 0.000000000000000000, 0.000000000000000000 ) ) ;
#142 = DIRECTION ( 'NONE',  ( 0.000000000000000000, -1.000000000000000000, 0.000000000000000000 ) ) ;
#143 = EDGE_CURVE ( 'NONE', #122, #459, #770, .T. ) ;
#144 = LINE ( 'NONE', #855, #913 ) ;
#145 =( LENGTH_UNIT ( ) NAMED_UNIT ( * ) SI_UNIT ( .MILLI., .METRE. ) );
#146 = CARTESIAN_POINT ( 'NONE',  ( -42.50000000000002842, 7.000000000000002665, 0.000000000000000000 ) ) ;
#147 = DIRECTION ( 'NONE',  ( -1.000000000000000000, 0.000000000000000000, 0.000000000000000000 ) ) ;
#148 = VECTOR ( 'NONE', #613, 1000.000000000000000 ) ;
#149 = CIRCLE ( 'NONE', #465, 2.999999999999999112 ) ;
#150 = AXIS2_PLACEMENT_3D ( 'NONE', #199, #128, #415 ) ;
#151 = CARTESIAN_POINT ( 'NONE',  ( 30.78064815862643755, 0.03099254336257787137, -15.00000000000000000 ) ) ;
#152 = VECTOR ( 'NONE', #668, 1000.000000000000000 ) ;
#153 = ORIENTED_EDGE ( 'NONE', *, *, #754, .F. ) ;
#154 = EDGE_CURVE ( 'NONE', #176, #313, #852, .T. ) ;
#155 = DIRECTION ( 'NONE',  ( 0.000000000000000000, 0.000000000000000000, -1.000000000000000000 ) ) ;
#156 = DIRECTION ( 'NONE',  ( 0.000000000000000000, 0.000000000000000000, -1.000000000000000000 ) ) ;
#157 = EDGE_LOOP ( 'NONE', ( #697, #114, #325, #767 ) ) ;
#158 = CALENDAR_DATE ( 2025, 5, 10 ) ;
#159 = ORIENTED_EDGE ( 'NONE', *, *, #77, .T. ) ;
#160 = DIRECTION ( 'NONE',  ( -1.000000000000000000, 0.000000000000000000, -0.000000000000000000 ) ) ;
#161 = ADVANCED_FACE ( 'NONE', ( #748 ), #609, .F. ) ;
#162 = EDGE_CURVE ( 'NONE', #268, #42, #107, .T. ) ;
#163 = ORIENTED_EDGE ( 'NONE', *, *, #171, .T. ) ;
#164 = CALENDAR_DATE ( 2025, 5, 10 ) ;
#165 = EDGE_LOOP ( 'NONE', ( #704, #311, #242, #153, #445, #693 ) ) ;
#166 = DIRECTION ( 'NONE',  ( 1.000000000000000000, 0.000000000000000000, 0.000000000000000000 ) ) ;
#167 = AXIS2_PLACEMENT_3D ( 'NONE', #633, #398, #685 ) ;
#168 = VERTEX_POINT ( 'NONE', #659 ) ;
#169 = PERSON_AND_ORGANIZATION ( #442, #89 ) ;
#170 = CARTESIAN_POINT ( 'NONE',  ( -31.01935184137376567, 0.03099254336252910136, 3.000000000000000000 ) ) ;
#171 = EDGE_CURVE ( 'NONE', #826, #563, #254, .T. ) ;
#172 = ORIENTED_EDGE ( 'NONE', *, *, #162, .F. ) ;
#173 = PERSON_AND_ORGANIZATION_ROLE ( 'creator' ) ;
#174 = DIRECTION ( 'NONE',  ( -1.000000000000000000, 0.000000000000000000, 0.000000000000000000 ) ) ;
#175 = DIRECTION ( 'NONE',  ( -0.000000000000000000, 1.000000000000000000, -0.000000000000000000 ) ) ;
#176 = VERTEX_POINT ( 'NONE', #531 ) ;
#177 = EDGE_CURVE ( 'NONE', #441, #893, #507, .T. ) ;
#178 = DIRECTION ( 'NONE',  ( 0.000000000000000000, -1.000000000000000000, 0.000000000000000000 ) ) ;
#179 = DIRECTION ( 'NONE',  ( -0.000000000000000000, 0.000000000000000000, 1.000000000000000000 ) ) ;
#180 = CIRCLE ( 'NONE', #435, 3.100000000000000089 ) ;
#181 = VECTOR ( 'NONE', #346, 1000.000000000000000 ) ;
#182 = CC_DESIGN_SECURITY_CLASSIFICATION ( #390, ( #361 ) ) ;
#183 = DIRECTION ( 'NONE',  ( -0.000000000000000000, -1.000000000000000000, -0.000000000000000000 ) ) ;
#184 = ORIENTED_EDGE ( 'NONE', *, *, #651, .T. ) ;
#185 = DIRECTION ( 'NONE',  ( -0.000000000000000000, -0.000000000000000000, -1.000000000000000000 ) ) ;
#186 = LINE ( 'NONE', #904, #601 ) ;
#187 = CARTESIAN_POINT ( 'NONE',  ( -24.74999999999999645, 0.000000000000000000, -12.00000000000000000 ) ) ;
#188 = APPROVAL ( #803, 'UNSPECIFIED' ) ;
#189 = PLANE ( 'NONE',  #794 ) ;
#190 = DIRECTION ( 'NONE',  ( -1.000000000000000000, 0.000000000000000000, 0.000000000000000000 ) ) ;
#191 = ORIENTED_EDGE ( 'NONE', *, *, #427, .F. ) ;
#192 = DIRECTION ( 'NONE',  ( 0.000000000000000000, 0.000000000000000000, -1.000000000000000000 ) ) ;
#193 = CIRCLE ( 'NONE', #616, 3.000000000000002665 ) ;
#194 = CIRCLE ( 'NONE', #585, 3.000000000000002665 ) ;
#195 = DIRECTION ( 'NONE',  ( -0.000000000000000000, -0.000000000000000000, -1.000000000000000000 ) ) ;
#196 = VECTOR ( 'NONE', #577, 1000.000000000000000 ) ;
#197 = EDGE_LOOP ( 'NONE', ( #675, #598, #27, #782, #377, #562 ) ) ;
#198 = LINE ( 'NONE', #783, #560 ) ;
#199 = CARTESIAN_POINT ( 'NONE',  ( -42.50000000000002842, -9.999999999999998224, 3.000000000000000000 ) ) ;
#200 = LINE ( 'NONE', #641, #463 ) ;
#201 = ADVANCED_FACE ( 'NONE', ( #683 ), #591, .T. ) ;
#202 = VERTEX_POINT ( 'NONE', #677 ) ;
#203 = CARTESIAN_POINT ( 'NONE',  ( -32.61935184137377064, 0.03099254336252910136, 0.000000000000000000 ) ) ;
#204 = DIRECTION ( 'NONE',  ( 0.000000000000000000, 0.000000000000000000, -1.000000000000000000 ) ) ;
#205 = DIRECTION ( 'NONE',  ( 0.000000000000000000, 0.000000000000000000, -1.000000000000000000 ) ) ;
#206 = ORIENTED_EDGE ( 'NONE', *, *, #708, .F. ) ;
#207 = CARTESIAN_POINT ( 'NONE',  ( 32.38064815862642831, 0.03099254336257767362, 3.000000000000000000 ) ) ;
#208 = EDGE_CURVE ( 'NONE', #893, #661, #253, .T. ) ;
#209 = DIRECTION ( 'NONE',  ( -1.000000000000000000, 0.000000000000000000, 0.000000000000000000 ) ) ;
#210 = AXIS2_PLACEMENT_3D ( 'NONE', #569, #652, #643 ) ;
#211 = CARTESIAN_POINT ( 'NONE',  ( -32.61935184137377064, 0.03099254336252910136, 0.000000000000000000 ) ) ;
#212 = VECTOR ( 'NONE', #432, 1000.000000000000000 ) ;
#213 = ORIENTED_EDGE ( 'NONE', *, *, #208, .T. ) ;
#214 = VECTOR ( 'NONE', #471, 1000.000000000000000 ) ;
#215 = CARTESIAN_POINT ( 'NONE',  ( -42.50000000000002842, -9.999999999999998224, 0.000000000000000000 ) ) ;
#216 = CARTESIAN_POINT ( 'NONE',  ( -39.50000000000002842, 10.00000000000000178, 3.000000000000000000 ) ) ;
#217 = DIRECTION ( 'NONE',  ( -0.000000000000000000, -0.000000000000000000, 1.000000000000000000 ) ) ;
#218 = CARTESIAN_POINT ( 'NONE',  ( -21.75000000000000000, 10.00000000000000178, -12.00000000000000000 ) ) ;
#219 = DIRECTION ( 'NONE',  ( -1.000000000000000000, 0.000000000000000000, 0.000000000000000000 ) ) ;
#220 = CARTESIAN_POINT ( 'NONE',  ( 24.74999999999999289, 10.00000000000000178, -12.00000000000000000 ) ) ;
#221 = LINE ( 'NONE', #727, #57 ) ;
#222 = EDGE_CURVE ( 'NONE', #252, #533, #468, .T. ) ;
#223 = VECTOR ( 'NONE', #135, 1000.000000000000000 ) ;
#224 = VERTEX_POINT ( 'NONE', #545 ) ;
#225 = AXIS2_PLACEMENT_3D ( 'NONE', #791, #722, #141 ) ;
#226 = FACE_OUTER_BOUND ( 'NONE', #323, .T. ) ;
#227 = DIRECTION ( 'NONE',  ( -1.000000000000000000, 0.000000000000000000, -0.000000000000000000 ) ) ;
#228 = EDGE_LOOP ( 'NONE', ( #885, #749, #307, #417 ) ) ;
#229 = APPROVAL_ROLE ( '' ) ;
#230 = EDGE_LOOP ( 'NONE', ( #628, #817, #614, #541 ) ) ;
#231 = LINE ( 'NONE', #151, #388 ) ;
#232 = CARTESIAN_POINT ( 'NONE',  ( -24.74999999999999645, 10.00000000000000178, 0.000000000000000000 ) ) ;
#233 = ORIENTED_EDGE ( 'NONE', *, *, #874, .T. ) ;
#234 = DATE_AND_TIME ( #374, #575 ) ;
#235 = CARTESIAN_POINT ( 'NONE',  ( -42.50000000000002842, 10.00000000000000178, 3.000000000000000000 ) ) ;
#236 = EDGE_CURVE ( 'NONE', #611, #110, #271, .T. ) ;
#237 = EDGE_LOOP ( 'NONE', ( #529, #787, #449, #75 ) ) ;
#238 = ORIENTED_EDGE ( 'NONE', *, *, #55, .F. ) ;
#239 = AXIS2_PLACEMENT_3D ( 'NONE', #211, #205, #497 ) ;
#240 = FACE_BOUND ( 'NONE', #473, .T. ) ;
#241 = AXIS2_PLACEMENT_3D ( 'NONE', #895, #827, #87 ) ;
#242 = ORIENTED_EDGE ( 'NONE', *, *, #297, .T. ) ;
#243 = DIRECTION ( 'NONE',  ( 0.000000000000000000, 0.000000000000000000, -1.000000000000000000 ) ) ;
#244 = APPLICATION_CONTEXT ( 'configuration controlled 3d designs of mechanical parts and assemblies' ) ;
#245 = EDGE_CURVE ( 'NONE', #336, #546, #778, .T. ) ;
#246 = ORIENTED_EDGE ( 'NONE', *, *, #448, .T. ) ;
#247 = DATE_AND_TIME ( #810, #508 ) ;
#248 = ORIENTED_EDGE ( 'NONE', *, *, #678, .F. ) ;
#249 = CARTESIAN_POINT ( 'NONE',  ( 33.98064815862642263, 0.03099254336257767362, 3.000000000000000000 ) ) ;
#250 = CARTESIAN_POINT ( 'NONE',  ( 21.74999999999999645, 0.000000000000000000, -12.00000000000000000 ) ) ;
#251 = ORIENTED_EDGE ( 'NONE', *, *, #55, .T. ) ;
#252 = VERTEX_POINT ( 'NONE', #896 ) ;
#253 = CIRCLE ( 'NONE', #557, 2.999999999999999112 ) ;
#254 = LINE ( 'NONE', #395, #883 ) ;
#255 = AXIS2_PLACEMENT_3D ( 'NONE', #67, #789, #717 ) ;
#256 = VECTOR ( 'NONE', #479, 1000.000000000000000 ) ;
#257 = ORIENTED_EDGE ( 'NONE', *, *, #519, .F. ) ;
#258 = EDGE_CURVE ( 'NONE', #860, #314, #399, .T. ) ;
#259 = ORIENTED_EDGE ( 'NONE', *, *, #571, .T. ) ;
#260 = DIRECTION ( 'NONE',  ( 0.000000000000000000, 0.000000000000000000, -1.000000000000000000 ) ) ;
#261 = EDGE_CURVE ( 'NONE', #554, #314, #23, .T. ) ;
#262 = CARTESIAN_POINT ( 'NONE',  ( 21.74999999999999645, 0.000000000000000000, -12.00000000000000000 ) ) ;
#263 = VERTEX_POINT ( 'NONE', #753 ) ;
#264 = ORIENTED_EDGE ( 'NONE', *, *, #925, .T. ) ;
#265 = CYLINDRICAL_SURFACE ( 'NONE', #660, 3.100000000000000089 ) ;
#266 = CARTESIAN_POINT ( 'NONE',  ( -42.50000000000002842, -9.999999999999998224, 3.000000000000000000 ) ) ;
#267 = ORIENTED_EDGE ( 'NONE', *, *, #108, .T. ) ;
#268 = VERTEX_POINT ( 'NONE', #232 ) ;
#269 = DIRECTION ( 'NONE',  ( 0.000000000000000000, 1.000000000000000000, 0.000000000000000000 ) ) ;
#270 = DIRECTION ( 'NONE',  ( -0.000000000000000000, -1.000000000000000000, -0.000000000000000000 ) ) ;
#271 = CIRCLE ( 'NONE', #386, 1.599999999999990319 ) ;
#272 = EDGE_CURVE ( 'NONE', #533, #263, #322, .T. ) ;
#273 = CIRCLE ( 'NONE', #317, 3.000000000000002665 ) ;
#274 = EDGE_LOOP ( 'NONE', ( #384, #747 ) ) ;
#275 = VECTOR ( 'NONE', #713, 1000.000000000000000 ) ;
#276 = ORIENTED_EDGE ( 'NONE', *, *, #280, .F. ) ;
#277 = LINE ( 'NONE', #351, #214 ) ;
#278 = DIRECTION ( 'NONE',  ( -0.000000000000000000, -0.000000000000000000, 1.000000000000000000 ) ) ;
#279 = DIRECTION ( 'NONE',  ( -1.000000000000000000, -0.000000000000000000, -0.000000000000000000 ) ) ;
#280 = EDGE_CURVE ( 'NONE', #840, #35, #744, .T. ) ;
#281 = DIRECTION ( 'NONE',  ( 0.000000000000000000, 0.000000000000000000, -1.000000000000000000 ) ) ;
#282 = FACE_BOUND ( 'NONE', #478, .T. ) ;
#283 = DIRECTION ( 'NONE',  ( -1.000000000000000000, 0.000000000000000000, 0.000000000000000000 ) ) ;
#284 = CARTESIAN_POINT ( 'NONE',  ( -42.50000000000002842, -6.999999999999998224, 3.000000000000000000 ) ) ;
#285 = FACE_OUTER_BOUND ( 'NONE', #555, .T. ) ;
#286 = CARTESIAN_POINT ( 'NONE',  ( -42.50000000000002842, 7.000000000000002665, 3.000000000000000000 ) ) ;
#287 = AXIS2_PLACEMENT_3D ( 'NONE', #650, #98, #682 ) ;
#288 = APPROVAL_PERSON_ORGANIZATION ( #324, #795, #229 ) ;
#289 = LINE ( 'NONE', #583, #900 ) ;
#290 = DIRECTION ( 'NONE',  ( 0.000000000000000000, 0.000000000000000000, -1.000000000000000000 ) ) ;
#291 = CARTESIAN_POINT ( 'NONE',  ( -21.75000000000000000, -9.999999999999998224, 3.000000000000000000 ) ) ;
#292 = CARTESIAN_POINT ( 'NONE',  ( 21.75000000000000000, 10.00000000000000178, 3.000000000000000000 ) ) ;
#293 = DIRECTION ( 'NONE',  ( 1.000000000000000000, 0.000000000000000000, 0.000000000000000000 ) ) ;
#294 = DIRECTION ( 'NONE',  ( -0.000000000000000000, 1.000000000000000000, -0.000000000000000000 ) ) ;
#295 = CARTESIAN_POINT ( 'NONE',  ( -24.74999999999999645, 0.000000000000000000, -0.000000000000000000 ) ) ;
#296 = DIRECTION ( 'NONE',  ( 0.000000000000000000, 0.000000000000000000, 1.000000000000000000 ) ) ;
#297 = EDGE_CURVE ( 'NONE', #820, #130, #298, .T. ) ;
#298 = LINE ( 'NONE', #798, #635 ) ;
#299 = EDGE_CURVE ( 'NONE', #893, #813, #475, .T. ) ;
#300 = ORIENTED_EDGE ( 'NONE', *, *, #561, .T. ) ;
#301 = DIRECTION ( 'NONE',  ( 0.000000000000000000, 0.000000000000000000, 1.000000000000000000 ) ) ;
#302 = AXIS2_PLACEMENT_3D ( 'NONE', #472, #729, #816 ) ;
#303 = AXIS2_PLACEMENT_3D ( 'NONE', #762, #831, #260 ) ;
#304 = EDGE_LOOP ( 'NONE', ( #369, #849, #684, #407 ) ) ;
#305 = DIRECTION ( 'NONE',  ( 1.000000000000000000, -0.000000000000000000, 0.000000000000000000 ) ) ;
#306 = DIRECTION ( 'NONE',  ( 1.000000000000000000, 0.000000000000000000, 0.000000000000000000 ) ) ;
#307 = ORIENTED_EDGE ( 'NONE', *, *, #728, .T. ) ;
#308 = PERSON_AND_ORGANIZATION_ROLE ( 'design_owner' ) ;
#309 = ORIENTED_EDGE ( 'NONE', *, *, #625, .F. ) ;
#310 = FACE_OUTER_BOUND ( 'NONE', #237, .T. ) ;
#311 = ORIENTED_EDGE ( 'NONE', *, *, #29, .T. ) ;
#312 = APPROVAL_DATE_TIME ( #522, #188 ) ;
#313 = VERTEX_POINT ( 'NONE', #553 ) ;
#314 = VERTEX_POINT ( 'NONE', #832 ) ;
#315 = APPROVAL_DATE_TIME ( #247, #532 ) ;
#316 = AXIS2_PLACEMENT_3D ( 'NONE', #793, #155, #160 ) ;
#317 = AXIS2_PLACEMENT_3D ( 'NONE', #509, #501, #777 ) ;
#318 = EDGE_CURVE ( 'NONE', #122, #344, #419, .T. ) ;
#319 = ORIENTED_EDGE ( 'NONE', *, *, #708, .T. ) ;
#320 = VERTEX_POINT ( 'NONE', #404 ) ;
#321 = DIRECTION ( 'NONE',  ( 0.000000000000000000, -1.000000000000000000, 0.000000000000000000 ) ) ;
#322 = LINE ( 'NONE', #822, #523 ) ;
#323 = EDGE_LOOP ( 'NONE', ( #329, #679, #739, #835 ) ) ;
#324 = PERSON_AND_ORGANIZATION ( #442, #89 ) ;
#325 = ORIENTED_EDGE ( 'NONE', *, *, #328, .T. ) ;
#326 = PLANE ( 'NONE',  #845 ) ;
#327 = CARTESIAN_POINT ( 'NONE',  ( -21.75000000000000000, 0.000000000000000000, -12.00000000000000000 ) ) ;
#328 = EDGE_CURVE ( 'NONE', #320, #263, #707, .T. ) ;
#329 = ORIENTED_EDGE ( 'NONE', *, *, #666, .T. ) ;
#330 = EDGE_CURVE ( 'NONE', #373, #882, #710, .T. ) ;
#331 = ORIENTED_EDGE ( 'NONE', *, *, #40, .F. ) ;
#332 = PLANE ( 'NONE',  #167 ) ;
#333 = DIRECTION ( 'NONE',  ( -0.000000000000000000, -0.000000000000000000, 1.000000000000000000 ) ) ;
#334 = CIRCLE ( 'NONE', #88, 3.000000000000002665 ) ;
#335 = ORIENTED_EDGE ( 'NONE', *, *, #177, .F. ) ;
#336 = VERTEX_POINT ( 'NONE', #116 ) ;
#337 = FACE_BOUND ( 'NONE', #392, .T. ) ;
#338 = CARTESIAN_POINT ( 'NONE',  ( 0.000000000000000000, 0.000000000000000000, 3.000000000000000000 ) ) ;
#339 = VERTEX_POINT ( 'NONE', #124 ) ;
#340 = ORIENTED_EDGE ( 'NONE', *, *, #43, .T. ) ;
#341 = FACE_OUTER_BOUND ( 'NONE', #842, .T. ) ;
#342 = CC_DESIGN_PERSON_AND_ORGANIZATION_ASSIGNMENT ( #92, #308, ( #79 ) ) ;
#343 = FACE_OUTER_BOUND ( 'NONE', #165, .T. ) ;
#344 = VERTEX_POINT ( 'NONE', #548 ) ;
#345 = ORIENTED_EDGE ( 'NONE', *, *, #162, .T. ) ;
#346 = DIRECTION ( 'NONE',  ( -0.000000000000000000, -0.000000000000000000, 1.000000000000000000 ) ) ;
#347 = CARTESIAN_POINT ( 'NONE',  ( -21.75000000000000000, 0.000000000000000000, -15.00000000000000000 ) ) ;
#348 = VECTOR ( 'NONE', #204, 1000.000000000000000 ) ;
#349 = AXIS2_PLACEMENT_3D ( 'NONE', #454, #243, #174 ) ;
#350 = CYLINDRICAL_SURFACE ( 'NONE', #759, 3.000000000000002665 ) ;
#351 = CARTESIAN_POINT ( 'NONE',  ( 42.49999999999998579, -9.999999999999998224, 0.000000000000000000 ) ) ;
#352 = LINE ( 'NONE', #347, #706 ) ;
#353 = CARTESIAN_POINT ( 'NONE',  ( -39.50000000000002842, 7.000000000000002665, 0.000000000000000000 ) ) ;
#354 = DIRECTION ( 'NONE',  ( -0.000000000000000000, -1.000000000000000000, -0.000000000000000000 ) ) ;
#355 = DIRECTION ( 'NONE',  ( 0.000000000000000000, 0.000000000000000000, -1.000000000000000000 ) ) ;
#356 = DESIGN_CONTEXT ( 'detailed design', #244, 'design' ) ;
#357 = EDGE_CURVE ( 'NONE', #263, #882, #846, .T. ) ;
#358 = PLANE ( 'NONE',  #761 ) ;
#359 = VECTOR ( 'NONE', #872, 1000.000000000000000 ) ;
#360 = DIRECTION ( 'NONE',  ( 0.000000000000000000, 0.000000000000000000, -1.000000000000000000 ) ) ;
#361 = PRODUCT_DEFINITION_FORMATION_WITH_SPECIFIED_SOURCE ( 'ANY', '', #79, .NOT_KNOWN. ) ;
#362 = LINE ( 'NONE', #284, #375 ) ;
#363 = CYLINDRICAL_SURFACE ( 'NONE', #287, 1.600000000000000755 ) ;
#364 = DIRECTION ( 'NONE',  ( 0.000000000000000000, 0.000000000000000000, -1.000000000000000000 ) ) ;
#365 = VERTEX_POINT ( 'NONE', #59 ) ;
#366 = FACE_BOUND ( 'NONE', #387, .T. ) ;
#367 = PRODUCT_RELATED_PRODUCT_CATEGORY ( 'detail', '', ( #79 ) ) ;
#368 = DIRECTION ( 'NONE',  ( 1.000000000000000000, -0.000000000000000000, -0.000000000000000000 ) ) ;
#369 = ORIENTED_EDGE ( 'NONE', *, *, #540, .F. ) ;
#370 = DIRECTION ( 'NONE',  ( -1.000000000000000000, 0.000000000000000000, 0.000000000000000000 ) ) ;
#371 = EDGE_CURVE ( 'NONE', #176, #80, #908, .T. ) ;
#372 = AXIS2_PLACEMENT_3D ( 'NONE', #30, #156, #725 ) ;
#373 = VERTEX_POINT ( 'NONE', #692 ) ;
#374 = CALENDAR_DATE ( 2025, 5, 10 ) ;
#375 = VECTOR ( 'NONE', #649, 1000.000000000000000 ) ;
#376 = LINE ( 'NONE', #106, #452 ) ;
#377 = ORIENTED_EDGE ( 'NONE', *, *, #330, .T. ) ;
#378 = APPROVAL_STATUS ( 'not_yet_approved' ) ;
#379 = LINE ( 'NONE', #383, #871 ) ;
#380 = ORIENTED_EDGE ( 'NONE', *, *, #382, .T. ) ;
#381 = COORDINATED_UNIVERSAL_TIME_OFFSET ( 7, 0, .AHEAD. ) ;
#382 = EDGE_CURVE ( 'NONE', #320, #252, #630, .T. ) ;
#383 = CARTESIAN_POINT ( 'NONE',  ( -42.50000000000002842, 10.00000000000000178, 0.000000000000000000 ) ) ;
#384 = ORIENTED_EDGE ( 'NONE', *, *, #261, .F. ) ;
#385 = COORDINATED_UNIVERSAL_TIME_OFFSET ( 7, 0, .AHEAD. ) ;
#386 = AXIS2_PLACEMENT_3D ( 'NONE', #440, #877, #537 ) ;
#387 = EDGE_LOOP ( 'NONE', ( #890, #802 ) ) ;
#388 = VECTOR ( 'NONE', #514, 1000.000000000000000 ) ;
#389 = CARTESIAN_POINT ( 'NONE',  ( -34.21935184137377206, 0.03099254336252929912, 3.000000000000000000 ) ) ;
#390 = SECURITY_CLASSIFICATION ( '', '', #20 ) ;
#391 = DIRECTION ( 'NONE',  ( 0.000000000000000000, 1.000000000000000000, 0.000000000000000000 ) ) ;
#392 = EDGE_LOOP ( 'NONE', ( #627, #875 ) ) ;
#393 = CALENDAR_DATE ( 2025, 5, 10 ) ;
#394 = ORIENTED_EDGE ( 'NONE', *, *, #438, .T. ) ;
#395 = CARTESIAN_POINT ( 'NONE',  ( -42.50000000000002842, -9.999999999999998224, 0.000000000000000000 ) ) ;
#396 = ORIENTED_EDGE ( 'NONE', *, *, #700, .T. ) ;
#397 = ORIENTED_EDGE ( 'NONE', *, *, #754, .T. ) ;
#398 = DIRECTION ( 'NONE',  ( 0.000000000000000000, 0.000000000000000000, -1.000000000000000000 ) ) ;
#399 = LINE ( 'NONE', #828, #405 ) ;
#400 = EDGE_CURVE ( 'NONE', #202, #860, #180, .T. ) ;
#401 = CYLINDRICAL_SURFACE ( 'NONE', #841, 3.100000000000000089 ) ;
#402 = DIRECTION ( 'NONE',  ( 0.000000000000000000, 0.000000000000000000, -1.000000000000000000 ) ) ;
#403 = CIRCLE ( 'NONE', #480, 3.000000000000002665 ) ;
#404 = CARTESIAN_POINT ( 'NONE',  ( 21.74999999999999645, -9.999999999999998224, -12.00000000000000000 ) ) ;
#405 = VECTOR ( 'NONE', #185, 1000.000000000000000 ) ;
#406 = VECTOR ( 'NONE', #115, 1000.000000000000000 ) ;
#407 = ORIENTED_EDGE ( 'NONE', *, *, #408, .F. ) ;
#408 = EDGE_CURVE ( 'NONE', #521, #168, #352, .T. ) ;
#409 = VERTEX_POINT ( 'NONE', #558 ) ;
#410 = CYLINDRICAL_SURFACE ( 'NONE', #58, 1.599999999999990319 ) ;
#411 = CARTESIAN_POINT ( 'NONE',  ( 42.49999999999998579, -6.999999999999998224, 3.000000000000000000 ) ) ;
#412 = ORIENTED_EDGE ( 'NONE', *, *, #494, .F. ) ;
#413 = ORIENTED_EDGE ( 'NONE', *, *, #208, .F. ) ;
#414 = LINE ( 'NONE', #902, #256 ) ;
#415 = DIRECTION ( 'NONE',  ( 0.000000000000000000, -0.000000000000000000, 1.000000000000000000 ) ) ;
#416 = CARTESIAN_POINT ( 'NONE',  ( -42.50000000000002842, 7.000000000000002665, 3.000000000000000000 ) ) ;
#417 = ORIENTED_EDGE ( 'NONE', *, *, #476, .T. ) ;
#418 = CARTESIAN_POINT ( 'NONE',  ( -21.75000000000000000, 10.00000000000000178, -12.00000000000000000 ) ) ;
#419 = LINE ( 'NONE', #266, #733 ) ;
#420 = ADVANCED_FACE ( 'NONE', ( #282, #343 ), #189, .F. ) ;
#421 = VECTOR ( 'NONE', #278, 1000.000000000000000 ) ;
#422 = CIRCLE ( 'NONE', #102, 3.100000000000000089 ) ;
#423 = DIRECTION ( 'NONE',  ( -1.000000000000000000, 0.000000000000000000, 0.000000000000000000 ) ) ;
#424 = ORIENTED_EDGE ( 'NONE', *, *, #297, .F. ) ;
#425 = MECHANICAL_CONTEXT ( 'NONE', #687, 'mechanical' ) ;
#426 = CARTESIAN_POINT ( 'NONE',  ( 39.49999999999998579, -6.999999999999998224, 3.000000000000000000 ) ) ;
#427 = EDGE_CURVE ( 'NONE', #80, #563, #334, .T. ) ;
#428 = ADVANCED_FACE ( 'NONE', ( #640 ), #490, .F. ) ;
#429 = CARTESIAN_POINT ( 'NONE',  ( 0.000000000000000000, 0.000000000000000000, -15.00000000000000000 ) ) ;
#430 = DIRECTION ( 'NONE',  ( 1.000000000000000000, 0.000000000000000000, 0.000000000000000000 ) ) ;
#431 = FACE_BOUND ( 'NONE', #274, .T. ) ;
#432 = DIRECTION ( 'NONE',  ( -0.000000000000000000, -0.000000000000000000, 1.000000000000000000 ) ) ;
#433 = AXIS2_PLACEMENT_3D ( 'NONE', #928, #355, #423 ) ;
#434 = FACE_OUTER_BOUND ( 'NONE', #665, .T. ) ;
#435 = AXIS2_PLACEMENT_3D ( 'NONE', #696, #45, #209 ) ;
#436 = EDGE_CURVE ( 'NONE', #202, #554, #133, .T. ) ;
#437 = VECTOR ( 'NONE', #879, 1000.000000000000000 ) ;
#438 = EDGE_CURVE ( 'NONE', #804, #268, #919, .T. ) ;
#439 = CYLINDRICAL_SURFACE ( 'NONE', #574, 1.599999999999990319 ) ;
#440 = CARTESIAN_POINT ( 'NONE',  ( 32.38064815862642831, 0.03099254336257767362, 3.000000000000000000 ) ) ;
#441 = VERTEX_POINT ( 'NONE', #565 ) ;
#442 = PERSON ( 'UNSPECIFIED', 'UNSPECIFIED', 'UNSPECIFIED', ('UNSPECIFIED'), ('UNSPECIFIED'), ('UNSPECIFIED') ) ;
#443 = CARTESIAN_POINT ( 'NONE',  ( -31.01935184137376567, 0.03099254336252910136, 0.000000000000000000 ) ) ;
#444 = DIRECTION ( 'NONE',  ( 1.000000000000000000, 0.000000000000000000, 0.000000000000000000 ) ) ;
#445 = ORIENTED_EDGE ( 'NONE', *, *, #90, .T. ) ;
#446 = ORIENTED_EDGE ( 'NONE', *, *, #867, .T. ) ;
#447 = DIRECTION ( 'NONE',  ( 0.000000000000000000, 0.000000000000000000, -1.000000000000000000 ) ) ;
#448 = EDGE_CURVE ( 'NONE', #656, #681, #843, .T. ) ;
#449 = ORIENTED_EDGE ( 'NONE', *, *, #43, .F. ) ;
#450 = PERSON_AND_ORGANIZATION_ROLE ( 'classification_officer' ) ;
#451 = VECTOR ( 'NONE', #293, 1000.000000000000000 ) ;
#452 = VECTOR ( 'NONE', #321, 1000.000000000000000 ) ;
#453 = ORIENTED_EDGE ( 'NONE', *, *, #702, .F. ) ;
#454 = CARTESIAN_POINT ( 'NONE',  ( -39.50000000000002842, 7.000000000000002665, 3.000000000000000000 ) ) ;
#455 = ADVANCED_FACE ( 'NONE', ( #854 ), #137, .T. ) ;
#456 = ORIENTED_EDGE ( 'NONE', *, *, #874, .F. ) ;
#457 = PERSON_AND_ORGANIZATION ( #442, #89 ) ;
#458 = FACE_OUTER_BOUND ( 'NONE', #25, .T. ) ;
#459 = VERTEX_POINT ( 'NONE', #146 ) ;
#460 = LINE ( 'NONE', #93, #152 ) ;
#461 = DIRECTION ( 'NONE',  ( -1.000000000000000000, -0.000000000000000000, -0.000000000000000000 ) ) ;
#462 = EDGE_LOOP ( 'NONE', ( #492, #397, #19, #741 ) ) ;
#463 = VECTOR ( 'NONE', #924, 1000.000000000000000 ) ;
#464 = ORIENTED_EDGE ( 'NONE', *, *, #476, .F. ) ;
#465 = AXIS2_PLACEMENT_3D ( 'NONE', #63, #354, #296 ) ;
#466 = CYLINDRICAL_SURFACE ( 'NONE', #241, 1.600000000000000755 ) ;
#467 = CIRCLE ( 'NONE', #120, 1.599999999999990319 ) ;
#468 = LINE ( 'NONE', #327, #148 ) ;
#469 = ORIENTED_EDGE ( 'NONE', *, *, #171, .F. ) ;
#470 = ORIENTED_EDGE ( 'NONE', *, *, #143, .T. ) ;
#471 = DIRECTION ( 'NONE',  ( 0.000000000000000000, 1.000000000000000000, 0.000000000000000000 ) ) ;
#472 = CARTESIAN_POINT ( 'NONE',  ( 0.000000000000000000, 0.000000000000000000, -15.00000000000000000 ) ) ;
#473 = EDGE_LOOP ( 'NONE', ( #47, #796 ) ) ;
#474 = FACE_OUTER_BOUND ( 'NONE', #606, .T. ) ;
#475 = LINE ( 'NONE', #485, #495 ) ;
#476 = EDGE_CURVE ( 'NONE', #224, #313, #510, .T. ) ;
#477 = ORIENTED_EDGE ( 'NONE', *, *, #400, .F. ) ;
#478 = EDGE_LOOP ( 'NONE', ( #878, #13 ) ) ;
#479 = DIRECTION ( 'NONE',  ( -0.000000000000000000, -1.000000000000000000, -0.000000000000000000 ) ) ;
#480 = AXIS2_PLACEMENT_3D ( 'NONE', #712, #364, #491 ) ;
#481 = DIRECTION ( 'NONE',  ( -1.000000000000000000, 0.000000000000000000, -0.000000000000000000 ) ) ;
#482 = LOCAL_TIME ( 19, 46, 47.00000000000000000, #742 ) ;
#483 = CARTESIAN_POINT ( 'NONE',  ( -39.50000000000002842, -6.999999999999998224, 3.000000000000000000 ) ) ;
#484 = EDGE_LOOP ( 'NONE', ( #248, #464, #929, #909 ) ) ;
#485 = CARTESIAN_POINT ( 'NONE',  ( 24.74999999999999289, 10.00000000000000178, -12.00000000000000000 ) ) ;
#486 = DIRECTION ( 'NONE',  ( 0.000000000000000000, 0.000000000000000000, -1.000000000000000000 ) ) ;
#487 = EDGE_CURVE ( 'NONE', #409, #35, #876, .T. ) ;
#488 = ORIENTED_EDGE ( 'NONE', *, *, #806, .F. ) ;
#489 = DIRECTION ( 'NONE',  ( -1.000000000000000000, 0.000000000000000000, 0.000000000000000000 ) ) ;
#490 = PLANE ( 'NONE',  #150 ) ;
#491 = DIRECTION ( 'NONE',  ( -1.000000000000000000, 0.000000000000000000, 0.000000000000000000 ) ) ;
#492 = ORIENTED_EDGE ( 'NONE', *, *, #773, .T. ) ;
#493 = DIRECTION ( 'NONE',  ( 0.000000000000000000, 0.000000000000000000, 1.000000000000000000 ) ) ;
#494 = EDGE_CURVE ( 'NONE', #339, #176, #194, .T. ) ;
#495 = VECTOR ( 'NONE', #333, 1000.000000000000000 ) ;
#496 = AXIS2_PLACEMENT_3D ( 'NONE', #10, #301, #136 ) ;
#497 = DIRECTION ( 'NONE',  ( -1.000000000000000000, 0.000000000000000000, 0.000000000000000000 ) ) ;
#498 = CARTESIAN_POINT ( 'NONE',  ( 39.49999999999998579, -6.999999999999998224, 3.000000000000000000 ) ) ;
#499 = PLANE ( 'NONE',  #210 ) ;
#500 = EDGE_LOOP ( 'NONE', ( #776, #259, #910, #456 ) ) ;
#501 = DIRECTION ( 'NONE',  ( 0.000000000000000000, 0.000000000000000000, -1.000000000000000000 ) ) ;
#502 = DIRECTION ( 'NONE',  ( -0.000000000000000000, -0.000000000000000000, 1.000000000000000000 ) ) ;
#503 = ADVANCED_FACE ( 'NONE', ( #366, #645 ), #801, .F. ) ;
#504 = DIRECTION ( 'NONE',  ( -1.000000000000000000, 0.000000000000000000, 0.000000000000000000 ) ) ;
#505 = DIRECTION ( 'NONE',  ( 1.000000000000000000, 0.000000000000000000, 0.000000000000000000 ) ) ;
#506 = CARTESIAN_POINT ( 'NONE',  ( 33.98064815862642263, 0.03099254336257767362, 0.000000000000000000 ) ) ;
#507 = LINE ( 'NONE', #891, #718 ) ;
#508 = LOCAL_TIME ( 19, 46, 47.00000000000000000, #16 ) ;
#509 = CARTESIAN_POINT ( 'NONE',  ( 39.49999999999998579, 7.000000000000001776, 0.000000000000000000 ) ) ;
#510 = LINE ( 'NONE', #870, #212 ) ;
#511 = DIRECTION ( 'NONE',  ( 0.000000000000000000, 0.000000000000000000, 1.000000000000000000 ) ) ;
#512 = VERTEX_POINT ( 'NONE', #443 ) ;
#513 = APPROVAL_DATE_TIME ( #234, #795 ) ;
#514 = DIRECTION ( 'NONE',  ( -0.000000000000000000, -0.000000000000000000, 1.000000000000000000 ) ) ;
#515 = ORIENTED_EDGE ( 'NONE', *, *, #61, .F. ) ;
#516 = APPROVAL_STATUS ( 'not_yet_approved' ) ;
#517 = ORIENTED_EDGE ( 'NONE', *, *, #261, .T. ) ;
#518 = CARTESIAN_POINT ( 'NONE',  ( 0.000000000000000000, 0.000000000000000000, -12.00000000000000000 ) ) ;
#519 = EDGE_CURVE ( 'NONE', #336, #110, #231, .T. ) ;
#520 = CIRCLE ( 'NONE', #433, 3.100000000000000089 ) ;
#521 = VERTEX_POINT ( 'NONE', #642 ) ;
#522 = DATE_AND_TIME ( #164, #647 ) ;
#523 = VECTOR ( 'NONE', #368, 1000.000000000000000 ) ;
#524 = AXIS2_PLACEMENT_3D ( 'NONE', #203, #402, #489 ) ;
#525 = ORIENTED_EDGE ( 'NONE', *, *, #299, .F. ) ;
#526 = CARTESIAN_POINT ( 'NONE',  ( 21.74999999999999645, -9.999999999999998224, -12.00000000000000000 ) ) ;
#527 = EDGE_LOOP ( 'NONE', ( #868, #622, #331, #588 ) ) ;
#528 = APPLICATION_PROTOCOL_DEFINITION ( 'international standard', 'config_control_design', 1994, #244 ) ;
#529 = ORIENTED_EDGE ( 'NONE', *, *, #14, .F. ) ;
#530 = DIRECTION ( 'NONE',  ( 0.000000000000000000, 0.000000000000000000, -1.000000000000000000 ) ) ;
#531 = CARTESIAN_POINT ( 'NONE',  ( 42.49999999999998579, -6.999999999999998224, 3.000000000000000000 ) ) ;
#532 = APPROVAL ( #378, 'UNSPECIFIED' ) ;
#533 = VERTEX_POINT ( 'NONE', #218 ) ;
#534 = ADVANCED_FACE ( 'NONE', ( #724 ), #584, .T. ) ;
#535 = ORIENTED_EDGE ( 'NONE', *, *, #561, .F. ) ;
#536 = DIRECTION ( 'NONE',  ( -1.000000000000000000, 0.000000000000000000, -0.000000000000000000 ) ) ;
#537 = DIRECTION ( 'NONE',  ( 1.000000000000000000, 0.000000000000000000, 0.000000000000000000 ) ) ;
#538 = EDGE_LOOP ( 'NONE', ( #276, #669, #905, #267, #127, #163, #251, #916, #750, #380, #159, #424, #894, #36 ) ) ;
#539 = CIRCLE ( 'NONE', #99, 2.999999999999999112 ) ;
#540 = EDGE_CURVE ( 'NONE', #840, #521, #149, .T. ) ;
#541 = ORIENTED_EDGE ( 'NONE', *, *, #702, .T. ) ;
#542 = VECTOR ( 'NONE', #657, 1000.000000000000000 ) ;
#543 = LINE ( 'NONE', #526, #746 ) ;
#544 = CIRCLE ( 'NONE', #225, 1.599999999999990319 ) ;
#545 = CARTESIAN_POINT ( 'NONE',  ( 42.49999999999998579, 7.000000000000002665, 0.000000000000000000 ) ) ;
#546 = VERTEX_POINT ( 'NONE', #506 ) ;
#547 = DIRECTION ( 'NONE',  ( 1.000000000000000000, -0.000000000000000000, -0.000000000000000000 ) ) ;
#548 = CARTESIAN_POINT ( 'NONE',  ( -42.50000000000002842, -6.999999999999998224, 3.000000000000000000 ) ) ;
#549 = ADVANCED_FACE ( 'NONE', ( #578 ), #358, .T. ) ;
#550 = ORIENTED_EDGE ( 'NONE', *, *, #258, .T. ) ;
#551 = ORIENTED_EDGE ( 'NONE', *, *, #858, .T. ) ;
#552 = CARTESIAN_POINT ( 'NONE',  ( 24.74999999999999289, 10.00000000000000178, -15.00000000000000000 ) ) ;
#553 = CARTESIAN_POINT ( 'NONE',  ( 42.49999999999998579, 7.000000000000002665, 3.000000000000000000 ) ) ;
#554 = VERTEX_POINT ( 'NONE', #582 ) ;
#555 = EDGE_LOOP ( 'NONE', ( #257, #32, #623, #735 ) ) ;
#556 = CARTESIAN_POINT ( 'NONE',  ( -21.75000000000000000, 10.00000000000000178, 3.000000000000000000 ) ) ;
#557 = AXIS2_PLACEMENT_3D ( 'NONE', #12, #175, #83 ) ;
#558 = CARTESIAN_POINT ( 'NONE',  ( -39.50000000000002842, -9.999999999999998224, 0.000000000000000000 ) ) ;
#559 = VECTOR ( 'NONE', #764, 1000.000000000000000 ) ;
#560 = VECTOR ( 'NONE', #653, 1000.000000000000000 ) ;
#561 = EDGE_CURVE ( 'NONE', #661, #694, #221, .T. ) ;
#562 = ORIENTED_EDGE ( 'NONE', *, *, #49, .T. ) ;
#563 = VERTEX_POINT ( 'NONE', #590 ) ;
#564 = CARTESIAN_POINT ( 'NONE',  ( 39.49999999999998579, 10.00000000000000178, 0.000000000000000000 ) ) ;
#565 = CARTESIAN_POINT ( 'NONE',  ( 24.74999999999999289, -9.999999999999998224, -12.00000000000000000 ) ) ;
#566 = DIRECTION ( 'NONE',  ( 0.000000000000000000, 0.000000000000000000, -1.000000000000000000 ) ) ;
#567 = DIRECTION ( 'NONE',  ( 1.000000000000000000, 0.000000000000000000, 0.000000000000000000 ) ) ;
#568 = CARTESIAN_POINT ( 'NONE',  ( 39.49999999999998579, -6.999999999999998224, 0.000000000000000000 ) ) ;
#569 = CARTESIAN_POINT ( 'NONE',  ( 42.49999999999998579, -9.999999999999998224, 3.000000000000000000 ) ) ;
#570 = CARTESIAN_POINT ( 'NONE',  ( 21.75000000000000000, -9.999999999999998224, 3.000000000000000000 ) ) ;
#571 = EDGE_CURVE ( 'NONE', #804, #840, #6, .T. ) ;
#572 = FACE_BOUND ( 'NONE', #15, .T. ) ;
#573 = CLOSED_SHELL ( 'NONE', ( #610, #785, #7, #420, #838, #615, #65, #655, #766, #428, #503, #839, #549, #161, #579, #595, #60, #732, #586, #688, #848, #201, #455, #534, #132, #711 ) ) ;
#574 = AXIS2_PLACEMENT_3D ( 'NONE', #862, #502, #430 ) ;
#575 = LOCAL_TIME ( 19, 46, 47.00000000000000000, #594 ) ;
#576 = LINE ( 'NONE', #859, #21 ) ;
#577 = DIRECTION ( 'NONE',  ( -0.000000000000000000, -0.000000000000000000, 1.000000000000000000 ) ) ;
#578 = FACE_OUTER_BOUND ( 'NONE', #462, .T. ) ;
#579 = ADVANCED_FACE ( 'NONE', ( #226 ), #11, .F. ) ;
#580 = FACE_OUTER_BOUND ( 'NONE', #527, .T. ) ;
#581 =( NAMED_UNIT ( * ) SI_UNIT ( $, .STERADIAN. ) SOLID_ANGLE_UNIT ( ) );
#582 = CARTESIAN_POINT ( 'NONE',  ( -3.100000000000000089, 0.000000000000000000, -15.00000000000000000 ) ) ;
#583 = CARTESIAN_POINT ( 'NONE',  ( -31.01935184137376567, 0.03099254336252910136, -15.00000000000000000 ) ) ;
#584 = CYLINDRICAL_SURFACE ( 'NONE', #719, 3.000000000000002665 ) ;
#585 = AXIS2_PLACEMENT_3D ( 'NONE', #498, #797, #370 ) ;
#586 = ADVANCED_FACE ( 'NONE', ( #285 ), #439, .F. ) ;
#587 = LOCAL_TIME ( 19, 46, 47.00000000000000000, #381 ) ;
#588 = ORIENTED_EDGE ( 'NONE', *, *, #833, .F. ) ;
#589 = ORIENTED_EDGE ( 'NONE', *, *, #436, .T. ) ;
#590 = CARTESIAN_POINT ( 'NONE',  ( 39.49999999999998579, -9.999999999999998224, 0.000000000000000000 ) ) ;
#591 = CYLINDRICAL_SURFACE ( 'NONE', #22, 2.999999999999999112 ) ;
#592 = CC_DESIGN_PERSON_AND_ORGANIZATION_ASSIGNMENT ( #680, #800, ( #752 ) ) ;
#593 = ORIENTED_EDGE ( 'NONE', *, *, #812, .T. ) ;
#594 = COORDINATED_UNIVERSAL_TIME_OFFSET ( 7, 0, .AHEAD. ) ;
#595 = ADVANCED_FACE ( 'NONE', ( #572, #857 ), #714, .F. ) ;
#596 = ORIENTED_EDGE ( 'NONE', *, *, #436, .F. ) ;
#597 = CARTESIAN_POINT ( 'NONE',  ( 0.000000000000000000, 0.000000000000000000, 0.000000000000000000 ) ) ;
#598 = ORIENTED_EDGE ( 'NONE', *, *, #494, .T. ) ;
#599 = EDGE_LOOP ( 'NONE', ( #488, #140, #394, #345, #799, #31, #631, #758, #119, #125, #551, #319, #525, #213 ) ) ;
#600 = DIRECTION ( 'NONE',  ( 0.000000000000000000, -0.000000000000000000, -1.000000000000000000 ) ) ;
#601 = VECTOR ( 'NONE', #183, 1000.000000000000000 ) ;
#602 = ORIENTED_EDGE ( 'NONE', *, *, #806, .T. ) ;
#603 = CIRCLE ( 'NONE', #780, 1.600000000000000755 ) ;
#604 = ORIENTED_EDGE ( 'NONE', *, *, #920, .T. ) ;
#605 = CARTESIAN_POINT ( 'NONE',  ( 21.74999999999999645, 10.00000000000000178, -15.00000000000000000 ) ) ;
#606 = EDGE_LOOP ( 'NONE', ( #612, #51, #94, #340, #172, #233 ) ) ;
#607 = APPROVAL_ROLE ( '' ) ;
#608 = DIRECTION ( 'NONE',  ( -1.000000000000000000, 0.000000000000000000, 0.000000000000000000 ) ) ;
#609 = PLANE ( 'NONE',  #869 ) ;
#610 = ADVANCED_FACE ( 'NONE', ( #71 ), #363, .F. ) ;
#611 = VERTEX_POINT ( 'NONE', #249 ) ;
#612 = ORIENTED_EDGE ( 'NONE', *, *, #487, .F. ) ;
#613 = DIRECTION ( 'NONE',  ( 0.000000000000000000, 1.000000000000000000, 0.000000000000000000 ) ) ;
#614 = ORIENTED_EDGE ( 'NONE', *, *, #299, .T. ) ;
#615 = ADVANCED_FACE ( 'NONE', ( #240, #738 ), #731, .T. ) ;
#616 = AXIS2_PLACEMENT_3D ( 'NONE', #483, #686, #847 ) ;
#617 = EDGE_LOOP ( 'NONE', ( #413, #335, #880, #535 ) ) ;
#618 = AXIS2_PLACEMENT_3D ( 'NONE', #426, #903, #76 ) ;
#619 = PLANE ( 'NONE',  #884 ) ;
#620 = CC_DESIGN_APPROVAL ( #795, ( #752 ) ) ;
#621 = CARTESIAN_POINT ( 'NONE',  ( -3.100000000000000089, 0.000000000000000000, 2.999999999999999112 ) ) ;
#622 = ORIENTED_EDGE ( 'NONE', *, *, #920, .F. ) ;
#623 = ORIENTED_EDGE ( 'NONE', *, *, #625, .T. ) ;
#624 = CYLINDRICAL_SURFACE ( 'NONE', #24, 2.999999999999999112 ) ;
#625 = EDGE_CURVE ( 'NONE', #546, #611, #815, .T. ) ;
#626 = CARTESIAN_POINT ( 'NONE',  ( 24.74999999999999289, -9.999999999999998224, -12.00000000000000000 ) ) ;
#627 = ORIENTED_EDGE ( 'NONE', *, *, #812, .F. ) ;
#628 = ORIENTED_EDGE ( 'NONE', *, *, #888, .F. ) ;
#629 = LINE ( 'NONE', #418, #406 ) ;
#630 = LINE ( 'NONE', #626, #559 ) ;
#631 = ORIENTED_EDGE ( 'NONE', *, *, #773, .F. ) ;
#632 = ORIENTED_EDGE ( 'NONE', *, *, #69, .T. ) ;
#633 = CARTESIAN_POINT ( 'NONE',  ( 0.000000000000000000, 0.000000000000000000, 0.000000000000000000 ) ) ;
#634 = AXIS2_PLACEMENT_3D ( 'NONE', #5, #294, #715 ) ;
#635 = VECTOR ( 'NONE', #444, 1000.000000000000000 ) ;
#636 = DIRECTION ( 'NONE',  ( -1.000000000000000000, 0.000000000000000000, 0.000000000000000000 ) ) ;
#637 = CC_DESIGN_APPROVAL ( #532, ( #390 ) ) ;
#638 = LINE ( 'NONE', #648, #117 ) ;
#639 = CARTESIAN_POINT ( 'NONE',  ( 0.000000000000000000, 0.000000000000000000, 2.999999999999999112 ) ) ;
#640 = FACE_OUTER_BOUND ( 'NONE', #538, .T. ) ;
#641 = CARTESIAN_POINT ( 'NONE',  ( -34.21935184137377206, 0.03099254336252929912, -15.00000000000000000 ) ) ;
#642 = CARTESIAN_POINT ( 'NONE',  ( -21.75000000000000000, -9.999999999999998224, -15.00000000000000000 ) ) ;
#643 = DIRECTION ( 'NONE',  ( 0.000000000000000000, 0.000000000000000000, 1.000000000000000000 ) ) ;
#644 =( NAMED_UNIT ( * ) PLANE_ANGLE_UNIT ( ) SI_UNIT ( $, .RADIAN. ) );
#645 = FACE_OUTER_BOUND ( 'NONE', #197, .T. ) ;
#646 = CIRCLE ( 'NONE', #239, 1.600000000000004086 ) ;
#647 = LOCAL_TIME ( 19, 46, 47.00000000000000000, #385 ) ;
#648 = CARTESIAN_POINT ( 'NONE',  ( -21.75000000000000000, -9.999999999999998224, -12.00000000000000000 ) ) ;
#649 = DIRECTION ( 'NONE',  ( -0.000000000000000000, -0.000000000000000000, 1.000000000000000000 ) ) ;
#650 = CARTESIAN_POINT ( 'NONE',  ( -32.61935184137377064, 0.03099254336252910136, -15.00000000000000000 ) ) ;
#651 = EDGE_CURVE ( 'NONE', #681, #656, #603, .T. ) ;
#652 = DIRECTION ( 'NONE',  ( -1.000000000000000000, 0.000000000000000000, 0.000000000000000000 ) ) ;
#653 = DIRECTION ( 'NONE',  ( 0.000000000000000000, 0.000000000000000000, -1.000000000000000000 ) ) ;
#654 = DIRECTION ( 'NONE',  ( 1.000000000000000000, -0.000000000000000000, 0.000000000000000000 ) ) ;
#655 = ADVANCED_FACE ( 'NONE', ( #676 ), #326, .F. ) ;
#656 = VERTEX_POINT ( 'NONE', #389 ) ;
#657 = DIRECTION ( 'NONE',  ( -0.000000000000000000, -1.000000000000000000, -0.000000000000000000 ) ) ;
#658 = VECTOR ( 'NONE', #461, 1000.000000000000000 ) ;
#659 = CARTESIAN_POINT ( 'NONE',  ( -21.75000000000000000, 10.00000000000000178, -15.00000000000000000 ) ) ;
#660 = AXIS2_PLACEMENT_3D ( 'NONE', #639, #768, #751 ) ;
#661 = VERTEX_POINT ( 'NONE', #605 ) ;
#662 = PERSON_AND_ORGANIZATION ( #442, #89 ) ;
#663 = DIRECTION ( 'NONE',  ( -1.000000000000000000, -0.000000000000000000, -0.000000000000000000 ) ) ;
#664 = MANIFOLD_SOLID_BREP ( 'Fillet1', #573 ) ;
#665 = EDGE_LOOP ( 'NONE', ( #899, #17, #602, #300 ) ) ;
#666 = EDGE_CURVE ( 'NONE', #320, #889, #543, .T. ) ;
#667 = DATE_AND_TIME ( #393, #587 ) ;
#668 = DIRECTION ( 'NONE',  ( 1.000000000000000000, 0.000000000000000000, 0.000000000000000000 ) ) ;
#669 = ORIENTED_EDGE ( 'NONE', *, *, #540, .T. ) ;
#670 = APPROVAL_ROLE ( '' ) ;
#671 = CC_DESIGN_DATE_AND_TIME_ASSIGNMENT ( #736, #85, ( #752 ) ) ;
#672 = EDGE_LOOP ( 'NONE', ( #84, #477, #589, #517 ) ) ;
#673 = CARTESIAN_POINT ( 'NONE',  ( 33.98064815862642263, 0.03099254336257767362, -15.00000000000000000 ) ) ;
#674 = AXIS2_PLACEMENT_3D ( 'NONE', #429, #56, #283 ) ;
#675 = ORIENTED_EDGE ( 'NONE', *, *, #723, .T. ) ;
#676 = FACE_OUTER_BOUND ( 'NONE', #599, .T. ) ;
#677 = CARTESIAN_POINT ( 'NONE',  ( -3.100000000000000089, 0.000000000000000000, -12.00000000000000000 ) ) ;
#678 = EDGE_CURVE ( 'NONE', #313, #373, #720, .T. ) ;
#679 = ORIENTED_EDGE ( 'NONE', *, *, #49, .F. ) ;
#680 = PERSON_AND_ORGANIZATION ( #442, #89 ) ;
#681 = VERTEX_POINT ( 'NONE', #170 ) ;
#682 = DIRECTION ( 'NONE',  ( 1.000000000000000000, 0.000000000000000000, 0.000000000000000000 ) ) ;
#683 = FACE_OUTER_BOUND ( 'NONE', #617, .T. ) ;
#684 = ORIENTED_EDGE ( 'NONE', *, *, #121, .F. ) ;
#685 = DIRECTION ( 'NONE',  ( -1.000000000000000000, 0.000000000000000000, -0.000000000000000000 ) ) ;
#686 = DIRECTION ( 'NONE',  ( -0.000000000000000000, -0.000000000000000000, 1.000000000000000000 ) ) ;
#687 = APPLICATION_CONTEXT ( 'configuration controlled 3d designs of mechanical parts and assemblies' ) ;
#688 = ADVANCED_FACE ( 'NONE', ( #458 ), #466, .F. ) ;
#689 = AXIS2_PLACEMENT_3D ( 'NONE', #597, #530, #536 ) ;
#690 = DIRECTION ( 'NONE',  ( -0.000000000000000000, 0.000000000000000000, 1.000000000000000000 ) ) ;
#691 =( GEOMETRIC_REPRESENTATION_CONTEXT ( 3 ) GLOBAL_UNCERTAINTY_ASSIGNED_CONTEXT ( ( #18 ) ) GLOBAL_UNIT_ASSIGNED_CONTEXT ( ( #145, #644, #581 ) ) REPRESENTATION_CONTEXT ( 'NONE', 'WORKASPACE' ) );
#692 = CARTESIAN_POINT ( 'NONE',  ( 39.49999999999998579, 10.00000000000000178, 3.000000000000000000 ) ) ;
#693 = ORIENTED_EDGE ( 'NONE', *, *, #14, .T. ) ;
#694 = VERTEX_POINT ( 'NONE', #740 ) ;
#695 = LINE ( 'NONE', #836, #763 ) ;
#696 = CARTESIAN_POINT ( 'NONE',  ( 0.000000000000000000, 0.000000000000000000, -12.00000000000000000 ) ) ;
#697 = ORIENTED_EDGE ( 'NONE', *, *, #222, .F. ) ;
#698 = ORIENTED_EDGE ( 'NONE', *, *, #926, .T. ) ;
#699 = PLANE ( 'NONE',  #303 ) ;
#700 = EDGE_CURVE ( 'NONE', #860, #202, #422, .T. ) ;
#701 = DIRECTION ( 'NONE',  ( -0.000000000000000000, -0.000000000000000000, -1.000000000000000000 ) ) ;
#702 = EDGE_CURVE ( 'NONE', #813, #826, #376, .T. ) ;
#703 = CARTESIAN_POINT ( 'NONE',  ( 42.49999999999998579, -6.999999999999998224, 0.000000000000000000 ) ) ;
#704 = ORIENTED_EDGE ( 'NONE', *, *, #318, .T. ) ;
#705 = CARTESIAN_POINT ( 'NONE',  ( -24.74999999999999645, 10.00000000000000178, -12.00000000000000000 ) ) ;
#706 = VECTOR ( 'NONE', #50, 1000.000000000000000 ) ;
#707 = LINE ( 'NONE', #262, #915 ) ;
#708 = EDGE_CURVE ( 'NONE', #745, #813, #379, .T. ) ;
#709 = CARTESIAN_POINT ( 'NONE',  ( -39.50000000000002842, 10.00000000000000178, 0.000000000000000000 ) ) ;
#710 = LINE ( 'NONE', #769, #898 ) ;
#711 = ADVANCED_FACE ( 'NONE', ( #310 ), #887, .T. ) ;
#712 = CARTESIAN_POINT ( 'NONE',  ( -39.50000000000002842, -6.999999999999998224, 0.000000000000000000 ) ) ;
#713 = DIRECTION ( 'NONE',  ( 0.000000000000000000, -1.000000000000000000, 0.000000000000000000 ) ) ;
#714 = PLANE ( 'NONE',  #255 ) ;
#715 = DIRECTION ( 'NONE',  ( 0.000000000000000000, 0.000000000000000000, -1.000000000000000000 ) ) ;
#716 = CARTESIAN_POINT ( 'NONE',  ( 3.100000000000000089, 3.796405077356794918E-16, -12.00000000000000000 ) ) ;
#717 = DIRECTION ( 'NONE',  ( -1.000000000000000000, 0.000000000000000000, 0.000000000000000000 ) ) ;
#718 = VECTOR ( 'NONE', #78, 1000.000000000000000 ) ;
#719 = AXIS2_PLACEMENT_3D ( 'NONE', #864, #447, #931 ) ;
#720 = CIRCLE ( 'NONE', #734, 3.000000000000002665 ) ;
#721 = DIRECTION ( 'NONE',  ( -0.000000000000000000, -1.000000000000000000, -0.000000000000000000 ) ) ;
#722 = DIRECTION ( 'NONE',  ( 0.000000000000000000, 0.000000000000000000, -1.000000000000000000 ) ) ;
#723 = EDGE_CURVE ( 'NONE', #889, #339, #460, .T. ) ;
#724 = FACE_OUTER_BOUND ( 'NONE', #484, .T. ) ;
#725 = DIRECTION ( 'NONE',  ( -1.000000000000000000, 0.000000000000000000, 0.000000000000000000 ) ) ;
#726 = ORIENTED_EDGE ( 'NONE', *, *, #4, .T. ) ;
#727 = CARTESIAN_POINT ( 'NONE',  ( 21.74999999999999645, -9.999999999999998224, -15.00000000000000000 ) ) ;
#728 = EDGE_CURVE ( 'NONE', #80, #224, #277, .T. ) ;
#729 = DIRECTION ( 'NONE',  ( 0.000000000000000000, 0.000000000000000000, -1.000000000000000000 ) ) ;
#730 = ORIENTED_EDGE ( 'NONE', *, *, #400, .T. ) ;
#731 = PLANE ( 'NONE',  #689 ) ;
#732 = ADVANCED_FACE ( 'NONE', ( #918 ), #265, .F. ) ;
#733 = VECTOR ( 'NONE', #270, 1000.000000000000000 ) ;
#734 = AXIS2_PLACEMENT_3D ( 'NONE', #33, #28, #608 ) ;
#735 = ORIENTED_EDGE ( 'NONE', *, *, #236, .T. ) ;
#736 = DATE_AND_TIME ( #158, #482 ) ;
#737 = ORIENTED_EDGE ( 'NONE', *, *, #519, .T. ) ;
#738 = FACE_OUTER_BOUND ( 'NONE', #914, .T. ) ;
#739 = ORIENTED_EDGE ( 'NONE', *, *, #357, .F. ) ;
#740 = CARTESIAN_POINT ( 'NONE',  ( 21.74999999999999645, -9.999999999999998224, -15.00000000000000000 ) ) ;
#741 = ORIENTED_EDGE ( 'NONE', *, *, #222, .T. ) ;
#742 = COORDINATED_UNIVERSAL_TIME_OFFSET ( 7, 0, .AHEAD. ) ;
#743 = DIRECTION ( 'NONE',  ( -0.000000000000000000, -0.000000000000000000, -1.000000000000000000 ) ) ;
#744 = LINE ( 'NONE', #8, #101 ) ;
#745 = VERTEX_POINT ( 'NONE', #564 ) ;
#746 = VECTOR ( 'NONE', #821, 1000.000000000000000 ) ;
#747 = ORIENTED_EDGE ( 'NONE', *, *, #69, .F. ) ;
#748 = FACE_OUTER_BOUND ( 'NONE', #230, .T. ) ;
#749 = ORIENTED_EDGE ( 'NONE', *, *, #371, .T. ) ;
#750 = ORIENTED_EDGE ( 'NONE', *, *, #666, .F. ) ;
#751 = DIRECTION ( 'NONE',  ( -1.000000000000000000, 0.000000000000000000, 0.000000000000000000 ) ) ;
#752 = PRODUCT_DEFINITION ( 'UNKNOWN', '', #361, #356 ) ;
#753 = CARTESIAN_POINT ( 'NONE',  ( 21.74999999999999645, 10.00000000000000178, -12.00000000000000000 ) ) ;
#754 = EDGE_CURVE ( 'NONE', #765, #130, #414, .T. ) ;
#755 = FACE_OUTER_BOUND ( 'NONE', #760, .T. ) ;
#756 = DIRECTION ( 'NONE',  ( -1.000000000000000000, 0.000000000000000000, -0.000000000000000000 ) ) ;
#757 = DIRECTION ( 'NONE',  ( 0.000000000000000000, 1.000000000000000000, 0.000000000000000000 ) ) ;
#758 = ORIENTED_EDGE ( 'NONE', *, *, #272, .T. ) ;
#759 = AXIS2_PLACEMENT_3D ( 'NONE', #863, #486, #219 ) ;
#760 = EDGE_LOOP ( 'NONE', ( #91, #550, #632, #596 ) ) ;
#761 = AXIS2_PLACEMENT_3D ( 'NONE', #927, #654, #290 ) ;
#762 = CARTESIAN_POINT ( 'NONE',  ( -42.50000000000002842, -9.999999999999998224, 3.000000000000000000 ) ) ;
#763 = VECTOR ( 'NONE', #281, 1000.000000000000000 ) ;
#764 = DIRECTION ( 'NONE',  ( -1.000000000000000000, 0.000000000000000000, 0.000000000000000000 ) ) ;
#765 = VERTEX_POINT ( 'NONE', #556 ) ;
#766 = ADVANCED_FACE ( 'NONE', ( #341 ), #699, .F. ) ;
#767 = ORIENTED_EDGE ( 'NONE', *, *, #272, .F. ) ;
#768 = DIRECTION ( 'NONE',  ( -0.000000000000000000, -0.000000000000000000, -1.000000000000000000 ) ) ;
#769 = CARTESIAN_POINT ( 'NONE',  ( -42.50000000000002842, 10.00000000000000178, 3.000000000000000000 ) ) ;
#770 = LINE ( 'NONE', #416, #134 ) ;
#771 = ORIENTED_EDGE ( 'NONE', *, *, #61, .T. ) ;
#772 = LINE ( 'NONE', #552, #825 ) ;
#773 = EDGE_CURVE ( 'NONE', #533, #765, #629, .T. ) ;
#774 = DIRECTION ( 'NONE',  ( -0.000000000000000000, -0.000000000000000000, 1.000000000000000000 ) ) ;
#775 = DIRECTION ( 'NONE',  ( -0.000000000000000000, -0.000000000000000000, 1.000000000000000000 ) ) ;
#776 = ORIENTED_EDGE ( 'NONE', *, *, #438, .F. ) ;
#777 = DIRECTION ( 'NONE',  ( -1.000000000000000000, 0.000000000000000000, 0.000000000000000000 ) ) ;
#778 = CIRCLE ( 'NONE', #372, 1.599999999999990319 ) ;
#779 = CARTESIAN_POINT ( 'NONE',  ( -24.74999999999999645, 10.00000000000000178, -12.00000000000000000 ) ) ;
#780 = AXIS2_PLACEMENT_3D ( 'NONE', #805, #811, #166 ) ;
#781 = CARTESIAN_POINT ( 'NONE',  ( 21.74999999999999645, -9.999999999999998224, -12.00000000000000000 ) ) ;
#782 = ORIENTED_EDGE ( 'NONE', *, *, #678, .T. ) ;
#783 = CARTESIAN_POINT ( 'NONE',  ( 39.49999999999998579, 10.00000000000000178, 3.000000000000000000 ) ) ;
#784 = CARTESIAN_POINT ( 'NONE',  ( 21.74999999999999645, 0.000000000000000000, -12.00000000000000000 ) ) ;
#785 = ADVANCED_FACE ( 'NONE', ( #850 ), #410, .F. ) ;
#786 = DIRECTION ( 'NONE',  ( 0.000000000000000000, 0.000000000000000000, 1.000000000000000000 ) ) ;
#787 = ORIENTED_EDGE ( 'NONE', *, *, #818, .F. ) ;
#788 = CARTESIAN_POINT ( 'NONE',  ( -34.21935184137377206, 0.03099254336252929912, 0.000000000000000000 ) ) ;
#789 = DIRECTION ( 'NONE',  ( -0.000000000000000000, 0.000000000000000000, -1.000000000000000000 ) ) ;
#790 = CARTESIAN_POINT ( 'NONE',  ( 39.49999999999998579, -9.999999999999998224, 3.000000000000000000 ) ) ;
#791 = CARTESIAN_POINT ( 'NONE',  ( 32.38064815862642831, 0.03099254336257767362, 0.000000000000000000 ) ) ;
#792 = CIRCLE ( 'NONE', #634, 2.999999999999999112 ) ;
#793 = CARTESIAN_POINT ( 'NONE',  ( 0.000000000000000000, 0.000000000000000000, 3.000000000000000000 ) ) ;
#794 = AXIS2_PLACEMENT_3D ( 'NONE', #338, #192, #481 ) ;
#795 = APPROVAL ( #516, 'UNSPECIFIED' ) ;
#796 = ORIENTED_EDGE ( 'NONE', *, *, #245, .F. ) ;
#797 = DIRECTION ( 'NONE',  ( -0.000000000000000000, -0.000000000000000000, 1.000000000000000000 ) ) ;
#798 = CARTESIAN_POINT ( 'NONE',  ( -42.50000000000002842, -9.999999999999998224, 3.000000000000000000 ) ) ;
#799 = ORIENTED_EDGE ( 'NONE', *, *, #818, .T. ) ;
#800 = PERSON_AND_ORGANIZATION_ROLE ( 'creator' ) ;
#801 = PLANE ( 'NONE',  #316 ) ;
#802 = ORIENTED_EDGE ( 'NONE', *, *, #901, .F. ) ;
#803 = APPROVAL_STATUS ( 'not_yet_approved' ) ;
#804 = VERTEX_POINT ( 'NONE', #705 ) ;
#805 = CARTESIAN_POINT ( 'NONE',  ( -32.61935184137377064, 0.03099254336252910136, 3.000000000000000000 ) ) ;
#806 = EDGE_CURVE ( 'NONE', #168, #661, #772, .T. ) ;
#807 = CIRCLE ( 'NONE', #86, 3.000000000000002665 ) ;
#808 = VECTOR ( 'NONE', #701, 1000.000000000000000 ) ;
#809 = EDGE_LOOP ( 'NONE', ( #593, #771, #246, #824 ) ) ;
#810 = CALENDAR_DATE ( 2025, 5, 10 ) ;
#811 = DIRECTION ( 'NONE',  ( 0.000000000000000000, 0.000000000000000000, 1.000000000000000000 ) ) ;
#812 = EDGE_CURVE ( 'NONE', #512, #886, #41, .T. ) ;
#813 = VERTEX_POINT ( 'NONE', #53 ) ;
#814 = DATE_TIME_ROLE ( 'classification_date' ) ;
#815 = LINE ( 'NONE', #673, #437 ) ;
#816 = DIRECTION ( 'NONE',  ( -1.000000000000000000, 0.000000000000000000, 0.000000000000000000 ) ) ;
#817 = ORIENTED_EDGE ( 'NONE', *, *, #177, .T. ) ;
#818 = EDGE_CURVE ( 'NONE', #42, #52, #131, .T. ) ;
#819 = SHAPE_DEFINITION_REPRESENTATION ( #72, #138 ) ;
#820 = VERTEX_POINT ( 'NONE', #853 ) ;
#821 = DIRECTION ( 'NONE',  ( -0.000000000000000000, -0.000000000000000000, 1.000000000000000000 ) ) ;
#822 = CARTESIAN_POINT ( 'NONE',  ( 24.74999999999999289, 10.00000000000000178, -12.00000000000000000 ) ) ;
#823 = AXIS2_PLACEMENT_3D ( 'NONE', #353, #360, #504 ) ;
#824 = ORIENTED_EDGE ( 'NONE', *, *, #925, .F. ) ;
#825 = VECTOR ( 'NONE', #547, 1000.000000000000000 ) ;
#826 = VERTEX_POINT ( 'NONE', #123 ) ;
#827 = DIRECTION ( 'NONE',  ( -0.000000000000000000, -0.000000000000000000, 1.000000000000000000 ) ) ;
#828 = CARTESIAN_POINT ( 'NONE',  ( 3.100000000000000089, 3.796405077356794918E-16, 2.999999999999999112 ) ) ;
#829 = ORIENTED_EDGE ( 'NONE', *, *, #97, .T. ) ;
#830 = ORIENTED_EDGE ( 'NONE', *, *, #901, .T. ) ;
#831 = DIRECTION ( 'NONE',  ( 1.000000000000000000, 0.000000000000000000, 0.000000000000000000 ) ) ;
#832 = CARTESIAN_POINT ( 'NONE',  ( 3.100000000000000089, 3.796405077356794918E-16, -15.00000000000000000 ) ) ;
#833 = EDGE_CURVE ( 'NONE', #820, #409, #695, .T. ) ;
#834 = DIRECTION ( 'NONE',  ( -1.000000000000000000, 0.000000000000000000, 0.000000000000000000 ) ) ;
#835 = ORIENTED_EDGE ( 'NONE', *, *, #328, .F. ) ;
#836 = CARTESIAN_POINT ( 'NONE',  ( -39.50000000000002842, -9.999999999999998224, 3.000000000000000000 ) ) ;
#837 = CARTESIAN_POINT ( 'NONE',  ( 21.74999999999999645, 10.00000000000000178, -12.00000000000000000 ) ) ;
#838 = ADVANCED_FACE ( 'NONE', ( #337, #474 ), #332, .T. ) ;
#839 = ADVANCED_FACE ( 'NONE', ( #37 ), #619, .T. ) ;
#840 = VERTEX_POINT ( 'NONE', #44 ) ;
#841 = AXIS2_PLACEMENT_3D ( 'NONE', #46, #195, #834 ) ;
#842 = EDGE_LOOP ( 'NONE', ( #726, #604, #96, #470 ) ) ;
#843 = CIRCLE ( 'NONE', #856, 1.600000000000000755 ) ;
#844 = DIRECTION ( 'NONE',  ( -0.000000000000000000, -0.000000000000000000, 1.000000000000000000 ) ) ;
#845 = AXIS2_PLACEMENT_3D ( 'NONE', #235, #178, #600 ) ;
#846 = LINE ( 'NONE', #837, #118 ) ;
#847 = DIRECTION ( 'NONE',  ( -1.000000000000000000, 0.000000000000000000, 0.000000000000000000 ) ) ;
#848 = ADVANCED_FACE ( 'NONE', ( #48 ), #624, .T. ) ;
#849 = ORIENTED_EDGE ( 'NONE', *, *, #571, .F. ) ;
#850 = FACE_OUTER_BOUND ( 'NONE', #39, .T. ) ;
#851 = CARTESIAN_POINT ( 'NONE',  ( -32.61935184137377064, 0.03099254336252910136, 3.000000000000000000 ) ) ;
#852 = LINE ( 'NONE', #866, #359 ) ;
#853 = CARTESIAN_POINT ( 'NONE',  ( -39.50000000000002842, -9.999999999999998224, 3.000000000000000000 ) ) ;
#854 = FACE_OUTER_BOUND ( 'NONE', #873, .T. ) ;
#855 = CARTESIAN_POINT ( 'NONE',  ( -42.50000000000002842, 10.00000000000000178, 3.000000000000000000 ) ) ;
#856 = AXIS2_PLACEMENT_3D ( 'NONE', #851, #493, #923 ) ;
#857 = FACE_OUTER_BOUND ( 'NONE', #157, .T. ) ;
#858 = EDGE_CURVE ( 'NONE', #373, #745, #198, .T. ) ;
#859 = CARTESIAN_POINT ( 'NONE',  ( 24.74999999999999289, -9.999999999999998224, -15.00000000000000000 ) ) ;
#860 = VERTEX_POINT ( 'NONE', #716 ) ;
#861 = DIRECTION ( 'NONE',  ( 0.000000000000000000, 0.000000000000000000, 1.000000000000000000 ) ) ;
#862 = CARTESIAN_POINT ( 'NONE',  ( 32.38064815862642831, 0.03099254336257767362, -15.00000000000000000 ) ) ;
#863 = CARTESIAN_POINT ( 'NONE',  ( -39.50000000000002842, -6.999999999999998224, 3.000000000000000000 ) ) ;
#864 = CARTESIAN_POINT ( 'NONE',  ( 39.49999999999998579, 7.000000000000001776, 3.000000000000000000 ) ) ;
#865 = CC_DESIGN_PERSON_AND_ORGANIZATION_ASSIGNMENT ( #26, #450, ( #390 ) ) ;
#866 = CARTESIAN_POINT ( 'NONE',  ( 42.49999999999998579, -9.999999999999998224, 3.000000000000000000 ) ) ;
#867 = EDGE_CURVE ( 'NONE', #546, #336, #544, .T. ) ;
#868 = ORIENTED_EDGE ( 'NONE', *, *, #29, .F. ) ;
#869 = AXIS2_PLACEMENT_3D ( 'NONE', #100, #227, #179 ) ;
#870 = CARTESIAN_POINT ( 'NONE',  ( 42.49999999999998579, 7.000000000000002665, 3.000000000000000000 ) ) ;
#871 = VECTOR ( 'NONE', #663, 1000.000000000000000 ) ;
#872 = DIRECTION ( 'NONE',  ( 0.000000000000000000, 1.000000000000000000, 0.000000000000000000 ) ) ;
#873 = EDGE_LOOP ( 'NONE', ( #412, #238, #191, #105 ) ) ;
#874 = EDGE_CURVE ( 'NONE', #268, #35, #1, .T. ) ;
#875 = ORIENTED_EDGE ( 'NONE', *, *, #97, .F. ) ;
#876 = LINE ( 'NONE', #215, #451 ) ;
#877 = DIRECTION ( 'NONE',  ( 0.000000000000000000, 0.000000000000000000, 1.000000000000000000 ) ) ;
#878 = ORIENTED_EDGE ( 'NONE', *, *, #651, .F. ) ;
#879 = DIRECTION ( 'NONE',  ( -0.000000000000000000, -0.000000000000000000, 1.000000000000000000 ) ) ;
#880 = ORIENTED_EDGE ( 'NONE', *, *, #108, .F. ) ;
#881 = PERSON_AND_ORGANIZATION ( #442, #89 ) ;
#882 = VERTEX_POINT ( 'NONE', #292 ) ;
#883 = VECTOR ( 'NONE', #306, 1000.000000000000000 ) ;
#884 = AXIS2_PLACEMENT_3D ( 'NONE', #187, #756, #690 ) ;
#885 = ORIENTED_EDGE ( 'NONE', *, *, #154, .F. ) ;
#886 = VERTEX_POINT ( 'NONE', #788 ) ;
#887 = CYLINDRICAL_SURFACE ( 'NONE', #349, 3.000000000000002665 ) ;
#888 = EDGE_CURVE ( 'NONE', #441, #826, #70, .T. ) ;
#889 = VERTEX_POINT ( 'NONE', #570 ) ;
#890 = ORIENTED_EDGE ( 'NONE', *, *, #236, .F. ) ;
#891 = CARTESIAN_POINT ( 'NONE',  ( 24.74999999999999289, 10.00000000000000178, -12.00000000000000000 ) ) ;
#892 = CC_DESIGN_PERSON_AND_ORGANIZATION_ASSIGNMENT ( #881, #173, ( #361 ) ) ;
#893 = VERTEX_POINT ( 'NONE', #220 ) ;
#894 = ORIENTED_EDGE ( 'NONE', *, *, #833, .T. ) ;
#895 = CARTESIAN_POINT ( 'NONE',  ( -32.61935184137377064, 0.03099254336252910136, -15.00000000000000000 ) ) ;
#896 = CARTESIAN_POINT ( 'NONE',  ( -21.75000000000000000, -9.999999999999998224, -12.00000000000000000 ) ) ;
#897 = CIRCLE ( 'NONE', #823, 3.000000000000002665 ) ;
#898 = VECTOR ( 'NONE', #54, 1000.000000000000000 ) ;
#899 = ORIENTED_EDGE ( 'NONE', *, *, #126, .T. ) ;
#900 = VECTOR ( 'NONE', #217, 1000.000000000000000 ) ;
#901 = EDGE_CURVE ( 'NONE', #110, #611, #467, .T. ) ;
#902 = CARTESIAN_POINT ( 'NONE',  ( -21.75000000000000000, 10.00000000000000178, 3.000000000000000000 ) ) ;
#903 = DIRECTION ( 'NONE',  ( 0.000000000000000000, 0.000000000000000000, -1.000000000000000000 ) ) ;
#904 = CARTESIAN_POINT ( 'NONE',  ( -42.50000000000002842, -9.999999999999998224, 0.000000000000000000 ) ) ;
#905 = ORIENTED_EDGE ( 'NONE', *, *, #126, .F. ) ;
#906 = DIRECTION ( 'NONE',  ( 0.000000000000000000, 0.000000000000000000, 1.000000000000000000 ) ) ;
#907 = CC_DESIGN_PERSON_AND_ORGANIZATION_ASSIGNMENT ( #169, #104, ( #361 ) ) ;
#908 = LINE ( 'NONE', #411, #348 ) ;
#909 = ORIENTED_EDGE ( 'NONE', *, *, #858, .F. ) ;
#910 = ORIENTED_EDGE ( 'NONE', *, *, #280, .T. ) ;
#911 = CARTESIAN_POINT ( 'NONE',  ( -21.75000000000000000, 0.000000000000000000, -12.00000000000000000 ) ) ;
#912 = DIRECTION ( 'NONE',  ( 0.000000000000000000, 0.000000000000000000, -1.000000000000000000 ) ) ;
#913 = VECTOR ( 'NONE', #279, 1000.000000000000000 ) ;
#914 = EDGE_LOOP ( 'NONE', ( #103, #9, #469, #453, #206, #698 ) ) ;
#915 = VECTOR ( 'NONE', #757, 1000.000000000000000 ) ;
#916 = ORIENTED_EDGE ( 'NONE', *, *, #723, .F. ) ;
#917 = APPROVAL_PERSON_ORGANIZATION ( #457, #532, #607 ) ;
#918 = FACE_OUTER_BOUND ( 'NONE', #672, .T. ) ;
#919 = LINE ( 'NONE', #779, #421 ) ;
#920 = EDGE_CURVE ( 'NONE', #365, #344, #362, .T. ) ;
#921 = FACE_OUTER_BOUND ( 'NONE', #228, .T. ) ;
#922 = CARTESIAN_POINT ( 'NONE',  ( -39.50000000000002842, 10.00000000000000178, 3.000000000000000000 ) ) ;
#923 = DIRECTION ( 'NONE',  ( 1.000000000000000000, 0.000000000000000000, 0.000000000000000000 ) ) ;
#924 = DIRECTION ( 'NONE',  ( -0.000000000000000000, -0.000000000000000000, 1.000000000000000000 ) ) ;
#925 = EDGE_CURVE ( 'NONE', #512, #681, #289, .T. ) ;
#926 = EDGE_CURVE ( 'NONE', #745, #224, #273, .T. ) ;
#927 = CARTESIAN_POINT ( 'NONE',  ( -21.75000000000000000, 0.000000000000000000, -12.00000000000000000 ) ) ;
#928 = CARTESIAN_POINT ( 'NONE',  ( 0.000000000000000000, 0.000000000000000000, -15.00000000000000000 ) ) ;
#929 = ORIENTED_EDGE ( 'NONE', *, *, #926, .F. ) ;
#930 = VECTOR ( 'NONE', #775, 1000.000000000000000 ) ;
#931 = DIRECTION ( 'NONE',  ( -1.000000000000000000, 0.000000000000000000, 0.000000000000000000 ) ) ;
#932 = APPROVAL_PERSON_ORGANIZATION ( #662, #188, #670 ) ;
#933 = LINE ( 'NONE', #129, #223 ) ;
ENDSEC;
END-ISO-10303-21;
