ISO-10303-21;
HEADER;
FILE_DESCRIPTION (( 'STEP AP203' ),
    '1' );
FILE_NAME ('CAMERA_HUB.STEP',
    '2025-10-04T23:21:01',
    ( '' ),
    ( '' ),
    'SwSTEP 2.0',
    'SolidWorks 2025',
    '' );
FILE_SCHEMA (( 'CONFIG_CONTROL_DESIGN' ));
ENDSEC;

DATA;
#1 = CIRCLE ( 'NONE', #357, 2.999999999999999112 ) ;
#2 = VECTOR ( 'NONE', #901, 1000.000000000000000 ) ;
#3 = ORIENTED_EDGE ( 'NONE', *, *, #714, .F. ) ;
#4 = CARTESIAN_POINT ( 'NONE',  ( -35.00000000000000711, 0.000000000000000000, -10.00000000000000355 ) ) ;
#5 = FACE_OUTER_BOUND ( 'NONE', #147, .T. ) ;
#6 = VERTEX_POINT ( 'NONE', #436 ) ;
#7 = EDGE_LOOP ( 'NONE', ( #815, #559 ) ) ;
#8 = CALENDAR_DATE ( 2025, 5, 10 ) ;
#9 = CARTESIAN_POINT ( 'NONE',  ( -32.00000000000000711, 0.000000000000000000, -7.000000000000004441 ) ) ;
#10 = EDGE_CURVE ( 'NONE', #226, #194, #138, .T. ) ;
#11 = CARTESIAN_POINT ( 'NONE',  ( 34.99999999999999289, 3.000000000000000000, 6.999999999999996447 ) ) ;
#12 = PRODUCT_DEFINITION_SHAPE ( 'NONE', 'NONE',  #54 ) ;
#13 = ORIENTED_EDGE ( 'NONE', *, *, #109, .T. ) ;
#14 = LINE ( 'NONE', #29, #236 ) ;
#15 = DIRECTION ( 'NONE',  ( 0.000000000000000000, 0.000000000000000000, -1.000000000000000000 ) ) ;
#16 = VECTOR ( 'NONE', #607, 1000.000000000000000 ) ;
#17 = ORIENTED_EDGE ( 'NONE', *, *, #571, .T. ) ;
#18 = COORDINATED_UNIVERSAL_TIME_OFFSET ( 7, 0, .AHEAD. ) ;
#19 = CARTESIAN_POINT ( 'NONE',  ( 34.99999999999999289, 0.000000000000000000, 6.999999999999996447 ) ) ;
#20 = CARTESIAN_POINT ( 'NONE',  ( 19.99999999999999645, 20.99999999999999645, 9.999999999999996447 ) ) ;
#21 = ADVANCED_FACE ( 'NONE', ( #796 ), #444, .T. ) ;
#22 = ORIENTED_EDGE ( 'NONE', *, *, #425, .F. ) ;
#23 = EDGE_CURVE ( 'NONE', #79, #681, #291, .T. ) ;
#24 = CALENDAR_DATE ( 2025, 5, 10 ) ;
#25 = DIRECTION ( 'NONE',  ( 0.000000000000000000, 0.000000000000000000, -1.000000000000000000 ) ) ;
#26 = DIRECTION ( 'NONE',  ( -1.000000000000000000, -0.000000000000000000, -0.000000000000000000 ) ) ;
#27 = VERTEX_POINT ( 'NONE', #68 ) ;
#28 = ADVANCED_FACE ( 'NONE', ( #933, #511 ), #154, .T. ) ;
#29 = CARTESIAN_POINT ( 'NONE',  ( -20.00000000000000000, 23.99999999999999645, 9.999999999999994671 ) ) ;
#30 = CARTESIAN_POINT ( 'NONE',  ( 19.99999999999999645, 20.99999999999999645, -10.00000000000000355 ) ) ;
#31 = ORIENTED_EDGE ( 'NONE', *, *, #703, .F. ) ;
#32 = CIRCLE ( 'NONE', #649, 3.000000000000000000 ) ;
#33 = VECTOR ( 'NONE', #351, 1000.000000000000000 ) ;
#34 = CARTESIAN_POINT ( 'NONE',  ( 19.99999999999999645, 20.99999999999999645, 9.999999999999996447 ) ) ;
#35 = FACE_OUTER_BOUND ( 'NONE', #749, .T. ) ;
#36 = ORIENTED_EDGE ( 'NONE', *, *, #383, .F. ) ;
#37 = DIRECTION ( 'NONE',  ( -0.000000000000000000, 1.000000000000000000, -0.000000000000000000 ) ) ;
#38 = EDGE_CURVE ( 'NONE', #118, #826, #63, .T. ) ;
#39 = LINE ( 'NONE', #628, #156 ) ;
#40 = ORIENTED_EDGE ( 'NONE', *, *, #756, .F. ) ;
#41 = CARTESIAN_POINT ( 'NONE',  ( -35.00000000000000711, 3.000000000000000000, 6.999999999999996447 ) ) ;
#42 = CARTESIAN_POINT ( 'NONE',  ( -35.00000000000000711, 0.000000000000000000, -7.000000000000004441 ) ) ;
#43 = EDGE_LOOP ( 'NONE', ( #335, #360, #870, #849, #208, #717 ) ) ;
#44 = VECTOR ( 'NONE', #153, 1000.000000000000000 ) ;
#45 = LINE ( 'NONE', #699, #738 ) ;
#46 = VECTOR ( 'NONE', #637, 1000.000000000000000 ) ;
#47 = CIRCLE ( 'NONE', #341, 1.599999999999998090 ) ;
#48 = DIRECTION ( 'NONE',  ( 0.000000000000000000, -1.000000000000000000, 0.000000000000000000 ) ) ;
#49 = VERTEX_POINT ( 'NONE', #779 ) ;
#50 = EDGE_CURVE ( 'NONE', #79, #877, #380, .T. ) ;
#51 = LINE ( 'NONE', #183, #139 ) ;
#52 = LINE ( 'NONE', #848, #650 ) ;
#53 = ORIENTED_EDGE ( 'NONE', *, *, #59, .T. ) ;
#54 = PRODUCT_DEFINITION ( 'UNKNOWN', '', #312, #301 ) ;
#55 = CARTESIAN_POINT ( 'NONE',  ( -20.00000000000000355, 20.99999999999999645, -10.00000000000000355 ) ) ;
#56 = CYLINDRICAL_SURFACE ( 'NONE', #798, 1.599999999999998090 ) ;
#57 = EDGE_LOOP ( 'NONE', ( #176, #445 ) ) ;
#58 = APPLICATION_PROTOCOL_DEFINITION ( 'international standard', 'config_control_design', 1994, #923 ) ;
#59 = EDGE_CURVE ( 'NONE', #781, #121, #363, .T. ) ;
#60 = PLANE ( 'NONE',  #217 ) ;
#61 = AXIS2_PLACEMENT_3D ( 'NONE', #9, #587, #447 ) ;
#62 = VECTOR ( 'NONE', #412, 1000.000000000000000 ) ;
#63 = LINE ( 'NONE', #726, #879 ) ;
#64 = VECTOR ( 'NONE', #149, 1000.000000000000000 ) ;
#65 = EDGE_LOOP ( 'NONE', ( #406, #899, #693, #22 ) ) ;
#66 = LINE ( 'NONE', #713, #861 ) ;
#67 = ADVANCED_FACE ( 'NONE', ( #300 ), #720, .T. ) ;
#68 = CARTESIAN_POINT ( 'NONE',  ( -20.00000000000000000, 23.99999999999999645, 9.999999999999994671 ) ) ;
#69 = VERTEX_POINT ( 'NONE', #234 ) ;
#70 = CARTESIAN_POINT ( 'NONE',  ( 19.99999999999999645, 20.99999999999999645, -10.00000000000000533 ) ) ;
#71 = CARTESIAN_POINT ( 'NONE',  ( -20.00000000000000355, 0.000000000000000000, 9.999999999999996447 ) ) ;
#72 = VERTEX_POINT ( 'NONE', #83 ) ;
#73 = PRODUCT_RELATED_PRODUCT_CATEGORY ( 'detail', '', ( #158 ) ) ;
#74 = ORIENTED_EDGE ( 'NONE', *, *, #339, .T. ) ;
#75 = APPROVAL_ROLE ( '' ) ;
#76 = DIRECTION ( 'NONE',  ( 1.734723475976807094E-16, -0.000000000000000000, 1.000000000000000000 ) ) ;
#77 = CARTESIAN_POINT ( 'NONE',  ( -32.00000000000000711, 3.000000000000000000, -7.000000000000004441 ) ) ;
#78 = AXIS2_PLACEMENT_3D ( 'NONE', #732, #894, #252 ) ;
#79 = VERTEX_POINT ( 'NONE', #11 ) ;
#80 = ADVANCED_FACE ( 'NONE', ( #219 ), #589, .F. ) ;
#81 = APPROVAL_ROLE ( '' ) ;
#82 = CARTESIAN_POINT ( 'NONE',  ( 31.99999999999999289, 3.000000000000000000, -10.00000000000000355 ) ) ;
#83 = CARTESIAN_POINT ( 'NONE',  ( -23.00000000000000000, 3.000000000000000000, 9.999999999999996447 ) ) ;
#84 = EDGE_LOOP ( 'NONE', ( #575, #415, #539, #735 ) ) ;
#85 = CIRCLE ( 'NONE', #527, 3.000000000000000000 ) ;
#86 = DIRECTION ( 'NONE',  ( -0.000000000000000000, -0.000000000000000000, 1.000000000000000000 ) ) ;
#87 = DIRECTION ( 'NONE',  ( 0.000000000000000000, -1.000000000000000000, 0.000000000000000000 ) ) ;
#88 = ORIENTED_EDGE ( 'NONE', *, *, #903, .F. ) ;
#89 = APPROVAL_ROLE ( '' ) ;
#90 = CARTESIAN_POINT ( 'NONE',  ( -20.00000000000000000, 23.99999999999999645, -10.00000000000000355 ) ) ;
#91 = DIRECTION ( 'NONE',  ( 0.000000000000000000, -0.000000000000000000, -1.000000000000000000 ) ) ;
#92 = AXIS2_PLACEMENT_3D ( 'NONE', #594, #881, #400 ) ;
#93 = ORIENTED_EDGE ( 'NONE', *, *, #547, .F. ) ;
#94 = CC_DESIGN_APPROVAL ( #318, ( #312 ) ) ;
#95 = DATE_TIME_ROLE ( 'creation_date' ) ;
#96 = CARTESIAN_POINT ( 'NONE',  ( -32.00000000000000711, 0.000000000000000000, 9.999999999999996447 ) ) ;
#97 = CYLINDRICAL_SURFACE ( 'NONE', #828, 3.100000000000000089 ) ;
#98 = EDGE_CURVE ( 'NONE', #419, #563, #740, .T. ) ;
#99 = VERTEX_POINT ( 'NONE', #508 ) ;
#100 = FACE_OUTER_BOUND ( 'NONE', #114, .T. ) ;
#101 = CARTESIAN_POINT ( 'NONE',  ( 3.796405077356794918E-16, 23.99999999999999645, 3.100000000000000089 ) ) ;
#102 = ORIENTED_EDGE ( 'NONE', *, *, #486, .T. ) ;
#103 = EDGE_CURVE ( 'NONE', #826, #79, #919, .T. ) ;
#104 = LINE ( 'NONE', #34, #373 ) ;
#105 = CARTESIAN_POINT ( 'NONE',  ( 0.000000000000000000, 3.000000000000000000, 0.000000000000000000 ) ) ;
#106 = ORIENTED_EDGE ( 'NONE', *, *, #229, .F. ) ;
#107 = CIRCLE ( 'NONE', #904, 3.100000000000000089 ) ;
#108 = VECTOR ( 'NONE', #443, 1000.000000000000000 ) ;
#109 = EDGE_CURVE ( 'NONE', #731, #616, #146, .T. ) ;
#110 = VECTOR ( 'NONE', #623, 1000.000000000000000 ) ;
#111 = VERTEX_POINT ( 'NONE', #809 ) ;
#112 = LINE ( 'NONE', #416, #110 ) ;
#113 = PLANE ( 'NONE',  #173 ) ;
#114 = EDGE_LOOP ( 'NONE', ( #634, #484, #523, #546 ) ) ;
#115 = PERSON ( 'UNSPECIFIED', 'UNSPECIFIED', 'UNSPECIFIED', ('UNSPECIFIED'), ('UNSPECIFIED'), ('UNSPECIFIED') ) ;
#116 = LINE ( 'NONE', #409, #679 ) ;
#117 = DIRECTION ( 'NONE',  ( -0.000000000000000000, -0.000000000000000000, -1.000000000000000000 ) ) ;
#118 = VERTEX_POINT ( 'NONE', #309 ) ;
#119 = DIRECTION ( 'NONE',  ( 0.000000000000000000, -1.000000000000000000, 0.000000000000000000 ) ) ;
#120 = CARTESIAN_POINT ( 'NONE',  ( 31.99999999999999289, 3.000000000000000000, -10.00000000000000355 ) ) ;
#121 = VERTEX_POINT ( 'NONE', #20 ) ;
#122 = DIRECTION ( 'NONE',  ( 1.000000000000000000, -0.000000000000000000, 0.000000000000000000 ) ) ;
#123 = ORGANIZATION ( 'UNSPECIFIED', 'UNSPECIFIED', '' ) ;
#124 = FACE_OUTER_BOUND ( 'NONE', #644, .T. ) ;
#125 = ORIENTED_EDGE ( 'NONE', *, *, #667, .F. ) ;
#126 = FACE_BOUND ( 'NONE', #142, .T. ) ;
#127 = DIRECTION ( 'NONE',  ( -1.000000000000000000, 0.000000000000000000, 0.000000000000000000 ) ) ;
#128 = ORIENTED_EDGE ( 'NONE', *, *, #150, .F. ) ;
#129 = VERTEX_POINT ( 'NONE', #101 ) ;
#130 = ADVANCED_FACE ( 'NONE', ( #239 ), #819, .T. ) ;
#131 = DIRECTION ( 'NONE',  ( 0.000000000000000000, 0.000000000000000000, -1.000000000000000000 ) ) ;
#132 = ORIENTED_EDGE ( 'NONE', *, *, #413, .F. ) ;
#133 = VERTEX_POINT ( 'NONE', #175 ) ;
#134 = PERSON_AND_ORGANIZATION_ROLE ( 'creator' ) ;
#135 = EDGE_CURVE ( 'NONE', #701, #171, #822, .T. ) ;
#136 = AXIS2_PLACEMENT_3D ( 'NONE', #907, #911, #282 ) ;
#137 = DIRECTION ( 'NONE',  ( 0.000000000000000000, 0.000000000000000000, -1.000000000000000000 ) ) ;
#138 = CIRCLE ( 'NONE', #863, 1.599999999999998090 ) ;
#139 = VECTOR ( 'NONE', #346, 1000.000000000000000 ) ;
#140 = DIRECTION ( 'NONE',  ( 0.000000000000000000, 0.000000000000000000, -1.000000000000000000 ) ) ;
#141 = CIRCLE ( 'NONE', #778, 3.100000000000000089 ) ;
#142 = EDGE_LOOP ( 'NONE', ( #204, #442 ) ) ;
#143 = CARTESIAN_POINT ( 'NONE',  ( 0.000000000000000000, 20.99999999999999645, 0.000000000000000000 ) ) ;
#144 = APPROVAL ( #718, 'UNSPECIFIED' ) ;
#145 = CARTESIAN_POINT ( 'NONE',  ( 0.000000000000000000, 3.000000000000000000, 0.000000000000000000 ) ) ;
#146 = LINE ( 'NONE', #536, #264 ) ;
#147 = EDGE_LOOP ( 'NONE', ( #625, #846, #840, #661 ) ) ;
#148 = LINE ( 'NONE', #82, #108 ) ;
#149 = DIRECTION ( 'NONE',  ( 1.000000000000000000, 0.000000000000000000, 0.000000000000000000 ) ) ;
#150 = EDGE_CURVE ( 'NONE', #805, #767, #744, .T. ) ;
#151 = VERTEX_POINT ( 'NONE', #30 ) ;
#152 = DIRECTION ( 'NONE',  ( 0.000000000000000000, 0.000000000000000000, 1.000000000000000000 ) ) ;
#153 = DIRECTION ( 'NONE',  ( -0.000000000000000000, -0.000000000000000000, 1.000000000000000000 ) ) ;
#154 = PLANE ( 'NONE',  #768 ) ;
#155 = CIRCLE ( 'NONE', #860, 3.100000000000000089 ) ;
#156 = VECTOR ( 'NONE', #276, 1000.000000000000000 ) ;
#157 = ORIENTED_EDGE ( 'NONE', *, *, #461, .T. ) ;
#158 = PRODUCT ( 'CAMERA_HUB', 'CAMERA_HUB', '', ( #227 ) ) ;
#159 = APPROVAL_STATUS ( 'not_yet_approved' ) ;
#160 = CARTESIAN_POINT ( 'NONE',  ( -27.49962090459423436, 23.99999999999999645, -0.01082682871064670656 ) ) ;
#161 = CARTESIAN_POINT ( 'NONE',  ( -27.49962090459423436, 2.999999999999999112, -0.01082682871064670656 ) ) ;
#162 = ORIENTED_EDGE ( 'NONE', *, *, #476, .F. ) ;
#163 = PERSON_AND_ORGANIZATION ( #115, #123 ) ;
#164 = DIRECTION ( 'NONE',  ( -1.734723475976807341E-16, -0.000000000000000000, -1.000000000000000000 ) ) ;
#165 = CARTESIAN_POINT ( 'NONE',  ( -32.00000000000000711, 3.000000000000000000, 6.999999999999996447 ) ) ;
#166 = ORIENTED_EDGE ( 'NONE', *, *, #350, .F. ) ;
#167 = FACE_OUTER_BOUND ( 'NONE', #317, .T. ) ;
#168 = EDGE_CURVE ( 'NONE', #381, #543, #107, .T. ) ;
#169 = DIRECTION ( 'NONE',  ( -0.000000000000000000, -0.000000000000000000, 1.000000000000000000 ) ) ;
#170 = CIRCLE ( 'NONE', #61, 3.000000000000000888 ) ;
#171 = VERTEX_POINT ( 'NONE', #525 ) ;
#172 = LOCAL_TIME ( 6, 21, 1.000000000000000000, #323 ) ;
#173 = AXIS2_PLACEMENT_3D ( 'NONE', #410, #344, #261 ) ;
#174 = PLANE ( 'NONE',  #280 ) ;
#175 = CARTESIAN_POINT ( 'NONE',  ( -32.00000000000000711, 3.000000000000000000, 9.999999999999996447 ) ) ;
#176 = ORIENTED_EDGE ( 'NONE', *, *, #887, .F. ) ;
#177 = COORDINATED_UNIVERSAL_TIME_OFFSET ( 7, 0, .AHEAD. ) ;
#178 = DIRECTION ( 'NONE',  ( 0.000000000000000000, 0.000000000000000000, -1.000000000000000000 ) ) ;
#179 = FACE_OUTER_BOUND ( 'NONE', #43, .T. ) ;
#180 = ORIENTED_EDGE ( 'NONE', *, *, #566, .F. ) ;
#181 = ADVANCED_FACE ( 'NONE', ( #748 ), #254, .T. ) ;
#182 = ORIENTED_EDGE ( 'NONE', *, *, #461, .F. ) ;
#183 = CARTESIAN_POINT ( 'NONE',  ( -27.49962090459423436, 23.99999999999999645, 1.589173171289351316 ) ) ;
#184 = CARTESIAN_POINT ( 'NONE',  ( 27.50037909540576209, 2.999999999999999112, -0.01082682871045467614 ) ) ;
#185 = EDGE_LOOP ( 'NONE', ( #555, #231, #771, #755 ) ) ;
#186 = AXIS2_PLACEMENT_3D ( 'NONE', #195, #489, #333 ) ;
#187 = CARTESIAN_POINT ( 'NONE',  ( -35.00000000000000711, 3.000000000000000000, 9.999999999999996447 ) ) ;
#188 = CARTESIAN_POINT ( 'NONE',  ( -20.00000000000000000, 20.99999999999999645, -10.00000000000000355 ) ) ;
#189 = ORIENTED_EDGE ( 'NONE', *, *, #50, .F. ) ;
#190 = EDGE_CURVE ( 'NONE', #459, #698, #326, .T. ) ;
#191 = CARTESIAN_POINT ( 'NONE',  ( 19.99999999999999645, 0.000000000000000000, -10.00000000000000711 ) ) ;
#192 = EDGE_CURVE ( 'NONE', #129, #69, #141, .T. ) ;
#193 = DIRECTION ( 'NONE',  ( 0.000000000000000000, 0.000000000000000000, -1.000000000000000000 ) ) ;
#194 = VERTEX_POINT ( 'NONE', #458 ) ;
#195 = CARTESIAN_POINT ( 'NONE',  ( 20.00000000000000000, 20.99999999999999645, -3.469446951953614189E-15 ) ) ;
#196 = EDGE_CURVE ( 'NONE', #171, #49, #734, .T. ) ;
#197 = LINE ( 'NONE', #490, #33 ) ;
#198 = ORIENTED_EDGE ( 'NONE', *, *, #667, .T. ) ;
#199 = DIRECTION ( 'NONE',  ( 0.000000000000000000, -0.000000000000000000, -1.000000000000000000 ) ) ;
#200 =( GEOMETRIC_REPRESENTATION_CONTEXT ( 3 ) GLOBAL_UNCERTAINTY_ASSIGNED_CONTEXT ( ( #727 ) ) GLOBAL_UNIT_ASSIGNED_CONTEXT ( ( #641, #438, #773 ) ) REPRESENTATION_CONTEXT ( 'NONE', 'WORKASPACE' ) );
#201 = CARTESIAN_POINT ( 'NONE',  ( -27.49962090459423436, 23.99999999999999645, -0.01082682871064670656 ) ) ;
#202 = CC_DESIGN_PERSON_AND_ORGANIZATION_ASSIGNMENT ( #446, #707, ( #158 ) ) ;
#203 = ADVANCED_FACE ( 'NONE', ( #666, #179 ), #474, .F. ) ;
#204 = ORIENTED_EDGE ( 'NONE', *, *, #786, .T. ) ;
#205 = CARTESIAN_POINT ( 'NONE',  ( 31.99999999999999289, 0.000000000000000000, -10.00000000000000355 ) ) ;
#206 = FACE_OUTER_BOUND ( 'NONE', #600, .T. ) ;
#207 = ORIENTED_EDGE ( 'NONE', *, *, #833, .F. ) ;
#208 = ORIENTED_EDGE ( 'NONE', *, *, #209, .T. ) ;
#209 = EDGE_CURVE ( 'NONE', #133, #72, #389, .T. ) ;
#210 = FACE_BOUND ( 'NONE', #862, .T. ) ;
#211 = DIRECTION ( 'NONE',  ( 0.000000000000000000, 0.000000000000000000, -1.000000000000000000 ) ) ;
#212 = ORIENTED_EDGE ( 'NONE', *, *, #229, .T. ) ;
#213 = DIRECTION ( 'NONE',  ( 0.000000000000000000, -1.000000000000000000, 0.000000000000000000 ) ) ;
#214 = VECTOR ( 'NONE', #403, 1000.000000000000000 ) ;
#215 = CARTESIAN_POINT ( 'NONE',  ( -20.00000000000000000, 20.99999999999999645, 0.000000000000000000 ) ) ;
#216 = LOCAL_TIME ( 6, 21, 1.000000000000000000, #378 ) ;
#217 = AXIS2_PLACEMENT_3D ( 'NONE', #785, #299, #777 ) ;
#218 = AXIS2_PLACEMENT_3D ( 'NONE', #77, #584, #211 ) ;
#219 = FACE_OUTER_BOUND ( 'NONE', #613, .T. ) ;
#220 = ORIENTED_EDGE ( 'NONE', *, *, #611, .F. ) ;
#221 = LINE ( 'NONE', #70, #46 ) ;
#222 = ADVANCED_FACE ( 'NONE', ( #316 ), #545, .F. ) ;
#223 = CARTESIAN_POINT ( 'NONE',  ( -35.00000000000000711, 3.000000000000000000, -7.000000000000004441 ) ) ;
#224 = EDGE_CURVE ( 'NONE', #908, #701, #885, .T. ) ;
#225 = LINE ( 'NONE', #843, #354 ) ;
#226 = VERTEX_POINT ( 'NONE', #243 ) ;
#227 = MECHANICAL_CONTEXT ( 'NONE', #274, 'mechanical' ) ;
#228 = CARTESIAN_POINT ( 'NONE',  ( 0.000000000000000000, 20.99999999999999645, -3.100000000000000089 ) ) ;
#229 = EDGE_CURVE ( 'NONE', #327, #348, #462, .T. ) ;
#230 = CARTESIAN_POINT ( 'NONE',  ( 0.000000000000000000, 0.000000000000000000, 0.000000000000000000 ) ) ;
#231 = ORIENTED_EDGE ( 'NONE', *, *, #440, .T. ) ;
#232 = CARTESIAN_POINT ( 'NONE',  ( 27.50037909540576209, 0.000000000000000000, -0.01082682871045467614 ) ) ;
#233 = CIRCLE ( 'NONE', #876, 2.999999999999999112 ) ;
#234 = CARTESIAN_POINT ( 'NONE',  ( 0.000000000000000000, 23.99999999999999645, -3.100000000000000089 ) ) ;
#235 = ADVANCED_FACE ( 'NONE', ( #35 ), #97, .F. ) ;
#236 = VECTOR ( 'NONE', #245, 1000.000000000000000 ) ;
#237 = ORIENTED_EDGE ( 'NONE', *, *, #451, .T. ) ;
#238 = DIRECTION ( 'NONE',  ( 0.000000000000000000, 0.000000000000000000, -1.000000000000000000 ) ) ;
#239 = FACE_OUTER_BOUND ( 'NONE', #472, .T. ) ;
#240 = VERTEX_POINT ( 'NONE', #42 ) ;
#241 = EDGE_CURVE ( 'NONE', #133, #567, #225, .T. ) ;
#242 = FACE_OUTER_BOUND ( 'NONE', #841, .T. ) ;
#243 = CARTESIAN_POINT ( 'NONE',  ( -27.49962090459423436, 0.000000000000000000, 1.589173171289351316 ) ) ;
#244 = ORIENTED_EDGE ( 'NONE', *, *, #756, .T. ) ;
#245 = DIRECTION ( 'NONE',  ( -0.000000000000000000, 0.000000000000000000, 1.000000000000000000 ) ) ;
#246 = CARTESIAN_POINT ( 'NONE',  ( 19.99999999999999645, 0.000000000000000000, -10.00000000000000711 ) ) ;
#247 = VECTOR ( 'NONE', #592, 1000.000000000000000 ) ;
#248 = ORIENTED_EDGE ( 'NONE', *, *, #23, .T. ) ;
#249 = VECTOR ( 'NONE', #430, 1000.000000000000000 ) ;
#250 = AXIS2_PLACEMENT_3D ( 'NONE', #188, #117, #687 ) ;
#251 = PERSON_AND_ORGANIZATION_ROLE ( 'creator' ) ;
#252 = DIRECTION ( 'NONE',  ( 0.000000000000000000, 0.000000000000000000, -1.000000000000000000 ) ) ;
#253 = EDGE_CURVE ( 'NONE', #459, #72, #562, .T. ) ;
#254 = CYLINDRICAL_SURFACE ( 'NONE', #750, 3.000000000000000000 ) ;
#255 = VERTEX_POINT ( 'NONE', #487 ) ;
#256 = CARTESIAN_POINT ( 'NONE',  ( 0.000000000000000000, 23.99999999999999645, 0.000000000000000000 ) ) ;
#257 = DIRECTION ( 'NONE',  ( 0.000000000000000000, 1.000000000000000000, -0.000000000000000000 ) ) ;
#258 = CC_DESIGN_PERSON_AND_ORGANIZATION_ASSIGNMENT ( #163, #251, ( #312 ) ) ;
#259 = ORIENTED_EDGE ( 'NONE', *, *, #135, .F. ) ;
#260 = DIRECTION ( 'NONE',  ( 0.000000000000000000, 0.000000000000000000, -1.000000000000000000 ) ) ;
#261 = DIRECTION ( 'NONE',  ( 0.000000000000000000, 0.000000000000000000, 1.000000000000000000 ) ) ;
#262 = EDGE_LOOP ( 'NONE', ( #921, #441, #635, #668, #277, #259 ) ) ;
#263 = EDGE_CURVE ( 'NONE', #27, #896, #233, .T. ) ;
#264 = VECTOR ( 'NONE', #26, 1000.000000000000000 ) ;
#265 = CIRCLE ( 'NONE', #78, 1.599999999999998090 ) ;
#266 = VECTOR ( 'NONE', #757, 1000.000000000000000 ) ;
#267 = FACE_OUTER_BOUND ( 'NONE', #629, .T. ) ;
#268 = DIRECTION ( 'NONE',  ( 0.000000000000000000, -1.000000000000000000, 0.000000000000000000 ) ) ;
#269 = VERTEX_POINT ( 'NONE', #479 ) ;
#270 = ADVANCED_FACE ( 'NONE', ( #124 ), #337, .F. ) ;
#271 = CARTESIAN_POINT ( 'NONE',  ( 23.00000000000000000, 20.99999999999999645, 9.999999999999994671 ) ) ;
#272 = DIRECTION ( 'NONE',  ( -0.000000000000000000, -0.000000000000000000, 1.000000000000000000 ) ) ;
#273 = EDGE_LOOP ( 'NONE', ( #912, #823, #157, #345 ) ) ;
#274 = APPLICATION_CONTEXT ( 'configuration controlled 3d designs of mechanical parts and assemblies' ) ;
#275 = CARTESIAN_POINT ( 'NONE',  ( -35.00000000000000711, 3.000000000000000000, 9.999999999999996447 ) ) ;
#276 = DIRECTION ( 'NONE',  ( -1.000000000000000000, -0.000000000000000000, -0.000000000000000000 ) ) ;
#277 = ORIENTED_EDGE ( 'NONE', *, *, #196, .F. ) ;
#278 = CIRCLE ( 'NONE', #736, 3.000000000000000000 ) ;
#279 = DIRECTION ( 'NONE',  ( 1.000000000000000000, 0.000000000000000000, 0.000000000000000000 ) ) ;
#280 = AXIS2_PLACEMENT_3D ( 'NONE', #605, #307, #238 ) ;
#281 = VECTOR ( 'NONE', #287, 1000.000000000000000 ) ;
#282 = DIRECTION ( 'NONE',  ( 0.000000000000000000, 0.000000000000000000, 1.000000000000000000 ) ) ;
#283 = EDGE_CURVE ( 'NONE', #151, #99, #554, .T. ) ;
#284 = ORIENTED_EDGE ( 'NONE', *, *, #190, .F. ) ;
#285 = ORIENTED_EDGE ( 'NONE', *, *, #486, .F. ) ;
#286 = DIRECTION ( 'NONE',  ( 0.000000000000000000, -1.000000000000000000, 0.000000000000000000 ) ) ;
#287 = DIRECTION ( 'NONE',  ( -0.000000000000000000, -1.000000000000000000, 0.000000000000000000 ) ) ;
#288 = ORIENTED_EDGE ( 'NONE', *, *, #887, .T. ) ;
#289 = ADVANCED_FACE ( 'NONE', ( #916 ), #56, .F. ) ;
#290 = DIRECTION ( 'NONE',  ( 0.000000000000000000, -1.000000000000000000, 0.000000000000000000 ) ) ;
#291 = LINE ( 'NONE', #515, #754 ) ;
#292 = EDGE_LOOP ( 'NONE', ( #871, #359, #13, #198 ) ) ;
#293 = CARTESIAN_POINT ( 'NONE',  ( 34.99999999999999289, 0.000000000000000000, 9.999999999999996447 ) ) ;
#294 = CYLINDRICAL_SURFACE ( 'NONE', #463, 1.599999999999998090 ) ;
#295 = AXIS2_PLACEMENT_3D ( 'NONE', #187, #711, #434 ) ;
#296 = CARTESIAN_POINT ( 'NONE',  ( 34.99999999999999289, 3.000000000000000000, 9.999999999999996447 ) ) ;
#297 = ORIENTED_EDGE ( 'NONE', *, *, #23, .F. ) ;
#298 = APPLICATION_PROTOCOL_DEFINITION ( 'international standard', 'config_control_design', 1994, #274 ) ;
#299 = DIRECTION ( 'NONE',  ( 0.000000000000000000, 1.000000000000000000, 0.000000000000000000 ) ) ;
#300 = FACE_OUTER_BOUND ( 'NONE', #65, .T. ) ;
#301 = DESIGN_CONTEXT ( 'detailed design', #923, 'design' ) ;
#302 = ORIENTED_EDGE ( 'NONE', *, *, #761, .F. ) ;
#303 = PERSON_AND_ORGANIZATION_ROLE ( 'design_supplier' ) ;
#304 = FACE_OUTER_BOUND ( 'NONE', #185, .T. ) ;
#305 = ORIENTED_EDGE ( 'NONE', *, *, #746, .F. ) ;
#306 = EDGE_LOOP ( 'NONE', ( #655, #180, #480, #810 ) ) ;
#307 = DIRECTION ( 'NONE',  ( 1.000000000000000000, 0.000000000000000000, 0.000000000000000000 ) ) ;
#308 = AXIS2_PLACEMENT_3D ( 'NONE', #105, #825, #91 ) ;
#309 = CARTESIAN_POINT ( 'NONE',  ( 23.00000000000000000, 3.000000000000000000, 9.999999999999996447 ) ) ;
#310 = CIRCLE ( 'NONE', #892, 3.000000000000000888 ) ;
#311 = EDGE_CURVE ( 'NONE', #908, #6, #278, .T. ) ;
#312 = PRODUCT_DEFINITION_FORMATION_WITH_SPECIFIED_SOURCE ( 'ANY', '', #158, .NOT_KNOWN. ) ;
#313 = VERTEX_POINT ( 'NONE', #120 ) ;
#314 = DATE_AND_TIME ( #807, #503 ) ;
#315 = CARTESIAN_POINT ( 'NONE',  ( 19.99999999999999645, 20.99999999999999645, -10.00000000000000355 ) ) ;
#316 = FACE_OUTER_BOUND ( 'NONE', #793, .T. ) ;
#317 = EDGE_LOOP ( 'NONE', ( #3, #106, #859, #353 ) ) ;
#318 = APPROVAL ( #159, 'UNSPECIFIED' ) ;
#319 = AXIS2_PLACEMENT_3D ( 'NONE', #677, #519, #803 ) ;
#320 = DIRECTION ( 'NONE',  ( -0.000000000000000000, 1.000000000000000000, -0.000000000000000000 ) ) ;
#321 = CARTESIAN_POINT ( 'NONE',  ( 0.000000000000000000, 23.99999999999999645, 0.000000000000000000 ) ) ;
#322 = EDGE_LOOP ( 'NONE', ( #212, #585 ) ) ;
#323 = COORDINATED_UNIVERSAL_TIME_OFFSET ( 7, 0, .AHEAD. ) ;
#324 = EDGE_CURVE ( 'NONE', #675, #731, #770, .T. ) ;
#325 = CARTESIAN_POINT ( 'NONE',  ( 19.99999999999999645, 23.99999999999999645, 9.999999999999994671 ) ) ;
#326 = LINE ( 'NONE', #331, #16 ) ;
#327 = VERTEX_POINT ( 'NONE', #483 ) ;
#328 = VECTOR ( 'NONE', #37, 1000.000000000000000 ) ;
#329 = CIRCLE ( 'NONE', #801, 3.000000000000000000 ) ;
#330 = CARTESIAN_POINT ( 'NONE',  ( -32.00000000000000711, 3.000000000000000000, 6.999999999999996447 ) ) ;
#331 = CARTESIAN_POINT ( 'NONE',  ( -35.00000000000000711, 3.000000000000000000, -10.00000000000000355 ) ) ;
#332 = ORIENTED_EDGE ( 'NONE', *, *, #98, .F. ) ;
#333 = DIRECTION ( 'NONE',  ( 1.000000000000000000, 0.000000000000000000, -1.734723475976806601E-16 ) ) ;
#334 = CYLINDRICAL_SURFACE ( 'NONE', #680, 3.100000000000000089 ) ;
#335 = ORIENTED_EDGE ( 'NONE', *, *, #190, .T. ) ;
#336 = LINE ( 'NONE', #426, #328 ) ;
#337 = PLANE ( 'NONE',  #136 ) ;
#338 = VERTEX_POINT ( 'NONE', #615 ) ;
#339 = EDGE_CURVE ( 'NONE', #338, #269, #197, .T. ) ;
#340 = AXIS2_PLACEMENT_3D ( 'NONE', #184, #889, #814 ) ;
#341 = AXIS2_PLACEMENT_3D ( 'NONE', #579, #290, #362 ) ;
#342 = AXIS2_PLACEMENT_3D ( 'NONE', #931, #856, #349 ) ;
#343 = DIRECTION ( 'NONE',  ( -0.000000000000000000, -1.000000000000000000, -0.000000000000000000 ) ) ;
#344 = DIRECTION ( 'NONE',  ( -1.000000000000000000, 0.000000000000000000, 0.000000000000000000 ) ) ;
#345 = ORIENTED_EDGE ( 'NONE', *, *, #864, .T. ) ;
#346 = DIRECTION ( 'NONE',  ( -0.000000000000000000, -1.000000000000000000, -0.000000000000000000 ) ) ;
#347 = DIRECTION ( 'NONE',  ( 1.000000000000000000, 0.000000000000000000, 0.000000000000000000 ) ) ;
#348 = VERTEX_POINT ( 'NONE', #565 ) ;
#349 = DIRECTION ( 'NONE',  ( 0.000000000000000000, 0.000000000000000000, -1.000000000000000000 ) ) ;
#350 = EDGE_CURVE ( 'NONE', #781, #509, #691, .T. ) ;
#351 = DIRECTION ( 'NONE',  ( -0.000000000000000000, -1.000000000000000000, -0.000000000000000000 ) ) ;
#352 = EDGE_LOOP ( 'NONE', ( #220, #128, #890, #882 ) ) ;
#353 = ORIENTED_EDGE ( 'NONE', *, *, #622, .T. ) ;
#354 = VECTOR ( 'NONE', #48, 1000.000000000000000 ) ;
#355 = VECTOR ( 'NONE', #435, 1000.000000000000000 ) ;
#356 = PERSON_AND_ORGANIZATION ( #115, #123 ) ;
#357 = AXIS2_PLACEMENT_3D ( 'NONE', #602, #86, #888 ) ;
#358 = DIRECTION ( 'NONE',  ( 0.000000000000000000, -1.000000000000000000, 0.000000000000000000 ) ) ;
#359 = ORIENTED_EDGE ( 'NONE', *, *, #324, .T. ) ;
#360 = ORIENTED_EDGE ( 'NONE', *, *, #583, .T. ) ;
#361 = CARTESIAN_POINT ( 'NONE',  ( -23.00000000000000000, 20.99999999999999645, 9.999999999999994671 ) ) ;
#362 = DIRECTION ( 'NONE',  ( 0.000000000000000000, 0.000000000000000000, -1.000000000000000000 ) ) ;
#363 = LINE ( 'NONE', #643, #64 ) ;
#364 = ADVANCED_FACE ( 'NONE', ( #839 ), #113, .F. ) ;
#365 = ORIENTED_EDGE ( 'NONE', *, *, #150, .T. ) ;
#366 = CARTESIAN_POINT ( 'NONE',  ( -23.00000000000000000, 23.99999999999999645, 9.999999999999994671 ) ) ;
#367 = DIRECTION ( 'NONE',  ( -0.000000000000000000, -0.000000000000000000, 1.000000000000000000 ) ) ;
#368 = EDGE_LOOP ( 'NONE', ( #132, #450, #488, #125 ) ) ;
#369 = ORIENTED_EDGE ( 'NONE', *, *, #109, .F. ) ;
#370 = MANIFOLD_SOLID_BREP ( 'Cut-Extrude4', #652 ) ;
#371 = EDGE_CURVE ( 'NONE', #111, #459, #683, .T. ) ;
#372 = CARTESIAN_POINT ( 'NONE',  ( -27.49962090459423436, 0.000000000000000000, -0.01082682871064670656 ) ) ;
#373 = VECTOR ( 'NONE', #399, 1000.000000000000000 ) ;
#374 = DIRECTION ( 'NONE',  ( 1.000000000000000000, -0.000000000000000000, 0.000000000000000000 ) ) ;
#375 = AXIS2_PLACEMENT_3D ( 'NONE', #315, #673, #880 ) ;
#376 = EDGE_LOOP ( 'NONE', ( #40, #496, #88, #917, #36, #237 ) ) ;
#377 = VERTEX_POINT ( 'NONE', #920 ) ;
#378 = COORDINATED_UNIVERSAL_TIME_OFFSET ( 7, 0, .AHEAD. ) ;
#379 = CARTESIAN_POINT ( 'NONE',  ( 19.99999999999999645, 20.99999999999999645, 9.999999999999996447 ) ) ;
#380 = LINE ( 'NONE', #296, #782 ) ;
#381 = VERTEX_POINT ( 'NONE', #697 ) ;
#382 = FACE_OUTER_BOUND ( 'NONE', #262, .T. ) ;
#383 = EDGE_CURVE ( 'NONE', #567, #509, #52, .T. ) ;
#384 = DIRECTION ( 'NONE',  ( -1.000000000000000000, -0.000000000000000000, -0.000000000000000000 ) ) ;
#385 = ORIENTED_EDGE ( 'NONE', *, *, #688, .T. ) ;
#386 = APPROVAL_DATE_TIME ( #314, #318 ) ;
#387 = CARTESIAN_POINT ( 'NONE',  ( 27.50037909540576209, 23.99999999999999645, -0.01082682871045467614 ) ) ;
#388 = AXIS2_PLACEMENT_3D ( 'NONE', #853, #500, #928 ) ;
#389 = LINE ( 'NONE', #612, #214 ) ;
#390 = AXIS2_PLACEMENT_3D ( 'NONE', #794, #152, #789 ) ;
#391 = AXIS2_PLACEMENT_3D ( 'NONE', #522, #926, #804 ) ;
#392 = ORIENTED_EDGE ( 'NONE', *, *, #864, .F. ) ;
#393 = PERSON_AND_ORGANIZATION ( #115, #123 ) ;
#394 = DIRECTION ( 'NONE',  ( 0.000000000000000000, 0.000000000000000000, -1.000000000000000000 ) ) ;
#395 = DIRECTION ( 'NONE',  ( 0.000000000000000000, 0.000000000000000000, -1.000000000000000000 ) ) ;
#396 = EDGE_CURVE ( 'NONE', #313, #269, #39, .T. ) ;
#397 = ORIENTED_EDGE ( 'NONE', *, *, #425, .T. ) ;
#398 = ADVANCED_FACE ( 'NONE', ( #632 ), #334, .F. ) ;
#399 = DIRECTION ( 'NONE',  ( -0.000000000000000000, -1.000000000000000000, -0.000000000000000000 ) ) ;
#400 = DIRECTION ( 'NONE',  ( 0.000000000000000000, 0.000000000000000000, -1.000000000000000000 ) ) ;
#401 = ORIENTED_EDGE ( 'NONE', *, *, #875, .F. ) ;
#402 = LINE ( 'NONE', #808, #247 ) ;
#403 = DIRECTION ( 'NONE',  ( 1.000000000000000000, 0.000000000000000000, 0.000000000000000000 ) ) ;
#404 = VECTOR ( 'NONE', #427, 1000.000000000000000 ) ;
#405 = VECTOR ( 'NONE', #76, 1000.000000000000000 ) ;
#406 = ORIENTED_EDGE ( 'NONE', *, *, #583, .F. ) ;
#407 = CIRCLE ( 'NONE', #342, 1.599999999999998090 ) ;
#408 = CIRCLE ( 'NONE', #250, 2.999999999999999112 ) ;
#409 = CARTESIAN_POINT ( 'NONE',  ( -35.00000000000000711, 3.000000000000000000, 9.999999999999996447 ) ) ;
#410 = CARTESIAN_POINT ( 'NONE',  ( -20.00000000000000355, 20.99999999999999645, -10.00000000000000355 ) ) ;
#411 = ORIENTED_EDGE ( 'NONE', *, *, #686, .T. ) ;
#412 = DIRECTION ( 'NONE',  ( -0.000000000000000000, 1.000000000000000000, -0.000000000000000000 ) ) ;
#413 = EDGE_CURVE ( 'NONE', #111, #616, #408, .T. ) ;
#414 = DIRECTION ( 'NONE',  ( -0.000000000000000000, -1.000000000000000000, -0.000000000000000000 ) ) ;
#415 = ORIENTED_EDGE ( 'NONE', *, *, #714, .T. ) ;
#416 = CARTESIAN_POINT ( 'NONE',  ( -20.00000000000000355, 20.99999999999999645, -10.00000000000000355 ) ) ;
#417 = CARTESIAN_POINT ( 'NONE',  ( 31.99999999999999289, 0.000000000000000000, -7.000000000000003553 ) ) ;
#418 = CC_DESIGN_DATE_AND_TIME_ASSIGNMENT ( #533, #597, ( #466 ) ) ;
#419 = VERTEX_POINT ( 'NONE', #924 ) ;
#420 = ORIENTED_EDGE ( 'NONE', *, *, #566, .T. ) ;
#421 = CC_DESIGN_SECURITY_CLASSIFICATION ( #466, ( #312 ) ) ;
#422 = FACE_OUTER_BOUND ( 'NONE', #702, .T. ) ;
#423 = DIRECTION ( 'NONE',  ( -0.000000000000000000, -1.000000000000000000, -0.000000000000000000 ) ) ;
#424 = ORIENTED_EDGE ( 'NONE', *, *, #648, .F. ) ;
#425 = EDGE_CURVE ( 'NONE', #428, #240, #865, .T. ) ;
#426 = CARTESIAN_POINT ( 'NONE',  ( -32.00000000000000711, 3.000000000000000000, -10.00000000000000355 ) ) ;
#427 = DIRECTION ( 'NONE',  ( -1.734723475976807094E-16, 0.000000000000000000, -1.000000000000000000 ) ) ;
#428 = VERTEX_POINT ( 'NONE', #223 ) ;
#429 = ORIENTED_EDGE ( 'NONE', *, *, #639, .F. ) ;
#430 = DIRECTION ( 'NONE',  ( -1.000000000000000000, -0.000000000000000000, -0.000000000000000000 ) ) ;
#431 = CARTESIAN_POINT ( 'NONE',  ( 27.50037909540576209, 23.99999999999999645, -1.610826828710452796 ) ) ;
#432 = ORIENTED_EDGE ( 'NONE', *, *, #50, .T. ) ;
#433 = ORIENTED_EDGE ( 'NONE', *, *, #761, .T. ) ;
#434 = DIRECTION ( 'NONE',  ( -1.000000000000000000, 0.000000000000000000, -0.000000000000000000 ) ) ;
#435 = DIRECTION ( 'NONE',  ( -0.000000000000000000, -1.000000000000000000, -0.000000000000000000 ) ) ;
#436 = CARTESIAN_POINT ( 'NONE',  ( 34.99999999999999289, 0.000000000000000000, -7.000000000000004441 ) ) ;
#437 = EDGE_LOOP ( 'NONE', ( #728, #162 ) ) ;
#438 =( NAMED_UNIT ( * ) PLANE_ANGLE_UNIT ( ) SI_UNIT ( $, .RADIAN. ) );
#439 = LINE ( 'NONE', #379, #521 ) ;
#440 = EDGE_CURVE ( 'NONE', #151, #121, #439, .T. ) ;
#441 = ORIENTED_EDGE ( 'NONE', *, *, #311, .T. ) ;
#442 = ORIENTED_EDGE ( 'NONE', *, *, #192, .T. ) ;
#443 = DIRECTION ( 'NONE',  ( 0.000000000000000000, -1.000000000000000000, 0.000000000000000000 ) ) ;
#444 = CYLINDRICAL_SURFACE ( 'NONE', #505, 3.000000000000000000 ) ;
#445 = ORIENTED_EDGE ( 'NONE', *, *, #10, .F. ) ;
#446 = PERSON_AND_ORGANIZATION ( #115, #123 ) ;
#447 = DIRECTION ( 'NONE',  ( 0.000000000000000000, 0.000000000000000000, -1.000000000000000000 ) ) ;
#448 = AXIS2_PLACEMENT_3D ( 'NONE', #256, #119, #764 ) ;
#449 = DIRECTION ( 'NONE',  ( 0.000000000000000000, 0.000000000000000000, -1.000000000000000000 ) ) ;
#450 = ORIENTED_EDGE ( 'NONE', *, *, #716, .F. ) ;
#451 = EDGE_CURVE ( 'NONE', #567, #805, #329, .T. ) ;
#452 = PERSON_AND_ORGANIZATION_ROLE ( 'classification_officer' ) ;
#453 = DIRECTION ( 'NONE',  ( -0.000000000000000000, -1.000000000000000000, -0.000000000000000000 ) ) ;
#454 = DIRECTION ( 'NONE',  ( 0.000000000000000000, -1.000000000000000000, 0.000000000000000000 ) ) ;
#455 = VERTEX_POINT ( 'NONE', #499 ) ;
#456 = SHAPE_DEFINITION_REPRESENTATION ( #12, #812 ) ;
#457 = CYLINDRICAL_SURFACE ( 'NONE', #780, 1.599999999999998090 ) ;
#458 = CARTESIAN_POINT ( 'NONE',  ( -27.49962090459423436, 0.000000000000000000, -1.610826828710644865 ) ) ;
#459 = VERTEX_POINT ( 'NONE', #774 ) ;
#460 = PLANE ( 'NONE',  #319 ) ;
#461 = EDGE_CURVE ( 'NONE', #69, #543, #66, .T. ) ;
#462 = CIRCLE ( 'NONE', #340, 1.599999999999998090 ) ;
#463 = AXIS2_PLACEMENT_3D ( 'NONE', #719, #852, #131 ) ;
#464 = ADVANCED_FACE ( 'NONE', ( #5 ), #569, .F. ) ;
#465 = DIRECTION ( 'NONE',  ( 0.000000000000000000, 0.000000000000000000, -1.000000000000000000 ) ) ;
#466 = SECURITY_CLASSIFICATION ( '', '', #811 ) ;
#467 = AXIS2_PLACEMENT_3D ( 'NONE', #653, #374, #708 ) ;
#468 = AXIS2_PLACEMENT_3D ( 'NONE', #161, #454, #570 ) ;
#469 = ORIENTED_EDGE ( 'NONE', *, *, #413, .T. ) ;
#470 = CARTESIAN_POINT ( 'NONE',  ( 31.99999999999999289, 3.000000000000000000, -7.000000000000003553 ) ) ;
#471 = DIRECTION ( 'NONE',  ( 0.000000000000000000, 0.000000000000000000, -1.000000000000000000 ) ) ;
#472 = EDGE_LOOP ( 'NONE', ( #590, #305, #207, #297 ) ) ;
#473 = LINE ( 'NONE', #524, #664 ) ;
#474 = PLANE ( 'NONE',  #308 ) ;
#475 = ORIENTED_EDGE ( 'NONE', *, *, #396, .T. ) ;
#476 = EDGE_CURVE ( 'NONE', #255, #377, #47, .T. ) ;
#477 = ORIENTED_EDGE ( 'NONE', *, *, #371, .F. ) ;
#478 = CARTESIAN_POINT ( 'NONE',  ( 27.50037909540576209, 23.99999999999999645, 1.589173171289543385 ) ) ;
#479 = CARTESIAN_POINT ( 'NONE',  ( 22.99999999999999645, 3.000000000000000000, -10.00000000000000355 ) ) ;
#480 = ORIENTED_EDGE ( 'NONE', *, *, #311, .F. ) ;
#481 = ADVANCED_FACE ( 'NONE', ( #573 ), #294, .F. ) ;
#482 = LINE ( 'NONE', #834, #537 ) ;
#483 = CARTESIAN_POINT ( 'NONE',  ( 27.50037909540576209, 2.999999999999999112, -1.610826828710452796 ) ) ;
#484 = ORIENTED_EDGE ( 'NONE', *, *, #716, .T. ) ;
#485 = LINE ( 'NONE', #271, #766 ) ;
#486 = EDGE_CURVE ( 'NONE', #338, #532, #857, .T. ) ;
#487 = CARTESIAN_POINT ( 'NONE',  ( 27.50037909540576209, 0.000000000000000000, 1.589173171289543385 ) ) ;
#488 = ORIENTED_EDGE ( 'NONE', *, *, #263, .F. ) ;
#489 = DIRECTION ( 'NONE',  ( 1.734723475976807094E-16, -0.000000000000000000, 1.000000000000000000 ) ) ;
#490 = CARTESIAN_POINT ( 'NONE',  ( 22.99999999999999645, 20.99999999999999645, -10.00000000000000355 ) ) ;
#491 = ADVANCED_FACE ( 'NONE', ( #638, #206 ), #790, .F. ) ;
#492 = ORIENTED_EDGE ( 'NONE', *, *, #772, .T. ) ;
#493 = VECTOR ( 'NONE', #279, 1000.000000000000000 ) ;
#494 = DIRECTION ( 'NONE',  ( 0.000000000000000000, -1.000000000000000000, 0.000000000000000000 ) ) ;
#495 = CARTESIAN_POINT ( 'NONE',  ( 0.000000000000000000, 23.99999999999999645, 0.000000000000000000 ) ) ;
#496 = ORIENTED_EDGE ( 'NONE', *, *, #557, .T. ) ;
#497 = CYLINDRICAL_SURFACE ( 'NONE', #576, 2.999999999999999112 ) ;
#498 = ORIENTED_EDGE ( 'NONE', *, *, #648, .T. ) ;
#499 = CARTESIAN_POINT ( 'NONE',  ( -20.00000000000000355, 0.000000000000000000, -10.00000000000000711 ) ) ;
#500 = DIRECTION ( 'NONE',  ( -0.000000000000000000, 1.000000000000000000, -0.000000000000000000 ) ) ;
#501 = ORIENTED_EDGE ( 'NONE', *, *, #784, .F. ) ;
#502 = VECTOR ( 'NONE', #624, 1000.000000000000000 ) ;
#503 = LOCAL_TIME ( 6, 21, 1.000000000000000000, #18 ) ;
#504 = CARTESIAN_POINT ( 'NONE',  ( 34.99999999999999289, 3.000000000000000000, -7.000000000000004441 ) ) ;
#505 = AXIS2_PLACEMENT_3D ( 'NONE', #874, #657, #140 ) ;
#506 = EDGE_CURVE ( 'NONE', #313, #908, #148, .T. ) ;
#507 = DIRECTION ( 'NONE',  ( -1.000000000000000000, 0.000000000000000000, 0.000000000000000000 ) ) ;
#508 = CARTESIAN_POINT ( 'NONE',  ( -20.00000000000000355, 20.99999999999999645, -10.00000000000000355 ) ) ;
#509 = VERTEX_POINT ( 'NONE', #71 ) ;
#510 = CARTESIAN_POINT ( 'NONE',  ( -32.00000000000000711, 0.000000000000000000, 6.999999999999996447 ) ) ;
#511 = FACE_OUTER_BOUND ( 'NONE', #376, .T. ) ;
#512 = ORIENTED_EDGE ( 'NONE', *, *, #925, .F. ) ;
#513 = CARTESIAN_POINT ( 'NONE',  ( -27.49962090459423436, 23.99999999999999645, -1.610826828710644865 ) ) ;
#514 = LINE ( 'NONE', #795, #44 ) ;
#515 = CARTESIAN_POINT ( 'NONE',  ( 34.99999999999999289, 3.000000000000000000, 6.999999999999996447 ) ) ;
#516 = EDGE_CURVE ( 'NONE', #327, #377, #656, .T. ) ;
#517 = ORIENTED_EDGE ( 'NONE', *, *, #930, .F. ) ;
#518 = VECTOR ( 'NONE', #257, 1000.000000000000000 ) ;
#519 = DIRECTION ( 'NONE',  ( 0.000000000000000000, -1.000000000000000000, 0.000000000000000000 ) ) ;
#520 = APPROVAL_PERSON_ORGANIZATION ( #356, #144, #75 ) ;
#521 = VECTOR ( 'NONE', #367, 1000.000000000000000 ) ;
#522 = CARTESIAN_POINT ( 'NONE',  ( -35.00000000000000711, 3.000000000000000000, -10.00000000000000355 ) ) ;
#523 = ORIENTED_EDGE ( 'NONE', *, *, #371, .T. ) ;
#524 = CARTESIAN_POINT ( 'NONE',  ( 22.99999999999999645, 3.000000000000000000, -10.00000000000000355 ) ) ;
#525 = CARTESIAN_POINT ( 'NONE',  ( 19.99999999999999645, 0.000000000000000000, 9.999999999999996447 ) ) ;
#526 = ORIENTED_EDGE ( 'NONE', *, *, #791, .F. ) ;
#527 = AXIS2_PLACEMENT_3D ( 'NONE', #330, #540, #394 ) ;
#528 = PERSON_AND_ORGANIZATION ( #115, #123 ) ;
#529 = ADVANCED_FACE ( 'NONE', ( #210, #304 ), #60, .F. ) ;
#530 = CARTESIAN_POINT ( 'NONE',  ( -32.00000000000000711, 3.000000000000000000, -10.00000000000000355 ) ) ;
#531 = CARTESIAN_POINT ( 'NONE',  ( -35.00000000000000711, 0.000000000000000000, -10.00000000000000355 ) ) ;
#532 = VERTEX_POINT ( 'NONE', #927 ) ;
#533 = DATE_AND_TIME ( #8, #216 ) ;
#534 = CARTESIAN_POINT ( 'NONE',  ( -32.00000000000000711, 3.000000000000000000, -7.000000000000004441 ) ) ;
#535 = ADVANCED_FACE ( 'NONE', ( #582 ), #497, .T. ) ;
#536 = CARTESIAN_POINT ( 'NONE',  ( -23.00000000000000000, 23.99999999999999645, -10.00000000000000355 ) ) ;
#537 = VECTOR ( 'NONE', #199, 1000.000000000000000 ) ;
#538 = VECTOR ( 'NONE', #423, 1000.000000000000000 ) ;
#539 = ORIENTED_EDGE ( 'NONE', *, *, #476, .T. ) ;
#540 = DIRECTION ( 'NONE',  ( -0.000000000000000000, 1.000000000000000000, -0.000000000000000000 ) ) ;
#541 = CC_DESIGN_PERSON_AND_ORGANIZATION_ASSIGNMENT ( #528, #303, ( #312 ) ) ;
#542 = CARTESIAN_POINT ( 'NONE',  ( -35.00000000000000711, 0.000000000000000000, 9.999999999999996447 ) ) ;
#543 = VERTEX_POINT ( 'NONE', #228 ) ;
#544 = CARTESIAN_POINT ( 'NONE',  ( 0.000000000000000000, 23.99999999999999645, 0.000000000000000000 ) ) ;
#545 = PLANE ( 'NONE',  #591 ) ;
#546 = ORIENTED_EDGE ( 'NONE', *, *, #253, .T. ) ;
#547 = EDGE_CURVE ( 'NONE', #455, #509, #514, .T. ) ;
#548 = FACE_OUTER_BOUND ( 'NONE', #763, .T. ) ;
#549 = DIRECTION ( 'NONE',  ( -0.000000000000000000, -1.000000000000000000, -0.000000000000000000 ) ) ;
#550 = VECTOR ( 'NONE', #618, 1000.000000000000000 ) ;
#551 = ORIENTED_EDGE ( 'NONE', *, *, #283, .T. ) ;
#552 = VECTOR ( 'NONE', #842, 1000.000000000000000 ) ;
#553 = CYLINDRICAL_SURFACE ( 'NONE', #186, 2.999999999999999112 ) ;
#554 = LINE ( 'NONE', #835, #502 ) ;
#555 = ORIENTED_EDGE ( 'NONE', *, *, #283, .F. ) ;
#556 = DIRECTION ( 'NONE',  ( 0.000000000000000000, 1.000000000000000000, 0.000000000000000000 ) ) ;
#557 = EDGE_CURVE ( 'NONE', #240, #604, #170, .T. ) ;
#558 = CARTESIAN_POINT ( 'NONE',  ( -23.00000000000000000, 20.99999999999999645, -10.00000000000000355 ) ) ;
#559 = ORIENTED_EDGE ( 'NONE', *, *, #855, .T. ) ;
#560 = CARTESIAN_POINT ( 'NONE',  ( 31.99999999999999289, 0.000000000000000000, 6.999999999999996447 ) ) ;
#561 = CC_DESIGN_DATE_AND_TIME_ASSIGNMENT ( #737, #95, ( #54 ) ) ;
#562 = LINE ( 'NONE', #765, #550 ) ;
#563 = VERTEX_POINT ( 'NONE', #813 ) ;
#564 = AXIS2_PLACEMENT_3D ( 'NONE', #160, #453, #25 ) ;
#565 = CARTESIAN_POINT ( 'NONE',  ( 27.50037909540576209, 2.999999999999999112, 1.589173171289543385 ) ) ;
#566 = EDGE_CURVE ( 'NONE', #6, #877, #402, .T. ) ;
#567 = VERTEX_POINT ( 'NONE', #96 ) ;
#568 = DATE_AND_TIME ( #922, #906 ) ;
#569 = PLANE ( 'NONE',  #467 ) ;
#570 = DIRECTION ( 'NONE',  ( 0.000000000000000000, 0.000000000000000000, -1.000000000000000000 ) ) ;
#571 = EDGE_CURVE ( 'NONE', #121, #171, #104, .T. ) ;
#572 = DIRECTION ( 'NONE',  ( 0.000000000000000000, 0.000000000000000000, -1.000000000000000000 ) ) ;
#573 = FACE_OUTER_BOUND ( 'NONE', #84, .T. ) ;
#574 = DIRECTION ( 'NONE',  ( 0.000000000000000000, -1.000000000000000000, 0.000000000000000000 ) ) ;
#575 = ORIENTED_EDGE ( 'NONE', *, *, #595, .F. ) ;
#576 = AXIS2_PLACEMENT_3D ( 'NONE', #215, #869, #507 ) ;
#577 = APPROVAL_PERSON_ORGANIZATION ( #872, #722, #89 ) ;
#578 = LINE ( 'NONE', #366, #493 ) ;
#579 = CARTESIAN_POINT ( 'NONE',  ( 27.50037909540576209, 0.000000000000000000, -0.01082682871045467614 ) ) ;
#580 = DIRECTION ( 'NONE',  ( 0.000000000000000000, -0.000000000000000000, -1.000000000000000000 ) ) ;
#581 = ORIENTED_EDGE ( 'NONE', *, *, #688, .F. ) ;
#582 = FACE_OUTER_BOUND ( 'NONE', #368, .T. ) ;
#583 = EDGE_CURVE ( 'NONE', #698, #428, #310, .T. ) ;
#584 = DIRECTION ( 'NONE',  ( -0.000000000000000000, -1.000000000000000000, 0.000000000000000000 ) ) ;
#585 = ORIENTED_EDGE ( 'NONE', *, *, #595, .T. ) ;
#586 = APPROVAL_STATUS ( 'not_yet_approved' ) ;
#587 = DIRECTION ( 'NONE',  ( 0.000000000000000000, -1.000000000000000000, 0.000000000000000000 ) ) ;
#588 = CC_DESIGN_PERSON_AND_ORGANIZATION_ASSIGNMENT ( #776, #134, ( #54 ) ) ;
#589 = PLANE ( 'NONE',  #391 ) ;
#590 = ORIENTED_EDGE ( 'NONE', *, *, #103, .F. ) ;
#591 = AXIS2_PLACEMENT_3D ( 'NONE', #599, #678, #898 ) ;
#592 = DIRECTION ( 'NONE',  ( -0.000000000000000000, 1.000000000000000000, -0.000000000000000000 ) ) ;
#593 = AXIS2_PLACEMENT_3D ( 'NONE', #544, #556, #769 ) ;
#594 = CARTESIAN_POINT ( 'NONE',  ( 31.99999999999999289, 3.000000000000000000, 6.999999999999996447 ) ) ;
#595 = EDGE_CURVE ( 'NONE', #348, #327, #265, .T. ) ;
#596 = ORIENTED_EDGE ( 'NONE', *, *, #38, .F. ) ;
#597 = DATE_TIME_ROLE ( 'classification_date' ) ;
#598 = DIRECTION ( 'NONE',  ( 0.000000000000000000, 0.000000000000000000, -1.000000000000000000 ) ) ;
#599 = CARTESIAN_POINT ( 'NONE',  ( 22.99999999999999645, 20.99999999999999645, -10.00000000000000355 ) ) ;
#600 = EDGE_LOOP ( 'NONE', ( #432, #411, #475, #581, #710, #742 ) ) ;
#601 = EDGE_CURVE ( 'NONE', #129, #381, #729, .T. ) ;
#602 = CARTESIAN_POINT ( 'NONE',  ( 20.00000000000000355, 20.99999999999999645, 9.999999999999996447 ) ) ;
#603 = DIRECTION ( 'NONE',  ( 1.000000000000000000, 0.000000000000000000, 0.000000000000000000 ) ) ;
#604 = VERTEX_POINT ( 'NONE', #659 ) ;
#605 = CARTESIAN_POINT ( 'NONE',  ( -23.00000000000000000, 20.99999999999999645, -10.00000000000000355 ) ) ;
#606 = VECTOR ( 'NONE', #884, 1000.000000000000000 ) ;
#607 = DIRECTION ( 'NONE',  ( -1.000000000000000000, -0.000000000000000000, -0.000000000000000000 ) ) ;
#608 = AXIS2_PLACEMENT_3D ( 'NONE', #372, #213, #651 ) ;
#609 = ORIENTED_EDGE ( 'NONE', *, *, #915, .T. ) ;
#610 = LINE ( 'NONE', #627, #62 ) ;
#611 = EDGE_CURVE ( 'NONE', #767, #133, #85, .T. ) ;
#612 = CARTESIAN_POINT ( 'NONE',  ( -35.00000000000000711, 3.000000000000000000, 9.999999999999996447 ) ) ;
#613 = EDGE_LOOP ( 'NONE', ( #788, #658, #799, #401, #551, #672, #705, #929, #284, #477, #469, #369, #854, #74 ) ) ;
#614 = CARTESIAN_POINT ( 'NONE',  ( 31.99999999999999289, 3.000000000000000000, 9.999999999999996447 ) ) ;
#615 = CARTESIAN_POINT ( 'NONE',  ( 22.99999999999999645, 20.99999999999999645, -10.00000000000000355 ) ) ;
#616 = VERTEX_POINT ( 'NONE', #90 ) ;
#617 = DIRECTION ( 'NONE',  ( -0.000000000000000000, -0.000000000000000000, 1.000000000000000000 ) ) ;
#618 = DIRECTION ( 'NONE',  ( 0.000000000000000000, 0.000000000000000000, 1.000000000000000000 ) ) ;
#619 = CIRCLE ( 'NONE', #723, 3.000000000000000000 ) ;
#620 = AXIS2_PLACEMENT_3D ( 'NONE', #145, #645, #642 ) ;
#621 = ORIENTED_EDGE ( 'NONE', *, *, #339, .F. ) ;
#622 = EDGE_CURVE ( 'NONE', #377, #255, #712, .T. ) ;
#623 = DIRECTION ( 'NONE',  ( -0.000000000000000000, -0.000000000000000000, -1.000000000000000000 ) ) ;
#624 = DIRECTION ( 'NONE',  ( -1.000000000000000000, -0.000000000000000000, -0.000000000000000000 ) ) ;
#625 = ORIENTED_EDGE ( 'NONE', *, *, #875, .T. ) ;
#626 = ADVANCED_FACE ( 'NONE', ( #739, #382 ), #460, .T. ) ;
#627 = CARTESIAN_POINT ( 'NONE',  ( 31.99999999999999289, 3.000000000000000000, 9.999999999999996447 ) ) ;
#628 = CARTESIAN_POINT ( 'NONE',  ( -35.00000000000000711, 3.000000000000000000, -10.00000000000000355 ) ) ;
#629 = EDGE_LOOP ( 'NONE', ( #424, #285, #429, #647 ) ) ;
#630 = DIRECTION ( 'NONE',  ( -0.000000000000000000, -1.000000000000000000, -0.000000000000000000 ) ) ;
#631 = ADVANCED_FACE ( 'NONE', ( #242 ), #670, .F. ) ;
#632 = FACE_OUTER_BOUND ( 'NONE', #273, .T. ) ;
#633 = VECTOR ( 'NONE', #603, 1000.000000000000000 ) ;
#634 = ORIENTED_EDGE ( 'NONE', *, *, #772, .F. ) ;
#635 = ORIENTED_EDGE ( 'NONE', *, *, #915, .F. ) ;
#636 = LOCAL_TIME ( 6, 21, 1.000000000000000000, #177 ) ;
#637 = DIRECTION ( 'NONE',  ( -0.000000000000000000, -1.000000000000000000, -0.000000000000000000 ) ) ;
#638 = FACE_BOUND ( 'NONE', #322, .T. ) ;
#639 = EDGE_CURVE ( 'NONE', #731, #338, #692, .T. ) ;
#640 = ORIENTED_EDGE ( 'NONE', *, *, #168, .T. ) ;
#641 =( LENGTH_UNIT ( ) NAMED_UNIT ( * ) SI_UNIT ( .MILLI., .METRE. ) );
#642 = DIRECTION ( 'NONE',  ( 0.000000000000000000, -0.000000000000000000, -1.000000000000000000 ) ) ;
#643 = CARTESIAN_POINT ( 'NONE',  ( -23.00000000000000000, 20.99999999999999645, 9.999999999999994671 ) ) ;
#644 = EDGE_LOOP ( 'NONE', ( #609, #420, #189, #248 ) ) ;
#645 = DIRECTION ( 'NONE',  ( 0.000000000000000000, -1.000000000000000000, 0.000000000000000000 ) ) ;
#646 = CARTESIAN_POINT ( 'NONE',  ( -27.49962090459423436, 0.000000000000000000, -0.01082682871064670656 ) ) ;
#647 = ORIENTED_EDGE ( 'NONE', *, *, #324, .F. ) ;
#648 = EDGE_CURVE ( 'NONE', #532, #675, #1, .T. ) ;
#649 = AXIS2_PLACEMENT_3D ( 'NONE', #560, #494, #260 ) ;
#650 = VECTOR ( 'NONE', #347, 1000.000000000000000 ) ;
#651 = DIRECTION ( 'NONE',  ( 0.000000000000000000, 0.000000000000000000, -1.000000000000000000 ) ) ;
#652 = CLOSED_SHELL ( 'NONE', ( #481, #631, #235, #626, #203, #491, #270, #80, #733, #844, #28, #222, #464, #364, #676, #529, #797, #398, #21, #130, #67, #181, #818, #535, #289, #694 ) ) ;
#653 = CARTESIAN_POINT ( 'NONE',  ( 19.99999999999999645, 20.99999999999999645, 9.999999999999996447 ) ) ;
#654 = EDGE_LOOP ( 'NONE', ( #745, #93, #684, #526 ) ) ;
#655 = ORIENTED_EDGE ( 'NONE', *, *, #686, .F. ) ;
#656 = LINE ( 'NONE', #431, #355 ) ;
#657 = DIRECTION ( 'NONE',  ( 0.000000000000000000, -1.000000000000000000, 0.000000000000000000 ) ) ;
#658 = ORIENTED_EDGE ( 'NONE', *, *, #506, .T. ) ;
#659 = CARTESIAN_POINT ( 'NONE',  ( -32.00000000000000711, 0.000000000000000000, -10.00000000000000355 ) ) ;
#660 = DIRECTION ( 'NONE',  ( -0.000000000000000000, -1.000000000000000000, -0.000000000000000000 ) ) ;
#661 = ORIENTED_EDGE ( 'NONE', *, *, #440, .F. ) ;
#662 = VECTOR ( 'NONE', #630, 1000.000000000000000 ) ;
#663 = DIRECTION ( 'NONE',  ( -0.000000000000000000, -1.000000000000000000, -0.000000000000000000 ) ) ;
#664 = VECTOR ( 'NONE', #164, 1000.000000000000000 ) ;
#665 = VECTOR ( 'NONE', #384, 1000.000000000000000 ) ;
#666 = FACE_BOUND ( 'NONE', #7, .T. ) ;
#667 = EDGE_CURVE ( 'NONE', #616, #27, #14, .T. ) ;
#668 = ORIENTED_EDGE ( 'NONE', *, *, #833, .T. ) ;
#669 = PERSON_AND_ORGANIZATION ( #115, #123 ) ;
#670 = CYLINDRICAL_SURFACE ( 'NONE', #564, 1.599999999999998090 ) ;
#671 = DIRECTION ( 'NONE',  ( 0.000000000000000000, -1.000000000000000000, 0.000000000000000000 ) ) ;
#672 = ORIENTED_EDGE ( 'NONE', *, *, #827, .T. ) ;
#673 = DIRECTION ( 'NONE',  ( -0.000000000000000000, -0.000000000000000000, -1.000000000000000000 ) ) ;
#674 = CARTESIAN_POINT ( 'NONE',  ( -35.00000000000000711, 3.000000000000000000, 6.999999999999996447 ) ) ;
#675 = VERTEX_POINT ( 'NONE', #325 ) ;
#676 = ADVANCED_FACE ( 'NONE', ( #100 ), #174, .F. ) ;
#677 = CARTESIAN_POINT ( 'NONE',  ( 0.000000000000000000, 0.000000000000000000, 0.000000000000000000 ) ) ;
#678 = DIRECTION ( 'NONE',  ( -1.000000000000000000, 0.000000000000000000, 1.734723475976807094E-16 ) ) ;
#679 = VECTOR ( 'NONE', #617, 1000.000000000000000 ) ;
#680 = AXIS2_PLACEMENT_3D ( 'NONE', #495, #549, #830 ) ;
#681 = VERTEX_POINT ( 'NONE', #19 ) ;
#682 = DIRECTION ( 'NONE',  ( 0.000000000000000000, 0.000000000000000000, -1.000000000000000000 ) ) ;
#683 = LINE ( 'NONE', #558, #538 ) ;
#684 = ORIENTED_EDGE ( 'NONE', *, *, #827, .F. ) ;
#685 = CARTESIAN_POINT ( 'NONE',  ( -35.00000000000000711, 0.000000000000000000, 9.999999999999996447 ) ) ;
#686 = EDGE_CURVE ( 'NONE', #877, #313, #619, .T. ) ;
#687 = DIRECTION ( 'NONE',  ( 1.000000000000000000, 0.000000000000000000, 0.000000000000000000 ) ) ;
#688 = EDGE_CURVE ( 'NONE', #118, #269, #473, .T. ) ;
#689 = ORIENTED_EDGE ( 'NONE', *, *, #209, .F. ) ;
#690 = FACE_OUTER_BOUND ( 'NONE', #292, .T. ) ;
#691 = LINE ( 'NONE', #752, #2 ) ;
#692 = CIRCLE ( 'NONE', #375, 2.999999999999999112 ) ;
#693 = ORIENTED_EDGE ( 'NONE', *, *, #557, .F. ) ;
#694 = ADVANCED_FACE ( 'NONE', ( #167 ), #457, .F. ) ;
#695 = ORIENTED_EDGE ( 'NONE', *, *, #241, .T. ) ;
#696 = PLANE ( 'NONE',  #753 ) ;
#697 = CARTESIAN_POINT ( 'NONE',  ( 3.796405077356794918E-16, 20.99999999999999645, 3.100000000000000089 ) ) ;
#698 = VERTEX_POINT ( 'NONE', #530 ) ;
#699 = CARTESIAN_POINT ( 'NONE',  ( -23.00000000000000000, 20.99999999999999645, 9.999999999999994671 ) ) ;
#700 = CARTESIAN_POINT ( 'NONE',  ( 19.99999999999999645, 23.99999999999999645, -10.00000000000000355 ) ) ;
#701 = VERTEX_POINT ( 'NONE', #191 ) ;
#702 = EDGE_LOOP ( 'NONE', ( #501, #397, #244, #365 ) ) ;
#703 = EDGE_CURVE ( 'NONE', #563, #226, #51, .T. ) ;
#704 = CARTESIAN_POINT ( 'NONE',  ( 23.00000000000000000, 20.99999999999999645, 9.999999999999994671 ) ) ;
#705 = ORIENTED_EDGE ( 'NONE', *, *, #903, .T. ) ;
#706 = CC_DESIGN_APPROVAL ( #144, ( #54 ) ) ;
#707 = PERSON_AND_ORGANIZATION_ROLE ( 'design_owner' ) ;
#708 = DIRECTION ( 'NONE',  ( 0.000000000000000000, 0.000000000000000000, -1.000000000000000000 ) ) ;
#709 = DIRECTION ( 'NONE',  ( 0.000000000000000000, -1.000000000000000000, 0.000000000000000000 ) ) ;
#710 = ORIENTED_EDGE ( 'NONE', *, *, #38, .T. ) ;
#711 = DIRECTION ( 'NONE',  ( 0.000000000000000000, 0.000000000000000000, -1.000000000000000000 ) ) ;
#712 = CIRCLE ( 'NONE', #837, 1.599999999999998090 ) ;
#713 = CARTESIAN_POINT ( 'NONE',  ( 0.000000000000000000, 23.99999999999999645, -3.100000000000000089 ) ) ;
#714 = EDGE_CURVE ( 'NONE', #348, #255, #824, .T. ) ;
#715 = ORIENTED_EDGE ( 'NONE', *, *, #601, .T. ) ;
#716 = EDGE_CURVE ( 'NONE', #896, #111, #482, .T. ) ;
#717 = ORIENTED_EDGE ( 'NONE', *, *, #253, .F. ) ;
#718 = APPROVAL_STATUS ( 'not_yet_approved' ) ;
#719 = CARTESIAN_POINT ( 'NONE',  ( 27.50037909540576209, 23.99999999999999645, -0.01082682871045467614 ) ) ;
#720 = CYLINDRICAL_SURFACE ( 'NONE', #218, 3.000000000000000888 ) ;
#721 = ORIENTED_EDGE ( 'NONE', *, *, #192, .F. ) ;
#722 = APPROVAL ( #586, 'UNSPECIFIED' ) ;
#723 = AXIS2_PLACEMENT_3D ( 'NONE', #470, #821, #178 ) ;
#724 = COORDINATED_UNIVERSAL_TIME_OFFSET ( 7, 0, .AHEAD. ) ;
#725 = DIRECTION ( 'NONE',  ( -0.000000000000000000, -1.000000000000000000, -0.000000000000000000 ) ) ;
#726 = CARTESIAN_POINT ( 'NONE',  ( -35.00000000000000711, 3.000000000000000000, 9.999999999999996447 ) ) ;
#727 = UNCERTAINTY_MEASURE_WITH_UNIT (LENGTH_MEASURE( 1.000000000000000082E-05 ), #641, 'distance_accuracy_value', 'NONE');
#728 = ORIENTED_EDGE ( 'NONE', *, *, #622, .F. ) ;
#729 = LINE ( 'NONE', #873, #606 ) ;
#730 = CARTESIAN_POINT ( 'NONE',  ( 0.000000000000000000, 23.99999999999999645, 0.000000000000000000 ) ) ;
#731 = VERTEX_POINT ( 'NONE', #910 ) ;
#732 = CARTESIAN_POINT ( 'NONE',  ( 27.50037909540576209, 2.999999999999999112, -0.01082682871045467614 ) ) ;
#733 = ADVANCED_FACE ( 'NONE', ( #422 ), #696, .F. ) ;
#734 = LINE ( 'NONE', #542, #633 ) ;
#735 = ORIENTED_EDGE ( 'NONE', *, *, #516, .F. ) ;
#736 = AXIS2_PLACEMENT_3D ( 'NONE', #417, #268, #762 ) ;
#737 = DATE_AND_TIME ( #802, #636 ) ;
#738 = VECTOR ( 'NONE', #343, 1000.000000000000000 ) ;
#739 = FACE_BOUND ( 'NONE', #437, .T. ) ;
#740 = CIRCLE ( 'NONE', #468, 1.599999999999998090 ) ;
#741 = CARTESIAN_POINT ( 'NONE',  ( 0.000000000000000000, 20.99999999999999645, 0.000000000000000000 ) ) ;
#742 = ORIENTED_EDGE ( 'NONE', *, *, #103, .T. ) ;
#743 = DIRECTION ( 'NONE',  ( 0.000000000000000000, -1.000000000000000000, 0.000000000000000000 ) ) ;
#744 = LINE ( 'NONE', #674, #518 ) ;
#745 = ORIENTED_EDGE ( 'NONE', *, *, #350, .T. ) ;
#746 = EDGE_CURVE ( 'NONE', #49, #826, #610, .T. ) ;
#747 = DIRECTION ( 'NONE',  ( 0.000000000000000000, 0.000000000000000000, -1.000000000000000000 ) ) ;
#748 = FACE_OUTER_BOUND ( 'NONE', #352, .T. ) ;
#749 = EDGE_LOOP ( 'NONE', ( #721, #715, #640, #182 ) ) ;
#750 = AXIS2_PLACEMENT_3D ( 'NONE', #165, #87, #465 ) ;
#751 = DIRECTION ( 'NONE',  ( -0.000000000000000000, -1.000000000000000000, -0.000000000000000000 ) ) ;
#752 = CARTESIAN_POINT ( 'NONE',  ( -20.00000000000000355, 20.99999999999999645, 9.999999999999996447 ) ) ;
#753 = AXIS2_PLACEMENT_3D ( 'NONE', #275, #122, #682 ) ;
#754 = VECTOR ( 'NONE', #709, 1000.000000000000000 ) ;
#755 = ORIENTED_EDGE ( 'NONE', *, *, #791, .T. ) ;
#756 = EDGE_CURVE ( 'NONE', #240, #805, #897, .T. ) ;
#757 = DIRECTION ( 'NONE',  ( -0.000000000000000000, -0.000000000000000000, 1.000000000000000000 ) ) ;
#758 = CARTESIAN_POINT ( 'NONE',  ( -20.00000000000000000, 20.99999999999999645, 9.999999999999996447 ) ) ;
#759 = ORIENTED_EDGE ( 'NONE', *, *, #10, .T. ) ;
#760 = CARTESIAN_POINT ( 'NONE',  ( -20.00000000000000355, 20.99999999999999645, 9.999999999999996447 ) ) ;
#761 = EDGE_CURVE ( 'NONE', #532, #118, #485, .T. ) ;
#762 = DIRECTION ( 'NONE',  ( 0.000000000000000000, 0.000000000000000000, -1.000000000000000000 ) ) ;
#763 = EDGE_LOOP ( 'NONE', ( #832, #820, #596, #302, #498, #517, #902, #492, #689, #695, #775, #166, #53, #17 ) ) ;
#764 = DIRECTION ( 'NONE',  ( 0.000000000000000000, 0.000000000000000000, -1.000000000000000000 ) ) ;
#765 = CARTESIAN_POINT ( 'NONE',  ( -23.00000000000000000, 3.000000000000000000, -10.00000000000000355 ) ) ;
#766 = VECTOR ( 'NONE', #751, 1000.000000000000000 ) ;
#767 = VERTEX_POINT ( 'NONE', #41 ) ;
#768 = AXIS2_PLACEMENT_3D ( 'NONE', #230, #574, #580 ) ;
#769 = DIRECTION ( 'NONE',  ( 0.000000000000000000, -0.000000000000000000, 1.000000000000000000 ) ) ;
#770 = LINE ( 'NONE', #700, #404 ) ;
#771 = ORIENTED_EDGE ( 'NONE', *, *, #59, .F. ) ;
#772 = EDGE_CURVE ( 'NONE', #896, #72, #45, .T. ) ;
#773 =( NAMED_UNIT ( * ) SI_UNIT ( $, .STERADIAN. ) SOLID_ANGLE_UNIT ( ) );
#774 = CARTESIAN_POINT ( 'NONE',  ( -23.00000000000000000, 3.000000000000000000, -10.00000000000000355 ) ) ;
#775 = ORIENTED_EDGE ( 'NONE', *, *, #383, .T. ) ;
#776 = PERSON_AND_ORGANIZATION ( #115, #123 ) ;
#777 = DIRECTION ( 'NONE',  ( 0.000000000000000000, -0.000000000000000000, 1.000000000000000000 ) ) ;
#778 = AXIS2_PLACEMENT_3D ( 'NONE', #321, #895, #471 ) ;
#779 = CARTESIAN_POINT ( 'NONE',  ( 31.99999999999999289, 0.000000000000000000, 9.999999999999996447 ) ) ;
#780 = AXIS2_PLACEMENT_3D ( 'NONE', #387, #663, #598 ) ;
#781 = VERTEX_POINT ( 'NONE', #760 ) ;
#782 = VECTOR ( 'NONE', #866, 1000.000000000000000 ) ;
#783 = LINE ( 'NONE', #293, #893 ) ;
#784 = EDGE_CURVE ( 'NONE', #428, #767, #116, .T. ) ;
#785 = CARTESIAN_POINT ( 'NONE',  ( 0.000000000000000000, 20.99999999999999645, 0.000000000000000000 ) ) ;
#786 = EDGE_CURVE ( 'NONE', #69, #129, #800, .T. ) ;
#787 = DIRECTION ( 'NONE',  ( 1.000000000000000000, 0.000000000000000000, 0.000000000000000000 ) ) ;
#788 = ORIENTED_EDGE ( 'NONE', *, *, #396, .F. ) ;
#789 = DIRECTION ( 'NONE',  ( 1.000000000000000000, 0.000000000000000000, 0.000000000000000000 ) ) ;
#790 = PLANE ( 'NONE',  #620 ) ;
#791 = EDGE_CURVE ( 'NONE', #781, #99, #112, .T. ) ;
#792 = DIRECTION ( 'NONE',  ( 0.000000000000000000, -1.000000000000000000, 0.000000000000000000 ) ) ;
#793 = EDGE_LOOP ( 'NONE', ( #621, #102, #433, #385 ) ) ;
#794 = CARTESIAN_POINT ( 'NONE',  ( 0.000000000000000000, 0.000000000000000000, 0.000000000000000000 ) ) ;
#795 = CARTESIAN_POINT ( 'NONE',  ( -20.00000000000000355, 0.000000000000000000, -10.00000000000000711 ) ) ;
#796 = FACE_OUTER_BOUND ( 'NONE', #306, .T. ) ;
#797 = ADVANCED_FACE ( 'NONE', ( #126, #690 ), #905, .T. ) ;
#798 = AXIS2_PLACEMENT_3D ( 'NONE', #201, #414, #193 ) ;
#799 = ORIENTED_EDGE ( 'NONE', *, *, #224, .T. ) ;
#800 = CIRCLE ( 'NONE', #448, 3.100000000000000089 ) ;
#801 = AXIS2_PLACEMENT_3D ( 'NONE', #510, #358, #137 ) ;
#802 = CALENDAR_DATE ( 2025, 5, 10 ) ;
#803 = DIRECTION ( 'NONE',  ( 0.000000000000000000, -0.000000000000000000, -1.000000000000000000 ) ) ;
#804 = DIRECTION ( 'NONE',  ( 1.000000000000000000, 0.000000000000000000, -0.000000000000000000 ) ) ;
#805 = VERTEX_POINT ( 'NONE', #838 ) ;
#806 = EDGE_CURVE ( 'NONE', #604, #698, #336, .T. ) ;
#807 = CALENDAR_DATE ( 2025, 5, 10 ) ;
#808 = CARTESIAN_POINT ( 'NONE',  ( 34.99999999999999289, 3.000000000000000000, -7.000000000000004441 ) ) ;
#809 = CARTESIAN_POINT ( 'NONE',  ( -23.00000000000000000, 20.99999999999999645, -10.00000000000000355 ) ) ;
#810 = ORIENTED_EDGE ( 'NONE', *, *, #506, .F. ) ;
#811 = SECURITY_CLASSIFICATION_LEVEL ( 'unclassified' ) ;
#812 = ADVANCED_BREP_SHAPE_REPRESENTATION ( 'CAMERA_HUB', ( #370, #390 ), #200 ) ;
#813 = CARTESIAN_POINT ( 'NONE',  ( -27.49962090459423436, 2.999999999999999112, 1.589173171289351316 ) ) ;
#814 = DIRECTION ( 'NONE',  ( 0.000000000000000000, 0.000000000000000000, -1.000000000000000000 ) ) ;
#815 = ORIENTED_EDGE ( 'NONE', *, *, #98, .T. ) ;
#816 = CC_DESIGN_APPROVAL ( #722, ( #466 ) ) ;
#817 = DIRECTION ( 'NONE',  ( 0.000000000000000000, 0.000000000000000000, -1.000000000000000000 ) ) ;
#818 = ADVANCED_FACE ( 'NONE', ( #267 ), #553, .T. ) ;
#819 = CYLINDRICAL_SURFACE ( 'NONE', #92, 3.000000000000000000 ) ;
#820 = ORIENTED_EDGE ( 'NONE', *, *, #746, .T. ) ;
#821 = DIRECTION ( 'NONE',  ( -0.000000000000000000, 1.000000000000000000, -0.000000000000000000 ) ) ;
#822 = LINE ( 'NONE', #246, #858 ) ;
#823 = ORIENTED_EDGE ( 'NONE', *, *, #786, .F. ) ;
#824 = LINE ( 'NONE', #478, #552 ) ;
#825 = DIRECTION ( 'NONE',  ( 0.000000000000000000, -1.000000000000000000, 0.000000000000000000 ) ) ;
#826 = VERTEX_POINT ( 'NONE', #614 ) ;
#827 = EDGE_CURVE ( 'NONE', #99, #455, #914, .T. ) ;
#828 = AXIS2_PLACEMENT_3D ( 'NONE', #730, #660, #15 ) ;
#829 = PLANE ( 'NONE',  #295 ) ;
#830 = DIRECTION ( 'NONE',  ( 0.000000000000000000, 0.000000000000000000, -1.000000000000000000 ) ) ;
#831 = APPROVAL_PERSON_ORGANIZATION ( #393, #318, #81 ) ;
#832 = ORIENTED_EDGE ( 'NONE', *, *, #196, .T. ) ;
#833 = EDGE_CURVE ( 'NONE', #681, #49, #32, .T. ) ;
#834 = CARTESIAN_POINT ( 'NONE',  ( -23.00000000000000000, 20.99999999999999645, -10.00000000000000355 ) ) ;
#835 = CARTESIAN_POINT ( 'NONE',  ( -23.00000000000000000, 20.99999999999999645, -10.00000000000000355 ) ) ;
#836 = ORIENTED_EDGE ( 'NONE', *, *, #855, .F. ) ;
#837 = AXIS2_PLACEMENT_3D ( 'NONE', #232, #743, #817 ) ;
#838 = CARTESIAN_POINT ( 'NONE',  ( -35.00000000000000711, 0.000000000000000000, 6.999999999999996447 ) ) ;
#839 = FACE_OUTER_BOUND ( 'NONE', #654, .T. ) ;
#840 = ORIENTED_EDGE ( 'NONE', *, *, #571, .F. ) ;
#841 = EDGE_LOOP ( 'NONE', ( #836, #867, #759, #512 ) ) ;
#842 = DIRECTION ( 'NONE',  ( -0.000000000000000000, -1.000000000000000000, -0.000000000000000000 ) ) ;
#843 = CARTESIAN_POINT ( 'NONE',  ( -32.00000000000000711, 3.000000000000000000, 9.999999999999996447 ) ) ;
#844 = ADVANCED_FACE ( 'NONE', ( #548 ), #829, .F. ) ;
#845 = VECTOR ( 'NONE', #900, 1000.000000000000000 ) ;
#846 = ORIENTED_EDGE ( 'NONE', *, *, #135, .T. ) ;
#847 = DIRECTION ( 'NONE',  ( 0.000000000000000000, 0.000000000000000000, -1.000000000000000000 ) ) ;
#848 = CARTESIAN_POINT ( 'NONE',  ( -35.00000000000000711, 0.000000000000000000, 9.999999999999996447 ) ) ;
#849 = ORIENTED_EDGE ( 'NONE', *, *, #611, .T. ) ;
#850 = ORIENTED_EDGE ( 'NONE', *, *, #925, .T. ) ;
#851 = APPROVAL_DATE_TIME ( #568, #144 ) ;
#852 = DIRECTION ( 'NONE',  ( -0.000000000000000000, -1.000000000000000000, -0.000000000000000000 ) ) ;
#853 = CARTESIAN_POINT ( 'NONE',  ( 31.99999999999999289, 3.000000000000000000, 6.999999999999996447 ) ) ;
#854 = ORIENTED_EDGE ( 'NONE', *, *, #639, .T. ) ;
#855 = EDGE_CURVE ( 'NONE', #563, #419, #407, .T. ) ;
#856 = DIRECTION ( 'NONE',  ( 0.000000000000000000, -1.000000000000000000, 0.000000000000000000 ) ) ;
#857 = LINE ( 'NONE', #704, #405 ) ;
#858 = VECTOR ( 'NONE', #169, 1000.000000000000000 ) ;
#859 = ORIENTED_EDGE ( 'NONE', *, *, #516, .T. ) ;
#860 = AXIS2_PLACEMENT_3D ( 'NONE', #143, #286, #572 ) ;
#861 = VECTOR ( 'NONE', #725, 1000.000000000000000 ) ;
#862 = EDGE_LOOP ( 'NONE', ( #392, #913 ) ) ;
#863 = AXIS2_PLACEMENT_3D ( 'NONE', #646, #792, #449 ) ;
#864 = EDGE_CURVE ( 'NONE', #543, #381, #155, .T. ) ;
#865 = LINE ( 'NONE', #932, #281 ) ;
#866 = DIRECTION ( 'NONE',  ( 0.000000000000000000, 0.000000000000000000, -1.000000000000000000 ) ) ;
#867 = ORIENTED_EDGE ( 'NONE', *, *, #703, .T. ) ;
#868 = LINE ( 'NONE', #513, #662 ) ;
#869 = DIRECTION ( 'NONE',  ( 0.000000000000000000, 0.000000000000000000, -1.000000000000000000 ) ) ;
#870 = ORIENTED_EDGE ( 'NONE', *, *, #784, .T. ) ;
#871 = ORIENTED_EDGE ( 'NONE', *, *, #930, .T. ) ;
#872 = PERSON_AND_ORGANIZATION ( #115, #123 ) ;
#873 = CARTESIAN_POINT ( 'NONE',  ( 3.796405077356794918E-16, 23.99999999999999645, 3.100000000000000089 ) ) ;
#874 = CARTESIAN_POINT ( 'NONE',  ( 31.99999999999999289, 3.000000000000000000, -7.000000000000003553 ) ) ;
#875 = EDGE_CURVE ( 'NONE', #151, #701, #221, .T. ) ;
#876 = AXIS2_PLACEMENT_3D ( 'NONE', #758, #272, #127 ) ;
#877 = VERTEX_POINT ( 'NONE', #504 ) ;
#878 = CIRCLE ( 'NONE', #608, 1.599999999999998090 ) ;
#879 = VECTOR ( 'NONE', #787, 1000.000000000000000 ) ;
#880 = DIRECTION ( 'NONE',  ( 1.000000000000000000, 0.000000000000000000, 0.000000000000000000 ) ) ;
#881 = DIRECTION ( 'NONE',  ( 0.000000000000000000, -1.000000000000000000, 0.000000000000000000 ) ) ;
#882 = ORIENTED_EDGE ( 'NONE', *, *, #241, .F. ) ;
#883 = APPROVAL_DATE_TIME ( #891, #722 ) ;
#884 = DIRECTION ( 'NONE',  ( -0.000000000000000000, -1.000000000000000000, -0.000000000000000000 ) ) ;
#885 = LINE ( 'NONE', #531, #665 ) ;
#886 = EDGE_LOOP ( 'NONE', ( #31, #332, #850, #288 ) ) ;
#887 = EDGE_CURVE ( 'NONE', #194, #226, #878, .T. ) ;
#888 = DIRECTION ( 'NONE',  ( -1.000000000000000000, 1.156482317317871725E-15, 0.000000000000000000 ) ) ;
#889 = DIRECTION ( 'NONE',  ( 0.000000000000000000, -1.000000000000000000, 0.000000000000000000 ) ) ;
#890 = ORIENTED_EDGE ( 'NONE', *, *, #451, .F. ) ;
#891 = DATE_AND_TIME ( #24, #172 ) ;
#892 = AXIS2_PLACEMENT_3D ( 'NONE', #534, #320, #747 ) ;
#893 = VECTOR ( 'NONE', #847, 1000.000000000000000 ) ;
#894 = DIRECTION ( 'NONE',  ( 0.000000000000000000, -1.000000000000000000, 0.000000000000000000 ) ) ;
#895 = DIRECTION ( 'NONE',  ( 0.000000000000000000, -1.000000000000000000, 0.000000000000000000 ) ) ;
#896 = VERTEX_POINT ( 'NONE', #361 ) ;
#897 = LINE ( 'NONE', #685, #266 ) ;
#898 = DIRECTION ( 'NONE',  ( 1.734723475976807094E-16, 0.000000000000000000, 1.000000000000000000 ) ) ;
#899 = ORIENTED_EDGE ( 'NONE', *, *, #806, .F. ) ;
#900 = DIRECTION ( 'NONE',  ( -0.000000000000000000, -1.000000000000000000, -0.000000000000000000 ) ) ;
#901 = DIRECTION ( 'NONE',  ( -0.000000000000000000, -1.000000000000000000, -0.000000000000000000 ) ) ;
#902 = ORIENTED_EDGE ( 'NONE', *, *, #263, .T. ) ;
#903 = EDGE_CURVE ( 'NONE', #455, #604, #918, .T. ) ;
#904 = AXIS2_PLACEMENT_3D ( 'NONE', #741, #671, #395 ) ;
#905 = PLANE ( 'NONE',  #593 ) ;
#906 = LOCAL_TIME ( 6, 21, 1.000000000000000000, #724 ) ;
#907 = CARTESIAN_POINT ( 'NONE',  ( 34.99999999999999289, 3.000000000000000000, 9.999999999999996447 ) ) ;
#908 = VERTEX_POINT ( 'NONE', #205 ) ;
#909 = CC_DESIGN_PERSON_AND_ORGANIZATION_ASSIGNMENT ( #669, #452, ( #466 ) ) ;
#910 = CARTESIAN_POINT ( 'NONE',  ( 19.99999999999999645, 23.99999999999999645, -10.00000000000000355 ) ) ;
#911 = DIRECTION ( 'NONE',  ( -1.000000000000000000, 0.000000000000000000, 0.000000000000000000 ) ) ;
#912 = ORIENTED_EDGE ( 'NONE', *, *, #601, .F. ) ;
#913 = ORIENTED_EDGE ( 'NONE', *, *, #168, .F. ) ;
#914 = LINE ( 'NONE', #55, #845 ) ;
#915 = EDGE_CURVE ( 'NONE', #681, #6, #783, .T. ) ;
#916 = FACE_OUTER_BOUND ( 'NONE', #886, .T. ) ;
#917 = ORIENTED_EDGE ( 'NONE', *, *, #547, .T. ) ;
#918 = LINE ( 'NONE', #4, #249 ) ;
#919 = CIRCLE ( 'NONE', #388, 3.000000000000000000 ) ;
#920 = CARTESIAN_POINT ( 'NONE',  ( 27.50037909540576209, 0.000000000000000000, -1.610826828710452796 ) ) ;
#921 = ORIENTED_EDGE ( 'NONE', *, *, #224, .F. ) ;
#922 = CALENDAR_DATE ( 2025, 5, 10 ) ;
#923 = APPLICATION_CONTEXT ( 'configuration controlled 3d designs of mechanical parts and assemblies' ) ;
#924 = CARTESIAN_POINT ( 'NONE',  ( -27.49962090459423436, 2.999999999999999112, -1.610826828710644865 ) ) ;
#925 = EDGE_CURVE ( 'NONE', #419, #194, #868, .T. ) ;
#926 = DIRECTION ( 'NONE',  ( 0.000000000000000000, 0.000000000000000000, 1.000000000000000000 ) ) ;
#927 = CARTESIAN_POINT ( 'NONE',  ( 23.00000000000000000, 20.99999999999999645, 9.999999999999994671 ) ) ;
#928 = DIRECTION ( 'NONE',  ( 0.000000000000000000, 0.000000000000000000, -1.000000000000000000 ) ) ;
#929 = ORIENTED_EDGE ( 'NONE', *, *, #806, .T. ) ;
#930 = EDGE_CURVE ( 'NONE', #27, #675, #578, .T. ) ;
#931 = CARTESIAN_POINT ( 'NONE',  ( -27.49962090459423436, 2.999999999999999112, -0.01082682871064670656 ) ) ;
#932 = CARTESIAN_POINT ( 'NONE',  ( -35.00000000000000711, 3.000000000000000000, -7.000000000000004441 ) ) ;
#933 = FACE_BOUND ( 'NONE', #57, .T. ) ;
ENDSEC;
END-ISO-10303-21;
