ISO-10303-21;
HEADER;
FILE_DESCRIPTION (( 'STEP AP203' ),
    '1' );
FILE_NAME ('CAMERA02_HANG.STEP',
    '2025-10-05T19:53:43',
    ( '' ),
    ( '' ),
    'SwSTEP 2.0',
    'SolidWorks 2025',
    '' );
FILE_SCHEMA (( 'CONFIG_CONTROL_DESIGN' ));
ENDSEC;

DATA;
#1 = EDGE_CURVE ( 'NONE', #705, #874, #234, .T. ) ;
#2 = ORIENTED_EDGE ( 'NONE', *, *, #385, .T. ) ;
#3 = DIRECTION ( 'NONE',  ( 1.000000000000000000, -1.734723475976807094E-16, 0.000000000000000000 ) ) ;
#4 = CARTESIAN_POINT ( 'NONE',  ( 7.999999999999998224, 84.99999999999998579, -7.561615151693776739E-15 ) ) ;
#5 = ORIENTED_EDGE ( 'NONE', *, *, #645, .F. ) ;
#6 = EDGE_LOOP ( 'NONE', ( #840, #377, #950, #816 ) ) ;
#7 = DIRECTION ( 'NONE',  ( 0.000000000000000000, 0.000000000000000000, 1.000000000000000000 ) ) ;
#8 = DIRECTION ( 'NONE',  ( 1.000000000000000000, 0.000000000000000000, 0.000000000000000000 ) ) ;
#9 = VECTOR ( 'NONE', #520, 1000.000000000000000 ) ;
#10 = ADVANCED_FACE ( 'NONE', ( #721 ), #23, .T. ) ;
#11 = ORIENTED_EDGE ( 'NONE', *, *, #330, .F. ) ;
#12 = ORIENTED_EDGE ( 'NONE', *, *, #796, .T. ) ;
#13 = PLANE ( 'NONE',  #758 ) ;
#14 = LOCAL_TIME ( 2, 53, 43.00000000000000000, #360 ) ;
#15 = LINE ( 'NONE', #92, #808 ) ;
#16 = ORIENTED_EDGE ( 'NONE', *, *, #589, .T. ) ;
#17 = ADVANCED_FACE ( 'NONE', ( #110, #268 ), #420, .T. ) ;
#18 = DIRECTION ( 'NONE',  ( -0.000000000000000000, -1.000000000000000000, -0.000000000000000000 ) ) ;
#19 = DIRECTION ( 'NONE',  ( 1.000000000000000000, 0.000000000000000000, 0.000000000000000000 ) ) ;
#20 = ORIENTED_EDGE ( 'NONE', *, *, #73, .F. ) ;
#21 = DIRECTION ( 'NONE',  ( 0.000000000000000000, -1.000000000000000000, 0.000000000000000000 ) ) ;
#22 = FACE_OUTER_BOUND ( 'NONE', #955, .T. ) ;
#23 = CYLINDRICAL_SURFACE ( 'NONE', #801, 2.999999999999999112 ) ;
#24 = VECTOR ( 'NONE', #685, 1000.000000000000000 ) ;
#25 = DIRECTION ( 'NONE',  ( 1.000000000000000000, 0.000000000000000000, 0.000000000000000000 ) ) ;
#26 = EDGE_CURVE ( 'NONE', #878, #524, #129, .T. ) ;
#27 = DIRECTION ( 'NONE',  ( 0.000000000000000000, 0.000000000000000000, 1.000000000000000000 ) ) ;
#28 = VECTOR ( 'NONE', #25, 1000.000000000000000 ) ;
#29 = ORIENTED_EDGE ( 'NONE', *, *, #957, .T. ) ;
#30 = ORIENTED_EDGE ( 'NONE', *, *, #871, .T. ) ;
#31 = PRODUCT_DEFINITION ( 'UNKNOWN', '', #141, #433 ) ;
#32 = CARTESIAN_POINT ( 'NONE',  ( 7.999999999999998224, 7.000000000000001776, 20.00000000000000000 ) ) ;
#33 = CARTESIAN_POINT ( 'NONE',  ( -75.00000000000004263, 88.00000000000000000, 17.99999999999997513 ) ) ;
#34 = VERTEX_POINT ( 'NONE', #33 ) ;
#35 =( NAMED_UNIT ( * ) PLANE_ANGLE_UNIT ( ) SI_UNIT ( $, .RADIAN. ) );
#36 = VECTOR ( 'NONE', #681, 1000.000000000000000 ) ;
#37 = CARTESIAN_POINT ( 'NONE',  ( 2.599999999999998312, -1.500000000000000444, 0.000000000000000000 ) ) ;
#38 = CC_DESIGN_PERSON_AND_ORGANIZATION_ASSIGNMENT ( #538, #136, ( #141 ) ) ;
#39 = DIRECTION ( 'NONE',  ( 0.000000000000000000, 1.000000000000000000, 0.000000000000000000 ) ) ;
#40 = VECTOR ( 'NONE', #596, 1000.000000000000227 ) ;
#41 = EDGE_CURVE ( 'NONE', #227, #343, #115, .T. ) ;
#42 = ORIENTED_EDGE ( 'NONE', *, *, #118, .T. ) ;
#43 = DIRECTION ( 'NONE',  ( -0.000000000000000000, -1.000000000000000000, -0.000000000000000000 ) ) ;
#44 = CARTESIAN_POINT ( 'NONE',  ( -64.87950418574509115, 80.99999999999998579, 34.24619810365076944 ) ) ;
#45 = CARTESIAN_POINT ( 'NONE',  ( 9.999999999999998224, 84.99999999999998579, 17.99999999999997513 ) ) ;
#46 = EDGE_CURVE ( 'NONE', #557, #532, #611, .T. ) ;
#47 = VERTEX_POINT ( 'NONE', #514 ) ;
#48 = AXIS2_PLACEMENT_3D ( 'NONE', #961, #341, #970 ) ;
#49 = CIRCLE ( 'NONE', #386, 2.999999999999999112 ) ;
#50 = CARTESIAN_POINT ( 'NONE',  ( 9.999999999999998224, 84.99999999999998579, 9.999999999999973355 ) ) ;
#51 = CARTESIAN_POINT ( 'NONE',  ( -10.00000000000000178, -9.999999999999998224, 5.000000000000000000 ) ) ;
#52 = CARTESIAN_POINT ( 'NONE',  ( -75.00000000000004263, 84.99999999999998579, 52.00000000000000000 ) ) ;
#53 = APPROVAL ( #516, 'UNSPECIFIED' ) ;
#54 = SECURITY_CLASSIFICATION_LEVEL ( 'unclassified' ) ;
#55 = CARTESIAN_POINT ( 'NONE',  ( -10.00000000000001243, 7.000000000000001776, 52.00000000000000000 ) ) ;
#56 = DIRECTION ( 'NONE',  ( 0.000000000000000000, -5.782411586589357392E-17, 1.000000000000000000 ) ) ;
#57 = EDGE_LOOP ( 'NONE', ( #851, #461, #581, #397 ) ) ;
#58 = DIRECTION ( 'NONE',  ( 1.000000000000000000, 0.000000000000000000, 0.000000000000000000 ) ) ;
#59 = AXIS2_PLACEMENT_3D ( 'NONE', #122, #258, #962 ) ;
#60 = ADVANCED_FACE ( 'NONE', ( #891 ), #352, .F. ) ;
#61 = PLANE ( 'NONE',  #540 ) ;
#62 = CARTESIAN_POINT ( 'NONE',  ( -8.000000000000001776, 7.000000000000002665, 5.000000000000000000 ) ) ;
#63 = ORIENTED_EDGE ( 'NONE', *, *, #827, .T. ) ;
#64 = VECTOR ( 'NONE', #250, 1000.000000000000000 ) ;
#65 = PERSON_AND_ORGANIZATION ( #204, #201 ) ;
#66 = LINE ( 'NONE', #604, #24 ) ;
#67 = DIRECTION ( 'NONE',  ( -0.000000000000000000, -0.000000000000000000, 1.000000000000000000 ) ) ;
#68 = ORIENTED_EDGE ( 'NONE', *, *, #306, .F. ) ;
#69 = AXIS2_PLACEMENT_3D ( 'NONE', #223, #843, #458 ) ;
#70 = CARTESIAN_POINT ( 'NONE',  ( 9.999999999999998224, 7.000000000000001776, 20.00000000000000000 ) ) ;
#71 = FACE_OUTER_BOUND ( 'NONE', #135, .T. ) ;
#72 = ORIENTED_EDGE ( 'NONE', *, *, #180, .T. ) ;
#73 = EDGE_CURVE ( 'NONE', #821, #925, #188, .T. ) ;
#74 = PERSON_AND_ORGANIZATION_ROLE ( 'creator' ) ;
#75 = ORIENTED_EDGE ( 'NONE', *, *, #751, .F. ) ;
#76 = FACE_BOUND ( 'NONE', #184, .T. ) ;
#77 = FACE_BOUND ( 'NONE', #272, .T. ) ;
#78 = ORIENTED_EDGE ( 'NONE', *, *, #575, .T. ) ;
#79 =( GEOMETRIC_REPRESENTATION_CONTEXT ( 3 ) GLOBAL_UNCERTAINTY_ASSIGNED_CONTEXT ( ( #829 ) ) GLOBAL_UNIT_ASSIGNED_CONTEXT ( ( #256, #35, #661 ) ) REPRESENTATION_CONTEXT ( 'NONE', 'WORKASPACE' ) );
#80 = ORIENTED_EDGE ( 'NONE', *, *, #190, .F. ) ;
#81 = DIRECTION ( 'NONE',  ( 0.000000000000000000, -1.000000000000000000, 0.000000000000000000 ) ) ;
#82 = CARTESIAN_POINT ( 'NONE',  ( -75.00000000000004263, 88.00000000000000000, 52.00000000000000000 ) ) ;
#83 = VERTEX_POINT ( 'NONE', #805 ) ;
#84 = EDGE_LOOP ( 'NONE', ( #75, #930, #781, #316 ) ) ;
#85 = DIRECTION ( 'NONE',  ( -0.000000000000000000, 1.000000000000000000, -0.000000000000000000 ) ) ;
#86 = EDGE_CURVE ( 'NONE', #47, #925, #958, .T. ) ;
#87 = CARTESIAN_POINT ( 'NONE',  ( 7.999999999999998224, 88.00000000000000000, 51.99999999999999289 ) ) ;
#88 = ORIENTED_EDGE ( 'NONE', *, *, #730, .F. ) ;
#89 = ORIENTED_EDGE ( 'NONE', *, *, #899, .T. ) ;
#90 = LINE ( 'NONE', #624, #465 ) ;
#91 = EDGE_CURVE ( 'NONE', #426, #34, #442, .T. ) ;
#92 = CARTESIAN_POINT ( 'NONE',  ( -10.00000000000001243, 84.99999999999998579, 55.00000000000000000 ) ) ;
#93 = ORIENTED_EDGE ( 'NONE', *, *, #994, .T. ) ;
#94 = VECTOR ( 'NONE', #345, 1000.000000000000000 ) ;
#95 = ORIENTED_EDGE ( 'NONE', *, *, #26, .T. ) ;
#96 = DIRECTION ( 'NONE',  ( -0.000000000000000000, -0.000000000000000000, 1.000000000000000000 ) ) ;
#97 = CIRCLE ( 'NONE', #892, 2.600000000000000089 ) ;
#98 = CARTESIAN_POINT ( 'NONE',  ( 7.999999999999998224, 10.00000000000000178, 52.00000000000000000 ) ) ;
#99 = AXIS2_PLACEMENT_3D ( 'NONE', #109, #106, #419 ) ;
#100 = ORIENTED_EDGE ( 'NONE', *, *, #190, .T. ) ;
#101 = CARTESIAN_POINT ( 'NONE',  ( -10.00000000000001243, 6.999999999999998224, 52.00000000000000000 ) ) ;
#102 = DIRECTION ( 'NONE',  ( 0.000000000000000000, 0.000000000000000000, 1.000000000000000000 ) ) ;
#103 = ORIENTED_EDGE ( 'NONE', *, *, #957, .F. ) ;
#104 = APPLICATION_CONTEXT ( 'configuration controlled 3d designs of mechanical parts and assemblies' ) ;
#105 = DIRECTION ( 'NONE',  ( -0.000000000000000000, 0.000000000000000000, 1.000000000000000000 ) ) ;
#106 = DIRECTION ( 'NONE',  ( -0.000000000000000000, 0.000000000000000000, 1.000000000000000000 ) ) ;
#107 = ORIENTED_EDGE ( 'NONE', *, *, #355, .T. ) ;
#108 = CYLINDRICAL_SURFACE ( 'NONE', #483, 1.599999999999990319 ) ;
#109 = CARTESIAN_POINT ( 'NONE',  ( -75.00000000000004263, 60.00000000000000000, 14.99999999999997513 ) ) ;
#110 = FACE_BOUND ( 'NONE', #863, .T. ) ;
#111 = CIRCLE ( 'NONE', #698, 1.599999999999997202 ) ;
#112 = ORIENTED_EDGE ( 'NONE', *, *, #149, .F. ) ;
#113 = LINE ( 'NONE', #261, #28 ) ;
#114 = CARTESIAN_POINT ( 'NONE',  ( -1.734723475976807094E-15, -1.500000000000000444, 0.000000000000000000 ) ) ;
#115 = LINE ( 'NONE', #886, #548 ) ;
#116 = ORIENTED_EDGE ( 'NONE', *, *, #362, .F. ) ;
#117 = CYLINDRICAL_SURFACE ( 'NONE', #653, 3.000000000000002665 ) ;
#118 = EDGE_CURVE ( 'NONE', #524, #285, #749, .T. ) ;
#119 = DIRECTION ( 'NONE',  ( -1.000000000000000000, 1.734723475976807094E-16, 0.000000000000000000 ) ) ;
#120 = ORIENTED_EDGE ( 'NONE', *, *, #46, .F. ) ;
#121 = PLANE ( 'NONE',  #99 ) ;
#122 = CARTESIAN_POINT ( 'NONE',  ( 0.1204958142550921485, 88.00000000000000000, 35.84619810365059323 ) ) ;
#123 = CC_DESIGN_DATE_AND_TIME_ASSIGNMENT ( #211, #277, ( #726 ) ) ;
#124 = ORIENTED_EDGE ( 'NONE', *, *, #887, .T. ) ;
#125 = APPROVAL_STATUS ( 'not_yet_approved' ) ;
#126 = VERTEX_POINT ( 'NONE', #654 ) ;
#127 = AXIS2_PLACEMENT_3D ( 'NONE', #114, #975, #573 ) ;
#128 = LINE ( 'NONE', #151, #251 ) ;
#129 = LINE ( 'NONE', #658, #838 ) ;
#130 = VERTEX_POINT ( 'NONE', #437 ) ;
#131 = EDGE_CURVE ( 'NONE', #795, #635, #375, .T. ) ;
#132 = PERSON_AND_ORGANIZATION_ROLE ( 'classification_officer' ) ;
#133 = LINE ( 'NONE', #446, #36 ) ;
#134 = LINE ( 'NONE', #62, #501 ) ;
#135 = EDGE_LOOP ( 'NONE', ( #156, #850, #165, #662 ) ) ;
#136 = PERSON_AND_ORGANIZATION_ROLE ( 'design_supplier' ) ;
#137 = EDGE_CURVE ( 'NONE', #150, #792, #811, .T. ) ;
#138 = DIRECTION ( 'NONE',  ( 0.000000000000000000, 8.896017825522090571E-17, 1.000000000000000000 ) ) ;
#139 = FACE_OUTER_BOUND ( 'NONE', #432, .T. ) ;
#140 = ORIENTED_EDGE ( 'NONE', *, *, #634, .F. ) ;
#141 = PRODUCT_DEFINITION_FORMATION_WITH_SPECIFIED_SOURCE ( 'ANY', '', #499, .NOT_KNOWN. ) ;
#142 = CARTESIAN_POINT ( 'NONE',  ( 9.999999999999998224, -10.00000000000000178, 5.000000000000000000 ) ) ;
#143 = ADVANCED_FACE ( 'NONE', ( #342 ), #275, .F. ) ;
#144 = CYLINDRICAL_SURFACE ( 'NONE', #167, 2.600000000000000089 ) ;
#145 = ORIENTED_EDGE ( 'NONE', *, *, #91, .F. ) ;
#146 = DATE_AND_TIME ( #593, #14 ) ;
#147 = LINE ( 'NONE', #620, #225 ) ;
#148 = CARTESIAN_POINT ( 'NONE',  ( -10.00000000000000178, 10.00000000000000178, 0.000000000000000000 ) ) ;
#149 = EDGE_CURVE ( 'NONE', #281, #941, #965, .T. ) ;
#150 = VERTEX_POINT ( 'NONE', #45 ) ;
#151 = CARTESIAN_POINT ( 'NONE',  ( 0.1204958142550921485, 80.99999999999998579, 37.44619810365058754 ) ) ;
#152 = DIRECTION ( 'NONE',  ( 1.000000000000000000, 0.000000000000000000, 0.000000000000000000 ) ) ;
#153 = ORIENTED_EDGE ( 'NONE', *, *, #730, .T. ) ;
#154 = ADVANCED_FACE ( 'NONE', ( #670 ), #745, .T. ) ;
#155 = CC_DESIGN_APPROVAL ( #53, ( #141 ) ) ;
#156 = ORIENTED_EDGE ( 'NONE', *, *, #528, .F. ) ;
#157 = CARTESIAN_POINT ( 'NONE',  ( -12.50000000000001066, 10.00000000000000888, 55.00000000000000000 ) ) ;
#158 = CIRCLE ( 'NONE', #728, 2.600000000000000089 ) ;
#159 = CARTESIAN_POINT ( 'NONE',  ( -10.00000000000000178, -9.999999999999998224, 0.000000000000000000 ) ) ;
#160 = ORIENTED_EDGE ( 'NONE', *, *, #575, .F. ) ;
#161 = EDGE_CURVE ( 'NONE', #874, #227, #195, .T. ) ;
#162 = ORIENTED_EDGE ( 'NONE', *, *, #820, .F. ) ;
#163 = FACE_OUTER_BOUND ( 'NONE', #907, .T. ) ;
#164 = CARTESIAN_POINT ( 'NONE',  ( -10.00000000000000178, 7.000000000000001776, 20.00000000000000000 ) ) ;
#165 = ORIENTED_EDGE ( 'NONE', *, *, #306, .T. ) ;
#166 = ORIENTED_EDGE ( 'NONE', *, *, #911, .F. ) ;
#167 = AXIS2_PLACEMENT_3D ( 'NONE', #760, #380, #456 ) ;
#168 = LINE ( 'NONE', #637, #983 ) ;
#169 = VERTEX_POINT ( 'NONE', #906 ) ;
#170 = CARTESIAN_POINT ( 'NONE',  ( -10.00000000000000178, 10.00000000000000178, 5.000000000000000000 ) ) ;
#171 = VECTOR ( 'NONE', #880, 1000.000000000000000 ) ;
#172 = CIRCLE ( 'NONE', #862, 2.999999999999999112 ) ;
#173 = CARTESIAN_POINT ( 'NONE',  ( -10.00000000000000888, 88.00000000000000000, 55.00000000000000000 ) ) ;
#174 = CIRCLE ( 'NONE', #299, 1.599999999999997202 ) ;
#175 = ADVANCED_FACE ( 'NONE', ( #77, #929 ), #230, .F. ) ;
#176 = EDGE_LOOP ( 'NONE', ( #166, #692, #647, #857 ) ) ;
#177 = DIRECTION ( 'NONE',  ( -1.000000000000000000, 0.000000000000000000, 0.000000000000000000 ) ) ;
#178 = DIRECTION ( 'NONE',  ( 0.000000000000000000, 0.000000000000000000, 1.000000000000000000 ) ) ;
#179 = EDGE_LOOP ( 'NONE', ( #309, #112, #327 ) ) ;
#180 = EDGE_CURVE ( 'NONE', #469, #414, #410, .T. ) ;
#181 = DIRECTION ( 'NONE',  ( 0.000000000000000000, 0.000000000000000000, 1.000000000000000000 ) ) ;
#182 = DIRECTION ( 'NONE',  ( 0.000000000000000000, 0.000000000000000000, -1.000000000000000000 ) ) ;
#183 = AXIS2_PLACEMENT_3D ( 'NONE', #495, #263, #192 ) ;
#184 = EDGE_LOOP ( 'NONE', ( #562, #704 ) ) ;
#185 = FACE_OUTER_BOUND ( 'NONE', #197, .T. ) ;
#186 = PLANE ( 'NONE',  #485 ) ;
#187 = AXIS2_PLACEMENT_3D ( 'NONE', #173, #487, #408 ) ;
#188 = LINE ( 'NONE', #976, #310 ) ;
#189 = ORIENTED_EDGE ( 'NONE', *, *, #940, .F. ) ;
#190 = EDGE_CURVE ( 'NONE', #391, #694, #691, .T. ) ;
#191 = DIRECTION ( 'NONE',  ( 0.000000000000000000, 0.000000000000000000, 1.000000000000000000 ) ) ;
#192 = DIRECTION ( 'NONE',  ( 0.000000000000000000, 0.000000000000000000, 1.000000000000000000 ) ) ;
#193 = ORIENTED_EDGE ( 'NONE', *, *, #513, .F. ) ;
#194 = PLANE ( 'NONE',  #379 ) ;
#195 = LINE ( 'NONE', #52, #40 ) ;
#196 = AXIS2_PLACEMENT_3D ( 'NONE', #374, #832, #605 ) ;
#197 = EDGE_LOOP ( 'NONE', ( #606, #977, #882, #855 ) ) ;
#198 = DATE_AND_TIME ( #523, #995 ) ;
#199 = CARTESIAN_POINT ( 'NONE',  ( -10.00000000000001243, 9.999999999999998224, 55.00000000000000000 ) ) ;
#200 = DIRECTION ( 'NONE',  ( -0.000000000000000000, -0.000000000000000000, -1.000000000000000000 ) ) ;
#201 = ORGANIZATION ( 'UNSPECIFIED', 'UNSPECIFIED', '' ) ;
#202 = ADVANCED_FACE ( 'NONE', ( #71 ), #144, .F. ) ;
#203 = EDGE_LOOP ( 'NONE', ( #567, #491, #482, #88 ) ) ;
#204 = PERSON ( 'UNSPECIFIED', 'UNSPECIFIED', 'UNSPECIFIED', ('UNSPECIFIED'), ('UNSPECIFIED'), ('UNSPECIFIED') ) ;
#205 = PERSON_AND_ORGANIZATION ( #204, #201 ) ;
#206 = VECTOR ( 'NONE', #507, 1000.000000000000114 ) ;
#207 = PLANE ( 'NONE',  #756 ) ;
#208 = DIRECTION ( 'NONE',  ( -0.000000000000000000, 0.000000000000000000, 1.000000000000000000 ) ) ;
#209 = EDGE_CURVE ( 'NONE', #304, #218, #849, .T. ) ;
#210 = VERTEX_POINT ( 'NONE', #998 ) ;
#211 = DATE_AND_TIME ( #823, #791 ) ;
#212 = DIRECTION ( 'NONE',  ( 0.000000000000000000, 1.000000000000000000, 0.000000000000000000 ) ) ;
#213 = CARTESIAN_POINT ( 'NONE',  ( -10.00000000000001243, 6.999999999999998224, 52.00000000000000000 ) ) ;
#214 = ORIENTED_EDGE ( 'NONE', *, *, #313, .F. ) ;
#215 = ADVANCED_FACE ( 'NONE', ( #545 ), #854, .T. ) ;
#216 = DIRECTION ( 'NONE',  ( 1.000000000000000000, 0.000000000000000000, 0.000000000000000000 ) ) ;
#217 = CARTESIAN_POINT ( 'NONE',  ( 0.1204958142550921485, 84.99999999999998579, 35.84619810365059323 ) ) ;
#218 = VERTEX_POINT ( 'NONE', #459 ) ;
#219 = APPROVAL_PERSON_ORGANIZATION ( #65, #53, #293 ) ;
#220 = AXIS2_PLACEMENT_3D ( 'NONE', #933, #248, #102 ) ;
#221 = PERSON_AND_ORGANIZATION ( #204, #201 ) ;
#222 = EDGE_CURVE ( 'NONE', #878, #242, #447, .T. ) ;
#223 = CARTESIAN_POINT ( 'NONE',  ( -75.00000000000004263, 0.000000000000000000, 0.000000000000000000 ) ) ;
#224 = CARTESIAN_POINT ( 'NONE',  ( -1.734723475976807094E-15, -1.500000000000000444, 0.000000000000000000 ) ) ;
#225 = VECTOR ( 'NONE', #216, 1000.000000000000000 ) ;
#226 = ORIENTED_EDGE ( 'NONE', *, *, #492, .F. ) ;
#227 = VERTEX_POINT ( 'NONE', #213 ) ;
#228 = DIRECTION ( 'NONE',  ( 1.000000000000000000, 0.000000000000000000, 0.000000000000000000 ) ) ;
#229 = CC_DESIGN_PERSON_AND_ORGANIZATION_ASSIGNMENT ( #613, #74, ( #141 ) ) ;
#230 = PLANE ( 'NONE',  #460 ) ;
#231 = ORIENTED_EDGE ( 'NONE', *, *, #911, .T. ) ;
#232 = CARTESIAN_POINT ( 'NONE',  ( -10.00000000000000178, -9.999999999999998224, 0.000000000000000000 ) ) ;
#233 = PLANE ( 'NONE',  #997 ) ;
#234 = LINE ( 'NONE', #799, #787 ) ;
#235 = EDGE_CURVE ( 'NONE', #469, #714, #989, .T. ) ;
#236 = VECTOR ( 'NONE', #852, 1000.000000000000000 ) ;
#237 = ORIENTED_EDGE ( 'NONE', *, *, #614, .F. ) ;
#238 = DIRECTION ( 'NONE',  ( -0.000000000000000000, -0.000000000000000000, 1.000000000000000000 ) ) ;
#239 = CARTESIAN_POINT ( 'NONE',  ( -72.00000000000004263, 84.99999999999998579, 17.99999999999997513 ) ) ;
#240 = EDGE_LOOP ( 'NONE', ( #963, #323, #945, #162, #619 ) ) ;
#241 = CC_DESIGN_PERSON_AND_ORGANIZATION_ASSIGNMENT ( #978, #132, ( #726 ) ) ;
#242 = VERTEX_POINT ( 'NONE', #913 ) ;
#243 = CARTESIAN_POINT ( 'NONE',  ( -11.03553390593275374, 8.242640687119285658, 55.00000000000000000 ) ) ;
#244 = LINE ( 'NONE', #98, #968 ) ;
#245 = ORIENTED_EDGE ( 'NONE', *, *, #528, .T. ) ;
#246 = CARTESIAN_POINT ( 'NONE',  ( -8.000000000000001776, -9.999999999999998224, 5.000000000000000000 ) ) ;
#247 = EDGE_CURVE ( 'NONE', #343, #941, #531, .T. ) ;
#248 = DIRECTION ( 'NONE',  ( -0.000000000000000000, 1.000000000000000000, -0.000000000000000000 ) ) ;
#249 = ORIENTED_EDGE ( 'NONE', *, *, #252, .F. ) ;
#250 = DIRECTION ( 'NONE',  ( 1.000000000000000000, -0.000000000000000000, 0.000000000000000000 ) ) ;
#251 = VECTOR ( 'NONE', #85, 1000.000000000000000 ) ;
#252 = EDGE_CURVE ( 'NONE', #126, #874, #369, .T. ) ;
#253 = VECTOR ( 'NONE', #389, 1000.000000000000000 ) ;
#254 = DIRECTION ( 'NONE',  ( 0.000000000000000000, 0.000000000000000000, -1.000000000000000000 ) ) ;
#255 = VERTEX_POINT ( 'NONE', #357 ) ;
#256 =( LENGTH_UNIT ( ) NAMED_UNIT ( * ) SI_UNIT ( .MILLI., .METRE. ) );
#257 = CARTESIAN_POINT ( 'NONE',  ( 9.999999999999998224, 10.00000000000000178, 55.00000000000000000 ) ) ;
#258 = DIRECTION ( 'NONE',  ( 0.000000000000000000, 1.000000000000000000, 0.000000000000000000 ) ) ;
#259 = EDGE_CURVE ( 'NONE', #635, #795, #752, .T. ) ;
#260 = ORIENTED_EDGE ( 'NONE', *, *, #349, .F. ) ;
#261 = CARTESIAN_POINT ( 'NONE',  ( -10.00000000000000888, 88.00000000000000000, 52.00000000000000000 ) ) ;
#262 = CARTESIAN_POINT ( 'NONE',  ( 7.999999999999998224, 7.000000000000002665, 5.000000000000000000 ) ) ;
#263 = DIRECTION ( 'NONE',  ( -0.000000000000000000, 1.000000000000000000, -0.000000000000000000 ) ) ;
#264 = EDGE_CURVE ( 'NONE', #926, #150, #949, .T. ) ;
#265 = ORIENTED_EDGE ( 'NONE', *, *, #222, .F. ) ;
#266 = DIRECTION ( 'NONE',  ( -0.000000000000000000, 8.896017825522090571E-17, 1.000000000000000000 ) ) ;
#267 = DIRECTION ( 'NONE',  ( 1.000000000000000000, -0.000000000000000000, -0.000000000000000000 ) ) ;
#268 = FACE_OUTER_BOUND ( 'NONE', #240, .T. ) ;
#269 = FACE_OUTER_BOUND ( 'NONE', #409, .T. ) ;
#270 = DIRECTION ( 'NONE',  ( 1.334402673828313339E-16, 1.000000000000000000, 0.000000000000000000 ) ) ;
#271 = CARTESIAN_POINT ( 'NONE',  ( -75.00000000000004263, 84.99999999999998579, 52.00000000000000000 ) ) ;
#272 = EDGE_LOOP ( 'NONE', ( #741, #68 ) ) ;
#273 = EDGE_CURVE ( 'NONE', #941, #332, #134, .T. ) ;
#274 = DIRECTION ( 'NONE',  ( 0.000000000000000000, 1.000000000000000000, 0.000000000000000000 ) ) ;
#275 = PLANE ( 'NONE',  #853 ) ;
#276 = ORIENTED_EDGE ( 'NONE', *, *, #1, .T. ) ;
#277 = DATE_TIME_ROLE ( 'classification_date' ) ;
#278 = CARTESIAN_POINT ( 'NONE',  ( -10.00000000000000178, -9.999999999999998224, 5.000000000000000000 ) ) ;
#279 = DIRECTION ( 'NONE',  ( -1.000000000000000000, -0.000000000000000000, -0.000000000000000000 ) ) ;
#280 = LOCAL_TIME ( 2, 53, 43.00000000000000000, #684 ) ;
#281 = VERTEX_POINT ( 'NONE', #985 ) ;
#282 = PERSON_AND_ORGANIZATION ( #204, #201 ) ;
#283 = FACE_OUTER_BOUND ( 'NONE', #769, .T. ) ;
#284 = CARTESIAN_POINT ( 'NONE',  ( 7.999999999999998224, 7.000000000000001776, 20.00000000000000000 ) ) ;
#285 = VERTEX_POINT ( 'NONE', #284 ) ;
#286 = ADVANCED_FACE ( 'NONE', ( #139 ), #686, .T. ) ;
#287 = APPROVAL_ROLE ( '' ) ;
#288 = DIRECTION ( 'NONE',  ( 1.000000000000000000, -0.000000000000000000, 0.000000000000000000 ) ) ;
#289 = CARTESIAN_POINT ( 'NONE',  ( 7.999999999999998224, 0.000000000000000000, 0.000000000000000000 ) ) ;
#290 = AXIS2_PLACEMENT_3D ( 'NONE', #586, #896, #503 ) ;
#291 = ORIENTED_EDGE ( 'NONE', *, *, #722, .T. ) ;
#292 = EDGE_CURVE ( 'NONE', #576, #210, #111, .T. ) ;
#293 = APPROVAL_ROLE ( '' ) ;
#294 = CARTESIAN_POINT ( 'NONE',  ( 6.999999999999998224, 88.00000000000000000, 17.99999999999997513 ) ) ;
#295 = CARTESIAN_POINT ( 'NONE',  ( -72.00000000000004263, 88.00000000000000000, 14.99999999999997513 ) ) ;
#296 = VERTEX_POINT ( 'NONE', #295 ) ;
#297 = VECTOR ( 'NONE', #803, 1000.000000000000000 ) ;
#298 = VECTOR ( 'NONE', #399, 1000.000000000000000 ) ;
#299 = AXIS2_PLACEMENT_3D ( 'NONE', #502, #274, #27 ) ;
#300 = ORIENTED_EDGE ( 'NONE', *, *, #400, .F. ) ;
#301 = LINE ( 'NONE', #278, #889 ) ;
#302 = CARTESIAN_POINT ( 'NONE',  ( 7.999999999999998224, -10.00000000000000178, 5.000000000000000000 ) ) ;
#303 = ORIENTED_EDGE ( 'NONE', *, *, #651, .F. ) ;
#304 = VERTEX_POINT ( 'NONE', #616 ) ;
#305 = CARTESIAN_POINT ( 'NONE',  ( 9.999999999999998224, 88.00000000000000000, 17.99999999999998934 ) ) ;
#306 = EDGE_CURVE ( 'NONE', #457, #714, #158, .T. ) ;
#307 = DIRECTION ( 'NONE',  ( 0.000000000000000000, 1.000000000000000000, 0.000000000000000000 ) ) ;
#308 = AXIS2_PLACEMENT_3D ( 'NONE', #910, #839, #526 ) ;
#309 = ORIENTED_EDGE ( 'NONE', *, *, #273, .F. ) ;
#310 = VECTOR ( 'NONE', #580, 1000.000000000000227 ) ;
#311 = DIRECTION ( 'NONE',  ( 0.000000000000000000, -0.000000000000000000, -1.000000000000000000 ) ) ;
#312 = CARTESIAN_POINT ( 'NONE',  ( 7.999999999999998224, 0.000000000000000000, 0.000000000000000000 ) ) ;
#313 = EDGE_CURVE ( 'NONE', #705, #453, #395, .T. ) ;
#314 = ORIENTED_EDGE ( 'NONE', *, *, #835, .T. ) ;
#315 = CIRCLE ( 'NONE', #568, 1.599999999999997202 ) ;
#316 = ORIENTED_EDGE ( 'NONE', *, *, #946, .T. ) ;
#317 = DIRECTION ( 'NONE',  ( 0.000000000000000000, 0.000000000000000000, 1.000000000000000000 ) ) ;
#318 = DIRECTION ( 'NONE',  ( -1.000000000000000000, 0.000000000000000000, 0.000000000000000000 ) ) ;
#319 = VERTEX_POINT ( 'NONE', #159 ) ;
#320 = EDGE_CURVE ( 'NONE', #130, #296, #872, .T. ) ;
#321 = CARTESIAN_POINT ( 'NONE',  ( 7.999999999999998224, -10.00000000000000178, 5.000000000000000000 ) ) ;
#322 = FACE_BOUND ( 'NONE', #764, .T. ) ;
#323 = ORIENTED_EDGE ( 'NONE', *, *, #627, .F. ) ;
#324 = ADVANCED_FACE ( 'NONE', ( #780 ), #948, .F. ) ;
#325 = CYLINDRICAL_SURFACE ( 'NONE', #583, 3.000000000000002665 ) ;
#326 = FACE_OUTER_BOUND ( 'NONE', #401, .T. ) ;
#327 = ORIENTED_EDGE ( 'NONE', *, *, #887, .F. ) ;
#328 = VECTOR ( 'NONE', #510, 1000.000000000000000 ) ;
#329 = CARTESIAN_POINT ( 'NONE',  ( -10.00000000000000178, -9.999999999999998224, 5.000000000000000000 ) ) ;
#330 = EDGE_CURVE ( 'NONE', #126, #130, #172, .T. ) ;
#331 = CARTESIAN_POINT ( 'NONE',  ( 9.999999999999998224, 10.00000000000000178, 52.00000000000000000 ) ) ;
#332 = VERTEX_POINT ( 'NONE', #477 ) ;
#333 = ORIENTED_EDGE ( 'NONE', *, *, #476, .F. ) ;
#334 = CARTESIAN_POINT ( 'NONE',  ( -64.87950418574509115, 84.99999999999998579, 34.24619810365076944 ) ) ;
#335 =( BOUNDED_CURVE ( )  B_SPLINE_CURVE ( 3, ( #101, #793, #243, #870 ),
 .UNSPECIFIED., .F., .F. ) 
 B_SPLINE_CURVE_WITH_KNOTS ( ( 4, 4 ),
 ( 3.141592653589793116, 4.712388980384689674 ),
 .UNSPECIFIED. ) 
 CURVE ( )  GEOMETRIC_REPRESENTATION_ITEM ( )  RATIONAL_B_SPLINE_CURVE ( ( 1.000000000000000000, 0.8047378541243649375, 0.8047378541243649375, 1.000000000000000000 ) ) 
 REPRESENTATION_ITEM ( '' )  );
#336 = FACE_OUTER_BOUND ( 'NONE', #496, .T. ) ;
#337 = DIRECTION ( 'NONE',  ( 0.000000000000000000, 0.000000000000000000, -1.000000000000000000 ) ) ;
#338 = PRODUCT_DEFINITION_SHAPE ( 'NONE', 'NONE',  #31 ) ;
#339 = ORIENTED_EDGE ( 'NONE', *, *, #118, .F. ) ;
#340 = DIRECTION ( 'NONE',  ( 0.000000000000000000, 0.000000000000000000, 1.000000000000000000 ) ) ;
#341 = DIRECTION ( 'NONE',  ( 0.000000000000000000, 1.000000000000000000, 0.000000000000000000 ) ) ;
#342 = FACE_OUTER_BOUND ( 'NONE', #993, .T. ) ;
#343 = VERTEX_POINT ( 'NONE', #952 ) ;
#344 = LINE ( 'NONE', #723, #297 ) ;
#345 = DIRECTION ( 'NONE',  ( -0.000000000000000000, 1.000000000000000000, -0.000000000000000000 ) ) ;
#346 = AXIS2_PLACEMENT_3D ( 'NONE', #434, #177, #422 ) ;
#347 = DIRECTION ( 'NONE',  ( 0.000000000000000000, 1.000000000000000000, 0.000000000000000000 ) ) ;
#348 = VERTEX_POINT ( 'NONE', #703 ) ;
#349 = EDGE_CURVE ( 'NONE', #694, #242, #626, .T. ) ;
#350 = CARTESIAN_POINT ( 'NONE',  ( -8.000000000000001776, 7.000000000000001776, 20.00000000000000000 ) ) ;
#351 = DIRECTION ( 'NONE',  ( 0.000000000000000000, 0.000000000000000000, -1.000000000000000000 ) ) ;
#352 = CYLINDRICAL_SURFACE ( 'NONE', #183, 1.599999999999997202 ) ;
#353 = EDGE_LOOP ( 'NONE', ( #11, #103, #660, #761 ) ) ;
#354 = APPROVAL_DATE_TIME ( #146, #864 ) ;
#355 = EDGE_CURVE ( 'NONE', #255, #786, #418, .T. ) ;
#356 = DIRECTION ( 'NONE',  ( -1.000000000000000000, 0.000000000000000000, -0.000000000000000000 ) ) ;
#357 = CARTESIAN_POINT ( 'NONE',  ( 9.999999999999998224, 88.00000000000000000, 52.00000000000000000 ) ) ;
#358 = AXIS2_PLACEMENT_3D ( 'NONE', #819, #182, #732 ) ;
#359 = ORIENTED_EDGE ( 'NONE', *, *, #137, .F. ) ;
#360 = COORDINATED_UNIVERSAL_TIME_OFFSET ( 7, 0, .AHEAD. ) ;
#361 = DIRECTION ( 'NONE',  ( -0.000000000000000000, 1.000000000000000000, 0.000000000000000000 ) ) ;
#362 = EDGE_CURVE ( 'NONE', #47, #705, #561, .T. ) ;
#363 = DIRECTION ( 'NONE',  ( 0.000000000000000000, -0.7498378553650927314, -0.6616216370868461816 ) ) ;
#364 = CIRCLE ( 'NONE', #346, 3.000000000000002665 ) ;
#365 = EDGE_LOOP ( 'NONE', ( #260, #671, #527, #858 ) ) ;
#366 = APPROVAL_ROLE ( '' ) ;
#367 = DIRECTION ( 'NONE',  ( -0.000000000000000000, -0.000000000000000000, -1.000000000000000000 ) ) ;
#368 = MANIFOLD_SOLID_BREP ( 'Fillet5', #412 ) ;
#369 = LINE ( 'NONE', #917, #690 ) ;
#370 = ADVANCED_FACE ( 'NONE', ( #708 ), #233, .F. ) ;
#371 = ORIENTED_EDGE ( 'NONE', *, *, #802, .T. ) ;
#372 = DATE_TIME_ROLE ( 'creation_date' ) ;
#373 = CARTESIAN_POINT ( 'NONE',  ( -10.00000000000000178, 7.000000000000001776, 20.00000000000000000 ) ) ;
#374 = CARTESIAN_POINT ( 'NONE',  ( 6.999999999999998224, 84.99999999999998579, 17.99999999999997513 ) ) ;
#375 = CIRCLE ( 'NONE', #290, 1.599999999999990319 ) ;
#376 = ORIENTED_EDGE ( 'NONE', *, *, #247, .F. ) ;
#377 = ORIENTED_EDGE ( 'NONE', *, *, #934, .T. ) ;
#378 = DIRECTION ( 'NONE',  ( -0.000000000000000000, 0.7498378553650925094, 0.6616216370868462926 ) ) ;
#379 = AXIS2_PLACEMENT_3D ( 'NONE', #51, #413, #351 ) ;
#380 = DIRECTION ( 'NONE',  ( -0.000000000000000000, -0.000000000000000000, 1.000000000000000000 ) ) ;
#381 = ORIENTED_EDGE ( 'NONE', *, *, #131, .F. ) ;
#382 = VECTOR ( 'NONE', #266, 1000.000000000000000 ) ;
#383 = VECTOR ( 'NONE', #794, 1000.000000000000000 ) ;
#384 = VECTOR ( 'NONE', #673, 1000.000000000000000 ) ;
#385 = EDGE_CURVE ( 'NONE', #786, #750, #15, .T. ) ;
#386 = AXIS2_PLACEMENT_3D ( 'NONE', #294, #361, #615 ) ;
#387 = EDGE_LOOP ( 'NONE', ( #597, #587 ) ) ;
#388 = CARTESIAN_POINT ( 'NONE',  ( -10.00000000000000178, 10.00000000000000178, 0.000000000000000000 ) ) ;
#389 = DIRECTION ( 'NONE',  ( 0.000000000000000000, -1.000000000000000000, 8.896017825522089339E-17 ) ) ;
#390 = ADVANCED_BREP_SHAPE_REPRESENTATION ( 'CAMERA02_HANG', ( #368, #648 ), #79 ) ;
#391 = VERTEX_POINT ( 'NONE', #712 ) ;
#392 = CC_DESIGN_PERSON_AND_ORGANIZATION_ASSIGNMENT ( #282, #440, ( #499 ) ) ;
#393 = ORIENTED_EDGE ( 'NONE', *, *, #513, .T. ) ;
#394 = LINE ( 'NONE', #631, #806 ) ;
#395 = LINE ( 'NONE', #87, #253 ) ;
#396 = ORIENTED_EDGE ( 'NONE', *, *, #149, .T. ) ;
#397 = ORIENTED_EDGE ( 'NONE', *, *, #702, .F. ) ;
#398 = CARTESIAN_POINT ( 'NONE',  ( -10.00000000000000178, -9.999999999999998224, 0.000000000000000000 ) ) ;
#399 = DIRECTION ( 'NONE',  ( -0.000000000000000000, 8.896017825522090571E-17, 1.000000000000000000 ) ) ;
#400 = EDGE_CURVE ( 'NONE', #990, #281, #168, .T. ) ;
#401 = EDGE_LOOP ( 'NONE', ( #80, #833, #828, #812, #638, #547, #42, #725 ) ) ;
#402 = VECTOR ( 'NONE', #81, 1000.000000000000000 ) ;
#403 = DIRECTION ( 'NONE',  ( 0.000000000000000000, 1.000000000000000000, -8.896017825522090571E-17 ) ) ;
#404 = DIRECTION ( 'NONE',  ( 0.000000000000000000, 0.000000000000000000, -1.000000000000000000 ) ) ;
#405 = ORIENTED_EDGE ( 'NONE', *, *, #41, .F. ) ;
#406 = ADVANCED_FACE ( 'NONE', ( #326 ), #789, .F. ) ;
#407 = CARTESIAN_POINT ( 'NONE',  ( -72.00000000000004263, 88.00000000000000000, 17.99999999999997513 ) ) ;
#408 = DIRECTION ( 'NONE',  ( 0.000000000000000000, -0.000000000000000000, 1.000000000000000000 ) ) ;
#409 = EDGE_LOOP ( 'NONE', ( #140, #914, #396, #376 ) ) ;
#410 = CIRCLE ( 'NONE', #643, 2.600000000000000089 ) ;
#411 = DIRECTION ( 'NONE',  ( 0.000000000000000000, 1.000000000000000000, -8.896017825522090571E-17 ) ) ;
#412 = CLOSED_SHELL ( 'NONE', ( #324, #462, #202, #571, #659, #449, #370, #734, #175, #406, #856, #143, #17, #928, #417, #215, #286, #790, #552, #445, #618, #688, #467, #154, #986, #60, #480, #10, #522, #883 ) ) ;
#413 = DIRECTION ( 'NONE',  ( 1.000000000000000000, 0.000000000000000000, 0.000000000000000000 ) ) ;
#414 = VERTEX_POINT ( 'NONE', #550 ) ;
#415 = ORIENTED_EDGE ( 'NONE', *, *, #476, .T. ) ;
#416 = DIRECTION ( 'NONE',  ( 0.000000000000000000, -0.6616216370868462926, 0.7498378553650925094 ) ) ;
#417 = ADVANCED_FACE ( 'NONE', ( #490 ), #566, .F. ) ;
#418 = CIRCLE ( 'NONE', #484, 3.000000000000002665 ) ;
#419 = DIRECTION ( 'NONE',  ( 1.000000000000000000, 0.000000000000000000, 0.000000000000000000 ) ) ;
#420 = PLANE ( 'NONE',  #358 ) ;
#421 = EDGE_LOOP ( 'NONE', ( #439, #314, #710, #602 ) ) ;
#422 = DIRECTION ( 'NONE',  ( 0.000000000000000000, 0.000000000000000000, 1.000000000000000000 ) ) ;
#423 = APPROVAL ( #125, 'UNSPECIFIED' ) ;
#424 = DIRECTION ( 'NONE',  ( 1.000000000000000000, 0.000000000000000000, 0.000000000000000000 ) ) ;
#425 = CARTESIAN_POINT ( 'NONE',  ( -75.00000000000004263, 88.00000000000000000, 9.999999999999973355 ) ) ;
#426 = VERTEX_POINT ( 'NONE', #82 ) ;
#427 = LINE ( 'NONE', #797, #966 ) ;
#428 = ORIENTED_EDGE ( 'NONE', *, *, #506, .F. ) ;
#429 = VECTOR ( 'NONE', #152, 1000.000000000000000 ) ;
#430 = CARTESIAN_POINT ( 'NONE',  ( 0.1204958142550921485, 88.00000000000000000, 37.44619810365058754 ) ) ;
#431 = CARTESIAN_POINT ( 'NONE',  ( -8.000000000000001776, 7.000000000000001776, 20.00000000000000000 ) ) ;
#432 = EDGE_LOOP ( 'NONE', ( #339, #936, #679 ) ) ;
#433 = DESIGN_CONTEXT ( 'detailed design', #836, 'design' ) ;
#434 = CARTESIAN_POINT ( 'NONE',  ( -75.00000000000004263, 84.99999999999998579, 52.00000000000000000 ) ) ;
#435 = CYLINDRICAL_SURFACE ( 'NONE', #844, 1.599999999999990319 ) ;
#436 = AXIS2_PLACEMENT_3D ( 'NONE', #331, #267, #181 ) ;
#437 = CARTESIAN_POINT ( 'NONE',  ( -72.00000000000004263, 84.99999999999998579, 14.99999999999997513 ) ) ;
#438 = EDGE_CURVE ( 'NONE', #453, #304, #244, .T. ) ;
#439 = ORIENTED_EDGE ( 'NONE', *, *, #161, .T. ) ;
#440 = PERSON_AND_ORGANIZATION_ROLE ( 'design_owner' ) ;
#441 = FACE_OUTER_BOUND ( 'NONE', #537, .T. ) ;
#442 = LINE ( 'NONE', #425, #578 ) ;
#443 = EDGE_LOOP ( 'NONE', ( #543, #231, #521, #29, #675 ) ) ;
#444 = PERSON_AND_ORGANIZATION ( #204, #201 ) ;
#445 = ADVANCED_FACE ( 'NONE', ( #716, #322, #641 ), #877, .T. ) ;
#446 = CARTESIAN_POINT ( 'NONE',  ( -64.87950418574509115, 80.99999999999998579, 37.44619810365075097 ) ) ;
#447 = LINE ( 'NONE', #302, #563 ) ;
#448 = ORIENTED_EDGE ( 'NONE', *, *, #980, .F. ) ;
#449 = ADVANCED_FACE ( 'NONE', ( #22 ), #186, .T. ) ;
#450 = CARTESIAN_POINT ( 'NONE',  ( -10.00002500000000261, 10.00000000000000178, 52.00000000000000000 ) ) ;
#451 = CARTESIAN_POINT ( 'NONE',  ( 0.000000000000000000, 0.000000000000000000, 5.000000000000000000 ) ) ;
#452 = APPROVAL_PERSON_ORGANIZATION ( #221, #864, #287 ) ;
#453 = VERTEX_POINT ( 'NONE', #652 ) ;
#454 = APPROVAL_DATE_TIME ( #672, #423 ) ;
#455 = DIRECTION ( 'NONE',  ( 0.000000000000000000, 8.896017825522091804E-17, 1.000000000000000000 ) ) ;
#456 = DIRECTION ( 'NONE',  ( 1.000000000000000000, 0.000000000000000000, 0.000000000000000000 ) ) ;
#457 = VERTEX_POINT ( 'NONE', #818 ) ;
#458 = DIRECTION ( 'NONE',  ( 0.000000000000000000, 0.000000000000000000, 1.000000000000000000 ) ) ;
#459 = CARTESIAN_POINT ( 'NONE',  ( -10.00000000000000178, 10.00000000000000178, 0.000000000000000000 ) ) ;
#460 = AXIS2_PLACEMENT_3D ( 'NONE', #451, #464, #981 ) ;
#461 = ORIENTED_EDGE ( 'NONE', *, *, #558, .T. ) ;
#462 = ADVANCED_FACE ( 'NONE', ( #890 ), #435, .F. ) ;
#463 = CARTESIAN_POINT ( 'NONE',  ( -75.00000000000004263, 84.99999999999998579, 55.00000000000000000 ) ) ;
#464 = DIRECTION ( 'NONE',  ( 0.000000000000000000, 0.000000000000000000, -1.000000000000000000 ) ) ;
#465 = VECTOR ( 'NONE', #560, 1000.000000000000000 ) ;
#466 = ORIENTED_EDGE ( 'NONE', *, *, #934, .F. ) ;
#467 = ADVANCED_FACE ( 'NONE', ( #494 ), #121, .F. ) ;
#468 = ORIENTED_EDGE ( 'NONE', *, *, #871, .F. ) ;
#469 = VERTEX_POINT ( 'NONE', #37 ) ;
#470 = DIRECTION ( 'NONE',  ( -0.000000000000000000, 0.8320502943378437211, 0.5547001962252290364 ) ) ;
#471 = DIRECTION ( 'NONE',  ( -0.000000000000000000, -1.000000000000000000, 8.896017825522090571E-17 ) ) ;
#472 = VECTOR ( 'NONE', #356, 1000.000000000000000 ) ;
#473 = ORIENTED_EDGE ( 'NONE', *, *, #634, .T. ) ;
#474 = ORIENTED_EDGE ( 'NONE', *, *, #718, .F. ) ;
#475 = DIRECTION ( 'NONE',  ( 0.000000000000000000, 0.000000000000000000, -1.000000000000000000 ) ) ;
#476 = EDGE_CURVE ( 'NONE', #348, #218, #885, .T. ) ;
#477 = CARTESIAN_POINT ( 'NONE',  ( -8.000000000000001776, 7.000000000000002665, 5.000000000000000000 ) ) ;
#478 = ORIENTED_EDGE ( 'NONE', *, *, #842, .T. ) ;
#479 = LINE ( 'NONE', #779, #519 ) ;
#480 = ADVANCED_FACE ( 'NONE', ( #595 ), #804, .T. ) ;
#481 = DIRECTION ( 'NONE',  ( 1.000000000000000000, -1.734723475976807094E-16, 0.000000000000000000 ) ) ;
#482 = ORIENTED_EDGE ( 'NONE', *, *, #506, .T. ) ;
#483 = AXIS2_PLACEMENT_3D ( 'NONE', #894, #959, #588 ) ;
#484 = AXIS2_PLACEMENT_3D ( 'NONE', #881, #784, #861 ) ;
#485 = AXIS2_PLACEMENT_3D ( 'NONE', #590, #512, #724 ) ;
#486 = CARTESIAN_POINT ( 'NONE',  ( 9.999999999999998224, 9.999999999999998224, 55.00000000000000000 ) ) ;
#487 = DIRECTION ( 'NONE',  ( -0.000000000000000000, 1.000000000000000000, 0.000000000000000000 ) ) ;
#488 = DIRECTION ( 'NONE',  ( -1.000000000000000000, -0.000000000000000000, -0.000000000000000000 ) ) ;
#489 = PLANE ( 'NONE',  #697 ) ;
#490 = FACE_OUTER_BOUND ( 'NONE', #179, .T. ) ;
#491 = ORIENTED_EDGE ( 'NONE', *, *, #980, .T. ) ;
#492 = EDGE_CURVE ( 'NONE', #227, #348, #964, .T. ) ;
#493 = LINE ( 'NONE', #813, #328 ) ;
#494 = FACE_OUTER_BOUND ( 'NONE', #6, .T. ) ;
#495 = CARTESIAN_POINT ( 'NONE',  ( 0.1204958142550921485, 80.99999999999998579, 35.84619810365059323 ) ) ;
#496 = EDGE_LOOP ( 'NONE', ( #775, #78, #717, #2 ) ) ;
#497 = CC_DESIGN_PERSON_AND_ORGANIZATION_ASSIGNMENT ( #205, #533, ( #31 ) ) ;
#498 = AXIS2_PLACEMENT_3D ( 'NONE', #544, #640, #7 ) ;
#499 = PRODUCT ( 'CAMERA02_HANG', 'CAMERA02_HANG', '', ( #765 ) ) ;
#500 = DIRECTION ( 'NONE',  ( 0.000000000000000000, 1.000000000000000000, -8.896017825522090571E-17 ) ) ;
#501 = VECTOR ( 'NONE', #682, 1000.000000000000000 ) ;
#502 = CARTESIAN_POINT ( 'NONE',  ( 0.1204958142550921485, 88.00000000000000000, 35.84619810365059323 ) ) ;
#503 = DIRECTION ( 'NONE',  ( 0.000000000000000000, 0.000000000000000000, 1.000000000000000000 ) ) ;
#504 = ORIENTED_EDGE ( 'NONE', *, *, #264, .F. ) ;
#505 = DIRECTION ( 'NONE',  ( 0.000000000000000000, 0.000000000000000000, 1.000000000000000000 ) ) ;
#506 = EDGE_CURVE ( 'NONE', #532, #557, #174, .T. ) ;
#507 = DIRECTION ( 'NONE',  ( 0.000000000000000000, -0.7498378553650927314, -0.6616216370868461816 ) ) ;
#508 = CARTESIAN_POINT ( 'NONE',  ( 7.999999999999998224, 84.99999999999998579, 49.99999999999998579 ) ) ;
#509 = ORIENTED_EDGE ( 'NONE', *, *, #264, .T. ) ;
#510 = DIRECTION ( 'NONE',  ( -0.000000000000000000, -0.000000000000000000, -1.000000000000000000 ) ) ;
#511 = VECTOR ( 'NONE', #39, 1000.000000000000000 ) ;
#512 = DIRECTION ( 'NONE',  ( 0.000000000000000000, 0.5547001962252291474, -0.8320502943378437211 ) ) ;
#513 = EDGE_CURVE ( 'NONE', #554, #391, #879, .T. ) ;
#514 = CARTESIAN_POINT ( 'NONE',  ( 7.999999999999998224, 84.99999999999998579, 49.99999999999998579 ) ) ;
#515 = ORIENTED_EDGE ( 'NONE', *, *, #820, .T. ) ;
#516 = APPROVAL_STATUS ( 'not_yet_approved' ) ;
#517 = AXIS2_PLACEMENT_3D ( 'NONE', #668, #500, #505 ) ;
#518 = CARTESIAN_POINT ( 'NONE',  ( -10.00000000000000888, 84.99999999999998579, 14.99999999999997513 ) ) ;
#519 = VECTOR ( 'NONE', #470, 1000.000000000000227 ) ;
#520 = DIRECTION ( 'NONE',  ( 1.000000000000000000, 0.000000000000000000, 0.000000000000000000 ) ) ;
#521 = ORIENTED_EDGE ( 'NONE', *, *, #91, .T. ) ;
#522 = ADVANCED_FACE ( 'NONE', ( #904 ), #117, .T. ) ;
#523 = CALENDAR_DATE ( 2025, 6, 10 ) ;
#524 = VERTEX_POINT ( 'NONE', #262 ) ;
#525 = DIRECTION ( 'NONE',  ( 0.6401843996644799306, -0.7682212795973757391, 0.000000000000000000 ) ) ;
#526 = DIRECTION ( 'NONE',  ( 0.000000000000000000, 0.000000000000000000, 1.000000000000000000 ) ) ;
#527 = ORIENTED_EDGE ( 'NONE', *, *, #546, .T. ) ;
#528 = EDGE_CURVE ( 'NONE', #414, #469, #776, .T. ) ;
#529 = DIRECTION ( 'NONE',  ( 0.000000000000000000, 0.000000000000000000, 1.000000000000000000 ) ) ;
#530 = DIRECTION ( 'NONE',  ( 1.000000000000000000, -1.734723475976807094E-16, 0.000000000000000000 ) ) ;
#531 = LINE ( 'NONE', #678, #429 ) ;
#532 = VERTEX_POINT ( 'NONE', #731 ) ;
#533 = PERSON_AND_ORGANIZATION_ROLE ( 'creator' ) ;
#534 = PLANE ( 'NONE',  #69 ) ;
#535 = DIRECTION ( 'NONE',  ( -1.000000000000000000, 0.000000000000000000, 0.000000000000000000 ) ) ;
#536 = AXIS2_PLACEMENT_3D ( 'NONE', #569, #411, #340 ) ;
#537 = EDGE_LOOP ( 'NONE', ( #291, #509, #902, #766, #778, #276, #249, #700 ) ) ;
#538 = PERSON_AND_ORGANIZATION ( #204, #201 ) ;
#539 = CARTESIAN_POINT ( 'NONE',  ( 7.999999999999998224, 7.000000000000001776, 20.00000000000000000 ) ) ;
#540 = AXIS2_PLACEMENT_3D ( 'NONE', #912, #748, #138 ) ;
#541 = DIRECTION ( 'NONE',  ( 1.000000000000000000, 0.000000000000000000, 0.000000000000000000 ) ) ;
#542 = ORIENTED_EDGE ( 'NONE', *, *, #589, .F. ) ;
#543 = ORIENTED_EDGE ( 'NONE', *, *, #582, .T. ) ;
#544 = CARTESIAN_POINT ( 'NONE',  ( 9.999999999999998224, -10.00000000000000178, 5.000000000000000000 ) ) ;
#545 = FACE_OUTER_BOUND ( 'NONE', #365, .T. ) ;
#546 = EDGE_CURVE ( 'NONE', #285, #878, #579, .T. ) ;
#547 = ORIENTED_EDGE ( 'NONE', *, *, #969, .T. ) ;
#548 = VECTOR ( 'NONE', #825, 1000.000000000000000 ) ;
#549 = LINE ( 'NONE', #486, #402 ) ;
#550 = CARTESIAN_POINT ( 'NONE',  ( -2.600000000000001421, -1.500000000000000222, 0.000000000000000000 ) ) ;
#551 = ORIENTED_EDGE ( 'NONE', *, *, #651, .T. ) ;
#552 = ADVANCED_FACE ( 'NONE', ( #336 ), #657, .T. ) ;
#553 = AXIS2_PLACEMENT_3D ( 'NONE', #164, #307, #720 ) ;
#554 = VERTEX_POINT ( 'NONE', #733 ) ;
#555 = FACE_OUTER_BOUND ( 'NONE', #727, .T. ) ;
#556 = DIRECTION ( 'NONE',  ( -0.000000000000000000, 0.000000000000000000, 1.000000000000000000 ) ) ;
#557 = VERTEX_POINT ( 'NONE', #430 ) ;
#558 = EDGE_CURVE ( 'NONE', #897, #795, #738, .T. ) ;
#559 = EDGE_LOOP ( 'NONE', ( #405, #633, #415, #515, #642, #473 ) ) ;
#560 = DIRECTION ( 'NONE',  ( -0.000000000000000000, -0.000000000000000000, 1.000000000000000000 ) ) ;
#561 = LINE ( 'NONE', #4, #298 ) ;
#562 = ORIENTED_EDGE ( 'NONE', *, *, #974, .T. ) ;
#563 = VECTOR ( 'NONE', #768, 1000.000000000000000 ) ;
#564 = CC_DESIGN_DATE_AND_TIME_ASSIGNMENT ( #198, #372, ( #31 ) ) ;
#565 = CARTESIAN_POINT ( 'NONE',  ( 9.999999999999998224, 84.99999999999998579, 55.00000000000000000 ) ) ;
#566 = PLANE ( 'NONE',  #923 ) ;
#567 = ORIENTED_EDGE ( 'NONE', *, *, #292, .F. ) ;
#568 = AXIS2_PLACEMENT_3D ( 'NONE', #711, #403, #317 ) ;
#569 = CARTESIAN_POINT ( 'NONE',  ( -64.87950418574509115, 84.99999999999998579, 35.84619810365075665 ) ) ;
#570 = DIRECTION ( 'NONE',  ( -1.000000000000000000, -0.000000000000000000, -0.000000000000000000 ) ) ;
#571 = ADVANCED_FACE ( 'NONE', ( #900 ), #194, .F. ) ;
#572 = ORIENTED_EDGE ( 'NONE', *, *, #161, .F. ) ;
#573 = DIRECTION ( 'NONE',  ( 1.000000000000000000, 0.000000000000000000, 0.000000000000000000 ) ) ;
#574 = DIRECTION ( 'NONE',  ( 0.000000000000000000, -1.000000000000000000, 0.000000000000000000 ) ) ;
#575 = EDGE_CURVE ( 'NONE', #868, #554, #798, .T. ) ;
#576 = VERTEX_POINT ( 'NONE', #608 ) ;
#577 = CARTESIAN_POINT ( 'NONE',  ( -8.000000000000001776, 7.000000000000001776, 20.00000000000000000 ) ) ;
#578 = VECTOR ( 'NONE', #200, 1000.000000000000000 ) ;
#579 = LINE ( 'NONE', #32, #206 ) ;
#580 = DIRECTION ( 'NONE',  ( -0.000000000000000000, 0.8320502943378437211, 0.5547001962252290364 ) ) ;
#581 = ORIENTED_EDGE ( 'NONE', *, *, #131, .T. ) ;
#582 = EDGE_CURVE ( 'NONE', #874, #750, #66, .T. ) ;
#583 = AXIS2_PLACEMENT_3D ( 'NONE', #644, #228, #475 ) ;
#584 = CARTESIAN_POINT ( 'NONE',  ( 0.000000000000000000, 7.000000000000001776, 5.000000000000000000 ) ) ;
#585 = DIRECTION ( 'NONE',  ( -0.000000000000000000, 1.000000000000000000, -0.000000000000000000 ) ) ;
#586 = CARTESIAN_POINT ( 'NONE',  ( -64.87950418574509115, 88.00000000000000000, 35.84619810365075665 ) ) ;
#587 = ORIENTED_EDGE ( 'NONE', *, *, #292, .T. ) ;
#588 = DIRECTION ( 'NONE',  ( 0.000000000000000000, 0.000000000000000000, 1.000000000000000000 ) ) ;
#589 = EDGE_CURVE ( 'NONE', #242, #617, #600, .T. ) ;
#590 = CARTESIAN_POINT ( 'NONE',  ( 7.999999999999998224, 88.00000000000000000, 51.99999999999999289 ) ) ;
#591 = DIRECTION ( 'NONE',  ( -0.7682212795973757391, -0.6401843996644799306, 0.000000000000000000 ) ) ;
#592 = ORIENTED_EDGE ( 'NONE', *, *, #969, .F. ) ;
#593 = CALENDAR_DATE ( 2025, 6, 10 ) ;
#594 = VECTOR ( 'NONE', #56, 1000.000000000000000 ) ;
#595 = FACE_OUTER_BOUND ( 'NONE', #846, .T. ) ;
#596 = DIRECTION ( 'NONE',  ( 0.6401843996644799306, -0.7682212795973757391, 0.000000000000000000 ) ) ;
#597 = ORIENTED_EDGE ( 'NONE', *, *, #777, .T. ) ;
#598 = CALENDAR_DATE ( 2025, 6, 10 ) ;
#599 = AXIS2_PLACEMENT_3D ( 'NONE', #788, #238, #701 ) ;
#600 = LINE ( 'NONE', #142, #770 ) ;
#601 = CARTESIAN_POINT ( 'NONE',  ( 2.599999999999998312, -1.500000000000000444, 0.000000000000000000 ) ) ;
#602 = ORIENTED_EDGE ( 'NONE', *, *, #582, .F. ) ;
#603 = VECTOR ( 'NONE', #212, 1000.000000000000000 ) ;
#604 = CARTESIAN_POINT ( 'NONE',  ( -75.00000000000004263, 84.99999999999998579, 52.00000000000000000 ) ) ;
#605 = DIRECTION ( 'NONE',  ( 0.000000000000000000, 0.000000000000000000, 1.000000000000000000 ) ) ;
#606 = ORIENTED_EDGE ( 'NONE', *, *, #558, .F. ) ;
#607 = CALENDAR_DATE ( 2025, 6, 10 ) ;
#608 = CARTESIAN_POINT ( 'NONE',  ( 0.1204958142550923428, 84.99999999999998579, 34.24619810365059180 ) ) ;
#609 = VECTOR ( 'NONE', #696, 1000.000000000000000 ) ;
#610 = DIRECTION ( 'NONE',  ( 0.000000000000000000, 0.000000000000000000, 1.000000000000000000 ) ) ;
#611 = CIRCLE ( 'NONE', #59, 1.599999999999997202 ) ;
#612 = ORIENTED_EDGE ( 'NONE', *, *, #349, .T. ) ;
#613 = PERSON_AND_ORGANIZATION ( #204, #201 ) ;
#614 = EDGE_CURVE ( 'NONE', #391, #227, #753, .T. ) ;
#615 = DIRECTION ( 'NONE',  ( 0.000000000000000000, 0.000000000000000000, 1.000000000000000000 ) ) ;
#616 = CARTESIAN_POINT ( 'NONE',  ( 8.000000000000000000, 10.00000000000000178, 0.000000000000000000 ) ) ;
#617 = VERTEX_POINT ( 'NONE', #916 ) ;
#618 = ADVANCED_FACE ( 'NONE', ( #677, #76, #441 ), #61, .F. ) ;
#619 = ORIENTED_EDGE ( 'NONE', *, *, #209, .F. ) ;
#620 = CARTESIAN_POINT ( 'NONE',  ( -75.00000000000004263, 88.00000000000000000, 14.99999999999997513 ) ) ;
#621 = DIRECTION ( 'NONE',  ( 0.000000000000000000, -0.6616216370868461816, 0.7498378553650927314 ) ) ;
#622 = ORIENTED_EDGE ( 'NONE', *, *, #438, .T. ) ;
#623 = ORIENTED_EDGE ( 'NONE', *, *, #209, .T. ) ;
#624 = CARTESIAN_POINT ( 'NONE',  ( -2.600000000000001421, -1.500000000000000222, 0.000000000000000000 ) ) ;
#625 = PRODUCT_RELATED_PRODUCT_CATEGORY ( 'detail', '', ( #499 ) ) ;
#626 = LINE ( 'NONE', #938, #922 ) ;
#627 = EDGE_CURVE ( 'NONE', #617, #821, #996, .T. ) ;
#628 = AXIS2_PLACEMENT_3D ( 'NONE', #845, #621, #363 ) ;
#629 = ORIENTED_EDGE ( 'NONE', *, *, #313, .T. ) ;
#630 = ORIENTED_EDGE ( 'NONE', *, *, #876, .T. ) ;
#631 = CARTESIAN_POINT ( 'NONE',  ( 9.999999999999998224, 88.00000000000000000, 55.00000000000000000 ) ) ;
#632 = CARTESIAN_POINT ( 'NONE',  ( -8.000000000000001776, 0.000000000000000000, 0.000000000000000000 ) ) ;
#633 = ORIENTED_EDGE ( 'NONE', *, *, #492, .T. ) ;
#634 = EDGE_CURVE ( 'NONE', #990, #343, #909, .T. ) ;
#635 = VERTEX_POINT ( 'NONE', #984 ) ;
#636 = CARTESIAN_POINT ( 'NONE',  ( -64.87950418574509115, 88.00000000000000000, 34.24619810365076944 ) ) ;
#637 = CARTESIAN_POINT ( 'NONE',  ( -10.00000000000000178, -9.999999999999998224, 5.000000000000000000 ) ) ;
#638 = ORIENTED_EDGE ( 'NONE', *, *, #273, .T. ) ;
#639 = VECTOR ( 'NONE', #525, 1000.000000000000227 ) ;
#640 = DIRECTION ( 'NONE',  ( -1.000000000000000000, 0.000000000000000000, 0.000000000000000000 ) ) ;
#641 = FACE_OUTER_BOUND ( 'NONE', #972, .T. ) ;
#642 = ORIENTED_EDGE ( 'NONE', *, *, #899, .F. ) ;
#643 = AXIS2_PLACEMENT_3D ( 'NONE', #224, #208, #541 ) ;
#644 = CARTESIAN_POINT ( 'NONE',  ( -10.00000000000000888, 84.99999999999998579, 52.00000000000000000 ) ) ;
#645 = EDGE_CURVE ( 'NONE', #296, #83, #147, .T. ) ;
#646 = CARTESIAN_POINT ( 'NONE',  ( -72.00000000000004263, 88.00000000000000000, 14.99999999999997513 ) ) ;
#647 = ORIENTED_EDGE ( 'NONE', *, *, #355, .F. ) ;
#648 = AXIS2_PLACEMENT_3D ( 'NONE', #987, #529, #58 ) ;
#649 = ORIENTED_EDGE ( 'NONE', *, *, #1, .F. ) ;
#650 = DIRECTION ( 'NONE',  ( 1.000000000000000000, 0.000000000000000000, 0.000000000000000000 ) ) ;
#651 = EDGE_CURVE ( 'NONE', #281, #878, #301, .T. ) ;
#652 = CARTESIAN_POINT ( 'NONE',  ( 7.999999999999992895, 10.00000000000000178, 52.00000000000000000 ) ) ;
#653 = AXIS2_PLACEMENT_3D ( 'NONE', #895, #810, #191 ) ;
#654 = CARTESIAN_POINT ( 'NONE',  ( -75.00000000000004263, 84.99999999999998579, 17.99999999999997513 ) ) ;
#655 = ORIENTED_EDGE ( 'NONE', *, *, #86, .T. ) ;
#656 = CARTESIAN_POINT ( 'NONE',  ( -1.734723475976807094E-15, -1.500000000000000444, 5.000000000000000000 ) ) ;
#657 = PLANE ( 'NONE',  #826 ) ;
#658 = CARTESIAN_POINT ( 'NONE',  ( 7.999999999999998224, -10.00000000000000178, 5.000000000000000000 ) ) ;
#659 = ADVANCED_FACE ( 'NONE', ( #283 ), #207, .F. ) ;
#660 = ORIENTED_EDGE ( 'NONE', *, *, #796, .F. ) ;
#661 =( NAMED_UNIT ( * ) SI_UNIT ( $, .STERADIAN. ) SOLID_ANGLE_UNIT ( ) );
#662 = ORIENTED_EDGE ( 'NONE', *, *, #235, .F. ) ;
#663 = CARTESIAN_POINT ( 'NONE',  ( -64.87950418574509115, 80.99999999999998579, 35.84619810365075665 ) ) ;
#664 = CARTESIAN_POINT ( 'NONE',  ( -10.00000000000000178, -9.999999999999998224, 5.000000000000000000 ) ) ;
#665 = EDGE_CURVE ( 'NONE', #750, #868, #759, .T. ) ;
#666 = ORIENTED_EDGE ( 'NONE', *, *, #438, .F. ) ;
#667 = VECTOR ( 'NONE', #3, 1000.000000000000000 ) ;
#668 = CARTESIAN_POINT ( 'NONE',  ( -64.87950418574509115, 84.99999999999998579, 35.84619810365075665 ) ) ;
#669 = CARTESIAN_POINT ( 'NONE',  ( -10.00000000000000178, 10.00000000000000178, 5.000000000000000000 ) ) ;
#670 = FACE_OUTER_BOUND ( 'NONE', #421, .T. ) ;
#671 = ORIENTED_EDGE ( 'NONE', *, *, #693, .F. ) ;
#672 = DATE_AND_TIME ( #598, #280 ) ;
#673 = DIRECTION ( 'NONE',  ( -0.000000000000000000, -0.000000000000000000, -1.000000000000000000 ) ) ;
#674 = CARTESIAN_POINT ( 'NONE',  ( -72.00000000000004263, 60.00000000000000000, 17.99999999999997513 ) ) ;
#675 = ORIENTED_EDGE ( 'NONE', *, *, #252, .T. ) ;
#676 = DATE_AND_TIME ( #607, #908 ) ;
#677 = FACE_BOUND ( 'NONE', #387, .T. ) ;
#678 = CARTESIAN_POINT ( 'NONE',  ( -10.00000000000000178, 7.000000000000001776, 20.00000000000000000 ) ) ;
#679 = ORIENTED_EDGE ( 'NONE', *, *, #546, .F. ) ;
#680 = CIRCLE ( 'NONE', #742, 2.999999999999999112 ) ;
#681 = DIRECTION ( 'NONE',  ( -0.000000000000000000, 1.000000000000000000, -0.000000000000000000 ) ) ;
#682 = DIRECTION ( 'NONE',  ( -0.000000000000000000, 5.782411586589357392E-17, -1.000000000000000000 ) ) ;
#683 = ORIENTED_EDGE ( 'NONE', *, *, #718, .T. ) ;
#684 = COORDINATED_UNIVERSAL_TIME_OFFSET ( 7, 0, .AHEAD. ) ;
#685 = DIRECTION ( 'NONE',  ( 0.000000000000000000, 0.000000000000000000, 1.000000000000000000 ) ) ;
#686 = PLANE ( 'NONE',  #774 ) ;
#687 = ORIENTED_EDGE ( 'NONE', *, *, #707, .F. ) ;
#688 = ADVANCED_FACE ( 'NONE', ( #831 ), #534, .T. ) ;
#689 = DIRECTION ( 'NONE',  ( 1.000000000000000000, 0.000000000000000000, 0.000000000000000000 ) ) ;
#690 = VECTOR ( 'NONE', #773, 1000.000000000000000 ) ;
#691 = LINE ( 'NONE', #754, #609 ) ;
#692 = ORIENTED_EDGE ( 'NONE', *, *, #385, .F. ) ;
#693 = EDGE_CURVE ( 'NONE', #285, #694, #762, .T. ) ;
#694 = VERTEX_POINT ( 'NONE', #70 ) ;
#695 = DIRECTION ( 'NONE',  ( 1.000000000000000000, -0.000000000000000000, -0.000000000000000000 ) ) ;
#696 = DIRECTION ( 'NONE',  ( -0.000000000000000000, -0.000000000000000000, -1.000000000000000000 ) ) ;
#697 = AXIS2_PLACEMENT_3D ( 'NONE', #577, #416, #884 ) ;
#698 = AXIS2_PLACEMENT_3D ( 'NONE', #217, #763, #992 ) ;
#699 = VECTOR ( 'NONE', #270, 1000.000000000000000 ) ;
#700 = ORIENTED_EDGE ( 'NONE', *, *, #330, .T. ) ;
#701 = DIRECTION ( 'NONE',  ( 1.000000000000000000, 0.000000000000000000, 0.000000000000000000 ) ) ;
#702 = EDGE_CURVE ( 'NONE', #169, #635, #133, .T. ) ;
#703 = CARTESIAN_POINT ( 'NONE',  ( -10.00000000000001243, 10.00000000000000178, 52.00000000000000000 ) ) ;
#704 = ORIENTED_EDGE ( 'NONE', *, *, #915, .T. ) ;
#705 = VERTEX_POINT ( 'NONE', #991 ) ;
#706 = DIRECTION ( 'NONE',  ( -0.000000000000000000, 1.000000000000000000, 0.000000000000000000 ) ) ;
#707 = EDGE_CURVE ( 'NONE', #792, #83, #49, .T. ) ;
#708 = FACE_OUTER_BOUND ( 'NONE', #869, .T. ) ;
#709 = ORIENTED_EDGE ( 'NONE', *, *, #46, .T. ) ;
#710 = ORIENTED_EDGE ( 'NONE', *, *, #665, .F. ) ;
#711 = CARTESIAN_POINT ( 'NONE',  ( 0.1204958142550921485, 84.99999999999998579, 35.84619810365059323 ) ) ;
#712 = CARTESIAN_POINT ( 'NONE',  ( 9.999999999999998224, 7.000000000000001776, 52.00000000000000000 ) ) ;
#713 = VECTOR ( 'NONE', #888, 1000.000000000000000 ) ;
#714 = VERTEX_POINT ( 'NONE', #921 ) ;
#715 = LINE ( 'NONE', #388, #236 ) ;
#716 = FACE_BOUND ( 'NONE', #755, .T. ) ;
#717 = ORIENTED_EDGE ( 'NONE', *, *, #827, .F. ) ;
#718 = EDGE_CURVE ( 'NONE', #348, #453, #847, .T. ) ;
#719 = CARTESIAN_POINT ( 'NONE',  ( -75.00000000000004263, 84.99999999999998579, 52.00000000000000000 ) ) ;
#720 = DIRECTION ( 'NONE',  ( 0.000000000000000000, -0.000000000000000000, 1.000000000000000000 ) ) ;
#721 = FACE_OUTER_BOUND ( 'NONE', #353, .T. ) ;
#722 = EDGE_CURVE ( 'NONE', #130, #926, #927, .T. ) ;
#723 = CARTESIAN_POINT ( 'NONE',  ( 0.1204958142550923428, 80.99999999999998579, 34.24619810365059180 ) ) ;
#724 = DIRECTION ( 'NONE',  ( 0.000000000000000000, 0.8320502943378437211, 0.5547001962252291474 ) ) ;
#725 = ORIENTED_EDGE ( 'NONE', *, *, #693, .T. ) ;
#726 = SECURITY_CLASSIFICATION ( '', '', #54 ) ;
#727 = EDGE_LOOP ( 'NONE', ( #63, #393, #100, #612, #16, #807, #782, #189, #736, #630, #107 ) ) ;
#728 = AXIS2_PLACEMENT_3D ( 'NONE', #924, #556, #8 ) ;
#729 = LINE ( 'NONE', #50, #382 ) ;
#730 = EDGE_CURVE ( 'NONE', #210, #557, #128, .T. ) ;
#731 = CARTESIAN_POINT ( 'NONE',  ( 0.1204958142550923428, 88.00000000000000000, 34.24619810365059180 ) ) ;
#732 = DIRECTION ( 'NONE',  ( -1.000000000000000000, 0.000000000000000000, -0.000000000000000000 ) ) ;
#733 = CARTESIAN_POINT ( 'NONE',  ( 9.999999999999998224, 10.00000000000000178, 55.00000000000000000 ) ) ;
#734 = ADVANCED_FACE ( 'NONE', ( #163 ), #13, .F. ) ;
#735 = CARTESIAN_POINT ( 'NONE',  ( 7.999999999999998224, 7.000000000000002665, 5.000000000000000000 ) ) ;
#736 = ORIENTED_EDGE ( 'NONE', *, *, #137, .T. ) ;
#737 = LINE ( 'NONE', #584, #64 ) ;
#738 = LINE ( 'NONE', #44, #94 ) ;
#739 = VECTOR ( 'NONE', #288, 1000.000000000000000 ) ;
#740 = DIRECTION ( 'NONE',  ( -0.000000000000000000, 0.7498378553650925094, 0.6616216370868462926 ) ) ;
#741 = ORIENTED_EDGE ( 'NONE', *, *, #946, .F. ) ;
#742 = AXIS2_PLACEMENT_3D ( 'NONE', #407, #706, #931 ) ;
#743 = APPLICATION_PROTOCOL_DEFINITION ( 'international standard', 'config_control_design', 1994, #104 ) ;
#744 = DIRECTION ( 'NONE',  ( 0.000000000000000000, 0.000000000000000000, 1.000000000000000000 ) ) ;
#745 = PLANE ( 'NONE',  #800 ) ;
#746 = EDGE_LOOP ( 'NONE', ( #448, #893, #153, #709 ) ) ;
#747 = COORDINATED_UNIVERSAL_TIME_OFFSET ( 7, 0, .AHEAD. ) ;
#748 = DIRECTION ( 'NONE',  ( 0.000000000000000000, 1.000000000000000000, -8.896017825522090571E-17 ) ) ;
#749 = LINE ( 'NONE', #735, #594 ) ;
#750 = VERTEX_POINT ( 'NONE', #463 ) ;
#751 = EDGE_CURVE ( 'NONE', #414, #457, #90, .T. ) ;
#752 = CIRCLE ( 'NONE', #308, 1.599999999999990319 ) ;
#753 = LINE ( 'NONE', #55, #472 ) ;
#754 = CARTESIAN_POINT ( 'NONE',  ( 9.999999999999998224, 7.000000000000001776, 25.00000000000000000 ) ) ;
#755 = EDGE_LOOP ( 'NONE', ( #120, #428 ) ) ;
#756 = AXIS2_PLACEMENT_3D ( 'NONE', #450, #455, #837 ) ;
#757 = APPROVAL_STATUS ( 'not_yet_approved' ) ;
#758 = AXIS2_PLACEMENT_3D ( 'NONE', #170, #21, #311 ) ;
#759 = LINE ( 'NONE', #988, #639 ) ;
#760 = CARTESIAN_POINT ( 'NONE',  ( -1.734723475976807094E-15, -1.500000000000000444, 0.000000000000000000 ) ) ;
#761 = ORIENTED_EDGE ( 'NONE', *, *, #320, .F. ) ;
#762 = LINE ( 'NONE', #539, #960 ) ;
#763 = DIRECTION ( 'NONE',  ( 0.000000000000000000, 1.000000000000000000, -8.896017825522090571E-17 ) ) ;
#764 = EDGE_LOOP ( 'NONE', ( #967, #381 ) ) ;
#765 = MECHANICAL_CONTEXT ( 'NONE', #104, 'mechanical' ) ;
#766 = ORIENTED_EDGE ( 'NONE', *, *, #86, .F. ) ;
#767 = CARTESIAN_POINT ( 'NONE',  ( -10.00002500000000261, 10.00000000000000178, 52.00000000000000000 ) ) ;
#768 = DIRECTION ( 'NONE',  ( 1.000000000000000000, 0.000000000000000000, 0.000000000000000000 ) ) ;
#769 = EDGE_LOOP ( 'NONE', ( #649, #629, #474, #226, #572 ) ) ;
#770 = VECTOR ( 'NONE', #367, 1000.000000000000000 ) ;
#771 = LINE ( 'NONE', #398, #667 ) ;
#772 = CC_DESIGN_APPROVAL ( #864, ( #31 ) ) ;
#773 = DIRECTION ( 'NONE',  ( 0.000000000000000000, 0.000000000000000000, 1.000000000000000000 ) ) ;
#774 = AXIS2_PLACEMENT_3D ( 'NONE', #289, #535, #610 ) ;
#775 = ORIENTED_EDGE ( 'NONE', *, *, #665, .T. ) ;
#776 = CIRCLE ( 'NONE', #127, 2.600000000000000089 ) ;
#777 = EDGE_CURVE ( 'NONE', #210, #576, #315, .T. ) ;
#778 = ORIENTED_EDGE ( 'NONE', *, *, #362, .T. ) ;
#779 = CARTESIAN_POINT ( 'NONE',  ( 7.999999999999998224, 88.00000000000000000, 51.99999999999999289 ) ) ;
#780 = FACE_OUTER_BOUND ( 'NONE', #203, .T. ) ;
#781 = ORIENTED_EDGE ( 'NONE', *, *, #235, .T. ) ;
#782 = ORIENTED_EDGE ( 'NONE', *, *, #73, .T. ) ;
#783 = CYLINDRICAL_SURFACE ( 'NONE', #599, 2.600000000000000089 ) ;
#784 = DIRECTION ( 'NONE',  ( 1.000000000000000000, -0.000000000000000000, -0.000000000000000000 ) ) ;
#785 = VECTOR ( 'NONE', #740, 1000.000000000000000 ) ;
#786 = VERTEX_POINT ( 'NONE', #565 ) ;
#787 = VECTOR ( 'NONE', #488, 1000.000000000000000 ) ;
#788 = CARTESIAN_POINT ( 'NONE',  ( -1.734723475976807094E-15, -1.500000000000000444, 0.000000000000000000 ) ) ;
#789 = PLANE ( 'NONE',  #553 ) ;
#790 = ADVANCED_FACE ( 'NONE', ( #937 ), #783, .F. ) ;
#791 = LOCAL_TIME ( 2, 53, 43.00000000000000000, #830 ) ;
#792 = VERTEX_POINT ( 'NONE', #305 ) ;
#793 = CARTESIAN_POINT ( 'NONE',  ( -10.00000000000001776, 7.000000000000000888, 53.75735931288069480 ) ) ;
#794 = DIRECTION ( 'NONE',  ( 0.000000000000000000, 1.000000000000000000, -0.000000000000000000 ) ) ;
#795 = VERTEX_POINT ( 'NONE', #636 ) ;
#796 = EDGE_CURVE ( 'NONE', #296, #34, #680, .T. ) ;
#797 = CARTESIAN_POINT ( 'NONE',  ( 6.999999999999992006, 60.00000000000000000, 14.99999999999997513 ) ) ;
#798 = LINE ( 'NONE', #257, #739 ) ;
#799 = CARTESIAN_POINT ( 'NONE',  ( -10.00000000000000888, 84.99999999999998579, 51.99999999999999289 ) ) ;
#800 = AXIS2_PLACEMENT_3D ( 'NONE', #271, #591, #901 ) ;
#801 = AXIS2_PLACEMENT_3D ( 'NONE', #674, #574, #337 ) ;
#802 = EDGE_CURVE ( 'NONE', #319, #617, #771, .T. ) ;
#803 = DIRECTION ( 'NONE',  ( -0.000000000000000000, 1.000000000000000000, -0.000000000000000000 ) ) ;
#804 = CYLINDRICAL_SURFACE ( 'NONE', #48, 2.999999999999999112 ) ;
#805 = CARTESIAN_POINT ( 'NONE',  ( 6.999999999999992006, 88.00000000000000000, 14.99999999999997513 ) ) ;
#806 = VECTOR ( 'NONE', #96, 1000.000000000000000 ) ;
#807 = ORIENTED_EDGE ( 'NONE', *, *, #627, .T. ) ;
#808 = VECTOR ( 'NONE', #570, 1000.000000000000000 ) ;
#809 = CARTESIAN_POINT ( 'NONE',  ( -75.00000000000004263, 84.99999999999998579, 17.99999999999997513 ) ) ;
#810 = DIRECTION ( 'NONE',  ( -1.000000000000000000, 0.000000000000000000, -0.000000000000000000 ) ) ;
#811 = LINE ( 'NONE', #971, #511 ) ;
#812 = ORIENTED_EDGE ( 'NONE', *, *, #247, .T. ) ;
#813 = CARTESIAN_POINT ( 'NONE',  ( -10.00000000000000178, -9.999999999999998224, 5.000000000000000000 ) ) ;
#814 = DIRECTION ( 'NONE',  ( -0.000000000000000000, 0.000000000000000000, 1.000000000000000000 ) ) ;
#815 = DIRECTION ( 'NONE',  ( 1.734723475976807094E-16, 1.000000000000000000, -0.000000000000000000 ) ) ;
#816 = ORIENTED_EDGE ( 'NONE', *, *, #320, .T. ) ;
#817 = CARTESIAN_POINT ( 'NONE',  ( 9.999999999999998224, 84.99999999999998579, 49.99999999999998579 ) ) ;
#818 = CARTESIAN_POINT ( 'NONE',  ( -2.600000000000001421, -1.500000000000000222, 5.000000000000000000 ) ) ;
#819 = CARTESIAN_POINT ( 'NONE',  ( 0.000000000000000000, 0.000000000000000000, 0.000000000000000000 ) ) ;
#820 = EDGE_CURVE ( 'NONE', #218, #319, #942, .T. ) ;
#821 = VERTEX_POINT ( 'NONE', #875 ) ;
#822 = CIRCLE ( 'NONE', #517, 1.599999999999990319 ) ;
#823 = CALENDAR_DATE ( 2025, 6, 10 ) ;
#824 = DIRECTION ( 'NONE',  ( 1.000000000000000000, 0.000000000000000000, 0.000000000000000000 ) ) ;
#825 = DIRECTION ( 'NONE',  ( -0.000000000000000000, -0.000000000000000000, -1.000000000000000000 ) ) ;
#826 = AXIS2_PLACEMENT_3D ( 'NONE', #199, #814, #424 ) ;
#827 = EDGE_CURVE ( 'NONE', #786, #554, #549, .T. ) ;
#828 = ORIENTED_EDGE ( 'NONE', *, *, #41, .T. ) ;
#829 = UNCERTAINTY_MEASURE_WITH_UNIT (LENGTH_MEASURE( 1.000000000000000082E-05 ), #256, 'distance_accuracy_value', 'NONE');
#830 = COORDINATED_UNIVERSAL_TIME_OFFSET ( 7, 0, .AHEAD. ) ;
#831 = FACE_OUTER_BOUND ( 'NONE', #443, .T. ) ;
#832 = DIRECTION ( 'NONE',  ( -0.000000000000000000, -1.000000000000000000, 8.896017825522090571E-17 ) ) ;
#833 = ORIENTED_EDGE ( 'NONE', *, *, #614, .T. ) ;
#834 = APPROVAL_DATE_TIME ( #676, #53 ) ;
#835 = EDGE_CURVE ( 'NONE', #227, #868, #335, .T. ) ;
#836 = APPLICATION_CONTEXT ( 'configuration controlled 3d designs of mechanical parts and assemblies' ) ;
#837 = DIRECTION ( 'NONE',  ( 0.000000000000000000, -1.000000000000000000, 8.896017825522091804E-17 ) ) ;
#838 = VECTOR ( 'NONE', #347, 1000.000000000000000 ) ;
#839 = DIRECTION ( 'NONE',  ( 0.000000000000000000, 1.000000000000000000, 0.000000000000000000 ) ) ;
#840 = ORIENTED_EDGE ( 'NONE', *, *, #645, .T. ) ;
#841 = APPROVAL_PERSON_ORGANIZATION ( #444, #423, #366 ) ;
#842 = EDGE_CURVE ( 'NONE', #821, #304, #715, .T. ) ;
#843 = DIRECTION ( 'NONE',  ( -1.000000000000000000, 0.000000000000000000, 0.000000000000000000 ) ) ;
#844 = AXIS2_PLACEMENT_3D ( 'NONE', #663, #585, #744 ) ;
#845 = CARTESIAN_POINT ( 'NONE',  ( 7.999999999999998224, 7.000000000000001776, 20.00000000000000000 ) ) ;
#846 = EDGE_LOOP ( 'NONE', ( #504, #466, #687, #359 ) ) ;
#847 = LINE ( 'NONE', #767, #848 ) ;
#848 = VECTOR ( 'NONE', #695, 1000.000000000000000 ) ;
#849 = LINE ( 'NONE', #148, #932 ) ;
#850 = ORIENTED_EDGE ( 'NONE', *, *, #751, .T. ) ;
#851 = ORIENTED_EDGE ( 'NONE', *, *, #915, .F. ) ;
#852 = DIRECTION ( 'NONE',  ( -1.000000000000000000, -0.000000000000000000, -0.000000000000000000 ) ) ;
#853 = AXIS2_PLACEMENT_3D ( 'NONE', #664, #815, #119 ) ;
#854 = PLANE ( 'NONE',  #628 ) ;
#855 = ORIENTED_EDGE ( 'NONE', *, *, #259, .T. ) ;
#856 = ADVANCED_FACE ( 'NONE', ( #555 ), #859, .F. ) ;
#857 = ORIENTED_EDGE ( 'NONE', *, *, #994, .F. ) ;
#858 = ORIENTED_EDGE ( 'NONE', *, *, #222, .T. ) ;
#859 = PLANE ( 'NONE',  #498 ) ;
#860 = CC_DESIGN_SECURITY_CLASSIFICATION ( #726, ( #141 ) ) ;
#861 = DIRECTION ( 'NONE',  ( 0.000000000000000000, 0.000000000000000000, 1.000000000000000000 ) ) ;
#862 = AXIS2_PLACEMENT_3D ( 'NONE', #239, #471, #178 ) ;
#863 = EDGE_LOOP ( 'NONE', ( #72, #245 ) ) ;
#864 = APPROVAL ( #757, 'UNSPECIFIED' ) ;
#865 = EDGE_LOOP ( 'NONE', ( #982, #237, #193, #160 ) ) ;
#866 = FACE_OUTER_BOUND ( 'NONE', #176, .T. ) ;
#867 = DIRECTION ( 'NONE',  ( 0.000000000000000000, -0.7498378553650927314, -0.6616216370868461816 ) ) ;
#868 = VERTEX_POINT ( 'NONE', #157 ) ;
#869 = EDGE_LOOP ( 'NONE', ( #116, #468, #666, #214 ) ) ;
#870 = CARTESIAN_POINT ( 'NONE',  ( -12.50000000000001066, 10.00000000000000888, 55.00000000000000000 ) ) ;
#871 = EDGE_CURVE ( 'NONE', #304, #47, #479, .T. ) ;
#872 = LINE ( 'NONE', #646, #383 ) ;
#873 = VECTOR ( 'NONE', #67, 1000.000000000000000 ) ;
#874 = VERTEX_POINT ( 'NONE', #719 ) ;
#875 = CARTESIAN_POINT ( 'NONE',  ( 9.999999999999998224, 10.00000000000000178, 0.000000000000000000 ) ) ;
#876 = EDGE_CURVE ( 'NONE', #792, #255, #394, .T. ) ;
#877 = PLANE ( 'NONE',  #187 ) ;
#878 = VERTEX_POINT ( 'NONE', #321 ) ;
#879 = CIRCLE ( 'NONE', #436, 3.000000000000002665 ) ;
#880 = DIRECTION ( 'NONE',  ( -0.000000000000000000, -1.000000000000000000, -0.000000000000000000 ) ) ;
#881 = CARTESIAN_POINT ( 'NONE',  ( 9.999999999999998224, 84.99999999999998579, 52.00000000000000000 ) ) ;
#882 = ORIENTED_EDGE ( 'NONE', *, *, #702, .T. ) ;
#883 = ADVANCED_FACE ( 'NONE', ( #866 ), #325, .T. ) ;
#884 = DIRECTION ( 'NONE',  ( 0.000000000000000000, -0.7498378553650925094, -0.6616216370868462926 ) ) ;
#885 = LINE ( 'NONE', #669, #384 ) ;
#886 = CARTESIAN_POINT ( 'NONE',  ( -10.00000000000000178, 7.000000000000001776, 25.00000000000000000 ) ) ;
#887 = EDGE_CURVE ( 'NONE', #332, #281, #947, .T. ) ;
#888 = DIRECTION ( 'NONE',  ( -0.000000000000000000, -1.000000000000000000, -0.000000000000000000 ) ) ;
#889 = VECTOR ( 'NONE', #530, 1000.000000000000000 ) ;
#890 = FACE_OUTER_BOUND ( 'NONE', #57, .T. ) ;
#891 = FACE_OUTER_BOUND ( 'NONE', #746, .T. ) ;
#892 = AXIS2_PLACEMENT_3D ( 'NONE', #656, #105, #650 ) ;
#893 = ORIENTED_EDGE ( 'NONE', *, *, #777, .F. ) ;
#894 = CARTESIAN_POINT ( 'NONE',  ( -64.87950418574509115, 80.99999999999998579, 35.84619810365075665 ) ) ;
#895 = CARTESIAN_POINT ( 'NONE',  ( -10.00000000000001243, 10.00000000000000178, 52.00000000000000000 ) ) ;
#896 = DIRECTION ( 'NONE',  ( 0.000000000000000000, 1.000000000000000000, 0.000000000000000000 ) ) ;
#897 = VERTEX_POINT ( 'NONE', #334 ) ;
#898 = CARTESIAN_POINT ( 'NONE',  ( 6.999999999999999112, 84.99999999999998579, 14.99999999999997513 ) ) ;
#899 = EDGE_CURVE ( 'NONE', #990, #319, #493, .T. ) ;
#900 = FACE_OUTER_BOUND ( 'NONE', #559, .T. ) ;
#901 = DIRECTION ( 'NONE',  ( 0.6401843996644799306, -0.7682212795973757391, 0.000000000000000000 ) ) ;
#902 = ORIENTED_EDGE ( 'NONE', *, *, #940, .T. ) ;
#903 = COORDINATED_UNIVERSAL_TIME_OFFSET ( 7, 0, .AHEAD. ) ;
#904 = FACE_OUTER_BOUND ( 'NONE', #865, .T. ) ;
#905 = VECTOR ( 'NONE', #824, 1000.000000000000000 ) ;
#906 = CARTESIAN_POINT ( 'NONE',  ( -64.87950418574509115, 84.99999999999998579, 37.44619810365075097 ) ) ;
#907 = EDGE_LOOP ( 'NONE', ( #622, #623, #333, #683 ) ) ;
#908 = LOCAL_TIME ( 2, 53, 43.00000000000000000, #747 ) ;
#909 = LINE ( 'NONE', #373, #943 ) ;
#910 = CARTESIAN_POINT ( 'NONE',  ( -64.87950418574509115, 88.00000000000000000, 35.84619810365075665 ) ) ;
#911 = EDGE_CURVE ( 'NONE', #750, #426, #364, .T. ) ;
#912 = CARTESIAN_POINT ( 'NONE',  ( -10.00000000000000888, 84.99999999999998579, 9.999999999999973355 ) ) ;
#913 = CARTESIAN_POINT ( 'NONE',  ( 9.999999999999998224, -10.00000000000000178, 5.000000000000000000 ) ) ;
#914 = ORIENTED_EDGE ( 'NONE', *, *, #400, .T. ) ;
#915 = EDGE_CURVE ( 'NONE', #897, #169, #822, .T. ) ;
#916 = CARTESIAN_POINT ( 'NONE',  ( 9.999999999999998224, -10.00000000000000178, 0.000000000000000000 ) ) ;
#917 = CARTESIAN_POINT ( 'NONE',  ( -75.00000000000004263, 84.99999999999998579, 9.999999999999973355 ) ) ;
#918 = ORIENTED_EDGE ( 'NONE', *, *, #876, .F. ) ;
#919 = APPLICATION_PROTOCOL_DEFINITION ( 'international standard', 'config_control_design', 1994, #836 ) ;
#920 = CC_DESIGN_APPROVAL ( #423, ( #726 ) ) ;
#921 = CARTESIAN_POINT ( 'NONE',  ( 2.599999999999998312, -1.500000000000000444, 5.000000000000000000 ) ) ;
#922 = VECTOR ( 'NONE', #867, 1000.000000000000114 ) ;
#923 = AXIS2_PLACEMENT_3D ( 'NONE', #632, #318, #944 ) ;
#924 = CARTESIAN_POINT ( 'NONE',  ( -1.734723475976807094E-15, -1.500000000000000444, 5.000000000000000000 ) ) ;
#925 = VERTEX_POINT ( 'NONE', #817 ) ;
#926 = VERTEX_POINT ( 'NONE', #898 ) ;
#927 = LINE ( 'NONE', #518, #905 ) ;
#928 = ADVANCED_FACE ( 'NONE', ( #269 ), #489, .T. ) ;
#929 = FACE_OUTER_BOUND ( 'NONE', #935, .T. ) ;
#930 = ORIENTED_EDGE ( 'NONE', *, *, #180, .F. ) ;
#931 = DIRECTION ( 'NONE',  ( 0.000000000000000000, 0.000000000000000000, 1.000000000000000000 ) ) ;
#932 = VECTOR ( 'NONE', #279, 1000.000000000000000 ) ;
#933 = CARTESIAN_POINT ( 'NONE',  ( 0.1204958142550921485, 80.99999999999998579, 35.84619810365059323 ) ) ;
#934 = EDGE_CURVE ( 'NONE', #83, #926, #427, .T. ) ;
#935 = EDGE_LOOP ( 'NONE', ( #551, #95, #592, #124 ) ) ;
#936 = ORIENTED_EDGE ( 'NONE', *, *, #26, .F. ) ;
#937 = FACE_OUTER_BOUND ( 'NONE', #84, .T. ) ;
#938 = CARTESIAN_POINT ( 'NONE',  ( 9.999999999999998224, 7.000000000000001776, 20.00000000000000000 ) ) ;
#939 = ORIENTED_EDGE ( 'NONE', *, *, #707, .T. ) ;
#940 = EDGE_CURVE ( 'NONE', #150, #925, #729, .T. ) ;
#941 = VERTEX_POINT ( 'NONE', #350 ) ;
#942 = LINE ( 'NONE', #232, #954 ) ;
#943 = VECTOR ( 'NONE', #378, 1000.000000000000000 ) ;
#944 = DIRECTION ( 'NONE',  ( 0.000000000000000000, 0.000000000000000000, 1.000000000000000000 ) ) ;
#945 = ORIENTED_EDGE ( 'NONE', *, *, #802, .F. ) ;
#946 = EDGE_CURVE ( 'NONE', #714, #457, #97, .T. ) ;
#947 = LINE ( 'NONE', #246, #171 ) ;
#948 = CYLINDRICAL_SURFACE ( 'NONE', #220, 1.599999999999997202 ) ;
#949 = CIRCLE ( 'NONE', #196, 2.999999999999999112 ) ;
#950 = ORIENTED_EDGE ( 'NONE', *, *, #722, .F. ) ;
#951 = LINE ( 'NONE', #809, #713 ) ;
#952 = CARTESIAN_POINT ( 'NONE',  ( -10.00000000000000178, 7.000000000000001776, 20.00000000000000000 ) ) ;
#953 = CIRCLE ( 'NONE', #536, 1.599999999999990319 ) ;
#954 = VECTOR ( 'NONE', #18, 1000.000000000000000 ) ;
#955 = EDGE_LOOP ( 'NONE', ( #30, #655, #20, #478 ) ) ;
#956 = CARTESIAN_POINT ( 'NONE',  ( -10.00000000000001243, 6.999999999999998224, 52.00000000000000000 ) ) ;
#957 = EDGE_CURVE ( 'NONE', #34, #126, #951, .T. ) ;
#958 = LINE ( 'NONE', #508, #9 ) ;
#959 = DIRECTION ( 'NONE',  ( -0.000000000000000000, 1.000000000000000000, -0.000000000000000000 ) ) ;
#960 = VECTOR ( 'NONE', #689, 1000.000000000000000 ) ;
#961 = CARTESIAN_POINT ( 'NONE',  ( 6.999999999999998224, -10.00000000000000178, 17.99999999999997513 ) ) ;
#962 = DIRECTION ( 'NONE',  ( 0.000000000000000000, 0.000000000000000000, 1.000000000000000000 ) ) ;
#963 = ORIENTED_EDGE ( 'NONE', *, *, #842, .F. ) ;
#964 = LINE ( 'NONE', #956, #699 ) ;
#965 = LINE ( 'NONE', #431, #785 ) ;
#966 = VECTOR ( 'NONE', #43, 1000.000000000000000 ) ;
#967 = ORIENTED_EDGE ( 'NONE', *, *, #259, .F. ) ;
#968 = VECTOR ( 'NONE', #404, 1000.000000000000000 ) ;
#969 = EDGE_CURVE ( 'NONE', #332, #524, #737, .T. ) ;
#970 = DIRECTION ( 'NONE',  ( 0.000000000000000000, 0.000000000000000000, 1.000000000000000000 ) ) ;
#971 = CARTESIAN_POINT ( 'NONE',  ( 9.999999999999998224, -10.00000000000000178, 17.99999999999997513 ) ) ;
#972 = EDGE_LOOP ( 'NONE', ( #145, #93, #918, #939, #5, #12 ) ) ;
#973 = SHAPE_DEFINITION_REPRESENTATION ( #338, #390 ) ;
#974 = EDGE_CURVE ( 'NONE', #169, #897, #953, .T. ) ;
#975 = DIRECTION ( 'NONE',  ( -0.000000000000000000, 0.000000000000000000, 1.000000000000000000 ) ) ;
#976 = CARTESIAN_POINT ( 'NONE',  ( 9.999999999999998224, 88.00000000000000000, 51.99999999999999289 ) ) ;
#977 = ORIENTED_EDGE ( 'NONE', *, *, #974, .F. ) ;
#978 = PERSON_AND_ORGANIZATION ( #204, #201 ) ;
#979 = CARTESIAN_POINT ( 'NONE',  ( 9.999999999999998224, -10.00000000000000178, 0.000000000000000000 ) ) ;
#980 = EDGE_CURVE ( 'NONE', #576, #532, #344, .T. ) ;
#981 = DIRECTION ( 'NONE',  ( -1.000000000000000000, 0.000000000000000000, -0.000000000000000000 ) ) ;
#982 = ORIENTED_EDGE ( 'NONE', *, *, #835, .F. ) ;
#983 = VECTOR ( 'NONE', #481, 1000.000000000000000 ) ;
#984 = CARTESIAN_POINT ( 'NONE',  ( -64.87950418574509115, 88.00000000000000000, 37.44619810365075097 ) ) ;
#985 = CARTESIAN_POINT ( 'NONE',  ( -8.000000000000001776, -9.999999999999998224, 5.000000000000000000 ) ) ;
#986 = ADVANCED_FACE ( 'NONE', ( #185 ), #108, .F. ) ;
#987 = CARTESIAN_POINT ( 'NONE',  ( 0.000000000000000000, 0.000000000000000000, 0.000000000000000000 ) ) ;
#988 = CARTESIAN_POINT ( 'NONE',  ( -75.00000000000004263, 84.99999999999998579, 55.00000000000000000 ) ) ;
#989 = LINE ( 'NONE', #601, #873 ) ;
#990 = VERTEX_POINT ( 'NONE', #329 ) ;
#991 = CARTESIAN_POINT ( 'NONE',  ( 7.999999999999992895, 84.99999999999998579, 51.99999999999999289 ) ) ;
#992 = DIRECTION ( 'NONE',  ( 0.000000000000000000, 0.000000000000000000, 1.000000000000000000 ) ) ;
#993 = EDGE_LOOP ( 'NONE', ( #371, #542, #265, #303, #300, #89 ) ) ;
#994 = EDGE_CURVE ( 'NONE', #426, #255, #113, .T. ) ;
#995 = LOCAL_TIME ( 2, 53, 43.00000000000000000, #903 ) ;
#996 = LINE ( 'NONE', #979, #603 ) ;
#997 = AXIS2_PLACEMENT_3D ( 'NONE', #312, #19, #254 ) ;
#998 = CARTESIAN_POINT ( 'NONE',  ( 0.1204958142550921485, 84.99999999999998579, 37.44619810365058754 ) ) ;
ENDSEC;
END-ISO-10303-21;
