ISO-10303-21;
HEADER;
FILE_DESCRIPTION (( 'STEP AP203' ),
    '1' );
FILE_NAME ('PI5_Bottom_Case.STEP',
    '2025-09-09T18:39:16',
    ( '' ),
    ( '' ),
    'SwSTEP 2.0',
    'SolidWorks 2025',
    '' );
FILE_SCHEMA (( 'CONFIG_CONTROL_DESIGN' ));
ENDSEC;

DATA;
#1 = EDGE_LOOP ( 'NONE', ( #27, #291 ) ) ;
#2 = AXIS2_PLACEMENT_3D ( 'NONE', #374, #457, #345 ) ;
#3 = CARTESIAN_POINT ( 'NONE',  ( 0.000000000000000000, 0.000000000000000000, 0.000000000000000000 ) ) ;
#4 = EDGE_LOOP ( 'NONE', ( #413, #111, #160, #482 ) ) ;
#5 = APPROVAL_STATUS ( 'not_yet_approved' ) ;
#6 = VECTOR ( 'NONE', #23, 1000.000000000000000 ) ;
#7 = ORIENTED_EDGE ( 'NONE', *, *, #52, .F. ) ;
#8 = CARTESIAN_POINT ( 'NONE',  ( 49.99999999999999289, 0.000000000000000000, -95.46357158762531014 ) ) ;
#9 = CIRCLE ( 'NONE', #284, 1.500000000000001332 ) ;
#10 = FACE_BOUND ( 'NONE', #532, .T. ) ;
#11 = DIRECTION ( 'NONE',  ( 0.000000000000000000, 0.000000000000000000, 1.000000000000000000 ) ) ;
#12 = AXIS2_PLACEMENT_3D ( 'NONE', #277, #237, #74 ) ;
#13 = CARTESIAN_POINT ( 'NONE',  ( -50.00000000000001421, 3.000000000000000000, 0.000000000000000000 ) ) ;
#14 = CARTESIAN_POINT ( 'NONE',  ( -44.50000000000000711, 0.000000000000000000, -27.96357158762529238 ) ) ;
#15 = PLANE ( 'NONE',  #78 ) ;
#16 = DIRECTION ( 'NONE',  ( 0.000000000000000000, 1.000000000000000000, 0.000000000000000000 ) ) ;
#17 = ADVANCED_FACE ( 'NONE', ( #303 ), #496, .F. ) ;
#18 = PRODUCT_DEFINITION_FORMATION_WITH_SPECIFIED_SOURCE ( 'ANY', '', #194, .NOT_KNOWN. ) ;
#19 = LINE ( 'NONE', #97, #320 ) ;
#20 = LINE ( 'NONE', #299, #50 ) ;
#21 = VECTOR ( 'NONE', #54, 1000.000000000000000 ) ;
#22 = CIRCLE ( 'NONE', #405, 1.500000000000004885 ) ;
#23 = DIRECTION ( 'NONE',  ( 0.000000000000000000, 0.000000000000000000, -1.000000000000000000 ) ) ;
#24 = DIRECTION ( 'NONE',  ( -0.000000000000000000, -1.000000000000000000, -0.000000000000000000 ) ) ;
#25 = APPROVAL ( #286, 'UNSPECIFIED' ) ;
#26 = FACE_BOUND ( 'NONE', #289, .T. ) ;
#27 = ORIENTED_EDGE ( 'NONE', *, *, #114, .T. ) ;
#28 = DIRECTION ( 'NONE',  ( 1.000000000000000000, -0.000000000000000000, 0.000000000000000000 ) ) ;
#29 = ORIENTED_EDGE ( 'NONE', *, *, #397, .T. ) ;
#30 = CARTESIAN_POINT ( 'NONE',  ( 0.000000000000000000, 3.000000000000000000, 4.463571587625313697 ) ) ;
#31 = ADVANCED_FACE ( 'NONE', ( #344 ), #15, .T. ) ;
#32 = ADVANCED_FACE ( 'NONE', ( #388 ), #420, .F. ) ;
#33 = EDGE_CURVE ( 'NONE', #352, #276, #295, .T. ) ;
#34 = CIRCLE ( 'NONE', #444, 1.500000000000001332 ) ;
#35 = ORIENTED_EDGE ( 'NONE', *, *, #242, .T. ) ;
#36 = APPROVAL_DATE_TIME ( #85, #25 ) ;
#37 = VERTEX_POINT ( 'NONE', #226 ) ;
#38 = DATE_AND_TIME ( #325, #172 ) ;
#39 = VECTOR ( 'NONE', #525, 1000.000000000000000 ) ;
#40 = ORIENTED_EDGE ( 'NONE', *, *, #509, .T. ) ;
#41 = EDGE_LOOP ( 'NONE', ( #359, #121, #29, #35 ) ) ;
#42 = CALENDAR_DATE ( 2025, 10, 9 ) ;
#43 = EDGE_LOOP ( 'NONE', ( #365, #193 ) ) ;
#44 = AXIS2_PLACEMENT_3D ( 'NONE', #346, #105, #471 ) ;
#45 = APPROVAL_ROLE ( '' ) ;
#46 = EDGE_CURVE ( 'NONE', #69, #37, #512, .T. ) ;
#47 = ORIENTED_EDGE ( 'NONE', *, *, #125, .T. ) ;
#48 = CARTESIAN_POINT ( 'NONE',  ( 44.49999999999999289, 3.000000000000000000, -27.96357158762529238 ) ) ;
#49 = CARTESIAN_POINT ( 'NONE',  ( -44.50000000000002132, 3.000000000000000000, -87.46357158762529593 ) ) ;
#50 = VECTOR ( 'NONE', #294, 1000.000000000000000 ) ;
#51 = DIRECTION ( 'NONE',  ( -0.000000000000000000, 1.000000000000000000, -0.000000000000000000 ) ) ;
#52 = EDGE_CURVE ( 'NONE', #113, #200, #188, .T. ) ;
#53 = DIRECTION ( 'NONE',  ( 0.000000000000000000, 1.000000000000000000, 0.000000000000000000 ) ) ;
#54 = DIRECTION ( 'NONE',  ( -0.000000000000000000, 1.000000000000000000, -0.000000000000000000 ) ) ;
#55 = CARTESIAN_POINT ( 'NONE',  ( 44.49999999999997868, 3.000000000000000000, -87.46357158762529593 ) ) ;
#56 = DIRECTION ( 'NONE',  ( 0.000000000000000000, 1.000000000000000000, 0.000000000000000000 ) ) ;
#57 = CARTESIAN_POINT ( 'NONE',  ( 44.49999999999999289, 0.000000000000000000, -30.96357158762530304 ) ) ;
#58 = LOCAL_TIME ( 1, 39, 16.00000000000000000, #161 ) ;
#59 = CARTESIAN_POINT ( 'NONE',  ( 44.49999999999997868, 0.000000000000000000, -87.46357158762529593 ) ) ;
#60 = CARTESIAN_POINT ( 'NONE',  ( 0.000000000000000000, 0.000000000000000000, 4.463571587625313697 ) ) ;
#61 = EDGE_CURVE ( 'NONE', #518, #69, #461, .T. ) ;
#62 = AXIS2_PLACEMENT_3D ( 'NONE', #153, #190, #64 ) ;
#63 = DIRECTION ( 'NONE',  ( 0.000000000000000000, 0.000000000000000000, 1.000000000000000000 ) ) ;
#64 = DIRECTION ( 'NONE',  ( 0.000000000000000000, 0.000000000000000000, 1.000000000000000000 ) ) ;
#65 = DIRECTION ( 'NONE',  ( 0.000000000000000000, 0.000000000000000000, 1.000000000000000000 ) ) ;
#66 = VERTEX_POINT ( 'NONE', #298 ) ;
#67 = CYLINDRICAL_SURFACE ( 'NONE', #430, 1.500000000000004885 ) ;
#68 = EDGE_CURVE ( 'NONE', #159, #318, #95, .T. ) ;
#69 = VERTEX_POINT ( 'NONE', #453 ) ;
#70 = EDGE_CURVE ( 'NONE', #66, #493, #426, .T. ) ;
#71 =( NAMED_UNIT ( * ) PLANE_ANGLE_UNIT ( ) SI_UNIT ( $, .RADIAN. ) );
#72 = CIRCLE ( 'NONE', #300, 1.500000000000004885 ) ;
#73 = ORIENTED_EDGE ( 'NONE', *, *, #92, .F. ) ;
#74 = DIRECTION ( 'NONE',  ( 0.000000000000000000, 0.000000000000000000, 1.000000000000000000 ) ) ;
#75 = ADVANCED_FACE ( 'NONE', ( #93 ), #174, .F. ) ;
#76 = ORIENTED_EDGE ( 'NONE', *, *, #225, .T. ) ;
#77 = PERSON_AND_ORGANIZATION ( #118, #452 ) ;
#78 = AXIS2_PLACEMENT_3D ( 'NONE', #465, #501, #134 ) ;
#79 = AXIS2_PLACEMENT_3D ( 'NONE', #133, #296, #195 ) ;
#80 = ORIENTED_EDGE ( 'NONE', *, *, #246, .T. ) ;
#81 = EDGE_LOOP ( 'NONE', ( #438, #150, #372, #354 ) ) ;
#82 = ORIENTED_EDGE ( 'NONE', *, *, #278, .T. ) ;
#83 = DATE_TIME_ROLE ( 'classification_date' ) ;
#84 = ORIENTED_EDGE ( 'NONE', *, *, #68, .T. ) ;
#85 = DATE_AND_TIME ( #253, #247 ) ;
#86 = APPROVAL ( #5, 'UNSPECIFIED' ) ;
#87 = EDGE_CURVE ( 'NONE', #113, #332, #376, .T. ) ;
#88 = APPROVAL_PERSON_ORGANIZATION ( #366, #204, #168 ) ;
#89 = VERTEX_POINT ( 'NONE', #48 ) ;
#90 = CIRCLE ( 'NONE', #412, 1.500000000000004885 ) ;
#91 = APPROVAL_PERSON_ORGANIZATION ( #165, #86, #45 ) ;
#92 = EDGE_CURVE ( 'NONE', #276, #318, #19, .T. ) ;
#93 = FACE_OUTER_BOUND ( 'NONE', #491, .T. ) ;
#94 = CARTESIAN_POINT ( 'NONE',  ( -44.50000000000000711, 3.000000000000000000, -27.96357158762529238 ) ) ;
#95 = LINE ( 'NONE', #13, #186 ) ;
#96 = CARTESIAN_POINT ( 'NONE',  ( -44.50000000000002132, 3.000000000000000000, -85.96357158762529593 ) ) ;
#97 = CARTESIAN_POINT ( 'NONE',  ( -50.00000000000001421, 0.000000000000000000, -95.46357158762531014 ) ) ;
#98 = CARTESIAN_POINT ( 'NONE',  ( 49.99999999999999289, 0.000000000000000000, 4.463571587625313697 ) ) ;
#99 = CARTESIAN_POINT ( 'NONE',  ( 44.49999999999997868, 0.000000000000000000, -88.96357158762529593 ) ) ;
#100 = DIRECTION ( 'NONE',  ( 0.000000000000000000, 0.000000000000000000, 1.000000000000000000 ) ) ;
#101 = CARTESIAN_POINT ( 'NONE',  ( -50.00000000000001421, 0.000000000000000000, -0.000000000000000000 ) ) ;
#102 = EDGE_CURVE ( 'NONE', #518, #283, #367, .T. ) ;
#103 = CARTESIAN_POINT ( 'NONE',  ( -44.50000000000002132, 3.000000000000000000, -88.96357158762529593 ) ) ;
#104 = AXIS2_PLACEMENT_3D ( 'NONE', #379, #262, #340 ) ;
#105 = DIRECTION ( 'NONE',  ( 0.000000000000000000, 1.000000000000000000, -0.000000000000000000 ) ) ;
#106 = CARTESIAN_POINT ( 'NONE',  ( 44.49999999999999289, 0.000000000000000000, -27.96357158762529238 ) ) ;
#107 = DIRECTION ( 'NONE',  ( -0.000000000000000000, 1.000000000000000000, -0.000000000000000000 ) ) ;
#108 = ORIENTED_EDGE ( 'NONE', *, *, #449, .T. ) ;
#109 = FACE_OUTER_BOUND ( 'NONE', #211, .T. ) ;
#110 = FACE_OUTER_BOUND ( 'NONE', #4, .T. ) ;
#111 = ORIENTED_EDGE ( 'NONE', *, *, #449, .F. ) ;
#112 = DIRECTION ( 'NONE',  ( -0.000000000000000000, -1.000000000000000000, -0.000000000000000000 ) ) ;
#113 = VERTEX_POINT ( 'NONE', #508 ) ;
#114 = EDGE_CURVE ( 'NONE', #429, #273, #72, .T. ) ;
#115 = LINE ( 'NONE', #353, #39 ) ;
#116 = AXIS2_PLACEMENT_3D ( 'NONE', #414, #341, #136 ) ;
#117 = ORIENTED_EDGE ( 'NONE', *, *, #297, .F. ) ;
#118 = PERSON ( 'UNSPECIFIED', 'UNSPECIFIED', 'UNSPECIFIED', ('UNSPECIFIED'), ('UNSPECIFIED'), ('UNSPECIFIED') ) ;
#119 = ORIENTED_EDGE ( 'NONE', *, *, #297, .T. ) ;
#120 = CIRCLE ( 'NONE', #104, 1.500000000000004885 ) ;
#121 = ORIENTED_EDGE ( 'NONE', *, *, #356, .F. ) ;
#122 = APPROVAL_DATE_TIME ( #206, #86 ) ;
#123 = ORIENTED_EDGE ( 'NONE', *, *, #141, .F. ) ;
#124 = PERSON_AND_ORGANIZATION ( #118, #452 ) ;
#125 = EDGE_CURVE ( 'NONE', #493, #404, #90, .T. ) ;
#126 = ORIENTED_EDGE ( 'NONE', *, *, #280, .F. ) ;
#127 = DATE_AND_TIME ( #42, #154 ) ;
#128 = ORIENTED_EDGE ( 'NONE', *, *, #368, .F. ) ;
#129 = ADVANCED_FACE ( 'NONE', ( #218, #458, #337, #10, #499 ), #132, .T. ) ;
#130 = DIRECTION ( 'NONE',  ( 0.000000000000000000, 1.000000000000000000, 0.000000000000000000 ) ) ;
#131 = LINE ( 'NONE', #14, #245 ) ;
#132 = PLANE ( 'NONE',  #44 ) ;
#133 = CARTESIAN_POINT ( 'NONE',  ( -44.50000000000002132, 0.000000000000000000, -87.46357158762529593 ) ) ;
#134 = DIRECTION ( 'NONE',  ( 0.000000000000000000, 0.000000000000000000, 1.000000000000000000 ) ) ;
#135 = CARTESIAN_POINT ( 'NONE',  ( -44.50000000000002132, 0.000000000000000000, -85.96357158762529593 ) ) ;
#136 = DIRECTION ( 'NONE',  ( -1.000000000000000000, 0.000000000000000000, -0.000000000000000000 ) ) ;
#137 = AXIS2_PLACEMENT_3D ( 'NONE', #275, #144, #63 ) ;
#138 = CARTESIAN_POINT ( 'NONE',  ( 44.49999999999999289, 0.000000000000000000, -27.96357158762529238 ) ) ;
#139 = PRODUCT_DEFINITION_SHAPE ( 'NONE', 'NONE',  #330 ) ;
#140 = CARTESIAN_POINT ( 'NONE',  ( 44.49999999999997868, 3.000000000000000000, -87.46357158762529593 ) ) ;
#141 = EDGE_CURVE ( 'NONE', #236, #89, #343, .T. ) ;
#142 = EDGE_CURVE ( 'NONE', #66, #478, #256, .T. ) ;
#143 = LINE ( 'NONE', #302, #416 ) ;
#144 = DIRECTION ( 'NONE',  ( 0.000000000000000000, 1.000000000000000000, -0.000000000000000000 ) ) ;
#145 = CIRCLE ( 'NONE', #333, 1.500000000000001332 ) ;
#146 = CARTESIAN_POINT ( 'NONE',  ( 49.99999999999999289, 3.000000000000000000, 0.000000000000000000 ) ) ;
#147 = ORIENTED_EDGE ( 'NONE', *, *, #141, .T. ) ;
#148 = CARTESIAN_POINT ( 'NONE',  ( -44.50000000000002132, 0.000000000000000000, -88.96357158762529593 ) ) ;
#149 = DIRECTION ( 'NONE',  ( 0.000000000000000000, 1.000000000000000000, 0.000000000000000000 ) ) ;
#150 = ORIENTED_EDGE ( 'NONE', *, *, #183, .F. ) ;
#151 = CYLINDRICAL_SURFACE ( 'NONE', #207, 1.500000000000004885 ) ;
#152 = ORIENTED_EDGE ( 'NONE', *, *, #503, .F. ) ;
#153 = CARTESIAN_POINT ( 'NONE',  ( 44.49999999999997868, 0.000000000000000000, -87.46357158762529593 ) ) ;
#154 = LOCAL_TIME ( 1, 39, 16.00000000000000000, #528 ) ;
#155 = LINE ( 'NONE', #521, #156 ) ;
#156 = VECTOR ( 'NONE', #112, 1000.000000000000000 ) ;
#157 = EDGE_LOOP ( 'NONE', ( #117, #361 ) ) ;
#158 = PERSON_AND_ORGANIZATION_ROLE ( 'classification_officer' ) ;
#159 = VERTEX_POINT ( 'NONE', #470 ) ;
#160 = ORIENTED_EDGE ( 'NONE', *, *, #463, .F. ) ;
#161 = COORDINATED_UNIVERSAL_TIME_OFFSET ( 7, 0, .AHEAD. ) ;
#162 = ADVANCED_FACE ( 'NONE', ( #393 ), #511, .F. ) ;
#163 = AXIS2_PLACEMENT_3D ( 'NONE', #428, #107, #272 ) ;
#164 = ORIENTED_EDGE ( 'NONE', *, *, #183, .T. ) ;
#165 = PERSON_AND_ORGANIZATION ( #118, #452 ) ;
#166 = ADVANCED_FACE ( 'NONE', ( #26, #351, #197, #515, #110 ), #475, .F. ) ;
#167 = ORIENTED_EDGE ( 'NONE', *, *, #368, .T. ) ;
#168 = APPROVAL_ROLE ( '' ) ;
#169 = CLOSED_SHELL ( 'NONE', ( #162, #32, #468, #409, #31, #75, #189, #129, #166, #504, #425, #17, #462, #522 ) ) ;
#170 = ORIENTED_EDGE ( 'NONE', *, *, #523, .T. ) ;
#171 = VECTOR ( 'NONE', #316, 1000.000000000000000 ) ;
#172 = LOCAL_TIME ( 1, 39, 16.00000000000000000, #447 ) ;
#173 = DIRECTION ( 'NONE',  ( -0.000000000000000000, 1.000000000000000000, -0.000000000000000000 ) ) ;
#174 = PLANE ( 'NONE',  #116 ) ;
#175 = CC_DESIGN_DATE_AND_TIME_ASSIGNMENT ( #38, #83, ( #228 ) ) ;
#176 = CYLINDRICAL_SURFACE ( 'NONE', #79, 1.500000000000001332 ) ;
#177 =( GEOMETRIC_REPRESENTATION_CONTEXT ( 3 ) GLOBAL_UNCERTAINTY_ASSIGNED_CONTEXT ( ( #313 ) ) GLOBAL_UNIT_ASSIGNED_CONTEXT ( ( #477, #71, #389 ) ) REPRESENTATION_CONTEXT ( 'NONE', 'WORKASPACE' ) );
#178 = APPLICATION_CONTEXT ( 'configuration controlled 3d designs of mechanical parts and assemblies' ) ;
#179 = DIRECTION ( 'NONE',  ( -0.000000000000000000, -1.000000000000000000, -0.000000000000000000 ) ) ;
#180 = LINE ( 'NONE', #57, #403 ) ;
#181 = DIRECTION ( 'NONE',  ( 0.000000000000000000, 1.000000000000000000, 0.000000000000000000 ) ) ;
#182 = FACE_OUTER_BOUND ( 'NONE', #279, .T. ) ;
#183 = EDGE_CURVE ( 'NONE', #318, #200, #432, .T. ) ;
#184 = EDGE_CURVE ( 'NONE', #200, #315, #306, .T. ) ;
#185 = DIRECTION ( 'NONE',  ( 0.000000000000000000, 1.000000000000000000, 0.000000000000000000 ) ) ;
#186 = VECTOR ( 'NONE', #383, 1000.000000000000000 ) ;
#187 = DIRECTION ( 'NONE',  ( -0.000000000000000000, 1.000000000000000000, -0.000000000000000000 ) ) ;
#188 = LINE ( 'NONE', #456, #373 ) ;
#189 = ADVANCED_FACE ( 'NONE', ( #191 ), #348, .F. ) ;
#190 = DIRECTION ( 'NONE',  ( -0.000000000000000000, 1.000000000000000000, -0.000000000000000000 ) ) ;
#191 = FACE_OUTER_BOUND ( 'NONE', #308, .T. ) ;
#192 = ADVANCED_BREP_SHAPE_REPRESENTATION ( 'PI5_Bottom_Case', ( #490, #293 ), #177 ) ;
#193 = ORIENTED_EDGE ( 'NONE', *, *, #142, .T. ) ;
#194 = PRODUCT ( 'PI5_Bottom_Case', 'PI5_Bottom_Case', '', ( #362 ) ) ;
#195 = DIRECTION ( 'NONE',  ( 0.000000000000000000, 0.000000000000000000, 1.000000000000000000 ) ) ;
#196 = AXIS2_PLACEMENT_3D ( 'NONE', #264, #16, #11 ) ;
#197 = FACE_BOUND ( 'NONE', #1, .T. ) ;
#198 = ORIENTED_EDGE ( 'NONE', *, *, #87, .T. ) ;
#199 = CARTESIAN_POINT ( 'NONE',  ( -44.50000000000000711, 0.000000000000000000, -29.46357158762529593 ) ) ;
#200 = VERTEX_POINT ( 'NONE', #454 ) ;
#201 = DIRECTION ( 'NONE',  ( 1.000000000000000000, -0.000000000000000000, 0.000000000000000000 ) ) ;
#202 = DIRECTION ( 'NONE',  ( 0.000000000000000000, 0.000000000000000000, 1.000000000000000000 ) ) ;
#203 = VECTOR ( 'NONE', #336, 1000.000000000000000 ) ;
#204 = APPROVAL ( #411, 'UNSPECIFIED' ) ;
#205 = ORIENTED_EDGE ( 'NONE', *, *, #371, .F. ) ;
#206 = DATE_AND_TIME ( #215, #321 ) ;
#207 = AXIS2_PLACEMENT_3D ( 'NONE', #199, #274, #202 ) ;
#208 = ORIENTED_EDGE ( 'NONE', *, *, #87, .F. ) ;
#209 = ORIENTED_EDGE ( 'NONE', *, *, #280, .T. ) ;
#210 = PERSON_AND_ORGANIZATION ( #118, #452 ) ;
#211 = EDGE_LOOP ( 'NONE', ( #520, #448, #488, #119 ) ) ;
#212 = PERSON_AND_ORGANIZATION_ROLE ( 'design_supplier' ) ;
#213 = AXIS2_PLACEMENT_3D ( 'NONE', #310, #234, #65 ) ;
#214 = ORIENTED_EDGE ( 'NONE', *, *, #523, .F. ) ;
#215 = CALENDAR_DATE ( 2025, 10, 9 ) ;
#216 = ORIENTED_EDGE ( 'NONE', *, *, #278, .F. ) ;
#217 = DIRECTION ( 'NONE',  ( 0.000000000000000000, 1.000000000000000000, 0.000000000000000000 ) ) ;
#218 = FACE_BOUND ( 'NONE', #233, .T. ) ;
#219 = VECTOR ( 'NONE', #385, 1000.000000000000000 ) ;
#220 = DIRECTION ( 'NONE',  ( 0.000000000000000000, 0.000000000000000000, 1.000000000000000000 ) ) ;
#221 = CARTESIAN_POINT ( 'NONE',  ( 49.99999999999999289, 3.000000000000000000, 4.463571587625313697 ) ) ;
#222 = CARTESIAN_POINT ( 'NONE',  ( 44.49999999999997868, 0.000000000000000000, -87.46357158762529593 ) ) ;
#223 = DIRECTION ( 'NONE',  ( -0.000000000000000000, 1.000000000000000000, -0.000000000000000000 ) ) ;
#224 = DIRECTION ( 'NONE',  ( -0.000000000000000000, 1.000000000000000000, -0.000000000000000000 ) ) ;
#225 = EDGE_CURVE ( 'NONE', #446, #442, #238, .T. ) ;
#226 = CARTESIAN_POINT ( 'NONE',  ( 44.49999999999997868, 3.000000000000000000, -85.96357158762529593 ) ) ;
#227 = DIRECTION ( 'NONE',  ( -0.000000000000000000, 1.000000000000000000, -0.000000000000000000 ) ) ;
#228 = SECURITY_CLASSIFICATION ( '', '', #443 ) ;
#229 = CARTESIAN_POINT ( 'NONE',  ( 44.49999999999999289, 0.000000000000000000, -29.46357158762529593 ) ) ;
#230 = FACE_OUTER_BOUND ( 'NONE', #41, .T. ) ;
#231 = CC_DESIGN_APPROVAL ( #86, ( #330 ) ) ;
#232 = CARTESIAN_POINT ( 'NONE',  ( 49.99999999999999289, 3.000000000000000000, -95.46357158762531014 ) ) ;
#233 = EDGE_LOOP ( 'NONE', ( #450, #530 ) ) ;
#234 = DIRECTION ( 'NONE',  ( 0.000000000000000000, 1.000000000000000000, 0.000000000000000000 ) ) ;
#235 = FACE_OUTER_BOUND ( 'NONE', #406, .T. ) ;
#236 = VERTEX_POINT ( 'NONE', #427 ) ;
#237 = DIRECTION ( 'NONE',  ( 0.000000000000000000, 1.000000000000000000, 0.000000000000000000 ) ) ;
#238 = CIRCLE ( 'NONE', #2, 1.500000000000001332 ) ;
#239 = ORIENTED_EDGE ( 'NONE', *, *, #331, .F. ) ;
#240 = CYLINDRICAL_SURFACE ( 'NONE', #62, 1.500000000000001332 ) ;
#241 = CC_DESIGN_PERSON_AND_ORGANIZATION_ASSIGNMENT ( #323, #489, ( #18 ) ) ;
#242 = EDGE_CURVE ( 'NONE', #37, #69, #34, .T. ) ;
#243 = ORIENTED_EDGE ( 'NONE', *, *, #184, .T. ) ;
#244 = APPROVAL_ROLE ( '' ) ;
#245 = VECTOR ( 'NONE', #224, 1000.000000000000000 ) ;
#246 = EDGE_CURVE ( 'NONE', #429, #89, #467, .T. ) ;
#247 = LOCAL_TIME ( 1, 39, 16.00000000000000000, #328 ) ;
#248 = VERTEX_POINT ( 'NONE', #103 ) ;
#249 = DIRECTION ( 'NONE',  ( 0.000000000000000000, 0.000000000000000000, 1.000000000000000000 ) ) ;
#250 = CIRCLE ( 'NONE', #12, 1.500000000000001332 ) ;
#251 = VERTEX_POINT ( 'NONE', #96 ) ;
#252 = ORIENTED_EDGE ( 'NONE', *, *, #225, .F. ) ;
#253 = CALENDAR_DATE ( 2025, 10, 9 ) ;
#254 = ORIENTED_EDGE ( 'NONE', *, *, #102, .F. ) ;
#255 = CALENDAR_DATE ( 2025, 10, 9 ) ;
#256 = CIRCLE ( 'NONE', #213, 1.500000000000004885 ) ;
#257 = ORIENTED_EDGE ( 'NONE', *, *, #335, .T. ) ;
#258 = CC_DESIGN_PERSON_AND_ORGANIZATION_ASSIGNMENT ( #360, #408, ( #330 ) ) ;
#259 = DIRECTION ( 'NONE',  ( 0.000000000000000000, 0.000000000000000000, -1.000000000000000000 ) ) ;
#260 = CARTESIAN_POINT ( 'NONE',  ( 44.49999999999999289, 0.000000000000000000, -30.96357158762530304 ) ) ;
#261 = CARTESIAN_POINT ( 'NONE',  ( 44.49999999999999289, 0.000000000000000000, -29.46357158762529593 ) ) ;
#262 = DIRECTION ( 'NONE',  ( 0.000000000000000000, 1.000000000000000000, 0.000000000000000000 ) ) ;
#263 = CARTESIAN_POINT ( 'NONE',  ( -44.50000000000000711, 0.000000000000000000, -30.96357158762530304 ) ) ;
#264 = CARTESIAN_POINT ( 'NONE',  ( 44.49999999999999289, 0.000000000000000000, -29.46357158762529593 ) ) ;
#265 = DIRECTION ( 'NONE',  ( 0.000000000000000000, 1.000000000000000000, 0.000000000000000000 ) ) ;
#266 = DIRECTION ( 'NONE',  ( 0.000000000000000000, 0.000000000000000000, 1.000000000000000000 ) ) ;
#267 = DIRECTION ( 'NONE',  ( -0.000000000000000000, 1.000000000000000000, -0.000000000000000000 ) ) ;
#268 = CIRCLE ( 'NONE', #196, 1.500000000000004885 ) ;
#269 = CARTESIAN_POINT ( 'NONE',  ( -50.00000000000001421, 0.000000000000000000, -95.46357158762531014 ) ) ;
#270 = DIRECTION ( 'NONE',  ( 0.000000000000000000, 0.000000000000000000, 1.000000000000000000 ) ) ;
#271 = FACE_OUTER_BOUND ( 'NONE', #391, .T. ) ;
#272 = DIRECTION ( 'NONE',  ( 0.000000000000000000, 0.000000000000000000, 1.000000000000000000 ) ) ;
#273 = VERTEX_POINT ( 'NONE', #260 ) ;
#274 = DIRECTION ( 'NONE',  ( -0.000000000000000000, 1.000000000000000000, -0.000000000000000000 ) ) ;
#275 = CARTESIAN_POINT ( 'NONE',  ( 0.000000000000000000, 0.000000000000000000, 0.000000000000000000 ) ) ;
#276 = VERTEX_POINT ( 'NONE', #269 ) ;
#277 = CARTESIAN_POINT ( 'NONE',  ( -44.50000000000002132, 3.000000000000000000, -87.46357158762529593 ) ) ;
#278 = EDGE_CURVE ( 'NONE', #442, #251, #342, .T. ) ;
#279 = EDGE_LOOP ( 'NONE', ( #128, #126, #82, #400 ) ) ;
#280 = EDGE_CURVE ( 'NONE', #442, #446, #375, .T. ) ;
#281 = LINE ( 'NONE', #60, #529 ) ;
#282 = VECTOR ( 'NONE', #179, 1000.000000000000000 ) ;
#283 = VERTEX_POINT ( 'NONE', #506 ) ;
#284 = AXIS2_PLACEMENT_3D ( 'NONE', #222, #510, #421 ) ;
#285 = ORIENTED_EDGE ( 'NONE', *, *, #114, .F. ) ;
#286 = APPROVAL_STATUS ( 'not_yet_approved' ) ;
#287 = ORIENTED_EDGE ( 'NONE', *, *, #481, .F. ) ;
#288 = PERSON_AND_ORGANIZATION ( #118, #452 ) ;
#289 = EDGE_LOOP ( 'NONE', ( #363, #322 ) ) ;
#290 = APPROVAL_DATE_TIME ( #127, #204 ) ;
#291 = ORIENTED_EDGE ( 'NONE', *, *, #417, .T. ) ;
#292 = DIRECTION ( 'NONE',  ( 0.000000000000000000, 0.000000000000000000, 1.000000000000000000 ) ) ;
#293 = AXIS2_PLACEMENT_3D ( 'NONE', #3, #249, #402 ) ;
#294 = DIRECTION ( 'NONE',  ( -0.000000000000000000, 1.000000000000000000, -0.000000000000000000 ) ) ;
#295 = LINE ( 'NONE', #101, #6 ) ;
#296 = DIRECTION ( 'NONE',  ( -0.000000000000000000, 1.000000000000000000, -0.000000000000000000 ) ) ;
#297 = EDGE_CURVE ( 'NONE', #404, #493, #120, .T. ) ;
#298 = CARTESIAN_POINT ( 'NONE',  ( -44.50000000000000711, 0.000000000000000000, -30.96357158762530304 ) ) ;
#299 = CARTESIAN_POINT ( 'NONE',  ( 44.49999999999997868, 0.000000000000000000, -85.96357158762529593 ) ) ;
#300 = AXIS2_PLACEMENT_3D ( 'NONE', #229, #56, #378 ) ;
#301 = CARTESIAN_POINT ( 'NONE',  ( -44.50000000000000711, 0.000000000000000000, -29.46357158762529593 ) ) ;
#302 = CARTESIAN_POINT ( 'NONE',  ( -44.50000000000002132, 0.000000000000000000, -88.96357158762529593 ) ) ;
#303 = FACE_OUTER_BOUND ( 'NONE', #472, .T. ) ;
#304 = DIRECTION ( 'NONE',  ( 0.000000000000000000, 0.000000000000000000, 1.000000000000000000 ) ) ;
#305 = AXIS2_PLACEMENT_3D ( 'NONE', #301, #223, #380 ) ;
#306 = LINE ( 'NONE', #390, #507 ) ;
#307 = DIRECTION ( 'NONE',  ( -1.000000000000000000, 0.000000000000000000, 0.000000000000000000 ) ) ;
#308 = EDGE_LOOP ( 'NONE', ( #524, #407, #7, #198 ) ) ;
#309 = CARTESIAN_POINT ( 'NONE',  ( -44.50000000000002132, 0.000000000000000000, -85.96357158762529593 ) ) ;
#310 = CARTESIAN_POINT ( 'NONE',  ( -44.50000000000000711, 0.000000000000000000, -29.46357158762529593 ) ) ;
#311 = ORIENTED_EDGE ( 'NONE', *, *, #335, .F. ) ;
#312 = DIRECTION ( 'NONE',  ( 0.000000000000000000, 0.000000000000000000, 1.000000000000000000 ) ) ;
#313 = UNCERTAINTY_MEASURE_WITH_UNIT (LENGTH_MEASURE( 1.000000000000000082E-05 ), #477, 'distance_accuracy_value', 'NONE');
#314 = EDGE_CURVE ( 'NONE', #478, #66, #349, .T. ) ;
#315 = VERTEX_POINT ( 'NONE', #8 ) ;
#316 = DIRECTION ( 'NONE',  ( -1.000000000000000000, 0.000000000000000000, 0.000000000000000000 ) ) ;
#317 = CC_DESIGN_APPROVAL ( #25, ( #18 ) ) ;
#318 = VERTEX_POINT ( 'NONE', #497 ) ;
#319 = CARTESIAN_POINT ( 'NONE',  ( 44.49999999999997868, 0.000000000000000000, -88.96357158762529593 ) ) ;
#320 = VECTOR ( 'NONE', #265, 1000.000000000000000 ) ;
#321 = LOCAL_TIME ( 1, 39, 16.00000000000000000, #533 ) ;
#322 = ORIENTED_EDGE ( 'NONE', *, *, #102, .T. ) ;
#323 = PERSON_AND_ORGANIZATION ( #118, #452 ) ;
#324 = EDGE_LOOP ( 'NONE', ( #209, #76 ) ) ;
#325 = CALENDAR_DATE ( 2025, 10, 9 ) ;
#326 = CC_DESIGN_DATE_AND_TIME_ASSIGNMENT ( #486, #370, ( #330 ) ) ;
#327 = EDGE_LOOP ( 'NONE', ( #334, #152, #84, #73 ) ) ;
#328 = COORDINATED_UNIVERSAL_TIME_OFFSET ( 7, 0, .AHEAD. ) ;
#329 = ORIENTED_EDGE ( 'NONE', *, *, #142, .F. ) ;
#330 = PRODUCT_DEFINITION ( 'UNKNOWN', '', #18, #382 ) ;
#331 = EDGE_CURVE ( 'NONE', #248, #251, #145, .T. ) ;
#332 = VERTEX_POINT ( 'NONE', #98 ) ;
#333 = AXIS2_PLACEMENT_3D ( 'NONE', #49, #502, #424 ) ;
#334 = ORIENTED_EDGE ( 'NONE', *, *, #33, .F. ) ;
#335 = EDGE_CURVE ( 'NONE', #273, #236, #180, .T. ) ;
#336 = DIRECTION ( 'NONE',  ( -0.000000000000000000, 1.000000000000000000, -0.000000000000000000 ) ) ;
#337 = FACE_BOUND ( 'NONE', #485, .T. ) ;
#338 = DIRECTION ( 'NONE',  ( 0.000000000000000000, 1.000000000000000000, 0.000000000000000000 ) ) ;
#339 = CARTESIAN_POINT ( 'NONE',  ( -44.50000000000000711, 3.000000000000000000, -29.46357158762529593 ) ) ;
#340 = DIRECTION ( 'NONE',  ( 0.000000000000000000, 0.000000000000000000, 1.000000000000000000 ) ) ;
#341 = DIRECTION ( 'NONE',  ( 0.000000000000000000, 0.000000000000000000, -1.000000000000000000 ) ) ;
#342 = LINE ( 'NONE', #135, #219 ) ;
#343 = CIRCLE ( 'NONE', #480, 1.500000000000004885 ) ;
#344 = FACE_OUTER_BOUND ( 'NONE', #327, .T. ) ;
#345 = DIRECTION ( 'NONE',  ( 0.000000000000000000, 0.000000000000000000, 1.000000000000000000 ) ) ;
#346 = CARTESIAN_POINT ( 'NONE',  ( 0.000000000000000000, 3.000000000000000000, 0.000000000000000000 ) ) ;
#347 = CARTESIAN_POINT ( 'NONE',  ( 44.49999999999999289, 3.000000000000000000, -29.46357158762529593 ) ) ;
#348 = PLANE ( 'NONE',  #460 ) ;
#349 = CIRCLE ( 'NONE', #514, 1.500000000000004885 ) ;
#350 = PLANE ( 'NONE',  #498 ) ;
#351 = FACE_BOUND ( 'NONE', #43, .T. ) ;
#352 = VERTEX_POINT ( 'NONE', #419 ) ;
#353 = CARTESIAN_POINT ( 'NONE',  ( 49.99999999999999289, 0.000000000000000000, 0.000000000000000000 ) ) ;
#354 = ORIENTED_EDGE ( 'NONE', *, *, #481, .T. ) ;
#355 = CARTESIAN_POINT ( 'NONE',  ( 0.000000000000000000, 0.000000000000000000, -95.46357158762531014 ) ) ;
#356 = EDGE_CURVE ( 'NONE', #283, #518, #9, .T. ) ;
#357 = ORIENTED_EDGE ( 'NONE', *, *, #61, .T. ) ;
#358 = CARTESIAN_POINT ( 'NONE',  ( 49.99999999999999289, 0.000000000000000000, -95.46357158762531014 ) ) ;
#359 = ORIENTED_EDGE ( 'NONE', *, *, #61, .F. ) ;
#360 = PERSON_AND_ORGANIZATION ( #118, #452 ) ;
#361 = ORIENTED_EDGE ( 'NONE', *, *, #125, .F. ) ;
#362 = MECHANICAL_CONTEXT ( 'NONE', #178, 'mechanical' ) ;
#363 = ORIENTED_EDGE ( 'NONE', *, *, #356, .T. ) ;
#364 = APPLICATION_PROTOCOL_DEFINITION ( 'international standard', 'config_control_design', 1994, #396 ) ;
#365 = ORIENTED_EDGE ( 'NONE', *, *, #314, .T. ) ;
#366 = PERSON_AND_ORGANIZATION ( #118, #452 ) ;
#367 = CIRCLE ( 'NONE', #437, 1.500000000000001332 ) ;
#368 = EDGE_CURVE ( 'NONE', #446, #248, #143, .T. ) ;
#369 = EDGE_LOOP ( 'NONE', ( #252, #167, #527, #216 ) ) ;
#370 = DATE_TIME_ROLE ( 'creation_date' ) ;
#371 = EDGE_CURVE ( 'NONE', #478, #404, #131, .T. ) ;
#372 = ORIENTED_EDGE ( 'NONE', *, *, #68, .F. ) ;
#373 = VECTOR ( 'NONE', #259, 1000.000000000000000 ) ;
#374 = CARTESIAN_POINT ( 'NONE',  ( -44.50000000000002132, 0.000000000000000000, -87.46357158762529593 ) ) ;
#375 = CIRCLE ( 'NONE', #469, 1.500000000000001332 ) ;
#376 = LINE ( 'NONE', #221, #282 ) ;
#377 = CARTESIAN_POINT ( 'NONE',  ( -44.50000000000002132, 0.000000000000000000, -87.46357158762529593 ) ) ;
#378 = DIRECTION ( 'NONE',  ( 0.000000000000000000, 0.000000000000000000, 1.000000000000000000 ) ) ;
#379 = CARTESIAN_POINT ( 'NONE',  ( -44.50000000000000711, 3.000000000000000000, -29.46357158762529593 ) ) ;
#380 = DIRECTION ( 'NONE',  ( 0.000000000000000000, 0.000000000000000000, 1.000000000000000000 ) ) ;
#381 = CYLINDRICAL_SURFACE ( 'NONE', #494, 1.500000000000001332 ) ;
#382 = DESIGN_CONTEXT ( 'detailed design', #396, 'design' ) ;
#383 = DIRECTION ( 'NONE',  ( 0.000000000000000000, 0.000000000000000000, -1.000000000000000000 ) ) ;
#384 = CC_DESIGN_SECURITY_CLASSIFICATION ( #228, ( #18 ) ) ;
#385 = DIRECTION ( 'NONE',  ( -0.000000000000000000, 1.000000000000000000, -0.000000000000000000 ) ) ;
#386 = CC_DESIGN_PERSON_AND_ORGANIZATION_ASSIGNMENT ( #124, #212, ( #18 ) ) ;
#387 = VECTOR ( 'NONE', #267, 1000.000000000000000 ) ;
#388 = FACE_OUTER_BOUND ( 'NONE', #398, .T. ) ;
#389 =( NAMED_UNIT ( * ) SI_UNIT ( $, .STERADIAN. ) SOLID_ANGLE_UNIT ( ) );
#390 = CARTESIAN_POINT ( 'NONE',  ( 49.99999999999999289, 0.000000000000000000, -95.46357158762531014 ) ) ;
#391 = EDGE_LOOP ( 'NONE', ( #476, #257, #147, #401 ) ) ;
#392 = APPLICATION_PROTOCOL_DEFINITION ( 'international standard', 'config_control_design', 1994, #178 ) ;
#393 = FACE_OUTER_BOUND ( 'NONE', #410, .T. ) ;
#394 = ORIENTED_EDGE ( 'NONE', *, *, #46, .T. ) ;
#395 = DIRECTION ( 'NONE',  ( 1.000000000000000000, 0.000000000000000000, -0.000000000000000000 ) ) ;
#396 = APPLICATION_CONTEXT ( 'configuration controlled 3d designs of mechanical parts and assemblies' ) ;
#397 = EDGE_CURVE ( 'NONE', #283, #37, #20, .T. ) ;
#398 = EDGE_LOOP ( 'NONE', ( #329, #484, #47, #205 ) ) ;
#399 = CARTESIAN_POINT ( 'NONE',  ( -44.50000000000000711, 0.000000000000000000, -27.96357158762529238 ) ) ;
#400 = ORIENTED_EDGE ( 'NONE', *, *, #487, .T. ) ;
#401 = ORIENTED_EDGE ( 'NONE', *, *, #246, .F. ) ;
#402 = DIRECTION ( 'NONE',  ( 1.000000000000000000, 0.000000000000000000, 0.000000000000000000 ) ) ;
#403 = VECTOR ( 'NONE', #173, 1000.000000000000000 ) ;
#404 = VERTEX_POINT ( 'NONE', #94 ) ;
#405 = AXIS2_PLACEMENT_3D ( 'NONE', #347, #519, #312 ) ;
#406 = EDGE_LOOP ( 'NONE', ( #243, #108, #436, #164 ) ) ;
#407 = ORIENTED_EDGE ( 'NONE', *, *, #184, .F. ) ;
#408 = PERSON_AND_ORGANIZATION_ROLE ( 'creator' ) ;
#409 = ADVANCED_FACE ( 'NONE', ( #459 ), #381, .F. ) ;
#410 = EDGE_LOOP ( 'NONE', ( #254, #357, #394, #433 ) ) ;
#411 = APPROVAL_STATUS ( 'not_yet_approved' ) ;
#412 = AXIS2_PLACEMENT_3D ( 'NONE', #339, #130, #292 ) ;
#413 = ORIENTED_EDGE ( 'NONE', *, *, #33, .T. ) ;
#414 = CARTESIAN_POINT ( 'NONE',  ( 0.000000000000000000, 3.000000000000000000, 4.463571587625313697 ) ) ;
#415 = CARTESIAN_POINT ( 'NONE',  ( -44.50000000000000711, 0.000000000000000000, -29.46357158762529593 ) ) ;
#416 = VECTOR ( 'NONE', #227, 1000.000000000000000 ) ;
#417 = EDGE_CURVE ( 'NONE', #273, #429, #268, .T. ) ;
#418 = DIRECTION ( 'NONE',  ( 0.000000000000000000, 0.000000000000000000, 1.000000000000000000 ) ) ;
#419 = CARTESIAN_POINT ( 'NONE',  ( -50.00000000000001421, 0.000000000000000000, 4.463571587625313697 ) ) ;
#420 = CYLINDRICAL_SURFACE ( 'NONE', #305, 1.500000000000004885 ) ;
#421 = DIRECTION ( 'NONE',  ( 0.000000000000000000, 0.000000000000000000, 1.000000000000000000 ) ) ;
#422 = DIRECTION ( 'NONE',  ( 0.000000000000000000, 0.000000000000000000, 1.000000000000000000 ) ) ;
#423 = CC_DESIGN_PERSON_AND_ORGANIZATION_ASSIGNMENT ( #210, #492, ( #194 ) ) ;
#424 = DIRECTION ( 'NONE',  ( 0.000000000000000000, 0.000000000000000000, 1.000000000000000000 ) ) ;
#425 = ADVANCED_FACE ( 'NONE', ( #182 ), #176, .F. ) ;
#426 = LINE ( 'NONE', #263, #21 ) ;
#427 = CARTESIAN_POINT ( 'NONE',  ( 44.49999999999999289, 3.000000000000000000, -30.96357158762530304 ) ) ;
#428 = CARTESIAN_POINT ( 'NONE',  ( 44.49999999999997868, 0.000000000000000000, -87.46357158762529593 ) ) ;
#429 = VERTEX_POINT ( 'NONE', #106 ) ;
#430 = AXIS2_PLACEMENT_3D ( 'NONE', #434, #483, #431 ) ;
#431 = DIRECTION ( 'NONE',  ( 0.000000000000000000, 0.000000000000000000, 1.000000000000000000 ) ) ;
#432 = LINE ( 'NONE', #232, #451 ) ;
#433 = ORIENTED_EDGE ( 'NONE', *, *, #397, .F. ) ;
#434 = CARTESIAN_POINT ( 'NONE',  ( 44.49999999999999289, 0.000000000000000000, -29.46357158762529593 ) ) ;
#435 = DIRECTION ( 'NONE',  ( 1.000000000000000000, -0.000000000000000000, -0.000000000000000000 ) ) ;
#436 = ORIENTED_EDGE ( 'NONE', *, *, #92, .T. ) ;
#437 = AXIS2_PLACEMENT_3D ( 'NONE', #59, #185, #422 ) ;
#438 = ORIENTED_EDGE ( 'NONE', *, *, #52, .T. ) ;
#439 = ORIENTED_EDGE ( 'NONE', *, *, #487, .F. ) ;
#440 = CC_DESIGN_PERSON_AND_ORGANIZATION_ASSIGNMENT ( #288, #158, ( #228 ) ) ;
#441 = AXIS2_PLACEMENT_3D ( 'NONE', #140, #181, #418 ) ;
#442 = VERTEX_POINT ( 'NONE', #309 ) ;
#443 = SECURITY_CLASSIFICATION_LEVEL ( 'unclassified' ) ;
#444 = AXIS2_PLACEMENT_3D ( 'NONE', #55, #338, #304 ) ;
#445 = ORIENTED_EDGE ( 'NONE', *, *, #503, .T. ) ;
#446 = VERTEX_POINT ( 'NONE', #148 ) ;
#447 = COORDINATED_UNIVERSAL_TIME_OFFSET ( 7, 0, .AHEAD. ) ;
#448 = ORIENTED_EDGE ( 'NONE', *, *, #314, .F. ) ;
#449 = EDGE_CURVE ( 'NONE', #315, #276, #474, .T. ) ;
#450 = ORIENTED_EDGE ( 'NONE', *, *, #242, .F. ) ;
#451 = VECTOR ( 'NONE', #435, 1000.000000000000000 ) ;
#452 = ORGANIZATION ( 'UNSPECIFIED', 'UNSPECIFIED', '' ) ;
#453 = CARTESIAN_POINT ( 'NONE',  ( 44.49999999999997868, 3.000000000000000000, -88.96357158762529593 ) ) ;
#454 = CARTESIAN_POINT ( 'NONE',  ( 49.99999999999999289, 3.000000000000000000, -95.46357158762531014 ) ) ;
#455 = PRODUCT_RELATED_PRODUCT_CATEGORY ( 'detail', '', ( #194 ) ) ;
#456 = CARTESIAN_POINT ( 'NONE',  ( 49.99999999999999289, 3.000000000000000000, 0.000000000000000000 ) ) ;
#457 = DIRECTION ( 'NONE',  ( 0.000000000000000000, 1.000000000000000000, 0.000000000000000000 ) ) ;
#458 = FACE_BOUND ( 'NONE', #157, .T. ) ;
#459 = FACE_OUTER_BOUND ( 'NONE', #369, .T. ) ;
#460 = AXIS2_PLACEMENT_3D ( 'NONE', #146, #307, #220 ) ;
#461 = LINE ( 'NONE', #99, #387 ) ;
#462 = ADVANCED_FACE ( 'NONE', ( #109 ), #151, .F. ) ;
#463 = EDGE_CURVE ( 'NONE', #332, #315, #115, .T. ) ;
#464 = DIRECTION ( 'NONE',  ( 0.000000000000000000, 0.000000000000000000, 1.000000000000000000 ) ) ;
#465 = CARTESIAN_POINT ( 'NONE',  ( -50.00000000000001421, 3.000000000000000000, 0.000000000000000000 ) ) ;
#466 = AXIS2_PLACEMENT_3D ( 'NONE', #261, #51, #505 ) ;
#467 = LINE ( 'NONE', #138, #203 ) ;
#468 = ADVANCED_FACE ( 'NONE', ( #271 ), #67, .F. ) ;
#469 = AXIS2_PLACEMENT_3D ( 'NONE', #500, #217, #100 ) ;
#470 = CARTESIAN_POINT ( 'NONE',  ( -50.00000000000001421, 3.000000000000000000, 4.463571587625313697 ) ) ;
#471 = DIRECTION ( 'NONE',  ( 0.000000000000000000, 0.000000000000000000, 1.000000000000000000 ) ) ;
#472 = EDGE_LOOP ( 'NONE', ( #311, #285, #80, #170 ) ) ;
#473 = VECTOR ( 'NONE', #201, 1000.000000000000000 ) ;
#474 = LINE ( 'NONE', #358, #171 ) ;
#475 = PLANE ( 'NONE',  #137 ) ;
#476 = ORIENTED_EDGE ( 'NONE', *, *, #417, .F. ) ;
#477 =( LENGTH_UNIT ( ) NAMED_UNIT ( * ) SI_UNIT ( .MILLI., .METRE. ) );
#478 = VERTEX_POINT ( 'NONE', #399 ) ;
#479 = DIRECTION ( 'NONE',  ( 0.000000000000000000, -0.000000000000000000, 1.000000000000000000 ) ) ;
#480 = AXIS2_PLACEMENT_3D ( 'NONE', #517, #149, #270 ) ;
#481 = EDGE_CURVE ( 'NONE', #159, #113, #513, .T. ) ;
#482 = ORIENTED_EDGE ( 'NONE', *, *, #509, .F. ) ;
#483 = DIRECTION ( 'NONE',  ( -0.000000000000000000, 1.000000000000000000, -0.000000000000000000 ) ) ;
#484 = ORIENTED_EDGE ( 'NONE', *, *, #70, .T. ) ;
#485 = EDGE_LOOP ( 'NONE', ( #214, #123 ) ) ;
#486 = DATE_AND_TIME ( #255, #58 ) ;
#487 = EDGE_CURVE ( 'NONE', #251, #248, #250, .T. ) ;
#488 = ORIENTED_EDGE ( 'NONE', *, *, #371, .T. ) ;
#489 = PERSON_AND_ORGANIZATION_ROLE ( 'creator' ) ;
#490 = MANIFOLD_SOLID_BREP ( 'Cut-Extrude1', #169 ) ;
#491 = EDGE_LOOP ( 'NONE', ( #40, #208, #287, #445 ) ) ;
#492 = PERSON_AND_ORGANIZATION_ROLE ( 'design_owner' ) ;
#493 = VERTEX_POINT ( 'NONE', #516 ) ;
#494 = AXIS2_PLACEMENT_3D ( 'NONE', #377, #187, #464 ) ;
#495 = APPROVAL_PERSON_ORGANIZATION ( #77, #25, #244 ) ;
#496 = CYLINDRICAL_SURFACE ( 'NONE', #466, 1.500000000000004885 ) ;
#497 = CARTESIAN_POINT ( 'NONE',  ( -50.00000000000001421, 3.000000000000000000, -95.46357158762531014 ) ) ;
#498 = AXIS2_PLACEMENT_3D ( 'NONE', #355, #479, #395 ) ;
#499 = FACE_OUTER_BOUND ( 'NONE', #81, .T. ) ;
#500 = CARTESIAN_POINT ( 'NONE',  ( -44.50000000000002132, 0.000000000000000000, -87.46357158762529593 ) ) ;
#501 = DIRECTION ( 'NONE',  ( -1.000000000000000000, 0.000000000000000000, 0.000000000000000000 ) ) ;
#502 = DIRECTION ( 'NONE',  ( 0.000000000000000000, 1.000000000000000000, 0.000000000000000000 ) ) ;
#503 = EDGE_CURVE ( 'NONE', #159, #352, #155, .T. ) ;
#504 = ADVANCED_FACE ( 'NONE', ( #235 ), #350, .F. ) ;
#505 = DIRECTION ( 'NONE',  ( 0.000000000000000000, 0.000000000000000000, 1.000000000000000000 ) ) ;
#506 = CARTESIAN_POINT ( 'NONE',  ( 44.49999999999997868, 0.000000000000000000, -85.96357158762529593 ) ) ;
#507 = VECTOR ( 'NONE', #24, 1000.000000000000000 ) ;
#508 = CARTESIAN_POINT ( 'NONE',  ( 49.99999999999999289, 3.000000000000000000, 4.463571587625313697 ) ) ;
#509 = EDGE_CURVE ( 'NONE', #352, #332, #281, .T. ) ;
#510 = DIRECTION ( 'NONE',  ( 0.000000000000000000, 1.000000000000000000, 0.000000000000000000 ) ) ;
#511 = CYLINDRICAL_SURFACE ( 'NONE', #163, 1.500000000000001332 ) ;
#512 = CIRCLE ( 'NONE', #441, 1.500000000000001332 ) ;
#513 = LINE ( 'NONE', #30, #473 ) ;
#514 = AXIS2_PLACEMENT_3D ( 'NONE', #415, #53, #266 ) ;
#515 = FACE_BOUND ( 'NONE', #324, .T. ) ;
#516 = CARTESIAN_POINT ( 'NONE',  ( -44.50000000000000711, 3.000000000000000000, -30.96357158762530304 ) ) ;
#517 = CARTESIAN_POINT ( 'NONE',  ( 44.49999999999999289, 3.000000000000000000, -29.46357158762529593 ) ) ;
#518 = VERTEX_POINT ( 'NONE', #319 ) ;
#519 = DIRECTION ( 'NONE',  ( 0.000000000000000000, 1.000000000000000000, 0.000000000000000000 ) ) ;
#520 = ORIENTED_EDGE ( 'NONE', *, *, #70, .F. ) ;
#521 = CARTESIAN_POINT ( 'NONE',  ( -50.00000000000001421, 3.000000000000000000, 4.463571587625313697 ) ) ;
#522 = ADVANCED_FACE ( 'NONE', ( #230 ), #240, .F. ) ;
#523 = EDGE_CURVE ( 'NONE', #89, #236, #22, .T. ) ;
#524 = ORIENTED_EDGE ( 'NONE', *, *, #463, .T. ) ;
#525 = DIRECTION ( 'NONE',  ( 0.000000000000000000, 0.000000000000000000, -1.000000000000000000 ) ) ;
#526 = CC_DESIGN_APPROVAL ( #204, ( #228 ) ) ;
#527 = ORIENTED_EDGE ( 'NONE', *, *, #331, .T. ) ;
#528 = COORDINATED_UNIVERSAL_TIME_OFFSET ( 7, 0, .AHEAD. ) ;
#529 = VECTOR ( 'NONE', #28, 1000.000000000000000 ) ;
#530 = ORIENTED_EDGE ( 'NONE', *, *, #46, .F. ) ;
#531 = SHAPE_DEFINITION_REPRESENTATION ( #139, #192 ) ;
#532 = EDGE_LOOP ( 'NONE', ( #439, #239 ) ) ;
#533 = COORDINATED_UNIVERSAL_TIME_OFFSET ( 7, 0, .AHEAD. ) ;
ENDSEC;
END-ISO-10303-21;
