ISO-10303-21;
HEADER;
FILE_DESCRIPTION (( 'STEP AP203' ),
    '1' );
FILE_NAME ('wire_close.STEP',
    '2025-09-25T10:33:14',
    ( '' ),
    ( '' ),
    'SwSTEP 2.0',
    'SolidWorks 2025',
    '' );
FILE_SCHEMA (( 'CONFIG_CONTROL_DESIGN' ));
ENDSEC;

DATA;
#1 = DATE_AND_TIME ( #209, #7 ) ;
#2 = CARTESIAN_POINT ( 'NONE',  ( 12.49999999999999289, 10.00000000000000000, 5.000000000000002665 ) ) ;
#3 = DIRECTION ( 'NONE',  ( 1.000000000000000000, 0.000000000000000000, 0.000000000000000000 ) ) ;
#4 = VECTOR ( 'NONE', #60, 1000.000000000000000 ) ;
#5 = DATE_AND_TIME ( #70, #193 ) ;
#6 = CALENDAR_DATE ( 2025, 25, 9 ) ;
#7 = LOCAL_TIME ( 17, 33, 14.00000000000000000, #37 ) ;
#8 = ORIENTED_EDGE ( 'NONE', *, *, #432, .F. ) ;
#9 = APPROVAL ( #318, 'UNSPECIFIED' ) ;
#10 = ORIENTED_EDGE ( 'NONE', *, *, #80, .T. ) ;
#11 = ORIENTED_EDGE ( 'NONE', *, *, #177, .T. ) ;
#12 = DIRECTION ( 'NONE',  ( 1.000000000000000000, 0.000000000000000000, 0.000000000000000000 ) ) ;
#13 = ORIENTED_EDGE ( 'NONE', *, *, #432, .T. ) ;
#14 = AXIS2_PLACEMENT_3D ( 'NONE', #380, #211, #276 ) ;
#15 = DIRECTION ( 'NONE',  ( 0.000000000000000000, 1.000000000000000000, 0.000000000000000000 ) ) ;
#16 = VERTEX_POINT ( 'NONE', #265 ) ;
#17 = ADVANCED_FACE ( 'NONE', ( #18 ), #85, .F. ) ;
#18 = FACE_OUTER_BOUND ( 'NONE', #261, .T. ) ;
#19 = ORIENTED_EDGE ( 'NONE', *, *, #177, .F. ) ;
#20 = DIRECTION ( 'NONE',  ( 0.000000000000000000, 1.000000000000000000, 0.000000000000000000 ) ) ;
#21 = FACE_OUTER_BOUND ( 'NONE', #49, .T. ) ;
#22 = VECTOR ( 'NONE', #159, 1000.000000000000000 ) ;
#23 = DIRECTION ( 'NONE',  ( -0.000000000000000000, -0.000000000000000000, 1.000000000000000000 ) ) ;
#24 = VECTOR ( 'NONE', #121, 1000.000000000000000 ) ;
#25 = ADVANCED_FACE ( 'NONE', ( #302 ), #194, .F. ) ;
#26 = DIRECTION ( 'NONE',  ( 1.000000000000000000, 0.000000000000000000, 0.000000000000000000 ) ) ;
#27 = DIRECTION ( 'NONE',  ( -0.000000000000000000, -1.000000000000000000, -0.000000000000000000 ) ) ;
#28 = CARTESIAN_POINT ( 'NONE',  ( -9.250000000000010658, 10.00000000000000000, 0.000000000000000000 ) ) ;
#29 = DIRECTION ( 'NONE',  ( 0.000000000000000000, 0.000000000000000000, 1.000000000000000000 ) ) ;
#30 = APPLICATION_PROTOCOL_DEFINITION ( 'international standard', 'config_control_design', 1994, #107 ) ;
#31 = FACE_OUTER_BOUND ( 'NONE', #227, .T. ) ;
#32 = DESIGN_CONTEXT ( 'detailed design', #244, 'design' ) ;
#33 = DATE_AND_TIME ( #246, #356 ) ;
#34 =( NAMED_UNIT ( * ) SI_UNIT ( $, .STERADIAN. ) SOLID_ANGLE_UNIT ( ) );
#35 = CARTESIAN_POINT ( 'NONE',  ( -9.250000000000010658, 10.00000000000000000, 1.600000000000000089 ) ) ;
#36 = DATE_AND_TIME ( #354, #427 ) ;
#37 = COORDINATED_UNIVERSAL_TIME_OFFSET ( 7, 0, .AHEAD. ) ;
#38 = AXIS2_PLACEMENT_3D ( 'NONE', #132, #312, #451 ) ;
#39 = ADVANCED_FACE ( 'NONE', ( #300, #198 ), #335, .T. ) ;
#40 = ORIENTED_EDGE ( 'NONE', *, *, #148, .T. ) ;
#41 = UNCERTAINTY_MEASURE_WITH_UNIT (LENGTH_MEASURE( 1.000000000000000082E-05 ), #66, 'distance_accuracy_value', 'NONE');
#42 = ORIENTED_EDGE ( 'NONE', *, *, #252, .F. ) ;
#43 = ORIENTED_EDGE ( 'NONE', *, *, #183, .F. ) ;
#44 = CC_DESIGN_PERSON_AND_ORGANIZATION_ASSIGNMENT ( #139, #113, ( #133 ) ) ;
#45 = ORIENTED_EDGE ( 'NONE', *, *, #112, .F. ) ;
#46 = ORIENTED_EDGE ( 'NONE', *, *, #53, .F. ) ;
#47 = AXIS2_PLACEMENT_3D ( 'NONE', #313, #96, #409 ) ;
#48 = CARTESIAN_POINT ( 'NONE',  ( -9.250000000000010658, 0.000000000000000000, 0.000000000000000000 ) ) ;
#49 = EDGE_LOOP ( 'NONE', ( #156, #434, #51, #79, #55, #192 ) ) ;
#50 = DIRECTION ( 'NONE',  ( 0.000000000000000000, -0.000000000000000000, -1.000000000000000000 ) ) ;
#51 = ORIENTED_EDGE ( 'NONE', *, *, #206, .T. ) ;
#52 = CC_DESIGN_SECURITY_CLASSIFICATION ( #171, ( #133 ) ) ;
#53 = EDGE_CURVE ( 'NONE', #16, #365, #259, .T. ) ;
#54 = LINE ( 'NONE', #441, #22 ) ;
#55 = ORIENTED_EDGE ( 'NONE', *, *, #214, .F. ) ;
#56 = CARTESIAN_POINT ( 'NONE',  ( -12.50000000000000888, 0.000000000000000000, 5.000000000000002665 ) ) ;
#57 = PRODUCT_DEFINITION ( 'UNKNOWN', '', #133, #32 ) ;
#58 = PLANE ( 'NONE',  #357 ) ;
#59 = VECTOR ( 'NONE', #240, 1000.000000000000000 ) ;
#60 = DIRECTION ( 'NONE',  ( -1.000000000000000000, -0.000000000000000000, -0.000000000000000000 ) ) ;
#61 = CARTESIAN_POINT ( 'NONE',  ( 9.249999999999992895, 0.000000000000000000, -1.600000000000000089 ) ) ;
#62 = FACE_OUTER_BOUND ( 'NONE', #255, .T. ) ;
#63 = CC_DESIGN_APPROVAL ( #9, ( #57 ) ) ;
#64 = CARTESIAN_POINT ( 'NONE',  ( -12.50000000000000888, 10.00000000000000000, 5.000000000000002665 ) ) ;
#65 = CYLINDRICAL_SURFACE ( 'NONE', #97, 1.600000000000000089 ) ;
#66 =( LENGTH_UNIT ( ) NAMED_UNIT ( * ) SI_UNIT ( .MILLI., .METRE. ) );
#67 = EDGE_CURVE ( 'NONE', #428, #116, #110, .T. ) ;
#68 = DIRECTION ( 'NONE',  ( -1.000000000000000000, 0.000000000000000000, -0.000000000000000000 ) ) ;
#69 = DIRECTION ( 'NONE',  ( 0.000000000000000000, 1.000000000000000000, 0.000000000000000000 ) ) ;
#70 = CALENDAR_DATE ( 2025, 25, 9 ) ;
#71 = CARTESIAN_POINT ( 'NONE',  ( -6.000000000000009770, 0.000000000000000000, -19.99999999999999645 ) ) ;
#72 = VECTOR ( 'NONE', #108, 1000.000000000000000 ) ;
#73 = PERSON_AND_ORGANIZATION_ROLE ( 'classification_officer' ) ;
#74 = DIRECTION ( 'NONE',  ( 0.000000000000000000, 0.000000000000000000, 1.000000000000000000 ) ) ;
#75 = APPROVAL_STATUS ( 'not_yet_approved' ) ;
#76 = VECTOR ( 'NONE', #27, 1000.000000000000000 ) ;
#77 = CC_DESIGN_PERSON_AND_ORGANIZATION_ASSIGNMENT ( #351, #73, ( #171 ) ) ;
#78 = VERTEX_POINT ( 'NONE', #267 ) ;
#79 = ORIENTED_EDGE ( 'NONE', *, *, #123, .F. ) ;
#80 = EDGE_CURVE ( 'NONE', #186, #251, #305, .T. ) ;
#81 = ORIENTED_EDGE ( 'NONE', *, *, #101, .T. ) ;
#82 = EDGE_LOOP ( 'NONE', ( #398, #429, #287, #442 ) ) ;
#83 = VERTEX_POINT ( 'NONE', #295 ) ;
#84 = VECTOR ( 'NONE', #307, 1000.000000000000000 ) ;
#85 = PLANE ( 'NONE',  #321 ) ;
#86 = VERTEX_POINT ( 'NONE', #433 ) ;
#87 = AXIS2_PLACEMENT_3D ( 'NONE', #367, #15, #124 ) ;
#88 =( GEOMETRIC_REPRESENTATION_CONTEXT ( 3 ) GLOBAL_UNCERTAINTY_ASSIGNED_CONTEXT ( ( #41 ) ) GLOBAL_UNIT_ASSIGNED_CONTEXT ( ( #66, #278, #34 ) ) REPRESENTATION_CONTEXT ( 'NONE', 'WORKASPACE' ) );
#89 = FACE_OUTER_BOUND ( 'NONE', #82, .T. ) ;
#90 = ORIENTED_EDGE ( 'NONE', *, *, #269, .F. ) ;
#91 = LINE ( 'NONE', #56, #145 ) ;
#92 = ORIENTED_EDGE ( 'NONE', *, *, #135, .F. ) ;
#93 = FACE_OUTER_BOUND ( 'NONE', #151, .T. ) ;
#94 = ADVANCED_FACE ( 'NONE', ( #89 ), #223, .F. ) ;
#95 = CARTESIAN_POINT ( 'NONE',  ( -12.50000000000000888, 10.00000000000000000, -4.999999999999997335 ) ) ;
#96 = DIRECTION ( 'NONE',  ( 0.000000000000000000, -1.000000000000000000, 0.000000000000000000 ) ) ;
#97 = AXIS2_PLACEMENT_3D ( 'NONE', #230, #103, #376 ) ;
#98 = CARTESIAN_POINT ( 'NONE',  ( -12.50000000000000888, 10.00000000000000000, -4.999999999999997335 ) ) ;
#99 = DIRECTION ( 'NONE',  ( -1.000000000000000000, 0.000000000000000000, 0.000000000000000000 ) ) ;
#100 = FACE_OUTER_BOUND ( 'NONE', #371, .T. ) ;
#101 = EDGE_CURVE ( 'NONE', #83, #392, #155, .T. ) ;
#102 = CARTESIAN_POINT ( 'NONE',  ( -12.50000000000000888, 0.000000000000000000, -4.999999999999997335 ) ) ;
#103 = DIRECTION ( 'NONE',  ( -0.000000000000000000, 1.000000000000000000, -0.000000000000000000 ) ) ;
#104 = MECHANICAL_CONTEXT ( 'NONE', #107, 'mechanical' ) ;
#105 = LINE ( 'NONE', #233, #72 ) ;
#106 = COORDINATED_UNIVERSAL_TIME_OFFSET ( 7, 0, .AHEAD. ) ;
#107 = APPLICATION_CONTEXT ( 'configuration controlled 3d designs of mechanical parts and assemblies' ) ;
#108 = DIRECTION ( 'NONE',  ( -0.000000000000000000, 1.000000000000000000, -0.000000000000000000 ) ) ;
#109 = APPROVAL_ROLE ( '' ) ;
#110 = CIRCLE ( 'NONE', #236, 1.600000000000000089 ) ;
#111 = VECTOR ( 'NONE', #142, 1000.000000000000000 ) ;
#112 = EDGE_CURVE ( 'NONE', #296, #365, #438, .T. ) ;
#113 = PERSON_AND_ORGANIZATION_ROLE ( 'creator' ) ;
#114 = APPROVAL_PERSON_ORGANIZATION ( #146, #288, #180 ) ;
#115 = EDGE_LOOP ( 'NONE', ( #286, #401, #19, #195 ) ) ;
#116 = VERTEX_POINT ( 'NONE', #266 ) ;
#117 = ORIENTED_EDGE ( 'NONE', *, *, #135, .T. ) ;
#118 = DIRECTION ( 'NONE',  ( 0.000000000000000000, -1.000000000000000000, 0.000000000000000000 ) ) ;
#119 = ORIENTED_EDGE ( 'NONE', *, *, #128, .F. ) ;
#120 = VECTOR ( 'NONE', #26, 1000.000000000000000 ) ;
#121 = DIRECTION ( 'NONE',  ( 0.000000000000000000, 0.000000000000000000, -1.000000000000000000 ) ) ;
#122 = ORIENTED_EDGE ( 'NONE', *, *, #123, .T. ) ;
#123 = EDGE_CURVE ( 'NONE', #219, #78, #226, .T. ) ;
#124 = DIRECTION ( 'NONE',  ( 0.000000000000000000, 0.000000000000000000, 1.000000000000000000 ) ) ;
#125 = EDGE_LOOP ( 'NONE', ( #404, #127, #117, #43, #119, #368 ) ) ;
#126 = FACE_BOUND ( 'NONE', #293, .T. ) ;
#127 = ORIENTED_EDGE ( 'NONE', *, *, #453, .F. ) ;
#128 = EDGE_CURVE ( 'NONE', #430, #393, #54, .T. ) ;
#129 = DIRECTION ( 'NONE',  ( -0.000000000000000000, 1.000000000000000000, -0.000000000000000000 ) ) ;
#130 = LINE ( 'NONE', #444, #158 ) ;
#131 = VECTOR ( 'NONE', #447, 1000.000000000000000 ) ;
#132 = CARTESIAN_POINT ( 'NONE',  ( -9.250000000000010658, 0.000000000000000000, 0.000000000000000000 ) ) ;
#133 = PRODUCT_DEFINITION_FORMATION_WITH_SPECIFIED_SOURCE ( 'ANY', '', #154, .NOT_KNOWN. ) ;
#134 = DIRECTION ( 'NONE',  ( 0.000000000000000000, 0.000000000000000000, 1.000000000000000000 ) ) ;
#135 = EDGE_CURVE ( 'NONE', #292, #83, #91, .T. ) ;
#136 = CARTESIAN_POINT ( 'NONE',  ( -9.250000000000010658, 0.000000000000000000, -1.600000000000000089 ) ) ;
#137 = LINE ( 'NONE', #102, #306 ) ;
#138 = LINE ( 'NONE', #136, #412 ) ;
#139 = PERSON_AND_ORGANIZATION ( #331, #205 ) ;
#140 = CARTESIAN_POINT ( 'NONE',  ( -9.250000000000010658, 10.00000000000000000, -1.600000000000000089 ) ) ;
#141 = APPROVAL_DATE_TIME ( #1, #9 ) ;
#142 = DIRECTION ( 'NONE',  ( 0.000000000000000000, 0.000000000000000000, -1.000000000000000000 ) ) ;
#143 = AXIS2_PLACEMENT_3D ( 'NONE', #204, #69, #29 ) ;
#144 = COORDINATED_UNIVERSAL_TIME_OFFSET ( 7, 0, .AHEAD. ) ;
#145 = VECTOR ( 'NONE', #229, 1000.000000000000000 ) ;
#146 = PERSON_AND_ORGANIZATION ( #331, #205 ) ;
#147 = ORIENTED_EDGE ( 'NONE', *, *, #241, .F. ) ;
#148 = EDGE_CURVE ( 'NONE', #116, #428, #181, .T. ) ;
#149 = EDGE_LOOP ( 'NONE', ( #42, #147, #224, #13 ) ) ;
#150 = ORIENTED_EDGE ( 'NONE', *, *, #399, .T. ) ;
#151 = EDGE_LOOP ( 'NONE', ( #184, #221, #217, #294 ) ) ;
#152 = MANIFOLD_SOLID_BREP ( 'Cut-Extrude2', #299 ) ;
#153 = ORIENTED_EDGE ( 'NONE', *, *, #372, .F. ) ;
#154 = PRODUCT ( 'wire_close', 'wire_close', '', ( #104 ) ) ;
#155 = LINE ( 'NONE', #436, #24 ) ;
#156 = ORIENTED_EDGE ( 'NONE', *, *, #374, .T. ) ;
#157 = ADVANCED_FACE ( 'NONE', ( #126, #405, #93 ), #375, .F. ) ;
#158 = VECTOR ( 'NONE', #268, 1000.000000000000000 ) ;
#159 = DIRECTION ( 'NONE',  ( 1.000000000000000000, 0.000000000000000000, 0.000000000000000000 ) ) ;
#160 = ORIENTED_EDGE ( 'NONE', *, *, #311, .F. ) ;
#161 = CC_DESIGN_DATE_AND_TIME_ASSIGNMENT ( #36, #175, ( #57 ) ) ;
#162 = DIRECTION ( 'NONE',  ( 0.000000000000000000, 0.000000000000000000, 1.000000000000000000 ) ) ;
#163 = ORIENTED_EDGE ( 'NONE', *, *, #346, .T. ) ;
#164 = ADVANCED_FACE ( 'NONE', ( #100 ), #65, .F. ) ;
#165 = CARTESIAN_POINT ( 'NONE',  ( 9.249999999999992895, 0.000000000000000000, 0.000000000000000000 ) ) ;
#166 = CARTESIAN_POINT ( 'NONE',  ( -12.50000000000000888, 0.000000000000000000, 5.000000000000002665 ) ) ;
#167 = CARTESIAN_POINT ( 'NONE',  ( 12.49999999999999289, 10.00000000000000000, -4.999999999999997335 ) ) ;
#168 = AXIS2_PLACEMENT_3D ( 'NONE', #413, #99, #350 ) ;
#169 = DIRECTION ( 'NONE',  ( 0.000000000000000000, 0.000000000000000000, 1.000000000000000000 ) ) ;
#170 = CARTESIAN_POINT ( 'NONE',  ( -12.50000000000000888, 0.000000000000000000, 5.000000000000002665 ) ) ;
#171 = SECURITY_CLASSIFICATION ( '', '', #358 ) ;
#172 = ADVANCED_FACE ( 'NONE', ( #21 ), #58, .F. ) ;
#173 = DIRECTION ( 'NONE',  ( -1.000000000000000000, -0.000000000000000000, -0.000000000000000000 ) ) ;
#174 = CARTESIAN_POINT ( 'NONE',  ( 9.249999999999992895, 0.000000000000000000, -1.600000000000000089 ) ) ;
#175 = DATE_TIME_ROLE ( 'creation_date' ) ;
#176 = LINE ( 'NONE', #61, #445 ) ;
#177 = EDGE_CURVE ( 'NONE', #78, #197, #234, .T. ) ;
#178 = APPROVAL_ROLE ( '' ) ;
#179 = DIRECTION ( 'NONE',  ( -0.000000000000000000, -1.000000000000000000, -0.000000000000000000 ) ) ;
#180 = APPROVAL_ROLE ( '' ) ;
#181 = CIRCLE ( 'NONE', #232, 1.600000000000000089 ) ;
#182 = AXIS2_PLACEMENT_3D ( 'NONE', #373, #118, #50 ) ;
#183 = EDGE_CURVE ( 'NONE', #393, #83, #339, .T. ) ;
#184 = ORIENTED_EDGE ( 'NONE', *, *, #390, .T. ) ;
#185 = ADVANCED_BREP_SHAPE_REPRESENTATION ( 'wire_close', ( #152, #344 ), #88 ) ;
#186 = VERTEX_POINT ( 'NONE', #304 ) ;
#187 = EDGE_LOOP ( 'NONE', ( #160, #150, #391, #326 ) ) ;
#188 = ORIENTED_EDGE ( 'NONE', *, *, #285, .F. ) ;
#189 = VERTEX_POINT ( 'NONE', #417 ) ;
#190 = APPROVAL_PERSON_ORGANIZATION ( #422, #9, #178 ) ;
#191 = DIRECTION ( 'NONE',  ( 1.000000000000000000, -0.000000000000000000, 0.000000000000000000 ) ) ;
#192 = ORIENTED_EDGE ( 'NONE', *, *, #263, .T. ) ;
#193 = LOCAL_TIME ( 17, 33, 14.00000000000000000, #383 ) ;
#194 = CYLINDRICAL_SURFACE ( 'NONE', #342, 1.600000000000000089 ) ;
#195 = ORIENTED_EDGE ( 'NONE', *, *, #206, .F. ) ;
#196 = DIRECTION ( 'NONE',  ( 0.000000000000000000, 1.000000000000000000, 0.000000000000000000 ) ) ;
#197 = VERTEX_POINT ( 'NONE', #166 ) ;
#198 = FACE_BOUND ( 'NONE', #437, .T. ) ;
#199 = DIRECTION ( 'NONE',  ( -0.000000000000000000, -0.000000000000000000, 1.000000000000000000 ) ) ;
#200 = VECTOR ( 'NONE', #199, 1000.000000000000000 ) ;
#201 = FACE_OUTER_BOUND ( 'NONE', #187, .T. ) ;
#202 = CARTESIAN_POINT ( 'NONE',  ( -9.250000000000010658, 0.000000000000000000, -1.600000000000000089 ) ) ;
#203 = VECTOR ( 'NONE', #220, 1000.000000000000000 ) ;
#204 = CARTESIAN_POINT ( 'NONE',  ( -9.250000000000010658, 0.000000000000000000, 0.000000000000000000 ) ) ;
#205 = ORGANIZATION ( 'UNSPECIFIED', 'UNSPECIFIED', '' ) ;
#206 = EDGE_CURVE ( 'NONE', #298, #78, #130, .T. ) ;
#207 = CARTESIAN_POINT ( 'NONE',  ( -12.50000000000000888, 10.00000000000000000, 5.000000000000002665 ) ) ;
#208 = CYLINDRICAL_SURFACE ( 'NONE', #272, 1.600000000000000089 ) ;
#209 = CALENDAR_DATE ( 2025, 25, 9 ) ;
#210 = PLANE ( 'NONE',  #47 ) ;
#211 = DIRECTION ( 'NONE',  ( 0.000000000000000000, -1.000000000000000000, 0.000000000000000000 ) ) ;
#212 = DIRECTION ( 'NONE',  ( 1.000000000000000000, 0.000000000000000000, 0.000000000000000000 ) ) ;
#213 = CARTESIAN_POINT ( 'NONE',  ( -6.000000000000009770, 0.000000000000000000, -4.999999999999997335 ) ) ;
#214 = EDGE_CURVE ( 'NONE', #189, #219, #408, .T. ) ;
#215 = COORDINATED_UNIVERSAL_TIME_OFFSET ( 7, 0, .AHEAD. ) ;
#216 = DIRECTION ( 'NONE',  ( 0.000000000000000000, 1.000000000000000000, 0.000000000000000000 ) ) ;
#217 = ORIENTED_EDGE ( 'NONE', *, *, #285, .T. ) ;
#218 = EDGE_LOOP ( 'NONE', ( #362, #254, #395, #92 ) ) ;
#219 = VERTEX_POINT ( 'NONE', #411 ) ;
#220 = DIRECTION ( 'NONE',  ( -0.000000000000000000, 1.000000000000000000, -0.000000000000000000 ) ) ;
#221 = ORIENTED_EDGE ( 'NONE', *, *, #214, .T. ) ;
#222 = CIRCLE ( 'NONE', #402, 1.600000000000000089 ) ;
#223 = CYLINDRICAL_SURFACE ( 'NONE', #283, 6.000000000000000888 ) ;
#224 = ORIENTED_EDGE ( 'NONE', *, *, #53, .T. ) ;
#225 = APPROVAL_PERSON_ORGANIZATION ( #314, #386, #109 ) ;
#226 = LINE ( 'NONE', #264, #424 ) ;
#227 = EDGE_LOOP ( 'NONE', ( #81, #290, #324, #289 ) ) ;
#228 = ADVANCED_FACE ( 'NONE', ( #201 ), #208, .F. ) ;
#229 = DIRECTION ( 'NONE',  ( 1.000000000000000000, 0.000000000000000000, 0.000000000000000000 ) ) ;
#230 = CARTESIAN_POINT ( 'NONE',  ( -9.250000000000010658, 0.000000000000000000, 0.000000000000000000 ) ) ;
#231 = CARTESIAN_POINT ( 'NONE',  ( 12.49999999999999289, 10.00000000000000000, 5.000000000000002665 ) ) ;
#232 = AXIS2_PLACEMENT_3D ( 'NONE', #370, #196, #162 ) ;
#233 = CARTESIAN_POINT ( 'NONE',  ( 9.249999999999992895, 0.000000000000000000, 1.600000000000000089 ) ) ;
#234 = LINE ( 'NONE', #170, #200 ) ;
#235 = DIRECTION ( 'NONE',  ( 1.000000000000000000, 0.000000000000000000, 0.000000000000000000 ) ) ;
#236 = AXIS2_PLACEMENT_3D ( 'NONE', #338, #20, #364 ) ;
#237 = DIRECTION ( 'NONE',  ( -0.000000000000000000, 1.000000000000000000, -0.000000000000000000 ) ) ;
#238 = CC_DESIGN_PERSON_AND_ORGANIZATION_ASSIGNMENT ( #320, #280, ( #57 ) ) ;
#239 = CARTESIAN_POINT ( 'NONE',  ( -12.50000000000000888, 0.000000000000000000, 5.000000000000002665 ) ) ;
#240 = DIRECTION ( 'NONE',  ( -0.000000000000000000, -0.000000000000000000, 1.000000000000000000 ) ) ;
#241 = EDGE_CURVE ( 'NONE', #16, #394, #282, .T. ) ;
#242 = CARTESIAN_POINT ( 'NONE',  ( -12.50000000000000888, 10.00000000000000000, 5.000000000000002665 ) ) ;
#243 = APPROVAL_DATE_TIME ( #33, #386 ) ;
#244 = APPLICATION_CONTEXT ( 'configuration controlled 3d designs of mechanical parts and assemblies' ) ;
#245 = PLANE ( 'NONE',  #322 ) ;
#246 = CALENDAR_DATE ( 2025, 25, 9 ) ;
#247 = VECTOR ( 'NONE', #179, 1000.000000000000000 ) ;
#248 = DIRECTION ( 'NONE',  ( 0.000000000000000000, 0.000000000000000000, 1.000000000000000000 ) ) ;
#249 = PERSON_AND_ORGANIZATION ( #331, #205 ) ;
#250 = EDGE_CURVE ( 'NONE', #336, #292, #341, .T. ) ;
#251 = VERTEX_POINT ( 'NONE', #174 ) ;
#252 = EDGE_CURVE ( 'NONE', #394, #296, #138, .T. ) ;
#253 = ORIENTED_EDGE ( 'NONE', *, *, #241, .T. ) ;
#254 = ORIENTED_EDGE ( 'NONE', *, *, #374, .F. ) ;
#255 = EDGE_LOOP ( 'NONE', ( #361, #330, #163, #40 ) ) ;
#256 = CIRCLE ( 'NONE', #38, 1.600000000000000089 ) ;
#257 = DIRECTION ( 'NONE',  ( 0.000000000000000000, 0.000000000000000000, 1.000000000000000000 ) ) ;
#258 = EDGE_LOOP ( 'NONE', ( #359, #360 ) ) ;
#259 = LINE ( 'NONE', #407, #203 ) ;
#260 = PRODUCT_DEFINITION_SHAPE ( 'NONE', 'NONE',  #57 ) ;
#261 = EDGE_LOOP ( 'NONE', ( #11, #153, #188, #122 ) ) ;
#262 = AXIS2_PLACEMENT_3D ( 'NONE', #388, #74, #3 ) ;
#263 = EDGE_CURVE ( 'NONE', #189, #392, #446, .T. ) ;
#264 = CARTESIAN_POINT ( 'NONE',  ( -12.50000000000000888, 10.00000000000000000, -4.999999999999997335 ) ) ;
#265 = CARTESIAN_POINT ( 'NONE',  ( -9.250000000000010658, 0.000000000000000000, 1.600000000000000089 ) ) ;
#266 = CARTESIAN_POINT ( 'NONE',  ( 9.249999999999992895, 10.00000000000000000, 1.600000000000000089 ) ) ;
#267 = CARTESIAN_POINT ( 'NONE',  ( -12.50000000000000888, 0.000000000000000000, -4.999999999999997335 ) ) ;
#268 = DIRECTION ( 'NONE',  ( -1.000000000000000000, -0.000000000000000000, -0.000000000000000000 ) ) ;
#269 = EDGE_CURVE ( 'NONE', #394, #16, #256, .T. ) ;
#270 = DIRECTION ( 'NONE',  ( -0.000000000000000000, 1.000000000000000000, -0.000000000000000000 ) ) ;
#271 = CARTESIAN_POINT ( 'NONE',  ( -12.50000000000000888, 10.00000000000000000, 5.000000000000002665 ) ) ;
#272 = AXIS2_PLACEMENT_3D ( 'NONE', #378, #237, #382 ) ;
#273 = PLANE ( 'NONE',  #168 ) ;
#274 = LINE ( 'NONE', #271, #59 ) ;
#275 = DIRECTION ( 'NONE',  ( -0.000000000000000000, 1.000000000000000000, -0.000000000000000000 ) ) ;
#276 = DIRECTION ( 'NONE',  ( 0.000000000000000000, -0.000000000000000000, -1.000000000000000000 ) ) ;
#277 = DATE_TIME_ROLE ( 'classification_date' ) ;
#278 =( NAMED_UNIT ( * ) PLANE_ANGLE_UNIT ( ) SI_UNIT ( $, .RADIAN. ) );
#279 = DIRECTION ( 'NONE',  ( 0.000000000000000000, 1.000000000000000000, 0.000000000000000000 ) ) ;
#280 = PERSON_AND_ORGANIZATION_ROLE ( 'creator' ) ;
#281 = CARTESIAN_POINT ( 'NONE',  ( 12.49999999999999289, 0.000000000000000000, -4.999999999999997335 ) ) ;
#282 = CIRCLE ( 'NONE', #143, 1.600000000000000089 ) ;
#283 = AXIS2_PLACEMENT_3D ( 'NONE', #297, #439, #12 ) ;
#284 = APPROVAL_DATE_TIME ( #425, #288 ) ;
#285 = EDGE_CURVE ( 'NONE', #219, #430, #274, .T. ) ;
#286 = ORIENTED_EDGE ( 'NONE', *, *, #355, .F. ) ;
#287 = ORIENTED_EDGE ( 'NONE', *, *, #355, .T. ) ;
#288 = APPROVAL ( #75, 'UNSPECIFIED' ) ;
#289 = ORIENTED_EDGE ( 'NONE', *, *, #183, .T. ) ;
#290 = ORIENTED_EDGE ( 'NONE', *, *, #263, .F. ) ;
#291 = ADVANCED_FACE ( 'NONE', ( #62 ), #415, .F. ) ;
#292 = VERTEX_POINT ( 'NONE', #452 ) ;
#293 = EDGE_LOOP ( 'NONE', ( #8, #45 ) ) ;
#294 = ORIENTED_EDGE ( 'NONE', *, *, #128, .T. ) ;
#295 = CARTESIAN_POINT ( 'NONE',  ( 12.49999999999999289, 0.000000000000000000, 5.000000000000002665 ) ) ;
#296 = VERTEX_POINT ( 'NONE', #140 ) ;
#297 = CARTESIAN_POINT ( 'NONE',  ( -8.673617379884035472E-15, 0.000000000000000000, -19.99999999999999645 ) ) ;
#298 = VERTEX_POINT ( 'NONE', #213 ) ;
#299 = CLOSED_SHELL ( 'NONE', ( #164, #228, #39, #426, #172, #17, #414, #157, #334, #291, #25, #94 ) ) ;
#300 = FACE_OUTER_BOUND ( 'NONE', #218, .T. ) ;
#301 = ORIENTED_EDGE ( 'NONE', *, *, #311, .T. ) ;
#302 = FACE_OUTER_BOUND ( 'NONE', #149, .T. ) ;
#303 = PRODUCT_RELATED_PRODUCT_CATEGORY ( 'detail', '', ( #154 ) ) ;
#304 = CARTESIAN_POINT ( 'NONE',  ( 9.249999999999992895, 0.000000000000000000, 1.600000000000000089 ) ) ;
#305 = CIRCLE ( 'NONE', #363, 1.600000000000000089 ) ;
#306 = VECTOR ( 'NONE', #173, 1000.000000000000000 ) ;
#307 = DIRECTION ( 'NONE',  ( -0.000000000000000000, -1.000000000000000000, -0.000000000000000000 ) ) ;
#308 = CARTESIAN_POINT ( 'NONE',  ( 9.249999999999992895, 0.000000000000000000, 0.000000000000000000 ) ) ;
#309 = DIRECTION ( 'NONE',  ( -0.000000000000000000, 1.000000000000000000, -0.000000000000000000 ) ) ;
#310 = FACE_BOUND ( 'NONE', #327, .T. ) ;
#311 = EDGE_CURVE ( 'NONE', #251, #186, #396, .T. ) ;
#312 = DIRECTION ( 'NONE',  ( 0.000000000000000000, 1.000000000000000000, 0.000000000000000000 ) ) ;
#313 = CARTESIAN_POINT ( 'NONE',  ( 0.000000000000000000, 0.000000000000000000, 0.000000000000000000 ) ) ;
#314 = PERSON_AND_ORGANIZATION ( #331, #205 ) ;
#315 = APPLICATION_PROTOCOL_DEFINITION ( 'international standard', 'config_control_design', 1994, #244 ) ;
#316 = LINE ( 'NONE', #2, #111 ) ;
#317 = SHAPE_DEFINITION_REPRESENTATION ( #260, #185 ) ;
#318 = APPROVAL_STATUS ( 'not_yet_approved' ) ;
#319 = AXIS2_PLACEMENT_3D ( 'NONE', #308, #279, #450 ) ;
#320 = PERSON_AND_ORGANIZATION ( #331, #205 ) ;
#321 = AXIS2_PLACEMENT_3D ( 'NONE', #332, #191, #397 ) ;
#322 = AXIS2_PLACEMENT_3D ( 'NONE', #207, #343, #68 ) ;
#323 = CC_DESIGN_PERSON_AND_ORGANIZATION_ASSIGNMENT ( #384, #352, ( #154 ) ) ;
#324 = ORIENTED_EDGE ( 'NONE', *, *, #390, .F. ) ;
#325 = EDGE_CURVE ( 'NONE', #197, #86, #353, .T. ) ;
#326 = ORIENTED_EDGE ( 'NONE', *, *, #346, .F. ) ;
#327 = EDGE_LOOP ( 'NONE', ( #253, #440 ) ) ;
#328 = AXIS2_PLACEMENT_3D ( 'NONE', #423, #134, #235 ) ;
#329 = DIRECTION ( 'NONE',  ( 0.000000000000000000, 1.000000000000000000, 0.000000000000000000 ) ) ;
#330 = ORIENTED_EDGE ( 'NONE', *, *, #80, .F. ) ;
#331 = PERSON ( 'UNSPECIFIED', 'UNSPECIFIED', 'UNSPECIFIED', ('UNSPECIFIED'), ('UNSPECIFIED'), ('UNSPECIFIED') ) ;
#332 = CARTESIAN_POINT ( 'NONE',  ( -12.50000000000000888, 10.00000000000000000, 5.000000000000002665 ) ) ;
#333 = ORIENTED_EDGE ( 'NONE', *, *, #252, .T. ) ;
#334 = ADVANCED_FACE ( 'NONE', ( #385, #310 ), #210, .T. ) ;
#335 = PLANE ( 'NONE',  #182 ) ;
#336 = VERTEX_POINT ( 'NONE', #416 ) ;
#337 = CC_DESIGN_DATE_AND_TIME_ASSIGNMENT ( #5, #277, ( #171 ) ) ;
#338 = CARTESIAN_POINT ( 'NONE',  ( 9.249999999999992895, 10.00000000000000000, 0.000000000000000000 ) ) ;
#339 = LINE ( 'NONE', #231, #76 ) ;
#340 = AXIS2_PLACEMENT_3D ( 'NONE', #165, #270, #169 ) ;
#341 = LINE ( 'NONE', #348, #435 ) ;
#342 = AXIS2_PLACEMENT_3D ( 'NONE', #48, #129, #257 ) ;
#343 = DIRECTION ( 'NONE',  ( 0.000000000000000000, 0.000000000000000000, -1.000000000000000000 ) ) ;
#344 = AXIS2_PLACEMENT_3D ( 'NONE', #349, #248, #212 ) ;
#345 = DIRECTION ( 'NONE',  ( 0.000000000000000000, 0.000000000000000000, 1.000000000000000000 ) ) ;
#346 = EDGE_CURVE ( 'NONE', #186, #116, #105, .T. ) ;
#347 = CARTESIAN_POINT ( 'NONE',  ( 12.49999999999999289, 10.00000000000000000, 5.000000000000002665 ) ) ;
#348 = CARTESIAN_POINT ( 'NONE',  ( 5.999999999999992006, 0.000000000000000000, -19.99999999999999645 ) ) ;
#349 = CARTESIAN_POINT ( 'NONE',  ( 0.000000000000000000, 0.000000000000000000, 0.000000000000000000 ) ) ;
#350 = DIRECTION ( 'NONE',  ( 0.000000000000000000, 0.000000000000000000, 1.000000000000000000 ) ) ;
#351 = PERSON_AND_ORGANIZATION ( #331, #205 ) ;
#352 = PERSON_AND_ORGANIZATION_ROLE ( 'design_owner' ) ;
#353 = LINE ( 'NONE', #239, #120 ) ;
#354 = CALENDAR_DATE ( 2025, 25, 9 ) ;
#355 = EDGE_CURVE ( 'NONE', #86, #298, #377, .T. ) ;
#356 = LOCAL_TIME ( 17, 33, 14.00000000000000000, #106 ) ;
#357 = AXIS2_PLACEMENT_3D ( 'NONE', #98, #345, #449 ) ;
#358 = SECURITY_CLASSIFICATION_LEVEL ( 'unclassified' ) ;
#359 = ORIENTED_EDGE ( 'NONE', *, *, #148, .F. ) ;
#360 = ORIENTED_EDGE ( 'NONE', *, *, #67, .F. ) ;
#361 = ORIENTED_EDGE ( 'NONE', *, *, #399, .F. ) ;
#362 = ORIENTED_EDGE ( 'NONE', *, *, #250, .F. ) ;
#363 = AXIS2_PLACEMENT_3D ( 'NONE', #443, #329, #400 ) ;
#364 = DIRECTION ( 'NONE',  ( 0.000000000000000000, 0.000000000000000000, 1.000000000000000000 ) ) ;
#365 = VERTEX_POINT ( 'NONE', #35 ) ;
#366 = CIRCLE ( 'NONE', #328, 6.000000000000000888 ) ;
#367 = CARTESIAN_POINT ( 'NONE',  ( -9.250000000000010658, 10.00000000000000000, 0.000000000000000000 ) ) ;
#368 = ORIENTED_EDGE ( 'NONE', *, *, #372, .T. ) ;
#369 = CC_DESIGN_APPROVAL ( #288, ( #133 ) ) ;
#370 = CARTESIAN_POINT ( 'NONE',  ( 9.249999999999992895, 10.00000000000000000, 0.000000000000000000 ) ) ;
#371 = EDGE_LOOP ( 'NONE', ( #90, #333, #431, #46 ) ) ;
#372 = EDGE_CURVE ( 'NONE', #430, #197, #421, .T. ) ;
#373 = CARTESIAN_POINT ( 'NONE',  ( 0.000000000000000000, 0.000000000000000000, 0.000000000000000000 ) ) ;
#374 = EDGE_CURVE ( 'NONE', #392, #336, #137, .T. ) ;
#375 = PLANE ( 'NONE',  #14 ) ;
#376 = DIRECTION ( 'NONE',  ( 0.000000000000000000, 0.000000000000000000, 1.000000000000000000 ) ) ;
#377 = LINE ( 'NONE', #71, #131 ) ;
#378 = CARTESIAN_POINT ( 'NONE',  ( 9.249999999999992895, 0.000000000000000000, 0.000000000000000000 ) ) ;
#379 = CARTESIAN_POINT ( 'NONE',  ( 9.249999999999992895, 10.00000000000000000, -1.600000000000000089 ) ) ;
#380 = CARTESIAN_POINT ( 'NONE',  ( 0.000000000000000000, 10.00000000000000000, 0.000000000000000000 ) ) ;
#381 = FACE_OUTER_BOUND ( 'NONE', #125, .T. ) ;
#382 = DIRECTION ( 'NONE',  ( 0.000000000000000000, 0.000000000000000000, 1.000000000000000000 ) ) ;
#383 = COORDINATED_UNIVERSAL_TIME_OFFSET ( 7, 0, .AHEAD. ) ;
#384 = PERSON_AND_ORGANIZATION ( #331, #205 ) ;
#385 = FACE_OUTER_BOUND ( 'NONE', #115, .T. ) ;
#386 = APPROVAL ( #418, 'UNSPECIFIED' ) ;
#387 = CIRCLE ( 'NONE', #262, 6.000000000000000888 ) ;
#388 = CARTESIAN_POINT ( 'NONE',  ( -8.673617379884035472E-15, 0.000000000000000000, 5.000000000000002665 ) ) ;
#389 = PERSON_AND_ORGANIZATION_ROLE ( 'design_supplier' ) ;
#390 = EDGE_CURVE ( 'NONE', #393, #189, #316, .T. ) ;
#391 = ORIENTED_EDGE ( 'NONE', *, *, #67, .T. ) ;
#392 = VERTEX_POINT ( 'NONE', #281 ) ;
#393 = VERTEX_POINT ( 'NONE', #347 ) ;
#394 = VERTEX_POINT ( 'NONE', #202 ) ;
#395 = ORIENTED_EDGE ( 'NONE', *, *, #101, .F. ) ;
#396 = CIRCLE ( 'NONE', #319, 1.600000000000000089 ) ;
#397 = DIRECTION ( 'NONE',  ( 0.000000000000000000, 0.000000000000000000, -1.000000000000000000 ) ) ;
#398 = ORIENTED_EDGE ( 'NONE', *, *, #250, .T. ) ;
#399 = EDGE_CURVE ( 'NONE', #251, #428, #176, .T. ) ;
#400 = DIRECTION ( 'NONE',  ( 0.000000000000000000, 0.000000000000000000, 1.000000000000000000 ) ) ;
#401 = ORIENTED_EDGE ( 'NONE', *, *, #325, .F. ) ;
#402 = AXIS2_PLACEMENT_3D ( 'NONE', #28, #216, #419 ) ;
#403 = DIRECTION ( 'NONE',  ( -0.000000000000000000, -1.000000000000000000, -0.000000000000000000 ) ) ;
#404 = ORIENTED_EDGE ( 'NONE', *, *, #325, .T. ) ;
#405 = FACE_BOUND ( 'NONE', #258, .T. ) ;
#406 = EDGE_CURVE ( 'NONE', #336, #298, #366, .T. ) ;
#407 = CARTESIAN_POINT ( 'NONE',  ( -9.250000000000010658, 0.000000000000000000, 1.600000000000000089 ) ) ;
#408 = LINE ( 'NONE', #95, #4 ) ;
#409 = DIRECTION ( 'NONE',  ( 0.000000000000000000, -0.000000000000000000, -1.000000000000000000 ) ) ;
#410 = CC_DESIGN_APPROVAL ( #386, ( #171 ) ) ;
#411 = CARTESIAN_POINT ( 'NONE',  ( -12.50000000000000888, 10.00000000000000000, -4.999999999999997335 ) ) ;
#412 = VECTOR ( 'NONE', #309, 1000.000000000000000 ) ;
#413 = CARTESIAN_POINT ( 'NONE',  ( 12.49999999999999289, 10.00000000000000000, 5.000000000000002665 ) ) ;
#414 = ADVANCED_FACE ( 'NONE', ( #381 ), #245, .F. ) ;
#415 = CYLINDRICAL_SURFACE ( 'NONE', #340, 1.600000000000000089 ) ;
#416 = CARTESIAN_POINT ( 'NONE',  ( 5.999999999999992006, 0.000000000000000000, -4.999999999999997335 ) ) ;
#417 = CARTESIAN_POINT ( 'NONE',  ( 12.49999999999999289, 10.00000000000000000, -4.999999999999997335 ) ) ;
#418 = APPROVAL_STATUS ( 'not_yet_approved' ) ;
#419 = DIRECTION ( 'NONE',  ( 0.000000000000000000, 0.000000000000000000, 1.000000000000000000 ) ) ;
#420 = CC_DESIGN_PERSON_AND_ORGANIZATION_ASSIGNMENT ( #249, #389, ( #133 ) ) ;
#421 = LINE ( 'NONE', #242, #247 ) ;
#422 = PERSON_AND_ORGANIZATION ( #331, #205 ) ;
#423 = CARTESIAN_POINT ( 'NONE',  ( -8.673617379884035472E-15, 0.000000000000000000, -4.999999999999997335 ) ) ;
#424 = VECTOR ( 'NONE', #403, 1000.000000000000000 ) ;
#425 = DATE_AND_TIME ( #6, #448 ) ;
#426 = ADVANCED_FACE ( 'NONE', ( #31 ), #273, .F. ) ;
#427 = LOCAL_TIME ( 17, 33, 14.00000000000000000, #215 ) ;
#428 = VERTEX_POINT ( 'NONE', #379 ) ;
#429 = ORIENTED_EDGE ( 'NONE', *, *, #453, .T. ) ;
#430 = VERTEX_POINT ( 'NONE', #64 ) ;
#431 = ORIENTED_EDGE ( 'NONE', *, *, #112, .T. ) ;
#432 = EDGE_CURVE ( 'NONE', #365, #296, #222, .T. ) ;
#433 = CARTESIAN_POINT ( 'NONE',  ( -6.000000000000009770, 0.000000000000000000, 5.000000000000002665 ) ) ;
#434 = ORIENTED_EDGE ( 'NONE', *, *, #406, .T. ) ;
#435 = VECTOR ( 'NONE', #23, 1000.000000000000000 ) ;
#436 = CARTESIAN_POINT ( 'NONE',  ( 12.49999999999999289, 0.000000000000000000, 5.000000000000002665 ) ) ;
#437 = EDGE_LOOP ( 'NONE', ( #10, #301 ) ) ;
#438 = CIRCLE ( 'NONE', #87, 1.600000000000000089 ) ;
#439 = DIRECTION ( 'NONE',  ( -0.000000000000000000, -0.000000000000000000, 1.000000000000000000 ) ) ;
#440 = ORIENTED_EDGE ( 'NONE', *, *, #269, .T. ) ;
#441 = CARTESIAN_POINT ( 'NONE',  ( -12.50000000000000888, 10.00000000000000000, 5.000000000000002665 ) ) ;
#442 = ORIENTED_EDGE ( 'NONE', *, *, #406, .F. ) ;
#443 = CARTESIAN_POINT ( 'NONE',  ( 9.249999999999992895, 0.000000000000000000, 0.000000000000000000 ) ) ;
#444 = CARTESIAN_POINT ( 'NONE',  ( -12.50000000000000888, 0.000000000000000000, -4.999999999999997335 ) ) ;
#445 = VECTOR ( 'NONE', #275, 1000.000000000000000 ) ;
#446 = LINE ( 'NONE', #167, #84 ) ;
#447 = DIRECTION ( 'NONE',  ( 0.000000000000000000, 0.000000000000000000, -1.000000000000000000 ) ) ;
#448 = LOCAL_TIME ( 17, 33, 14.00000000000000000, #144 ) ;
#449 = DIRECTION ( 'NONE',  ( 1.000000000000000000, 0.000000000000000000, -0.000000000000000000 ) ) ;
#450 = DIRECTION ( 'NONE',  ( 0.000000000000000000, 0.000000000000000000, 1.000000000000000000 ) ) ;
#451 = DIRECTION ( 'NONE',  ( 0.000000000000000000, 0.000000000000000000, 1.000000000000000000 ) ) ;
#452 = CARTESIAN_POINT ( 'NONE',  ( 5.999999999999992006, 0.000000000000000000, 5.000000000000002665 ) ) ;
#453 = EDGE_CURVE ( 'NONE', #292, #86, #387, .T. ) ;
ENDSEC;
END-ISO-10303-21;
