ISO-10303-21;
HEADER;
FILE_DESCRIPTION (( 'STEP AP203' ),
    '1' );
FILE_NAME ('LIMIT_BRACKET.STEP',
    '2025-09-25T17:24:41',
    ( '' ),
    ( '' ),
    'SwSTEP 2.0',
    'SolidWorks 2025',
    '' );
FILE_SCHEMA (( 'CONFIG_CONTROL_DESIGN' ));
ENDSEC;

DATA;
#1 = DIRECTION ( 'NONE',  ( 0.000000000000000000, 0.000000000000000000, 1.000000000000000000 ) ) ;
#2 = ORIENTED_EDGE ( 'NONE', *, *, #349, .F. ) ;
#3 = CARTESIAN_POINT ( 'NONE',  ( -9.600000000000001421, 1.139999999999999902, -4.999999999999999112 ) ) ;
#4 = DIRECTION ( 'NONE',  ( 0.000000000000000000, 0.000000000000000000, 1.000000000000000000 ) ) ;
#5 = CARTESIAN_POINT ( 'NONE',  ( -12.50000000000000000, -22.35999999999999943, -17.43905041718129922 ) ) ;
#6 = ORIENTED_EDGE ( 'NONE', *, *, #965, .T. ) ;
#7 = CARTESIAN_POINT ( 'NONE',  ( 10.49999999999999822, -6.859753221893055475, -20.43905041718123172 ) ) ;
#8 = EDGE_LOOP ( 'NONE', ( #1023, #582, #209, #1005, #380, #265, #885, #633 ) ) ;
#9 = CIRCLE ( 'NONE', #1021, 1.600000000000000533 ) ;
#10 = VECTOR ( 'NONE', #42, 1000.000000000000000 ) ;
#11 = DIRECTION ( 'NONE',  ( 0.000000000000000000, 1.000000000000000000, 0.000000000000000000 ) ) ;
#12 = CARTESIAN_POINT ( 'NONE',  ( 10.49999999999999822, -6.859753221893055475, -17.43905041718129922 ) ) ;
#13 = VERTEX_POINT ( 'NONE', #474 ) ;
#14 = PRODUCT_RELATED_PRODUCT_CATEGORY ( 'detail', '', ( #41 ) ) ;
#15 = EDGE_CURVE ( 'NONE', #350, #903, #806, .T. ) ;
#16 = DIRECTION ( 'NONE',  ( -0.000000000000000000, -1.742103516312874130E-06, 0.9999999999984825472 ) ) ;
#17 = DIRECTION ( 'NONE',  ( -0.000000000000000000, -0.000000000000000000, 1.000000000000000000 ) ) ;
#18 = FACE_OUTER_BOUND ( 'NONE', #212, .T. ) ;
#19 = VERTEX_POINT ( 'NONE', #962 ) ;
#20 = LINE ( 'NONE', #872, #712 ) ;
#21 = EDGE_CURVE ( 'NONE', #19, #744, #620, .T. ) ;
#22 = DIRECTION ( 'NONE',  ( -0.000000000000000000, 1.000000000000000000, -0.000000000000000000 ) ) ;
#23 = CARTESIAN_POINT ( 'NONE',  ( 4.605863383799198019, 4.140246778106944525, 1.366933974605638147 ) ) ;
#24 = VERTEX_POINT ( 'NONE', #939 ) ;
#25 = DIRECTION ( 'NONE',  ( 0.000000000000000000, -0.000000000000000000, -1.000000000000000000 ) ) ;
#26 = EDGE_CURVE ( 'NONE', #130, #204, #234, .T. ) ;
#27 = AXIS2_PLACEMENT_3D ( 'NONE', #730, #161, #240 ) ;
#28 = CARTESIAN_POINT ( 'NONE',  ( -12.50000000000000000, -14.35996045158738532, -20.43906207725124347 ) ) ;
#29 = VECTOR ( 'NONE', #887, 1000.000000000000000 ) ;
#30 = VERTEX_POINT ( 'NONE', #627 ) ;
#31 = LINE ( 'NONE', #850, #263 ) ;
#32 = ADVANCED_FACE ( 'NONE', ( #1027 ), #226, .T. ) ;
#33 = ORIENTED_EDGE ( 'NONE', *, *, #686, .T. ) ;
#34 = ORIENTED_EDGE ( 'NONE', *, *, #771, .F. ) ;
#35 = ORIENTED_EDGE ( 'NONE', *, *, #414, .F. ) ;
#36 = DIRECTION ( 'NONE',  ( -0.000000000000000000, -1.000000000000000000, -0.000000000000000000 ) ) ;
#37 = FACE_OUTER_BOUND ( 'NONE', #243, .T. ) ;
#38 = ORIENTED_EDGE ( 'NONE', *, *, #15, .T. ) ;
#39 = APPROVAL ( #803, 'UNSPECIFIED' ) ;
#40 = EDGE_LOOP ( 'NONE', ( #874, #856, #720, #369 ) ) ;
#41 = PRODUCT ( 'LIMIT_BRACKET', 'LIMIT_BRACKET', '', ( #596 ) ) ;
#42 = DIRECTION ( 'NONE',  ( -1.000000000000000000, -0.000000000000000000, -0.000000000000000000 ) ) ;
#43 = LINE ( 'NONE', #358, #107 ) ;
#44 = AXIS2_PLACEMENT_3D ( 'NONE', #859, #702, #456 ) ;
#45 = ORIENTED_EDGE ( 'NONE', *, *, #579, .F. ) ;
#46 = VECTOR ( 'NONE', #338, 1000.000000000000000 ) ;
#47 = ORIENTED_EDGE ( 'NONE', *, *, #635, .F. ) ;
#48 = CARTESIAN_POINT ( 'NONE',  ( -15.50000000000000000, -14.35998445362153753, -5.000026988405515738 ) ) ;
#49 = CARTESIAN_POINT ( 'NONE',  ( -12.50000000000000000, -19.35998445361549614, -5.000034761570748110 ) ) ;
#50 = VERTEX_POINT ( 'NONE', #379 ) ;
#51 = ORIENTED_EDGE ( 'NONE', *, *, #662, .T. ) ;
#52 = ADVANCED_FACE ( 'NONE', ( #397 ), #537, .F. ) ;
#53 = CARTESIAN_POINT ( 'NONE',  ( -9.599999999999997868, -18.35999222681077114, -11.60001349420275574 ) ) ;
#54 = DIRECTION ( 'NONE',  ( 0.000000000000000000, 0.000000000000000000, 1.000000000000000000 ) ) ;
#55 = CARTESIAN_POINT ( 'NONE',  ( 10.49999999999999822, -6.859753221893055475, -20.43905041718123172 ) ) ;
#56 = ORIENTED_EDGE ( 'NONE', *, *, #401, .T. ) ;
#57 = EDGE_LOOP ( 'NONE', ( #441, #168, #448, #905 ) ) ;
#58 = PERSON_AND_ORGANIZATION_ROLE ( 'design_supplier' ) ;
#59 = DIRECTION ( 'NONE',  ( -0.000000000000000000, -1.000000000000000000, -0.000000000000000000 ) ) ;
#60 = CC_DESIGN_PERSON_AND_ORGANIZATION_ASSIGNMENT ( #275, #682, ( #675 ) ) ;
#61 = CARTESIAN_POINT ( 'NONE',  ( -12.50000000000000000, -19.35996511551068977, -20.43905041718123172 ) ) ;
#62 = ORIENTED_EDGE ( 'NONE', *, *, #965, .F. ) ;
#63 = AXIS2_PLACEMENT_3D ( 'NONE', #143, #733, #1 ) ;
#64 = VECTOR ( 'NONE', #597, 1000.000000000000000 ) ;
#65 = CIRCLE ( 'NONE', #762, 1.250000000000000222 ) ;
#66 = VERTEX_POINT ( 'NONE', #673 ) ;
#67 = LINE ( 'NONE', #387, #467 ) ;
#68 = CARTESIAN_POINT ( 'NONE',  ( -14.49999999999999822, -19.35998445361549614, -5.000034761570748110 ) ) ;
#69 = VERTEX_POINT ( 'NONE', #247 ) ;
#70 = ADVANCED_FACE ( 'NONE', ( #261 ), #565, .F. ) ;
#71 = CARTESIAN_POINT ( 'NONE',  ( 4.605863383799198019, -7.000000000000000000, 2.616933974605638369 ) ) ;
#72 = DIRECTION ( 'NONE',  ( -0.000000000000000000, 0.9999999999982338572, 1.879417460624484544E-06 ) ) ;
#73 = ORIENTED_EDGE ( 'NONE', *, *, #692, .T. ) ;
#74 = EDGE_CURVE ( 'NONE', #981, #13, #899, .T. ) ;
#75 = CARTESIAN_POINT ( 'NONE',  ( -12.50000000000000000, 0.000000000000000000, 0.000000000000000000 ) ) ;
#76 = DIRECTION ( 'NONE',  ( 0.000000000000000000, 0.000000000000000000, 1.000000000000000000 ) ) ;
#77 = CLOSED_SHELL ( 'NONE', ( #539, #390, #766, #934, #639, #781, #812, #52, #70, #282, #303, #832, #447, #187, #1040, #257, #466, #653, #239, #862, #171, #32, #738, #513, #460, #329, #993, #976, #289, #893 ) ) ;
#78 = DIRECTION ( 'NONE',  ( -1.000000000000000000, -0.000000000000000000, -0.000000000000000000 ) ) ;
#79 = PLANE ( 'NONE',  #63 ) ;
#80 = ORIENTED_EDGE ( 'NONE', *, *, #394, .F. ) ;
#81 = CARTESIAN_POINT ( 'NONE',  ( -9.600000000000001421, -14.35998445362153753, -5.000026988405515738 ) ) ;
#82 = CYLINDRICAL_SURFACE ( 'NONE', #625, 1.250000000000000222 ) ;
#83 = EDGE_CURVE ( 'NONE', #1011, #50, #646, .T. ) ;
#84 = DIRECTION ( 'NONE',  ( 0.000000000000000000, 1.000000000000000000, 0.000000000000000000 ) ) ;
#85 = ORIENTED_EDGE ( 'NONE', *, *, #1034, .F. ) ;
#86 = CARTESIAN_POINT ( 'NONE',  ( -4.894136616200801981, -7.000000000000000000, 1.366933974605505586 ) ) ;
#87 = DIRECTION ( 'NONE',  ( -1.000000000000000000, 0.000000000000000000, 0.000000000000000000 ) ) ;
#88 = EDGE_CURVE ( 'NONE', #791, #217, #9, .T. ) ;
#89 = EDGE_LOOP ( 'NONE', ( #355, #1004, #861, #497 ) ) ;
#90 = CARTESIAN_POINT ( 'NONE',  ( 10.49999999999999822, -31.85975322189305814, -17.43905041718129922 ) ) ;
#91 = CARTESIAN_POINT ( 'NONE',  ( -12.50000000000000000, 3.000000000000000000, 5.000000000000000888 ) ) ;
#92 = VECTOR ( 'NONE', #220, 1000.000000000000000 ) ;
#93 = AXIS2_PLACEMENT_3D ( 'NONE', #995, #1017, #1012 ) ;
#94 = CARTESIAN_POINT ( 'NONE',  ( -12.50000000000000000, -31.85975322189305814, -17.43905041718129922 ) ) ;
#95 = VECTOR ( 'NONE', #674, 1000.000000000000000 ) ;
#96 = LINE ( 'NONE', #670, #313 ) ;
#97 = ORIENTED_EDGE ( 'NONE', *, *, #508, .T. ) ;
#98 = EDGE_CURVE ( 'NONE', #442, #130, #235, .T. ) ;
#99 = DIRECTION ( 'NONE',  ( 0.000000000000000000, -1.000000000000000000, 0.000000000000000000 ) ) ;
#100 = CYLINDRICAL_SURFACE ( 'NONE', #248, 1.250000000000000222 ) ;
#101 = FACE_OUTER_BOUND ( 'NONE', #927, .T. ) ;
#102 = PLANE ( 'NONE',  #174 ) ;
#103 = EDGE_CURVE ( 'NONE', #941, #600, #149, .T. ) ;
#104 = DIRECTION ( 'NONE',  ( 0.000000000000000000, -1.000000000000000000, 0.000000000000000000 ) ) ;
#105 = DIRECTION ( 'NONE',  ( -1.000000000000000000, -0.000000000000000000, -0.000000000000000000 ) ) ;
#106 = ORIENTED_EDGE ( 'NONE', *, *, #394, .T. ) ;
#107 = VECTOR ( 'NONE', #509, 1000.000000000000000 ) ;
#108 = VECTOR ( 'NONE', #726, 1000.000000000000000 ) ;
#109 = DIRECTION ( 'NONE',  ( -1.000000000000000000, -0.000000000000000000, -0.000000000000000000 ) ) ;
#110 = ORIENTED_EDGE ( 'NONE', *, *, #826, .F. ) ;
#111 = ORIENTED_EDGE ( 'NONE', *, *, #361, .T. ) ;
#112 = CARTESIAN_POINT ( 'NONE',  ( 10.49999999999999822, -6.859753221893055475, -17.43905041718129922 ) ) ;
#113 = EDGE_CURVE ( 'NONE', #677, #216, #493, .T. ) ;
#114 = ORIENTED_EDGE ( 'NONE', *, *, #202, .T. ) ;
#115 = VERTEX_POINT ( 'NONE', #255 ) ;
#116 = DIRECTION ( 'NONE',  ( -1.000000000000000000, 0.000000000000000000, 0.000000000000000000 ) ) ;
#117 = PLANE ( 'NONE',  #364 ) ;
#118 = EDGE_LOOP ( 'NONE', ( #613, #547, #35, #1020 ) ) ;
#119 = ORIENTED_EDGE ( 'NONE', *, *, #586, .T. ) ;
#120 = DIRECTION ( 'NONE',  ( 0.000000000000000000, 0.000000000000000000, 1.000000000000000000 ) ) ;
#121 = VECTOR ( 'NONE', #816, 1000.000000000000000 ) ;
#122 = PLANE ( 'NONE',  #327 ) ;
#123 = VECTOR ( 'NONE', #684, 1000.000000000000000 ) ;
#124 = VERTEX_POINT ( 'NONE', #969 ) ;
#125 = VERTEX_POINT ( 'NONE', #410 ) ;
#126 = ORIENTED_EDGE ( 'NONE', *, *, #210, .F. ) ;
#127 = LINE ( 'NONE', #867, #175 ) ;
#128 = DIRECTION ( 'NONE',  ( -1.000000000000000000, -0.000000000000000000, -0.000000000000000000 ) ) ;
#129 = CARTESIAN_POINT ( 'NONE',  ( -12.50000000000000000, 3.000000000000000000, -4.999999999999999112 ) ) ;
#130 = VERTEX_POINT ( 'NONE', #7 ) ;
#131 = EDGE_CURVE ( 'NONE', #528, #909, #567, .T. ) ;
#132 = FACE_OUTER_BOUND ( 'NONE', #118, .T. ) ;
#133 = CARTESIAN_POINT ( 'NONE',  ( -15.50000000000000000, -18.35999222681077114, -10.00001349420275432 ) ) ;
#134 = ORIENTED_EDGE ( 'NONE', *, *, #21, .T. ) ;
#135 = LINE ( 'NONE', #71, #154 ) ;
#136 = EDGE_CURVE ( 'NONE', #66, #903, #811, .T. ) ;
#137 = CARTESIAN_POINT ( 'NONE',  ( -9.600000000000001421, 0.000000000000000000, -4.999999999999999112 ) ) ;
#138 = EDGE_LOOP ( 'NONE', ( #576, #73, #272, #34 ) ) ;
#139 = CIRCLE ( 'NONE', #743, 1.600000000000000533 ) ;
#140 = EDGE_LOOP ( 'NONE', ( #134, #438 ) ) ;
#141 = COORDINATED_UNIVERSAL_TIME_OFFSET ( 7, 0, .AHEAD. ) ;
#142 = DIRECTION ( 'NONE',  ( -0.000000000000000000, -0.000000000000000000, 1.000000000000000000 ) ) ;
#143 = CARTESIAN_POINT ( 'NONE',  ( 10.46475073058614846, 1.139999999999999902, 5.000000000000002665 ) ) ;
#144 = EDGE_CURVE ( 'NONE', #677, #533, #331, .T. ) ;
#145 = VERTEX_POINT ( 'NONE', #173 ) ;
#146 = DIRECTION ( 'NONE',  ( 0.000000000000000000, 1.554633046282973726E-06, -0.9999999999987915222 ) ) ;
#147 = PLANE ( 'NONE',  #535 ) ;
#148 = ORIENTED_EDGE ( 'NONE', *, *, #195, .T. ) ;
#149 = LINE ( 'NONE', #746, #227 ) ;
#150 = PERSON_AND_ORGANIZATION ( #296, #469 ) ;
#151 = DIRECTION ( 'NONE',  ( -1.000000000000000000, 0.000000000000000000, 0.000000000000000000 ) ) ;
#152 = LINE ( 'NONE', #322, #1038 ) ;
#153 = VECTOR ( 'NONE', #424, 1000.000000000000000 ) ;
#154 = VECTOR ( 'NONE', #214, 1000.000000000000000 ) ;
#155 = DIRECTION ( 'NONE',  ( -1.000000000000000000, 0.000000000000000000, 0.000000000000000000 ) ) ;
#156 = EDGE_CURVE ( 'NONE', #690, #873, #400, .T. ) ;
#157 = AXIS2_PLACEMENT_3D ( 'NONE', #520, #200, #353 ) ;
#158 = APPROVAL_PERSON_ORGANIZATION ( #352, #162, #848 ) ;
#159 = FACE_BOUND ( 'NONE', #704, .T. ) ;
#160 = EDGE_LOOP ( 'NONE', ( #458, #666, #33, #700, #404, #869, #852, #654, #38 ) ) ;
#161 = DIRECTION ( 'NONE',  ( 0.000000000000000000, -0.9999999999987916333, -1.554633046282973938E-06 ) ) ;
#162 = APPROVAL ( #188, 'UNSPECIFIED' ) ;
#163 = CARTESIAN_POINT ( 'NONE',  ( -15.50000000000000000, -18.35998633105284483, -1.821081693645712485E-05 ) ) ;
#164 = DIRECTION ( 'NONE',  ( -0.000000000000000000, 1.000000000000000000, -0.000000000000000000 ) ) ;
#165 = EDGE_LOOP ( 'NONE', ( #555, #148, #521, #281 ) ) ;
#166 = CARTESIAN_POINT ( 'NONE',  ( -4.894136616200801981, 1.139999999999999458, 0.1169339746055052948 ) ) ;
#167 = DIRECTION ( 'NONE',  ( -1.000000000000000000, 0.000000000000000000, -0.000000000000000000 ) ) ;
#168 = ORIENTED_EDGE ( 'NONE', *, *, #318, .T. ) ;
#169 = CARTESIAN_POINT ( 'NONE',  ( -4.894136616200801981, -7.000000000000000000, 1.366933974605505586 ) ) ;
#170 = PLANE ( 'NONE',  #552 ) ;
#171 = ADVANCED_FACE ( 'NONE', ( #904 ), #572, .T. ) ;
#172 = ORIENTED_EDGE ( 'NONE', *, *, #801, .T. ) ;
#173 = CARTESIAN_POINT ( 'NONE',  ( -15.50000000000000000, 4.140246778106944525, 5.000000000000000888 ) ) ;
#174 = AXIS2_PLACEMENT_3D ( 'NONE', #689, #207, #445 ) ;
#175 = VECTOR ( 'NONE', #929, 1000.000000000000000 ) ;
#176 = CARTESIAN_POINT ( 'NONE',  ( -15.50000000000000000, -14.35998445362153753, -5.000026988405515738 ) ) ;
#177 = AXIS2_PLACEMENT_3D ( 'NONE', #1007, #605, #523 ) ;
#178 = DIRECTION ( 'NONE',  ( 0.000000000000000000, 1.000000000000000000, 0.000000000000000000 ) ) ;
#179 = EDGE_CURVE ( 'NONE', #374, #124, #940, .T. ) ;
#180 = ORIENTED_EDGE ( 'NONE', *, *, #900, .T. ) ;
#181 = DIRECTION ( 'NONE',  ( -1.000000000000000000, 0.000000000000000000, 0.000000000000000000 ) ) ;
#182 = LINE ( 'NONE', #736, #46 ) ;
#183 = CARTESIAN_POINT ( 'NONE',  ( -15.50000000000000000, 0.000000000000000000, 5.000000000000000888 ) ) ;
#184 = VERTEX_POINT ( 'NONE', #166 ) ;
#185 = CARTESIAN_POINT ( 'NONE',  ( -12.50000000000000000, -31.85975322189305814, -20.43905041718123172 ) ) ;
#186 = ORIENTED_EDGE ( 'NONE', *, *, #223, .F. ) ;
#187 = ADVANCED_FACE ( 'NONE', ( #828 ), #503, .F. ) ;
#188 = APPROVAL_STATUS ( 'not_yet_approved' ) ;
#189 = AXIS2_PLACEMENT_3D ( 'NONE', #307, #638, #297 ) ;
#190 = VECTOR ( 'NONE', #871, 1000.000000000000000 ) ;
#191 = DIRECTION ( 'NONE',  ( 0.000000000000000000, 1.554633046282973726E-06, -0.9999999999987915222 ) ) ;
#192 = AXIS2_PLACEMENT_3D ( 'NONE', #86, #574, #580 ) ;
#193 = EDGE_LOOP ( 'NONE', ( #311, #870, #51, #996, #841, #601, #292, #926, #6 ) ) ;
#194 = VERTEX_POINT ( 'NONE', #3 ) ;
#195 = EDGE_CURVE ( 'NONE', #690, #442, #336, .T. ) ;
#196 = CARTESIAN_POINT ( 'NONE',  ( 12.50000000000000000, 1.139999999999999902, 5.000000000000002665 ) ) ;
#197 = CARTESIAN_POINT ( 'NONE',  ( -12.50000000000000000, -6.859753221893055475, -20.43905041718123172 ) ) ;
#198 = ORIENTED_EDGE ( 'NONE', *, *, #131, .F. ) ;
#199 = ORIENTED_EDGE ( 'NONE', *, *, #408, .T. ) ;
#200 = DIRECTION ( 'NONE',  ( -0.000000000000000000, -1.000000000000000000, 0.000000000000000000 ) ) ;
#201 = DIRECTION ( 'NONE',  ( 0.000000000000000000, -1.000000000000000000, -0.000000000000000000 ) ) ;
#202 = EDGE_CURVE ( 'NONE', #795, #619, #564, .T. ) ;
#203 = ORIENTED_EDGE ( 'NONE', *, *, #519, .F. ) ;
#204 = VERTEX_POINT ( 'NONE', #197 ) ;
#205 = CARTESIAN_POINT ( 'NONE',  ( -15.50000000000000000, -22.35999999999999943, 5.000000000000000888 ) ) ;
#206 = VECTOR ( 'NONE', #735, 1000.000000000000000 ) ;
#207 = DIRECTION ( 'NONE',  ( -1.000000000000000000, 0.000000000000000000, 0.000000000000000000 ) ) ;
#208 = VECTOR ( 'NONE', #491, 1000.000000000000000 ) ;
#209 = ORIENTED_EDGE ( 'NONE', *, *, #273, .F. ) ;
#210 = EDGE_CURVE ( 'NONE', #124, #374, #691, .T. ) ;
#211 = CARTESIAN_POINT ( 'NONE',  ( 12.50000000000000000, 4.140246778106944525, -4.999999999999999112 ) ) ;
#212 = EDGE_LOOP ( 'NONE', ( #492, #320, #106, #501, #774, #937, #332 ) ) ;
#213 = APPLICATION_CONTEXT ( 'configuration controlled 3d designs of mechanical parts and assemblies' ) ;
#214 = DIRECTION ( 'NONE',  ( -0.000000000000000000, 1.000000000000000000, -0.000000000000000000 ) ) ;
#215 = DIRECTION ( 'NONE',  ( 0.000000000000000000, -1.554633046364668360E-06, 0.9999999999987916333 ) ) ;
#216 = VERTEX_POINT ( 'NONE', #854 ) ;
#217 = VERTEX_POINT ( 'NONE', #457 ) ;
#218 = EDGE_CURVE ( 'NONE', #744, #19, #741, .T. ) ;
#219 = CARTESIAN_POINT ( 'NONE',  ( -12.50000000000000000, -19.35996511551068977, -20.43905041718123172 ) ) ;
#220 = DIRECTION ( 'NONE',  ( 0.000000000000000000, 0.000000000000000000, 1.000000000000000000 ) ) ;
#221 = VERTEX_POINT ( 'NONE', #860 ) ;
#222 = DATE_TIME_ROLE ( 'classification_date' ) ;
#223 = EDGE_CURVE ( 'NONE', #360, #335, #756, .T. ) ;
#224 = LINE ( 'NONE', #630, #642 ) ;
#225 = CARTESIAN_POINT ( 'NONE',  ( -15.50000000000000000, -19.35998445361549614, -5.000034761570748110 ) ) ;
#226 = PLANE ( 'NONE',  #987 ) ;
#227 = VECTOR ( 'NONE', #655, 1000.000000000000000 ) ;
#228 = VECTOR ( 'NONE', #164, 1000.000000000000000 ) ;
#229 = EDGE_LOOP ( 'NONE', ( #734, #351, #432, #85 ) ) ;
#230 = PRODUCT_DEFINITION_FORMATION_WITH_SPECIFIED_SOURCE ( 'ANY', '', #41, .NOT_KNOWN. ) ;
#231 = PERSON_AND_ORGANIZATION_ROLE ( 'classification_officer' ) ;
#232 = LINE ( 'NONE', #876, #190 ) ;
#233 = DIRECTION ( 'NONE',  ( 0.000000000000000000, 0.000000000000000000, 1.000000000000000000 ) ) ;
#234 = LINE ( 'NONE', #55, #276 ) ;
#235 = LINE ( 'NONE', #894, #725 ) ;
#236 = PERSON_AND_ORGANIZATION ( #296, #469 ) ;
#237 = PLANE ( 'NONE',  #1039 ) ;
#238 = LINE ( 'NONE', #225, #844 ) ;
#239 = ADVANCED_FACE ( 'NONE', ( #37 ), #117, .F. ) ;
#240 = DIRECTION ( 'NONE',  ( 0.000000000000000000, 1.554633046282973726E-06, -0.9999999999987915222 ) ) ;
#241 = CARTESIAN_POINT ( 'NONE',  ( -4.894136616200801981, 4.140246778106944525, 0.1169339746055052948 ) ) ;
#242 = AXIS2_PLACEMENT_3D ( 'NONE', #284, #1002, #672 ) ;
#243 = EDGE_LOOP ( 'NONE', ( #291, #286, #1037, #487 ) ) ;
#244 = EDGE_CURVE ( 'NONE', #442, #768, #43, .T. ) ;
#245 = AXIS2_PLACEMENT_3D ( 'NONE', #402, #391, #321 ) ;
#246 = CARTESIAN_POINT ( 'NONE',  ( -15.50000000000000000, -18.35999222681077114, -10.00001349420275432 ) ) ;
#247 = CARTESIAN_POINT ( 'NONE',  ( 4.605863383799198019, 4.140246778106944525, 0.1169339746056380080 ) ) ;
#248 = AXIS2_PLACEMENT_3D ( 'NONE', #906, #499, #425 ) ;
#249 = DIRECTION ( 'NONE',  ( 0.000000000000000000, 0.000000000000000000, 1.000000000000000000 ) ) ;
#250 = VERTEX_POINT ( 'NONE', #542 ) ;
#251 = DIRECTION ( 'NONE',  ( 0.000000000000000000, 0.000000000000000000, 1.000000000000000000 ) ) ;
#252 = FACE_OUTER_BOUND ( 'NONE', #229, .T. ) ;
#253 = DIRECTION ( 'NONE',  ( 0.000000000000000000, 0.000000000000000000, 1.000000000000000000 ) ) ;
#254 = ORIENTED_EDGE ( 'NONE', *, *, #662, .F. ) ;
#255 = CARTESIAN_POINT ( 'NONE',  ( -12.50000000000000000, -6.859753221893055475, -17.43905041718129922 ) ) ;
#256 = LINE ( 'NONE', #664, #714 ) ;
#257 = ADVANCED_FACE ( 'NONE', ( #368 ), #102, .F. ) ;
#258 = DIRECTION ( 'NONE',  ( -0.000000000000000000, 1.000000000000000000, -0.000000000000000000 ) ) ;
#259 = VERTEX_POINT ( 'NONE', #935 ) ;
#260 = CYLINDRICAL_SURFACE ( 'NONE', #863, 1.600000000000002531 ) ;
#261 = FACE_OUTER_BOUND ( 'NONE', #517, .T. ) ;
#262 = VECTOR ( 'NONE', #719, 1000.000000000000000 ) ;
#263 = VECTOR ( 'NONE', #611, 1000.000000000000000 ) ;
#264 = CARTESIAN_POINT ( 'NONE',  ( -15.50000000000000000, -19.35996045158134393, -20.43906985041647673 ) ) ;
#265 = ORIENTED_EDGE ( 'NONE', *, *, #900, .F. ) ;
#266 = APPLICATION_CONTEXT ( 'configuration controlled 3d designs of mechanical parts and assemblies' ) ;
#267 = DIRECTION ( 'NONE',  ( 0.000000000000000000, 1.554633046364668360E-06, -0.9999999999987916333 ) ) ;
#268 = ORIENTED_EDGE ( 'NONE', *, *, #701, .T. ) ;
#269 = EDGE_CURVE ( 'NONE', #507, #690, #20, .T. ) ;
#270 =( NAMED_UNIT ( * ) SI_UNIT ( $, .STERADIAN. ) SOLID_ANGLE_UNIT ( ) );
#271 = FACE_OUTER_BOUND ( 'NONE', #299, .T. ) ;
#272 = ORIENTED_EDGE ( 'NONE', *, *, #179, .T. ) ;
#273 = EDGE_CURVE ( 'NONE', #533, #985, #1009, .T. ) ;
#274 = ORIENTED_EDGE ( 'NONE', *, *, #210, .T. ) ;
#275 = PERSON_AND_ORGANIZATION ( #296, #469 ) ;
#276 = VECTOR ( 'NONE', #955, 1000.000000000000000 ) ;
#277 = VECTOR ( 'NONE', #439, 1000.000000000000114 ) ;
#278 = PLANE ( 'NONE',  #93 ) ;
#279 = DIRECTION ( 'NONE',  ( -1.000000000000000000, 0.000000000000000000, 0.000000000000000000 ) ) ;
#280 = ORIENTED_EDGE ( 'NONE', *, *, #1019, .T. ) ;
#281 = ORIENTED_EDGE ( 'NONE', *, *, #475, .T. ) ;
#282 = ADVANCED_FACE ( 'NONE', ( #341, #838, #1013 ), #944, .F. ) ;
#283 = CARTESIAN_POINT ( 'NONE',  ( -9.600000000000001421, -14.35996278355508160, -17.43905041718129922 ) ) ;
#284 = CARTESIAN_POINT ( 'NONE',  ( -15.50000000000000000, 0.000000000000000000, 0.000000000000000000 ) ) ;
#285 = EDGE_LOOP ( 'NONE', ( #416, #328, #470, #1015 ) ) ;
#286 = ORIENTED_EDGE ( 'NONE', *, *, #371, .F. ) ;
#287 = UNCERTAINTY_MEASURE_WITH_UNIT (LENGTH_MEASURE( 1.000000000000000082E-05 ), #566, 'distance_accuracy_value', 'NONE');
#288 = DIRECTION ( 'NONE',  ( -1.000000000000000000, -0.000000000000000000, -0.000000000000000000 ) ) ;
#289 = ADVANCED_FACE ( 'NONE', ( #986 ), #260, .F. ) ;
#290 = DIRECTION ( 'NONE',  ( 0.000000000000000000, 0.000000000000000000, 1.000000000000000000 ) ) ;
#291 = ORIENTED_EDGE ( 'NONE', *, *, #745, .T. ) ;
#292 = ORIENTED_EDGE ( 'NONE', *, *, #354, .T. ) ;
#293 = VECTOR ( 'NONE', #868, 1000.000000000000114 ) ;
#294 = CARTESIAN_POINT ( 'NONE',  ( -15.50000000000000000, -19.35996045158134393, -20.43906985041647673 ) ) ;
#295 = VECTOR ( 'NONE', #912, 1000.000000000000114 ) ;
#296 = PERSON ( 'UNSPECIFIED', 'UNSPECIFIED', 'UNSPECIFIED', ('UNSPECIFIED'), ('UNSPECIFIED'), ('UNSPECIFIED') ) ;
#297 = DIRECTION ( 'NONE',  ( 0.000000000000000000, 0.000000000000000000, 1.000000000000000000 ) ) ;
#298 = CC_DESIGN_SECURITY_CLASSIFICATION ( #347, ( #230 ) ) ;
#299 = EDGE_LOOP ( 'NONE', ( #614, #851, #340, #110 ) ) ;
#300 = PLANE ( 'NONE',  #502 ) ;
#301 = DIRECTION ( 'NONE',  ( 0.000000000000000000, 1.000000000000000000, 0.000000000000000000 ) ) ;
#302 = ORIENTED_EDGE ( 'NONE', *, *, #525, .F. ) ;
#303 = ADVANCED_FACE ( 'NONE', ( #930 ), #122, .T. ) ;
#304 = CALENDAR_DATE ( 2025, 26, 9 ) ;
#305 = LINE ( 'NONE', #465, #1022 ) ;
#306 = LINE ( 'NONE', #563, #569 ) ;
#307 = CARTESIAN_POINT ( 'NONE',  ( -9.599999999999997868, -18.35999222681077114, -10.00001349420275432 ) ) ;
#308 = PERSON_AND_ORGANIZATION ( #296, #469 ) ;
#309 = FACE_OUTER_BOUND ( 'NONE', #8, .T. ) ;
#310 = CARTESIAN_POINT ( 'NONE',  ( 12.50000000000000000, 4.140246778106944525, 5.000000000000000888 ) ) ;
#311 = ORIENTED_EDGE ( 'NONE', *, *, #519, .T. ) ;
#312 = CIRCLE ( 'NONE', #398, 1.250000000000000222 ) ;
#313 = VECTOR ( 'NONE', #431, 1000.000000000000000 ) ;
#314 = LOCAL_TIME ( 0, 24, 41.00000000000000000, #141 ) ;
#315 = DATE_TIME_ROLE ( 'creation_date' ) ;
#316 = DIRECTION ( 'NONE',  ( 0.000000000000000000, -1.000000000000000000, 0.000000000000000000 ) ) ;
#317 = CARTESIAN_POINT ( 'NONE',  ( -12.50000000000000000, -31.85975322189305814, -17.43905041718129922 ) ) ;
#318 = EDGE_CURVE ( 'NONE', #909, #528, #312, .T. ) ;
#319 = CARTESIAN_POINT ( 'NONE',  ( -15.50000000000000000, -14.35996045158738532, -20.43906207725124347 ) ) ;
#320 = ORIENTED_EDGE ( 'NONE', *, *, #144, .T. ) ;
#321 = DIRECTION ( 'NONE',  ( 0.000000000000000000, 0.000000000000000000, 1.000000000000000000 ) ) ;
#322 = CARTESIAN_POINT ( 'NONE',  ( -12.50000000000000000, -14.35998445362153753, -5.000026988405515738 ) ) ;
#323 = EDGE_CURVE ( 'NONE', #873, #768, #617, .T. ) ;
#324 = DIRECTION ( 'NONE',  ( 0.000000000000000000, 0.000000000000000000, 1.000000000000000000 ) ) ;
#325 = CARTESIAN_POINT ( 'NONE',  ( -9.600000000000001421, -22.35999999999999943, 5.000000000000000888 ) ) ;
#326 = LINE ( 'NONE', #973, #208 ) ;
#327 = AXIS2_PLACEMENT_3D ( 'NONE', #526, #201, #428 ) ;
#328 = ORIENTED_EDGE ( 'NONE', *, *, #628, .F. ) ;
#329 = ADVANCED_FACE ( 'NONE', ( #453, #373, #378 ), #79, .F. ) ;
#330 = AXIS2_PLACEMENT_3D ( 'NONE', #23, #84, #249 ) ;
#331 = LINE ( 'NONE', #81, #549 ) ;
#332 = ORIENTED_EDGE ( 'NONE', *, *, #544, .T. ) ;
#333 = LINE ( 'NONE', #325, #95 ) ;
#334 = DIRECTION ( 'NONE',  ( 0.000000000000000000, 0.000000000000000000, 1.000000000000000000 ) ) ;
#335 = VERTEX_POINT ( 'NONE', #478 ) ;
#336 = LINE ( 'NONE', #982, #153 ) ;
#337 = CC_DESIGN_DATE_AND_TIME_ASSIGNMENT ( #1029, #315, ( #675 ) ) ;
#338 = DIRECTION ( 'NONE',  ( -1.000000000000000000, 0.000000000000000000, 0.000000000000000000 ) ) ;
#339 = LINE ( 'NONE', #183, #622 ) ;
#340 = ORIENTED_EDGE ( 'NONE', *, *, #603, .T. ) ;
#341 = FACE_BOUND ( 'NONE', #818, .T. ) ;
#342 = LINE ( 'NONE', #176, #679 ) ;
#343 = CARTESIAN_POINT ( 'NONE',  ( -4.894136616200801981, 4.140246778106944525, 1.366933974605505586 ) ) ;
#344 = ORIENTED_EDGE ( 'NONE', *, *, #273, .T. ) ;
#345 = VECTOR ( 'NONE', #99, 1000.000000000000000 ) ;
#346 = AXIS2_PLACEMENT_3D ( 'NONE', #343, #665, #334 ) ;
#347 = SECURITY_CLASSIFICATION ( '', '', #706 ) ;
#348 = DIRECTION ( 'NONE',  ( -0.000000000000000000, -1.000000000000000000, -0.000000000000000000 ) ) ;
#349 = EDGE_CURVE ( 'NONE', #985, #13, #152, .T. ) ;
#350 = VERTEX_POINT ( 'NONE', #805 ) ;
#351 = ORIENTED_EDGE ( 'NONE', *, *, #495, .T. ) ;
#352 = PERSON_AND_ORGANIZATION ( #296, #469 ) ;
#353 = DIRECTION ( 'NONE',  ( 0.000000000000000000, 0.000000000000000000, 1.000000000000000000 ) ) ;
#354 = EDGE_CURVE ( 'NONE', #618, #66, #238, .T. ) ;
#355 = ORIENTED_EDGE ( 'NONE', *, *, #998, .F. ) ;
#356 = ORIENTED_EDGE ( 'NONE', *, *, #429, .T. ) ;
#357 = LINE ( 'NONE', #294, #957 ) ;
#358 = CARTESIAN_POINT ( 'NONE',  ( 10.49999999999999822, -31.85975322189305814, -20.43905041718123172 ) ) ;
#359 = ORIENTED_EDGE ( 'NONE', *, *, #701, .F. ) ;
#360 = VERTEX_POINT ( 'NONE', #553 ) ;
#361 = EDGE_CURVE ( 'NONE', #217, #791, #640, .T. ) ;
#362 = COORDINATED_UNIVERSAL_TIME_OFFSET ( 7, 0, .AHEAD. ) ;
#363 = ORIENTED_EDGE ( 'NONE', *, *, #74, .T. ) ;
#364 = AXIS2_PLACEMENT_3D ( 'NONE', #462, #215, #1018 ) ;
#365 = VECTOR ( 'NONE', #938, 1000.000000000000000 ) ;
#366 = CARTESIAN_POINT ( 'NONE',  ( -12.50000000000000000, -31.85975322189305814, -20.43905041718123172 ) ) ;
#367 = LOCAL_TIME ( 0, 24, 41.00000000000000000, #449 ) ;
#368 = FACE_OUTER_BOUND ( 'NONE', #165, .T. ) ;
#369 = ORIENTED_EDGE ( 'NONE', *, *, #156, .T. ) ;
#370 = ORIENTED_EDGE ( 'NONE', *, *, #890, .F. ) ;
#371 = EDGE_CURVE ( 'NONE', #600, #618, #643, .T. ) ;
#372 = LINE ( 'NONE', #770, #123 ) ;
#373 = FACE_OUTER_BOUND ( 'NONE', #285, .T. ) ;
#374 = VERTEX_POINT ( 'NONE', #648 ) ;
#375 = ORIENTED_EDGE ( 'NONE', *, *, #855, .T. ) ;
#376 = PERSON_AND_ORGANIZATION ( #296, #469 ) ;
#377 = DIRECTION ( 'NONE',  ( -0.000000000000000000, 1.000000000000000000, -0.000000000000000000 ) ) ;
#378 = FACE_BOUND ( 'NONE', #931, .T. ) ;
#379 = CARTESIAN_POINT ( 'NONE',  ( 12.50000000000000000, 4.140246778106944525, -4.999999999999999112 ) ) ;
#380 = ORIENTED_EDGE ( 'NONE', *, *, #113, .T. ) ;
#381 = AXIS2_PLACEMENT_3D ( 'NONE', #698, #181, #784 ) ;
#382 = CARTESIAN_POINT ( 'NONE',  ( 12.50000000000000000, 3.000000000000000000, 5.000000000000000888 ) ) ;
#383 = CIRCLE ( 'NONE', #346, 1.250000000000000222 ) ;
#384 = FACE_OUTER_BOUND ( 'NONE', #767, .T. ) ;
#385 = EDGE_CURVE ( 'NONE', #350, #479, #949, .T. ) ;
#386 = EDGE_LOOP ( 'NONE', ( #427, #359, #527, #699 ) ) ;
#387 = CARTESIAN_POINT ( 'NONE',  ( -9.600000000000001421, 0.000000000000000000, -4.999999999999999112 ) ) ;
#388 = CARTESIAN_POINT ( 'NONE',  ( 12.50000000000000000, 3.000000000000000000, -4.999999999999999112 ) ) ;
#389 = ORIENTED_EDGE ( 'NONE', *, *, #668, .F. ) ;
#390 = ADVANCED_FACE ( 'NONE', ( #884 ), #468, .F. ) ;
#391 = DIRECTION ( 'NONE',  ( -1.000000000000000000, -0.000000000000000000, -0.000000000000000000 ) ) ;
#392 = DIRECTION ( 'NONE',  ( 0.000000000000000000, 0.000000000000000000, 1.000000000000000000 ) ) ;
#393 = ORIENTED_EDGE ( 'NONE', *, *, #960, .F. ) ;
#394 = EDGE_CURVE ( 'NONE', #533, #24, #473, .T. ) ;
#395 = FACE_OUTER_BOUND ( 'NONE', #968, .T. ) ;
#396 = DIRECTION ( 'NONE',  ( -1.000000000000000000, 0.000000000000000000, 0.000000000000000000 ) ) ;
#397 = FACE_OUTER_BOUND ( 'NONE', #1010, .T. ) ;
#398 = AXIS2_PLACEMENT_3D ( 'NONE', #590, #531, #290 ) ;
#399 = CIRCLE ( 'NONE', #659, 1.250000000000000222 ) ;
#400 = LINE ( 'NONE', #577, #433 ) ;
#401 = EDGE_CURVE ( 'NONE', #259, #13, #763, .T. ) ;
#402 = CARTESIAN_POINT ( 'NONE',  ( 24.50000000000002132, -18.35998633105284483, -1.821081693645712485E-05 ) ) ;
#403 = CARTESIAN_POINT ( 'NONE',  ( 24.50000000000002132, -18.35999222681077114, -10.00001349420275432 ) ) ;
#404 = ORIENTED_EDGE ( 'NONE', *, *, #26, .F. ) ;
#405 = CARTESIAN_POINT ( 'NONE',  ( 12.50000000000000000, 1.139999999999999902, 5.000000000000002665 ) ) ;
#406 = DIRECTION ( 'NONE',  ( -0.000000000000000000, 1.000000000000000000, -0.000000000000000000 ) ) ;
#407 = LINE ( 'NONE', #12, #64 ) ;
#408 = EDGE_CURVE ( 'NONE', #360, #66, #800, .T. ) ;
#409 = ORIENTED_EDGE ( 'NONE', *, *, #947, .F. ) ;
#410 = CARTESIAN_POINT ( 'NONE',  ( 4.605863383799198019, 4.140246778106944525, 2.616933974605638369 ) ) ;
#411 = EDGE_LOOP ( 'NONE', ( #56, #2, #409, #610 ) ) ;
#412 = DIRECTION ( 'NONE',  ( 0.000000000000000000, 0.000000000000000000, 1.000000000000000000 ) ) ;
#413 = DIRECTION ( 'NONE',  ( -1.000000000000000000, -0.000000000000000000, -0.000000000000000000 ) ) ;
#414 = EDGE_CURVE ( 'NONE', #50, #661, #1036, .T. ) ;
#415 = AXIS2_PLACEMENT_3D ( 'NONE', #728, #637, #233 ) ;
#416 = ORIENTED_EDGE ( 'NONE', *, *, #890, .T. ) ;
#417 = AXIS2_PLACEMENT_3D ( 'NONE', #658, #267, #749 ) ;
#418 = DIRECTION ( 'NONE',  ( 0.000000000000000000, -0.000000000000000000, 1.000000000000000000 ) ) ;
#419 = AXIS2_PLACEMENT_3D ( 'NONE', #757, #104, #25 ) ;
#420 = EDGE_LOOP ( 'NONE', ( #1014, #512, #950 ) ) ;
#421 = LINE ( 'NONE', #748, #660 ) ;
#422 = LINE ( 'NONE', #511, #845 ) ;
#423 = ORIENTED_EDGE ( 'NONE', *, *, #385, .T. ) ;
#424 = DIRECTION ( 'NONE',  ( 0.000000000000000000, 0.000000000000000000, -1.000000000000000000 ) ) ;
#425 = DIRECTION ( 'NONE',  ( 0.000000000000000000, 0.000000000000000000, 1.000000000000000000 ) ) ;
#426 = LINE ( 'NONE', #992, #228 ) ;
#427 = ORIENTED_EDGE ( 'NONE', *, *, #842, .T. ) ;
#428 = DIRECTION ( 'NONE',  ( 0.000000000000000000, 0.000000000000000000, -1.000000000000000000 ) ) ;
#429 = EDGE_CURVE ( 'NONE', #145, #946, #967, .T. ) ;
#430 = CARTESIAN_POINT ( 'NONE',  ( -12.50000000000000000, 0.000000000000000000, -4.999999999999999112 ) ) ;
#431 = DIRECTION ( 'NONE',  ( -0.000000000000000000, -0.000000000000000000, -1.000000000000000000 ) ) ;
#432 = ORIENTED_EDGE ( 'NONE', *, *, #594, .T. ) ;
#433 = VECTOR ( 'NONE', #498, 1000.000000000000000 ) ;
#434 = VECTOR ( 'NONE', #754, 1000.000000000000000 ) ;
#435 = EDGE_CURVE ( 'NONE', #488, #184, #694, .T. ) ;
#436 = CARTESIAN_POINT ( 'NONE',  ( -15.50000000000000000, -14.35998445362153753, -5.000026988405515738 ) ) ;
#437 = EDGE_LOOP ( 'NONE', ( #45, #602 ) ) ;
#438 = ORIENTED_EDGE ( 'NONE', *, *, #218, .T. ) ;
#439 = DIRECTION ( 'NONE',  ( -0.000000000000000000, -0.9999999999987915222, -1.554633046364668148E-06 ) ) ;
#440 = EDGE_CURVE ( 'NONE', #768, #350, #306, .T. ) ;
#441 = ORIENTED_EDGE ( 'NONE', *, *, #573, .F. ) ;
#442 = VERTEX_POINT ( 'NONE', #558 ) ;
#443 = DATE_AND_TIME ( #999, #367 ) ;
#444 = CARTESIAN_POINT ( 'NONE',  ( -12.50000000000000000, -14.35998445362153753, -5.000026988405515738 ) ) ;
#445 = DIRECTION ( 'NONE',  ( 0.000000000000000000, 0.000000000000000000, 1.000000000000000000 ) ) ;
#446 = VERTEX_POINT ( 'NONE', #241 ) ;
#447 = ADVANCED_FACE ( 'NONE', ( #888 ), #147, .T. ) ;
#448 = ORIENTED_EDGE ( 'NONE', *, *, #826, .T. ) ;
#449 = COORDINATED_UNIVERSAL_TIME_OFFSET ( 7, 0, .AHEAD. ) ;
#450 = VECTOR ( 'NONE', #916, 1000.000000000000000 ) ;
#451 = VECTOR ( 'NONE', #109, 1000.000000000000000 ) ;
#452 = LINE ( 'NONE', #444, #623 ) ;
#453 = FACE_BOUND ( 'NONE', #532, .T. ) ;
#454 = ORIENTED_EDGE ( 'NONE', *, *, #495, .F. ) ;
#455 = ORIENTED_EDGE ( 'NONE', *, *, #787, .F. ) ;
#456 = DIRECTION ( 'NONE',  ( -1.000000000000000000, 0.000000000000000000, -0.000000000000000000 ) ) ;
#457 = CARTESIAN_POINT ( 'NONE',  ( -9.599999999999997868, -18.35998633105284483, 1.599981789183064107 ) ) ;
#458 = ORIENTED_EDGE ( 'NONE', *, *, #136, .F. ) ;
#459 = ORIENTED_EDGE ( 'NONE', *, *, #15, .F. ) ;
#460 = ADVANCED_FACE ( 'NONE', ( #159, #794, #384 ), #716, .T. ) ;
#461 = CARTESIAN_POINT ( 'NONE',  ( -12.50000000000000000, 0.000000000000000000, 0.000000000000000000 ) ) ;
#462 = CARTESIAN_POINT ( 'NONE',  ( -15.50000000000000000, -14.35996045158738532, -20.43906207725124347 ) ) ;
#463 = ORIENTED_EDGE ( 'NONE', *, *, #919, .T. ) ;
#464 = VECTOR ( 'NONE', #316, 1000.000000000000000 ) ;
#465 = CARTESIAN_POINT ( 'NONE',  ( 24.50000000000002132, -18.35998633105284483, -1.600018210816936959 ) ) ;
#466 = ADVANCED_FACE ( 'NONE', ( #902 ), #581, .F. ) ;
#467 = VECTOR ( 'NONE', #1030, 1000.000000000000000 ) ;
#468 = CYLINDRICAL_SURFACE ( 'NONE', #911, 1.600000000000002531 ) ;
#469 = ORGANIZATION ( 'UNSPECIFIED', 'UNSPECIFIED', '' ) ;
#470 = ORIENTED_EDGE ( 'NONE', *, *, #202, .F. ) ;
#471 = CARTESIAN_POINT ( 'NONE',  ( -12.50000000000000000, 0.000000000000000000, -4.999999999999999112 ) ) ;
#472 = CYLINDRICAL_SURFACE ( 'NONE', #245, 1.600000000000000533 ) ;
#473 = LINE ( 'NONE', #137, #778 ) ;
#474 = CARTESIAN_POINT ( 'NONE',  ( -12.50000000000000000, -19.35998445362900711, -5.000026071178060860 ) ) ;
#475 = EDGE_CURVE ( 'NONE', #130, #507, #407, .T. ) ;
#476 = APPROVAL_DATE_TIME ( #1033, #39 ) ;
#477 = LINE ( 'NONE', #948, #29 ) ;
#478 = CARTESIAN_POINT ( 'NONE',  ( -12.50000000000000000, -19.35996045158134393, -20.43906985041647673 ) ) ;
#479 = VERTEX_POINT ( 'NONE', #5 ) ;
#480 = APPROVAL ( #880, 'UNSPECIFIED' ) ;
#481 = CARTESIAN_POINT ( 'NONE',  ( 4.605863383799198019, 1.139999999999999458, 1.366933974605638147 ) ) ;
#482 = CARTESIAN_POINT ( 'NONE',  ( 12.50000000000000000, 3.000000000000000000, 5.000000000000000888 ) ) ;
#483 = AXIS2_PLACEMENT_3D ( 'NONE', #90, #835, #418 ) ;
#484 = CARTESIAN_POINT ( 'NONE',  ( -12.50000000000000000, -19.35998445362900711, -5.000026071178060860 ) ) ;
#485 = VECTOR ( 'NONE', #649, 1000.000000000000000 ) ;
#486 = AXIS2_PLACEMENT_3D ( 'NONE', #742, #105, #837 ) ;
#487 = ORIENTED_EDGE ( 'NONE', *, *, #559, .T. ) ;
#488 = VERTEX_POINT ( 'NONE', #920 ) ;
#489 = DIRECTION ( 'NONE',  ( 0.000000000000000000, 0.000000000000000000, 1.000000000000000000 ) ) ;
#490 = DIRECTION ( 'NONE',  ( 0.000000000000000000, 0.000000000000000000, 1.000000000000000000 ) ) ;
#491 = DIRECTION ( 'NONE',  ( -0.000000000000000000, 1.000000000000000000, -0.000000000000000000 ) ) ;
#492 = ORIENTED_EDGE ( 'NONE', *, *, #732, .T. ) ;
#493 = LINE ( 'NONE', #898, #206 ) ;
#494 = CARTESIAN_POINT ( 'NONE',  ( 12.50000000000000000, 4.140246778106944525, 5.000000000000000888 ) ) ;
#495 = EDGE_CURVE ( 'NONE', #184, #446, #426, .T. ) ;
#496 = LINE ( 'NONE', #825, #815 ) ;
#497 = ORIENTED_EDGE ( 'NONE', *, *, #323, .F. ) ;
#498 = DIRECTION ( 'NONE',  ( -1.000000000000000000, -0.000000000000000000, -0.000000000000000000 ) ) ;
#499 = DIRECTION ( 'NONE',  ( -0.000000000000000000, 1.000000000000000000, -0.000000000000000000 ) ) ;
#500 = FACE_BOUND ( 'NONE', #140, .T. ) ;
#501 = ORIENTED_EDGE ( 'NONE', *, *, #525, .T. ) ;
#502 = AXIS2_PLACEMENT_3D ( 'NONE', #461, #151, #1035 ) ;
#503 = PLANE ( 'NONE',  #483 ) ;
#504 = LOCAL_TIME ( 0, 24, 41.00000000000000000, #792 ) ;
#505 = LINE ( 'NONE', #656, #817 ) ;
#506 = LINE ( 'NONE', #28, #295 ) ;
#507 = VERTEX_POINT ( 'NONE', #676 ) ;
#508 = EDGE_CURVE ( 'NONE', #115, #216, #422, .T. ) ;
#509 = DIRECTION ( 'NONE',  ( -1.000000000000000000, -0.000000000000000000, -0.000000000000000000 ) ) ;
#510 = PLANE ( 'NONE',  #419 ) ;
#511 = CARTESIAN_POINT ( 'NONE',  ( -12.50000000000000000, -31.85975322189305814, -17.43905041718129922 ) ) ;
#512 = ORIENTED_EDGE ( 'NONE', *, *, #919, .F. ) ;
#513 = ADVANCED_FACE ( 'NONE', ( #680, #500, #18 ), #170, .F. ) ;
#514 = LINE ( 'NONE', #843, #451 ) ;
#515 = EDGE_LOOP ( 'NONE', ( #111, #663 ) ) ;
#516 = VECTOR ( 'NONE', #128, 1000.000000000000000 ) ;
#517 = EDGE_LOOP ( 'NONE', ( #393, #114, #455, #977, #203, #632 ) ) ;
#518 = AXIS2_PLACEMENT_3D ( 'NONE', #688, #377, #707 ) ;
#519 = EDGE_CURVE ( 'NONE', #681, #145, #339, .T. ) ;
#520 = CARTESIAN_POINT ( 'NONE',  ( -4.894136616200801981, 1.139999999999999458, 1.366933974605505586 ) ) ;
#521 = ORIENTED_EDGE ( 'NONE', *, *, #98, .T. ) ;
#522 = VERTEX_POINT ( 'NONE', #593 ) ;
#523 = DIRECTION ( 'NONE',  ( 1.000000000000000000, 0.000000000000000000, 0.000000000000000000 ) ) ;
#524 = CARTESIAN_POINT ( 'NONE',  ( -15.50000000000000000, 0.000000000000000000, -4.999999999999999112 ) ) ;
#525 = EDGE_CURVE ( 'NONE', #24, #194, #326, .T. ) ;
#526 = CARTESIAN_POINT ( 'NONE',  ( -12.50000000000000000, -22.35999999999999943, 5.000000000000000888 ) ) ;
#527 = ORIENTED_EDGE ( 'NONE', *, *, #475, .F. ) ;
#528 = VERTEX_POINT ( 'NONE', #840 ) ;
#529 = ORIENTED_EDGE ( 'NONE', *, *, #745, .F. ) ;
#530 = LINE ( 'NONE', #366, #365 ) ;
#531 = DIRECTION ( 'NONE',  ( -0.000000000000000000, -1.000000000000000000, 0.000000000000000000 ) ) ;
#532 = EDGE_LOOP ( 'NONE', ( #543, #571 ) ) ;
#533 = VERTEX_POINT ( 'NONE', #575 ) ;
#534 = VECTOR ( 'NONE', #645, 1000.000000000000000 ) ;
#535 = AXIS2_PLACEMENT_3D ( 'NONE', #75, #568, #896 ) ;
#536 = LINE ( 'NONE', #112, #10 ) ;
#537 = PLANE ( 'NONE',  #657 ) ;
#538 = ORIENTED_EDGE ( 'NONE', *, *, #401, .F. ) ;
#539 = ADVANCED_FACE ( 'NONE', ( #101 ), #821, .F. ) ;
#540 = APPROVAL_ROLE ( '' ) ;
#541 = CARTESIAN_POINT ( 'NONE',  ( -12.50000000000000000, 0.000000000000000000, -4.999999999999999112 ) ) ;
#542 = CARTESIAN_POINT ( 'NONE',  ( -9.600000000000001421, -22.35999999999999943, -17.43905041718129922 ) ) ;
#543 = ORIENTED_EDGE ( 'NONE', *, *, #435, .F. ) ;
#544 = EDGE_CURVE ( 'NONE', #1043, #250, #96, .T. ) ;
#545 = DIRECTION ( 'NONE',  ( -1.000000000000000000, 0.000000000000000000, 0.000000000000000000 ) ) ;
#546 = DIRECTION ( 'NONE',  ( -1.000000000000000000, -0.000000000000000000, -0.000000000000000000 ) ) ;
#547 = ORIENTED_EDGE ( 'NONE', *, *, #628, .T. ) ;
#548 = APPROVAL_ROLE ( '' ) ;
#549 = VECTOR ( 'NONE', #16, 1000.000000000000114 ) ;
#550 = CARTESIAN_POINT ( 'NONE',  ( -12.50000000000000000, -6.859753221893055475, -17.43905041718129922 ) ) ;
#551 = EDGE_CURVE ( 'NONE', #795, #194, #737, .T. ) ;
#552 = AXIS2_PLACEMENT_3D ( 'NONE', #918, #87, #908 ) ;
#553 = CARTESIAN_POINT ( 'NONE',  ( -12.50000000000000000, -19.35996045161155621, -20.43905041718123528 ) ) ;
#554 = LOCAL_TIME ( 0, 24, 41.00000000000000000, #362 ) ;
#555 = ORIENTED_EDGE ( 'NONE', *, *, #269, .T. ) ;
#556 = COORDINATED_UNIVERSAL_TIME_OFFSET ( 7, 0, .AHEAD. ) ;
#557 = CARTESIAN_POINT ( 'NONE',  ( 0.000000000000000000, -14.35999222679402187, -2.232451845975911477E-05 ) ) ;
#558 = CARTESIAN_POINT ( 'NONE',  ( 10.49999999999999822, -31.85975322189305814, -20.43905041718123172 ) ) ;
#559 = EDGE_CURVE ( 'NONE', #941, #335, #506, .T. ) ;
#560 = EDGE_LOOP ( 'NONE', ( #126, #671 ) ) ;
#561 = DATE_AND_TIME ( #886, #604 ) ;
#562 = CARTESIAN_POINT ( 'NONE',  ( -12.50000000000000000, -14.35999222679402010, -2.232451846016759132E-05 ) ) ;
#563 = CARTESIAN_POINT ( 'NONE',  ( -12.50000000000000000, -31.85975322189305814, -20.43905041718123172 ) ) ;
#564 = LINE ( 'NONE', #405, #956 ) ;
#565 = PLANE ( 'NONE',  #796 ) ;
#566 =( LENGTH_UNIT ( ) NAMED_UNIT ( * ) SI_UNIT ( .MILLI., .METRE. ) );
#567 = CIRCLE ( 'NONE', #813, 1.250000000000000222 ) ;
#568 = DIRECTION ( 'NONE',  ( -1.000000000000000000, 0.000000000000000000, 0.000000000000000000 ) ) ;
#569 = VECTOR ( 'NONE', #892, 1000.000000000000000 ) ;
#570 = APPROVAL_PERSON_ORGANIZATION ( #376, #39, #540 ) ;
#571 = ORIENTED_EDGE ( 'NONE', *, *, #708, .F. ) ;
#572 = PLANE ( 'NONE',  #27 ) ;
#573 = EDGE_CURVE ( 'NONE', #909, #69, #984, .T. ) ;
#574 = DIRECTION ( 'NONE',  ( -0.000000000000000000, 1.000000000000000000, -0.000000000000000000 ) ) ;
#575 = CARTESIAN_POINT ( 'NONE',  ( -9.600000000000001421, -14.35998445362153753, -5.000026988405515738 ) ) ;
#576 = ORIENTED_EDGE ( 'NONE', *, *, #218, .F. ) ;
#577 = CARTESIAN_POINT ( 'NONE',  ( 10.49999999999999822, -31.85975322189305814, -17.43905041718129922 ) ) ;
#578 = DIRECTION ( 'NONE',  ( 0.000000000000000000, 0.000000000000000000, -1.000000000000000000 ) ) ;
#579 = EDGE_CURVE ( 'NONE', #125, #69, #895, .T. ) ;
#580 = DIRECTION ( 'NONE',  ( 0.000000000000000000, 0.000000000000000000, 1.000000000000000000 ) ) ;
#581 = PLANE ( 'NONE',  #417 ) ;
#582 = ORIENTED_EDGE ( 'NONE', *, *, #947, .T. ) ;
#583 = DIRECTION ( 'NONE',  ( 0.000000000000000000, 1.000000000000000000, 0.000000000000000000 ) ) ;
#584 = DIRECTION ( 'NONE',  ( -0.000000000000000000, 0.9999999999982338572, 1.879417460624484544E-06 ) ) ;
#585 = CARTESIAN_POINT ( 'NONE',  ( -9.600000000000001421, 1.139999999999999902, 5.000000000000002665 ) ) ;
#586 = EDGE_CURVE ( 'NONE', #217, #522, #496, .T. ) ;
#587 = VECTOR ( 'NONE', #396, 1000.000000000000000 ) ;
#588 = ORIENTED_EDGE ( 'NONE', *, *, #354, .F. ) ;
#589 = VECTOR ( 'NONE', #258, 1000.000000000000000 ) ;
#590 = CARTESIAN_POINT ( 'NONE',  ( 4.605863383799198019, 1.139999999999999458, 1.366933974605638147 ) ) ;
#591 = CC_DESIGN_APPROVAL ( #162, ( #675 ) ) ;
#592 = DIRECTION ( 'NONE',  ( -0.000000000000000000, -1.000000000000000000, -0.000000000000000000 ) ) ;
#593 = CARTESIAN_POINT ( 'NONE',  ( -15.50000000000000000, -18.35998633105284483, 1.599981789183064107 ) ) ;
#594 = EDGE_CURVE ( 'NONE', #446, #30, #383, .T. ) ;
#595 = ORIENTED_EDGE ( 'NONE', *, *, #508, .F. ) ;
#596 = MECHANICAL_CONTEXT ( 'NONE', #213, 'mechanical' ) ;
#597 = DIRECTION ( 'NONE',  ( -0.000000000000000000, -0.000000000000000000, 1.000000000000000000 ) ) ;
#598 = ORIENTED_EDGE ( 'NONE', *, *, #1006, .T. ) ;
#599 = FACE_OUTER_BOUND ( 'NONE', #827, .T. ) ;
#600 = VERTEX_POINT ( 'NONE', #979 ) ;
#601 = ORIENTED_EDGE ( 'NONE', *, *, #371, .T. ) ;
#602 = ORIENTED_EDGE ( 'NONE', *, *, #603, .F. ) ;
#603 = EDGE_CURVE ( 'NONE', #69, #125, #399, .T. ) ;
#604 = LOCAL_TIME ( 0, 24, 41.00000000000000000, #556 ) ;
#605 = DIRECTION ( 'NONE',  ( 0.000000000000000000, 0.000000000000000000, 1.000000000000000000 ) ) ;
#606 = EDGE_LOOP ( 'NONE', ( #932, #724, #119, #280 ) ) ;
#607 = DIRECTION ( 'NONE',  ( 0.000000000000000000, 1.000000000000000000, 0.000000000000000000 ) ) ;
#608 = CARTESIAN_POINT ( 'NONE',  ( 24.50000000000002132, -18.35999222681077114, -10.00001349420275432 ) ) ;
#609 = ORIENTED_EDGE ( 'NONE', *, *, #928, .F. ) ;
#610 = ORIENTED_EDGE ( 'NONE', *, *, #721, .T. ) ;
#611 = DIRECTION ( 'NONE',  ( -1.000000000000000000, -0.000000000000000000, -0.000000000000000000 ) ) ;
#612 = DIRECTION ( 'NONE',  ( -1.000000000000000000, -0.000000000000000000, -0.000000000000000000 ) ) ;
#613 = ORIENTED_EDGE ( 'NONE', *, *, #787, .T. ) ;
#614 = ORIENTED_EDGE ( 'NONE', *, *, #131, .T. ) ;
#615 =( NAMED_UNIT ( * ) PLANE_ANGLE_UNIT ( ) SI_UNIT ( $, .RADIAN. ) );
#616 = CYLINDRICAL_SURFACE ( 'NONE', #518, 1.250000000000000222 ) ;
#617 = LINE ( 'NONE', #776, #450 ) ;
#618 = VERTEX_POINT ( 'NONE', #264 ) ;
#619 = VERTEX_POINT ( 'NONE', #196 ) ;
#620 = CIRCLE ( 'NONE', #189, 1.600000000000002531 ) ;
#621 = CALENDAR_DATE ( 2025, 26, 9 ) ;
#622 = VECTOR ( 'NONE', #178, 1000.000000000000000 ) ;
#623 = VECTOR ( 'NONE', #191, 1000.000000000000114 ) ;
#624 = CARTESIAN_POINT ( 'NONE',  ( 12.50000000000000000, 1.139999999999999902, -4.999999999999999112 ) ) ;
#625 = AXIS2_PLACEMENT_3D ( 'NONE', #169, #406, #412 ) ;
#626 = DIRECTION ( 'NONE',  ( -0.000000000000000000, -1.000000000000000000, -0.000000000000000000 ) ) ;
#627 = CARTESIAN_POINT ( 'NONE',  ( -4.894136616200801981, 4.140246778106944525, 2.616933974605505586 ) ) ;
#628 = EDGE_CURVE ( 'NONE', #619, #661, #127, .T. ) ;
#629 = EDGE_LOOP ( 'NONE', ( #62, #459, #423, #864, #705, #878 ) ) ;
#630 = CARTESIAN_POINT ( 'NONE',  ( 12.50000000000000000, 4.140246778106944525, 5.000000000000000888 ) ) ;
#631 = DIRECTION ( 'NONE',  ( 0.000000000000000000, -0.000000000000000000, 1.000000000000000000 ) ) ;
#632 = ORIENTED_EDGE ( 'NONE', *, *, #989, .F. ) ;
#633 = ORIENTED_EDGE ( 'NONE', *, *, #103, .T. ) ;
#634 = PERSON_AND_ORGANIZATION_ROLE ( 'creator' ) ;
#635 = EDGE_CURVE ( 'NONE', #773, #204, #530, .T. ) ;
#636 = LINE ( 'NONE', #808, #108 ) ;
#637 = DIRECTION ( 'NONE',  ( -1.000000000000000000, 0.000000000000000000, 0.000000000000000000 ) ) ;
#638 = DIRECTION ( 'NONE',  ( -1.000000000000000000, 0.000000000000000000, 0.000000000000000000 ) ) ;
#639 = ADVANCED_FACE ( 'NONE', ( #765 ), #924, .F. ) ;
#640 = CIRCLE ( 'NONE', #415, 1.600000000000000533 ) ;
#641 = DIRECTION ( 'NONE',  ( -1.000000000000000000, 0.000000000000000000, 0.000000000000000000 ) ) ;
#642 = VECTOR ( 'NONE', #793, 1000.000000000000000 ) ;
#643 = LINE ( 'NONE', #319, #1001 ) ;
#644 = CC_DESIGN_APPROVAL ( #480, ( #347 ) ) ;
#645 = DIRECTION ( 'NONE',  ( -1.000000000000000000, 0.000000000000000000, 0.000000000000000000 ) ) ;
#646 = LINE ( 'NONE', #211, #485 ) ;
#647 = PLANE ( 'NONE',  #913 ) ;
#648 = CARTESIAN_POINT ( 'NONE',  ( -15.50000000000000000, -18.35999222681077114, -11.60001349420275574 ) ) ;
#649 = DIRECTION ( 'NONE',  ( 1.000000000000000000, -0.000000000000000000, -0.000000000000000000 ) ) ;
#650 = DIRECTION ( 'NONE',  ( 1.000000000000000000, 0.000000000000000000, -0.000000000000000000 ) ) ;
#651 = CARTESIAN_POINT ( 'NONE',  ( -9.600000000000001421, -22.35999999999999943, 5.000000000000000888 ) ) ;
#652 = CARTESIAN_POINT ( 'NONE',  ( -13.50000000000000000, -19.35998445361549614, -5.000034761570748110 ) ) ;
#653 = ADVANCED_FACE ( 'NONE', ( #1008 ), #788, .F. ) ;
#654 = ORIENTED_EDGE ( 'NONE', *, *, #440, .T. ) ;
#655 = DIRECTION ( 'NONE',  ( -1.000000000000000000, -0.000000000000000000, -0.000000000000000000 ) ) ;
#656 = CARTESIAN_POINT ( 'NONE',  ( -15.50000000000000000, -14.35998445362153753, -5.000026988405515738 ) ) ;
#657 = AXIS2_PLACEMENT_3D ( 'NONE', #129, #790, #650 ) ;
#658 = CARTESIAN_POINT ( 'NONE',  ( -15.50000000000000000, -14.35998445362153753, -5.000026988405515738 ) ) ;
#659 = AXIS2_PLACEMENT_3D ( 'NONE', #758, #988, #253 ) ;
#660 = VECTOR ( 'NONE', #22, 1000.000000000000000 ) ;
#661 = VERTEX_POINT ( 'NONE', #624 ) ;
#662 = EDGE_CURVE ( 'NONE', #1011, #259, #1000, .T. ) ;
#663 = ORIENTED_EDGE ( 'NONE', *, *, #88, .T. ) ;
#664 = CARTESIAN_POINT ( 'NONE',  ( -15.50000000000000000, -22.35999999999999943, 5.000000000000000888 ) ) ;
#665 = DIRECTION ( 'NONE',  ( 0.000000000000000000, 1.000000000000000000, 0.000000000000000000 ) ) ;
#666 = ORIENTED_EDGE ( 'NONE', *, *, #408, .F. ) ;
#667 = CARTESIAN_POINT ( 'NONE',  ( -15.50000000000000000, -19.35996511551068977, -20.43905041718123172 ) ) ;
#668 = EDGE_CURVE ( 'NONE', #773, #941, #452, .T. ) ;
#669 = CARTESIAN_POINT ( 'NONE',  ( -15.50000000000000000, 4.140246778106944525, -4.999999999999999112 ) ) ;
#670 = CARTESIAN_POINT ( 'NONE',  ( -9.600000000000001421, -22.35999999999999943, -17.43905041718129922 ) ) ;
#671 = ORIENTED_EDGE ( 'NONE', *, *, #179, .F. ) ;
#672 = DIRECTION ( 'NONE',  ( 0.000000000000000000, 0.000000000000000000, -1.000000000000000000 ) ) ;
#673 = CARTESIAN_POINT ( 'NONE',  ( -15.50000000000000000, -19.35996045161155621, -20.43905041717398419 ) ) ;
#674 = DIRECTION ( 'NONE',  ( -0.000000000000000000, -1.000000000000000000, -0.000000000000000000 ) ) ;
#675 = PRODUCT_DEFINITION ( 'UNKNOWN', '', #230, #1016 ) ;
#676 = CARTESIAN_POINT ( 'NONE',  ( 10.49999999999999822, -6.859753221893055475, -17.43905041718129922 ) ) ;
#677 = VERTEX_POINT ( 'NONE', #283 ) ;
#678 = VECTOR ( 'NONE', #607, 1000.000000000000000 ) ;
#679 = VECTOR ( 'NONE', #839, 1000.000000000000000 ) ;
#680 = FACE_BOUND ( 'NONE', #515, .T. ) ;
#681 = VERTEX_POINT ( 'NONE', #205 ) ;
#682 = PERSON_AND_ORGANIZATION_ROLE ( 'creator' ) ;
#683 = MANIFOLD_SOLID_BREP ( 'Cut-Extrude4', #77 ) ;
#684 = DIRECTION ( 'NONE',  ( -0.000000000000000000, 1.000000000000000000, -0.000000000000000000 ) ) ;
#685 = ORIENTED_EDGE ( 'NONE', *, *, #586, .F. ) ;
#686 = EDGE_CURVE ( 'NONE', #360, #773, #697, .T. ) ;
#687 = ORIENTED_EDGE ( 'NONE', *, *, #594, .F. ) ;
#688 = CARTESIAN_POINT ( 'NONE',  ( 4.605863383799198019, -7.000000000000000000, 1.366933974605638147 ) ) ;
#689 = CARTESIAN_POINT ( 'NONE',  ( 10.49999999999999822, 0.000000000000000000, 0.000000000000000000 ) ) ;
#690 = VERTEX_POINT ( 'NONE', #933 ) ;
#691 = CIRCLE ( 'NONE', #759, 1.600000000000002531 ) ;
#692 = EDGE_CURVE ( 'NONE', #744, #374, #31, .T. ) ;
#693 = ORIENTED_EDGE ( 'NONE', *, *, #1034, .T. ) ;
#694 = CIRCLE ( 'NONE', #865, 1.250000000000000222 ) ;
#695 =( GEOMETRIC_REPRESENTATION_CONTEXT ( 3 ) GLOBAL_UNCERTAINTY_ASSIGNED_CONTEXT ( ( #287 ) ) GLOBAL_UNIT_ASSIGNED_CONTEXT ( ( #566, #615, #270 ) ) REPRESENTATION_CONTEXT ( 'NONE', 'WORKASPACE' ) );
#696 = APPLICATION_PROTOCOL_DEFINITION ( 'international standard', 'config_control_design', 1994, #266 ) ;
#697 = LINE ( 'NONE', #775, #678 ) ;
#698 = CARTESIAN_POINT ( 'NONE',  ( -9.599999999999997868, -18.35999222681077114, -10.00001349420275432 ) ) ;
#699 = ORIENTED_EDGE ( 'NONE', *, *, #26, .T. ) ;
#700 = ORIENTED_EDGE ( 'NONE', *, *, #635, .T. ) ;
#701 = EDGE_CURVE ( 'NONE', #507, #115, #536, .T. ) ;
#702 = DIRECTION ( 'NONE',  ( 0.000000000000000000, 0.000000000000000000, -1.000000000000000000 ) ) ;
#703 = DIRECTION ( 'NONE',  ( 1.000000000000000000, -0.000000000000000000, -0.000000000000000000 ) ) ;
#704 = EDGE_LOOP ( 'NONE', ( #761, #687 ) ) ;
#705 = ORIENTED_EDGE ( 'NONE', *, *, #544, .F. ) ;
#706 = SECURITY_CLASSIFICATION_LEVEL ( 'unclassified' ) ;
#707 = DIRECTION ( 'NONE',  ( 0.000000000000000000, 0.000000000000000000, 1.000000000000000000 ) ) ;
#708 = EDGE_CURVE ( 'NONE', #184, #488, #971, .T. ) ;
#709 = DIRECTION ( 'NONE',  ( 0.000000000000000000, 0.000000000000000000, 1.000000000000000000 ) ) ;
#710 = ORIENTED_EDGE ( 'NONE', *, *, #819, .F. ) ;
#711 = ORIENTED_EDGE ( 'NONE', *, *, #875, .T. ) ;
#712 = VECTOR ( 'NONE', #626, 1000.000000000000000 ) ;
#713 = APPROVAL_DATE_TIME ( #561, #480 ) ;
#714 = VECTOR ( 'NONE', #17, 1000.000000000000000 ) ;
#715 = DIRECTION ( 'NONE',  ( 0.000000000000000000, 0.000000000000000000, 1.000000000000000000 ) ) ;
#716 = PLANE ( 'NONE',  #1003 ) ;
#717 = ORIENTED_EDGE ( 'NONE', *, *, #1019, .F. ) ;
#718 = PLANE ( 'NONE',  #881 ) ;
#719 = DIRECTION ( 'NONE',  ( 1.000000000000000000, -0.000000000000000000, -0.000000000000000000 ) ) ;
#720 = ORIENTED_EDGE ( 'NONE', *, *, #195, .F. ) ;
#721 = EDGE_CURVE ( 'NONE', #772, #259, #783, .T. ) ;
#722 = LINE ( 'NONE', #482, #990 ) ;
#723 = CARTESIAN_POINT ( 'NONE',  ( -15.50000000000000000, -19.35998639693382017, -5.000017380785374499 ) ) ;
#724 = ORIENTED_EDGE ( 'NONE', *, *, #361, .F. ) ;
#725 = VECTOR ( 'NONE', #583, 1000.000000000000000 ) ;
#726 = DIRECTION ( 'NONE',  ( 1.000000000000000000, -0.000000000000000000, -0.000000000000000000 ) ) ;
#727 = VECTOR ( 'NONE', #891, 1000.000000000000114 ) ;
#728 = CARTESIAN_POINT ( 'NONE',  ( -9.599999999999997868, -18.35998633105284483, -1.821081693645712485E-05 ) ) ;
#729 = ORIENTED_EDGE ( 'NONE', *, *, #883, .T. ) ;
#730 = CARTESIAN_POINT ( 'NONE',  ( 0.000000000000000000, -19.35999222678798048, -3.009768369158246059E-05 ) ) ;
#731 = CARTESIAN_POINT ( 'NONE',  ( -15.50000000000000000, -22.35999999999999943, -20.43905041718123172 ) ) ;
#732 = EDGE_CURVE ( 'NONE', #250, #677, #372, .T. ) ;
#733 = DIRECTION ( 'NONE',  ( 0.000000000000000000, 1.000000000000000000, -0.000000000000000000 ) ) ;
#734 = ORIENTED_EDGE ( 'NONE', *, *, #435, .T. ) ;
#735 = DIRECTION ( 'NONE',  ( -1.000000000000000000, -0.000000000000000000, -0.000000000000000000 ) ) ;
#736 = CARTESIAN_POINT ( 'NONE',  ( -12.50000000000000000, -22.35999999999999943, 5.000000000000000888 ) ) ;
#737 = LINE ( 'NONE', #585, #434 ) ;
#738 = ADVANCED_FACE ( 'NONE', ( #599 ), #278, .F. ) ;
#739 = EDGE_LOOP ( 'NONE', ( #186, #199, #588, #529 ) ) ;
#740 = DIRECTION ( 'NONE',  ( -1.000000000000000000, 0.000000000000000000, 0.000000000000000000 ) ) ;
#741 = CIRCLE ( 'NONE', #381, 1.600000000000002531 ) ;
#742 = CARTESIAN_POINT ( 'NONE',  ( 24.50000000000002132, -18.35998633105284483, -1.821081693645712485E-05 ) ) ;
#743 = AXIS2_PLACEMENT_3D ( 'NONE', #910, #820, #490 ) ;
#744 = VERTEX_POINT ( 'NONE', #53 ) ;
#745 = EDGE_CURVE ( 'NONE', #335, #618, #357, .T. ) ;
#746 = CARTESIAN_POINT ( 'NONE',  ( -15.50000000000000000, -14.35996045158738532, -20.43906207725124347 ) ) ;
#747 = ORIENTED_EDGE ( 'NONE', *, *, #156, .F. ) ;
#748 = CARTESIAN_POINT ( 'NONE',  ( -4.894136616200801981, -7.000000000000000000, 2.616933974605505586 ) ) ;
#749 = DIRECTION ( 'NONE',  ( 0.000000000000000000, 0.9999999999987915222, 1.554633046364668148E-06 ) ) ;
#750 = ORIENTED_EDGE ( 'NONE', *, *, #771, .T. ) ;
#751 = DIRECTION ( 'NONE',  ( -1.000000000000000000, 0.000000000000000000, 0.000000000000000000 ) ) ;
#752 = CC_DESIGN_PERSON_AND_ORGANIZATION_ASSIGNMENT ( #764, #858, ( #41 ) ) ;
#753 = DIRECTION ( 'NONE',  ( -0.000000000000000000, -1.554633046282973726E-06, 0.9999999999987915222 ) ) ;
#754 = DIRECTION ( 'NONE',  ( -0.000000000000000000, -0.000000000000000000, -1.000000000000000000 ) ) ;
#755 = EDGE_LOOP ( 'NONE', ( #915, #1032, #786, #389 ) ) ;
#756 = LINE ( 'NONE', #49, #293 ) ;
#757 = CARTESIAN_POINT ( 'NONE',  ( 10.49999999999999822, -6.859753221893055475, -17.43905041718129922 ) ) ;
#758 = CARTESIAN_POINT ( 'NONE',  ( 4.605863383799198019, 4.140246778106944525, 1.366933974605638147 ) ) ;
#759 = AXIS2_PLACEMENT_3D ( 'NONE', #133, #279, #709 ) ;
#760 = VECTOR ( 'NONE', #142, 1000.000000000000000 ) ;
#761 = ORIENTED_EDGE ( 'NONE', *, *, #1006, .F. ) ;
#762 = AXIS2_PLACEMENT_3D ( 'NONE', #901, #11, #4 ) ;
#763 = B_SPLINE_CURVE_WITH_KNOTS ( 'NONE', 3,
 ( #723, #68, #652, #484 ),
 .UNSPECIFIED., .F., .F.,
 ( 4, 4 ),
 ( 0.000000000000000000, 1.000000000000000000 ),
 .UNSPECIFIED. ) ;
#764 = PERSON_AND_ORGANIZATION ( #296, #469 ) ;
#765 = FACE_OUTER_BOUND ( 'NONE', #834, .T. ) ;
#766 = ADVANCED_FACE ( 'NONE', ( #271 ), #616, .F. ) ;
#767 = EDGE_LOOP ( 'NONE', ( #994, #710, #356, #172 ) ) ;
#768 = VERTEX_POINT ( 'NONE', #185 ) ;
#769 = APPLICATION_PROTOCOL_DEFINITION ( 'international standard', 'config_control_design', 1994, #213 ) ;
#770 = CARTESIAN_POINT ( 'NONE',  ( -9.600000000000001421, -14.35996278355508160, -17.43905041718129922 ) ) ;
#771 = EDGE_CURVE ( 'NONE', #19, #124, #514, .T. ) ;
#772 = VERTEX_POINT ( 'NONE', #436 ) ;
#773 = VERTEX_POINT ( 'NONE', #804 ) ;
#774 = ORIENTED_EDGE ( 'NONE', *, *, #551, .F. ) ;
#775 = CARTESIAN_POINT ( 'NONE',  ( -12.50000000000000000, -31.85975322189305814, -20.43905041718123172 ) ) ;
#776 = CARTESIAN_POINT ( 'NONE',  ( -12.50000000000000000, -31.85975322189305814, -17.43905041718129922 ) ) ;
#777 = ORIENTED_EDGE ( 'NONE', *, *, #83, .T. ) ;
#778 = VECTOR ( 'NONE', #72, 1000.000000000000227 ) ;
#779 = ORIENTED_EDGE ( 'NONE', *, *, #732, .F. ) ;
#780 = ORIENTED_EDGE ( 'NONE', *, *, #318, .F. ) ;
#781 = ADVANCED_FACE ( 'NONE', ( #395 ), #300, .T. ) ;
#782 = CALENDAR_DATE ( 2025, 26, 9 ) ;
#783 = LINE ( 'NONE', #48, #277 ) ;
#784 = DIRECTION ( 'NONE',  ( 0.000000000000000000, 0.000000000000000000, 1.000000000000000000 ) ) ;
#785 = ORIENTED_EDGE ( 'NONE', *, *, #708, .T. ) ;
#786 = ORIENTED_EDGE ( 'NONE', *, *, #559, .F. ) ;
#787 = EDGE_CURVE ( 'NONE', #946, #619, #722, .T. ) ;
#788 = PLANE ( 'NONE',  #831 ) ;
#789 = CARTESIAN_POINT ( 'NONE',  ( -9.600000000000001421, -14.35998445362153753, -5.000026988405515738 ) ) ;
#790 = DIRECTION ( 'NONE',  ( 0.000000000000000000, 0.000000000000000000, 1.000000000000000000 ) ) ;
#791 = VERTEX_POINT ( 'NONE', #963 ) ;
#792 = COORDINATED_UNIVERSAL_TIME_OFFSET ( 7, 0, .AHEAD. ) ;
#793 = DIRECTION ( 'NONE',  ( 0.000000000000000000, 0.000000000000000000, -1.000000000000000000 ) ) ;
#794 = FACE_BOUND ( 'NONE', #437, .T. ) ;
#795 = VERTEX_POINT ( 'NONE', #814 ) ;
#796 = AXIS2_PLACEMENT_3D ( 'NONE', #91, #578, #167 ) ;
#797 = VECTOR ( 'NONE', #584, 1000.000000000000227 ) ;
#798 = CIRCLE ( 'NONE', #1024, 1.600000000000000533 ) ;
#799 = DIRECTION ( 'NONE',  ( 0.000000000000000000, -0.9999999999987916333, -1.554633046282973938E-06 ) ) ;
#800 = LINE ( 'NONE', #61, #587 ) ;
#801 = EDGE_CURVE ( 'NONE', #946, #50, #224, .T. ) ;
#802 = ORIENTED_EDGE ( 'NONE', *, *, #269, .F. ) ;
#803 = APPROVAL_STATUS ( 'not_yet_approved' ) ;
#804 = CARTESIAN_POINT ( 'NONE',  ( -12.50000000000000000, -14.35996045160551304, -20.43905041718123528 ) ) ;
#805 = CARTESIAN_POINT ( 'NONE',  ( -12.50000000000000000, -22.35999999999999943, -20.43905041718123172 ) ) ;
#806 = LINE ( 'NONE', #945, #534 ) ;
#807 = PERSON_AND_ORGANIZATION ( #296, #469 ) ;
#808 = CARTESIAN_POINT ( 'NONE',  ( 10.46475073058614846, 1.139999999999999902, -4.999999999999999112 ) ) ;
#809 = DIRECTION ( 'NONE',  ( -0.000000000000000000, -1.000000000000000000, 0.000000000000000000 ) ) ;
#810 = DIRECTION ( 'NONE',  ( -1.000000000000000000, 0.000000000000000000, 0.000000000000000000 ) ) ;
#811 = LINE ( 'NONE', #667, #345 ) ;
#812 = ADVANCED_FACE ( 'NONE', ( #132 ), #647, .F. ) ;
#813 = AXIS2_PLACEMENT_3D ( 'NONE', #481, #823, #251 ) ;
#814 = CARTESIAN_POINT ( 'NONE',  ( -9.600000000000001421, 1.139999999999999902, 5.000000000000002665 ) ) ;
#815 = VECTOR ( 'NONE', #413, 1000.000000000000000 ) ;
#816 = DIRECTION ( 'NONE',  ( -0.000000000000000000, -1.000000000000000000, -0.000000000000000000 ) ) ;
#817 = VECTOR ( 'NONE', #753, 1000.000000000000114 ) ;
#818 = EDGE_LOOP ( 'NONE', ( #717, #609 ) ) ;
#819 = EDGE_CURVE ( 'NONE', #145, #1011, #477, .T. ) ;
#820 = DIRECTION ( 'NONE',  ( -1.000000000000000000, 0.000000000000000000, 0.000000000000000000 ) ) ;
#821 = CYLINDRICAL_SURFACE ( 'NONE', #486, 1.600000000000000533 ) ;
#822 = ORIENTED_EDGE ( 'NONE', *, *, #88, .F. ) ;
#823 = DIRECTION ( 'NONE',  ( -0.000000000000000000, -1.000000000000000000, 0.000000000000000000 ) ) ;
#824 = CYLINDRICAL_SURFACE ( 'NONE', #192, 1.250000000000000222 ) ;
#825 = CARTESIAN_POINT ( 'NONE',  ( 24.50000000000002132, -18.35998633105284483, 1.599981789183064107 ) ) ;
#826 = EDGE_CURVE ( 'NONE', #528, #125, #135, .T. ) ;
#827 = EDGE_LOOP ( 'NONE', ( #463, #974, #80, #344 ) ) ;
#828 = FACE_OUTER_BOUND ( 'NONE', #40, .T. ) ;
#829 = LINE ( 'NONE', #94, #914 ) ;
#830 = CARTESIAN_POINT ( 'NONE',  ( 4.605863383799198019, -7.000000000000000000, 0.1169339746056380080 ) ) ;
#831 = AXIS2_PLACEMENT_3D ( 'NONE', #853, #116, #120 ) ;
#832 = ADVANCED_FACE ( 'NONE', ( #1025 ), #237, .T. ) ;
#833 = CC_DESIGN_APPROVAL ( #39, ( #230 ) ) ;
#834 = EDGE_LOOP ( 'NONE', ( #846, #779, #375, #997, #747, #802, #268, #97 ) ) ;
#835 = DIRECTION ( 'NONE',  ( -0.000000000000000000, 1.000000000000000000, 0.000000000000000000 ) ) ;
#836 = FACE_OUTER_BOUND ( 'NONE', #57, .T. ) ;
#837 = DIRECTION ( 'NONE',  ( 0.000000000000000000, 0.000000000000000000, 1.000000000000000000 ) ) ;
#838 = FACE_BOUND ( 'NONE', #560, .T. ) ;
#839 = DIRECTION ( 'NONE',  ( 1.000000000000000000, 0.000000000000000000, 0.000000000000000000 ) ) ;
#840 = CARTESIAN_POINT ( 'NONE',  ( 4.605863383799198019, 1.139999999999999458, 2.616933974605638369 ) ) ;
#841 = ORIENTED_EDGE ( 'NONE', *, *, #951, .F. ) ;
#842 = EDGE_CURVE ( 'NONE', #204, #115, #882, .T. ) ;
#843 = CARTESIAN_POINT ( 'NONE',  ( 24.50000000000002132, -18.35999222681077114, -8.400013494202751119 ) ) ;
#844 = VECTOR ( 'NONE', #877, 1000.000000000000114 ) ;
#845 = VECTOR ( 'NONE', #348, 1000.000000000000000 ) ;
#846 = ORIENTED_EDGE ( 'NONE', *, *, #113, .F. ) ;
#847 = EDGE_LOOP ( 'NONE', ( #454, #785, #693, #598 ) ) ;
#848 = APPROVAL_ROLE ( '' ) ;
#849 = CC_DESIGN_PERSON_AND_ORGANIZATION_ASSIGNMENT ( #236, #231, ( #347 ) ) ;
#850 = CARTESIAN_POINT ( 'NONE',  ( 24.50000000000002132, -18.35999222681077114, -11.60001349420275574 ) ) ;
#851 = ORIENTED_EDGE ( 'NONE', *, *, #573, .T. ) ;
#852 = ORIENTED_EDGE ( 'NONE', *, *, #244, .T. ) ;
#853 = CARTESIAN_POINT ( 'NONE',  ( -12.50000000000000000, -14.35998445362153753, -5.000026988405515738 ) ) ;
#854 = CARTESIAN_POINT ( 'NONE',  ( -12.50000000000000000, -14.35996278355508160, -17.43905041718129922 ) ) ;
#855 = EDGE_CURVE ( 'NONE', #250, #479, #232, .T. ) ;
#856 = ORIENTED_EDGE ( 'NONE', *, *, #244, .F. ) ;
#857 = ORIENTED_EDGE ( 'NONE', *, *, #414, .T. ) ;
#858 = PERSON_AND_ORGANIZATION_ROLE ( 'design_owner' ) ;
#859 = CARTESIAN_POINT ( 'NONE',  ( 10.49999999999999822, -31.85975322189305814, -17.43905041718129922 ) ) ;
#860 = CARTESIAN_POINT ( 'NONE',  ( -15.50000000000000000, -18.35998633105284483, -1.600018210816936959 ) ) ;
#861 = ORIENTED_EDGE ( 'NONE', *, *, #440, .F. ) ;
#862 = ADVANCED_FACE ( 'NONE', ( #309 ), #718, .F. ) ;
#863 = AXIS2_PLACEMENT_3D ( 'NONE', #608, #612, #54 ) ;
#864 = ORIENTED_EDGE ( 'NONE', *, *, #855, .F. ) ;
#865 = AXIS2_PLACEMENT_3D ( 'NONE', #961, #809, #1031 ) ;
#866 = APPROVAL_DATE_TIME ( #443, #162 ) ;
#867 = CARTESIAN_POINT ( 'NONE',  ( 12.50000000000000000, 1.139999999999999902, 5.000000000000002665 ) ) ;
#868 = DIRECTION ( 'NONE',  ( 0.000000000000000000, 1.554633046282973726E-06, -0.9999999999987915222 ) ) ;
#869 = ORIENTED_EDGE ( 'NONE', *, *, #98, .F. ) ;
#870 = ORIENTED_EDGE ( 'NONE', *, *, #819, .T. ) ;
#871 = DIRECTION ( 'NONE',  ( -1.000000000000000000, -0.000000000000000000, -0.000000000000000000 ) ) ;
#872 = CARTESIAN_POINT ( 'NONE',  ( 10.49999999999999822, -31.85975322189305814, -17.43905041718129922 ) ) ;
#873 = VERTEX_POINT ( 'NONE', #317 ) ;
#874 = ORIENTED_EDGE ( 'NONE', *, *, #323, .T. ) ;
#875 = EDGE_CURVE ( 'NONE', #791, #221, #305, .T. ) ;
#876 = CARTESIAN_POINT ( 'NONE',  ( -9.600000000000001421, -22.35999999999999943, -17.43905041718129922 ) ) ;
#877 = DIRECTION ( 'NONE',  ( -0.000000000000000000, -1.554633046282973726E-06, 0.9999999999987915222 ) ) ;
#878 = ORIENTED_EDGE ( 'NONE', *, *, #989, .T. ) ;
#879 = AXIS2_PLACEMENT_3D ( 'NONE', #246, #751, #324 ) ;
#880 = APPROVAL_STATUS ( 'not_yet_approved' ) ;
#881 = AXIS2_PLACEMENT_3D ( 'NONE', #557, #799, #146 ) ;
#882 = LINE ( 'NONE', #550, #760 ) ;
#883 = EDGE_CURVE ( 'NONE', #24, #981, #67, .T. ) ;
#884 = FACE_OUTER_BOUND ( 'NONE', #138, .T. ) ;
#885 = ORIENTED_EDGE ( 'NONE', *, *, #668, .T. ) ;
#886 = CALENDAR_DATE ( 2025, 26, 9 ) ;
#887 = DIRECTION ( 'NONE',  ( 0.000000000000000000, 0.000000000000000000, -1.000000000000000000 ) ) ;
#888 = FACE_OUTER_BOUND ( 'NONE', #89, .T. ) ;
#889 = CARTESIAN_POINT ( 'NONE',  ( -12.50000000000000000, 0.000000000000000000, 0.000000000000000000 ) ) ;
#890 = EDGE_CURVE ( 'NONE', #194, #661, #636, .T. ) ;
#891 = DIRECTION ( 'NONE',  ( 0.000000000000000000, -1.554633046282973726E-06, 0.9999999999987915222 ) ) ;
#892 = DIRECTION ( 'NONE',  ( 0.000000000000000000, 1.000000000000000000, 0.000000000000000000 ) ) ;
#893 = ADVANCED_FACE ( 'NONE', ( #953 ), #472, .F. ) ;
#894 = CARTESIAN_POINT ( 'NONE',  ( 10.49999999999999822, -31.85975322189305814, -20.43905041718123172 ) ) ;
#895 = CIRCLE ( 'NONE', #330, 1.250000000000000222 ) ;
#896 = DIRECTION ( 'NONE',  ( 0.000000000000000000, 0.000000000000000000, 1.000000000000000000 ) ) ;
#897 = ORIENTED_EDGE ( 'NONE', *, *, #21, .F. ) ;
#898 = CARTESIAN_POINT ( 'NONE',  ( -9.600000000000001421, -14.35996278355508160, -17.43905041718129922 ) ) ;
#899 = LINE ( 'NONE', #471, #464 ) ;
#900 = EDGE_CURVE ( 'NONE', #773, #216, #1041, .T. ) ;
#901 = CARTESIAN_POINT ( 'NONE',  ( -4.894136616200801981, 4.140246778106944525, 1.366933974605505586 ) ) ;
#902 = FACE_OUTER_BOUND ( 'NONE', #411, .T. ) ;
#903 = VERTEX_POINT ( 'NONE', #731 ) ;
#904 = FACE_OUTER_BOUND ( 'NONE', #739, .T. ) ;
#905 = ORIENTED_EDGE ( 'NONE', *, *, #579, .T. ) ;
#906 = CARTESIAN_POINT ( 'NONE',  ( 4.605863383799198019, -7.000000000000000000, 1.366933974605638147 ) ) ;
#907 = CC_DESIGN_DATE_AND_TIME_ASSIGNMENT ( #952, #222, ( #347 ) ) ;
#908 = DIRECTION ( 'NONE',  ( 0.000000000000000000, 0.000000000000000000, 1.000000000000000000 ) ) ;
#909 = VERTEX_POINT ( 'NONE', #1044 ) ;
#910 = CARTESIAN_POINT ( 'NONE',  ( -15.50000000000000000, -18.35998633105284483, -1.821081693645712485E-05 ) ) ;
#911 = AXIS2_PLACEMENT_3D ( 'NONE', #403, #546, #392 ) ;
#912 = DIRECTION ( 'NONE',  ( -0.000000000000000000, -0.9999999999987915222, -1.554633046364668148E-06 ) ) ;
#913 = AXIS2_PLACEMENT_3D ( 'NONE', #382, #641, #715 ) ;
#914 = VECTOR ( 'NONE', #592, 1000.000000000000000 ) ;
#915 = ORIENTED_EDGE ( 'NONE', *, *, #686, .F. ) ;
#916 = DIRECTION ( 'NONE',  ( 0.000000000000000000, 0.000000000000000000, -1.000000000000000000 ) ) ;
#917 = FACE_OUTER_BOUND ( 'NONE', #386, .T. ) ;
#918 = CARTESIAN_POINT ( 'NONE',  ( -9.600000000000001421, 0.000000000000000000, 0.000000000000000000 ) ) ;
#919 = EDGE_CURVE ( 'NONE', #985, #981, #943, .T. ) ;
#920 = CARTESIAN_POINT ( 'NONE',  ( -4.894136616200801981, 1.139999999999999458, 2.616933974605505586 ) ) ;
#921 = ORIENTED_EDGE ( 'NONE', *, *, #842, .F. ) ;
#922 = CC_DESIGN_PERSON_AND_ORGANIZATION_ASSIGNMENT ( #308, #634, ( #230 ) ) ;
#923 = PRODUCT_DEFINITION_SHAPE ( 'NONE', 'NONE',  #675 ) ;
#924 = PLANE ( 'NONE',  #44 ) ;
#925 = VECTOR ( 'NONE', #36, 1000.000000000000000 ) ;
#926 = ORIENTED_EDGE ( 'NONE', *, *, #136, .T. ) ;
#927 = EDGE_LOOP ( 'NONE', ( #822, #711, #936, #685 ) ) ;
#928 = EDGE_CURVE ( 'NONE', #221, #522, #139, .T. ) ;
#929 = DIRECTION ( 'NONE',  ( -0.000000000000000000, -0.000000000000000000, -1.000000000000000000 ) ) ;
#930 = FACE_OUTER_BOUND ( 'NONE', #629, .T. ) ;
#931 = EDGE_LOOP ( 'NONE', ( #198, #780 ) ) ;
#932 = ORIENTED_EDGE ( 'NONE', *, *, #875, .F. ) ;
#933 = CARTESIAN_POINT ( 'NONE',  ( 10.49999999999999822, -31.85975322189305814, -17.43905041718129922 ) ) ;
#934 = ADVANCED_FACE ( 'NONE', ( #252 ), #82, .F. ) ;
#935 = CARTESIAN_POINT ( 'NONE',  ( -15.50000000000000000, -19.35998639693382017, -5.000017380785374499 ) ) ;
#936 = ORIENTED_EDGE ( 'NONE', *, *, #928, .T. ) ;
#937 = ORIENTED_EDGE ( 'NONE', *, *, #960, .T. ) ;
#938 = DIRECTION ( 'NONE',  ( 0.000000000000000000, 1.000000000000000000, 0.000000000000000000 ) ) ;
#939 = CARTESIAN_POINT ( 'NONE',  ( -9.600000000000001421, 0.000000000000000000, -4.999999999999999112 ) ) ;
#940 = CIRCLE ( 'NONE', #879, 1.600000000000002531 ) ;
#941 = VERTEX_POINT ( 'NONE', #983 ) ;
#942 = SHAPE_DEFINITION_REPRESENTATION ( #923, #980 ) ;
#943 = LINE ( 'NONE', #541, #797 ) ;
#944 = PLANE ( 'NONE',  #242 ) ;
#945 = CARTESIAN_POINT ( 'NONE',  ( -12.50000000000000000, -22.35999999999999943, -20.43905041718123172 ) ) ;
#946 = VERTEX_POINT ( 'NONE', #494 ) ;
#947 = EDGE_CURVE ( 'NONE', #772, #985, #342, .T. ) ;
#948 = CARTESIAN_POINT ( 'NONE',  ( -15.50000000000000000, 4.140246778106944525, 5.000000000000000888 ) ) ;
#949 = LINE ( 'NONE', #964, #92 ) ;
#950 = ORIENTED_EDGE ( 'NONE', *, *, #349, .T. ) ;
#951 = EDGE_CURVE ( 'NONE', #600, #772, #505, .T. ) ;
#952 = DATE_AND_TIME ( #304, #504 ) ;
#953 = FACE_OUTER_BOUND ( 'NONE', #606, .T. ) ;
#954 = DIRECTION ( 'NONE',  ( -0.000000000000000000, -0.9999999999987915222, -1.554633046364668148E-06 ) ) ;
#955 = DIRECTION ( 'NONE',  ( -1.000000000000000000, -0.000000000000000000, -0.000000000000000000 ) ) ;
#956 = VECTOR ( 'NONE', #703, 1000.000000000000000 ) ;
#957 = VECTOR ( 'NONE', #288, 1000.000000000000000 ) ;
#958 = APPROVAL_PERSON_ORGANIZATION ( #807, #480, #548 ) ;
#959 = DIRECTION ( 'NONE',  ( -0.000000000000000000, 0.000000000000000000, -1.000000000000000000 ) ) ;
#960 = EDGE_CURVE ( 'NONE', #795, #1043, #333, .T. ) ;
#961 = CARTESIAN_POINT ( 'NONE',  ( -4.894136616200801981, 1.139999999999999458, 1.366933974605505586 ) ) ;
#962 = CARTESIAN_POINT ( 'NONE',  ( -9.599999999999997868, -18.35999222681077114, -8.400013494202751119 ) ) ;
#963 = CARTESIAN_POINT ( 'NONE',  ( -9.599999999999997868, -18.35998633105284483, -1.600018210816936959 ) ) ;
#964 = CARTESIAN_POINT ( 'NONE',  ( -12.50000000000000000, -22.35999999999999943, -20.43905041718123172 ) ) ;
#965 = EDGE_CURVE ( 'NONE', #903, #681, #256, .T. ) ;
#966 = DIRECTION ( 'NONE',  ( 0.000000000000000000, 0.000000000000000000, 1.000000000000000000 ) ) ;
#967 = LINE ( 'NONE', #310, #262 ) ;
#968 = EDGE_LOOP ( 'NONE', ( #47, #180, #595, #921 ) ) ;
#969 = CARTESIAN_POINT ( 'NONE',  ( -15.50000000000000000, -18.35999222681077114, -8.400013494202751119 ) ) ;
#970 = ORIENTED_EDGE ( 'NONE', *, *, #692, .F. ) ;
#971 = CIRCLE ( 'NONE', #157, 1.250000000000000222 ) ;
#972 = CARTESIAN_POINT ( 'NONE',  ( -12.50000000000000000, -14.35998445362153753, -5.000026988405515738 ) ) ;
#973 = CARTESIAN_POINT ( 'NONE',  ( -9.600000000000001421, 1.139999999999999902, -4.999999999999999112 ) ) ;
#974 = ORIENTED_EDGE ( 'NONE', *, *, #883, .F. ) ;
#975 = CARTESIAN_POINT ( 'NONE',  ( -9.599999999999997868, -18.35998633105284483, -1.821081693645712485E-05 ) ) ;
#976 = ADVANCED_FACE ( 'NONE', ( #836 ), #100, .F. ) ;
#977 = ORIENTED_EDGE ( 'NONE', *, *, #429, .F. ) ;
#978 = FACE_OUTER_BOUND ( 'NONE', #847, .T. ) ;
#979 = CARTESIAN_POINT ( 'NONE',  ( -15.50000000000000000, -14.35996045158738532, -20.43906207725124347 ) ) ;
#980 = ADVANCED_BREP_SHAPE_REPRESENTATION ( 'LIMIT_BRACKET', ( #683, #177 ), #695 ) ;
#981 = VERTEX_POINT ( 'NONE', #430 ) ;
#982 = CARTESIAN_POINT ( 'NONE',  ( 10.49999999999999822, -31.85975322189305814, -17.43905041718129922 ) ) ;
#983 = CARTESIAN_POINT ( 'NONE',  ( -12.50000000000000000, -14.35996045158738532, -20.43906207725124347 ) ) ;
#984 = LINE ( 'NONE', #830, #589 ) ;
#985 = VERTEX_POINT ( 'NONE', #972 ) ;
#986 = FACE_OUTER_BOUND ( 'NONE', #991, .T. ) ;
#987 = AXIS2_PLACEMENT_3D ( 'NONE', #889, #810, #76 ) ;
#988 = DIRECTION ( 'NONE',  ( 0.000000000000000000, 1.000000000000000000, 0.000000000000000000 ) ) ;
#989 = EDGE_CURVE ( 'NONE', #1043, #681, #182, .T. ) ;
#990 = VECTOR ( 'NONE', #59, 1000.000000000000000 ) ;
#991 = EDGE_LOOP ( 'NONE', ( #970, #897, #750, #274 ) ) ;
#992 = CARTESIAN_POINT ( 'NONE',  ( -4.894136616200801981, -7.000000000000000000, 0.1169339746055052948 ) ) ;
#993 = ADVANCED_FACE ( 'NONE', ( #978 ), #824, .F. ) ;
#994 = ORIENTED_EDGE ( 'NONE', *, *, #83, .F. ) ;
#995 = CARTESIAN_POINT ( 'NONE',  ( -9.600000000000001421, 0.000000000000000000, -4.999999999999999112 ) ) ;
#996 = ORIENTED_EDGE ( 'NONE', *, *, #721, .F. ) ;
#997 = ORIENTED_EDGE ( 'NONE', *, *, #998, .T. ) ;
#998 = EDGE_CURVE ( 'NONE', #479, #873, #829, .T. ) ;
#999 = CALENDAR_DATE ( 2025, 26, 9 ) ;
#1000 = LINE ( 'NONE', #524, #925 ) ;
#1001 = VECTOR ( 'NONE', #1042, 1000.000000000000114 ) ;
#1002 = DIRECTION ( 'NONE',  ( 1.000000000000000000, 0.000000000000000000, 0.000000000000000000 ) ) ;
#1003 = AXIS2_PLACEMENT_3D ( 'NONE', #1026, #301, #631 ) ;
#1004 = ORIENTED_EDGE ( 'NONE', *, *, #385, .F. ) ;
#1005 = ORIENTED_EDGE ( 'NONE', *, *, #144, .F. ) ;
#1006 = EDGE_CURVE ( 'NONE', #30, #446, #65, .T. ) ;
#1007 = CARTESIAN_POINT ( 'NONE',  ( 0.000000000000000000, 0.000000000000000000, 0.000000000000000000 ) ) ;
#1008 = FACE_OUTER_BOUND ( 'NONE', #755, .T. ) ;
#1009 = LINE ( 'NONE', #789, #516 ) ;
#1010 = EDGE_LOOP ( 'NONE', ( #857, #370, #302, #729, #363, #538, #254, #777 ) ) ;
#1011 = VERTEX_POINT ( 'NONE', #669 ) ;
#1012 = DIRECTION ( 'NONE',  ( 0.000000000000000000, -0.9999999999982338572, -1.879417460624484756E-06 ) ) ;
#1013 = FACE_OUTER_BOUND ( 'NONE', #193, .T. ) ;
#1014 = ORIENTED_EDGE ( 'NONE', *, *, #74, .F. ) ;
#1015 = ORIENTED_EDGE ( 'NONE', *, *, #551, .T. ) ;
#1016 = DESIGN_CONTEXT ( 'detailed design', #266, 'design' ) ;
#1017 = DIRECTION ( 'NONE',  ( 0.000000000000000000, -1.879417460624484968E-06, 0.9999999999982339682 ) ) ;
#1018 = DIRECTION ( 'NONE',  ( 0.000000000000000000, -0.9999999999987915222, -1.554633046364668148E-06 ) ) ;
#1019 = EDGE_CURVE ( 'NONE', #522, #221, #798, .T. ) ;
#1020 = ORIENTED_EDGE ( 'NONE', *, *, #801, .F. ) ;
#1021 = AXIS2_PLACEMENT_3D ( 'NONE', #975, #155, #489 ) ;
#1022 = VECTOR ( 'NONE', #78, 1000.000000000000000 ) ;
#1023 = ORIENTED_EDGE ( 'NONE', *, *, #951, .T. ) ;
#1024 = AXIS2_PLACEMENT_3D ( 'NONE', #163, #740, #966 ) ;
#1025 = FACE_OUTER_BOUND ( 'NONE', #160, .T. ) ;
#1026 = CARTESIAN_POINT ( 'NONE',  ( 12.50000000000000000, 4.140246778106944525, 5.000000000000000888 ) ) ;
#1027 = FACE_OUTER_BOUND ( 'NONE', #420, .T. ) ;
#1028 = CC_DESIGN_PERSON_AND_ORGANIZATION_ASSIGNMENT ( #150, #58, ( #230 ) ) ;
#1029 = DATE_AND_TIME ( #782, #554 ) ;
#1030 = DIRECTION ( 'NONE',  ( -1.000000000000000000, -0.000000000000000000, -0.000000000000000000 ) ) ;
#1031 = DIRECTION ( 'NONE',  ( 0.000000000000000000, 0.000000000000000000, 1.000000000000000000 ) ) ;
#1032 = ORIENTED_EDGE ( 'NONE', *, *, #223, .T. ) ;
#1033 = DATE_AND_TIME ( #621, #314 ) ;
#1034 = EDGE_CURVE ( 'NONE', #488, #30, #421, .T. ) ;
#1035 = DIRECTION ( 'NONE',  ( 0.000000000000000000, 0.000000000000000000, 1.000000000000000000 ) ) ;
#1036 = LINE ( 'NONE', #388, #121 ) ;
#1037 = ORIENTED_EDGE ( 'NONE', *, *, #103, .F. ) ;
#1038 = VECTOR ( 'NONE', #954, 1000.000000000000114 ) ;
#1039 = AXIS2_PLACEMENT_3D ( 'NONE', #219, #959, #545 ) ;
#1040 = ADVANCED_FACE ( 'NONE', ( #917 ), #510, .F. ) ;
#1041 = LINE ( 'NONE', #562, #727 ) ;
#1042 = DIRECTION ( 'NONE',  ( -0.000000000000000000, -0.9999999999987915222, -1.554633046364668148E-06 ) ) ;
#1043 = VERTEX_POINT ( 'NONE', #651 ) ;
#1044 = CARTESIAN_POINT ( 'NONE',  ( 4.605863383799198019, 1.139999999999999458, 0.1169339746056380080 ) ) ;
ENDSEC;
END-ISO-10303-21;
