ISO-10303-21;
HEADER;
FILE_DESCRIPTION (( 'STEP AP203' ),
    '1' );
FILE_NAME ('circle2_outer.STEP',
    '2025-10-06T20:32:10',
    ( '' ),
    ( '' ),
    'SwSTEP 2.0',
    'SolidWorks 2025',
    '' );
FILE_SCHEMA (( 'CONFIG_CONTROL_DESIGN' ));
ENDSEC;

DATA;
#1 = DIRECTION ( 'NONE',  ( 0.000000000000000000, 0.000000000000000000, 1.000000000000000000 ) ) ;
#2 = LINE ( 'NONE', #899, #487 ) ;
#3 = CARTESIAN_POINT ( 'NONE',  ( 0.000000000000000000, 10.00000000000000000, 0.000000000000000000 ) ) ;
#4 = VECTOR ( 'NONE', #648, 1000.000000000000000 ) ;
#5 = ORIENTED_EDGE ( 'NONE', *, *, #696, .T. ) ;
#6 = LINE ( 'NONE', #574, #944 ) ;
#7 = CYLINDRICAL_SURFACE ( 'NONE', #771, 1.599999999999998090 ) ;
#8 = ORIENTED_EDGE ( 'NONE', *, *, #594, .T. ) ;
#9 = MECHANICAL_CONTEXT ( 'NONE', #436, 'mechanical' ) ;
#10 = DIRECTION ( 'NONE',  ( 0.000000000000000000, 1.000000000000000000, 0.000000000000000000 ) ) ;
#11 = FACE_OUTER_BOUND ( 'NONE', #912, .T. ) ;
#12 = VECTOR ( 'NONE', #135, 1000.000000000000000 ) ;
#13 = ORIENTED_EDGE ( 'NONE', *, *, #105, .T. ) ;
#14 = AXIS2_PLACEMENT_3D ( 'NONE', #953, #618, #784 ) ;
#15 = APPROVAL_STATUS ( 'not_yet_approved' ) ;
#16 = CARTESIAN_POINT ( 'NONE',  ( 57.27545417499960934, -4.999999999999999112, 1.599999999999998090 ) ) ;
#17 = CC_DESIGN_DATE_AND_TIME_ASSIGNMENT ( #987, #735, ( #375 ) ) ;
#18 = EDGE_CURVE ( 'NONE', #95, #817, #571, .T. ) ;
#19 = CARTESIAN_POINT ( 'NONE',  ( 0.000000000000000000, 10.00000000000000000, 0.000000000000000000 ) ) ;
#20 = VECTOR ( 'NONE', #317, 1000.000000000000000 ) ;
#21 = ORIENTED_EDGE ( 'NONE', *, *, #915, .F. ) ;
#22 = VECTOR ( 'NONE', #828, 1000.000000000000000 ) ;
#23 = APPROVAL_ROLE ( '' ) ;
#24 = PLANE ( 'NONE',  #892 ) ;
#25 = DIRECTION ( 'NONE',  ( 0.000000000000000000, -0.000000000000000000, 1.000000000000000000 ) ) ;
#26 = ORIENTED_EDGE ( 'NONE', *, *, #656, .T. ) ;
#27 = ORIENTED_EDGE ( 'NONE', *, *, #453, .T. ) ;
#28 = DIRECTION ( 'NONE',  ( 0.000000000000000000, 0.000000000000000000, 1.000000000000000000 ) ) ;
#29 = DIRECTION ( 'NONE',  ( 0.000000000000000000, 0.000000000000000000, 1.000000000000000000 ) ) ;
#30 = VECTOR ( 'NONE', #498, 1000.000000000000000 ) ;
#31 = EDGE_LOOP ( 'NONE', ( #113, #186, #160, #714 ) ) ;
#32 = CIRCLE ( 'NONE', #501, 5.000000000000000000 ) ;
#33 = LOCAL_TIME ( 3, 32, 10.00000000000000000, #981 ) ;
#34 = CARTESIAN_POINT ( 'NONE',  ( 14.99999999999998401, -5.000000000000000888, -35.31152949374526884 ) ) ;
#35 = CIRCLE ( 'NONE', #291, 1.599999999999998090 ) ;
#36 = CARTESIAN_POINT ( 'NONE',  ( -57.27545417499960934, 4.000000000000000000, 0.000000000000000000 ) ) ;
#37 = VERTEX_POINT ( 'NONE', #951 ) ;
#38 = VECTOR ( 'NONE', #79, 1000.000000000000000 ) ;
#39 = EDGE_CURVE ( 'NONE', #861, #691, #495, .T. ) ;
#40 = EDGE_CURVE ( 'NONE', #831, #917, #869, .T. ) ;
#41 = VECTOR ( 'NONE', #438, 1000.000000000000000 ) ;
#42 = ORIENTED_EDGE ( 'NONE', *, *, #672, .F. ) ;
#43 = CARTESIAN_POINT ( 'NONE',  ( -53.56071321407137731, 4.000000000000000888, -12.50000000000000000 ) ) ;
#44 = DIRECTION ( 'NONE',  ( -0.000000000000000000, -0.000000000000000000, -1.000000000000000000 ) ) ;
#45 = ORIENTED_EDGE ( 'NONE', *, *, #138, .T. ) ;
#46 = DIRECTION ( 'NONE',  ( 0.000000000000000000, 1.000000000000000000, 0.000000000000000000 ) ) ;
#47 = LINE ( 'NONE', #686, #102 ) ;
#48 = ORIENTED_EDGE ( 'NONE', *, *, #748, .F. ) ;
#49 = DIRECTION ( 'NONE',  ( 0.000000000000000000, 1.000000000000000000, 0.000000000000000000 ) ) ;
#50 = ADVANCED_FACE ( 'NONE', ( #233 ), #388, .T. ) ;
#51 = ADVANCED_FACE ( 'NONE', ( #86 ), #880, .T. ) ;
#52 = FACE_OUTER_BOUND ( 'NONE', #832, .T. ) ;
#53 = VERTEX_POINT ( 'NONE', #700 ) ;
#54 = AXIS2_PLACEMENT_3D ( 'NONE', #410, #619, #937 ) ;
#55 = CARTESIAN_POINT ( 'NONE',  ( 9.999999999999994671, 10.00000000000000000, -50.31152949374526884 ) ) ;
#56 = CARTESIAN_POINT ( 'NONE',  ( -15.00000000000000000, -4.999999999999999112, 1.836970198721029589E-15 ) ) ;
#57 = ORIENTED_EDGE ( 'NONE', *, *, #711, .F. ) ;
#58 = ORIENTED_EDGE ( 'NONE', *, *, #996, .T. ) ;
#59 = CARTESIAN_POINT ( 'NONE',  ( 0.000000000000000000, -5.000000000000000000, 0.000000000000000000 ) ) ;
#60 = CARTESIAN_POINT ( 'NONE',  ( 0.000000000000000000, 4.000000000000000888, 0.000000000000000000 ) ) ;
#61 = LINE ( 'NONE', #154, #605 ) ;
#62 = ADVANCED_FACE ( 'NONE', ( #1022, #802 ), #411, .F. ) ;
#63 = ORIENTED_EDGE ( 'NONE', *, *, #1025, .T. ) ;
#64 = EDGE_CURVE ( 'NONE', #728, #847, #821, .T. ) ;
#65 = CYLINDRICAL_SURFACE ( 'NONE', #273, 55.00000000000000000 ) ;
#66 = CIRCLE ( 'NONE', #652, 55.00000000000000000 ) ;
#67 = DIRECTION ( 'NONE',  ( 0.000000000000000000, 0.000000000000000000, 1.000000000000000000 ) ) ;
#68 = CARTESIAN_POINT ( 'NONE',  ( 55.99019513592784847, 4.000000000000000000, 7.500000000000000888 ) ) ;
#69 = CIRCLE ( 'NONE', #924, 52.50000000000000000 ) ;
#70 = EDGE_LOOP ( 'NONE', ( #538, #621, #448, #886, #671, #145 ) ) ;
#71 = EDGE_CURVE ( 'NONE', #871, #1017, #490, .T. ) ;
#72 = PLANE ( 'NONE',  #412 ) ;
#73 = AXIS2_PLACEMENT_3D ( 'NONE', #473, #785, #238 ) ;
#74 = DIRECTION ( 'NONE',  ( 0.000000000000000000, 1.000000000000000000, 0.000000000000000000 ) ) ;
#75 = VECTOR ( 'NONE', #689, 1000.000000000000000 ) ;
#76 = CARTESIAN_POINT ( 'NONE',  ( -3.469446951953614189E-15, 4.000000000000000000, -1.474514954580286030E-14 ) ) ;
#77 = ORIENTED_EDGE ( 'NONE', *, *, #556, .T. ) ;
#78 = CARTESIAN_POINT ( 'NONE',  ( -60.99019513592784136, 10.00000000000000000, 7.500000000000000888 ) ) ;
#79 = DIRECTION ( 'NONE',  ( -0.000000000000000000, -1.000000000000000000, -0.000000000000000000 ) ) ;
#80 = LINE ( 'NONE', #406, #373 ) ;
#81 = ORIENTED_EDGE ( 'NONE', *, *, #902, .F. ) ;
#82 = DATE_AND_TIME ( #800, #591 ) ;
#83 = DIRECTION ( 'NONE',  ( 0.000000000000000000, 1.000000000000000000, 0.000000000000000000 ) ) ;
#84 = CIRCLE ( 'NONE', #1019, 55.00000000000000000 ) ;
#85 = EDGE_CURVE ( 'NONE', #103, #355, #699, .T. ) ;
#86 = FACE_OUTER_BOUND ( 'NONE', #778, .T. ) ;
#87 = ORIENTED_EDGE ( 'NONE', *, *, #399, .F. ) ;
#88 = PERSON_AND_ORGANIZATION ( #649, #462 ) ;
#89 = LINE ( 'NONE', #818, #22 ) ;
#90 = CARTESIAN_POINT ( 'NONE',  ( -57.27545417499960934, 10.00000000000000000, -1.599999999999998090 ) ) ;
#91 = CIRCLE ( 'NONE', #502, 55.00000000000000000 ) ;
#92 = ORIENTED_EDGE ( 'NONE', *, *, #539, .T. ) ;
#93 = CARTESIAN_POINT ( 'NONE',  ( -53.56071321407137731, -5.000000000000000000, 12.50000000000000000 ) ) ;
#94 = CARTESIAN_POINT ( 'NONE',  ( 9.999999999999994671, -15.00000000000000000, -52.91502622129181077 ) ) ;
#95 = VERTEX_POINT ( 'NONE', #965 ) ;
#96 = APPROVAL ( #584, 'UNSPECIFIED' ) ;
#97 = ADVANCED_FACE ( 'NONE', ( #401 ), #248, .T. ) ;
#98 = PERSON_AND_ORGANIZATION ( #649, #462 ) ;
#99 = CARTESIAN_POINT ( 'NONE',  ( 53.56071321407137731, 10.00000000000000000, -12.50000000000000000 ) ) ;
#100 = VECTOR ( 'NONE', #906, 1000.000000000000000 ) ;
#101 = CARTESIAN_POINT ( 'NONE',  ( 53.56071321407137731, -5.000000000000000000, -12.50000000000000000 ) ) ;
#102 = VECTOR ( 'NONE', #123, 1000.000000000000000 ) ;
#103 = VERTEX_POINT ( 'NONE', #955 ) ;
#104 = PERSON_AND_ORGANIZATION_ROLE ( 'classification_officer' ) ;
#105 = EDGE_CURVE ( 'NONE', #204, #193, #1033, .T. ) ;
#106 = CYLINDRICAL_SURFACE ( 'NONE', #139, 1.599999999999998090 ) ;
#107 = LINE ( 'NONE', #427, #30 ) ;
#108 = CIRCLE ( 'NONE', #466, 52.50000000000000000 ) ;
#109 = EDGE_LOOP ( 'NONE', ( #87, #637, #315, #642 ) ) ;
#110 = VERTEX_POINT ( 'NONE', #148 ) ;
#111 = DIRECTION ( 'NONE',  ( 0.000000000000000000, 1.000000000000000000, 0.000000000000000000 ) ) ;
#112 = CARTESIAN_POINT ( 'NONE',  ( -55.99019513592784847, 4.000000000000000000, 12.50000000000000000 ) ) ;
#113 = ORIENTED_EDGE ( 'NONE', *, *, #1014, .F. ) ;
#114 = VERTEX_POINT ( 'NONE', #394 ) ;
#115 = DIRECTION ( 'NONE',  ( -0.000000000000000000, -1.000000000000000000, -0.000000000000000000 ) ) ;
#116 = DIRECTION ( 'NONE',  ( -1.000000000000000000, 0.000000000000000000, 9.912705577010328015E-17 ) ) ;
#117 = EDGE_CURVE ( 'NONE', #110, #745, #61, .T. ) ;
#118 = EDGE_CURVE ( 'NONE', #355, #831, #865, .T. ) ;
#119 = AXIS2_PLACEMENT_3D ( 'NONE', #3, #626, #561 ) ;
#120 = ORIENTED_EDGE ( 'NONE', *, *, #848, .T. ) ;
#121 = EDGE_LOOP ( 'NONE', ( #240, #733, #773, #324 ) ) ;
#122 = DIRECTION ( 'NONE',  ( 0.000000000000000000, 0.000000000000000000, 1.000000000000000000 ) ) ;
#123 = DIRECTION ( 'NONE',  ( -1.000000000000000000, 0.000000000000000000, 0.000000000000000000 ) ) ;
#124 = EDGE_LOOP ( 'NONE', ( #966, #524, #223, #547 ) ) ;
#125 = VERTEX_POINT ( 'NONE', #798 ) ;
#126 = MANIFOLD_SOLID_BREP ( 'Boss-Extrude7', #338 ) ;
#127 = DIRECTION ( 'NONE',  ( 0.000000000000000000, 0.000000000000000000, 1.000000000000000000 ) ) ;
#128 = CYLINDRICAL_SURFACE ( 'NONE', #288, 5.000000000000000000 ) ;
#129 = ORIENTED_EDGE ( 'NONE', *, *, #176, .F. ) ;
#130 = EDGE_CURVE ( 'NONE', #37, #1034, #474, .T. ) ;
#131 = LINE ( 'NONE', #680, #397 ) ;
#132 = CARTESIAN_POINT ( 'NONE',  ( 60.99019513592784136, 10.00000000000000000, 7.500000000000000888 ) ) ;
#133 = ORIENTED_EDGE ( 'NONE', *, *, #293, .F. ) ;
#134 = DIRECTION ( 'NONE',  ( 0.000000000000000000, -0.000000000000000000, 1.000000000000000000 ) ) ;
#135 = DIRECTION ( 'NONE',  ( 0.000000000000000000, 1.000000000000000000, -0.000000000000000000 ) ) ;
#136 = CIRCLE ( 'NONE', #857, 5.000000000000000000 ) ;
#137 = ORIENTED_EDGE ( 'NONE', *, *, #775, .T. ) ;
#138 = EDGE_CURVE ( 'NONE', #155, #200, #84, .T. ) ;
#139 = AXIS2_PLACEMENT_3D ( 'NONE', #261, #665, #982 ) ;
#140 = FACE_OUTER_BOUND ( 'NONE', #121, .T. ) ;
#141 = EDGE_CURVE ( 'NONE', #587, #95, #80, .T. ) ;
#142 = CARTESIAN_POINT ( 'NONE',  ( 0.000000000000000000, -5.000000000000000000, 0.000000000000000000 ) ) ;
#143 = EDGE_CURVE ( 'NONE', #224, #402, #267, .T. ) ;
#144 = DIRECTION ( 'NONE',  ( 0.000000000000000000, 1.000000000000000000, 0.000000000000000000 ) ) ;
#145 = ORIENTED_EDGE ( 'NONE', *, *, #181, .T. ) ;
#146 = FACE_OUTER_BOUND ( 'NONE', #783, .T. ) ;
#147 = DIRECTION ( 'NONE',  ( 0.000000000000000000, 0.000000000000000000, 1.000000000000000000 ) ) ;
#148 = CARTESIAN_POINT ( 'NONE',  ( 14.99999999999998401, -15.00000000000000000, -35.31152949374526884 ) ) ;
#149 = ORIENTED_EDGE ( 'NONE', *, *, #469, .F. ) ;
#150 = VECTOR ( 'NONE', #787, 1000.000000000000000 ) ;
#151 = LINE ( 'NONE', #1035, #940 ) ;
#152 = AXIS2_PLACEMENT_3D ( 'NONE', #863, #774, #226 ) ;
#153 = CARTESIAN_POINT ( 'NONE',  ( 60.99019513592784136, 10.00000000000000000, -7.500000000000000000 ) ) ;
#154 = CARTESIAN_POINT ( 'NONE',  ( 14.99999999999998401, -15.00000000000000000, -35.31152949374526884 ) ) ;
#155 = VERTEX_POINT ( 'NONE', #174 ) ;
#156 = DIRECTION ( 'NONE',  ( 0.000000000000000000, 0.000000000000000000, -1.000000000000000000 ) ) ;
#157 = CIRCLE ( 'NONE', #860, 52.50000000000000000 ) ;
#158 = DIRECTION ( 'NONE',  ( 0.000000000000000000, 0.000000000000000000, 1.000000000000000000 ) ) ;
#159 = DIRECTION ( 'NONE',  ( 0.000000000000000000, 0.000000000000000000, 1.000000000000000000 ) ) ;
#160 = ORIENTED_EDGE ( 'NONE', *, *, #453, .F. ) ;
#161 = COORDINATED_UNIVERSAL_TIME_OFFSET ( 7, 0, .AHEAD. ) ;
#162 = EDGE_CURVE ( 'NONE', #862, #110, #666, .T. ) ;
#163 = EDGE_CURVE ( 'NONE', #566, #505, #592, .T. ) ;
#164 = DIRECTION ( 'NONE',  ( 0.000000000000000000, 0.000000000000000000, 1.000000000000000000 ) ) ;
#165 = DIRECTION ( 'NONE',  ( 0.000000000000000000, 0.000000000000000000, -1.000000000000000000 ) ) ;
#166 = VERTEX_POINT ( 'NONE', #90 ) ;
#167 = VECTOR ( 'NONE', #713, 1000.000000000000000 ) ;
#168 = CARTESIAN_POINT ( 'NONE',  ( 14.99999999999998401, -5.000000000000000888, -35.31152949374526884 ) ) ;
#169 = CARTESIAN_POINT ( 'NONE',  ( 55.99019513592784847, 10.00000000000000000, 12.50000000000000000 ) ) ;
#170 = ORIENTED_EDGE ( 'NONE', *, *, #85, .T. ) ;
#171 = DESIGN_CONTEXT ( 'detailed design', #492, 'design' ) ;
#172 = PERSON_AND_ORGANIZATION ( #649, #462 ) ;
#173 = LINE ( 'NONE', #16, #347 ) ;
#174 = CARTESIAN_POINT ( 'NONE',  ( -53.56071321407137731, 10.00000000000000000, 12.50000000000000000 ) ) ;
#175 = VECTOR ( 'NONE', #115, 1000.000000000000000 ) ;
#176 = EDGE_CURVE ( 'NONE', #452, #728, #993, .T. ) ;
#177 = ORIENTED_EDGE ( 'NONE', *, *, #600, .F. ) ;
#178 = DIRECTION ( 'NONE',  ( 1.000000000000000000, 0.000000000000000000, 0.000000000000000000 ) ) ;
#179 = CYLINDRICAL_SURFACE ( 'NONE', #225, 55.00000000000000000 ) ;
#180 = CYLINDRICAL_SURFACE ( 'NONE', #853, 5.000000000000000000 ) ;
#181 = EDGE_CURVE ( 'NONE', #114, #125, #718, .T. ) ;
#182 = ORIENTED_EDGE ( 'NONE', *, *, #39, .F. ) ;
#183 = PERSON_AND_ORGANIZATION ( #649, #462 ) ;
#184 = FACE_OUTER_BOUND ( 'NONE', #381, .T. ) ;
#185 = DIRECTION ( 'NONE',  ( 0.000000000000000000, 0.000000000000000000, 1.000000000000000000 ) ) ;
#186 = ORIENTED_EDGE ( 'NONE', *, *, #775, .F. ) ;
#187 = APPROVAL_PERSON_ORGANIZATION ( #246, #763, #23 ) ;
#188 = AXIS2_PLACEMENT_3D ( 'NONE', #858, #312, #795 ) ;
#189 = ORIENTED_EDGE ( 'NONE', *, *, #600, .T. ) ;
#190 = CARTESIAN_POINT ( 'NONE',  ( 9.999999999999994671, -15.00000000000000000, -52.91502622129181077 ) ) ;
#191 = FACE_OUTER_BOUND ( 'NONE', #282, .T. ) ;
#192 = VECTOR ( 'NONE', #350, 1000.000000000000000 ) ;
#193 = VERTEX_POINT ( 'NONE', #341 ) ;
#194 = APPROVAL_DATE_TIME ( #82, #763 ) ;
#195 = VERTEX_POINT ( 'NONE', #895 ) ;
#196 = CARTESIAN_POINT ( 'NONE',  ( -57.27545417499960934, 4.000000000000000000, 0.000000000000000000 ) ) ;
#197 = ADVANCED_FACE ( 'NONE', ( #191 ), #180, .T. ) ;
#198 = EDGE_CURVE ( 'NONE', #263, #155, #972, .T. ) ;
#199 = DIRECTION ( 'NONE',  ( 1.000000000000000000, 0.000000000000000000, 0.000000000000000000 ) ) ;
#200 = VERTEX_POINT ( 'NONE', #276 ) ;
#201 = VERTEX_POINT ( 'NONE', #726 ) ;
#202 = CARTESIAN_POINT ( 'NONE',  ( 14.99999999999998401, -5.000000000000000000, -52.91502622129181077 ) ) ;
#203 = CARTESIAN_POINT ( 'NONE',  ( -57.27545417499960934, -4.999999999999999112, -1.599999999999998090 ) ) ;
#204 = VERTEX_POINT ( 'NONE', #112 ) ;
#205 = VECTOR ( 'NONE', #767, 1000.000000000000000 ) ;
#206 = UNCERTAINTY_MEASURE_WITH_UNIT (LENGTH_MEASURE( 1.000000000000000082E-05 ), #250, 'distance_accuracy_value', 'NONE');
#207 = ORIENTED_EDGE ( 'NONE', *, *, #770, .T. ) ;
#208 = DIRECTION ( 'NONE',  ( 0.000000000000000000, 0.000000000000000000, -1.000000000000000000 ) ) ;
#209 = DIRECTION ( 'NONE',  ( 0.000000000000000000, 0.000000000000000000, -1.000000000000000000 ) ) ;
#210 = ORIENTED_EDGE ( 'NONE', *, *, #709, .T. ) ;
#211 = AXIS2_PLACEMENT_3D ( 'NONE', #545, #74, #313 ) ;
#212 = CIRCLE ( 'NONE', #451, 1.599999999999998090 ) ;
#213 = DIRECTION ( 'NONE',  ( 0.000000000000000000, 0.000000000000000000, -1.000000000000000000 ) ) ;
#214 = CARTESIAN_POINT ( 'NONE',  ( 9.999999999999994671, 10.00000000000000000, -50.31152949374526884 ) ) ;
#215 = ORIENTED_EDGE ( 'NONE', *, *, #764, .T. ) ;
#216 = ADVANCED_FACE ( 'NONE', ( #983 ), #815, .F. ) ;
#217 = FACE_OUTER_BOUND ( 'NONE', #664, .T. ) ;
#218 = DIRECTION ( 'NONE',  ( -1.000000000000000000, -0.000000000000000000, -0.000000000000000000 ) ) ;
#219 = VERTEX_POINT ( 'NONE', #439 ) ;
#220 = AXIS2_PLACEMENT_3D ( 'NONE', #76, #144, #309 ) ;
#221 = DIRECTION ( 'NONE',  ( 0.000000000000000000, 1.000000000000000000, 0.000000000000000000 ) ) ;
#222 = LINE ( 'NONE', #988, #192 ) ;
#223 = ORIENTED_EDGE ( 'NONE', *, *, #510, .F. ) ;
#224 = VERTEX_POINT ( 'NONE', #169 ) ;
#225 = AXIS2_PLACEMENT_3D ( 'NONE', #894, #10, #419 ) ;
#226 = DIRECTION ( 'NONE',  ( 0.000000000000000000, 0.000000000000000000, 1.000000000000000000 ) ) ;
#227 = EDGE_CURVE ( 'NONE', #287, #768, #900, .T. ) ;
#228 = CARTESIAN_POINT ( 'NONE',  ( -15.00000000000000000, -4.999999999999999112, 1.836970198721029589E-15 ) ) ;
#229 = DIRECTION ( 'NONE',  ( 0.000000000000000000, 1.000000000000000000, 0.000000000000000000 ) ) ;
#230 = ORIENTED_EDGE ( 'NONE', *, *, #162, .F. ) ;
#231 = LINE ( 'NONE', #55, #480 ) ;
#232 = DIRECTION ( 'NONE',  ( 0.000000000000000000, 0.000000000000000000, 1.000000000000000000 ) ) ;
#233 = FACE_OUTER_BOUND ( 'NONE', #920, .T. ) ;
#234 = ORIENTED_EDGE ( 'NONE', *, *, #796, .F. ) ;
#235 = VECTOR ( 'NONE', #514, 1000.000000000000000 ) ;
#236 = DIRECTION ( 'NONE',  ( 0.000000000000000000, 1.000000000000000000, 0.000000000000000000 ) ) ;
#237 = AXIS2_PLACEMENT_3D ( 'NONE', #214, #1008, #116 ) ;
#238 = DIRECTION ( 'NONE',  ( 0.000000000000000000, -0.000000000000000000, 1.000000000000000000 ) ) ;
#239 = CARTESIAN_POINT ( 'NONE',  ( -15.00000000000000000, -5.000000000000000000, -50.31152949374526884 ) ) ;
#240 = ORIENTED_EDGE ( 'NONE', *, *, #331, .F. ) ;
#241 = EDGE_CURVE ( 'NONE', #862, #484, #253, .T. ) ;
#242 = CARTESIAN_POINT ( 'NONE',  ( -15.00000000000000000, 10.00000000000000000, 0.000000000000000000 ) ) ;
#243 = DIRECTION ( 'NONE',  ( -0.000000000000000000, -1.000000000000000000, -0.000000000000000000 ) ) ;
#244 = DIRECTION ( 'NONE',  ( -0.000000000000000000, -1.000000000000000000, -0.000000000000000000 ) ) ;
#245 = ORIENTED_EDGE ( 'NONE', *, *, #422, .F. ) ;
#246 = PERSON_AND_ORGANIZATION ( #649, #462 ) ;
#247 = DIRECTION ( 'NONE',  ( 0.000000000000000000, 1.000000000000000000, 0.000000000000000000 ) ) ;
#248 = PLANE ( 'NONE',  #803 ) ;
#249 = ORIENTED_EDGE ( 'NONE', *, *, #872, .T. ) ;
#250 =( LENGTH_UNIT ( ) NAMED_UNIT ( * ) SI_UNIT ( .MILLI., .METRE. ) );
#251 = VECTOR ( 'NONE', #870, 1000.000000000000000 ) ;
#252 = CARTESIAN_POINT ( 'NONE',  ( -15.00000000000000000, -4.999999999999999112, -52.91502622129181077 ) ) ;
#253 = LINE ( 'NONE', #420, #235 ) ;
#254 = VERTEX_POINT ( 'NONE', #351 ) ;
#255 = FACE_OUTER_BOUND ( 'NONE', #519, .T. ) ;
#256 = EDGE_CURVE ( 'NONE', #505, #847, #107, .T. ) ;
#257 = DIRECTION ( 'NONE',  ( 0.000000000000000000, 1.000000000000000000, 0.000000000000000000 ) ) ;
#258 = VECTOR ( 'NONE', #213, 1000.000000000000000 ) ;
#259 = ORIENTED_EDGE ( 'NONE', *, *, #71, .F. ) ;
#260 = DATE_AND_TIME ( #653, #33 ) ;
#261 = CARTESIAN_POINT ( 'NONE',  ( -57.27545417499960934, -4.999999999999999112, 0.000000000000000000 ) ) ;
#262 = DIRECTION ( 'NONE',  ( -0.000000000000000000, 1.000000000000000000, -0.000000000000000000 ) ) ;
#263 = VERTEX_POINT ( 'NONE', #810 ) ;
#264 = CARTESIAN_POINT ( 'NONE',  ( 0.000000000000000000, 0.000000000000000000, 0.000000000000000000 ) ) ;
#265 = ORIENTED_EDGE ( 'NONE', *, *, #447, .T. ) ;
#266 = FACE_OUTER_BOUND ( 'NONE', #986, .T. ) ;
#267 = CIRCLE ( 'NONE', #286, 5.000000000000000000 ) ;
#268 = DIRECTION ( 'NONE',  ( 0.000000000000000000, 0.000000000000000000, 1.000000000000000000 ) ) ;
#269 = ORIENTED_EDGE ( 'NONE', *, *, #85, .F. ) ;
#270 = CC_DESIGN_APPROVAL ( #96, ( #476 ) ) ;
#271 = ADVANCED_FACE ( 'NONE', ( #732 ), #417, .F. ) ;
#272 = ADVANCED_FACE ( 'NONE', ( #11 ), #7, .F. ) ;
#273 = AXIS2_PLACEMENT_3D ( 'NONE', #59, #697, #307 ) ;
#274 = VERTEX_POINT ( 'NONE', #508 ) ;
#275 = CARTESIAN_POINT ( 'NONE',  ( 0.000000000000000000, -5.000000000000000000, 0.000000000000000000 ) ) ;
#276 = CARTESIAN_POINT ( 'NONE',  ( 0.000000000000000000, 10.00000000000000000, 55.00000000000000000 ) ) ;
#277 = VECTOR ( 'NONE', #725, 1000.000000000000000 ) ;
#278 = EDGE_LOOP ( 'NONE', ( #210, #628, #1029, #827, #63, #499 ) ) ;
#279 = ORIENTED_EDGE ( 'NONE', *, *, #176, .T. ) ;
#280 = DIRECTION ( 'NONE',  ( 0.000000000000000000, 1.000000000000000000, 0.000000000000000000 ) ) ;
#281 = DIRECTION ( 'NONE',  ( 0.000000000000000000, 0.000000000000000000, 1.000000000000000000 ) ) ;
#282 = EDGE_LOOP ( 'NONE', ( #667, #365, #974, #757 ) ) ;
#283 = ORIENTED_EDGE ( 'NONE', *, *, #749, .F. ) ;
#284 = DIRECTION ( 'NONE',  ( -1.000000000000000000, 0.000000000000000000, 0.000000000000000000 ) ) ;
#285 = DIRECTION ( 'NONE',  ( 0.000000000000000000, 0.000000000000000000, 1.000000000000000000 ) ) ;
#286 = AXIS2_PLACEMENT_3D ( 'NONE', #1037, #504, #819 ) ;
#287 = VERTEX_POINT ( 'NONE', #737 ) ;
#288 = AXIS2_PLACEMENT_3D ( 'NONE', #1003, #532, #285 ) ;
#289 =( GEOMETRIC_REPRESENTATION_CONTEXT ( 3 ) GLOBAL_UNCERTAINTY_ASSIGNED_CONTEXT ( ( #206 ) ) GLOBAL_UNIT_ASSIGNED_CONTEXT ( ( #250, #349, #813 ) ) REPRESENTATION_CONTEXT ( 'NONE', 'WORKASPACE' ) );
#290 = CARTESIAN_POINT ( 'NONE',  ( -60.99019513592784136, 4.000000000000000000, -12.50000000000000000 ) ) ;
#291 = AXIS2_PLACEMENT_3D ( 'NONE', #386, #236, #463 ) ;
#292 = LINE ( 'NONE', #834, #205 ) ;
#293 = EDGE_CURVE ( 'NONE', #200, #201, #751, .T. ) ;
#294 = ORIENTED_EDGE ( 'NONE', *, *, #841, .F. ) ;
#295 = VECTOR ( 'NONE', #280, 1000.000000000000000 ) ;
#296 = LINE ( 'NONE', #992, #533 ) ;
#297 = PLANE ( 'NONE',  #607 ) ;
#298 = EDGE_LOOP ( 'NONE', ( #496, #762, #908, #593 ) ) ;
#299 = ADVANCED_FACE ( 'NONE', ( #825 ), #433, .F. ) ;
#300 = CARTESIAN_POINT ( 'NONE',  ( 57.27545417499960934, 10.00000000000000000, 1.599999999999998090 ) ) ;
#301 = CARTESIAN_POINT ( 'NONE',  ( 57.27545417499960934, -4.999999999999999112, 0.000000000000000000 ) ) ;
#302 = VERTEX_POINT ( 'NONE', #611 ) ;
#303 = AXIS2_PLACEMENT_3D ( 'NONE', #617, #722, #960 ) ;
#304 = ORIENTED_EDGE ( 'NONE', *, *, #673, .T. ) ;
#305 = EDGE_CURVE ( 'NONE', #193, #871, #391, .T. ) ;
#306 = ADVANCED_FACE ( 'NONE', ( #372 ), #128, .T. ) ;
#307 = DIRECTION ( 'NONE',  ( 0.000000000000000000, 0.000000000000000000, 1.000000000000000000 ) ) ;
#308 = CYLINDRICAL_SURFACE ( 'NONE', #326, 1.599999999999998090 ) ;
#309 = DIRECTION ( 'NONE',  ( 0.000000000000000000, -0.000000000000000000, 1.000000000000000000 ) ) ;
#310 = EDGE_LOOP ( 'NONE', ( #543, #294, #891, #230, #851 ) ) ;
#311 = VECTOR ( 'NONE', #610, 1000.000000000000000 ) ;
#312 = DIRECTION ( 'NONE',  ( 0.000000000000000000, -1.000000000000000000, 0.000000000000000000 ) ) ;
#313 = DIRECTION ( 'NONE',  ( 0.000000000000000000, 0.000000000000000000, 1.000000000000000000 ) ) ;
#314 = CARTESIAN_POINT ( 'NONE',  ( 57.27545417499960934, -4.999999999999999112, -1.599999999999998090 ) ) ;
#315 = ORIENTED_EDGE ( 'NONE', *, *, #913, .F. ) ;
#316 = CARTESIAN_POINT ( 'NONE',  ( -57.27545417499960934, 10.00000000000000000, 1.599999999999998090 ) ) ;
#317 = DIRECTION ( 'NONE',  ( -0.000000000000000000, -1.000000000000000000, 0.000000000000000000 ) ) ;
#318 = EDGE_CURVE ( 'NONE', #956, #622, #292, .T. ) ;
#319 = DIRECTION ( 'NONE',  ( 1.000000000000000000, -0.000000000000000000, 0.000000000000000000 ) ) ;
#320 = ORIENTED_EDGE ( 'NONE', *, *, #510, .T. ) ;
#321 = FACE_BOUND ( 'NONE', #465, .T. ) ;
#322 = FACE_OUTER_BOUND ( 'NONE', #441, .T. ) ;
#323 = DIRECTION ( 'NONE',  ( 0.000000000000000000, 0.000000000000000000, 1.000000000000000000 ) ) ;
#324 = ORIENTED_EDGE ( 'NONE', *, *, #729, .T. ) ;
#325 = PERSON_AND_ORGANIZATION ( #649, #462 ) ;
#326 = AXIS2_PLACEMENT_3D ( 'NONE', #301, #640, #147 ) ;
#327 = CARTESIAN_POINT ( 'NONE',  ( -60.99019513592784136, 4.000000000000000000, 12.50000000000000000 ) ) ;
#328 = DIRECTION ( 'NONE',  ( -1.000000000000000000, -0.000000000000000000, -0.000000000000000000 ) ) ;
#329 = EDGE_CURVE ( 'NONE', #287, #110, #916, .T. ) ;
#330 = VERTEX_POINT ( 'NONE', #597 ) ;
#331 = EDGE_CURVE ( 'NONE', #530, #166, #929, .T. ) ;
#332 = SECURITY_CLASSIFICATION_LEVEL ( 'unclassified' ) ;
#333 = LINE ( 'NONE', #513, #4 ) ;
#334 = CARTESIAN_POINT ( 'NONE',  ( 0.000000000000000000, -5.000000000000000000, 0.000000000000000000 ) ) ;
#335 = PRODUCT_DEFINITION_SHAPE ( 'NONE', 'NONE',  #476 ) ;
#336 = ORIENTED_EDGE ( 'NONE', *, *, #672, .T. ) ;
#337 = APPLICATION_PROTOCOL_DEFINITION ( 'international standard', 'config_control_design', 1994, #492 ) ;
#338 = CLOSED_SHELL ( 'NONE', ( #630, #535, #550, #678, #299, #567, #985, #479, #842, #352, #829, #882, #727, #1031, #51, #703, #923, #62, #272, #950, #975, #50, #197, #306, #271, #97, #528, #216, #984, #344 ) ) ;
#339 = DIRECTION ( 'NONE',  ( 0.000000000000000000, -1.000000000000000000, 0.000000000000000000 ) ) ;
#340 = VECTOR ( 'NONE', #44, 1000.000000000000000 ) ;
#341 = CARTESIAN_POINT ( 'NONE',  ( -53.56071321407137731, 4.000000000000000888, 12.50000000000000000 ) ) ;
#342 = ORIENTED_EDGE ( 'NONE', *, *, #378, .T. ) ;
#343 = APPLICATION_PROTOCOL_DEFINITION ( 'international standard', 'config_control_design', 1994, #436 ) ;
#344 = ADVANCED_FACE ( 'NONE', ( #379 ), #297, .T. ) ;
#345 = CARTESIAN_POINT ( 'NONE',  ( 0.000000000000000000, -5.000000000000000000, 52.50000000000000000 ) ) ;
#346 = CARTESIAN_POINT ( 'NONE',  ( 9.999999999999994671, 10.00000000000000000, -52.91502622129181077 ) ) ;
#347 = VECTOR ( 'NONE', #503, 1000.000000000000000 ) ;
#348 = ORIENTED_EDGE ( 'NONE', *, *, #18, .T. ) ;
#349 =( NAMED_UNIT ( * ) PLANE_ANGLE_UNIT ( ) SI_UNIT ( $, .RADIAN. ) );
#350 = DIRECTION ( 'NONE',  ( -0.000000000000000000, -0.000000000000000000, 1.000000000000000000 ) ) ;
#351 = CARTESIAN_POINT ( 'NONE',  ( 55.99019513592784847, 4.000000000000000000, 12.50000000000000000 ) ) ;
#352 = ADVANCED_FACE ( 'NONE', ( #52 ), #537, .T. ) ;
#353 = EDGE_LOOP ( 'NONE', ( #658, #755, #182, #529 ) ) ;
#354 = ADVANCED_BREP_SHAPE_REPRESENTATION ( 'circle2_outer', ( #126, #938 ), #289 ) ;
#355 = VERTEX_POINT ( 'NONE', #601 ) ;
#356 = CARTESIAN_POINT ( 'NONE',  ( 14.99999999999998401, -15.00000000000000000, -52.91502622129181077 ) ) ;
#357 = VECTOR ( 'NONE', #518, 1000.000000000000000 ) ;
#358 = DIRECTION ( 'NONE',  ( 0.000000000000000000, 1.000000000000000000, 0.000000000000000000 ) ) ;
#359 = ORIENTED_EDGE ( 'NONE', *, *, #884, .T. ) ;
#360 = LOCAL_TIME ( 3, 32, 10.00000000000000000, #806 ) ;
#361 = ORIENTED_EDGE ( 'NONE', *, *, #422, .T. ) ;
#362 = CARTESIAN_POINT ( 'NONE',  ( 14.99999999999999467, -5.000000000000000000, -52.91502622129181077 ) ) ;
#363 = CARTESIAN_POINT ( 'NONE',  ( 9.999999999999992895, -5.000000000000000888, -35.31152949374526884 ) ) ;
#364 = AXIS2_PLACEMENT_3D ( 'NONE', #327, #662, #644 ) ;
#365 = ORIENTED_EDGE ( 'NONE', *, *, #511, .F. ) ;
#366 = EDGE_CURVE ( 'NONE', #201, #224, #922, .T. ) ;
#367 = CARTESIAN_POINT ( 'NONE',  ( 0.000000000000000000, 10.00000000000000000, 0.000000000000000000 ) ) ;
#368 = DIRECTION ( 'NONE',  ( 0.000000000000000000, 1.000000000000000000, 0.000000000000000000 ) ) ;
#369 = EDGE_LOOP ( 'NONE', ( #215, #265, #904, #491, #558, #911, #562, #149, #701, #856, #440, #930, #27, #820, #207, #1000, #45, #428, #694, #413 ) ) ;
#370 = CARTESIAN_POINT ( 'NONE',  ( 57.27545417499960934, 10.00000000000000000, -1.599999999999998090 ) ) ;
#371 = EDGE_CURVE ( 'NONE', #37, #530, #1006, .T. ) ;
#372 = FACE_OUTER_BOUND ( 'NONE', #31, .T. ) ;
#373 = VECTOR ( 'NONE', #717, 1000.000000000000000 ) ;
#374 = ORIENTED_EDGE ( 'NONE', *, *, #928, .T. ) ;
#375 = SECURITY_CLASSIFICATION ( '', '', #332 ) ;
#376 = CARTESIAN_POINT ( 'NONE',  ( 60.99019513592784136, 4.000000000000000000, -7.500000000000000000 ) ) ;
#377 = VECTOR ( 'NONE', #704, 1000.000000000000000 ) ;
#378 = EDGE_CURVE ( 'NONE', #622, #53, #66, .T. ) ;
#379 = FACE_OUTER_BOUND ( 'NONE', #811, .T. ) ;
#380 = CC_DESIGN_DATE_AND_TIME_ASSIGNMENT ( #260, #898, ( #476 ) ) ;
#381 = EDGE_LOOP ( 'NONE', ( #1013, #840, #189, #866 ) ) ;
#382 = DIRECTION ( 'NONE',  ( 0.000000000000000000, 0.000000000000000000, 1.000000000000000000 ) ) ;
#383 = DIRECTION ( 'NONE',  ( 1.000000000000000000, 0.000000000000000000, 0.000000000000000000 ) ) ;
#384 = ORIENTED_EDGE ( 'NONE', *, *, #198, .F. ) ;
#385 = EDGE_CURVE ( 'NONE', #219, #738, #839, .T. ) ;
#386 = CARTESIAN_POINT ( 'NONE',  ( 57.27545417499960934, 10.00000000000000000, 0.000000000000000000 ) ) ;
#387 = DIRECTION ( 'NONE',  ( 2.664535259100375697E-15, 0.000000000000000000, 1.000000000000000000 ) ) ;
#388 = CYLINDRICAL_SURFACE ( 'NONE', #1005, 5.000000000000000000 ) ;
#389 = VECTOR ( 'NONE', #747, 1000.000000000000000 ) ;
#390 = ORIENTED_EDGE ( 'NONE', *, *, #848, .F. ) ;
#391 = CIRCLE ( 'NONE', #734, 55.00000000000000000 ) ;
#392 = DIRECTION ( 'NONE',  ( 0.000000000000000000, 1.000000000000000000, 0.000000000000000000 ) ) ;
#393 = DIRECTION ( 'NONE',  ( 0.000000000000000000, 1.000000000000000000, 0.000000000000000000 ) ) ;
#394 = CARTESIAN_POINT ( 'NONE',  ( 0.000000000000000000, -5.000000000000000000, 52.50000000000000000 ) ) ;
#395 = ORIENTED_EDGE ( 'NONE', *, *, #782, .T. ) ;
#396 = AXIS2_PLACEMENT_3D ( 'NONE', #493, #954, #1036 ) ;
#397 = VECTOR ( 'NONE', #458, 1000.000000000000000 ) ;
#398 = CARTESIAN_POINT ( 'NONE',  ( -3.469446951953614189E-15, 4.000000000000000000, -1.474514954580286030E-14 ) ) ;
#399 = EDGE_CURVE ( 'NONE', #125, #738, #47, .T. ) ;
#400 = CARTESIAN_POINT ( 'NONE',  ( -53.56071321407137731, -5.000000000000000000, -12.50000000000000000 ) ) ;
#401 = FACE_OUTER_BOUND ( 'NONE', #278, .T. ) ;
#402 = VERTEX_POINT ( 'NONE', #132 ) ;
#403 = CARTESIAN_POINT ( 'NONE',  ( -55.99019513592784847, 4.000000000000000000, -12.50000000000000000 ) ) ;
#404 = EDGE_CURVE ( 'NONE', #609, #330, #932, .T. ) ;
#405 = CARTESIAN_POINT ( 'NONE',  ( 9.999999999999994671, 10.00000000000000000, -52.91502622129181077 ) ) ;
#406 = CARTESIAN_POINT ( 'NONE',  ( 55.99019513592784847, 4.000000000000000000, -12.50000000000000000 ) ) ;
#407 = ORIENTED_EDGE ( 'NONE', *, *, #431, .T. ) ;
#408 = APPROVAL_DATE_TIME ( #429, #96 ) ;
#409 = CC_DESIGN_APPROVAL ( #459, ( #805 ) ) ;
#410 = CARTESIAN_POINT ( 'NONE',  ( -57.27545417499960934, 10.00000000000000000, 0.000000000000000000 ) ) ;
#411 = PLANE ( 'NONE',  #220 ) ;
#412 = AXIS2_PLACEMENT_3D ( 'NONE', #398, #710, #1030 ) ;
#413 = ORIENTED_EDGE ( 'NONE', *, *, #143, .T. ) ;
#414 = PERSON_AND_ORGANIZATION_ROLE ( 'design_owner' ) ;
#415 = VECTOR ( 'NONE', #111, 1000.000000000000000 ) ;
#416 = DIRECTION ( 'NONE',  ( 0.000000000000000000, 0.000000000000000000, -1.000000000000000000 ) ) ;
#417 = PLANE ( 'NONE',  #620 ) ;
#418 = ORIENTED_EDGE ( 'NONE', *, *, #447, .F. ) ;
#419 = DIRECTION ( 'NONE',  ( 0.000000000000000000, 0.000000000000000000, 1.000000000000000000 ) ) ;
#420 = CARTESIAN_POINT ( 'NONE',  ( 14.99999999999998401, -15.00000000000000000, -52.91502622129181077 ) ) ;
#421 = ORIENTED_EDGE ( 'NONE', *, *, #40, .F. ) ;
#422 = EDGE_CURVE ( 'NONE', #274, #254, #854, .T. ) ;
#423 = COORDINATED_UNIVERSAL_TIME_OFFSET ( 7, 0, .AHEAD. ) ;
#424 = VECTOR ( 'NONE', #268, 1000.000000000000000 ) ;
#425 = LINE ( 'NONE', #190, #812 ) ;
#426 = AXIS2_PLACEMENT_3D ( 'NONE', #56, #383, #209 ) ;
#427 = CARTESIAN_POINT ( 'NONE',  ( 9.999999999999994671, 10.00000000000000000, -52.91502622129181077 ) ) ;
#428 = ORIENTED_EDGE ( 'NONE', *, *, #293, .T. ) ;
#429 = DATE_AND_TIME ( #659, #720 ) ;
#430 = CARTESIAN_POINT ( 'NONE',  ( 0.000000000000000000, -5.000000000000000000, 55.00000000000000000 ) ) ;
#431 = EDGE_CURVE ( 'NONE', #302, #990, #450, .T. ) ;
#432 = CIRCLE ( 'NONE', #961, 5.000000000000000000 ) ;
#433 = PLANE ( 'NONE',  #237 ) ;
#434 = CIRCLE ( 'NONE', #661, 55.00000000000000000 ) ;
#435 = ORIENTED_EDGE ( 'NONE', *, *, #40, .T. ) ;
#436 = APPLICATION_CONTEXT ( 'configuration controlled 3d designs of mechanical parts and assemblies' ) ;
#437 = ORIENTED_EDGE ( 'NONE', *, *, #643, .T. ) ;
#438 = DIRECTION ( 'NONE',  ( 0.000000000000000000, 1.000000000000000000, 0.000000000000000000 ) ) ;
#439 = CARTESIAN_POINT ( 'NONE',  ( 9.999999999999992895, -5.000000000000000888, -35.31152949374526884 ) ) ;
#440 = ORIENTED_EDGE ( 'NONE', *, *, #756, .T. ) ;
#441 = EDGE_LOOP ( 'NONE', ( #679, #26, #837, #979 ) ) ;
#442 = LINE ( 'NONE', #362, #295 ) ;
#443 = VECTOR ( 'NONE', #244, 1000.000000000000000 ) ;
#444 = DIRECTION ( 'NONE',  ( 0.000000000000000000, -0.000000000000000000, 1.000000000000000000 ) ) ;
#445 = EDGE_CURVE ( 'NONE', #125, #515, #761, .T. ) ;
#446 = ORIENTED_EDGE ( 'NONE', *, *, #18, .F. ) ;
#447 = EDGE_CURVE ( 'NONE', #570, #587, #32, .T. ) ;
#448 = ORIENTED_EDGE ( 'NONE', *, *, #378, .F. ) ;
#449 = CARTESIAN_POINT ( 'NONE',  ( 50.99019513592784136, 10.00000000000000000, -12.50000000000000000 ) ) ;
#450 = LINE ( 'NONE', #676, #12 ) ;
#451 = AXIS2_PLACEMENT_3D ( 'NONE', #196, #49, #525 ) ;
#452 = VERTEX_POINT ( 'NONE', #780 ) ;
#453 = EDGE_CURVE ( 'NONE', #330, #1038, #995, .T. ) ;
#454 = ORIENTED_EDGE ( 'NONE', *, *, #366, .F. ) ;
#455 = DIRECTION ( 'NONE',  ( -0.000000000000000000, -1.000000000000000000, -0.000000000000000000 ) ) ;
#456 = CARTESIAN_POINT ( 'NONE',  ( 0.000000000000000000, 0.000000000000000000, -35.31152949374526884 ) ) ;
#457 = ORIENTED_EDGE ( 'NONE', *, *, #371, .T. ) ;
#458 = DIRECTION ( 'NONE',  ( -0.000000000000000000, -1.000000000000000000, -0.000000000000000000 ) ) ;
#459 = APPROVAL ( #512, 'UNSPECIFIED' ) ;
#460 = DIRECTION ( 'NONE',  ( -0.000000000000000000, -1.000000000000000000, -0.000000000000000000 ) ) ;
#461 = ORIENTED_EDGE ( 'NONE', *, *, #143, .F. ) ;
#462 = ORGANIZATION ( 'UNSPECIFIED', 'UNSPECIFIED', '' ) ;
#463 = DIRECTION ( 'NONE',  ( 0.000000000000000000, 0.000000000000000000, 1.000000000000000000 ) ) ;
#464 = CARTESIAN_POINT ( 'NONE',  ( 14.99999999999999467, -5.000000000000000000, -50.31152949374526884 ) ) ;
#465 = EDGE_LOOP ( 'NONE', ( #457, #719 ) ) ;
#466 = AXIS2_PLACEMENT_3D ( 'NONE', #801, #83, #948 ) ;
#467 = LINE ( 'NONE', #779, #377 ) ;
#468 = LINE ( 'NONE', #705, #20 ) ;
#469 = EDGE_CURVE ( 'NONE', #1018, #515, #108, .T. ) ;
#470 = CARTESIAN_POINT ( 'NONE',  ( 9.999999999999994671, 0.000000000000000000, 4.956352788505164254E-16 ) ) ;
#471 = EDGE_LOOP ( 'NONE', ( #81, #348, #668, #120, #245, #577 ) ) ;
#472 = CYLINDRICAL_SURFACE ( 'NONE', #1009, 5.000000000000000000 ) ;
#473 = CARTESIAN_POINT ( 'NONE',  ( 0.000000000000000000, -5.000000000000000000, 0.000000000000000000 ) ) ;
#474 = LINE ( 'NONE', #636, #150 ) ;
#475 = AXIS2_PLACEMENT_3D ( 'NONE', #645, #229, #323 ) ;
#476 = PRODUCT_DEFINITION ( 'UNKNOWN', '', #805, #171 ) ;
#477 = ORIENTED_EDGE ( 'NONE', *, *, #486, .T. ) ;
#478 = VECTOR ( 'NONE', #910, 1000.000000000000000 ) ;
#479 = ADVANCED_FACE ( 'NONE', ( #859 ), #712, .F. ) ;
#480 = VECTOR ( 'NONE', #692, 1000.000000000000000 ) ;
#481 = DIRECTION ( 'NONE',  ( -0.000000000000000000, 1.000000000000000000, -0.000000000000000000 ) ) ;
#482 = DIRECTION ( 'NONE',  ( 0.000000000000000000, 1.000000000000000000, 0.000000000000000000 ) ) ;
#483 = DIRECTION ( 'NONE',  ( -1.000000000000000000, 0.000000000000000000, 0.000000000000000000 ) ) ;
#484 = VERTEX_POINT ( 'NONE', #797 ) ;
#485 = VECTOR ( 'NONE', #1032, 1000.000000000000000 ) ;
#486 = EDGE_CURVE ( 'NONE', #609, #871, #625, .T. ) ;
#487 = VECTOR ( 'NONE', #416, 1000.000000000000000 ) ;
#488 = DIRECTION ( 'NONE',  ( 0.000000000000000000, 1.000000000000000000, 0.000000000000000000 ) ) ;
#489 = CARTESIAN_POINT ( 'NONE',  ( 9.999999999999994671, 10.00000000000000000, -50.31152949374526884 ) ) ;
#490 = LINE ( 'NONE', #945, #934 ) ;
#491 = ORIENTED_EDGE ( 'NONE', *, *, #64, .T. ) ;
#492 = APPLICATION_CONTEXT ( 'configuration controlled 3d designs of mechanical parts and assemblies' ) ;
#493 = CARTESIAN_POINT ( 'NONE',  ( 14.99999999999998401, -15.00000000000000000, -52.91502622129181077 ) ) ;
#494 = CC_DESIGN_PERSON_AND_ORGANIZATION_ASSIGNMENT ( #730, #647, ( #476 ) ) ;
#495 = LINE ( 'NONE', #239, #443 ) ;
#496 = ORIENTED_EDGE ( 'NONE', *, *, #227, .T. ) ;
#497 = FACE_OUTER_BOUND ( 'NONE', #723, .T. ) ;
#498 = DIRECTION ( 'NONE',  ( 1.000000000000000000, -0.000000000000000000, -9.912705577010328015E-17 ) ) ;
#499 = ORIENTED_EDGE ( 'NONE', *, *, #163, .T. ) ;
#500 = PRODUCT ( 'circle2_outer', 'circle2_outer', '', ( #9 ) ) ;
#501 = AXIS2_PLACEMENT_3D ( 'NONE', #999, #368, #281 ) ;
#502 = AXIS2_PLACEMENT_3D ( 'NONE', #275, #46, #127 ) ;
#503 = DIRECTION ( 'NONE',  ( -0.000000000000000000, 1.000000000000000000, -0.000000000000000000 ) ) ;
#504 = DIRECTION ( 'NONE',  ( 0.000000000000000000, 1.000000000000000000, 0.000000000000000000 ) ) ;
#505 = VERTEX_POINT ( 'NONE', #405 ) ;
#506 = PERSON_AND_ORGANIZATION ( #649, #462 ) ;
#507 = DIRECTION ( 'NONE',  ( 1.000000000000000000, 0.000000000000000000, 0.000000000000000000 ) ) ;
#508 = CARTESIAN_POINT ( 'NONE',  ( 53.56071321407137731, 4.000000000000000888, 12.50000000000000000 ) ) ;
#509 = ORIENTED_EDGE ( 'NONE', *, *, #764, .F. ) ;
#510 = EDGE_CURVE ( 'NONE', #745, #219, #1026, .T. ) ;
#511 = EDGE_CURVE ( 'NONE', #263, #204, #468, .T. ) ;
#512 = APPROVAL_STATUS ( 'not_yet_approved' ) ;
#513 = CARTESIAN_POINT ( 'NONE',  ( 53.56071321407137731, -5.000000000000000000, 12.50000000000000000 ) ) ;
#514 = DIRECTION ( 'NONE',  ( -0.000000000000000000, 1.000000000000000000, -0.000000000000000000 ) ) ;
#515 = VERTEX_POINT ( 'NONE', #716 ) ;
#516 = CARTESIAN_POINT ( 'NONE',  ( -53.56071321407137731, 10.00000000000000000, -12.50000000000000000 ) ) ;
#517 = CIRCLE ( 'NONE', #54, 1.599999999999998090 ) ;
#518 = DIRECTION ( 'NONE',  ( 0.000000000000000000, 1.000000000000000000, 0.000000000000000000 ) ) ;
#519 = EDGE_LOOP ( 'NONE', ( #384, #877, #13, #304 ) ) ;
#520 = ORIENTED_EDGE ( 'NONE', *, *, #685, .T. ) ;
#521 = DIRECTION ( 'NONE',  ( -0.000000000000000000, -1.000000000000000000, -0.000000000000000000 ) ) ;
#522 = DIRECTION ( 'NONE',  ( 0.000000000000000000, 1.000000000000000000, 0.000000000000000000 ) ) ;
#523 = EDGE_LOOP ( 'NONE', ( #234, #646, #1010, #279 ) ) ;
#524 = ORIENTED_EDGE ( 'NONE', *, *, #385, .F. ) ;
#525 = DIRECTION ( 'NONE',  ( 0.000000000000000000, 0.000000000000000000, 1.000000000000000000 ) ) ;
#526 = AXIS2_PLACEMENT_3D ( 'NONE', #36, #693, #846 ) ;
#527 = DIRECTION ( 'NONE',  ( 0.000000000000000000, 0.000000000000000000, 1.000000000000000000 ) ) ;
#528 = ADVANCED_FACE ( 'NONE', ( #635 ), #631, .F. ) ;
#529 = ORIENTED_EDGE ( 'NONE', *, *, #582, .T. ) ;
#530 = VERTEX_POINT ( 'NONE', #564 ) ;
#531 = CARTESIAN_POINT ( 'NONE',  ( 0.000000000000000000, 10.00000000000000000, 0.000000000000000000 ) ) ;
#532 = DIRECTION ( 'NONE',  ( 0.000000000000000000, 1.000000000000000000, 0.000000000000000000 ) ) ;
#533 = VECTOR ( 'NONE', #521, 1000.000000000000000 ) ;
#534 = ORIENTED_EDGE ( 'NONE', *, *, #673, .F. ) ;
#535 = ADVANCED_FACE ( 'NONE', ( #721 ), #308, .F. ) ;
#536 = CARTESIAN_POINT ( 'NONE',  ( 9.999999999999994671, -15.00000000000000000, -52.91502622129181077 ) ) ;
#537 = PLANE ( 'NONE',  #426 ) ;
#538 = ORIENTED_EDGE ( 'NONE', *, *, #896, .F. ) ;
#539 = EDGE_CURVE ( 'NONE', #452, #274, #978, .T. ) ;
#540 = PLANE ( 'NONE',  #579 ) ;
#541 = CARTESIAN_POINT ( 'NONE',  ( 0.000000000000000000, -5.000000000000000000, 0.000000000000000000 ) ) ;
#542 = VECTOR ( 'NONE', #670, 1000.000000000000000 ) ;
#543 = ORIENTED_EDGE ( 'NONE', *, *, #896, .T. ) ;
#544 = PLANE ( 'NONE',  #188 ) ;
#545 = CARTESIAN_POINT ( 'NONE',  ( -55.99019513592784847, 10.00000000000000000, -7.500000000000000888 ) ) ;
#546 = ORIENTED_EDGE ( 'NONE', *, *, #968, .F. ) ;
#547 = ORIENTED_EDGE ( 'NONE', *, *, #841, .T. ) ;
#548 = FACE_OUTER_BOUND ( 'NONE', #523, .T. ) ;
#549 = DIRECTION ( 'NONE',  ( 0.000000000000000000, 0.000000000000000000, -1.000000000000000000 ) ) ;
#550 = ADVANCED_FACE ( 'NONE', ( #322 ), #791, .F. ) ;
#551 = DIRECTION ( 'NONE',  ( 0.000000000000000000, 0.000000000000000000, 1.000000000000000000 ) ) ;
#552 = ORIENTED_EDGE ( 'NONE', *, *, #729, .F. ) ;
#553 = FACE_OUTER_BOUND ( 'NONE', #124, .T. ) ;
#554 = FACE_OUTER_BOUND ( 'NONE', #70, .T. ) ;
#555 = CARTESIAN_POINT ( 'NONE',  ( 60.99019513592784136, 4.000000000000000000, 12.50000000000000000 ) ) ;
#556 = EDGE_CURVE ( 'NONE', #691, #622, #943, .T. ) ;
#557 = AXIS2_PLACEMENT_3D ( 'NONE', #781, #565, #569 ) ;
#558 = ORIENTED_EDGE ( 'NONE', *, *, #256, .F. ) ;
#559 = CARTESIAN_POINT ( 'NONE',  ( 50.99019513592784136, 4.000000000000000000, -12.50000000000000000 ) ) ;
#560 = CARTESIAN_POINT ( 'NONE',  ( 55.99019513592784847, 10.00000000000000000, -12.50000000000000000 ) ) ;
#561 = DIRECTION ( 'NONE',  ( 0.000000000000000000, 0.000000000000000000, 1.000000000000000000 ) ) ;
#562 = ORIENTED_EDGE ( 'NONE', *, *, #913, .T. ) ;
#563 = CARTESIAN_POINT ( 'NONE',  ( 0.000000000000000000, -5.000000000000000000, 0.000000000000000000 ) ) ;
#564 = CARTESIAN_POINT ( 'NONE',  ( -57.27545417499960934, 4.000000000000000000, -1.599999999999998090 ) ) ;
#565 = DIRECTION ( 'NONE',  ( 0.000000000000000000, 1.000000000000000000, 0.000000000000000000 ) ) ;
#566 = VERTEX_POINT ( 'NONE', #489 ) ;
#567 = ADVANCED_FACE ( 'NONE', ( #554 ), #868, .F. ) ;
#568 = DIRECTION ( 'NONE',  ( 0.000000000000000000, 1.000000000000000000, 0.000000000000000000 ) ) ;
#569 = DIRECTION ( 'NONE',  ( 0.000000000000000000, 0.000000000000000000, 1.000000000000000000 ) ) ;
#570 = VERTEX_POINT ( 'NONE', #153 ) ;
#571 = CIRCLE ( 'NONE', #303, 5.000000000000000000 ) ;
#572 = VECTOR ( 'NONE', #608, 1000.000000000000000 ) ;
#573 = CARTESIAN_POINT ( 'NONE',  ( -60.99019513592784136, 10.00000000000000000, -7.500000000000000000 ) ) ;
#574 = CARTESIAN_POINT ( 'NONE',  ( -60.99019513592784136, 4.000000000000000000, 12.50000000000000000 ) ) ;
#575 = DIRECTION ( 'NONE',  ( 0.000000000000000000, 0.000000000000000000, 1.000000000000000000 ) ) ;
#576 = AXIS2_PLACEMENT_3D ( 'NONE', #559, #639, #942 ) ;
#577 = ORIENTED_EDGE ( 'NONE', *, *, #539, .F. ) ;
#578 = APPROVAL_ROLE ( '' ) ;
#579 = AXIS2_PLACEMENT_3D ( 'NONE', #367, #852, #134 ) ;
#580 = DIRECTION ( 'NONE',  ( 0.000000000000000000, 0.000000000000000000, 1.000000000000000000 ) ) ;
#581 = DIRECTION ( 'NONE',  ( 1.000000000000000000, 0.000000000000000000, -9.912705577010328015E-17 ) ) ;
#582 = EDGE_CURVE ( 'NONE', #861, #1018, #157, .T. ) ;
#583 = ORIENTED_EDGE ( 'NONE', *, *, #39, .T. ) ;
#584 = APPROVAL_STATUS ( 'not_yet_approved' ) ;
#585 = CARTESIAN_POINT ( 'NONE',  ( -55.99019513592784847, 4.000000000000000000, -12.50000000000000000 ) ) ;
#586 = DIRECTION ( 'NONE',  ( 0.000000000000000000, 1.000000000000000000, 0.000000000000000000 ) ) ;
#587 = VERTEX_POINT ( 'NONE', #560 ) ;
#588 = CALENDAR_DATE ( 2025, 7, 10 ) ;
#589 = ORIENTED_EDGE ( 'NONE', *, *, #256, .T. ) ;
#590 = CARTESIAN_POINT ( 'NONE',  ( 50.99019513592784136, 4.000000000000000000, 12.50000000000000000 ) ) ;
#591 = LOCAL_TIME ( 3, 32, 10.00000000000000000, #161 ) ;
#592 = LINE ( 'NONE', #989, #100 ) ;
#593 = ORIENTED_EDGE ( 'NONE', *, *, #329, .F. ) ;
#594 = EDGE_CURVE ( 'NONE', #204, #302, #432, .T. ) ;
#595 = ORIENTED_EDGE ( 'NONE', *, *, #486, .F. ) ;
#596 = PLANE ( 'NONE',  #627 ) ;
#597 = CARTESIAN_POINT ( 'NONE',  ( -55.99019513592784847, 10.00000000000000000, -12.50000000000000000 ) ) ;
#598 = ORIENTED_EDGE ( 'NONE', *, *, #1014, .T. ) ;
#599 = FACE_OUTER_BOUND ( 'NONE', #933, .T. ) ;
#600 = EDGE_CURVE ( 'NONE', #166, #1034, #517, .T. ) ;
#601 = CARTESIAN_POINT ( 'NONE',  ( 57.27545417499960934, 4.000000000000000000, -1.599999999999998090 ) ) ;
#602 = ORIENTED_EDGE ( 'NONE', *, *, #996, .F. ) ;
#603 = EDGE_LOOP ( 'NONE', ( #170, #743 ) ) ;
#604 = LINE ( 'NONE', #833, #175 ) ;
#605 = VECTOR ( 'NONE', #706, 1000.000000000000000 ) ;
#606 = EDGE_CURVE ( 'NONE', #1038, #990, #222, .T. ) ;
#607 = AXIS2_PLACEMENT_3D ( 'NONE', #456, #444, #616 ) ;
#608 = DIRECTION ( 'NONE',  ( 1.000000000000000000, -0.000000000000000000, -0.000000000000000000 ) ) ;
#609 = VERTEX_POINT ( 'NONE', #516 ) ;
#610 = DIRECTION ( 'NONE',  ( 0.000000000000000000, 0.000000000000000000, 1.000000000000000000 ) ) ;
#611 = CARTESIAN_POINT ( 'NONE',  ( -60.99019513592784136, 4.000000000000000000, 7.500000000000000888 ) ) ;
#612 = VECTOR ( 'NONE', #549, 1000.000000000000000 ) ;
#613 = AXIS2_PLACEMENT_3D ( 'NONE', #290, #208, #669 ) ;
#614 = ORIENTED_EDGE ( 'NONE', *, *, #756, .F. ) ;
#615 = FACE_BOUND ( 'NONE', #788, .T. ) ;
#616 = DIRECTION ( 'NONE',  ( 1.000000000000000000, 0.000000000000000000, -0.000000000000000000 ) ) ;
#617 = CARTESIAN_POINT ( 'NONE',  ( 55.99019513592784847, 4.000000000000000000, -7.500000000000000000 ) ) ;
#618 = DIRECTION ( 'NONE',  ( 0.000000000000000000, 1.000000000000000000, 0.000000000000000000 ) ) ;
#619 = DIRECTION ( 'NONE',  ( 0.000000000000000000, 1.000000000000000000, 0.000000000000000000 ) ) ;
#620 = AXIS2_PLACEMENT_3D ( 'NONE', #346, #650, #581 ) ;
#621 = ORIENTED_EDGE ( 'NONE', *, *, #782, .F. ) ;
#622 = VERTEX_POINT ( 'NONE', #252 ) ;
#623 = CARTESIAN_POINT ( 'NONE',  ( 60.99019513592784136, 4.000000000000000000, -7.500000000000000000 ) ) ;
#624 = CC_DESIGN_PERSON_AND_ORGANIZATION_ASSIGNMENT ( #506, #724, ( #805 ) ) ;
#625 = LINE ( 'NONE', #400, #38 ) ;
#626 = DIRECTION ( 'NONE',  ( 0.000000000000000000, 1.000000000000000000, 0.000000000000000000 ) ) ;
#627 = AXIS2_PLACEMENT_3D ( 'NONE', #1002, #284, #122 ) ;
#628 = ORIENTED_EDGE ( 'NONE', *, *, #227, .F. ) ;
#629 = DIRECTION ( 'NONE',  ( -0.000000000000000000, -1.000000000000000000, -0.000000000000000000 ) ) ;
#630 = ADVANCED_FACE ( 'NONE', ( #184 ), #106, .F. ) ;
#631 = PLANE ( 'NONE',  #396 ) ;
#632 = DIRECTION ( 'NONE',  ( 0.000000000000000000, 0.000000000000000000, 1.000000000000000000 ) ) ;
#633 = ORIENTED_EDGE ( 'NONE', *, *, #64, .F. ) ;
#634 = FACE_OUTER_BOUND ( 'NONE', #651, .T. ) ;
#635 = FACE_OUTER_BOUND ( 'NONE', #310, .T. ) ;
#636 = CARTESIAN_POINT ( 'NONE',  ( -57.27545417499960934, -4.999999999999999112, 1.599999999999998090 ) ) ;
#637 = ORIENTED_EDGE ( 'NONE', *, *, #445, .T. ) ;
#638 = APPROVAL_PERSON_ORGANIZATION ( #88, #96, #887 ) ;
#639 = DIRECTION ( 'NONE',  ( 0.000000000000000000, 0.000000000000000000, -1.000000000000000000 ) ) ;
#640 = DIRECTION ( 'NONE',  ( -0.000000000000000000, 1.000000000000000000, -0.000000000000000000 ) ) ;
#641 = DIRECTION ( 'NONE',  ( 0.000000000000000000, 1.000000000000000000, -0.000000000000000000 ) ) ;
#642 = ORIENTED_EDGE ( 'NONE', *, *, #1025, .F. ) ;
#643 = EDGE_CURVE ( 'NONE', #201, #274, #333, .T. ) ;
#644 = DIRECTION ( 'NONE',  ( 1.000000000000000000, 0.000000000000000000, -0.000000000000000000 ) ) ;
#645 = CARTESIAN_POINT ( 'NONE',  ( 57.27545417499960934, 4.000000000000000000, 0.000000000000000000 ) ) ;
#646 = ORIENTED_EDGE ( 'NONE', *, *, #141, .T. ) ;
#647 = PERSON_AND_ORGANIZATION_ROLE ( 'creator' ) ;
#648 = DIRECTION ( 'NONE',  ( -0.000000000000000000, -1.000000000000000000, -0.000000000000000000 ) ) ;
#649 = PERSON ( 'UNSPECIFIED', 'UNSPECIFIED', 'UNSPECIFIED', ('UNSPECIFIED'), ('UNSPECIFIED'), ('UNSPECIFIED') ) ;
#650 = DIRECTION ( 'NONE',  ( 9.912705577010328015E-17, 0.000000000000000000, 1.000000000000000000 ) ) ;
#651 = EDGE_LOOP ( 'NONE', ( #42, #395, #359, #633, #129, #92, #901, #133 ) ) ;
#652 = AXIS2_PLACEMENT_3D ( 'NONE', #541, #754, #527 ) ;
#653 = CALENDAR_DATE ( 2025, 7, 10 ) ;
#654 = DIRECTION ( 'NONE',  ( 1.000000000000000000, 0.000000000000000000, -0.000000000000000000 ) ) ;
#655 = CC_DESIGN_PERSON_AND_ORGANIZATION_ASSIGNMENT ( #172, #414, ( #500 ) ) ;
#656 = EDGE_CURVE ( 'NONE', #114, #1018, #731, .T. ) ;
#657 = CARTESIAN_POINT ( 'NONE',  ( 57.27545417499960934, -4.999999999999999112, 0.000000000000000000 ) ) ;
#658 = ORIENTED_EDGE ( 'NONE', *, *, #656, .F. ) ;
#659 = CALENDAR_DATE ( 2025, 7, 10 ) ;
#660 = AXIS2_PLACEMENT_3D ( 'NONE', #698, #393, #67 ) ;
#661 = AXIS2_PLACEMENT_3D ( 'NONE', #531, #909, #849 ) ;
#662 = DIRECTION ( 'NONE',  ( 0.000000000000000000, 0.000000000000000000, 1.000000000000000000 ) ) ;
#663 = CARTESIAN_POINT ( 'NONE',  ( -60.99019513592784136, 10.00000000000000000, 12.50000000000000000 ) ) ;
#664 = EDGE_LOOP ( 'NONE', ( #843, #407, #1004, #137 ) ) ;
#665 = DIRECTION ( 'NONE',  ( -0.000000000000000000, 1.000000000000000000, -0.000000000000000000 ) ) ;
#666 = LINE ( 'NONE', #885, #424 ) ;
#667 = ORIENTED_EDGE ( 'NONE', *, *, #594, .F. ) ;
#668 = ORIENTED_EDGE ( 'NONE', *, *, #702, .F. ) ;
#669 = DIRECTION ( 'NONE',  ( -1.000000000000000000, 0.000000000000000000, -0.000000000000000000 ) ) ;
#670 = DIRECTION ( 'NONE',  ( 1.000000000000000000, 0.000000000000000000, 0.000000000000000000 ) ) ;
#671 = ORIENTED_EDGE ( 'NONE', *, *, #969, .T. ) ;
#672 = EDGE_CURVE ( 'NONE', #53, #200, #824, .T. ) ;
#673 = EDGE_CURVE ( 'NONE', #193, #155, #814, .T. ) ;
#674 = ORIENTED_EDGE ( 'NONE', *, *, #685, .F. ) ;
#675 = FACE_BOUND ( 'NONE', #939, .T. ) ;
#676 = CARTESIAN_POINT ( 'NONE',  ( -60.99019513592784136, 4.000000000000000000, 7.500000000000000888 ) ) ;
#677 = ORIENTED_EDGE ( 'NONE', *, *, #809, .T. ) ;
#678 = ADVANCED_FACE ( 'NONE', ( #266 ), #179, .T. ) ;
#679 = ORIENTED_EDGE ( 'NONE', *, *, #181, .F. ) ;
#680 = CARTESIAN_POINT ( 'NONE',  ( -60.99019513592784136, 4.000000000000000000, -7.500000000000000000 ) ) ;
#681 = CARTESIAN_POINT ( 'NONE',  ( 14.99999999999998401, -15.00000000000000000, -35.31152949374526884 ) ) ;
#682 = ORIENTED_EDGE ( 'NONE', *, *, #305, .F. ) ;
#683 = FACE_OUTER_BOUND ( 'NONE', #369, .T. ) ;
#684 = AXIS2_PLACEMENT_3D ( 'NONE', #889, #257, #25 ) ;
#685 = EDGE_CURVE ( 'NONE', #254, #224, #89, .T. ) ;
#686 = CARTESIAN_POINT ( 'NONE',  ( 14.99999999999998401, -5.000000000000000888, -50.31152949374526884 ) ) ;
#687 = CC_DESIGN_SECURITY_CLASSIFICATION ( #375, ( #805 ) ) ;
#688 = ORIENTED_EDGE ( 'NONE', *, *, #318, .T. ) ;
#689 = DIRECTION ( 'NONE',  ( -0.000000000000000000, -0.000000000000000000, -1.000000000000000000 ) ) ;
#690 = CARTESIAN_POINT ( 'NONE',  ( 0.000000000000000000, 4.000000000000000888, 0.000000000000000000 ) ) ;
#691 = VERTEX_POINT ( 'NONE', #741 ) ;
#692 = DIRECTION ( 'NONE',  ( 1.000000000000000000, -0.000000000000000000, -9.912705577010328015E-17 ) ) ;
#693 = DIRECTION ( 'NONE',  ( 0.000000000000000000, 1.000000000000000000, 0.000000000000000000 ) ) ;
#694 = ORIENTED_EDGE ( 'NONE', *, *, #366, .T. ) ;
#695 = ORIENTED_EDGE ( 'NONE', *, *, #404, .F. ) ;
#696 = EDGE_CURVE ( 'NONE', #1017, #330, #970, .T. ) ;
#697 = DIRECTION ( 'NONE',  ( 0.000000000000000000, 1.000000000000000000, 0.000000000000000000 ) ) ;
#698 = CARTESIAN_POINT ( 'NONE',  ( 0.000000000000000000, -5.000000000000000000, 0.000000000000000000 ) ) ;
#699 = CIRCLE ( 'NONE', #475, 1.599999999999998090 ) ;
#700 = CARTESIAN_POINT ( 'NONE',  ( 0.000000000000000000, -5.000000000000000000, 55.00000000000000000 ) ) ;
#701 = ORIENTED_EDGE ( 'NONE', *, *, #582, .F. ) ;
#702 = EDGE_CURVE ( 'NONE', #195, #817, #2, .T. ) ;
#703 = ADVANCED_FACE ( 'NONE', ( #497 ), #24, .T. ) ;
#704 = DIRECTION ( 'NONE',  ( -1.000000000000000000, -0.000000000000000000, -0.000000000000000000 ) ) ;
#705 = CARTESIAN_POINT ( 'NONE',  ( -55.99019513592784847, 4.000000000000000000, 12.50000000000000000 ) ) ;
#706 = DIRECTION ( 'NONE',  ( 0.000000000000000000, 1.000000000000000000, 0.000000000000000000 ) ) ;
#707 = AXIS2_PLACEMENT_3D ( 'NONE', #964, #247, #580 ) ;
#708 = ORIENTED_EDGE ( 'NONE', *, *, #329, .T. ) ;
#709 = EDGE_CURVE ( 'NONE', #505, #768, #808, .T. ) ;
#710 = DIRECTION ( 'NONE',  ( 0.000000000000000000, 1.000000000000000000, 0.000000000000000000 ) ) ;
#711 = EDGE_CURVE ( 'NONE', #768, #862, #425, .T. ) ;
#712 = CYLINDRICAL_SURFACE ( 'NONE', #758, 52.50000000000000000 ) ;
#713 = DIRECTION ( 'NONE',  ( -0.000000000000000000, 1.000000000000000000, -0.000000000000000000 ) ) ;
#714 = ORIENTED_EDGE ( 'NONE', *, *, #696, .F. ) ;
#715 = LINE ( 'NONE', #623, #807 ) ;
#716 = CARTESIAN_POINT ( 'NONE',  ( 14.99999999999999467, 10.00000000000000000, -50.31152949374526884 ) ) ;
#717 = DIRECTION ( 'NONE',  ( -0.000000000000000000, -1.000000000000000000, -0.000000000000000000 ) ) ;
#718 = CIRCLE ( 'NONE', #836, 52.50000000000000000 ) ;
#719 = ORIENTED_EDGE ( 'NONE', *, *, #816, .T. ) ;
#720 = LOCAL_TIME ( 3, 32, 10.00000000000000000, #893 ) ;
#721 = FACE_OUTER_BOUND ( 'NONE', #750, .T. ) ;
#722 = DIRECTION ( 'NONE',  ( -0.000000000000000000, -1.000000000000000000, -0.000000000000000000 ) ) ;
#723 = EDGE_LOOP ( 'NONE', ( #361, #520, #454, #437 ) ) ;
#724 = PERSON_AND_ORGANIZATION_ROLE ( 'design_supplier' ) ;
#725 = DIRECTION ( 'NONE',  ( 0.000000000000000000, 1.000000000000000000, 0.000000000000000000 ) ) ;
#726 = CARTESIAN_POINT ( 'NONE',  ( 53.56071321407137731, 10.00000000000000000, 12.50000000000000000 ) ) ;
#727 = ADVANCED_FACE ( 'NONE', ( #255 ), #883, .T. ) ;
#728 = VERTEX_POINT ( 'NONE', #99 ) ;
#729 = EDGE_CURVE ( 'NONE', #1034, #166, #876, .T. ) ;
#730 = PERSON_AND_ORGANIZATION ( #649, #462 ) ;
#731 = LINE ( 'NONE', #345, #277 ) ;
#732 = FACE_OUTER_BOUND ( 'NONE', #881, .T. ) ;
#733 = ORIENTED_EDGE ( 'NONE', *, *, #371, .F. ) ;
#734 = AXIS2_PLACEMENT_3D ( 'NONE', #690, #460, #776 ) ;
#735 = DATE_TIME_ROLE ( 'classification_date' ) ;
#736 = CARTESIAN_POINT ( 'NONE',  ( 9.999999999999992895, -5.000000000000000888, -50.31152949374526884 ) ) ;
#737 = CARTESIAN_POINT ( 'NONE',  ( 9.999999999999992895, -15.00000000000000000, -35.31152949374526884 ) ) ;
#738 = VERTEX_POINT ( 'NONE', #736 ) ;
#739 = CALENDAR_DATE ( 2025, 7, 10 ) ;
#740 = VECTOR ( 'NONE', #339, 1000.000000000000000 ) ;
#741 = CARTESIAN_POINT ( 'NONE',  ( -15.00000000000000000, -4.999999999999999112, -50.31152949374526884 ) ) ;
#742 = DIRECTION ( 'NONE',  ( 0.000000000000000000, 1.000000000000000000, -0.000000000000000000 ) ) ;
#743 = ORIENTED_EDGE ( 'NONE', *, *, #915, .T. ) ;
#744 = SHAPE_DEFINITION_REPRESENTATION ( #335, #354 ) ;
#745 = VERTEX_POINT ( 'NONE', #168 ) ;
#746 = CARTESIAN_POINT ( 'NONE',  ( 14.99999999999999467, 10.00000000000000000, -52.91502622129181077 ) ) ;
#747 = DIRECTION ( 'NONE',  ( -0.000000000000000000, -0.000000000000000000, -1.000000000000000000 ) ) ;
#748 = EDGE_CURVE ( 'NONE', #897, #302, #6, .T. ) ;
#749 = EDGE_CURVE ( 'NONE', #103, #917, #173, .T. ) ;
#750 = EDGE_LOOP ( 'NONE', ( #21, #962, #435, #283 ) ) ;
#751 = CIRCLE ( 'NONE', #971, 55.00000000000000000 ) ;
#752 = ORIENTED_EDGE ( 'NONE', *, *, #749, .T. ) ;
#753 = DIRECTION ( 'NONE',  ( 0.000000000000000000, 0.000000000000000000, 1.000000000000000000 ) ) ;
#754 = DIRECTION ( 'NONE',  ( 0.000000000000000000, 1.000000000000000000, 0.000000000000000000 ) ) ;
#755 = ORIENTED_EDGE ( 'NONE', *, *, #969, .F. ) ;
#756 = EDGE_CURVE ( 'NONE', #956, #609, #434, .T. ) ;
#757 = ORIENTED_EDGE ( 'NONE', *, *, #431, .F. ) ;
#758 = AXIS2_PLACEMENT_3D ( 'NONE', #142, #482, #232 ) ;
#759 = CARTESIAN_POINT ( 'NONE',  ( -60.99019513592784136, 4.000000000000000000, -7.500000000000000000 ) ) ;
#760 = AXIS2_PLACEMENT_3D ( 'NONE', #766, #844, #753 ) ;
#761 = LINE ( 'NONE', #464, #936 ) ;
#762 = ORIENTED_EDGE ( 'NONE', *, *, #711, .T. ) ;
#763 = APPROVAL ( #15, 'UNSPECIFIED' ) ;
#764 = EDGE_CURVE ( 'NONE', #402, #570, #1011, .T. ) ;
#765 = ORIENTED_EDGE ( 'NONE', *, *, #809, .F. ) ;
#766 = CARTESIAN_POINT ( 'NONE',  ( -55.99019513592784847, 10.00000000000000000, 7.500000000000000888 ) ) ;
#767 = DIRECTION ( 'NONE',  ( -0.000000000000000000, -1.000000000000000000, -0.000000000000000000 ) ) ;
#768 = VERTEX_POINT ( 'NONE', #536 ) ;
#769 = DIRECTION ( 'NONE',  ( -1.000000000000000000, -0.000000000000000000, -0.000000000000000000 ) ) ;
#770 = EDGE_CURVE ( 'NONE', #990, #263, #1027, .T. ) ;
#771 = AXIS2_PLACEMENT_3D ( 'NONE', #657, #262, #575 ) ;
#772 = CARTESIAN_POINT ( 'NONE',  ( -60.99019513592784136, 10.00000000000000000, -12.50000000000000000 ) ) ;
#773 = ORIENTED_EDGE ( 'NONE', *, *, #130, .T. ) ;
#774 = DIRECTION ( 'NONE',  ( -0.000000000000000000, 1.000000000000000000, -0.000000000000000000 ) ) ;
#775 = EDGE_CURVE ( 'NONE', #1038, #897, #131, .T. ) ;
#776 = DIRECTION ( 'NONE',  ( 0.000000000000000000, 0.000000000000000000, 1.000000000000000000 ) ) ;
#777 = CC_DESIGN_PERSON_AND_ORGANIZATION_ASSIGNMENT ( #98, #104, ( #375 ) ) ;
#778 = EDGE_LOOP ( 'NONE', ( #997, #58, #509, #677 ) ) ;
#779 = CARTESIAN_POINT ( 'NONE',  ( 50.99019513592784136, 4.000000000000000000, -12.50000000000000000 ) ) ;
#780 = CARTESIAN_POINT ( 'NONE',  ( 53.56071321407137731, 4.000000000000000888, -12.50000000000000000 ) ) ;
#781 = CARTESIAN_POINT ( 'NONE',  ( 57.27545417499960934, 10.00000000000000000, 0.000000000000000000 ) ) ;
#782 = EDGE_CURVE ( 'NONE', #53, #484, #91, .T. ) ;
#783 = EDGE_LOOP ( 'NONE', ( #446, #794, #418, #602 ) ) ;
#784 = DIRECTION ( 'NONE',  ( 0.000000000000000000, 0.000000000000000000, 1.000000000000000000 ) ) ;
#785 = DIRECTION ( 'NONE',  ( 0.000000000000000000, 1.000000000000000000, 0.000000000000000000 ) ) ;
#786 = VECTOR ( 'NONE', #199, 1000.000000000000000 ) ;
#787 = DIRECTION ( 'NONE',  ( -0.000000000000000000, 1.000000000000000000, -0.000000000000000000 ) ) ;
#788 = EDGE_LOOP ( 'NONE', ( #952, #421 ) ) ;
#789 = CIRCLE ( 'NONE', #14, 1.599999999999998090 ) ;
#790 = FACE_OUTER_BOUND ( 'NONE', #804, .T. ) ;
#791 = CYLINDRICAL_SURFACE ( 'NONE', #660, 52.50000000000000000 ) ;
#792 = CARTESIAN_POINT ( 'NONE',  ( -60.99019513592784136, 4.000000000000000000, 12.50000000000000000 ) ) ;
#793 = CIRCLE ( 'NONE', #927, 5.000000000000000000 ) ;
#794 = ORIENTED_EDGE ( 'NONE', *, *, #141, .F. ) ;
#795 = DIRECTION ( 'NONE',  ( 0.000000000000000000, -0.000000000000000000, -1.000000000000000000 ) ) ;
#796 = EDGE_CURVE ( 'NONE', #587, #728, #931, .T. ) ;
#797 = CARTESIAN_POINT ( 'NONE',  ( 14.99999999999999467, -4.999999999999999112, -52.91502622129181077 ) ) ;
#798 = CARTESIAN_POINT ( 'NONE',  ( 14.99999999999998401, -5.000000000000000888, -50.31152949374526884 ) ) ;
#799 = ORIENTED_EDGE ( 'NONE', *, *, #305, .T. ) ;
#800 = CALENDAR_DATE ( 2025, 7, 10 ) ;
#801 = CARTESIAN_POINT ( 'NONE',  ( 0.000000000000000000, 10.00000000000000000, 0.000000000000000000 ) ) ;
#802 = FACE_OUTER_BOUND ( 'NONE', #471, .T. ) ;
#803 = AXIS2_PLACEMENT_3D ( 'NONE', #470, #483, #551 ) ;
#804 = EDGE_LOOP ( 'NONE', ( #946, #8, #48, #598, #259, #682 ) ) ;
#805 = PRODUCT_DEFINITION_FORMATION_WITH_SPECIFIED_SOURCE ( 'ANY', '', #500, .NOT_KNOWN. ) ;
#806 = COORDINATED_UNIVERSAL_TIME_OFFSET ( 7, 0, .AHEAD. ) ;
#807 = VECTOR ( 'NONE', #392, 1000.000000000000000 ) ;
#808 = LINE ( 'NONE', #976, #740 ) ;
#809 = EDGE_CURVE ( 'NONE', #402, #195, #296, .T. ) ;
#810 = CARTESIAN_POINT ( 'NONE',  ( -55.99019513592784847, 10.00000000000000000, 12.50000000000000000 ) ) ;
#811 = EDGE_LOOP ( 'NONE', ( #835, #320, #249, #708 ) ) ;
#812 = VECTOR ( 'NONE', #507, 1000.000000000000000 ) ;
#813 =( NAMED_UNIT ( * ) SI_UNIT ( $, .STERADIAN. ) SOLID_ANGLE_UNIT ( ) );
#814 = LINE ( 'NONE', #93, #845 ) ;
#815 = PLANE ( 'NONE',  #684 ) ;
#816 = EDGE_CURVE ( 'NONE', #530, #37, #212, .T. ) ;
#817 = VERTEX_POINT ( 'NONE', #376 ) ;
#818 = CARTESIAN_POINT ( 'NONE',  ( 55.99019513592784847, 4.000000000000000000, 12.50000000000000000 ) ) ;
#819 = DIRECTION ( 'NONE',  ( 0.000000000000000000, 0.000000000000000000, 1.000000000000000000 ) ) ;
#820 = ORIENTED_EDGE ( 'NONE', *, *, #606, .T. ) ;
#821 = CIRCLE ( 'NONE', #119, 55.00000000000000000 ) ;
#822 = APPROVAL_DATE_TIME ( #963, #459 ) ;
#823 = PRODUCT_RELATED_PRODUCT_CATEGORY ( 'detail', '', ( #500 ) ) ;
#824 = LINE ( 'NONE', #430, #415 ) ;
#825 = FACE_OUTER_BOUND ( 'NONE', #109, .T. ) ;
#826 = ORIENTED_EDGE ( 'NONE', *, *, #884, .F. ) ;
#827 = ORIENTED_EDGE ( 'NONE', *, *, #385, .T. ) ;
#828 = DIRECTION ( 'NONE',  ( 0.000000000000000000, 1.000000000000000000, -0.000000000000000000 ) ) ;
#829 = ADVANCED_FACE ( 'NONE', ( #217 ), #596, .T. ) ;
#830 = CARTESIAN_POINT ( 'NONE',  ( -55.99019513592784847, 4.000000000000000000, 7.500000000000000888 ) ) ;
#831 = VERTEX_POINT ( 'NONE', #370 ) ;
#832 = EDGE_LOOP ( 'NONE', ( #546, #583, #77, #1001 ) ) ;
#833 = CARTESIAN_POINT ( 'NONE',  ( 9.999999999999992895, -15.00000000000000000, -35.31152949374526884 ) ) ;
#834 = CARTESIAN_POINT ( 'NONE',  ( -15.00000000000000000, -5.000000000000000000, -52.91502622129181077 ) ) ;
#835 = ORIENTED_EDGE ( 'NONE', *, *, #117, .T. ) ;
#836 = AXIS2_PLACEMENT_3D ( 'NONE', #334, #358, #977 ) ;
#837 = ORIENTED_EDGE ( 'NONE', *, *, #469, .T. ) ;
#838 = LINE ( 'NONE', #34, #75 ) ;
#839 = LINE ( 'NONE', #363, #340 ) ;
#840 = ORIENTED_EDGE ( 'NONE', *, *, #331, .T. ) ;
#841 = EDGE_CURVE ( 'NONE', #745, #125, #838, .T. ) ;
#842 = ADVANCED_FACE ( 'NONE', ( #675, #615, #683 ), #540, .T. ) ;
#843 = ORIENTED_EDGE ( 'NONE', *, *, #748, .T. ) ;
#844 = DIRECTION ( 'NONE',  ( 0.000000000000000000, 1.000000000000000000, 0.000000000000000000 ) ) ;
#845 = VECTOR ( 'NONE', #568, 1000.000000000000000 ) ;
#846 = DIRECTION ( 'NONE',  ( 0.000000000000000000, 0.000000000000000000, 1.000000000000000000 ) ) ;
#847 = VERTEX_POINT ( 'NONE', #746 ) ;
#848 = EDGE_CURVE ( 'NONE', #195, #254, #793, .T. ) ;
#849 = DIRECTION ( 'NONE',  ( 0.000000000000000000, 0.000000000000000000, 1.000000000000000000 ) ) ;
#850 = CARTESIAN_POINT ( 'NONE',  ( 50.99019513592784136, 10.00000000000000000, 12.50000000000000000 ) ) ;
#851 = ORIENTED_EDGE ( 'NONE', *, *, #241, .T. ) ;
#852 = DIRECTION ( 'NONE',  ( 0.000000000000000000, 1.000000000000000000, 0.000000000000000000 ) ) ;
#853 = AXIS2_PLACEMENT_3D ( 'NONE', #830, #742, #29 ) ;
#854 = LINE ( 'NONE', #1016, #478 ) ;
#855 = APPROVAL_PERSON_ORGANIZATION ( #325, #459, #578 ) ;
#856 = ORIENTED_EDGE ( 'NONE', *, *, #968, .T. ) ;
#857 = AXIS2_PLACEMENT_3D ( 'NONE', #1024, #629, #947 ) ;
#858 = CARTESIAN_POINT ( 'NONE',  ( 14.99999999999998401, -5.000000000000000888, -35.31152949374526884 ) ) ;
#859 = FACE_OUTER_BOUND ( 'NONE', #353, .T. ) ;
#860 = AXIS2_PLACEMENT_3D ( 'NONE', #879, #959, #158 ) ;
#861 = VERTEX_POINT ( 'NONE', #1007 ) ;
#862 = VERTEX_POINT ( 'NONE', #356 ) ;
#863 = CARTESIAN_POINT ( 'NONE',  ( -57.27545417499960934, -4.999999999999999112, 0.000000000000000000 ) ) ;
#864 = CARTESIAN_POINT ( 'NONE',  ( 14.99999999999998401, -5.000000000000000888, -35.31152949374526884 ) ) ;
#865 = LINE ( 'NONE', #314, #167 ) ;
#866 = ORIENTED_EDGE ( 'NONE', *, *, #130, .F. ) ;
#867 = CARTESIAN_POINT ( 'NONE',  ( 0.000000000000000000, 10.00000000000000000, 52.50000000000000000 ) ) ;
#868 = PLANE ( 'NONE',  #73 ) ;
#869 = CIRCLE ( 'NONE', #557, 1.599999999999998090 ) ;
#870 = DIRECTION ( 'NONE',  ( 1.000000000000000000, 0.000000000000000000, 0.000000000000000000 ) ) ;
#871 = VERTEX_POINT ( 'NONE', #43 ) ;
#872 = EDGE_CURVE ( 'NONE', #219, #287, #604, .T. ) ;
#873 = LINE ( 'NONE', #242, #957 ) ;
#874 = CARTESIAN_POINT ( 'NONE',  ( -55.99019513592784847, 4.000000000000000000, 7.500000000000000888 ) ) ;
#875 = CARTESIAN_POINT ( 'NONE',  ( 0.000000000000000000, 10.00000000000000000, 0.000000000000000000 ) ) ;
#876 = CIRCLE ( 'NONE', #707, 1.599999999999998090 ) ;
#877 = ORIENTED_EDGE ( 'NONE', *, *, #511, .T. ) ;
#878 = DIRECTION ( 'NONE',  ( 0.000000000000000000, 0.000000000000000000, 1.000000000000000000 ) ) ;
#879 = CARTESIAN_POINT ( 'NONE',  ( 0.000000000000000000, 10.00000000000000000, 0.000000000000000000 ) ) ;
#880 = PLANE ( 'NONE',  #918 ) ;
#881 = EDGE_LOOP ( 'NONE', ( #826, #994, #57, #907, #589 ) ) ;
#882 = ADVANCED_FACE ( 'NONE', ( #599 ), #921, .T. ) ;
#883 = PLANE ( 'NONE',  #364 ) ;
#884 = EDGE_CURVE ( 'NONE', #484, #847, #442, .T. ) ;
#885 = CARTESIAN_POINT ( 'NONE',  ( 14.99999999999998401, -15.00000000000000000, -52.91502622129181077 ) ) ;
#886 = ORIENTED_EDGE ( 'NONE', *, *, #556, .F. ) ;
#887 = APPROVAL_ROLE ( '' ) ;
#888 = DIRECTION ( 'NONE',  ( -0.000000000000000000, -0.000000000000000000, 1.000000000000000000 ) ) ;
#889 = CARTESIAN_POINT ( 'NONE',  ( 0.000000000000000000, -15.00000000000000000, 0.000000000000000000 ) ) ;
#890 = AXIS2_PLACEMENT_3D ( 'NONE', #60, #1021, #387 ) ;
#891 = ORIENTED_EDGE ( 'NONE', *, *, #117, .F. ) ;
#892 = AXIS2_PLACEMENT_3D ( 'NONE', #590, #905, #654 ) ;
#893 = COORDINATED_UNIVERSAL_TIME_OFFSET ( 7, 0, .AHEAD. ) ;
#894 = CARTESIAN_POINT ( 'NONE',  ( 0.000000000000000000, -5.000000000000000000, 0.000000000000000000 ) ) ;
#895 = CARTESIAN_POINT ( 'NONE',  ( 60.99019513592784136, 4.000000000000000000, 7.500000000000000888 ) ) ;
#896 = EDGE_CURVE ( 'NONE', #484, #125, #914, .T. ) ;
#897 = VERTEX_POINT ( 'NONE', #759 ) ;
#898 = DATE_TIME_ROLE ( 'creation_date' ) ;
#899 = CARTESIAN_POINT ( 'NONE',  ( 60.99019513592784136, 4.000000000000000000, 12.50000000000000000 ) ) ;
#900 = LINE ( 'NONE', #94, #389 ) ;
#901 = ORIENTED_EDGE ( 'NONE', *, *, #643, .F. ) ;
#902 = EDGE_CURVE ( 'NONE', #95, #452, #467, .T. ) ;
#903 = CC_DESIGN_APPROVAL ( #763, ( #375 ) ) ;
#904 = ORIENTED_EDGE ( 'NONE', *, *, #796, .T. ) ;
#905 = DIRECTION ( 'NONE',  ( 0.000000000000000000, 0.000000000000000000, 1.000000000000000000 ) ) ;
#906 = DIRECTION ( 'NONE',  ( -0.000000000000000000, -0.000000000000000000, -1.000000000000000000 ) ) ;
#907 = ORIENTED_EDGE ( 'NONE', *, *, #709, .F. ) ;
#908 = ORIENTED_EDGE ( 'NONE', *, *, #162, .T. ) ;
#909 = DIRECTION ( 'NONE',  ( 0.000000000000000000, 1.000000000000000000, 0.000000000000000000 ) ) ;
#910 = DIRECTION ( 'NONE',  ( 1.000000000000000000, 0.000000000000000000, 0.000000000000000000 ) ) ;
#911 = ORIENTED_EDGE ( 'NONE', *, *, #163, .F. ) ;
#912 = EDGE_LOOP ( 'NONE', ( #1023, #269, #752, #374 ) ) ;
#913 = EDGE_CURVE ( 'NONE', #566, #515, #231, .T. ) ;
#914 = LINE ( 'NONE', #202, #311 ) ;
#915 = EDGE_CURVE ( 'NONE', #355, #103, #789, .T. ) ;
#916 = LINE ( 'NONE', #681, #572 ) ;
#917 = VERTEX_POINT ( 'NONE', #300 ) ;
#918 = AXIS2_PLACEMENT_3D ( 'NONE', #555, #319, #165 ) ;
#919 = VECTOR ( 'NONE', #218, 1000.000000000000000 ) ;
#920 = EDGE_LOOP ( 'NONE', ( #390, #765, #461, #674 ) ) ;
#921 = PLANE ( 'NONE',  #613 ) ;
#922 = LINE ( 'NONE', #850, #786 ) ;
#923 = ADVANCED_FACE ( 'NONE', ( #548 ), #935, .T. ) ;
#924 = AXIS2_PLACEMENT_3D ( 'NONE', #563, #221, #878 ) ;
#925 = ORIENTED_EDGE ( 'NONE', *, *, #138, .F. ) ;
#926 = CARTESIAN_POINT ( 'NONE',  ( 60.99019513592784136, 10.00000000000000000, 12.50000000000000000 ) ) ;
#927 = AXIS2_PLACEMENT_3D ( 'NONE', #998, #455, #28 ) ;
#928 = EDGE_CURVE ( 'NONE', #917, #831, #35, .T. ) ;
#929 = LINE ( 'NONE', #203, #973 ) ;
#930 = ORIENTED_EDGE ( 'NONE', *, *, #404, .T. ) ;
#931 = LINE ( 'NONE', #449, #980 ) ;
#932 = LINE ( 'NONE', #772, #919 ) ;
#933 = EDGE_LOOP ( 'NONE', ( #941, #5, #695, #477 ) ) ;
#934 = VECTOR ( 'NONE', #328, 1000.000000000000000 ) ;
#935 = PLANE ( 'NONE',  #576 ) ;
#936 = VECTOR ( 'NONE', #522, 1000.000000000000000 ) ;
#937 = DIRECTION ( 'NONE',  ( 0.000000000000000000, 0.000000000000000000, 1.000000000000000000 ) ) ;
#938 = AXIS2_PLACEMENT_3D ( 'NONE', #264, #1, #178 ) ;
#939 = EDGE_LOOP ( 'NONE', ( #552, #177 ) ) ;
#940 = VECTOR ( 'NONE', #481, 1000.000000000000000 ) ;
#941 = ORIENTED_EDGE ( 'NONE', *, *, #71, .T. ) ;
#942 = DIRECTION ( 'NONE',  ( -1.000000000000000000, 0.000000000000000000, -0.000000000000000000 ) ) ;
#943 = LINE ( 'NONE', #228, #612 ) ;
#944 = VECTOR ( 'NONE', #888, 1000.000000000000000 ) ;
#945 = CARTESIAN_POINT ( 'NONE',  ( -60.99019513592784136, 4.000000000000000000, -12.50000000000000000 ) ) ;
#946 = ORIENTED_EDGE ( 'NONE', *, *, #105, .F. ) ;
#947 = DIRECTION ( 'NONE',  ( 0.000000000000000000, 0.000000000000000000, 1.000000000000000000 ) ) ;
#948 = DIRECTION ( 'NONE',  ( 0.000000000000000000, 0.000000000000000000, 1.000000000000000000 ) ) ;
#949 = CC_DESIGN_PERSON_AND_ORGANIZATION_ASSIGNMENT ( #183, #967, ( #805 ) ) ;
#950 = ADVANCED_FACE ( 'NONE', ( #140 ), #958, .F. ) ;
#951 = CARTESIAN_POINT ( 'NONE',  ( -57.27545417499960934, 4.000000000000000000, 1.599999999999998090 ) ) ;
#952 = ORIENTED_EDGE ( 'NONE', *, *, #928, .F. ) ;
#953 = CARTESIAN_POINT ( 'NONE',  ( 57.27545417499960934, 4.000000000000000000, 0.000000000000000000 ) ) ;
#954 = DIRECTION ( 'NONE',  ( -1.000000000000000000, 0.000000000000000000, 0.000000000000000000 ) ) ;
#955 = CARTESIAN_POINT ( 'NONE',  ( 57.27545417499960934, 4.000000000000000000, 1.599999999999998090 ) ) ;
#956 = VERTEX_POINT ( 'NONE', #1015 ) ;
#957 = VECTOR ( 'NONE', #156, 1000.000000000000000 ) ;
#958 = CYLINDRICAL_SURFACE ( 'NONE', #152, 1.599999999999998090 ) ;
#959 = DIRECTION ( 'NONE',  ( 0.000000000000000000, 1.000000000000000000, 0.000000000000000000 ) ) ;
#960 = DIRECTION ( 'NONE',  ( 0.000000000000000000, 0.000000000000000000, 1.000000000000000000 ) ) ;
#961 = AXIS2_PLACEMENT_3D ( 'NONE', #874, #243, #164 ) ;
#962 = ORIENTED_EDGE ( 'NONE', *, *, #118, .T. ) ;
#963 = DATE_AND_TIME ( #588, #360 ) ;
#964 = CARTESIAN_POINT ( 'NONE',  ( -57.27545417499960934, 10.00000000000000000, 0.000000000000000000 ) ) ;
#965 = CARTESIAN_POINT ( 'NONE',  ( 55.99019513592784847, 4.000000000000000000, -12.50000000000000000 ) ) ;
#966 = ORIENTED_EDGE ( 'NONE', *, *, #399, .T. ) ;
#967 = PERSON_AND_ORGANIZATION_ROLE ( 'creator' ) ;
#968 = EDGE_CURVE ( 'NONE', #861, #956, #873, .T. ) ;
#969 = EDGE_CURVE ( 'NONE', #691, #114, #69, .T. ) ;
#970 = LINE ( 'NONE', #585, #41 ) ;
#971 = AXIS2_PLACEMENT_3D ( 'NONE', #19, #586, #185 ) ;
#972 = LINE ( 'NONE', #663, #542 ) ;
#973 = VECTOR ( 'NONE', #1012, 1000.000000000000000 ) ;
#974 = ORIENTED_EDGE ( 'NONE', *, *, #770, .F. ) ;
#975 = ADVANCED_FACE ( 'NONE', ( #146 ), #472, .T. ) ;
#976 = CARTESIAN_POINT ( 'NONE',  ( 9.999999999999994671, 10.00000000000000000, -52.91502622129181077 ) ) ;
#977 = DIRECTION ( 'NONE',  ( 0.000000000000000000, 0.000000000000000000, 1.000000000000000000 ) ) ;
#978 = CIRCLE ( 'NONE', #890, 55.00000000000000000 ) ;
#979 = ORIENTED_EDGE ( 'NONE', *, *, #445, .F. ) ;
#980 = VECTOR ( 'NONE', #769, 1000.000000000000000 ) ;
#981 = COORDINATED_UNIVERSAL_TIME_OFFSET ( 7, 0, .AHEAD. ) ;
#982 = DIRECTION ( 'NONE',  ( 0.000000000000000000, 0.000000000000000000, 1.000000000000000000 ) ) ;
#983 = FACE_OUTER_BOUND ( 'NONE', #298, .T. ) ;
#984 = ADVANCED_FACE ( 'NONE', ( #553 ), #544, .F. ) ;
#985 = ADVANCED_FACE ( 'NONE', ( #634 ), #65, .T. ) ;
#986 = EDGE_LOOP ( 'NONE', ( #342, #336, #925, #534, #799, #595, #614, #688 ) ) ;
#987 = DATE_AND_TIME ( #739, #991 ) ;
#988 = CARTESIAN_POINT ( 'NONE',  ( -60.99019513592784136, 10.00000000000000000, 12.50000000000000000 ) ) ;
#989 = CARTESIAN_POINT ( 'NONE',  ( 9.999999999999994671, 10.00000000000000000, -52.91502622129181077 ) ) ;
#990 = VERTEX_POINT ( 'NONE', #78 ) ;
#991 = LOCAL_TIME ( 3, 32, 10.00000000000000000, #423 ) ;
#992 = CARTESIAN_POINT ( 'NONE',  ( 60.99019513592784136, 4.000000000000000000, 7.500000000000000888 ) ) ;
#993 = LINE ( 'NONE', #101, #357 ) ;
#994 = ORIENTED_EDGE ( 'NONE', *, *, #241, .F. ) ;
#995 = CIRCLE ( 'NONE', #211, 5.000000000000000000 ) ;
#996 = EDGE_CURVE ( 'NONE', #817, #570, #715, .T. ) ;
#997 = ORIENTED_EDGE ( 'NONE', *, *, #702, .T. ) ;
#998 = CARTESIAN_POINT ( 'NONE',  ( 55.99019513592784847, 4.000000000000000000, 7.500000000000000888 ) ) ;
#999 = CARTESIAN_POINT ( 'NONE',  ( 55.99019513592784847, 10.00000000000000000, -7.500000000000000000 ) ) ;
#1000 = ORIENTED_EDGE ( 'NONE', *, *, #198, .T. ) ;
#1001 = ORIENTED_EDGE ( 'NONE', *, *, #318, .F. ) ;
#1002 = CARTESIAN_POINT ( 'NONE',  ( -60.99019513592784136, 4.000000000000000000, 12.50000000000000000 ) ) ;
#1003 = CARTESIAN_POINT ( 'NONE',  ( -55.99019513592784847, 4.000000000000000000, -7.500000000000000888 ) ) ;
#1004 = ORIENTED_EDGE ( 'NONE', *, *, #606, .F. ) ;
#1005 = AXIS2_PLACEMENT_3D ( 'NONE', #68, #641, #632 ) ;
#1006 = CIRCLE ( 'NONE', #526, 1.599999999999998090 ) ;
#1007 = CARTESIAN_POINT ( 'NONE',  ( -15.00000000000000000, 10.00000000000000000, -50.31152949374526884 ) ) ;
#1008 = DIRECTION ( 'NONE',  ( -9.912705577010328015E-17, 0.000000000000000000, -1.000000000000000000 ) ) ;
#1009 = AXIS2_PLACEMENT_3D ( 'NONE', #1020, #488, #382 ) ;
#1010 = ORIENTED_EDGE ( 'NONE', *, *, #902, .T. ) ;
#1011 = LINE ( 'NONE', #926, #258 ) ;
#1012 = DIRECTION ( 'NONE',  ( -0.000000000000000000, 1.000000000000000000, -0.000000000000000000 ) ) ;
#1013 = ORIENTED_EDGE ( 'NONE', *, *, #816, .F. ) ;
#1014 = EDGE_CURVE ( 'NONE', #897, #1017, #136, .T. ) ;
#1015 = CARTESIAN_POINT ( 'NONE',  ( -15.00000000000000000, 10.00000000000000000, -52.91502622129181077 ) ) ;
#1016 = CARTESIAN_POINT ( 'NONE',  ( 50.99019513592784136, 4.000000000000000000, 12.50000000000000000 ) ) ;
#1017 = VERTEX_POINT ( 'NONE', #403 ) ;
#1018 = VERTEX_POINT ( 'NONE', #867 ) ;
#1019 = AXIS2_PLACEMENT_3D ( 'NONE', #875, #1028, #159 ) ;
#1020 = CARTESIAN_POINT ( 'NONE',  ( 55.99019513592784847, 4.000000000000000000, -7.500000000000000000 ) ) ;
#1021 = DIRECTION ( 'NONE',  ( -0.000000000000000000, -1.000000000000000000, -0.000000000000000000 ) ) ;
#1022 = FACE_BOUND ( 'NONE', #603, .T. ) ;
#1023 = ORIENTED_EDGE ( 'NONE', *, *, #118, .F. ) ;
#1024 = CARTESIAN_POINT ( 'NONE',  ( -55.99019513592784847, 4.000000000000000000, -7.500000000000000888 ) ) ;
#1025 = EDGE_CURVE ( 'NONE', #738, #566, #151, .T. ) ;
#1026 = LINE ( 'NONE', #864, #485 ) ;
#1027 = CIRCLE ( 'NONE', #760, 5.000000000000000000 ) ;
#1028 = DIRECTION ( 'NONE',  ( 0.000000000000000000, 1.000000000000000000, 0.000000000000000000 ) ) ;
#1029 = ORIENTED_EDGE ( 'NONE', *, *, #872, .F. ) ;
#1030 = DIRECTION ( 'NONE',  ( 0.000000000000000000, -0.000000000000000000, 1.000000000000000000 ) ) ;
#1031 = ADVANCED_FACE ( 'NONE', ( #321, #790 ), #72, .F. ) ;
#1032 = DIRECTION ( 'NONE',  ( -1.000000000000000000, 0.000000000000000000, 0.000000000000000000 ) ) ;
#1033 = LINE ( 'NONE', #792, #251 ) ;
#1034 = VERTEX_POINT ( 'NONE', #316 ) ;
#1035 = CARTESIAN_POINT ( 'NONE',  ( 9.999999999999994671, 10.00000000000000000, -50.31152949374526884 ) ) ;
#1036 = DIRECTION ( 'NONE',  ( 0.000000000000000000, 0.000000000000000000, 1.000000000000000000 ) ) ;
#1037 = CARTESIAN_POINT ( 'NONE',  ( 55.99019513592784847, 10.00000000000000000, 7.500000000000000888 ) ) ;
#1038 = VERTEX_POINT ( 'NONE', #573 ) ;
ENDSEC;
END-ISO-10303-21;
