ISO-10303-21;
HEADER;
FILE_DESCRIPTION (( 'STEP AP203' ),
    '1' );
FILE_NAME ('Cone1_Ver1.STEP',
    '2025-10-02T13:42:39',
    ( '' ),
    ( '' ),
    'SwSTEP 2.0',
    'SolidWorks 2025',
    '' );
FILE_SCHEMA (( 'CONFIG_CONTROL_DESIGN' ));
ENDSEC;

DATA;
#1 = ORIENTED_EDGE ( 'NONE', *, *, #309, .T. ) ;
#2 = PERSON_AND_ORGANIZATION ( #5, #384 ) ;
#3 = DIRECTION ( 'NONE',  ( 0.000000000000000000, -1.000000000000000000, 0.000000000000000000 ) ) ;
#4 = ORIENTED_EDGE ( 'NONE', *, *, #85, .F. ) ;
#5 = PERSON ( 'UNSPECIFIED', 'UNSPECIFIED', 'UNSPECIFIED', ('UNSPECIFIED'), ('UNSPECIFIED'), ('UNSPECIFIED') ) ;
#6 = APPROVAL_DATE_TIME ( #97, #305 ) ;
#7 = EDGE_CURVE ( 'NONE', #429, #518, #358, .T. ) ;
#8 = LINE ( 'NONE', #225, #131 ) ;
#9 = ORIENTED_EDGE ( 'NONE', *, *, #454, .F. ) ;
#10 = CC_DESIGN_DATE_AND_TIME_ASSIGNMENT ( #414, #420, ( #445 ) ) ;
#11 = CYLINDRICAL_SURFACE ( 'NONE', #391, 5.000000000000000888 ) ;
#12 = LINE ( 'NONE', #68, #554 ) ;
#13 = DIRECTION ( 'NONE',  ( 0.000000000000000000, 0.000000000000000000, 1.000000000000000000 ) ) ;
#14 = DIRECTION ( 'NONE',  ( -0.000000000000000000, -1.000000000000000000, -0.000000000000000000 ) ) ;
#15 = AXIS2_PLACEMENT_3D ( 'NONE', #75, #408, #165 ) ;
#16 = EDGE_CURVE ( 'NONE', #102, #398, #12, .T. ) ;
#17 = VERTEX_POINT ( 'NONE', #472 ) ;
#18 = AXIS2_PLACEMENT_3D ( 'NONE', #402, #497, #168 ) ;
#19 = ORIENTED_EDGE ( 'NONE', *, *, #252, .F. ) ;
#20 = ORIENTED_EDGE ( 'NONE', *, *, #468, .F. ) ;
#21 = DIRECTION ( 'NONE',  ( -1.224646799147353207E-16, 1.000000000000000000, -0.000000000000000000 ) ) ;
#22 = VERTEX_POINT ( 'NONE', #563 ) ;
#23 = LINE ( 'NONE', #251, #74 ) ;
#24 = CC_DESIGN_APPROVAL ( #397, ( #567 ) ) ;
#25 = PERSON_AND_ORGANIZATION_ROLE ( 'classification_officer' ) ;
#26 = CARTESIAN_POINT ( 'NONE',  ( 0.000000000000000000, 30.00000000000000000, 29.99999999999999645 ) ) ;
#27 = CARTESIAN_POINT ( 'NONE',  ( -3.081487911019577365E-30, -50.00000000000000000, -1.999999999999999112 ) ) ;
#28 = ORIENTED_EDGE ( 'NONE', *, *, #50, .F. ) ;
#29 = AXIS2_PLACEMENT_3D ( 'NONE', #247, #303, #118 ) ;
#30 = CARTESIAN_POINT ( 'NONE',  ( 30.00000000000000355, -50.00000000000000000, -29.59590275976648144 ) ) ;
#31 = AXIS2_PLACEMENT_3D ( 'NONE', #587, #310, #438 ) ;
#32 = ADVANCED_FACE ( 'NONE', ( #340, #338 ), #246, .T. ) ;
#33 = DIRECTION ( 'NONE',  ( 0.000000000000000000, 0.000000000000000000, -1.000000000000000000 ) ) ;
#34 = VECTOR ( 'NONE', #193, 1000.000000000000000 ) ;
#35 = CYLINDRICAL_SURFACE ( 'NONE', #314, 1.600000000000000755 ) ;
#36 = DIRECTION ( 'NONE',  ( 1.000000000000000000, 0.000000000000000000, 0.000000000000000000 ) ) ;
#37 = DIRECTION ( 'NONE',  ( -0.000000000000000000, -1.000000000000000000, -0.000000000000000000 ) ) ;
#38 = DIRECTION ( 'NONE',  ( -1.224646799147353207E-16, 1.000000000000000000, -0.000000000000000000 ) ) ;
#39 = ORIENTED_EDGE ( 'NONE', *, *, #265, .F. ) ;
#40 = DIRECTION ( 'NONE',  ( 0.000000000000000000, 0.000000000000000000, -1.000000000000000000 ) ) ;
#41 = EDGE_CURVE ( 'NONE', #410, #407, #155, .T. ) ;
#42 = LINE ( 'NONE', #478, #532 ) ;
#43 = ORIENTED_EDGE ( 'NONE', *, *, #473, .F. ) ;
#44 = FACE_OUTER_BOUND ( 'NONE', #188, .T. ) ;
#45 = LINE ( 'NONE', #373, #173 ) ;
#46 = VERTEX_POINT ( 'NONE', #390 ) ;
#47 = PERSON_AND_ORGANIZATION ( #5, #384 ) ;
#48 = CYLINDRICAL_SURFACE ( 'NONE', #157, 34.99999999999999289 ) ;
#49 = VERTEX_POINT ( 'NONE', #201 ) ;
#50 = EDGE_CURVE ( 'NONE', #410, #448, #571, .T. ) ;
#51 = DIRECTION ( 'NONE',  ( -1.000000000000000000, 0.000000000000000000, 0.000000000000000000 ) ) ;
#52 = FACE_OUTER_BOUND ( 'NONE', #226, .T. ) ;
#53 = ORIENTED_EDGE ( 'NONE', *, *, #343, .T. ) ;
#54 = DIRECTION ( 'NONE',  ( 1.000000000000000000, 0.000000000000000000, 0.000000000000000000 ) ) ;
#55 = CARTESIAN_POINT ( 'NONE',  ( -2.311115933264683024E-30, -45.00000000000000000, 1.999999999999999112 ) ) ;
#56 = AXIS2_PLACEMENT_3D ( 'NONE', #101, #282, #151 ) ;
#57 = LOCAL_TIME ( 20, 42, 39.00000000000000000, #140 ) ;
#58 = VECTOR ( 'NONE', #228, 1000.000000000000000 ) ;
#59 = CALENDAR_DATE ( 2025, 2, 10 ) ;
#60 = ORIENTED_EDGE ( 'NONE', *, *, #137, .F. ) ;
#61 = CARTESIAN_POINT ( 'NONE',  ( 30.00000000000000355, 20.00000000000000355, -29.59590275976648144 ) ) ;
#62 = CARTESIAN_POINT ( 'NONE',  ( 30.00000000000000355, 0.000000000000000000, 29.99999999999999645 ) ) ;
#63 = ADVANCED_FACE ( 'NONE', ( #575 ), #91, .T. ) ;
#64 = ORIENTED_EDGE ( 'NONE', *, *, #137, .T. ) ;
#65 = DIRECTION ( 'NONE',  ( 0.000000000000000000, -1.000000000000000000, 0.000000000000000000 ) ) ;
#66 = PLANE ( 'NONE',  #29 ) ;
#67 = AXIS2_PLACEMENT_3D ( 'NONE', #135, #250, #406 ) ;
#68 = CARTESIAN_POINT ( 'NONE',  ( 35.00000000000000000, 0.000000000000000000, 29.99999999999999645 ) ) ;
#69 = APPROVAL_DATE_TIME ( #512, #397 ) ;
#70 = ORIENTED_EDGE ( 'NONE', *, *, #256, .T. ) ;
#71 = ADVANCED_FACE ( 'NONE', ( #409 ), #119, .F. ) ;
#72 = LINE ( 'NONE', #26, #335 ) ;
#73 = DIRECTION ( 'NONE',  ( -1.000000000000000000, -1.224646799147353207E-16, 0.000000000000000000 ) ) ;
#74 = VECTOR ( 'NONE', #249, 1000.000000000000000 ) ;
#75 = CARTESIAN_POINT ( 'NONE',  ( 6.123233995736766085E-15, -50.00000000000000000, 0.000000000000000000 ) ) ;
#76 = CARTESIAN_POINT ( 'NONE',  ( 0.000000000000000000, -1.122515770092296487E-14, 34.99999999999999289 ) ) ;
#77 = ORIENTED_EDGE ( 'NONE', *, *, #154, .T. ) ;
#78 = LINE ( 'NONE', #356, #519 ) ;
#79 = CARTESIAN_POINT ( 'NONE',  ( 30.00000000000000355, 30.00000000000000000, -29.59590275976648144 ) ) ;
#80 = CIRCLE ( 'NONE', #223, 1.600000000000000755 ) ;
#81 = CIRCLE ( 'NONE', #260, 1.999999999999999112 ) ;
#82 = LINE ( 'NONE', #219, #475 ) ;
#83 = CARTESIAN_POINT ( 'NONE',  ( 30.00000000000000355, -50.00000000000000000, -31.19590275976648286 ) ) ;
#84 = ORIENTED_EDGE ( 'NONE', *, *, #530, .F. ) ;
#85 = EDGE_CURVE ( 'NONE', #505, #177, #269, .T. ) ;
#86 = LINE ( 'NONE', #163, #174 ) ;
#87 = CARTESIAN_POINT ( 'NONE',  ( 0.000000000000000000, 0.000000000000000000, 0.000000000000000000 ) ) ;
#88 = ORIENTED_EDGE ( 'NONE', *, *, #234, .F. ) ;
#89 = APPROVAL ( #143, 'UNSPECIFIED' ) ;
#90 = PRODUCT_DEFINITION_SHAPE ( 'NONE', 'NONE',  #445 ) ;
#91 = PLANE ( 'NONE',  #466 ) ;
#92 = ORIENTED_EDGE ( 'NONE', *, *, #585, .F. ) ;
#93 = APPLICATION_PROTOCOL_DEFINITION ( 'international standard', 'config_control_design', 1994, #289 ) ;
#94 = DIRECTION ( 'NONE',  ( 0.000000000000000000, 1.000000000000000000, 0.000000000000000000 ) ) ;
#95 = EDGE_CURVE ( 'NONE', #429, #123, #488, .T. ) ;
#96 = ORIENTED_EDGE ( 'NONE', *, *, #395, .F. ) ;
#97 = DATE_AND_TIME ( #506, #57 ) ;
#98 = DIRECTION ( 'NONE',  ( 0.000000000000000000, 0.000000000000000000, -1.000000000000000000 ) ) ;
#99 = ORIENTED_EDGE ( 'NONE', *, *, #256, .F. ) ;
#100 = CARTESIAN_POINT ( 'NONE',  ( 0.000000000000000000, 30.00000000000000000, -34.99999999999999289 ) ) ;
#101 = CARTESIAN_POINT ( 'NONE',  ( 35.00000000000000000, 0.000000000000000000, 0.000000000000000000 ) ) ;
#102 = VERTEX_POINT ( 'NONE', #301 ) ;
#103 = ADVANCED_FACE ( 'NONE', ( #304 ), #589, .T. ) ;
#104 = CYLINDRICAL_SURFACE ( 'NONE', #204, 5.000000000000000888 ) ;
#105 = AXIS2_PLACEMENT_3D ( 'NONE', #329, #564, #366 ) ;
#106 = CIRCLE ( 'NONE', #393, 5.000000000000000888 ) ;
#107 = EDGE_LOOP ( 'NONE', ( #463, #569 ) ) ;
#108 = LINE ( 'NONE', #144, #34 ) ;
#109 = CARTESIAN_POINT ( 'NONE',  ( 0.000000000000000000, 30.00000000000000000, 0.000000000000000000 ) ) ;
#110 = DATE_TIME_ROLE ( 'classification_date' ) ;
#111 = ORIENTED_EDGE ( 'NONE', *, *, #413, .F. ) ;
#112 = ORIENTED_EDGE ( 'NONE', *, *, #359, .F. ) ;
#113 = EDGE_CURVE ( 'NONE', #407, #253, #176, .T. ) ;
#114 = CIRCLE ( 'NONE', #572, 1.600000000000000755 ) ;
#115 = ORIENTED_EDGE ( 'NONE', *, *, #395, .T. ) ;
#116 = AXIS2_PLACEMENT_3D ( 'NONE', #457, #13, #54 ) ;
#117 = CARTESIAN_POINT ( 'NONE',  ( 0.000000000000000000, 30.00000000000000000, 29.99999999999999645 ) ) ;
#118 = DIRECTION ( 'NONE',  ( -1.000000000000000000, -1.224646799147353207E-16, 0.000000000000000000 ) ) ;
#119 = PLANE ( 'NONE',  #122 ) ;
#120 = EDGE_CURVE ( 'NONE', #17, #307, #42, .T. ) ;
#121 = DIRECTION ( 'NONE',  ( 0.000000000000000000, 0.000000000000000000, 1.000000000000000000 ) ) ;
#122 = AXIS2_PLACEMENT_3D ( 'NONE', #87, #36, #160 ) ;
#123 = VERTEX_POINT ( 'NONE', #357 ) ;
#124 = CARTESIAN_POINT ( 'NONE',  ( 0.000000000000000000, 30.00000000000000000, 0.000000000000000000 ) ) ;
#125 = CARTESIAN_POINT ( 'NONE',  ( 30.00000000000000000, 19.99999999999999645, 34.99999999999999289 ) ) ;
#126 = CARTESIAN_POINT ( 'NONE',  ( 1.499759782661861440E-32, -45.00000000000000000, 0.000000000000000000 ) ) ;
#127 = CARTESIAN_POINT ( 'NONE',  ( -35.00100000000000477, 19.99999999999999645, 34.99999999999999289 ) ) ;
#128 = EDGE_CURVE ( 'NONE', #123, #49, #80, .T. ) ;
#129 = ORIENTED_EDGE ( 'NONE', *, *, #389, .T. ) ;
#130 = CC_DESIGN_APPROVAL ( #305, ( #350 ) ) ;
#131 = VECTOR ( 'NONE', #549, 1000.000000000000000 ) ;
#132 = DIRECTION ( 'NONE',  ( 0.000000000000000000, 0.8346094065617252200, -0.5508422083307386030 ) ) ;
#133 = DIRECTION ( 'NONE',  ( 0.000000000000000000, 1.000000000000000000, -0.000000000000000000 ) ) ;
#134 = ORIENTED_EDGE ( 'NONE', *, *, #190, .T. ) ;
#135 = CARTESIAN_POINT ( 'NONE',  ( 30.00000000000000355, 19.99999999999999645, 29.99999999999999645 ) ) ;
#136 = EDGE_LOOP ( 'NONE', ( #494, #380, #146, #222 ) ) ;
#137 = EDGE_CURVE ( 'NONE', #556, #153, #72, .T. ) ;
#138 = FACE_OUTER_BOUND ( 'NONE', #486, .T. ) ;
#139 = ORIENTED_EDGE ( 'NONE', *, *, #265, .T. ) ;
#140 = COORDINATED_UNIVERSAL_TIME_OFFSET ( 7, 0, .AHEAD. ) ;
#141 = DIRECTION ( 'NONE',  ( 0.000000000000000000, 0.000000000000000000, 1.000000000000000000 ) ) ;
#142 = ORIENTED_EDGE ( 'NONE', *, *, #190, .F. ) ;
#143 = APPROVAL_STATUS ( 'not_yet_approved' ) ;
#144 = CARTESIAN_POINT ( 'NONE',  ( 30.00000000000000000, 30.00000000000000000, 34.99999999999999289 ) ) ;
#145 = PERSON_AND_ORGANIZATION_ROLE ( 'design_supplier' ) ;
#146 = ORIENTED_EDGE ( 'NONE', *, *, #292, .T. ) ;
#147 = APPROVAL_ROLE ( '' ) ;
#148 = DIRECTION ( 'NONE',  ( -0.000000000000000000, 0.8490566037735849392, 0.5283018867924528239 ) ) ;
#149 = EDGE_LOOP ( 'NONE', ( #375, #20, #318, #9 ) ) ;
#150 = EDGE_CURVE ( 'NONE', #410, #237, #297, .T. ) ;
#151 = DIRECTION ( 'NONE',  ( 0.000000000000000000, 0.000000000000000000, -1.000000000000000000 ) ) ;
#152 = VERTEX_POINT ( 'NONE', #447 ) ;
#153 = VERTEX_POINT ( 'NONE', #538 ) ;
#154 = EDGE_CURVE ( 'NONE', #153, #481, #313, .T. ) ;
#155 = LINE ( 'NONE', #541, #588 ) ;
#156 = VECTOR ( 'NONE', #354, 1000.000000000000000 ) ;
#157 = AXIS2_PLACEMENT_3D ( 'NONE', #424, #14, #182 ) ;
#158 = CARTESIAN_POINT ( 'NONE',  ( 0.000000000000000000, -50.00000000000000000, 0.000000000000000000 ) ) ;
#159 = APPROVAL_PERSON_ORGANIZATION ( #47, #89, #147 ) ;
#160 = DIRECTION ( 'NONE',  ( 0.000000000000000000, 0.000000000000000000, -1.000000000000000000 ) ) ;
#161 = ADVANCED_FACE ( 'NONE', ( #433 ), #579, .F. ) ;
#162 = CC_DESIGN_PERSON_AND_ORGANIZATION_ASSIGNMENT ( #181, #227, ( #445 ) ) ;
#163 = CARTESIAN_POINT ( 'NONE',  ( 35.00000000000000000, 0.000000000000000000, -29.99999999999999645 ) ) ;
#164 = CIRCLE ( 'NONE', #67, 5.000000000000000888 ) ;
#165 = DIRECTION ( 'NONE',  ( -1.000000000000000000, 0.000000000000000000, 0.000000000000000000 ) ) ;
#166 = DIRECTION ( 'NONE',  ( 1.000000000000000000, 1.224646799147353207E-16, 0.000000000000000000 ) ) ;
#167 = EDGE_CURVE ( 'NONE', #398, #508, #164, .T. ) ;
#168 = DIRECTION ( 'NONE',  ( 0.000000000000000000, 0.000000000000000000, -1.000000000000000000 ) ) ;
#169 = AXIS2_PLACEMENT_3D ( 'NONE', #496, #482, #254 ) ;
#170 = FACE_OUTER_BOUND ( 'NONE', #501, .T. ) ;
#171 = DIRECTION ( 'NONE',  ( -0.000000000000000000, 0.000000000000000000, 1.000000000000000000 ) ) ;
#172 = ORIENTED_EDGE ( 'NONE', *, *, #120, .F. ) ;
#173 = VECTOR ( 'NONE', #377, 1000.000000000000000 ) ;
#174 = VECTOR ( 'NONE', #490, 1000.000000000000000 ) ;
#175 = DIRECTION ( 'NONE',  ( -1.000000000000000000, 0.000000000000000000, 0.000000000000000000 ) ) ;
#176 = LINE ( 'NONE', #117, #203 ) ;
#177 = VERTEX_POINT ( 'NONE', #27 ) ;
#178 = EDGE_CURVE ( 'NONE', #518, #49, #205, .T. ) ;
#179 = FACE_OUTER_BOUND ( 'NONE', #526, .T. ) ;
#180 = ORIENTED_EDGE ( 'NONE', *, *, #154, .F. ) ;
#181 = PERSON_AND_ORGANIZATION ( #5, #384 ) ;
#182 = DIRECTION ( 'NONE',  ( 0.000000000000000000, 0.000000000000000000, -1.000000000000000000 ) ) ;
#183 = EDGE_LOOP ( 'NONE', ( #70, #64, #229, #296, #284, #4, #96, #28, #586, #217, #566, #198, #142, #172 ) ) ;
#184 = AXIS2_PLACEMENT_3D ( 'NONE', #127, #216, #266 ) ;
#185 = DIRECTION ( 'NONE',  ( 0.000000000000000000, 0.000000000000000000, -1.000000000000000000 ) ) ;
#186 = AXIS2_PLACEMENT_3D ( 'NONE', #124, #37, #40 ) ;
#187 = DIRECTION ( 'NONE',  ( 0.000000000000000000, 0.000000000000000000, -1.000000000000000000 ) ) ;
#188 = EDGE_LOOP ( 'NONE', ( #232, #208, #551, #115 ) ) ;
#189 = DIRECTION ( 'NONE',  ( 0.000000000000000000, 0.000000000000000000, 1.000000000000000000 ) ) ;
#190 = EDGE_CURVE ( 'NONE', #307, #199, #443, .T. ) ;
#191 = EDGE_LOOP ( 'NONE', ( #19, #77, #333, #112 ) ) ;
#192 = DIRECTION ( 'NONE',  ( 0.000000000000000000, 1.000000000000000000, 0.000000000000000000 ) ) ;
#193 = DIRECTION ( 'NONE',  ( -0.000000000000000000, 1.000000000000000000, -0.000000000000000000 ) ) ;
#194 = VERTEX_POINT ( 'NONE', #453 ) ;
#195 = VECTOR ( 'NONE', #262, 1000.000000000000000 ) ;
#196 = DIRECTION ( 'NONE',  ( 0.000000000000000000, -1.000000000000000000, 0.000000000000000000 ) ) ;
#197 = ADVANCED_FACE ( 'NONE', ( #52 ), #231, .F. ) ;
#198 = ORIENTED_EDGE ( 'NONE', *, *, #280, .F. ) ;
#199 = VERTEX_POINT ( 'NONE', #55 ) ;
#200 = FACE_OUTER_BOUND ( 'NONE', #274, .T. ) ;
#201 = CARTESIAN_POINT ( 'NONE',  ( 30.00000000000000355, 30.00000000000000000, -31.19590275976648286 ) ) ;
#202 = CARTESIAN_POINT ( 'NONE',  ( 35.00000000000000000, 19.99999999999999645, 29.99999999999999645 ) ) ;
#203 = VECTOR ( 'NONE', #450, 1000.000000000000000 ) ;
#204 = AXIS2_PLACEMENT_3D ( 'NONE', #62, #3, #187 ) ;
#205 = LINE ( 'NONE', #83, #400 ) ;
#206 = CC_DESIGN_APPROVAL ( #89, ( #445 ) ) ;
#207 = CARTESIAN_POINT ( 'NONE',  ( 0.000000000000000000, 19.99999999999999645, 0.000000000000000000 ) ) ;
#208 = ORIENTED_EDGE ( 'NONE', *, *, #436, .T. ) ;
#209 = DIRECTION ( 'NONE',  ( -1.224646799147353207E-16, 1.000000000000000000, -0.000000000000000000 ) ) ;
#210 = AXIS2_PLACEMENT_3D ( 'NONE', #240, #196, #474 ) ;
#211 = AXIS2_PLACEMENT_3D ( 'NONE', #403, #308, #362 ) ;
#212 = ADVANCED_FACE ( 'NONE', ( #553 ), #11, .T. ) ;
#213 = CARTESIAN_POINT ( 'NONE',  ( 30.00000000000000355, 20.00000000000000355, -27.99590275976648357 ) ) ;
#214 = DIRECTION ( 'NONE',  ( 0.000000000000000000, 0.000000000000000000, -1.000000000000000000 ) ) ;
#215 = CARTESIAN_POINT ( 'NONE',  ( 30.00000000000000000, 30.00000000000000000, -34.99999999999999289 ) ) ;
#216 = DIRECTION ( 'NONE',  ( 0.000000000000000000, -1.000000000000000000, 0.000000000000000000 ) ) ;
#217 = ORIENTED_EDGE ( 'NONE', *, *, #113, .T. ) ;
#218 = APPLICATION_CONTEXT ( 'configuration controlled 3d designs of mechanical parts and assemblies' ) ;
#219 = CARTESIAN_POINT ( 'NONE',  ( 30.00000000000000000, 30.00000000000000000, -34.99999999999999289 ) ) ;
#220 = CARTESIAN_POINT ( 'NONE',  ( -35.00100000000000477, 30.00000000000000000, -34.99999999999999289 ) ) ;
#221 = ADVANCED_FACE ( 'NONE', ( #337 ), #510, .T. ) ;
#222 = ORIENTED_EDGE ( 'NONE', *, *, #302, .F. ) ;
#223 = AXIS2_PLACEMENT_3D ( 'NONE', #79, #363, #317 ) ;
#224 = MECHANICAL_CONTEXT ( 'NONE', #218, 'mechanical' ) ;
#225 = CARTESIAN_POINT ( 'NONE',  ( -35.00100000000000477, 30.00000000000000000, 34.99999999999999289 ) ) ;
#226 = EDGE_LOOP ( 'NONE', ( #382, #428, #439, #416 ) ) ;
#227 = PERSON_AND_ORGANIZATION_ROLE ( 'creator' ) ;
#228 = DIRECTION ( 'NONE',  ( 1.000000000000000000, 0.000000000000000000, 0.000000000000000000 ) ) ;
#229 = ORIENTED_EDGE ( 'NONE', *, *, #252, .T. ) ;
#230 = PLANE ( 'NONE',  #440 ) ;
#231 = CYLINDRICAL_SURFACE ( 'NONE', #105, 1.600000000000000755 ) ;
#232 = ORIENTED_EDGE ( 'NONE', *, *, #530, .T. ) ;
#233 = DATE_AND_TIME ( #509, #495 ) ;
#234 = EDGE_CURVE ( 'NONE', #237, #330, #417, .T. ) ;
#235 = CIRCLE ( 'NONE', #444, 30.00000000000000000 ) ;
#236 = DIRECTION ( 'NONE',  ( 0.000000000000000000, 1.000000000000000000, 0.000000000000000000 ) ) ;
#237 = VERTEX_POINT ( 'NONE', #558 ) ;
#238 =( NAMED_UNIT ( * ) PLANE_ANGLE_UNIT ( ) SI_UNIT ( $, .RADIAN. ) );
#239 = CARTESIAN_POINT ( 'NONE',  ( 35.00000000000000000, 19.99999999999999645, -29.99999999999999289 ) ) ;
#240 = CARTESIAN_POINT ( 'NONE',  ( 30.00000000000000355, 20.00000000000000355, -29.59590275976648144 ) ) ;
#241 = CC_DESIGN_SECURITY_CLASSIFICATION ( #567, ( #350 ) ) ;
#242 = COORDINATED_UNIVERSAL_TIME_OFFSET ( 7, 0, .AHEAD. ) ;
#243 = DIRECTION ( 'NONE',  ( 0.000000000000000000, 1.000000000000000000, 0.000000000000000000 ) ) ;
#244 = CARTESIAN_POINT ( 'NONE',  ( 5.249159239316501846E-31, -4.286263797015735707E-15, 0.000000000000000000 ) ) ;
#245 = CALENDAR_DATE ( 2025, 2, 10 ) ;
#246 = PLANE ( 'NONE',  #349 ) ;
#247 = CARTESIAN_POINT ( 'NONE',  ( 2.000000000000005329, -50.00000000000000000, 0.000000000000000000 ) ) ;
#248 = ORIENTED_EDGE ( 'NONE', *, *, #514, .T. ) ;
#249 = DIRECTION ( 'NONE',  ( 0.000000000000000000, -0.8346094065617252200, -0.5508422083307386030 ) ) ;
#250 = DIRECTION ( 'NONE',  ( 0.000000000000000000, -1.000000000000000000, 0.000000000000000000 ) ) ;
#251 = CARTESIAN_POINT ( 'NONE',  ( 0.000000000000000000, -53.03030303030303116, 0.000000000000000000 ) ) ;
#252 = EDGE_CURVE ( 'NONE', #153, #194, #45, .T. ) ;
#253 = VERTEX_POINT ( 'NONE', #464 ) ;
#254 = DIRECTION ( 'NONE',  ( 0.000000000000000000, 0.000000000000000000, 1.000000000000000000 ) ) ;
#255 = DIRECTION ( 'NONE',  ( -0.000000000000000000, -1.000000000000000000, -0.000000000000000000 ) ) ;
#256 = EDGE_CURVE ( 'NONE', #17, #556, #423, .T. ) ;
#257 = LINE ( 'NONE', #401, #555 ) ;
#258 = DIRECTION ( 'NONE',  ( 0.000000000000000000, 0.000000000000000000, -1.000000000000000000 ) ) ;
#259 = CLOSED_SHELL ( 'NONE', ( #430, #71, #574, #379, #334, #197, #327, #63, #103, #212, #535, #568, #221, #32, #161, #480, #544 ) ) ;
#260 = AXIS2_PLACEMENT_3D ( 'NONE', #442, #209, #175 ) ;
#261 = CYLINDRICAL_SURFACE ( 'NONE', #186, 30.00000000000000000 ) ;
#262 = DIRECTION ( 'NONE',  ( -0.000000000000000000, 1.000000000000000000, -0.000000000000000000 ) ) ;
#263 = EDGE_LOOP ( 'NONE', ( #323, #92 ) ) ;
#264 = FACE_BOUND ( 'NONE', #263, .T. ) ;
#265 = EDGE_CURVE ( 'NONE', #46, #102, #106, .T. ) ;
#266 = DIRECTION ( 'NONE',  ( 0.000000000000000000, -0.000000000000000000, -1.000000000000000000 ) ) ;
#267 = ORIENTED_EDGE ( 'NONE', *, *, #234, .T. ) ;
#268 = APPLICATION_PROTOCOL_DEFINITION ( 'international standard', 'config_control_design', 1994, #218 ) ;
#269 = LINE ( 'NONE', #158, #341 ) ;
#270 = DESIGN_CONTEXT ( 'detailed design', #289, 'design' ) ;
#271 = ORIENTED_EDGE ( 'NONE', *, *, #280, .T. ) ;
#272 = COORDINATED_UNIVERSAL_TIME_OFFSET ( 7, 0, .AHEAD. ) ;
#273 = DIRECTION ( 'NONE',  ( 0.000000000000000000, 0.000000000000000000, 1.000000000000000000 ) ) ;
#274 = EDGE_LOOP ( 'NONE', ( #84, #315 ) ) ;
#275 =( LENGTH_UNIT ( ) NAMED_UNIT ( * ) SI_UNIT ( .MILLI., .METRE. ) );
#276 = CARTESIAN_POINT ( 'NONE',  ( 0.000000000000000000, 0.000000000000000000, 0.000000000000000000 ) ) ;
#277 = CIRCLE ( 'NONE', #388, 1.600000000000000755 ) ;
#278 = APPROVAL_PERSON_ORGANIZATION ( #565, #397, #422 ) ;
#279 = ORIENTED_EDGE ( 'NONE', *, *, #343, .F. ) ;
#280 = EDGE_CURVE ( 'NONE', #199, #525, #562, .T. ) ;
#281 = DIRECTION ( 'NONE',  ( 0.000000000000000000, 0.000000000000000000, -1.000000000000000000 ) ) ;
#282 = DIRECTION ( 'NONE',  ( 1.000000000000000000, 0.000000000000000000, 0.000000000000000000 ) ) ;
#283 = PERSON_AND_ORGANIZATION ( #5, #384 ) ;
#284 = ORIENTED_EDGE ( 'NONE', *, *, #436, .F. ) ;
#285 = CC_DESIGN_PERSON_AND_ORGANIZATION_ASSIGNMENT ( #476, #25, ( #567 ) ) ;
#286 = VECTOR ( 'NONE', #500, 1000.000000000000000 ) ;
#287 = VECTOR ( 'NONE', #148, 1000.000000000000000 ) ;
#288 = DIRECTION ( 'NONE',  ( 0.000000000000000000, 0.000000000000000000, -1.000000000000000000 ) ) ;
#289 = APPLICATION_CONTEXT ( 'configuration controlled 3d designs of mechanical parts and assemblies' ) ;
#290 = LOCAL_TIME ( 20, 42, 39.00000000000000000, #272 ) ;
#291 = ORIENTED_EDGE ( 'NONE', *, *, #16, .T. ) ;
#292 = EDGE_CURVE ( 'NONE', #508, #46, #108, .T. ) ;
#293 = EDGE_LOOP ( 'NONE', ( #432, #383, #111, #271 ) ) ;
#294 = CIRCLE ( 'NONE', #15, 1.999999999999999112 ) ;
#295 = PRODUCT_RELATED_PRODUCT_CATEGORY ( 'detail', '', ( #550 ) ) ;
#296 = ORIENTED_EDGE ( 'NONE', *, *, #578, .F. ) ;
#297 = CIRCLE ( 'NONE', #18, 34.99999999999999289 ) ;
#298 = CIRCLE ( 'NONE', #517, 34.99999999999999289 ) ;
#299 = DATE_AND_TIME ( #59, #455 ) ;
#300 = ORIENTED_EDGE ( 'NONE', *, *, #514, .F. ) ;
#301 = CARTESIAN_POINT ( 'NONE',  ( 35.00000000000000000, 30.00000000000000000, 29.99999999999999645 ) ) ;
#302 = EDGE_CURVE ( 'NONE', #407, #46, #8, .T. ) ;
#303 = DIRECTION ( 'NONE',  ( -1.224646799147353207E-16, 1.000000000000000000, 0.000000000000000000 ) ) ;
#304 = FACE_OUTER_BOUND ( 'NONE', #320, .T. ) ;
#305 = APPROVAL ( #368, 'UNSPECIFIED' ) ;
#306 = DIRECTION ( 'NONE',  ( 0.000000000000000000, 0.000000000000000000, 1.000000000000000000 ) ) ;
#307 = VERTEX_POINT ( 'NONE', #381 ) ;
#308 = DIRECTION ( 'NONE',  ( 0.000000000000000000, -1.000000000000000000, 0.000000000000000000 ) ) ;
#309 = EDGE_CURVE ( 'NONE', #49, #123, #114, .T. ) ;
#310 = DIRECTION ( 'NONE',  ( 0.000000000000000000, -1.000000000000000000, 0.000000000000000000 ) ) ;
#311 = UNCERTAINTY_MEASURE_WITH_UNIT (LENGTH_MEASURE( 1.000000000000000082E-05 ), #275, 'distance_accuracy_value', 'NONE');
#312 = CARTESIAN_POINT ( 'NONE',  ( 0.000000000000000000, -1.122515770092296487E-14, -34.99999999999999289 ) ) ;
#313 = LINE ( 'NONE', #220, #286 ) ;
#314 = AXIS2_PLACEMENT_3D ( 'NONE', #30, #446, #306 ) ;
#315 = ORIENTED_EDGE ( 'NONE', *, *, #85, .T. ) ;
#316 = DIRECTION ( 'NONE',  ( -0.000000000000000000, -1.000000000000000000, -0.000000000000000000 ) ) ;
#317 = DIRECTION ( 'NONE',  ( 0.000000000000000000, 0.000000000000000000, 1.000000000000000000 ) ) ;
#318 = ORIENTED_EDGE ( 'NONE', *, *, #524, .F. ) ;
#319 = CARTESIAN_POINT ( 'NONE',  ( -35.00100000000000477, 30.00000000000000000, 34.99999999999999289 ) ) ;
#320 = EDGE_LOOP ( 'NONE', ( #279, #560, #477, #546 ) ) ;
#321 = PERSON_AND_ORGANIZATION_ROLE ( 'design_owner' ) ;
#322 = LINE ( 'NONE', #504, #336 ) ;
#323 = ORIENTED_EDGE ( 'NONE', *, *, #7, .F. ) ;
#324 = AXIS2_PLACEMENT_3D ( 'NONE', #492, #38, #545 ) ;
#325 = CALENDAR_DATE ( 2025, 2, 10 ) ;
#326 = LINE ( 'NONE', #392, #419 ) ;
#327 = ADVANCED_FACE ( 'NONE', ( #138 ), #104, .T. ) ;
#328 = ORIENTED_EDGE ( 'NONE', *, *, #359, .T. ) ;
#329 = CARTESIAN_POINT ( 'NONE',  ( 30.00000000000000355, -50.00000000000000000, -29.59590275976648144 ) ) ;
#330 = VERTEX_POINT ( 'NONE', #239 ) ;
#331 = CARTESIAN_POINT ( 'NONE',  ( -35.00100000000000477, 30.00000000000000000, -34.99999999999999289 ) ) ;
#332 = CARTESIAN_POINT ( 'NONE',  ( 30.00000000000000355, 30.00000000000000000, -29.59590275976648144 ) ) ;
#333 = ORIENTED_EDGE ( 'NONE', *, *, #468, .T. ) ;
#334 = ADVANCED_FACE ( 'NONE', ( #179 ), #48, .T. ) ;
#335 = VECTOR ( 'NONE', #258, 1000.000000000000000 ) ;
#336 = VECTOR ( 'NONE', #98, 1000.000000000000000 ) ;
#337 = FACE_OUTER_BOUND ( 'NONE', #355, .T. ) ;
#338 = FACE_BOUND ( 'NONE', #107, .T. ) ;
#339 = ORIENTED_EDGE ( 'NONE', *, *, #454, .T. ) ;
#340 = FACE_OUTER_BOUND ( 'NONE', #451, .T. ) ;
#341 = VECTOR ( 'NONE', #214, 1000.000000000000000 ) ;
#342 = CIRCLE ( 'NONE', #211, 5.000000000000000888 ) ;
#343 = EDGE_CURVE ( 'NONE', #398, #237, #322, .T. ) ;
#344 = CARTESIAN_POINT ( 'NONE',  ( 0.000000000000000000, 30.00000000000000000, 34.99999999999999289 ) ) ;
#345 = MANIFOLD_SOLID_BREP ( 'Stock-cone-1', #259 ) ;
#346 = DIRECTION ( 'NONE',  ( -0.000000000000000000, -0.8490566037735849392, 0.5283018867924528239 ) ) ;
#347 = EDGE_CURVE ( 'NONE', #525, #17, #493, .T. ) ;
#348 = LINE ( 'NONE', #533, #360 ) ;
#349 = AXIS2_PLACEMENT_3D ( 'NONE', #109, #243, #570 ) ;
#350 = PRODUCT_DEFINITION_FORMATION_WITH_SPECIFIED_SOURCE ( 'ANY', '', #550, .NOT_KNOWN. ) ;
#351 = FACE_OUTER_BOUND ( 'NONE', #523, .T. ) ;
#352 = DIRECTION ( 'NONE',  ( -0.000000000000000000, -0.000000000000000000, 1.000000000000000000 ) ) ;
#353 = VECTOR ( 'NONE', #192, 1000.000000000000000 ) ;
#354 = DIRECTION ( 'NONE',  ( -0.000000000000000000, -1.000000000000000000, -0.000000000000000000 ) ) ;
#355 = EDGE_LOOP ( 'NONE', ( #479, #291, #53, #267, #339 ) ) ;
#356 = CARTESIAN_POINT ( 'NONE',  ( 0.000000000000000000, -53.03030303030303116, 0.000000000000000000 ) ) ;
#357 = CARTESIAN_POINT ( 'NONE',  ( 30.00000000000000355, 30.00000000000000000, -27.99590275976648357 ) ) ;
#358 = CIRCLE ( 'NONE', #210, 1.600000000000000755 ) ;
#359 = EDGE_CURVE ( 'NONE', #194, #152, #458, .T. ) ;
#360 = VECTOR ( 'NONE', #316, 1000.000000000000000 ) ;
#361 = ORIENTED_EDGE ( 'NONE', *, *, #167, .F. ) ;
#362 = DIRECTION ( 'NONE',  ( 0.000000000000000000, 0.000000000000000000, -1.000000000000000000 ) ) ;
#363 = DIRECTION ( 'NONE',  ( 0.000000000000000000, 1.000000000000000000, 0.000000000000000000 ) ) ;
#364 = ORIENTED_EDGE ( 'NONE', *, *, #489, .T. ) ;
#365 =( NAMED_UNIT ( * ) SI_UNIT ( $, .STERADIAN. ) SOLID_ANGLE_UNIT ( ) );
#366 = DIRECTION ( 'NONE',  ( 0.000000000000000000, 0.000000000000000000, 1.000000000000000000 ) ) ;
#367 = ORIENTED_EDGE ( 'NONE', *, *, #524, .T. ) ;
#368 = APPROVAL_STATUS ( 'not_yet_approved' ) ;
#369 = EDGE_CURVE ( 'NONE', #410, #508, #326, .T. ) ;
#370 = CARTESIAN_POINT ( 'NONE',  ( -35.00100000000000477, 19.99999999999999645, -34.99999999999999289 ) ) ;
#371 = ORIENTED_EDGE ( 'NONE', *, *, #16, .F. ) ;
#372 = DIRECTION ( 'NONE',  ( -1.224646799147353207E-16, 1.000000000000000000, -0.000000000000000000 ) ) ;
#373 = CARTESIAN_POINT ( 'NONE',  ( 0.000000000000000000, 30.00000000000000000, -34.99999999999999289 ) ) ;
#374 =( GEOMETRIC_REPRESENTATION_CONTEXT ( 3 ) GLOBAL_UNCERTAINTY_ASSIGNED_CONTEXT ( ( #311 ) ) GLOBAL_UNIT_ASSIGNED_CONTEXT ( ( #275, #238, #365 ) ) REPRESENTATION_CONTEXT ( 'NONE', 'WORKASPACE' ) );
#375 = ORIENTED_EDGE ( 'NONE', *, *, #489, .F. ) ;
#376 = COORDINATED_UNIVERSAL_TIME_OFFSET ( 7, 0, .AHEAD. ) ;
#377 = DIRECTION ( 'NONE',  ( 0.000000000000000000, -1.000000000000000000, 0.000000000000000000 ) ) ;
#378 = SECURITY_CLASSIFICATION_LEVEL ( 'unclassified' ) ;
#379 = ADVANCED_FACE ( 'NONE', ( #200 ), #66, .F. ) ;
#380 = ORIENTED_EDGE ( 'NONE', *, *, #369, .T. ) ;
#381 = CARTESIAN_POINT ( 'NONE',  ( -2.311115933264683024E-30, -45.00000000000000000, -1.999999999999999112 ) ) ;
#382 = ORIENTED_EDGE ( 'NONE', *, *, #178, .F. ) ;
#383 = ORIENTED_EDGE ( 'NONE', *, *, #120, .T. ) ;
#384 = ORGANIZATION ( 'UNSPECIFIED', 'UNSPECIFIED', '' ) ;
#385 = ORIENTED_EDGE ( 'NONE', *, *, #150, .F. ) ;
#386 = SHAPE_DEFINITION_REPRESENTATION ( #90, #548 ) ;
#387 = ORIENTED_EDGE ( 'NONE', *, *, #95, .F. ) ;
#388 = AXIS2_PLACEMENT_3D ( 'NONE', #61, #452, #281 ) ;
#389 = EDGE_CURVE ( 'NONE', #448, #426, #527, .T. ) ;
#390 = CARTESIAN_POINT ( 'NONE',  ( 30.00000000000000000, 30.00000000000000000, 34.99999999999999289 ) ) ;
#391 = AXIS2_PLACEMENT_3D ( 'NONE', #411, #461, #189 ) ;
#392 = CARTESIAN_POINT ( 'NONE',  ( -35.00100000000000477, 19.99999999999999645, 34.99999999999999289 ) ) ;
#393 = AXIS2_PLACEMENT_3D ( 'NONE', #421, #469, #141 ) ;
#394 = DIRECTION ( 'NONE',  ( -0.000000000000000000, 1.000000000000000000, -0.000000000000000000 ) ) ;
#395 = EDGE_CURVE ( 'NONE', #448, #505, #23, .T. ) ;
#396 = DIRECTION ( 'NONE',  ( 0.000000000000000000, 1.000000000000000000, 0.000000000000000000 ) ) ;
#397 = APPROVAL ( #427, 'UNSPECIFIED' ) ;
#398 = VERTEX_POINT ( 'NONE', #202 ) ;
#399 = PLANE ( 'NONE',  #31 ) ;
#400 = VECTOR ( 'NONE', #394, 1000.000000000000000 ) ;
#401 = CARTESIAN_POINT ( 'NONE',  ( 35.00000000000000000, 30.00000000000000000, 34.99999999999999289 ) ) ;
#402 = CARTESIAN_POINT ( 'NONE',  ( 0.000000000000000000, 19.99999999999999645, 0.000000000000000000 ) ) ;
#403 = CARTESIAN_POINT ( 'NONE',  ( 30.00000000000000355, 19.99999999999999645, -29.99999999999999645 ) ) ;
#404 = CIRCLE ( 'NONE', #169, 5.000000000000000888 ) ;
#405 = EDGE_CURVE ( 'NONE', #253, #556, #235, .T. ) ;
#406 = DIRECTION ( 'NONE',  ( 0.000000000000000000, 0.000000000000000000, -1.000000000000000000 ) ) ;
#407 = VERTEX_POINT ( 'NONE', #540 ) ;
#408 = DIRECTION ( 'NONE',  ( -1.224646799147353207E-16, 1.000000000000000000, -0.000000000000000000 ) ) ;
#409 = FACE_OUTER_BOUND ( 'NONE', #183, .T. ) ;
#410 = VERTEX_POINT ( 'NONE', #577 ) ;
#411 = CARTESIAN_POINT ( 'NONE',  ( 30.00000000000000355, 0.000000000000000000, -29.99999999999999645 ) ) ;
#412 = ORIENTED_EDGE ( 'NONE', *, *, #413, .T. ) ;
#413 = EDGE_CURVE ( 'NONE', #199, #307, #81, .T. ) ;
#414 = DATE_AND_TIME ( #325, #290 ) ;
#415 = DIRECTION ( 'NONE',  ( 0.000000000000000000, 0.000000000000000000, 1.000000000000000000 ) ) ;
#416 = ORIENTED_EDGE ( 'NONE', *, *, #128, .T. ) ;
#417 = LINE ( 'NONE', #516, #434 ) ;
#418 = EDGE_LOOP ( 'NONE', ( #328, #364, #88, #248 ) ) ;
#419 = VECTOR ( 'NONE', #471, 1000.000000000000000 ) ;
#420 = DATE_TIME_ROLE ( 'creation_date' ) ;
#421 = CARTESIAN_POINT ( 'NONE',  ( 30.00000000000000355, 30.00000000000000000, 29.99999999999999645 ) ) ;
#422 = APPROVAL_ROLE ( '' ) ;
#423 = LINE ( 'NONE', #507, #590 ) ;
#424 = CARTESIAN_POINT ( 'NONE',  ( 0.000000000000000000, 30.00000000000000000, 0.000000000000000000 ) ) ;
#425 = LOCAL_TIME ( 20, 42, 39.00000000000000000, #465 ) ;
#426 = VERTEX_POINT ( 'NONE', #312 ) ;
#427 = APPROVAL_STATUS ( 'not_yet_approved' ) ;
#428 = ORIENTED_EDGE ( 'NONE', *, *, #585, .T. ) ;
#429 = VERTEX_POINT ( 'NONE', #213 ) ;
#430 = ADVANCED_FACE ( 'NONE', ( #170 ), #35, .F. ) ;
#431 = PERSON_AND_ORGANIZATION_ROLE ( 'creator' ) ;
#432 = ORIENTED_EDGE ( 'NONE', *, *, #347, .T. ) ;
#433 = FACE_OUTER_BOUND ( 'NONE', #293, .T. ) ;
#434 = VECTOR ( 'NONE', #288, 1000.000000000000000 ) ;
#435 = AXIS2_PLACEMENT_3D ( 'NONE', #244, #21, #73 ) ;
#436 = EDGE_CURVE ( 'NONE', #177, #426, #78, .T. ) ;
#437 = ORIENTED_EDGE ( 'NONE', *, *, #347, .F. ) ;
#438 = DIRECTION ( 'NONE',  ( 0.000000000000000000, -0.000000000000000000, -1.000000000000000000 ) ) ;
#439 = ORIENTED_EDGE ( 'NONE', *, *, #95, .T. ) ;
#440 = AXIS2_PLACEMENT_3D ( 'NONE', #331, #185, #460 ) ;
#441 = CARTESIAN_POINT ( 'NONE',  ( -3.081487911019577365E-30, -50.00000000000000000, 1.999999999999999112 ) ) ;
#442 = CARTESIAN_POINT ( 'NONE',  ( 5.510910596163089556E-15, -45.00000000000000000, 0.000000000000000000 ) ) ;
#443 = LINE ( 'NONE', #584, #491 ) ;
#444 = AXIS2_PLACEMENT_3D ( 'NONE', #573, #396, #121 ) ;
#445 = PRODUCT_DEFINITION ( 'UNKNOWN', '', #350, #270 ) ;
#446 = DIRECTION ( 'NONE',  ( -0.000000000000000000, 1.000000000000000000, -0.000000000000000000 ) ) ;
#447 = CARTESIAN_POINT ( 'NONE',  ( 30.00000000000000000, 19.99999999999999645, -34.99999999999999289 ) ) ;
#448 = VERTEX_POINT ( 'NONE', #76 ) ;
#449 = FACE_OUTER_BOUND ( 'NONE', #418, .T. ) ;
#450 = DIRECTION ( 'NONE',  ( 0.000000000000000000, 0.000000000000000000, -1.000000000000000000 ) ) ;
#451 = EDGE_LOOP ( 'NONE', ( #470, #531, #139, #591, #367, #180, #60, #459 ) ) ;
#452 = DIRECTION ( 'NONE',  ( 0.000000000000000000, -1.000000000000000000, 0.000000000000000000 ) ) ;
#453 = CARTESIAN_POINT ( 'NONE',  ( 0.000000000000000000, 19.99999999999999645, -34.99999999999999289 ) ) ;
#454 = EDGE_CURVE ( 'NONE', #330, #22, #86, .T. ) ;
#455 = LOCAL_TIME ( 20, 42, 39.00000000000000000, #242 ) ;
#456 = EDGE_LOOP ( 'NONE', ( #412, #134 ) ) ;
#457 = CARTESIAN_POINT ( 'NONE',  ( 0.000000000000000000, 0.000000000000000000, 0.000000000000000000 ) ) ;
#458 = LINE ( 'NONE', #370, #58 ) ;
#459 = ORIENTED_EDGE ( 'NONE', *, *, #405, .F. ) ;
#460 = DIRECTION ( 'NONE',  ( -1.000000000000000000, 0.000000000000000000, -0.000000000000000000 ) ) ;
#461 = DIRECTION ( 'NONE',  ( -0.000000000000000000, 1.000000000000000000, 0.000000000000000000 ) ) ;
#462 = CONICAL_SURFACE ( 'NONE', #536, 1.999999999999999112, 0.5833730069938558582 ) ;
#463 = ORIENTED_EDGE ( 'NONE', *, *, #128, .F. ) ;
#464 = CARTESIAN_POINT ( 'NONE',  ( 0.000000000000000000, 30.00000000000000000, 30.00000000000000000 ) ) ;
#465 = COORDINATED_UNIVERSAL_TIME_OFFSET ( 7, 0, .AHEAD. ) ;
#466 = AXIS2_PLACEMENT_3D ( 'NONE', #319, #582, #529 ) ;
#467 = ORIENTED_EDGE ( 'NONE', *, *, #578, .T. ) ;
#468 = EDGE_CURVE ( 'NONE', #481, #152, #82, .T. ) ;
#469 = DIRECTION ( 'NONE',  ( 0.000000000000000000, 1.000000000000000000, 0.000000000000000000 ) ) ;
#470 = ORIENTED_EDGE ( 'NONE', *, *, #113, .F. ) ;
#471 = DIRECTION ( 'NONE',  ( 1.000000000000000000, 0.000000000000000000, 0.000000000000000000 ) ) ;
#472 = CARTESIAN_POINT ( 'NONE',  ( 0.000000000000000000, 0.000000000000000000, -29.99999999999999645 ) ) ;
#473 = EDGE_CURVE ( 'NONE', #253, #525, #348, .T. ) ;
#474 = DIRECTION ( 'NONE',  ( 0.000000000000000000, 0.000000000000000000, -1.000000000000000000 ) ) ;
#475 = VECTOR ( 'NONE', #255, 1000.000000000000000 ) ;
#476 = PERSON_AND_ORGANIZATION ( #5, #384 ) ;
#477 = ORIENTED_EDGE ( 'NONE', *, *, #369, .F. ) ;
#478 = CARTESIAN_POINT ( 'NONE',  ( 0.000000000000000000, -48.21428571428570820, 0.000000000000000000 ) ) ;
#479 = ORIENTED_EDGE ( 'NONE', *, *, #499, .T. ) ;
#480 = ADVANCED_FACE ( 'NONE', ( #351 ), #261, .F. ) ;
#481 = VERTEX_POINT ( 'NONE', #215 ) ;
#482 = DIRECTION ( 'NONE',  ( 0.000000000000000000, 1.000000000000000000, 0.000000000000000000 ) ) ;
#483 = CC_DESIGN_PERSON_AND_ORGANIZATION_ASSIGNMENT ( #283, #145, ( #350 ) ) ;
#484 = APPROVAL_PERSON_ORGANIZATION ( #2, #305, #552 ) ;
#485 = DIRECTION ( 'NONE',  ( -0.000000000000000000, 1.000000000000000000, -0.000000000000000000 ) ) ;
#486 = EDGE_LOOP ( 'NONE', ( #39, #498, #361, #371 ) ) ;
#487 = CARTESIAN_POINT ( 'NONE',  ( 0.000000000000000000, 0.000000000000000000, 29.99999999999999645 ) ) ;
#488 = LINE ( 'NONE', #528, #195 ) ;
#489 = EDGE_CURVE ( 'NONE', #152, #330, #342, .T. ) ;
#490 = DIRECTION ( 'NONE',  ( -0.000000000000000000, 1.000000000000000000, 0.000000000000000000 ) ) ;
#491 = VECTOR ( 'NONE', #171, 1000.000000000000000 ) ;
#492 = CARTESIAN_POINT ( 'NONE',  ( 3.749399456654643801E-31, -3.061616997868382648E-15, 0.000000000000000000 ) ) ;
#493 = CIRCLE ( 'NONE', #542, 30.00000000000000000 ) ;
#494 = ORIENTED_EDGE ( 'NONE', *, *, #41, .F. ) ;
#495 = LOCAL_TIME ( 20, 42, 39.00000000000000000, #376 ) ;
#496 = CARTESIAN_POINT ( 'NONE',  ( 30.00000000000000355, 30.00000000000000000, -29.99999999999999645 ) ) ;
#497 = DIRECTION ( 'NONE',  ( -0.000000000000000000, 1.000000000000000000, -0.000000000000000000 ) ) ;
#498 = ORIENTED_EDGE ( 'NONE', *, *, #292, .F. ) ;
#499 = EDGE_CURVE ( 'NONE', #22, #102, #257, .T. ) ;
#500 = DIRECTION ( 'NONE',  ( 1.000000000000000000, 0.000000000000000000, 0.000000000000000000 ) ) ;
#501 = EDGE_LOOP ( 'NONE', ( #513, #543, #1, #387 ) ) ;
#502 = FACE_OUTER_BOUND ( 'NONE', #191, .T. ) ;
#503 = CC_DESIGN_DATE_AND_TIME_ASSIGNMENT ( #299, #110, ( #567 ) ) ;
#504 = CARTESIAN_POINT ( 'NONE',  ( 35.00000000000000000, 19.99999999999999645, 34.99999999999999289 ) ) ;
#505 = VERTEX_POINT ( 'NONE', #441 ) ;
#506 = CALENDAR_DATE ( 2025, 2, 10 ) ;
#507 = CARTESIAN_POINT ( 'NONE',  ( 0.000000000000000000, 30.00000000000000000, -30.00000000000000000 ) ) ;
#508 = VERTEX_POINT ( 'NONE', #125 ) ;
#509 = CALENDAR_DATE ( 2025, 2, 10 ) ;
#510 = PLANE ( 'NONE',  #56 ) ;
#511 = AXIS2_PLACEMENT_3D ( 'NONE', #126, #581, #166 ) ;
#512 = DATE_AND_TIME ( #245, #425 ) ;
#513 = ORIENTED_EDGE ( 'NONE', *, *, #7, .T. ) ;
#514 = EDGE_CURVE ( 'NONE', #237, #194, #298, .T. ) ;
#515 = CARTESIAN_POINT ( 'NONE',  ( 6.123233995736766085E-15, -50.00000000000000000, 0.000000000000000000 ) ) ;
#516 = CARTESIAN_POINT ( 'NONE',  ( 35.00000000000000000, 19.99999999999999645, 34.99999999999999289 ) ) ;
#517 = AXIS2_PLACEMENT_3D ( 'NONE', #207, #485, #33 ) ;
#518 = VERTEX_POINT ( 'NONE', #583 ) ;
#519 = VECTOR ( 'NONE', #132, 1000.000000000000000 ) ;
#520 = ORIENTED_EDGE ( 'NONE', *, *, #50, .T. ) ;
#521 = PERSON_AND_ORGANIZATION ( #5, #384 ) ;
#522 = CARTESIAN_POINT ( 'NONE',  ( 0.000000000000000000, -48.21428571428570820, 0.000000000000000000 ) ) ;
#523 = EDGE_LOOP ( 'NONE', ( #43, #539, #99, #437 ) ) ;
#524 = EDGE_CURVE ( 'NONE', #22, #481, #404, .T. ) ;
#525 = VERTEX_POINT ( 'NONE', #487 ) ;
#526 = EDGE_LOOP ( 'NONE', ( #385, #520, #129, #467, #300 ) ) ;
#527 = CIRCLE ( 'NONE', #435, 34.99999999999999289 ) ;
#528 = CARTESIAN_POINT ( 'NONE',  ( 30.00000000000000355, -50.00000000000000000, -27.99590275976648357 ) ) ;
#529 = DIRECTION ( 'NONE',  ( 1.000000000000000000, 0.000000000000000000, 0.000000000000000000 ) ) ;
#530 = EDGE_CURVE ( 'NONE', #505, #177, #294, .T. ) ;
#531 = ORIENTED_EDGE ( 'NONE', *, *, #302, .T. ) ;
#532 = VECTOR ( 'NONE', #346, 1000.000000000000000 ) ;
#533 = CARTESIAN_POINT ( 'NONE',  ( 0.000000000000000000, 30.00000000000000000, 30.00000000000000000 ) ) ;
#534 = PLANE ( 'NONE',  #511 ) ;
#535 = ADVANCED_FACE ( 'NONE', ( #264, #449 ), #399, .T. ) ;
#536 = AXIS2_PLACEMENT_3D ( 'NONE', #515, #372, #51 ) ;
#537 = CARTESIAN_POINT ( 'NONE',  ( 0.000000000000000000, 30.00000000000000000, -30.00000000000000000 ) ) ;
#538 = CARTESIAN_POINT ( 'NONE',  ( 0.000000000000000000, 30.00000000000000000, -34.99999999999999289 ) ) ;
#539 = ORIENTED_EDGE ( 'NONE', *, *, #405, .T. ) ;
#540 = CARTESIAN_POINT ( 'NONE',  ( 0.000000000000000000, 30.00000000000000000, 34.99999999999999289 ) ) ;
#541 = CARTESIAN_POINT ( 'NONE',  ( 0.000000000000000000, 30.00000000000000000, 34.99999999999999289 ) ) ;
#542 = AXIS2_PLACEMENT_3D ( 'NONE', #276, #94, #273 ) ;
#543 = ORIENTED_EDGE ( 'NONE', *, *, #178, .T. ) ;
#544 = ADVANCED_FACE ( 'NONE', ( #580 ), #534, .F. ) ;
#545 = DIRECTION ( 'NONE',  ( -1.000000000000000000, -1.224646799147353207E-16, 0.000000000000000000 ) ) ;
#546 = ORIENTED_EDGE ( 'NONE', *, *, #150, .T. ) ;
#547 = PERSON_AND_ORGANIZATION ( #5, #384 ) ;
#548 = ADVANCED_BREP_SHAPE_REPRESENTATION ( 'Cone1_Ver1', ( #345, #116 ), #374 ) ;
#549 = DIRECTION ( 'NONE',  ( 1.000000000000000000, 0.000000000000000000, 0.000000000000000000 ) ) ;
#550 = PRODUCT ( 'Cone1_Ver1', 'Cone1_Ver1', '', ( #224 ) ) ;
#551 = ORIENTED_EDGE ( 'NONE', *, *, #389, .F. ) ;
#552 = APPROVAL_ROLE ( '' ) ;
#553 = FACE_OUTER_BOUND ( 'NONE', #149, .T. ) ;
#554 = VECTOR ( 'NONE', #65, 1000.000000000000000 ) ;
#555 = VECTOR ( 'NONE', #352, 1000.000000000000000 ) ;
#556 = VERTEX_POINT ( 'NONE', #537 ) ;
#557 = LINE ( 'NONE', #100, #353 ) ;
#558 = CARTESIAN_POINT ( 'NONE',  ( 35.00000000000000000, 19.99999999999999645, 0.000000000000000000 ) ) ;
#559 = CC_DESIGN_PERSON_AND_ORGANIZATION_ASSIGNMENT ( #547, #321, ( #550 ) ) ;
#560 = ORIENTED_EDGE ( 'NONE', *, *, #167, .T. ) ;
#561 = APPROVAL_DATE_TIME ( #233, #89 ) ;
#562 = LINE ( 'NONE', #522, #287 ) ;
#563 = CARTESIAN_POINT ( 'NONE',  ( 35.00000000000000000, 30.00000000000000000, -29.99999999999999289 ) ) ;
#564 = DIRECTION ( 'NONE',  ( -0.000000000000000000, 1.000000000000000000, -0.000000000000000000 ) ) ;
#565 = PERSON_AND_ORGANIZATION ( #5, #384 ) ;
#566 = ORIENTED_EDGE ( 'NONE', *, *, #473, .T. ) ;
#567 = SECURITY_CLASSIFICATION ( '', '', #378 ) ;
#568 = ADVANCED_FACE ( 'NONE', ( #502 ), #230, .T. ) ;
#569 = ORIENTED_EDGE ( 'NONE', *, *, #309, .F. ) ;
#570 = DIRECTION ( 'NONE',  ( 0.000000000000000000, -0.000000000000000000, 1.000000000000000000 ) ) ;
#571 = LINE ( 'NONE', #344, #156 ) ;
#572 = AXIS2_PLACEMENT_3D ( 'NONE', #332, #592, #415 ) ;
#573 = CARTESIAN_POINT ( 'NONE',  ( 0.000000000000000000, 30.00000000000000000, 0.000000000000000000 ) ) ;
#574 = ADVANCED_FACE ( 'NONE', ( #44 ), #462, .T. ) ;
#575 = FACE_OUTER_BOUND ( 'NONE', #136, .T. ) ;
#576 = CC_DESIGN_PERSON_AND_ORGANIZATION_ASSIGNMENT ( #521, #431, ( #350 ) ) ;
#577 = CARTESIAN_POINT ( 'NONE',  ( 0.000000000000000000, 19.99999999999999645, 34.99999999999999289 ) ) ;
#578 = EDGE_CURVE ( 'NONE', #426, #194, #557, .T. ) ;
#579 = CONICAL_SURFACE ( 'NONE', #324, 29.99999999999999645, 0.5565993180102226656 ) ;
#580 = FACE_OUTER_BOUND ( 'NONE', #456, .T. ) ;
#581 = DIRECTION ( 'NONE',  ( 1.224646799147353207E-16, -1.000000000000000000, 0.000000000000000000 ) ) ;
#582 = DIRECTION ( 'NONE',  ( -0.000000000000000000, 0.000000000000000000, 1.000000000000000000 ) ) ;
#583 = CARTESIAN_POINT ( 'NONE',  ( 30.00000000000000355, 20.00000000000000355, -31.19590275976648286 ) ) ;
#584 = CARTESIAN_POINT ( 'NONE',  ( 0.000000000000000000, -45.00000000000000000, 0.000000000000000000 ) ) ;
#585 = EDGE_CURVE ( 'NONE', #518, #429, #277, .T. ) ;
#586 = ORIENTED_EDGE ( 'NONE', *, *, #41, .T. ) ;
#587 = CARTESIAN_POINT ( 'NONE',  ( -35.00100000000000477, 19.99999999999999645, 34.99999999999999289 ) ) ;
#588 = VECTOR ( 'NONE', #133, 1000.000000000000000 ) ;
#589 = PLANE ( 'NONE',  #184 ) ;
#590 = VECTOR ( 'NONE', #236, 1000.000000000000000 ) ;
#591 = ORIENTED_EDGE ( 'NONE', *, *, #499, .F. ) ;
#592 = DIRECTION ( 'NONE',  ( 0.000000000000000000, 1.000000000000000000, 0.000000000000000000 ) ) ;
ENDSEC;
END-ISO-10303-21;
