ISO-10303-21;
HEADER;
FILE_DESCRIPTION (( 'STEP AP203' ),
    '1' );
FILE_NAME ('Cone2_Ver2.STEP',
    '2025-10-02T13:42:58',
    ( '' ),
    ( '' ),
    'SwSTEP 2.0',
    'SolidWorks 2025',
    '' );
FILE_SCHEMA (( 'CONFIG_CONTROL_DESIGN' ));
ENDSEC;

DATA;
#1 = CARTESIAN_POINT ( 'NONE',  ( 6.123233995736766085E-15, -50.00000000000000000, 0.000000000000000000 ) ) ;
#2 = CARTESIAN_POINT ( 'NONE',  ( -30.00000000000000355, 20.00000000000000355, -29.59590275976648144 ) ) ;
#3 = ORIENTED_EDGE ( 'NONE', *, *, #421, .T. ) ;
#4 = PLANE ( 'NONE',  #658 ) ;
#5 = AXIS2_PLACEMENT_3D ( 'NONE', #151, #359, #110 ) ;
#6 = CARTESIAN_POINT ( 'NONE',  ( 0.000000000000000000, 19.99999999999999645, 34.99999999999999289 ) ) ;
#7 = VERTEX_POINT ( 'NONE', #198 ) ;
#8 = ORGANIZATION ( 'UNSPECIFIED', 'UNSPECIFIED', '' ) ;
#9 = DIRECTION ( 'NONE',  ( 0.000000000000000000, 0.000000000000000000, 1.000000000000000000 ) ) ;
#10 = CARTESIAN_POINT ( 'NONE',  ( 6.123233995736766085E-15, -50.00000000000000000, 0.000000000000000000 ) ) ;
#11 = ORIENTED_EDGE ( 'NONE', *, *, #49, .T. ) ;
#12 = APPROVAL_ROLE ( '' ) ;
#13 = EDGE_CURVE ( 'NONE', #187, #485, #487, .T. ) ;
#14 = DIRECTION ( 'NONE',  ( 0.000000000000000000, -0.000000000000000000, 1.000000000000000000 ) ) ;
#15 = EDGE_CURVE ( 'NONE', #638, #162, #404, .T. ) ;
#16 = VERTEX_POINT ( 'NONE', #556 ) ;
#17 = CARTESIAN_POINT ( 'NONE',  ( 0.000000000000000000, 0.000000000000000000, 0.000000000000000000 ) ) ;
#18 = LINE ( 'NONE', #429, #495 ) ;
#19 = ORIENTED_EDGE ( 'NONE', *, *, #361, .T. ) ;
#20 = DIRECTION ( 'NONE',  ( 0.000000000000000000, 0.000000000000000000, 1.000000000000000000 ) ) ;
#21 = DIRECTION ( 'NONE',  ( -1.000000000000000000, 0.000000000000000000, 0.000000000000000000 ) ) ;
#22 = EDGE_LOOP ( 'NONE', ( #568, #394, #515, #635, #463, #538 ) ) ;
#23 = DIRECTION ( 'NONE',  ( 0.000000000000000000, 0.000000000000000000, 1.000000000000000000 ) ) ;
#24 = UNCERTAINTY_MEASURE_WITH_UNIT (LENGTH_MEASURE( 1.000000000000000082E-05 ), #586, 'distance_accuracy_value', 'NONE');
#25 = VECTOR ( 'NONE', #362, 1000.000000000000000 ) ;
#26 = FACE_OUTER_BOUND ( 'NONE', #275, .T. ) ;
#27 = EDGE_LOOP ( 'NONE', ( #81, #419, #528, #138 ) ) ;
#28 = ADVANCED_FACE ( 'NONE', ( #654 ), #47, .F. ) ;
#29 = DIRECTION ( 'NONE',  ( 0.000000000000000000, 0.000000000000000000, -1.000000000000000000 ) ) ;
#30 = ORIENTED_EDGE ( 'NONE', *, *, #615, .F. ) ;
#31 = CIRCLE ( 'NONE', #639, 1.999999999999999112 ) ;
#32 = LINE ( 'NONE', #393, #334 ) ;
#33 = ORIENTED_EDGE ( 'NONE', *, *, #600, .F. ) ;
#34 = APPROVAL_ROLE ( '' ) ;
#35 = VECTOR ( 'NONE', #108, 1000.000000000000000 ) ;
#36 = CLOSED_SHELL ( 'NONE', ( #53, #152, #608, #28, #530, #116, #588, #511, #662, #171, #78, #159, #336, #552, #324, #580, #256, #308, #369 ) ) ;
#37 = CARTESIAN_POINT ( 'NONE',  ( 0.000000000000000000, 30.00000000000000000, 0.000000000000000000 ) ) ;
#38 = EDGE_CURVE ( 'NONE', #109, #619, #454, .T. ) ;
#39 = ORIENTED_EDGE ( 'NONE', *, *, #423, .F. ) ;
#40 = AXIS2_PLACEMENT_3D ( 'NONE', #262, #69, #9 ) ;
#41 = PERSON_AND_ORGANIZATION_ROLE ( 'design_supplier' ) ;
#42 = DIRECTION ( 'NONE',  ( -1.224646799147353207E-16, 1.000000000000000000, -0.000000000000000000 ) ) ;
#43 = DIRECTION ( 'NONE',  ( 1.000000000000000000, 1.224646799147353207E-16, 0.000000000000000000 ) ) ;
#44 = ORIENTED_EDGE ( 'NONE', *, *, #283, .F. ) ;
#45 = DATE_AND_TIME ( #640, #87 ) ;
#46 = DIRECTION ( 'NONE',  ( 0.000000000000000000, 0.000000000000000000, -1.000000000000000000 ) ) ;
#47 = PLANE ( 'NONE',  #141 ) ;
#48 = EDGE_LOOP ( 'NONE', ( #88, #471, #103 ) ) ;
#49 = EDGE_CURVE ( 'NONE', #91, #508, #606, .T. ) ;
#50 = DIRECTION ( 'NONE',  ( -1.000000000000000000, -1.224646799147353207E-16, 0.000000000000000000 ) ) ;
#51 = FACE_OUTER_BOUND ( 'NONE', #500, .T. ) ;
#52 = LOCAL_TIME ( 20, 42, 58.00000000000000000, #443 ) ;
#53 = ADVANCED_FACE ( 'NONE', ( #509 ), #602, .F. ) ;
#54 = ORIENTED_EDGE ( 'NONE', *, *, #13, .F. ) ;
#55 =( GEOMETRIC_REPRESENTATION_CONTEXT ( 3 ) GLOBAL_UNCERTAINTY_ASSIGNED_CONTEXT ( ( #24 ) ) GLOBAL_UNIT_ASSIGNED_CONTEXT ( ( #586, #623, #222 ) ) REPRESENTATION_CONTEXT ( 'NONE', 'WORKASPACE' ) );
#56 = CARTESIAN_POINT ( 'NONE',  ( 0.000000000000000000, 30.00000000000000000, 29.99999999999999645 ) ) ;
#57 = EDGE_CURVE ( 'NONE', #212, #376, #551, .T. ) ;
#58 = CARTESIAN_POINT ( 'NONE',  ( -30.00000000000000355, 30.00000000000000000, -31.19590275976648286 ) ) ;
#59 = EDGE_CURVE ( 'NONE', #619, #522, #305, .T. ) ;
#60 = ORIENTED_EDGE ( 'NONE', *, *, #360, .T. ) ;
#61 = CARTESIAN_POINT ( 'NONE',  ( -2.311115933264683024E-30, -45.00000000000000000, -1.999999999999999112 ) ) ;
#62 = LINE ( 'NONE', #476, #536 ) ;
#63 = ORIENTED_EDGE ( 'NONE', *, *, #577, .T. ) ;
#64 = DIRECTION ( 'NONE',  ( 1.000000000000000000, 0.000000000000000000, 0.000000000000000000 ) ) ;
#65 = CC_DESIGN_APPROVAL ( #464, ( #569 ) ) ;
#66 = VECTOR ( 'NONE', #644, 1000.000000000000000 ) ;
#67 = DIRECTION ( 'NONE',  ( 0.000000000000000000, 0.000000000000000000, 1.000000000000000000 ) ) ;
#68 = ORIENTED_EDGE ( 'NONE', *, *, #610, .T. ) ;
#69 = DIRECTION ( 'NONE',  ( 0.000000000000000000, 1.000000000000000000, 0.000000000000000000 ) ) ;
#70 = CARTESIAN_POINT ( 'NONE',  ( 0.000000000000000000, -50.00000000000000000, 0.000000000000000000 ) ) ;
#71 = ORIENTED_EDGE ( 'NONE', *, *, #360, .F. ) ;
#72 = CIRCLE ( 'NONE', #253, 34.99999999999999289 ) ;
#73 = DIRECTION ( 'NONE',  ( 0.000000000000000000, 0.000000000000000000, 1.000000000000000000 ) ) ;
#74 = CARTESIAN_POINT ( 'NONE',  ( 0.000000000000000000, -1.122515770092296487E-14, -34.99999999999999289 ) ) ;
#75 = ORIENTED_EDGE ( 'NONE', *, *, #200, .F. ) ;
#76 = CALENDAR_DATE ( 2025, 2, 10 ) ;
#77 = LINE ( 'NONE', #277, #472 ) ;
#78 = ADVANCED_FACE ( 'NONE', ( #51 ), #306, .T. ) ;
#79 = ORIENTED_EDGE ( 'NONE', *, *, #214, .T. ) ;
#80 = DIRECTION ( 'NONE',  ( 1.000000000000000000, 0.000000000000000000, 0.000000000000000000 ) ) ;
#81 = ORIENTED_EDGE ( 'NONE', *, *, #494, .F. ) ;
#82 = CC_DESIGN_PERSON_AND_ORGANIZATION_ASSIGNMENT ( #491, #41, ( #322 ) ) ;
#83 = CIRCLE ( 'NONE', #653, 34.99999999999999289 ) ;
#84 = DIRECTION ( 'NONE',  ( 0.000000000000000000, -1.000000000000000000, 0.000000000000000000 ) ) ;
#85 = ORIENTED_EDGE ( 'NONE', *, *, #656, .F. ) ;
#86 = DIRECTION ( 'NONE',  ( 0.000000000000000000, 1.000000000000000000, 0.000000000000000000 ) ) ;
#87 = LOCAL_TIME ( 20, 42, 58.00000000000000000, #185 ) ;
#88 = ORIENTED_EDGE ( 'NONE', *, *, #214, .F. ) ;
#89 = VECTOR ( 'NONE', #126, 1000.000000000000000 ) ;
#90 = CARTESIAN_POINT ( 'NONE',  ( -30.00000000000000355, -50.00000000000000000, -27.99590275976648357 ) ) ;
#91 = VERTEX_POINT ( 'NONE', #660 ) ;
#92 = AXIS2_PLACEMENT_3D ( 'NONE', #122, #467, #527 ) ;
#93 = AXIS2_PLACEMENT_3D ( 'NONE', #10, #422, #229 ) ;
#94 = DIRECTION ( 'NONE',  ( 0.000000000000000000, 0.000000000000000000, -1.000000000000000000 ) ) ;
#95 = CARTESIAN_POINT ( 'NONE',  ( -30.00000000000000000, 19.99999999999999645, -34.99999999999999289 ) ) ;
#96 = FACE_OUTER_BOUND ( 'NONE', #342, .T. ) ;
#97 = EDGE_CURVE ( 'NONE', #170, #475, #72, .T. ) ;
#98 = DIRECTION ( 'NONE',  ( -1.224646799147353207E-16, 1.000000000000000000, -0.000000000000000000 ) ) ;
#99 = CIRCLE ( 'NONE', #147, 1.600000000000000755 ) ;
#100 = DIRECTION ( 'NONE',  ( 0.000000000000000000, 0.000000000000000000, -1.000000000000000000 ) ) ;
#101 = ORIENTED_EDGE ( 'NONE', *, *, #208, .F. ) ;
#102 = AXIS2_PLACEMENT_3D ( 'NONE', #503, #554, #100 ) ;
#103 = ORIENTED_EDGE ( 'NONE', *, *, #168, .F. ) ;
#104 = VERTEX_POINT ( 'NONE', #257 ) ;
#105 = CARTESIAN_POINT ( 'NONE',  ( -30.00000000000000355, 30.00000000000000000, 34.99999999999999289 ) ) ;
#106 = DIRECTION ( 'NONE',  ( 0.000000000000000000, 0.000000000000000000, -1.000000000000000000 ) ) ;
#107 = PRODUCT_DEFINITION ( 'UNKNOWN', '', #322, #240 ) ;
#108 = DIRECTION ( 'NONE',  ( -0.000000000000000000, -1.000000000000000000, -0.000000000000000000 ) ) ;
#109 = VERTEX_POINT ( 'NONE', #95 ) ;
#110 = DIRECTION ( 'NONE',  ( 0.000000000000000000, -0.000000000000000000, 1.000000000000000000 ) ) ;
#111 = CARTESIAN_POINT ( 'NONE',  ( 6.123233995736766085E-15, -50.00000000000000000, 0.000000000000000000 ) ) ;
#112 = AXIS2_PLACEMENT_3D ( 'NONE', #111, #618, #120 ) ;
#113 = ORIENTED_EDGE ( 'NONE', *, *, #596, .T. ) ;
#114 = DIRECTION ( 'NONE',  ( 0.000000000000000000, 1.000000000000000000, 0.000000000000000000 ) ) ;
#115 = CARTESIAN_POINT ( 'NONE',  ( 2.000000000000005329, -50.00000000000000000, 0.000000000000000000 ) ) ;
#116 = ADVANCED_FACE ( 'NONE', ( #405 ), #661, .F. ) ;
#117 = ORIENTED_EDGE ( 'NONE', *, *, #519, .T. ) ;
#118 = MECHANICAL_CONTEXT ( 'NONE', #407, 'mechanical' ) ;
#119 = VECTOR ( 'NONE', #631, 1000.000000000000000 ) ;
#120 = DIRECTION ( 'NONE',  ( -1.000000000000000000, 0.000000000000000000, 0.000000000000000000 ) ) ;
#121 = ORIENTED_EDGE ( 'NONE', *, *, #59, .T. ) ;
#122 = CARTESIAN_POINT ( 'NONE',  ( -30.00000000000000355, 19.99999999999999645, 29.99999999999999645 ) ) ;
#123 = VERTEX_POINT ( 'NONE', #659 ) ;
#124 = AXIS2_PLACEMENT_3D ( 'NONE', #525, #479, #514 ) ;
#125 = APPROVAL_STATUS ( 'not_yet_approved' ) ;
#126 = DIRECTION ( 'NONE',  ( -0.000000000000000000, -0.8490566037735849392, 0.5283018867924528239 ) ) ;
#127 = ORIENTED_EDGE ( 'NONE', *, *, #129, .F. ) ;
#128 = PERSON_AND_ORGANIZATION ( #344, #8 ) ;
#129 = EDGE_CURVE ( 'NONE', #526, #7, #611, .T. ) ;
#130 = CARTESIAN_POINT ( 'NONE',  ( -30.00000000000000355, 20.00000000000000355, -31.19590275976648286 ) ) ;
#131 = AXIS2_PLACEMENT_3D ( 'NONE', #295, #349, #94 ) ;
#132 = ORIENTED_EDGE ( 'NONE', *, *, #395, .T. ) ;
#133 = DIRECTION ( 'NONE',  ( 0.000000000000000000, 0.000000000000000000, -1.000000000000000000 ) ) ;
#134 = ORIENTED_EDGE ( 'NONE', *, *, #383, .T. ) ;
#135 = LINE ( 'NONE', #90, #66 ) ;
#136 = ORIENTED_EDGE ( 'NONE', *, *, #648, .T. ) ;
#137 = CARTESIAN_POINT ( 'NONE',  ( -30.00000000000000355, 30.00000000000000000, -29.99999999999999645 ) ) ;
#138 = ORIENTED_EDGE ( 'NONE', *, *, #411, .F. ) ;
#139 = CARTESIAN_POINT ( 'NONE',  ( 0.000000000000000000, 30.00000000000000000, 34.99999999999999289 ) ) ;
#140 = FACE_BOUND ( 'NONE', #535, .T. ) ;
#141 = AXIS2_PLACEMENT_3D ( 'NONE', #201, #196, #43 ) ;
#142 = DIRECTION ( 'NONE',  ( 1.000000000000000000, 0.000000000000000000, 0.000000000000000000 ) ) ;
#143 = FACE_OUTER_BOUND ( 'NONE', #207, .T. ) ;
#144 = DIRECTION ( 'NONE',  ( 1.000000000000000000, 0.000000000000000000, 0.000000000000000000 ) ) ;
#145 = LOCAL_TIME ( 20, 42, 58.00000000000000000, #529 ) ;
#146 = ORIENTED_EDGE ( 'NONE', *, *, #577, .F. ) ;
#147 = AXIS2_PLACEMENT_3D ( 'NONE', #646, #652, #403 ) ;
#148 = DIRECTION ( 'NONE',  ( 0.000000000000000000, 0.000000000000000000, 1.000000000000000000 ) ) ;
#149 = CARTESIAN_POINT ( 'NONE',  ( 6.123233995736766085E-15, -50.00000000000000000, 0.000000000000000000 ) ) ;
#150 = EDGE_CURVE ( 'NONE', #255, #162, #83, .T. ) ;
#151 = CARTESIAN_POINT ( 'NONE',  ( 0.000000000000000000, 30.00000000000000000, 0.000000000000000000 ) ) ;
#152 = ADVANCED_FACE ( 'NONE', ( #143 ), #456, .T. ) ;
#153 = CARTESIAN_POINT ( 'NONE',  ( 0.000000000000000000, -48.21428571428570820, 0.000000000000000000 ) ) ;
#154 = VERTEX_POINT ( 'NONE', #105 ) ;
#155 = PLANE ( 'NONE',  #5 ) ;
#156 = CARTESIAN_POINT ( 'NONE',  ( 35.00100000000000477, 19.99999999999999645, 34.99999999999999289 ) ) ;
#157 = ORIENTED_EDGE ( 'NONE', *, *, #38, .T. ) ;
#158 = DIRECTION ( 'NONE',  ( -1.000000000000000000, 0.000000000000000000, 0.000000000000000000 ) ) ;
#159 = ADVANCED_FACE ( 'NONE', ( #140, #347 ), #350, .F. ) ;
#160 = DIRECTION ( 'NONE',  ( -0.000000000000000000, -1.000000000000000000, -0.000000000000000000 ) ) ;
#161 = CIRCLE ( 'NONE', #124, 5.000000000000000888 ) ;
#162 = VERTEX_POINT ( 'NONE', #274 ) ;
#163 = DIRECTION ( 'NONE',  ( -1.000000000000000000, 0.000000000000000000, -0.000000000000000000 ) ) ;
#164 = ORIENTED_EDGE ( 'NONE', *, *, #628, .F. ) ;
#165 = COORDINATED_UNIVERSAL_TIME_OFFSET ( 7, 0, .AHEAD. ) ;
#166 = CARTESIAN_POINT ( 'NONE',  ( -35.00000000000000000, 30.00000000000000000, -29.99999999999999289 ) ) ;
#167 = ORIENTED_EDGE ( 'NONE', *, *, #49, .F. ) ;
#168 = EDGE_CURVE ( 'NONE', #299, #638, #348, .T. ) ;
#169 = DIRECTION ( 'NONE',  ( -1.224646799147353207E-16, 1.000000000000000000, -0.000000000000000000 ) ) ;
#170 = VERTEX_POINT ( 'NONE', #6 ) ;
#171 = ADVANCED_FACE ( 'NONE', ( #426 ), #518, .T. ) ;
#172 = EDGE_CURVE ( 'NONE', #255, #382, #418, .T. ) ;
#173 = CARTESIAN_POINT ( 'NONE',  ( 0.000000000000000000, 30.00000000000000000, 34.99999999999999289 ) ) ;
#174 = ORIENTED_EDGE ( 'NONE', *, *, #59, .F. ) ;
#175 = CARTESIAN_POINT ( 'NONE',  ( 0.000000000000000000, -53.03030303030303116, 0.000000000000000000 ) ) ;
#176 = CIRCLE ( 'NONE', #266, 5.000000000000000888 ) ;
#177 = EDGE_LOOP ( 'NONE', ( #328, #278, #614, #113 ) ) ;
#178 = AXIS2_PLACEMENT_3D ( 'NONE', #630, #73, #64 ) ;
#179 = FACE_OUTER_BOUND ( 'NONE', #177, .T. ) ;
#180 = EDGE_CURVE ( 'NONE', #7, #154, #161, .T. ) ;
#181 = ORIENTED_EDGE ( 'NONE', *, *, #561, .T. ) ;
#182 = CC_DESIGN_DATE_AND_TIME_ASSIGNMENT ( #45, #649, ( #569 ) ) ;
#183 = DIRECTION ( 'NONE',  ( -0.000000000000000000, -1.000000000000000000, -0.000000000000000000 ) ) ;
#184 = VERTEX_POINT ( 'NONE', #627 ) ;
#185 = COORDINATED_UNIVERSAL_TIME_OFFSET ( 7, 0, .AHEAD. ) ;
#186 = CARTESIAN_POINT ( 'NONE',  ( -35.00100000000000477, 30.00000000000000000, 34.99999999999999289 ) ) ;
#187 = VERTEX_POINT ( 'NONE', #58 ) ;
#188 = PERSON_AND_ORGANIZATION ( #344, #8 ) ;
#189 = FACE_OUTER_BOUND ( 'NONE', #217, .T. ) ;
#190 = CARTESIAN_POINT ( 'NONE',  ( -35.00000000000000000, 0.000000000000000000, 29.99999999999999645 ) ) ;
#191 = SHAPE_DEFINITION_REPRESENTATION ( #221, #612 ) ;
#192 = VECTOR ( 'NONE', #244, 1000.000000000000227 ) ;
#193 = EDGE_CURVE ( 'NONE', #123, #461, #574, .T. ) ;
#194 = DIRECTION ( 'NONE',  ( 0.000000000000000000, 0.000000000000000000, -1.000000000000000000 ) ) ;
#195 = VECTOR ( 'NONE', #573, 1000.000000000000000 ) ;
#196 = DIRECTION ( 'NONE',  ( 1.224646799147353207E-16, -1.000000000000000000, 0.000000000000000000 ) ) ;
#197 = ORIENTED_EDGE ( 'NONE', *, *, #150, .F. ) ;
#198 = CARTESIAN_POINT ( 'NONE',  ( -35.00000000000000000, 30.00000000000000000, 29.99999999999999645 ) ) ;
#199 = VECTOR ( 'NONE', #142, 1000.000000000000000 ) ;
#200 = EDGE_CURVE ( 'NONE', #522, #382, #62, .T. ) ;
#201 = CARTESIAN_POINT ( 'NONE',  ( 1.499759782661861440E-32, -45.00000000000000000, 0.000000000000000000 ) ) ;
#202 = CIRCLE ( 'NONE', #579, 34.99999999999999289 ) ;
#203 = VECTOR ( 'NONE', #410, 1000.000000000000000 ) ;
#204 = LINE ( 'NONE', #156, #203 ) ;
#205 = DIRECTION ( 'NONE',  ( 0.000000000000000000, 0.000000000000000000, -1.000000000000000000 ) ) ;
#206 = LINE ( 'NONE', #413, #457 ) ;
#207 = EDGE_LOOP ( 'NONE', ( #345, #337, #197, #247 ) ) ;
#208 = EDGE_CURVE ( 'NONE', #475, #382, #202, .T. ) ;
#209 = DIRECTION ( 'NONE',  ( -0.000000000000000000, 0.000000000000000000, 1.000000000000000000 ) ) ;
#210 = VECTOR ( 'NONE', #412, 1000.000000000000000 ) ;
#211 = DIRECTION ( 'NONE',  ( 0.000000000000000000, 1.000000000000000000, 0.000000000000000000 ) ) ;
#212 = VERTEX_POINT ( 'NONE', #215 ) ;
#213 = LINE ( 'NONE', #633, #195 ) ;
#214 = EDGE_CURVE ( 'NONE', #508, #299, #559, .T. ) ;
#215 = CARTESIAN_POINT ( 'NONE',  ( -1.999999999999993561, -45.00000000000000000, 0.000000000000000000 ) ) ;
#216 = AXIS2_PLACEMENT_3D ( 'NONE', #358, #260, #14 ) ;
#217 = EDGE_LOOP ( 'NONE', ( #438, #19, #389, #645 ) ) ;
#218 = DATE_AND_TIME ( #276, #442 ) ;
#219 = CARTESIAN_POINT ( 'NONE',  ( 0.000000000000000000, 19.99999999999999645, 0.000000000000000000 ) ) ;
#220 = ORIENTED_EDGE ( 'NONE', *, *, #129, .T. ) ;
#221 = PRODUCT_DEFINITION_SHAPE ( 'NONE', 'NONE',  #107 ) ;
#222 =( NAMED_UNIT ( * ) SI_UNIT ( $, .STERADIAN. ) SOLID_ANGLE_UNIT ( ) );
#223 = CARTESIAN_POINT ( 'NONE',  ( -30.00000000000000000, 0.000000000000000000, 0.000000000000000000 ) ) ;
#224 = ORIENTED_EDGE ( 'NONE', *, *, #445, .F. ) ;
#225 = CARTESIAN_POINT ( 'NONE',  ( -30.00000000000000355, 30.00000000000000000, -27.99590275976648357 ) ) ;
#226 = VERTEX_POINT ( 'NONE', #166 ) ;
#227 = VECTOR ( 'NONE', #303, 1000.000000000000000 ) ;
#228 = DIRECTION ( 'NONE',  ( 0.000000000000000000, 1.000000000000000000, 0.000000000000000000 ) ) ;
#229 = DIRECTION ( 'NONE',  ( -1.000000000000000000, 0.000000000000000000, 0.000000000000000000 ) ) ;
#230 = ORIENTED_EDGE ( 'NONE', *, *, #445, .T. ) ;
#231 = EDGE_CURVE ( 'NONE', #104, #376, #590, .T. ) ;
#232 = LINE ( 'NONE', #591, #374 ) ;
#233 = AXIS2_PLACEMENT_3D ( 'NONE', #634, #169, #380 ) ;
#234 = EDGE_LOOP ( 'NONE', ( #121, #643, #504, #157 ) ) ;
#235 = PERSON_AND_ORGANIZATION ( #344, #8 ) ;
#236 = LOCAL_TIME ( 20, 42, 58.00000000000000000, #165 ) ;
#237 = FACE_OUTER_BOUND ( 'NONE', #468, .T. ) ;
#238 = ORIENTED_EDGE ( 'NONE', *, *, #273, .T. ) ;
#239 = AXIS2_PLACEMENT_3D ( 'NONE', #149, #512, #355 ) ;
#240 = DESIGN_CONTEXT ( 'detailed design', #575, 'design' ) ;
#241 = CARTESIAN_POINT ( 'NONE',  ( 0.000000000000000000, 30.00000000000000000, 0.000000000000000000 ) ) ;
#242 = ORIENTED_EDGE ( 'NONE', *, *, #193, .T. ) ;
#243 = LINE ( 'NONE', #498, #210 ) ;
#244 = DIRECTION ( 'NONE',  ( -0.5508422083307387140, 0.8346094065617251090, 0.000000000000000000 ) ) ;
#245 = CIRCLE ( 'NONE', #233, 34.99999999999999289 ) ;
#246 = EDGE_CURVE ( 'NONE', #433, #526, #379, .T. ) ;
#247 = ORIENTED_EDGE ( 'NONE', *, *, #383, .F. ) ;
#248 = CALENDAR_DATE ( 2025, 2, 10 ) ;
#249 = CC_DESIGN_PERSON_AND_ORGANIZATION_ASSIGNMENT ( #505, #593, ( #569 ) ) ;
#250 = FACE_OUTER_BOUND ( 'NONE', #647, .T. ) ;
#251 = CARTESIAN_POINT ( 'NONE',  ( -35.00100000000000477, 30.00000000000000000, -34.99999999999999289 ) ) ;
#252 = ORIENTED_EDGE ( 'NONE', *, *, #296, .T. ) ;
#253 = AXIS2_PLACEMENT_3D ( 'NONE', #351, #397, #657 ) ;
#254 = DIRECTION ( 'NONE',  ( 0.000000000000000000, -0.8346094065617252200, -0.5508422083307386030 ) ) ;
#255 = VERTEX_POINT ( 'NONE', #74 ) ;
#256 = ADVANCED_FACE ( 'NONE', ( #570 ), #309, .F. ) ;
#257 = CARTESIAN_POINT ( 'NONE',  ( 0.000000000000000000, 0.000000000000000000, -29.99999999999999645 ) ) ;
#258 = CARTESIAN_POINT ( 'NONE',  ( -1.999999999999993117, -50.00000000000000000, 0.000000000000000000 ) ) ;
#259 = CARTESIAN_POINT ( 'NONE',  ( -35.00100000000000477, 30.00000000000000000, 34.99999999999999289 ) ) ;
#260 = DIRECTION ( 'NONE',  ( 0.000000000000000000, 1.000000000000000000, 0.000000000000000000 ) ) ;
#261 = ORIENTED_EDGE ( 'NONE', *, *, #539, .T. ) ;
#262 = CARTESIAN_POINT ( 'NONE',  ( -30.00000000000000355, 30.00000000000000000, -29.99999999999999645 ) ) ;
#263 = MANIFOLD_SOLID_BREP ( 'Stock-cone-1', #36 ) ;
#264 = DIRECTION ( 'NONE',  ( -1.000000000000000000, -1.224646799147353207E-16, 0.000000000000000000 ) ) ;
#265 = ORIENTED_EDGE ( 'NONE', *, *, #636, .T. ) ;
#266 = AXIS2_PLACEMENT_3D ( 'NONE', #287, #183, #390 ) ;
#267 = CARTESIAN_POINT ( 'NONE',  ( -3.081487911019577365E-30, -50.00000000000000000, -1.999999999999999112 ) ) ;
#268 = ORIENTED_EDGE ( 'NONE', *, *, #628, .T. ) ;
#269 = DIRECTION ( 'NONE',  ( 0.000000000000000000, 0.000000000000000000, -1.000000000000000000 ) ) ;
#270 = VECTOR ( 'NONE', #254, 1000.000000000000000 ) ;
#271 = ORIENTED_EDGE ( 'NONE', *, *, #423, .T. ) ;
#272 = APPROVAL_DATE_TIME ( #218, #340 ) ;
#273 = EDGE_CURVE ( 'NONE', #170, #433, #204, .T. ) ;
#274 = CARTESIAN_POINT ( 'NONE',  ( -34.99999999999999289, -1.122515770092296487E-14, 0.000000000000000000 ) ) ;
#275 = EDGE_LOOP ( 'NONE', ( #391, #146, #164, #629 ) ) ;
#276 = CALENDAR_DATE ( 2025, 2, 10 ) ;
#277 = CARTESIAN_POINT ( 'NONE',  ( 35.00100000000000477, 19.99999999999999645, -34.99999999999999289 ) ) ;
#278 = ORIENTED_EDGE ( 'NONE', *, *, #296, .F. ) ;
#279 = CARTESIAN_POINT ( 'NONE',  ( 35.00100000000000477, 19.99999999999999645, 34.99999999999999289 ) ) ;
#280 = CARTESIAN_POINT ( 'NONE',  ( -34.99999999999999289, 19.99999999999999645, 0.000000000000000000 ) ) ;
#281 = ORIENTED_EDGE ( 'NONE', *, *, #231, .T. ) ;
#282 = AXIS2_PLACEMENT_3D ( 'NONE', #462, #557, #148 ) ;
#283 = EDGE_CURVE ( 'NONE', #16, #461, #613, .T. ) ;
#284 = AXIS2_PLACEMENT_3D ( 'NONE', #115, #317, #264 ) ;
#285 = CARTESIAN_POINT ( 'NONE',  ( 5.510910596163089556E-15, -45.00000000000000000, 0.000000000000000000 ) ) ;
#286 = ORIENTED_EDGE ( 'NONE', *, *, #283, .T. ) ;
#287 = CARTESIAN_POINT ( 'NONE',  ( -30.00000000000000355, 19.99999999999999645, -29.99999999999999645 ) ) ;
#288 = CIRCLE ( 'NONE', #352, 1.999999999999999112 ) ;
#289 = VERTEX_POINT ( 'NONE', #521 ) ;
#290 = APPROVAL_STATUS ( 'not_yet_approved' ) ;
#291 = CARTESIAN_POINT ( 'NONE',  ( 5.510910596163089556E-15, -45.00000000000000000, 0.000000000000000000 ) ) ;
#292 = ORIENTED_EDGE ( 'NONE', *, *, #421, .F. ) ;
#293 = DATE_AND_TIME ( #76, #145 ) ;
#294 = AXIS2_PLACEMENT_3D ( 'NONE', #375, #624, #567 ) ;
#295 = CARTESIAN_POINT ( 'NONE',  ( -30.00000000000000355, 30.00000000000000000, 29.99999999999999645 ) ) ;
#296 = EDGE_CURVE ( 'NONE', #184, #318, #489, .T. ) ;
#297 = DIRECTION ( 'NONE',  ( -1.000000000000000000, -1.224646799147353207E-16, 0.000000000000000000 ) ) ;
#298 = EDGE_CURVE ( 'NONE', #226, #7, #206, .T. ) ;
#299 = VERTEX_POINT ( 'NONE', #267 ) ;
#300 = CYLINDRICAL_SURFACE ( 'NONE', #387, 34.99999999999999289 ) ;
#301 = DIRECTION ( 'NONE',  ( -1.000000000000000000, -1.224646799147353207E-16, 0.000000000000000000 ) ) ;
#302 = VECTOR ( 'NONE', #483, 1000.000000000000000 ) ;
#303 = DIRECTION ( 'NONE',  ( 0.000000000000000000, 1.000000000000000000, 0.000000000000000000 ) ) ;
#304 = CC_DESIGN_PERSON_AND_ORGANIZATION_ASSIGNMENT ( #533, #319, ( #378 ) ) ;
#305 = LINE ( 'NONE', #251, #548 ) ;
#306 = PLANE ( 'NONE',  #102 ) ;
#307 = LINE ( 'NONE', #56, #439 ) ;
#308 = ADVANCED_FACE ( 'NONE', ( #474 ), #381, .T. ) ;
#309 = PLANE ( 'NONE',  #284 ) ;
#310 = ORIENTED_EDGE ( 'NONE', *, *, #180, .T. ) ;
#311 = DIRECTION ( 'NONE',  ( 0.000000000000000000, 0.000000000000000000, 1.000000000000000000 ) ) ;
#312 = DIRECTION ( 'NONE',  ( 0.000000000000000000, 0.000000000000000000, 1.000000000000000000 ) ) ;
#313 = VECTOR ( 'NONE', #106, 1000.000000000000000 ) ;
#314 = CC_DESIGN_PERSON_AND_ORGANIZATION_ASSIGNMENT ( #235, #543, ( #322 ) ) ;
#315 = ORIENTED_EDGE ( 'NONE', *, *, #480, .T. ) ;
#316 = CARTESIAN_POINT ( 'NONE',  ( 0.000000000000000000, 30.00000000000000000, 0.000000000000000000 ) ) ;
#317 = DIRECTION ( 'NONE',  ( -1.224646799147353207E-16, 1.000000000000000000, 0.000000000000000000 ) ) ;
#318 = VERTEX_POINT ( 'NONE', #130 ) ;
#319 = PERSON_AND_ORGANIZATION_ROLE ( 'design_owner' ) ;
#320 = AXIS2_PLACEMENT_3D ( 'NONE', #388, #80, #29 ) ;
#321 = DIRECTION ( 'NONE',  ( 0.000000000000000000, -1.000000000000000000, 0.000000000000000000 ) ) ;
#322 = PRODUCT_DEFINITION_FORMATION_WITH_SPECIFIED_SOURCE ( 'ANY', '', #378, .NOT_KNOWN. ) ;
#323 = ORIENTED_EDGE ( 'NONE', *, *, #600, .T. ) ;
#324 = ADVANCED_FACE ( 'NONE', ( #179 ), #335, .F. ) ;
#325 = DIRECTION ( 'NONE',  ( 0.000000000000000000, 1.000000000000000000, 0.000000000000000000 ) ) ;
#326 = AXIS2_PLACEMENT_3D ( 'NONE', #327, #269, #163 ) ;
#327 = CARTESIAN_POINT ( 'NONE',  ( -35.00100000000000477, 30.00000000000000000, -34.99999999999999289 ) ) ;
#328 = ORIENTED_EDGE ( 'NONE', *, *, #402, .F. ) ;
#329 = CIRCLE ( 'NONE', #40, 5.000000000000000888 ) ;
#330 = APPROVAL_ROLE ( '' ) ;
#331 = DIRECTION ( 'NONE',  ( 0.000000000000000000, 0.000000000000000000, 1.000000000000000000 ) ) ;
#332 = ORIENTED_EDGE ( 'NONE', *, *, #484, .F. ) ;
#333 = COORDINATED_UNIVERSAL_TIME_OFFSET ( 7, 0, .AHEAD. ) ;
#334 = VECTOR ( 'NONE', #384, 1000.000000000000000 ) ;
#335 = CYLINDRICAL_SURFACE ( 'NONE', #466, 1.600000000000000755 ) ;
#336 = ADVANCED_FACE ( 'NONE', ( #26 ), #534, .T. ) ;
#337 = ORIENTED_EDGE ( 'NONE', *, *, #15, .T. ) ;
#338 = DIRECTION ( 'NONE',  ( -1.000000000000000000, 0.000000000000000000, 0.000000000000000000 ) ) ;
#339 = ORIENTED_EDGE ( 'NONE', *, *, #480, .F. ) ;
#340 = APPROVAL ( #626, 'UNSPECIFIED' ) ;
#341 = CARTESIAN_POINT ( 'NONE',  ( -30.00000000000000000, 19.99999999999999645, 34.99999999999999289 ) ) ;
#342 = EDGE_LOOP ( 'NONE', ( #136, #242, #385, #541, #571 ) ) ;
#343 = CARTESIAN_POINT ( 'NONE',  ( 0.000000000000000000, 19.99999999999999645, -34.99999999999999289 ) ) ;
#344 = PERSON ( 'UNSPECIFIED', 'UNSPECIFIED', 'UNSPECIFIED', ('UNSPECIFIED'), ('UNSPECIFIED'), ('UNSPECIFIED') ) ;
#345 = ORIENTED_EDGE ( 'NONE', *, *, #168, .T. ) ;
#346 = DIRECTION ( 'NONE',  ( -0.000000000000000000, 0.000000000000000000, 1.000000000000000000 ) ) ;
#347 = FACE_OUTER_BOUND ( 'NONE', #585, .T. ) ;
#348 = CIRCLE ( 'NONE', #112, 1.999999999999999112 ) ;
#349 = DIRECTION ( 'NONE',  ( 0.000000000000000000, -1.000000000000000000, 0.000000000000000000 ) ) ;
#350 = PLANE ( 'NONE',  #216 ) ;
#351 = CARTESIAN_POINT ( 'NONE',  ( 0.000000000000000000, 19.99999999999999645, 0.000000000000000000 ) ) ;
#352 = AXIS2_PLACEMENT_3D ( 'NONE', #285, #492, #338 ) ;
#353 = DIRECTION ( 'NONE',  ( -0.5283018867924530459, 0.8490566037735849392, 0.000000000000000000 ) ) ;
#354 = AXIS2_PLACEMENT_3D ( 'NONE', #651, #598, #297 ) ;
#355 = DIRECTION ( 'NONE',  ( -1.000000000000000000, 0.000000000000000000, 0.000000000000000000 ) ) ;
#356 = EDGE_CURVE ( 'NONE', #154, #433, #232, .T. ) ;
#357 = CYLINDRICAL_SURFACE ( 'NONE', #434, 1.600000000000000755 ) ;
#358 = CARTESIAN_POINT ( 'NONE',  ( 35.00100000000000477, 19.99999999999999645, 34.99999999999999289 ) ) ;
#359 = DIRECTION ( 'NONE',  ( 0.000000000000000000, 1.000000000000000000, 0.000000000000000000 ) ) ;
#360 = EDGE_CURVE ( 'NONE', #622, #212, #288, .T. ) ;
#361 = EDGE_CURVE ( 'NONE', #170, #371, #32, .T. ) ;
#362 = DIRECTION ( 'NONE',  ( -0.000000000000000000, 0.8490566037735849392, 0.5283018867924528239 ) ) ;
#363 = ORIENTED_EDGE ( 'NONE', *, *, #356, .F. ) ;
#364 = LINE ( 'NONE', #605, #523 ) ;
#365 = AXIS2_PLACEMENT_3D ( 'NONE', #510, #98, #50 ) ;
#366 = DIRECTION ( 'NONE',  ( 0.000000000000000000, 0.000000000000000000, 1.000000000000000000 ) ) ;
#367 = EDGE_LOOP ( 'NONE', ( #450, #127, #532, #363 ) ) ;
#368 = CARTESIAN_POINT ( 'NONE',  ( 0.000000000000000000, 30.00000000000000000, -34.99999999999999289 ) ) ;
#369 = ADVANCED_FACE ( 'NONE', ( #237 ), #440, .T. ) ;
#370 = CC_DESIGN_APPROVAL ( #436, ( #322 ) ) ;
#371 = VERTEX_POINT ( 'NONE', #173 ) ;
#372 = CC_DESIGN_PERSON_AND_ORGANIZATION_ASSIGNMENT ( #428, #425, ( #107 ) ) ;
#373 = CALENDAR_DATE ( 2025, 2, 10 ) ;
#374 = VECTOR ( 'NONE', #84, 1000.000000000000000 ) ;
#375 = CARTESIAN_POINT ( 'NONE',  ( 0.000000000000000000, 0.000000000000000000, 0.000000000000000000 ) ) ;
#376 = VERTEX_POINT ( 'NONE', #223 ) ;
#377 = DATE_AND_TIME ( #373, #236 ) ;
#378 = PRODUCT ( 'Cone2_Ver2', 'Cone2_Ver2', '', ( #118 ) ) ;
#379 = CIRCLE ( 'NONE', #92, 5.000000000000000888 ) ;
#380 = DIRECTION ( 'NONE',  ( -1.000000000000000000, -1.224646799147353207E-16, 0.000000000000000000 ) ) ;
#381 = CONICAL_SURFACE ( 'NONE', #93, 1.999999999999999112, 0.5833730069938558582 ) ;
#382 = VERTEX_POINT ( 'NONE', #343 ) ;
#383 = EDGE_CURVE ( 'NONE', #299, #255, #587, .T. ) ;
#384 = DIRECTION ( 'NONE',  ( 0.000000000000000000, 1.000000000000000000, -0.000000000000000000 ) ) ;
#385 = ORIENTED_EDGE ( 'NONE', *, *, #636, .F. ) ;
#386 = FACE_OUTER_BOUND ( 'NONE', #441, .T. ) ;
#387 = AXIS2_PLACEMENT_3D ( 'NONE', #37, #550, #46 ) ;
#388 = CARTESIAN_POINT ( 'NONE',  ( 0.000000000000000000, 0.000000000000000000, 0.000000000000000000 ) ) ;
#389 = ORIENTED_EDGE ( 'NONE', *, *, #519, .F. ) ;
#390 = DIRECTION ( 'NONE',  ( 0.000000000000000000, 0.000000000000000000, 1.000000000000000000 ) ) ;
#391 = ORIENTED_EDGE ( 'NONE', *, *, #395, .F. ) ;
#392 = APPROVAL_DATE_TIME ( #293, #436 ) ;
#393 = CARTESIAN_POINT ( 'NONE',  ( 0.000000000000000000, 30.00000000000000000, 34.99999999999999289 ) ) ;
#394 = ORIENTED_EDGE ( 'NONE', *, *, #97, .T. ) ;
#395 = EDGE_CURVE ( 'NONE', #289, #109, #176, .T. ) ;
#396 = FACE_OUTER_BOUND ( 'NONE', #27, .T. ) ;
#397 = DIRECTION ( 'NONE',  ( -0.000000000000000000, -1.000000000000000000, -0.000000000000000000 ) ) ;
#398 = DATE_AND_TIME ( #248, #52 ) ;
#399 = CARTESIAN_POINT ( 'NONE',  ( 0.000000000000000000, 30.00000000000000000, -34.99999999999999289 ) ) ;
#400 = DIRECTION ( 'NONE',  ( -0.000000000000000000, 1.000000000000000000, -0.000000000000000000 ) ) ;
#401 = AXIS2_PLACEMENT_3D ( 'NONE', #316, #325, #20 ) ;
#402 = EDGE_CURVE ( 'NONE', #318, #187, #437, .T. ) ;
#403 = DIRECTION ( 'NONE',  ( 0.000000000000000000, 0.000000000000000000, 1.000000000000000000 ) ) ;
#404 = LINE ( 'NONE', #258, #192 ) ;
#405 = FACE_OUTER_BOUND ( 'NONE', #415, .T. ) ;
#406 = AXIS2_PLACEMENT_3D ( 'NONE', #432, #114, #469 ) ;
#407 = APPLICATION_CONTEXT ( 'configuration controlled 3d designs of mechanical parts and assemblies' ) ;
#408 = CARTESIAN_POINT ( 'NONE',  ( 5.249159239316501846E-31, -4.286263797015735707E-15, 0.000000000000000000 ) ) ;
#409 = VECTOR ( 'NONE', #353, 999.9999999999998863 ) ;
#410 = DIRECTION ( 'NONE',  ( -1.000000000000000000, 0.000000000000000000, 0.000000000000000000 ) ) ;
#411 = EDGE_CURVE ( 'NONE', #184, #485, #135, .T. ) ;
#412 = DIRECTION ( 'NONE',  ( -0.000000000000000000, -1.000000000000000000, -0.000000000000000000 ) ) ;
#413 = CARTESIAN_POINT ( 'NONE',  ( -35.00000000000000000, 30.00000000000000000, 34.99999999999999289 ) ) ;
#414 = APPROVAL_PERSON_ORGANIZATION ( #578, #436, #330 ) ;
#415 = EDGE_LOOP ( 'NONE', ( #490, #71, #339, #281 ) ) ;
#416 = AXIS2_PLACEMENT_3D ( 'NONE', #241, #620, #194 ) ;
#417 = DIRECTION ( 'NONE',  ( 1.000000000000000000, 0.000000000000000000, 0.000000000000000000 ) ) ;
#418 = LINE ( 'NONE', #368, #499 ) ;
#419 = ORIENTED_EDGE ( 'NONE', *, *, #402, .T. ) ;
#420 = DIRECTION ( 'NONE',  ( 0.000000000000000000, 1.000000000000000000, 0.000000000000000000 ) ) ;
#421 = EDGE_CURVE ( 'NONE', #212, #16, #31, .T. ) ;
#422 = DIRECTION ( 'NONE',  ( -1.224646799147353207E-16, 1.000000000000000000, -0.000000000000000000 ) ) ;
#423 = EDGE_CURVE ( 'NONE', #475, #289, #18, .T. ) ;
#424 = ORIENTED_EDGE ( 'NONE', *, *, #57, .T. ) ;
#425 = PERSON_AND_ORGANIZATION_ROLE ( 'creator' ) ;
#426 = FACE_OUTER_BOUND ( 'NONE', #234, .T. ) ;
#427 = ORIENTED_EDGE ( 'NONE', *, *, #97, .F. ) ;
#428 = PERSON_AND_ORGANIZATION ( #344, #8 ) ;
#429 = CARTESIAN_POINT ( 'NONE',  ( -35.00000000000000000, 19.99999999999999645, 34.99999999999999289 ) ) ;
#430 = CC_DESIGN_APPROVAL ( #340, ( #107 ) ) ;
#431 = ORIENTED_EDGE ( 'NONE', *, *, #246, .T. ) ;
#432 = CARTESIAN_POINT ( 'NONE',  ( -30.00000000000000355, 20.00000000000000355, -29.59590275976648144 ) ) ;
#433 = VERTEX_POINT ( 'NONE', #341 ) ;
#434 = AXIS2_PLACEMENT_3D ( 'NONE', #565, #558, #311 ) ;
#435 = CARTESIAN_POINT ( 'NONE',  ( -1.999999999999993117, -50.00000000000000000, 0.000000000000000000 ) ) ;
#436 = APPROVAL ( #125, 'UNSPECIFIED' ) ;
#437 = LINE ( 'NONE', #545, #553 ) ;
#438 = ORIENTED_EDGE ( 'NONE', *, *, #273, .F. ) ;
#439 = VECTOR ( 'NONE', #205, 1000.000000000000000 ) ;
#440 = PLANE ( 'NONE',  #320 ) ;
#441 = EDGE_LOOP ( 'NONE', ( #238, #431, #582, #427 ) ) ;
#442 = LOCAL_TIME ( 20, 42, 58.00000000000000000, #333 ) ;
#443 = COORDINATED_UNIVERSAL_TIME_OFFSET ( 7, 0, .AHEAD. ) ;
#444 = CARTESIAN_POINT ( 'NONE',  ( 0.000000000000000000, 0.000000000000000000, 29.99999999999999645 ) ) ;
#445 = EDGE_CURVE ( 'NONE', #371, #123, #537, .T. ) ;
#446 = EDGE_LOOP ( 'NONE', ( #292, #424, #265, #44 ) ) ;
#447 = VECTOR ( 'NONE', #400, 1000.000000000000000 ) ;
#448 = SECURITY_CLASSIFICATION_LEVEL ( 'unclassified' ) ;
#449 = FACE_BOUND ( 'NONE', #481, .T. ) ;
#450 = ORIENTED_EDGE ( 'NONE', *, *, #180, .F. ) ;
#451 = CARTESIAN_POINT ( 'NONE',  ( -35.00000000000000000, 19.99999999999999645, 34.99999999999999289 ) ) ;
#452 = CARTESIAN_POINT ( 'NONE',  ( -29.99999999999999645, -6.735557395310441826E-15, 0.000000000000000000 ) ) ;
#453 = CARTESIAN_POINT ( 'NONE',  ( 0.000000000000000000, 30.00000000000000000, -30.00000000000000000 ) ) ;
#454 = LINE ( 'NONE', #549, #227 ) ;
#455 = ORIENTED_EDGE ( 'NONE', *, *, #298, .T. ) ;
#456 = CONICAL_SURFACE ( 'NONE', #239, 1.999999999999999112, 0.5833730069938558582 ) ;
#457 = VECTOR ( 'NONE', #67, 1000.000000000000000 ) ;
#458 = VECTOR ( 'NONE', #547, 1000.000000000000000 ) ;
#459 = PRODUCT_RELATED_PRODUCT_CATEGORY ( 'detail', '', ( #378 ) ) ;
#460 = ORIENTED_EDGE ( 'NONE', *, *, #473, .F. ) ;
#461 = VERTEX_POINT ( 'NONE', #444 ) ;
#462 = CARTESIAN_POINT ( 'NONE',  ( -30.00000000000000355, 30.00000000000000000, -29.59590275976648144 ) ) ;
#463 = ORIENTED_EDGE ( 'NONE', *, *, #150, .T. ) ;
#464 = APPROVAL ( #290, 'UNSPECIFIED' ) ;
#465 = FACE_OUTER_BOUND ( 'NONE', #367, .T. ) ;
#466 = AXIS2_PLACEMENT_3D ( 'NONE', #496, #488, #331 ) ;
#467 = DIRECTION ( 'NONE',  ( -0.000000000000000000, -1.000000000000000000, -0.000000000000000000 ) ) ;
#468 = EDGE_LOOP ( 'NONE', ( #85, #315, #323, #286, #592, #224, #576, #68, #11, #79, #134, #497, #75, #589 ) ) ;
#469 = DIRECTION ( 'NONE',  ( 0.000000000000000000, 0.000000000000000000, 1.000000000000000000 ) ) ;
#470 = DIRECTION ( 'NONE',  ( 0.000000000000000000, 0.000000000000000000, -1.000000000000000000 ) ) ;
#471 = ORIENTED_EDGE ( 'NONE', *, *, #561, .F. ) ;
#472 = VECTOR ( 'NONE', #21, 1000.000000000000000 ) ;
#473 = EDGE_CURVE ( 'NONE', #162, #91, #245, .T. ) ;
#474 = FACE_OUTER_BOUND ( 'NONE', #625, .T. ) ;
#475 = VERTEX_POINT ( 'NONE', #280 ) ;
#476 = CARTESIAN_POINT ( 'NONE',  ( 0.000000000000000000, 30.00000000000000000, -34.99999999999999289 ) ) ;
#477 = EDGE_LOOP ( 'NONE', ( #33, #60, #3 ) ) ;
#478 = APPLICATION_PROTOCOL_DEFINITION ( 'international standard', 'config_control_design', 1994, #575 ) ;
#479 = DIRECTION ( 'NONE',  ( 0.000000000000000000, 1.000000000000000000, 0.000000000000000000 ) ) ;
#480 = EDGE_CURVE ( 'NONE', #104, #622, #581, .T. ) ;
#481 = EDGE_LOOP ( 'NONE', ( #563, #54 ) ) ;
#482 = DATE_TIME_ROLE ( 'creation_date' ) ;
#483 = DIRECTION ( 'NONE',  ( 0.000000000000000000, 0.8346094065617252200, -0.5508422083307386030 ) ) ;
#484 = EDGE_CURVE ( 'NONE', #382, #109, #77, .T. ) ;
#485 = VERTEX_POINT ( 'NONE', #225 ) ;
#486 = DIRECTION ( 'NONE',  ( 0.000000000000000000, -0.000000000000000000, 1.000000000000000000 ) ) ;
#487 = CIRCLE ( 'NONE', #282, 1.600000000000000755 ) ;
#488 = DIRECTION ( 'NONE',  ( -0.000000000000000000, 1.000000000000000000, -0.000000000000000000 ) ) ;
#489 = CIRCLE ( 'NONE', #655, 1.600000000000000755 ) ;
#490 = ORIENTED_EDGE ( 'NONE', *, *, #57, .F. ) ;
#491 = PERSON_AND_ORGANIZATION ( #344, #8 ) ;
#492 = DIRECTION ( 'NONE',  ( -1.224646799147353207E-16, 1.000000000000000000, -0.000000000000000000 ) ) ;
#493 = ORIENTED_EDGE ( 'NONE', *, *, #648, .F. ) ;
#494 = EDGE_CURVE ( 'NONE', #318, #184, #617, .T. ) ;
#495 = VECTOR ( 'NONE', #133, 1000.000000000000000 ) ;
#496 = CARTESIAN_POINT ( 'NONE',  ( -30.00000000000000355, -50.00000000000000000, -29.59590275976648144 ) ) ;
#497 = ORIENTED_EDGE ( 'NONE', *, *, #172, .T. ) ;
#498 = CARTESIAN_POINT ( 'NONE',  ( -35.00000000000000000, 0.000000000000000000, -29.99999999999999645 ) ) ;
#499 = VECTOR ( 'NONE', #211, 1000.000000000000000 ) ;
#500 = EDGE_LOOP ( 'NONE', ( #30, #220, #546, #63, #39 ) ) ;
#501 = CIRCLE ( 'NONE', #517, 30.00000000000000000 ) ;
#502 = LINE ( 'NONE', #451, #313 ) ;
#503 = CARTESIAN_POINT ( 'NONE',  ( -35.00000000000000000, 0.000000000000000000, 0.000000000000000000 ) ) ;
#504 = ORIENTED_EDGE ( 'NONE', *, *, #484, .T. ) ;
#505 = PERSON_AND_ORGANIZATION ( #344, #8 ) ;
#506 = LINE ( 'NONE', #186, #199 ) ;
#507 = AXIS2_PLACEMENT_3D ( 'NONE', #1, #42, #158 ) ;
#508 = VERTEX_POINT ( 'NONE', #650 ) ;
#509 = FACE_OUTER_BOUND ( 'NONE', #446, .T. ) ;
#510 = CARTESIAN_POINT ( 'NONE',  ( 3.749399456654643801E-31, -3.061616997868382648E-15, 0.000000000000000000 ) ) ;
#511 = ADVANCED_FACE ( 'NONE', ( #189 ), #4, .T. ) ;
#512 = DIRECTION ( 'NONE',  ( -1.224646799147353207E-16, 1.000000000000000000, -0.000000000000000000 ) ) ;
#513 = CARTESIAN_POINT ( 'NONE',  ( -35.00000000000000000, 19.99999999999999645, 29.99999999999999645 ) ) ;
#514 = DIRECTION ( 'NONE',  ( 0.000000000000000000, 0.000000000000000000, 1.000000000000000000 ) ) ;
#515 = ORIENTED_EDGE ( 'NONE', *, *, #208, .T. ) ;
#516 = CARTESIAN_POINT ( 'NONE',  ( -30.00000000000000355, 30.00000000000000000, -34.99999999999999289 ) ) ;
#517 = AXIS2_PLACEMENT_3D ( 'NONE', #17, #228, #23 ) ;
#518 = PLANE ( 'NONE',  #326 ) ;
#519 = EDGE_CURVE ( 'NONE', #154, #371, #506, .T. ) ;
#520 = ORIENTED_EDGE ( 'NONE', *, *, #494, .T. ) ;
#521 = CARTESIAN_POINT ( 'NONE',  ( -35.00000000000000000, 19.99999999999999645, -29.99999999999999289 ) ) ;
#522 = VERTEX_POINT ( 'NONE', #399 ) ;
#523 = VECTOR ( 'NONE', #346, 1000.000000000000000 ) ;
#524 = PLANE ( 'NONE',  #566 ) ;
#525 = CARTESIAN_POINT ( 'NONE',  ( -30.00000000000000355, 30.00000000000000000, 29.99999999999999645 ) ) ;
#526 = VERTEX_POINT ( 'NONE', #513 ) ;
#527 = DIRECTION ( 'NONE',  ( 0.000000000000000000, 0.000000000000000000, 1.000000000000000000 ) ) ;
#528 = ORIENTED_EDGE ( 'NONE', *, *, #13, .T. ) ;
#529 = COORDINATED_UNIVERSAL_TIME_OFFSET ( 7, 0, .AHEAD. ) ;
#530 = ADVANCED_FACE ( 'NONE', ( #96 ), #601, .F. ) ;
#531 = DIRECTION ( 'NONE',  ( -0.000000000000000000, 1.000000000000000000, -0.000000000000000000 ) ) ;
#532 = ORIENTED_EDGE ( 'NONE', *, *, #246, .F. ) ;
#533 = PERSON_AND_ORGANIZATION ( #344, #8 ) ;
#534 = CYLINDRICAL_SURFACE ( 'NONE', #572, 5.000000000000000888 ) ;
#535 = EDGE_LOOP ( 'NONE', ( #252, #520 ) ) ;
#536 = VECTOR ( 'NONE', #321, 1000.000000000000000 ) ;
#537 = LINE ( 'NONE', #540, #119 ) ;
#538 = ORIENTED_EDGE ( 'NONE', *, *, #473, .T. ) ;
#539 = EDGE_CURVE ( 'NONE', #595, #522, #307, .T. ) ;
#540 = CARTESIAN_POINT ( 'NONE',  ( 0.000000000000000000, 30.00000000000000000, 29.99999999999999645 ) ) ;
#541 = ORIENTED_EDGE ( 'NONE', *, *, #231, .F. ) ;
#542 = APPROVAL_PERSON_ORGANIZATION ( #188, #464, #34 ) ;
#543 = PERSON_AND_ORGANIZATION_ROLE ( 'creator' ) ;
#544 = CC_DESIGN_SECURITY_CLASSIFICATION ( #569, ( #322 ) ) ;
#545 = CARTESIAN_POINT ( 'NONE',  ( -30.00000000000000355, -50.00000000000000000, -31.19590275976648286 ) ) ;
#546 = ORIENTED_EDGE ( 'NONE', *, *, #298, .F. ) ;
#547 = DIRECTION ( 'NONE',  ( -0.000000000000000000, -1.000000000000000000, -0.000000000000000000 ) ) ;
#548 = VECTOR ( 'NONE', #144, 1000.000000000000000 ) ;
#549 = CARTESIAN_POINT ( 'NONE',  ( -30.00000000000000355, 30.00000000000000000, -34.99999999999999289 ) ) ;
#550 = DIRECTION ( 'NONE',  ( -0.000000000000000000, -1.000000000000000000, -0.000000000000000000 ) ) ;
#551 = LINE ( 'NONE', #452, #409 ) ;
#552 = ADVANCED_FACE ( 'NONE', ( #465 ), #560, .T. ) ;
#553 = VECTOR ( 'NONE', #531, 1000.000000000000000 ) ;
#554 = DIRECTION ( 'NONE',  ( -1.000000000000000000, 0.000000000000000000, 0.000000000000000000 ) ) ;
#555 = APPROVAL_PERSON_ORGANIZATION ( #128, #340, #12 ) ;
#556 = CARTESIAN_POINT ( 'NONE',  ( -2.311115933264683024E-30, -45.00000000000000000, 1.999999999999999112 ) ) ;
#557 = DIRECTION ( 'NONE',  ( 0.000000000000000000, 1.000000000000000000, 0.000000000000000000 ) ) ;
#558 = DIRECTION ( 'NONE',  ( -0.000000000000000000, 1.000000000000000000, -0.000000000000000000 ) ) ;
#559 = LINE ( 'NONE', #70, #564 ) ;
#560 = CYLINDRICAL_SURFACE ( 'NONE', #131, 5.000000000000000888 ) ;
#561 = EDGE_CURVE ( 'NONE', #638, #508, #607, .T. ) ;
#562 = DIRECTION ( 'NONE',  ( 0.000000000000000000, 1.000000000000000000, 0.000000000000000000 ) ) ;
#563 = ORIENTED_EDGE ( 'NONE', *, *, #596, .F. ) ;
#564 = VECTOR ( 'NONE', #470, 1000.000000000000000 ) ;
#565 = CARTESIAN_POINT ( 'NONE',  ( -30.00000000000000355, -50.00000000000000000, -29.59590275976648144 ) ) ;
#566 = AXIS2_PLACEMENT_3D ( 'NONE', #279, #420, #486 ) ;
#567 = DIRECTION ( 'NONE',  ( 0.000000000000000000, 0.000000000000000000, 1.000000000000000000 ) ) ;
#568 = ORIENTED_EDGE ( 'NONE', *, *, #610, .F. ) ;
#569 = SECURITY_CLASSIFICATION ( '', '', #448 ) ;
#570 = FACE_OUTER_BOUND ( 'NONE', #48, .T. ) ;
#571 = ORIENTED_EDGE ( 'NONE', *, *, #656, .T. ) ;
#572 = AXIS2_PLACEMENT_3D ( 'NONE', #137, #86, #641 ) ;
#573 = DIRECTION ( 'NONE',  ( 0.000000000000000000, 1.000000000000000000, 0.000000000000000000 ) ) ;
#574 = LINE ( 'NONE', #621, #35 ) ;
#575 = APPLICATION_CONTEXT ( 'configuration controlled 3d designs of mechanical parts and assemblies' ) ;
#576 = ORIENTED_EDGE ( 'NONE', *, *, #361, .F. ) ;
#577 = EDGE_CURVE ( 'NONE', #226, #289, #243, .T. ) ;
#578 = PERSON_AND_ORGANIZATION ( #344, #8 ) ;
#579 = AXIS2_PLACEMENT_3D ( 'NONE', #219, #160, #366 ) ;
#580 = ADVANCED_FACE ( 'NONE', ( #616 ), #300, .T. ) ;
#581 = LINE ( 'NONE', #584, #89 ) ;
#582 = ORIENTED_EDGE ( 'NONE', *, *, #615, .T. ) ;
#583 = APPLICATION_PROTOCOL_DEFINITION ( 'international standard', 'config_control_design', 1994, #407 ) ;
#584 = CARTESIAN_POINT ( 'NONE',  ( 0.000000000000000000, -48.21428571428570820, 0.000000000000000000 ) ) ;
#585 = EDGE_LOOP ( 'NONE', ( #271, #132, #332, #101 ) ) ;
#586 =( LENGTH_UNIT ( ) NAMED_UNIT ( * ) SI_UNIT ( .MILLI., .METRE. ) );
#587 = LINE ( 'NONE', #175, #302 ) ;
#588 = ADVANCED_FACE ( 'NONE', ( #449, #250 ), #155, .T. ) ;
#589 = ORIENTED_EDGE ( 'NONE', *, *, #539, .F. ) ;
#590 = CIRCLE ( 'NONE', #294, 30.00000000000000000 ) ;
#591 = CARTESIAN_POINT ( 'NONE',  ( -30.00000000000000355, 30.00000000000000000, 34.99999999999999289 ) ) ;
#592 = ORIENTED_EDGE ( 'NONE', *, *, #193, .F. ) ;
#593 = PERSON_AND_ORGANIZATION_ROLE ( 'classification_officer' ) ;
#594 = DIRECTION ( 'NONE',  ( -1.000000000000000000, 0.000000000000000000, 0.000000000000000000 ) ) ;
#595 = VERTEX_POINT ( 'NONE', #453 ) ;
#596 = EDGE_CURVE ( 'NONE', #485, #187, #99, .T. ) ;
#597 = LINE ( 'NONE', #139, #458 ) ;
#598 = DIRECTION ( 'NONE',  ( -1.224646799147353207E-16, 1.000000000000000000, -0.000000000000000000 ) ) ;
#599 = APPROVAL_DATE_TIME ( #398, #464 ) ;
#600 = EDGE_CURVE ( 'NONE', #622, #16, #364, .T. ) ;
#601 = CYLINDRICAL_SURFACE ( 'NONE', #416, 30.00000000000000000 ) ;
#602 = CONICAL_SURFACE ( 'NONE', #365, 29.99999999999999645, 0.5565993180102226656 ) ;
#603 = DIRECTION ( 'NONE',  ( -1.224646799147353207E-16, 1.000000000000000000, -0.000000000000000000 ) ) ;
#604 = CIRCLE ( 'NONE', #401, 30.00000000000000000 ) ;
#605 = CARTESIAN_POINT ( 'NONE',  ( 0.000000000000000000, -45.00000000000000000, 0.000000000000000000 ) ) ;
#606 = LINE ( 'NONE', #609, #270 ) ;
#607 = CIRCLE ( 'NONE', #507, 1.999999999999999112 ) ;
#608 = ADVANCED_FACE ( 'NONE', ( #396 ), #357, .F. ) ;
#609 = CARTESIAN_POINT ( 'NONE',  ( 0.000000000000000000, -53.03030303030303116, 0.000000000000000000 ) ) ;
#610 = EDGE_CURVE ( 'NONE', #170, #91, #597, .T. ) ;
#611 = LINE ( 'NONE', #190, #447 ) ;
#612 = ADVANCED_BREP_SHAPE_REPRESENTATION ( 'Cone2_Ver2', ( #263, #178 ), #55 ) ;
#613 = LINE ( 'NONE', #153, #25 ) ;
#614 = ORIENTED_EDGE ( 'NONE', *, *, #411, .T. ) ;
#615 = EDGE_CURVE ( 'NONE', #526, #475, #502, .T. ) ;
#616 = FACE_OUTER_BOUND ( 'NONE', #22, .T. ) ;
#617 = CIRCLE ( 'NONE', #406, 1.600000000000000755 ) ;
#618 = DIRECTION ( 'NONE',  ( -1.224646799147353207E-16, 1.000000000000000000, -0.000000000000000000 ) ) ;
#619 = VERTEX_POINT ( 'NONE', #516 ) ;
#620 = DIRECTION ( 'NONE',  ( -0.000000000000000000, -1.000000000000000000, -0.000000000000000000 ) ) ;
#621 = CARTESIAN_POINT ( 'NONE',  ( 0.000000000000000000, 30.00000000000000000, 30.00000000000000000 ) ) ;
#622 = VERTEX_POINT ( 'NONE', #61 ) ;
#623 =( NAMED_UNIT ( * ) PLANE_ANGLE_UNIT ( ) SI_UNIT ( $, .RADIAN. ) );
#624 = DIRECTION ( 'NONE',  ( 0.000000000000000000, 1.000000000000000000, 0.000000000000000000 ) ) ;
#625 = EDGE_LOOP ( 'NONE', ( #632, #181, #167, #460 ) ) ;
#626 = APPROVAL_STATUS ( 'not_yet_approved' ) ;
#627 = CARTESIAN_POINT ( 'NONE',  ( -30.00000000000000355, 20.00000000000000355, -27.99590275976648357 ) ) ;
#628 = EDGE_CURVE ( 'NONE', #619, #226, #329, .T. ) ;
#629 = ORIENTED_EDGE ( 'NONE', *, *, #38, .F. ) ;
#630 = CARTESIAN_POINT ( 'NONE',  ( 0.000000000000000000, 0.000000000000000000, 0.000000000000000000 ) ) ;
#631 = DIRECTION ( 'NONE',  ( 0.000000000000000000, 0.000000000000000000, -1.000000000000000000 ) ) ;
#632 = ORIENTED_EDGE ( 'NONE', *, *, #15, .F. ) ;
#633 = CARTESIAN_POINT ( 'NONE',  ( 0.000000000000000000, 30.00000000000000000, -30.00000000000000000 ) ) ;
#634 = CARTESIAN_POINT ( 'NONE',  ( 5.249159239316501846E-31, -4.286263797015735707E-15, 0.000000000000000000 ) ) ;
#635 = ORIENTED_EDGE ( 'NONE', *, *, #172, .F. ) ;
#636 = EDGE_CURVE ( 'NONE', #376, #461, #501, .T. ) ;
#637 = DIRECTION ( 'NONE',  ( -1.224646799147353207E-16, 1.000000000000000000, -0.000000000000000000 ) ) ;
#638 = VERTEX_POINT ( 'NONE', #435 ) ;
#639 = AXIS2_PLACEMENT_3D ( 'NONE', #291, #637, #594 ) ;
#640 = CALENDAR_DATE ( 2025, 2, 10 ) ;
#641 = DIRECTION ( 'NONE',  ( 0.000000000000000000, 0.000000000000000000, 1.000000000000000000 ) ) ;
#642 = CC_DESIGN_DATE_AND_TIME_ASSIGNMENT ( #377, #482, ( #107 ) ) ;
#643 = ORIENTED_EDGE ( 'NONE', *, *, #200, .T. ) ;
#644 = DIRECTION ( 'NONE',  ( -0.000000000000000000, 1.000000000000000000, -0.000000000000000000 ) ) ;
#645 = ORIENTED_EDGE ( 'NONE', *, *, #356, .T. ) ;
#646 = CARTESIAN_POINT ( 'NONE',  ( -30.00000000000000355, 30.00000000000000000, -29.59590275976648144 ) ) ;
#647 = EDGE_LOOP ( 'NONE', ( #117, #230, #493, #261, #174, #268, #455, #310 ) ) ;
#648 = EDGE_CURVE ( 'NONE', #595, #123, #604, .T. ) ;
#649 = DATE_TIME_ROLE ( 'classification_date' ) ;
#650 = CARTESIAN_POINT ( 'NONE',  ( -3.081487911019577365E-30, -50.00000000000000000, 1.999999999999999112 ) ) ;
#651 = CARTESIAN_POINT ( 'NONE',  ( 3.749399456654643801E-31, -3.061616997868382648E-15, 0.000000000000000000 ) ) ;
#652 = DIRECTION ( 'NONE',  ( 0.000000000000000000, 1.000000000000000000, 0.000000000000000000 ) ) ;
#653 = AXIS2_PLACEMENT_3D ( 'NONE', #408, #603, #301 ) ;
#654 = FACE_OUTER_BOUND ( 'NONE', #477, .T. ) ;
#655 = AXIS2_PLACEMENT_3D ( 'NONE', #2, #562, #312 ) ;
#656 = EDGE_CURVE ( 'NONE', #104, #595, #213, .T. ) ;
#657 = DIRECTION ( 'NONE',  ( 0.000000000000000000, 0.000000000000000000, 1.000000000000000000 ) ) ;
#658 = AXIS2_PLACEMENT_3D ( 'NONE', #259, #209, #417 ) ;
#659 = CARTESIAN_POINT ( 'NONE',  ( 0.000000000000000000, 30.00000000000000000, 30.00000000000000000 ) ) ;
#660 = CARTESIAN_POINT ( 'NONE',  ( 0.000000000000000000, -1.122515770092296487E-14, 34.99999999999999289 ) ) ;
#661 = CONICAL_SURFACE ( 'NONE', #354, 29.99999999999999645, 0.5565993180102226656 ) ;
#662 = ADVANCED_FACE ( 'NONE', ( #386 ), #524, .F. ) ;
ENDSEC;
END-ISO-10303-21;
